<svg width="658" height="517" viewBox="0 0 658 517" fill="none" xmlns="http://www.w3.org/2000/svg">
<g clip-path="url(#clip0_102_2)">
<path d="M591.663 257.787C591.663 248.861 591.197 240.028 590.265 231.288C583.401 162.854 550.884 105.639 504.577 65.2544C461.841 27.3182 406.309 3.14307 344.628 0.353639C289.563 -2.52877 232.602 12.1003 182.071 48.2389C181.947 48.3009 181.823 48.3939 181.73 48.4868C181.699 48.5178 181.668 48.5488 181.481 48.6728C181.419 48.7038 181.388 48.7348 181.388 48.7348C138.497 79.5736 108.495 120.144 91.289 164.62C5.97299 166.294 -50.7387 181.946 -56.2049 210.491C-62.0438 240.896 -8.43788 279.204 79.7355 314.103C79.8597 314.661 79.984 315.219 80.1082 315.746C80.1393 315.869 80.1703 315.993 80.2014 316.086C80.6983 318.318 81.2573 320.549 81.8164 322.781C81.8785 323.06 81.9406 323.308 82.0338 323.587C82.5928 325.787 83.214 327.988 83.8351 330.158C83.8973 330.344 83.9283 330.529 83.9904 330.715C85.3259 335.271 86.7546 339.766 88.3385 344.198C88.3696 344.322 88.4317 344.415 88.4628 344.539C89.146 346.46 89.8293 348.382 90.5747 350.272C107.16 394.283 136.137 434.451 177.288 465.197C178.344 466.003 179.431 466.809 180.518 467.584C181.233 468.111 181.947 468.606 182.661 469.133C184.618 470.528 186.575 471.892 188.562 473.193C238.969 506.946 294.998 520.087 348.883 516.399C358.884 515.779 368.729 514.601 378.388 512.896C403.452 508.464 427.242 500.406 449.262 489.31C451.561 488.163 453.828 486.955 456.095 485.715C456.468 485.498 456.872 485.312 457.244 485.095C459.48 483.855 461.717 482.616 463.922 481.314C464.108 481.221 464.294 481.097 464.45 481.004C466.624 479.733 468.767 478.4 470.91 477.068C471.096 476.944 471.282 476.851 471.438 476.727C473.643 475.332 475.848 473.875 478.022 472.419C478.115 472.357 478.208 472.295 478.302 472.233C478.488 472.109 478.643 471.985 478.829 471.861C480.227 470.9 481.594 469.97 482.96 468.978C483.302 468.73 483.643 468.513 483.954 468.265C485.321 467.274 486.656 466.282 488.023 465.29C488.302 465.073 488.582 464.856 488.861 464.67C492.06 462.253 495.166 459.804 498.241 457.232C498.707 456.86 499.141 456.457 499.607 456.085C500.632 455.217 501.657 454.349 502.651 453.482C503.241 452.986 503.831 452.459 504.421 451.932C505.291 451.157 506.16 450.382 507.03 449.576C507.62 449.049 508.21 448.492 508.8 447.934C508.862 447.872 508.925 447.81 508.987 447.748C509.297 447.469 509.608 447.159 509.95 446.88C523.304 434.575 535.386 420.814 545.946 405.782C648.095 407.518 717.913 391.711 724.063 359.912C729.746 329.972 677.662 292.314 591.663 257.787ZM84.0525 185.975H84.0215C84.301 185.076 84.5805 184.177 84.86 183.278C84.5805 184.177 84.3321 185.076 84.0525 185.975ZM76.6918 219.107C76.6608 219.293 76.6297 219.479 76.5986 219.665C76.257 221.866 75.9464 224.097 75.698 226.329C75.6669 226.701 75.6048 227.042 75.5737 227.413C75.2942 229.645 75.0457 231.877 74.8594 234.108C74.8594 234.201 74.8283 234.294 74.8283 234.387C74.642 236.526 74.4557 238.695 74.3314 240.834C74.3004 241.237 74.2693 241.64 74.2383 242.073C74.114 244.243 73.9898 246.382 73.9277 248.551C73.8966 248.985 73.8966 249.45 73.8966 249.884C73.8656 250.845 73.8345 251.805 73.8034 252.766C33.863 235.751 11.3149 219.665 13.6753 207.361C16.0047 195.335 41.8449 188.764 83.6488 187.494C80.6672 197.814 78.3379 208.352 76.6918 219.107ZM590.607 281.962C636.386 300.435 662.754 318.039 660.208 331.273C657.63 344.725 625.609 351.357 574.798 351.388C583.029 329.817 588.495 306.602 590.607 281.962ZM-25.4887 210.615C-20.2088 183.216 37.652 175.375 87.9037 173.794C87.1894 175.84 86.5372 177.886 85.885 179.962C22.2163 182.194 -16.016 193.661 -19.4945 211.762C-23.1283 230.668 11.0665 256.827 74.3004 283.605C74.5178 283.698 74.7041 283.76 74.9215 283.853C74.9215 283.853 74.9215 283.853 74.9526 283.853C75.0458 284.69 75.1079 285.527 75.201 286.363C75.3563 287.82 75.5427 289.308 75.698 290.765C74.4246 290.238 73.1823 289.711 71.94 289.184C24.4524 269.131 -30.9859 239.191 -25.4887 210.615ZM705.49 350.675C699.993 379.252 637.38 386.566 585.824 387.651C580.761 387.744 575.544 387.806 570.295 387.806C566.071 387.806 561.785 387.775 557.468 387.713C558.617 385.729 559.766 383.684 560.884 381.669C569.425 381.793 577.718 381.762 585.731 381.576C654.431 380.088 695.893 368.404 699.527 349.529C703.161 330.622 668.966 304.464 605.701 277.685C601.042 275.702 596.228 273.749 591.321 271.796C591.321 271.487 591.352 271.146 591.352 270.836C591.445 269.007 591.508 267.147 591.57 265.319C597.222 267.55 602.719 269.813 608.092 272.075C655.549 292.159 710.987 322.099 705.49 350.675Z" fill="url(#paint0_radial_102_2)"/>
<path d="M539.299 258.531C539.299 424.565 353.2 520.211 218.036 429.647C98.7426 349.777 95.5126 175.344 212.352 91.3513C212.352 91.3513 212.383 91.3202 212.446 91.2892C212.601 91.1962 212.601 91.1653 212.632 91.1343C212.725 91.0413 212.818 90.9793 212.911 90.9483C347.33 -5.19412 539.299 89.5227 539.299 258.531Z" fill="url(#paint1_radial_102_2)"/>
<path d="M245.491 258.531C246.703 270.65 204.215 258.531 177.506 258.531C159.678 258.531 140.733 261.786 126.54 257.075C126.664 237.518 129.552 218.611 134.77 200.728C142.006 199.798 154.274 201.875 172.661 216.132C205.427 241.547 244.28 246.413 245.491 258.531Z" fill="url(#paint2_linear_102_2)"/>
<path d="M387.519 283.946C357.175 281.528 323.167 273.036 317.111 279.111C311.054 285.155 366.058 300.621 416.651 309.392C472.493 319.093 507.713 322.719 495.569 306.974C483.426 291.229 464.014 271.827 433.64 281.528C403.327 291.229 404.476 285.31 387.519 283.946Z" fill="url(#paint3_linear_102_2)"/>
<path d="M385.097 368.776C385.097 381.886 264.903 346.956 224.838 362.732C194.899 374.51 185.302 382.878 167.164 381.328C145.796 352.628 131.696 318.194 127.689 280.754C138.156 284.721 156.169 292.407 184.774 307.005C237.013 333.629 385.097 350.583 385.097 368.776Z" fill="url(#paint4_linear_102_2)"/>
<path d="M479.885 403.086C464.201 418.986 445.908 432.344 425.751 442.479C420.347 437.644 415.036 432.189 406.961 429.337C386.308 422.054 331.708 408.758 342.609 401.474C353.542 394.191 388.73 399.057 430.006 396.639C455.008 395.151 471.096 399.46 479.885 403.086Z" fill="url(#paint5_linear_102_2)"/>
<path d="M462.803 369.985C448.268 354.581 406.961 357.866 413.018 372.402C416.341 380.306 482.215 390.564 462.803 369.985Z" fill="url(#paint6_linear_102_2)"/>
<path d="M286.768 391.773C268.723 387.775 256.424 395.399 254.001 401.474C251.579 407.518 303.787 416.01 304.998 409.966C306.21 403.923 297.7 394.191 286.768 391.773Z" fill="url(#paint7_linear_102_2)"/>
<path d="M279.5 287.603C267.48 284.597 245.523 290.021 245.523 297.304C245.523 304.588 274.655 313.049 286.799 309.423C298.911 305.765 303.756 293.647 279.5 287.603Z" fill="url(#paint8_linear_102_2)"/>
<path d="M300.123 310.601C296.52 310.012 291.613 314.227 294.066 317.884C296.489 321.51 314.689 313.049 300.123 310.601Z" fill="url(#paint9_linear_102_2)"/>
<path d="M422.739 344.539C414.943 342.214 409.384 345.748 413.018 353.031C416.682 360.284 447.026 351.791 422.739 344.539Z" fill="url(#paint10_linear_102_2)"/>
<path d="M479.793 382.103C475.507 377.826 472.494 385.729 474.948 388.147C477.37 390.564 489.514 391.773 479.793 382.103Z" fill="url(#paint11_linear_102_2)"/>
<path d="M369.288 461.261C357.486 463.368 345.311 464.453 332.919 464.453C290.401 464.453 250.864 451.622 218.036 429.616C242.354 422.612 282.792 428.346 323.229 447.5C342.05 456.457 357.486 460.083 369.288 461.261Z" fill="url(#paint12_linear_102_2)"/>
<path d="M377.829 439.038C371.649 439.038 371.773 442.665 371.773 446.322C371.773 449.948 377.829 451.157 381.494 446.322C385.097 441.456 382.674 439.038 377.829 439.038Z" fill="url(#paint13_linear_102_2)"/>
<path d="M362.052 442.665C359.66 442.262 358.418 448.709 362.052 449.948C365.686 451.157 369.319 443.874 362.052 442.665Z" fill="url(#paint14_linear_102_2)"/>
<path d="M223.658 376.028C215.241 377.702 203.004 383.312 213.936 390.564C224.869 397.848 247.914 371.193 223.658 376.028Z" fill="url(#paint15_linear_102_2)"/>
<path d="M183.593 275.485C179.214 271.115 176.295 282.768 178.748 283.977C181.14 285.186 188.438 280.32 183.593 275.485Z" fill="url(#paint16_linear_102_2)"/>
<path d="M218.782 206.431C208.036 201.069 193.283 196.73 190.861 201.596C188.438 206.431 234.559 239.16 245.492 231.877C256.424 224.593 228.503 211.266 218.782 206.431Z" fill="url(#paint17_linear_102_2)"/>
<path d="M397.24 258.531C389.569 254.688 389.942 271.859 400.874 276.694C411.807 281.529 402.116 260.949 397.24 258.531Z" fill="url(#paint18_linear_102_2)"/>
<path d="M516.223 279.111C501.564 278.429 506.502 302.139 516.223 304.557C525.944 306.974 541.721 280.32 516.223 279.111Z" fill="url(#paint19_linear_102_2)"/>
<path opacity="0.45" d="M448.89 428.873C441.498 433.894 433.795 438.419 425.751 442.479C408.204 451.312 389.227 457.728 369.257 461.261C357.455 463.369 345.28 464.453 332.888 464.453C290.37 464.453 250.833 451.622 218.005 429.616C198.408 416.506 181.233 400.141 167.195 381.266C164.151 377.175 161.231 372.96 158.498 368.621C142.007 342.679 131.167 312.77 127.72 280.692C126.943 273.408 126.54 265.97 126.54 258.5C126.54 258.004 126.54 257.508 126.54 257.044C126.664 240.927 128.621 225.244 132.254 210.212C158.032 278.15 207.29 356.006 301.24 397.91C312.918 403.117 325.279 407.766 338.355 411.764C377.519 423.728 414.509 428.749 448.89 428.873Z" fill="url(#paint20_linear_102_2)"/>
<path opacity="0.55" d="M527.529 327.151C517.342 355.913 500.943 381.762 479.886 403.086C470.444 412.663 460.071 421.31 448.89 428.873C441.498 433.894 433.796 438.419 425.752 442.479C408.204 451.312 389.228 457.728 369.258 461.261C357.455 463.369 345.281 464.453 332.889 464.453C290.37 464.453 250.834 451.622 218.006 429.616C198.408 416.506 181.233 400.141 167.195 381.266C164.151 377.175 161.232 372.96 158.499 368.621C211.297 387.062 258.785 395.926 301.241 397.879C405.005 402.652 478.892 366.11 527.529 327.151Z" fill="url(#paint21_linear_102_2)"/>
<path d="M212.912 90.9483C212.757 91.0719 212.632 91.1337 212.57 91.1955C212.632 91.1337 212.788 91.0101 212.912 90.9483Z" fill="url(#paint22_linear_102_2)"/>
<path d="M537.778 283.512C538.709 274.431 546.163 172.307 422.149 104.058C298.57 36.0583 220.242 85.9582 212.912 90.9482C246.734 66.7731 288.165 52.547 332.92 52.547C457.027 52.578 552.81 161.118 537.778 283.512Z" fill="url(#paint23_linear_102_2)"/>
<path d="M550.48 273.811C546.753 272.231 542.933 270.65 539.019 269.1C538.895 271.828 538.678 274.493 538.46 277.189C574.953 291.911 595.98 305.952 593.961 316.489C591.911 327.244 566.257 332.513 525.571 332.513C476.593 332.513 405.812 324.889 328.074 310.012C244.622 294.019 171.729 273.222 126.602 253.944C94.7983 240.369 76.7847 227.569 78.6792 217.775C80.5116 208.166 101.134 202.96 134.428 201.937C134.552 201.503 134.646 201.1 134.77 200.697C135.236 199.085 135.733 197.505 136.229 195.924C85.512 197.691 55.0131 206.865 52.2489 221.277C49.3606 236.34 76.5983 257.199 127.005 278.522C127.161 278.584 127.347 278.646 127.502 278.739C179.617 300.714 250.554 320.922 327.329 335.644C395.47 348.692 460.94 356.037 514.39 356.688C521.347 356.781 528.087 356.75 534.578 356.626C589.302 355.449 622.379 346.119 625.267 331.087C628.156 315.994 600.918 295.135 550.48 273.811Z" fill="url(#paint24_linear_102_2)"/>
<path d="M539.299 257.942V258.531C539.299 260.36 539.268 262.158 539.237 263.986C543.74 265.753 548.151 267.55 552.406 269.379C590.234 285.372 634.43 309.237 630.05 331.986C625.671 354.736 575.761 360.563 534.703 361.461C530.665 361.554 526.534 361.585 522.311 361.585C518.832 361.585 515.291 361.554 511.689 361.492C458.456 360.593 393.7 353.279 326.397 340.386C250.523 325.85 180.301 305.952 128.124 284.256C127.099 283.822 126.105 283.419 125.111 282.985C87.2827 266.993 43.0873 243.127 47.4664 220.378C51.6593 198.527 97.8113 192.298 137.876 191.027C138.715 188.578 139.615 186.13 140.578 183.712C72.5612 185.045 27.372 197.536 22.9928 220.254C18.3341 244.491 61.0698 275.02 131.323 302.821C182.102 322.905 247.293 341.563 319.347 355.387C386.619 368.28 449.915 375.006 502.496 375.935C584.085 377.361 639.896 364.778 644.772 339.394C649.337 315.467 607.844 285.434 539.299 257.942Z" fill="url(#paint25_linear_102_2)"/>
</g>
<defs>
<radialGradient id="paint0_radial_102_2" cx="0" cy="0" r="1" gradientUnits="userSpaceOnUse" gradientTransform="translate(333.869 258.531) scale(240.634 240.136)">
<stop stop-color="#F9AB63"/>
<stop offset="1" stop-color="#FFCC9C" stop-opacity="0"/>
</radialGradient>
<radialGradient id="paint1_radial_102_2" cx="0" cy="0" r="1" gradientUnits="userSpaceOnUse" gradientTransform="translate(347.509 169.459) scale(246.098 245.589)">
<stop stop-color="#FBDFB6"/>
<stop offset="1" stop-color="#ED8D35"/>
</radialGradient>
<linearGradient id="paint2_linear_102_2" x1="148.441" y1="514.049" x2="224.61" y2="-20.2355" gradientUnits="userSpaceOnUse">
<stop stop-color="#BD602B"/>
<stop offset="1" stop-color="#E28E2B" stop-opacity="0"/>
</linearGradient>
<linearGradient id="paint3_linear_102_2" x1="371.59" y1="545.861" x2="447.758" y2="11.5781" gradientUnits="userSpaceOnUse">
<stop stop-color="#BD7A2B"/>
<stop offset="1" stop-color="#E2832B" stop-opacity="0"/>
</linearGradient>
<linearGradient id="paint4_linear_102_2" x1="227.704" y1="525.35" x2="303.873" y2="-8.93459" gradientUnits="userSpaceOnUse">
<stop stop-color="#BD712B"/>
<stop offset="1" stop-color="#E2992B" stop-opacity="0"/>
</linearGradient>
<linearGradient id="paint5_linear_102_2" x1="389.756" y1="548.452" x2="465.925" y2="14.1659" gradientUnits="userSpaceOnUse">
<stop stop-color="#BD602B"/>
<stop offset="1" stop-color="#E22B57" stop-opacity="0"/>
</linearGradient>
<linearGradient id="paint6_linear_102_2" x1="413.787" y1="551.878" x2="489.955" y2="17.5933" gradientUnits="userSpaceOnUse">
<stop stop-color="#BD712B"/>
<stop offset="1" stop-color="#E22B57" stop-opacity="0"/>
</linearGradient>
<linearGradient id="paint7_linear_102_2" x1="261.657" y1="530.191" x2="337.826" y2="-4.0966" gradientUnits="userSpaceOnUse">
<stop stop-color="#BD832B"/>
<stop offset="1" stop-color="#E22B57" stop-opacity="0"/>
</linearGradient>
<linearGradient id="paint8_linear_102_2" x1="238.476" y1="526.886" x2="314.646" y2="-7.40154" gradientUnits="userSpaceOnUse">
<stop stop-color="#BD832B"/>
<stop offset="1" stop-color="#E22B57" stop-opacity="0"/>
</linearGradient>
<linearGradient id="paint9_linear_102_2" x1="268.572" y1="531.176" x2="344.741" y2="-3.10931" gradientUnits="userSpaceOnUse">
<stop stop-color="#BD712B"/>
<stop offset="1" stop-color="#E22B57" stop-opacity="0"/>
</linearGradient>
<linearGradient id="paint10_linear_102_2" x1="393.435" y1="548.978" x2="469.604" y2="14.6901" gradientUnits="userSpaceOnUse">
<stop stop-color="#BD602B"/>
<stop offset="1" stop-color="#E2782B" stop-opacity="0"/>
</linearGradient>
<linearGradient id="paint11_linear_102_2" x1="454.305" y1="557.651" x2="530.472" y2="23.3756" gradientUnits="userSpaceOnUse">
<stop stop-color="#BD7A2B"/>
<stop offset="1" stop-color="#E22B57" stop-opacity="0"/>
</linearGradient>
<linearGradient id="paint12_linear_102_2" x1="281.116" y1="532.964" x2="357.284" y2="-1.3196" gradientUnits="userSpaceOnUse">
<stop stop-color="#BD832B"/>
<stop offset="1" stop-color="#E2992B" stop-opacity="0"/>
</linearGradient>
<linearGradient id="paint13_linear_102_2" x1="362.98" y1="544.634" x2="439.148" y2="10.3551" gradientUnits="userSpaceOnUse">
<stop stop-color="#BD832B"/>
<stop offset="1" stop-color="#E2782B" stop-opacity="0"/>
</linearGradient>
<linearGradient id="paint14_linear_102_2" x1="349.19" y1="542.669" x2="425.359" y2="8.38209" gradientUnits="userSpaceOnUse">
<stop stop-color="#BD7A2B"/>
<stop offset="1" stop-color="#E2992B" stop-opacity="0"/>
</linearGradient>
<linearGradient id="paint15_linear_102_2" x1="201.976" y1="521.68" x2="278.144" y2="-12.5991" gradientUnits="userSpaceOnUse">
<stop stop-color="#BD712B"/>
<stop offset="1" stop-color="#E2992B" stop-opacity="0"/>
</linearGradient>
<linearGradient id="paint16_linear_102_2" x1="148.036" y1="513.994" x2="224.206" y2="-20.2942" gradientUnits="userSpaceOnUse">
<stop stop-color="#BD602B"/>
<stop offset="1" stop-color="#E2992B" stop-opacity="0"/>
</linearGradient>
<linearGradient id="paint17_linear_102_2" x1="176.024" y1="517.981" x2="252.192" y2="-16.3041" gradientUnits="userSpaceOnUse">
<stop stop-color="#BD712B"/>
<stop offset="1" stop-color="#E2A42B" stop-opacity="0"/>
</linearGradient>
<linearGradient id="paint18_linear_102_2" x1="359.506" y1="544.141" x2="435.675" y2="9.85369" gradientUnits="userSpaceOnUse">
<stop stop-color="#BD712B"/>
<stop offset="1" stop-color="#E2832B" stop-opacity="0"/>
</linearGradient>
<linearGradient id="paint19_linear_102_2" x1="479.53" y1="561.252" x2="555.699" y2="26.9636" gradientUnits="userSpaceOnUse">
<stop stop-color="#BD712B"/>
<stop offset="1" stop-color="#E2A42B" stop-opacity="0"/>
</linearGradient>
<linearGradient id="paint20_linear_102_2" x1="267.13" y1="454.113" x2="298.568" y2="271.156" gradientUnits="userSpaceOnUse">
<stop stop-color="#BD712B"/>
<stop offset="1" stop-color="#E2992B" stop-opacity="0"/>
</linearGradient>
<linearGradient id="paint21_linear_102_2" x1="374.764" y1="473.861" x2="337.848" y2="326.793" gradientUnits="userSpaceOnUse">
<stop stop-color="#A66D2B"/>
<stop offset="1" stop-color="#AE522B" stop-opacity="0"/>
</linearGradient>
<linearGradient id="paint22_linear_102_2" x1="212.906" y1="90.8327" x2="212.562" y2="91.3179" gradientUnits="userSpaceOnUse">
<stop stop-color="#FADBD1"/>
<stop offset="1" stop-color="#F9F1DD" stop-opacity="0"/>
</linearGradient>
<linearGradient id="paint23_linear_102_2" x1="495.715" y1="18.7412" x2="405.887" y2="144.988" gradientUnits="userSpaceOnUse">
<stop stop-color="#FAEAD1"/>
<stop offset="1" stop-color="#F9E4DD" stop-opacity="0"/>
</linearGradient>
<linearGradient id="paint24_linear_102_2" x1="308.03" y1="384.597" x2="357.614" y2="208.877" gradientUnits="userSpaceOnUse">
<stop stop-color="#FAC2B0"/>
<stop offset="1" stop-color="#F2AA68"/>
</linearGradient>
<linearGradient id="paint25_linear_102_2" x1="304.466" y1="383.591" x2="354.049" y2="207.872" gradientUnits="userSpaceOnUse">
<stop stop-color="#FAC2B0"/>
<stop offset="1" stop-color="#F29168"/>
</linearGradient>
<clipPath id="clip0_102_2">
<rect width="658" height="517" fill="white"/>
</clipPath>
</defs>
</svg>
