<svg width="677" height="518" viewBox="0 0 677 518" fill="none" xmlns="http://www.w3.org/2000/svg">
<g clip-path="url(#clip0_23_28)">
<path d="M598.074 254.616C646.183 223.275 672.522 193.465 666.519 171.689C660.129 148.383 617.962 138.626 554.862 141.719C555.041 142.07 555.191 142.421 555.34 142.771C514.786 56.7514 432.036 0 338.506 0C231.955 0 140.575 73.49 108.263 177.237C108.442 176.631 108.621 175.993 108.83 175.387C-21.7598 188.236 -38.6322 239.823 78.9378 293.864C30.8288 325.205 4.4897 355.015 10.4921 376.791C17.4203 402.074 66.4253 411.384 138.574 405.709C164.077 445.275 199.076 476.106 239.122 495.331C269.463 509.902 303.088 518 338.506 518C432.036 518 515.294 461.153 555.848 374.145C560.148 373.348 671.208 367.768 676.792 326.416C679.808 303.939 649.826 278.401 598.074 254.616ZM557.46 147.331C608.854 144.525 642.36 151.443 647.168 168.979C655.022 197.546 583.56 237.878 580.455 240.173C578.215 206.569 569.943 174.75 556.803 145.896C557.012 146.374 557.251 146.852 557.46 147.331ZM107.009 181.318C107.636 179.118 95.8999 213.742 95.8999 258.984C95.8999 266.062 96.1687 272.056 96.5569 277.763C96.5569 277.763 96.5569 277.763 96.527 277.763C-9.57571 234.084 -7.75405 191.935 107.009 181.318ZM25.3937 363.4C20.7649 346.534 43.4607 322.622 84.9701 296.574C92.5254 299.89 97.6618 301.994 99.364 302.695C103.993 331.868 113.22 359.351 126.181 384.347C123.314 384.284 33.6955 393.593 25.3937 363.4ZM660.248 315.417C656.097 346.12 568.51 350.583 565.284 351.157C575.378 322.845 580.425 293.928 581.052 265.233C584.247 263.288 587.443 261.407 592.46 258.219C636.955 277.763 662.607 298.009 660.248 315.417Z" fill="url(#paint0_radial_23_28)"/>
<path d="M540.379 258.984C540.379 266.508 540.02 273.937 539.304 281.27C538.617 288.507 537.572 295.649 536.228 302.695C532.973 319.529 527.896 335.63 521.207 350.743C514.338 366.333 505.738 380.904 495.734 394.167C485.521 407.717 473.785 419.896 460.794 430.45C443.145 444.829 423.197 456.179 401.666 463.735C381.807 470.75 360.545 474.512 338.476 474.512C309.001 474.512 281.02 467.753 255.786 455.637C230.014 443.267 207.139 425.317 188.475 403.19C158.582 367.768 139.53 321.666 136.932 270.908C136.722 266.955 136.633 262.969 136.633 258.952C136.633 239.95 138.932 221.522 143.262 203.954C146.488 190.819 150.878 178.193 156.223 166.173C188.684 93.576 258.085 43.3925 338.506 43.3925C405.19 43.3925 464.348 77.9215 501.079 131.134C506.992 139.71 512.338 148.797 517.056 158.266C530.046 184.474 538.139 213.902 539.961 245.147C540.229 249.77 540.379 254.361 540.379 258.984Z" fill="url(#paint1_radial_23_28)"/>
<path d="M252.62 370.383C252.351 370.447 252.082 370.51 251.813 370.574C244.676 371.849 243.511 361.711 245.871 352.815C247.692 345.992 251.754 339.616 255.576 339.552C256.741 339.52 257.875 340.094 258.921 341.401C271.523 357.279 259.846 368.47 252.62 370.383Z" fill="#3D3789"/>
<path d="M255.815 455.669C230.044 443.299 207.169 425.349 188.505 403.222C191.879 401.819 195.791 400.99 200.33 400.895C201.614 400.863 202.958 400.895 204.332 400.99C239.958 403.541 241.153 427.612 250.649 440.302C252.799 443.171 254.143 445.69 254.95 447.922C256.174 451.206 256.174 453.788 255.815 455.669Z" fill="#4A3E9E"/>
<g opacity="0.75">
<path d="M299.325 436.476C282.601 419.801 263.758 414.317 264.505 401.086C264.564 400.225 264.684 399.364 264.893 398.439C268.446 383.231 304.192 396.399 319.512 398.439C338.505 400.99 355.138 400.99 358.692 427.612C362.246 454.234 317.123 454.234 299.325 436.476Z" fill="#4A3E9E"/>
<path d="M410.952 390.851C397.245 395.347 380.761 391.871 377.207 383.04C376.759 381.924 376.52 380.712 376.52 379.437C376.52 368.023 401.754 366.875 410.952 359.16C419.911 351.635 427.884 346.247 434.066 345.673C439.352 345.195 443.293 348.288 445.384 356.609C450.132 375.643 426.391 385.782 410.952 390.851Z" fill="#4A3E9E"/>
<path d="M490.508 243.776C482.983 248.24 473.725 252.066 471.784 245.147C470.948 242.214 471.426 237.368 473.904 229.843C480.265 210.427 497.645 201.436 508.187 205.134C511.412 206.25 514.01 208.546 515.444 212.085C523.746 232.362 501.199 237.431 490.508 243.776Z" fill="#4A3E9E"/>
<path d="M220.04 319.657C219.95 319.721 219.861 319.784 219.771 319.848C197.613 332.761 167.511 303.365 169.9 291.951C170.318 290.038 170.826 288.603 171.542 287.519C175.066 282.195 182.98 286.052 200.778 288.157C221.981 290.675 232.672 311.941 220.04 319.657Z" fill="#4A3E9E"/>
<path d="M169.87 251.396C169.064 251.938 168.287 252.321 167.541 252.576C159.956 255.126 157.686 241.544 154.431 231.119C151.415 221.49 154.341 218.174 158.164 218.907C158.881 219.035 159.627 219.322 160.374 219.704C172.259 226.017 179.366 245.051 169.87 251.396Z" fill="#4A3E9E"/>
<path d="M460.794 430.45C443.145 444.829 423.196 456.179 401.665 463.735C400.799 462.779 399.993 461.727 399.336 460.579C396.648 456.116 395.902 450.217 400.262 442.788C410.087 425.986 421.614 431.311 438.277 427.58C444.489 426.178 449.326 426.209 453.119 427.038C456.434 427.74 458.942 429.047 460.794 430.45Z" fill="#4A3E9E"/>
<path d="M536.228 302.695C529.628 336.842 515.473 368.023 495.734 394.167C493.345 392.86 491.195 391.043 489.463 388.524C489.403 388.46 489.343 388.365 489.313 388.301C477.428 370.542 495.256 354.059 502.363 322.367C506.664 303.174 518.818 300.241 527.717 300.942C531.33 301.197 534.406 302.09 536.228 302.695Z" fill="#4A3E9E"/>
<path d="M540.378 258.984C540.378 266.509 540.02 273.937 539.303 281.27C537.033 281.015 534.764 280.218 533.271 278.114C532.763 277.381 532.345 276.52 532.046 275.436C529.657 266.572 521.296 269.984 523.744 261.503C526.133 253.213 530.643 249.101 534.495 247.06C536.675 245.912 538.676 245.402 539.96 245.211C540.229 249.77 540.378 254.361 540.378 258.984Z" fill="#4A3E9E"/>
<path d="M352.75 362.954C352.75 362.986 352.75 363.018 352.72 363.049C350.241 374.336 326.023 370.351 319.483 368.023C312.346 365.473 295.772 353.453 300.49 341.401C302.162 337.129 304.671 335.63 307.657 335.822C315.212 336.204 325.724 347.204 332.563 349.021C345.463 352.432 354.572 354.218 352.75 362.954Z" fill="#4A3E9E"/>
<path d="M192.446 357.884C191.64 359.383 190.714 360.531 189.639 361.36C184.502 365.377 176.768 361.679 169.87 355.366C164.136 350.105 161.777 341.21 164.405 338.755C165.569 337.639 167.749 337.83 171.064 340.158C181.755 347.746 197.194 348.989 192.446 357.884Z" fill="#4A3E9E"/>
<path d="M458.136 349.882C454.195 353.453 449.655 350.105 447.326 345.833C446.52 344.366 445.982 342.836 445.803 341.401C445.086 335.79 446.729 333.654 454.463 337.83C457.778 339.616 459.898 341.242 460.794 342.9C461.929 345.036 461.093 347.204 458.136 349.882Z" fill="#4A3E9E"/>
<path d="M460.824 303.365C460.764 303.238 460.674 303.078 460.615 302.951C456.494 294.47 469.215 293.131 473.904 286.882C477.995 281.43 486.625 273.618 491.105 278.433C491.821 279.198 492.449 280.314 492.896 281.812C498.809 300.814 465.572 312.229 460.824 303.365Z" fill="#4A3E9E"/>
<path d="M371.743 442.82C369.623 442.374 366.458 440.652 364.994 433.638C364.875 432.968 364.726 432.203 364.636 431.406C363.442 422.543 363.442 412.404 368.19 412.404C370.579 412.404 370.579 421.267 378.88 430.163C379.776 431.119 380.284 432.203 380.493 433.319C381.389 438.197 376.581 443.841 371.743 442.82Z" fill="#4A3E9E"/>
<path d="M402.531 325.906C400.471 325.555 398.47 324.79 396.678 323.674C385.151 316.309 398.321 289.91 409.878 299.826C410.236 300.145 410.565 300.463 410.923 300.846C427.079 318.063 414.088 327.946 402.531 325.906Z" fill="#4A3E9E"/>
<path d="M252.62 370.383C251.306 368.789 250.141 366.78 249.454 364.229C247.543 357.151 253.247 344.398 255.606 339.552C256.771 339.52 257.905 340.094 258.951 341.401C271.523 357.279 259.847 368.47 252.62 370.383Z" fill="#4A3E9E"/>
</g>
<g opacity="0.7">
<path d="M270.806 357.885C268.417 357.885 267.252 368.023 269.612 369.299C272.001 370.574 280.303 357.885 270.806 357.885Z" fill="#3D3789"/>
<path d="M504.214 177.141C493.912 176.057 495.136 189.416 504.752 192.126C514.368 194.836 522.49 179.054 504.214 177.141Z" fill="#3D3789"/>
<path d="M451.327 397.196C444.936 397.196 445.384 402.266 451.327 407.335C457.24 412.404 473.873 397.196 451.327 397.196Z" fill="#3D3789"/>
<path d="M184.114 252.639C176.171 256.051 181.725 262.778 187.668 265.329C193.641 267.848 196 247.57 184.114 252.639Z" fill="#3D3789"/>
<path d="M162.762 189.256C157.954 190.277 160.373 198.12 167.51 199.395C174.618 200.67 174.618 186.738 162.762 189.256Z" fill="#3D3789"/>
<path d="M503.556 156.29C497.614 157.565 504.751 170.222 509.499 165.153C514.247 160.084 509.499 155.014 503.556 156.29Z" fill="#3D3789"/>
<path d="M296.936 312.229C291.65 315.353 298.13 326.161 306.432 323.643C314.764 321.124 307.627 305.884 296.936 312.229Z" fill="#3D3789"/>
</g>
<path d="M380.492 433.319C381.388 438.197 376.58 443.841 371.742 442.82C369.622 442.374 366.457 440.652 364.993 433.638C371.055 436.986 376.491 435.583 380.492 433.319Z" fill="#3D3789"/>
<path d="M154.431 231.087C151.415 221.458 154.341 218.142 158.164 218.876C154.401 227.611 163.151 244.828 167.571 252.544C159.956 255.094 157.686 241.512 154.431 231.087Z" fill="#3D3789"/>
<path d="M189.639 361.328C184.502 365.345 176.768 361.647 169.87 355.334C164.136 350.073 161.777 341.178 164.405 338.723C167.242 352.337 181.247 358.713 189.639 361.328Z" fill="#3D3789"/>
<path d="M220.04 319.657C219.95 319.721 219.861 319.784 219.771 319.848C197.613 332.761 167.511 303.365 169.9 291.951C170.318 290.038 170.826 288.603 171.542 287.519C174.857 292.301 180.233 298.423 188.893 305.915C202.331 317.553 213.052 319.944 220.04 319.657Z" fill="#3D3789"/>
<path d="M300.49 341.401C302.162 337.129 304.67 335.63 307.657 335.822C303.386 341.943 301.983 349.786 311.18 357.884C325.574 370.51 343.552 366.429 352.72 363.05C350.241 374.336 326.022 370.351 319.482 368.023C312.375 365.473 295.801 353.453 300.49 341.401Z" fill="#3D3789"/>
<path d="M358.692 427.612C362.246 454.235 317.123 454.235 299.325 436.476C282.601 419.801 263.758 414.317 264.505 401.086C275.823 408.26 294.457 423.627 315.958 437.751C346.806 458.029 358.692 427.612 358.692 427.612Z" fill="#3D3789"/>
<path d="M402.532 325.906C413.103 323.228 411.55 308.052 409.878 299.826C410.236 300.145 410.565 300.464 410.923 300.846C427.079 318.063 414.089 327.947 402.532 325.906Z" fill="#3D3789"/>
<path d="M445.385 356.609C450.133 375.611 426.392 385.782 410.953 390.851C397.246 395.347 380.762 391.871 377.208 383.04C380.971 385.208 386.287 387.631 391.961 388.301C402.651 389.576 427.587 384.506 435.889 366.748C440.697 356.513 437.561 349.627 434.067 345.673C439.353 345.195 443.295 348.256 445.385 356.609Z" fill="#3D3789"/>
<path d="M460.764 342.932C461.929 345.036 461.093 347.236 458.136 349.914C454.195 353.485 449.655 350.137 447.326 345.865C453.09 348.766 458.017 345.578 460.764 342.932Z" fill="#3D3789"/>
<path d="M492.867 281.812C498.809 300.814 465.542 312.228 460.794 303.365C460.734 303.237 460.645 303.078 460.585 302.95C486.685 300.527 491.224 287.583 491.045 278.432C491.791 279.198 492.419 280.314 492.867 281.812Z" fill="#3D3789"/>
<path d="M490.508 243.776C482.982 248.239 473.725 252.065 471.784 245.147C480.593 236.73 500.9 234.402 510.725 226.049C518.579 219.354 512.935 210.426 508.216 205.166C511.442 206.282 514.04 208.577 515.473 212.116C523.745 232.362 501.199 237.431 490.508 243.776Z" fill="#3D3789"/>
<path d="M254.949 447.89C256.173 451.206 256.203 453.788 255.815 455.637C230.043 443.267 207.168 425.317 188.504 403.19C191.878 401.787 195.79 400.958 200.329 400.863C204.749 407.367 210.991 415.337 219.77 425.062C228.102 434.276 240.465 441.864 254.949 447.89Z" fill="#3D3789"/>
<path d="M453.089 427.07C456.463 427.74 458.942 429.047 460.793 430.482C443.144 444.861 423.196 456.211 401.665 463.767C400.799 462.811 399.993 461.759 399.336 460.611C421.852 452.066 442.846 435.774 453.089 427.07Z" fill="#3D3789"/>
<path d="M536.227 302.695C529.628 336.842 515.473 368.023 495.733 394.167C493.344 392.86 491.194 391.043 489.462 388.524C513.173 365.568 524.82 315.321 527.746 300.942C531.33 301.197 534.406 302.09 536.227 302.695Z" fill="#3D3789"/>
<path d="M540.378 258.984C540.378 266.508 540.02 273.937 539.303 281.27C537.034 281.015 534.764 280.218 533.271 278.114C539.184 270.302 536.406 254.775 534.495 247.06C536.675 245.912 538.676 245.402 539.96 245.21C540.229 249.77 540.378 254.361 540.378 258.984Z" fill="#3D3789"/>
<path opacity="0.35" d="M540.379 258.984C540.379 266.508 540.02 273.937 539.304 281.27C538.617 288.508 537.572 295.649 536.228 302.695C529.628 336.842 515.473 368.023 495.734 394.167C485.521 407.717 473.785 419.897 460.794 430.45C443.145 444.829 423.197 456.179 401.666 463.736C381.807 470.75 360.545 474.512 338.476 474.512C309.001 474.512 281.02 467.753 255.786 455.637C230.014 443.267 207.139 425.317 188.475 403.19C158.582 367.768 139.53 321.666 136.932 270.908C193.044 453.565 536.228 423.149 517.056 158.298C530.046 184.506 538.139 213.934 539.961 245.179C540.229 249.77 540.379 254.361 540.379 258.984Z" fill="url(#paint2_linear_23_28)"/>
<path opacity="0.55" d="M521.207 350.743C514.338 366.333 505.738 380.904 495.734 394.167C485.521 407.717 473.785 419.896 460.794 430.45C443.145 444.829 423.197 456.179 401.666 463.735C381.807 470.75 360.545 474.512 338.476 474.512C309.001 474.512 281.02 467.753 255.786 455.637C230.014 443.267 207.139 425.317 188.475 403.19C158.582 367.768 139.53 321.665 136.932 270.908C136.722 266.955 136.633 262.969 136.633 258.952C136.633 239.95 138.932 221.522 143.262 203.954C184.354 294.183 296.19 465.553 521.207 350.743Z" fill="url(#paint3_linear_23_28)"/>
<path d="M554.504 255.35C549.935 253.245 545.157 251.173 540.17 249.1C538.229 248.303 536.258 247.474 534.257 246.677C532.465 247.73 530.644 248.782 528.762 249.802C532.764 251.3 536.616 252.831 540.349 254.329C543.604 255.668 546.769 257.007 549.816 258.346C586.875 274.607 608.197 291.441 606.226 305.948C604.076 321.857 574.184 332.028 527.209 335.694C490.15 338.596 442.429 337.416 389.303 331.9C373.983 330.274 358.186 328.329 342.09 326.002C338.536 325.492 334.952 324.95 331.339 324.376C258.802 313.185 193.91 296.574 147.234 278.656C145.263 277.891 143.322 277.126 141.411 276.36C139.948 275.786 138.544 275.213 137.111 274.639C95.0939 257.358 70.5168 239.121 72.6072 223.626C74.6677 208.354 102.201 198.407 145.831 194.39C146.309 192.732 146.816 191.074 147.354 189.448C94.0786 194.677 59.7064 208.067 56.9889 228.281C54.4505 246.996 79.4159 268.23 122.478 288.061C124.121 288.826 125.793 289.56 127.495 290.325C131.347 292.015 135.349 293.736 139.44 295.394C180.83 312.292 235.121 327.723 296.071 338.978C306.702 340.955 317.572 342.804 328.592 344.494C333.579 345.259 338.506 345.992 343.433 346.662C410.087 356.035 471.426 358.49 519.326 354.856C578.394 350.392 617.037 336.619 619.934 315.13C622.532 296.415 597.566 275.149 554.504 255.35Z" fill="url(#paint4_linear_23_28)"/>
<path d="M501.079 131.198C480.235 110.028 428.184 56.305 322.469 66.8901C226.669 76.5187 175.932 136.554 156.223 166.205C188.684 93.6078 258.085 43.4244 338.506 43.4244C405.19 43.4563 464.348 77.9853 501.079 131.198Z" fill="url(#paint5_linear_23_28)"/>
</g>
<defs>
<radialGradient id="paint0_radial_23_28" cx="0" cy="0" r="1" gradientUnits="userSpaceOnUse" gradientTransform="translate(338.498 258.989) scale(228.985 244.474)">
<stop stop-color="#C7F1F6"/>
<stop offset="1" stop-color="#D3F4F9" stop-opacity="0"/>
</radialGradient>
<radialGradient id="paint1_radial_23_28" cx="0" cy="0" r="1" gradientUnits="userSpaceOnUse" gradientTransform="translate(310.004 144.883) scale(355.879 379.951)">
<stop stop-color="#31E7C2"/>
<stop offset="1" stop-color="#652FB0"/>
</radialGradient>
<linearGradient id="paint2_linear_23_28" x1="441.877" y1="563.342" x2="271.387" y2="122.952" gradientUnits="userSpaceOnUse">
<stop stop-color="#4A3E9E"/>
<stop offset="1" stop-color="#4AE09E" stop-opacity="0.5"/>
</linearGradient>
<linearGradient id="paint3_linear_23_28" x1="346.192" y1="520.362" x2="314.642" y2="182.63" gradientUnits="userSpaceOnUse">
<stop stop-color="#3D3789"/>
<stop offset="1" stop-color="#3DCC5E" stop-opacity="0.2"/>
</linearGradient>
<linearGradient id="paint4_linear_23_28" x1="332.261" y1="390.912" x2="344.437" y2="186.879" gradientUnits="userSpaceOnUse">
<stop stop-color="#83ECEC"/>
<stop offset="1" stop-color="#8EE2D3" stop-opacity="0.3"/>
</linearGradient>
<linearGradient id="paint5_linear_23_28" x1="327.981" y1="10.3753" x2="328.651" y2="130.348" gradientUnits="userSpaceOnUse">
<stop stop-color="#C7F1F6"/>
<stop offset="1" stop-color="#D3F4F9" stop-opacity="0"/>
</linearGradient>
<clipPath id="clip0_23_28">
<rect width="677" height="518" fill="white"/>
</clipPath>
</defs>
</svg>
