<svg width="40" height="39" viewBox="0 0 40 39" fill="none" xmlns="http://www.w3.org/2000/svg">
<path fill-rule="evenodd" clip-rule="evenodd" d="M35.8701 3.32167L39.0518 12.1575C39.744 13.8684 39.5729 15.8076 38.5918 17.3708C37.7569 18.5556 36.5489 19.4261 35.161 19.8433V32.8767C35.1308 34.3408 34.52 35.7329 33.4632 36.7466C32.4064 37.7603 30.99 38.3125 29.526 38.2817H11.011C9.5287 38.3385 8.08557 37.7985 7.00476 36.7826C5.92396 35.7666 5.29579 34.3596 5.26096 32.8767V20.035C3.91154 19.726 2.69609 18.994 1.79179 17.9458C0.491503 16.3227 0.16902 14.124 0.948455 12.1958L4.11096 3.34084C4.8568 1.45237 6.70022 0.228524 8.73012 0.27417H31.251C33.2777 0.219841 35.1226 1.43704 35.8701 3.32167ZM22.5904 35.1575H22.6068V35.215C22.601 35.1959 22.5955 35.1768 22.5904 35.1575ZM22.5904 35.1575H17.7193C17.7375 35.0111 17.7375 34.8631 17.7193 34.7167V30.6725C17.7527 30.0644 18.0341 29.4965 18.4978 29.1017C18.9615 28.7068 19.5669 28.5194 20.1726 28.5833C21.3771 28.495 22.4283 29.3924 22.5301 30.5958V34.6975C22.5301 34.8529 22.5504 35.0075 22.5904 35.1575ZM29.4301 35.1575H25.386C25.4042 35.0111 25.4042 34.8631 25.386 34.7167V30.6725C25.2819 27.8502 22.9189 25.6413 20.096 25.7275C17.2657 25.6305 14.8908 27.8425 14.7868 30.6725V34.7742C14.7685 34.9205 14.7685 35.0686 14.7868 35.215H10.9151C9.50328 35.2801 8.30412 34.1923 8.23179 32.7808V19.9967C10.7855 19.6112 12.8365 17.6898 13.3876 15.1667C14.0627 18.2278 16.8722 20.337 20.0001 20.1308C23.0715 20.2596 25.7933 18.1678 26.4593 15.1667C26.9986 17.8487 29.2198 19.868 31.941 20.15V32.8767C31.8237 34.1828 30.7413 35.1909 29.4301 35.215V35.1575ZM33.2635 16.7767C34.2796 16.75 35.2209 16.2365 35.7935 15.3967V15.4542C36.1911 14.7841 36.2411 13.9633 35.9276 13.25L32.7651 4.52917C32.4846 3.95881 31.8847 3.61709 31.251 3.66667H8.73012C8.12043 3.61092 7.53492 3.91869 7.23512 4.4525L4.07262 13.25C3.66161 14.0635 3.73542 15.0377 4.26429 15.78C4.742 16.367 5.42939 16.7451 6.18096 16.8342C6.42291 16.8624 6.66733 16.8624 6.90929 16.8342C8.38409 16.9147 9.71605 15.9576 10.1101 14.5342C10.4026 12.914 11.799 11.7262 13.4451 11.6975C15.109 11.6967 16.5249 12.9092 16.7801 14.5533C17.1703 15.9856 18.5196 16.9413 20.0001 16.8342C21.4928 16.9337 22.8419 15.9481 23.201 14.4958C23.4782 12.8641 24.8809 11.6629 26.536 11.64C28.1936 11.6377 29.6072 12.8401 29.871 14.4767C30.2614 15.9195 31.6192 16.8836 33.1101 16.7767H33.2635Z" fill="black"/>
</svg>
