<svg width="42" height="43" viewBox="0 0 42 43" fill="none" xmlns="http://www.w3.org/2000/svg">
<path d="M12.6913 0.840088L16.3435 4.28003C17.713 5.54738 18.4435 7.26736 18.4435 9.16839C18.4435 10.9789 19.1739 12.6989 20.4522 13.9662L20.9087 14.4188L25.1087 0.930605" fill="black"/>
<path d="M0.273916 12.8799L5.29566 12.6988C7.12174 12.6083 8.94782 13.3325 10.2261 14.5999C11.5043 15.8672 13.2391 16.5009 15.0652 16.5009H15.7043L8.94783 4.09897" fill="black"/>
<path d="M0.273916 30.0796L3.65217 26.4586C4.93044 25.1008 6.66522 24.286 8.49131 24.286C10.3174 24.286 11.9609 23.4713 13.2391 22.204L13.6957 21.7513L0 17.8588" fill="black"/>
<path d="M12.6913 42.029L12.4174 37.0501C12.3261 35.2396 12.9652 33.4291 14.2435 32.0712C15.4304 30.8039 16.1609 28.9934 16.0696 27.2734V26.6397L3.65217 33.6101" fill="black"/>
<path d="M30.0391 41.6669L26.2957 38.408C24.9261 37.2311 24.1044 35.5112 24.013 33.6101C23.9217 31.7996 23.1 30.1702 21.8217 28.9028L21.3652 28.4502L17.713 42.1195" fill="black"/>
<path d="M41.9087 29.0839L36.887 29.446C35.0609 29.627 33.2348 28.9934 31.8652 27.726C30.4956 26.5492 28.7609 25.9155 26.9348 26.006H26.2957L33.6 38.1364" fill="black"/>
<path d="M41.087 11.9746L37.8913 15.7767C36.7043 17.1346 34.9696 18.0398 33.1435 18.1303C31.3174 18.2209 29.6739 19.0356 28.487 20.3935L28.1217 20.8461L42 24.105" fill="black"/>
<path d="M28.213 0.477966L28.6696 5.45684C28.8522 7.26735 28.3044 9.07785 27.0261 10.5263C25.8391 11.8841 25.2913 13.6041 25.3826 15.4146L25.4739 16.0483L37.5261 8.5347" fill="black"/>
</svg>
