<svg width="20" height="20" viewBox="0 0 20 20" fill="none" xmlns="http://www.w3.org/2000/svg">
<path d="M17.6562 2.15625C17.9062 2.3125 18.0312 2.59375 17.9375 2.875L15.9375 16.375C15.9062 16.5938 15.7812 16.8125 15.5625 16.9062C15.4688 16.9688 15.3438 17.0312 15.2188 17.0312C15.0938 17.0312 15 17 14.9062 16.9688L11.8438 15.6562L8.375 17.9062C8.25 17.9688 8.09375 18 7.96875 18C7.875 18 7.75 17.9688 7.625 17.9375C7.375 17.7812 7.25 17.5312 7.25 17.25V13.7188L2.4375 11.7188C2.1875 11.5938 2 11.3438 2 11.0625C1.96875 10.7812 2.125 10.5 2.375 10.375L16.875 2.125C17.125 1.96875 17.4375 2 17.6562 2.15625ZM13.5312 5.75L4.4375 10.9062L7.6875 12.2812L13.5312 5.75ZM8.71875 15.875L10.1562 14.9688L8.71875 14.3438V15.875ZM14.625 15.1875L16.125 5.09375L9.125 12.875L14.625 15.1875Z" fill="white"/>
</svg>
