<svg width="80" height="80" viewBox="0 0 80 80" fill="none" xmlns="http://www.w3.org/2000/svg">
<path d="M13.9651 73.8179C21.6778 73.8179 27.9302 67.5655 27.9302 59.8528C27.9302 52.1401 21.6778 45.8877 13.9651 45.8877C6.25238 45.8877 0 52.1401 0 59.8528C0 67.5655 6.25238 73.8179 13.9651 73.8179Z" fill="#FFBC57"/>
<path d="M36.2103 24.9402C42.8212 24.9402 48.1804 19.581 48.1804 12.9701C48.1804 6.35919 42.8212 1 36.2103 1C29.5994 1 24.2402 6.35919 24.2402 12.9701C24.2402 19.581 29.5994 24.9402 36.2103 24.9402Z" fill="#FFBC57"/>
<path d="M60.0497 78.8055C71.0679 78.8055 79.9999 69.8735 79.9999 58.8554C79.9999 47.8372 71.0679 38.9053 60.0497 38.9053C49.0316 38.9053 40.0996 47.8372 40.0996 58.8554C40.0996 69.8735 49.0316 78.8055 60.0497 78.8055Z" fill="#FFBC57"/>
<path d="M41.1975 73.718C58.8266 73.718 73.1177 59.4268 73.1177 41.7978C73.1177 24.1687 58.8266 9.87756 41.1975 9.87756C23.5685 9.87756 9.27734 24.1687 9.27734 41.7978C9.27734 59.4268 23.5685 73.718 41.1975 73.718Z" fill="white"/>
<path d="M41.1967 74.4166C23.1419 74.4166 8.47852 59.7533 8.47852 41.6984C8.47852 23.6435 23.1419 9.07996 41.1967 9.07996C59.2516 9.07996 73.8152 23.7433 73.8152 41.7982C73.8152 59.853 59.1518 74.4166 41.1967 74.4166ZM41.1967 10.5762C23.9399 10.5762 9.97478 24.5413 9.97478 41.7982C9.97478 58.9553 23.9399 73.0201 41.1967 73.0201C58.3538 73.0201 72.4187 59.055 72.4187 41.7982C72.3189 24.5413 58.3538 10.5762 41.1967 10.5762Z" fill="#2B2929"/>
<path d="M40.5992 29.8278L34.3149 25.6382C30.2251 22.945 24.8386 23.5435 21.5468 27.1345L16.26 32.8203C15.2625 33.9175 14.7638 35.3141 14.9633 36.8103L18.9533 68.2318C19.1528 69.8278 20.6491 71.0248 22.2451 70.8253L43.9907 68.132C45.5867 67.9325 46.7837 66.4363 46.5842 64.8402L42.6939 33.4188C42.5942 31.9225 41.7962 30.6258 40.5992 29.8278Z" fill="white"/>
<path d="M21.9441 71.5239C21.1461 71.5239 20.3481 71.2247 19.6498 70.7259C18.8518 70.1274 18.3531 69.2296 18.2533 68.2321L14.3631 36.9104C14.1636 35.2147 14.6623 33.5189 15.8593 32.3219L21.1461 26.6361C24.7371 22.7459 30.5227 22.0476 34.9117 25.0401L41.196 29.2296C42.5925 30.1274 43.4902 31.6237 43.6897 33.3194L47.58 64.7409C47.6798 65.7384 47.4803 66.7359 46.782 67.5339C46.1835 68.3319 45.2858 68.8306 44.2882 68.9304L22.5426 71.6237C22.2434 71.5239 22.0439 71.5239 21.9441 71.5239ZM28.8269 24.6411C26.3331 24.6411 23.9391 25.6386 22.1436 27.6336L16.8568 33.3194C16.0588 34.2172 15.6598 35.5139 15.7596 36.7109L19.6498 68.0326C19.7496 68.6311 20.0488 69.1299 20.5476 69.5289C21.0464 69.9279 21.6449 70.0276 22.2434 70.0276L43.989 67.3344C44.5875 67.2346 45.0863 66.9354 45.4853 66.4366C45.8843 65.9379 45.984 65.3394 45.984 64.7409L42.0937 33.3194C41.8942 32.1224 41.2957 31.0252 40.2982 30.3269L33.9142 26.2371C32.4179 25.2396 30.6224 24.6411 28.8269 24.6411Z" fill="#2B2929"/>
<path d="M46.0843 20.0524L38.9023 17.7581C34.3137 16.2618 29.2265 18.3566 27.0319 22.7456L23.5407 29.6284C22.9422 30.9252 22.9422 32.5212 23.5407 33.818L35.9098 62.9451C36.608 64.4414 38.3038 65.1396 39.8 64.5411L60.0494 55.8628C61.5457 55.2643 62.2439 53.4688 61.6454 51.9726L49.1766 22.8454C48.5781 21.5486 47.4808 20.5511 46.0843 20.0524Z" fill="white"/>
<path d="M38.6023 65.4391C37.1061 65.4391 35.8093 64.5413 35.111 63.1448L22.8417 34.1174C22.1435 32.5213 22.2432 30.8256 22.9415 29.3293L26.4327 22.4465C28.8268 17.7583 34.2133 15.464 39.2008 17.06L46.3829 19.3543C47.9789 19.853 49.2756 21.05 49.8741 22.5463L62.2432 51.6735C63.0412 53.5687 62.1435 55.7632 60.2482 56.5612L40.0986 65.1398C39.5998 65.3393 39.1011 65.4391 38.6023 65.4391ZM35.909 18.0575C32.5175 18.0575 29.4253 19.9528 27.8292 23.1448L24.338 30.0276C23.7395 31.1248 23.7395 32.4216 24.2382 33.6186L36.6073 62.646C37.1061 63.7433 38.4028 64.3418 39.5998 63.843L59.7494 55.2645C60.8467 54.7657 61.4452 53.469 60.9465 52.272L48.4776 23.1448C47.9789 22.0475 47.0811 21.1498 45.8841 20.7508L38.7021 18.4565C37.8043 18.1573 36.8068 18.0575 35.909 18.0575Z" fill="#2B2929"/>
<path d="M35.8093 32.4215C35.1111 32.4215 34.5126 32.3218 33.8143 32.0225C32.5175 31.5238 31.52 30.5263 30.9215 29.2295C30.323 27.9327 30.323 26.5362 30.9215 25.2395C31.4203 23.9427 32.4178 22.9452 33.7146 22.3467C35.0113 21.7482 36.4078 21.7482 37.7046 22.3467C39.0013 22.8455 39.9988 23.843 40.5973 25.1397C41.1958 26.4365 41.1958 27.833 40.5973 29.1297C40.0986 30.4265 39.1011 31.424 37.8043 32.0225C37.2058 32.222 36.5076 32.4215 35.8093 32.4215ZM35.8093 23.444C35.3106 23.444 34.8118 23.5437 34.3131 23.7432C33.4153 24.1422 32.717 24.8405 32.318 25.7382C31.919 26.636 31.919 27.6335 32.318 28.631C32.717 29.5288 33.4153 30.227 34.3131 30.626C35.2108 31.025 36.2083 31.025 37.2058 30.626C38.1036 30.227 38.8018 29.5288 39.2008 28.631C39.5998 27.7332 39.5998 26.7357 39.2008 25.7382C38.8018 24.8405 38.1036 24.1422 37.1061 23.7432C36.8068 23.5437 36.3081 23.444 35.8093 23.444Z" fill="#2B2929"/>
<path d="M37.4066 28.4311C36.2096 28.4311 35.4116 27.8326 35.0126 27.3339C34.1148 26.2366 34.0151 24.5409 34.6136 22.4461C34.7133 22.0471 35.1123 21.8476 35.5113 21.9474C35.9103 22.0471 36.1098 22.4461 36.0101 22.8451C35.5113 24.3414 35.6111 25.7379 36.1098 26.3364C36.4091 26.7354 36.9078 26.8351 37.5063 26.8351C39.9004 26.6356 43.2919 23.5434 44.8879 20.0521C46.0849 17.5583 45.8854 15.8626 45.3866 15.1643C45.0874 14.7653 44.5886 14.5658 43.9901 14.5658C42.4939 14.6656 40.4989 15.9623 38.8031 17.9573C38.5038 18.2566 38.1048 18.3563 37.7058 18.0571C37.4066 17.7578 37.3068 17.3588 37.6061 16.9598C39.6011 14.6656 41.8954 13.1693 43.8904 12.9698C45.0874 12.87 46.0849 13.269 46.6834 14.1668C47.6809 15.5633 47.4814 17.9573 46.2844 20.5508C44.3891 24.6406 40.5986 28.0321 37.6061 28.2316C37.6061 28.4311 37.5063 28.4311 37.4066 28.4311Z" fill="#2B2929"/>
<path d="M39.7003 58.5562C39.6006 58.5562 39.5008 58.5562 39.4011 58.4565C39.0021 58.257 38.8026 57.858 39.0021 57.459L47.9796 35.2146C48.1792 34.8156 48.5782 34.6161 48.9772 34.8156C49.3762 35.0151 49.5757 35.4141 49.3762 35.8131L40.3986 58.0575C40.2989 58.3567 39.9996 58.5562 39.7003 58.5562Z" fill="#FFBC57"/>
<path d="M39.8006 42.6958C40.4989 44.1921 39.7009 45.9876 38.2046 46.6858C36.7084 47.3841 34.9128 46.5861 34.2146 45.0898C33.5163 43.5936 34.3143 41.7981 35.8106 41.0998C37.4066 40.4015 39.2021 41.0998 39.8006 42.6958Z" fill="white"/>
<path d="M37.0074 47.5835C36.5086 47.5835 36.0099 47.4838 35.6109 47.2843C34.7131 46.8853 33.9151 46.187 33.5161 45.2893C32.7181 43.394 33.6158 41.1995 35.5111 40.3017C37.4064 39.5037 39.6009 40.4015 40.4986 42.2967C40.8976 43.1945 40.8976 44.2918 40.4986 45.1895C40.0996 46.0873 39.4014 46.8853 38.5036 47.2843C38.0049 47.4838 37.5061 47.5835 37.0074 47.5835ZM37.0074 41.5985C36.7081 41.5985 36.4089 41.6982 36.1096 41.798C34.9126 42.2967 34.4138 43.5935 34.9126 44.7905C35.1121 45.389 35.6109 45.788 36.1096 45.9875C36.7081 46.187 37.3066 46.187 37.8054 45.9875C38.4039 45.788 38.8029 45.2893 39.0024 44.7905C39.2019 44.192 39.2019 43.5935 39.0024 43.0947C38.7031 42.0972 37.9051 41.5985 37.0074 41.5985Z" fill="#FFBC57"/>
<path d="M54.0643 48.3818C54.7626 49.878 53.9646 51.6736 52.4683 52.3718C50.972 53.0701 49.1765 52.2721 48.4783 50.7758C47.78 49.2795 48.578 47.484 50.0743 46.7858C51.6703 46.1873 53.4658 46.8855 54.0643 48.3818Z" fill="white"/>
<path d="M51.271 53.3689C49.7748 53.3689 48.3783 52.4712 47.7798 51.0747C46.9818 49.1794 47.8795 46.9849 49.7748 46.0871C51.67 45.2891 53.8645 46.1869 54.7623 48.0821C55.5603 49.9774 54.6626 52.1719 52.7673 53.0697C52.2685 53.2692 51.7698 53.3689 51.271 53.3689ZM51.271 47.2841C50.9718 47.2841 50.6725 47.3839 50.3733 47.4836C49.1763 47.9824 48.6775 49.2792 49.1763 50.4762C49.675 51.6732 50.9718 52.1719 52.1688 51.6732C53.3658 51.1744 53.8645 49.8777 53.3658 48.6806C53.0665 47.8826 52.1688 47.2841 51.271 47.2841Z" fill="#FFBC57"/>
<path d="M22.343 54.9651C21.944 54.9651 21.6447 54.6658 21.6447 54.2668L19.8492 39.6035C19.7494 39.2045 20.0487 38.8055 20.5474 38.8055C20.9464 38.7057 21.3454 39.005 21.3454 39.5037L23.141 54.1671C23.141 54.5661 22.8417 54.8653 22.343 54.9651C22.4427 54.9651 22.343 54.9651 22.343 54.9651Z" fill="#2B2929"/>
<path d="M23.4407 63.4438C23.0417 63.4438 22.7425 63.1446 22.7425 62.7456L22.2437 58.7555C22.144 58.3565 22.4432 57.9575 22.942 57.9575C23.341 57.9575 23.74 58.157 23.74 58.6558L24.2387 62.6458C24.139 62.9451 23.9395 63.3441 23.4407 63.4438Z" fill="#2B2929"/>
</svg>
