<svg width="202" height="105" viewBox="0 0 202 105" fill="none" xmlns="http://www.w3.org/2000/svg">
<mask id="mask0_1_37" style="mask-type:luminance" maskUnits="userSpaceOnUse" x="0" y="0" width="84" height="105">
<path d="M83.7973 0.672165H0.5886V104.683H83.7973V0.672165Z" fill="white"/>
</mask>
<g mask="url(#mask0_1_37)">
<path d="M42.1968 80.9625V104.684L83.7973 80.6552V56.9369L42.1968 80.9625Z" fill="#E46FD1"/>
<path d="M60.819 35.149L81.3453 23.2883L42.1968 0.672165V24.3928L60.819 35.149Z" fill="#E46FD1"/>
<path d="M26.0288 42.2316V65.96L42.196 75.2963V51.5786L26.0288 42.2316Z" fill="#555CFF"/>
<path d="M83.7973 27.5401L42.1968 51.5786V75.2963L83.7973 51.2676V27.5401Z" fill="#E46FD1"/>
<path d="M3.06592 23.2745L23.4692 35.2044L42.196 24.3928V0.672165L3.06592 23.2745Z" fill="#E46FD1"/>
<path d="M21.1219 68.7946V39.3861L0.5886 27.5293V80.6545L42.196 104.683V80.9618L21.1219 68.7946Z" fill="#555CFF"/>
</g>
<path d="M98.1131 29.7778H92.8811V44.4778H89.6531V29.7778H84.4211V27.1258H98.1131V29.7778ZM100.298 34.3018C100.682 33.5658 101.138 32.9898 101.666 32.5738C102.194 32.1498 102.818 31.9378 103.538 31.9378C104.106 31.9378 104.562 32.0618 104.906 32.3098L104.714 34.5298C104.674 34.6738 104.614 34.7778 104.534 34.8418C104.462 34.8978 104.362 34.9258 104.234 34.9258C104.114 34.9258 103.934 34.9058 103.694 34.8658C103.462 34.8258 103.234 34.8058 103.01 34.8058C102.682 34.8058 102.39 34.8538 102.134 34.9498C101.878 35.0458 101.646 35.1858 101.438 35.3698C101.238 35.5458 101.058 35.7618 100.898 36.0178C100.746 36.2738 100.602 36.5658 100.466 36.8938V44.4778H97.5016V32.1658H99.2416C99.5456 32.1658 99.7576 32.2218 99.8776 32.3338C99.9976 32.4378 100.078 32.6298 100.118 32.9098L100.298 34.3018ZM112.795 39.2218C111.939 39.2618 111.219 39.3378 110.635 39.4498C110.051 39.5538 109.583 39.6898 109.231 39.8578C108.879 40.0258 108.627 40.2218 108.475 40.4458C108.323 40.6698 108.247 40.9138 108.247 41.1778C108.247 41.6978 108.399 42.0698 108.703 42.2938C109.015 42.5178 109.419 42.6298 109.915 42.6298C110.523 42.6298 111.047 42.5218 111.487 42.3058C111.935 42.0818 112.371 41.7458 112.795 41.2978V39.2218ZM106.003 33.8818C107.419 32.5858 109.123 31.9378 111.115 31.9378C111.835 31.9378 112.479 32.0578 113.047 32.2978C113.615 32.5298 114.095 32.8578 114.487 33.2818C114.879 33.6978 115.175 34.1978 115.375 34.7818C115.583 35.3658 115.687 36.0058 115.687 36.7018V44.4778H114.343C114.063 44.4778 113.847 44.4378 113.695 44.3578C113.543 44.2698 113.423 44.0978 113.335 43.8418L113.071 42.9538C112.759 43.2338 112.455 43.4818 112.159 43.6978C111.863 43.9058 111.555 44.0818 111.235 44.2258C110.915 44.3698 110.571 44.4778 110.203 44.5498C109.843 44.6298 109.443 44.6698 109.003 44.6698C108.483 44.6698 108.003 44.6018 107.563 44.4658C107.123 44.3218 106.743 44.1098 106.423 43.8298C106.103 43.5498 105.855 43.2018 105.679 42.7858C105.503 42.3698 105.415 41.8858 105.415 41.3338C105.415 41.0218 105.467 40.7138 105.571 40.4098C105.675 40.0978 105.843 39.8018 106.075 39.5218C106.315 39.2418 106.623 38.9778 106.999 38.7298C107.375 38.4818 107.835 38.2658 108.379 38.0818C108.931 37.8978 109.571 37.7498 110.299 37.6378C111.027 37.5178 111.859 37.4458 112.795 37.4218V36.7018C112.795 35.8778 112.619 35.2698 112.267 34.8778C111.915 34.4778 111.407 34.2778 110.743 34.2778C110.263 34.2778 109.863 34.3338 109.543 34.4458C109.231 34.5578 108.955 34.6858 108.715 34.8298C108.475 34.9658 108.255 35.0898 108.055 35.2018C107.863 35.3138 107.647 35.3698 107.407 35.3698C107.199 35.3698 107.023 35.3178 106.879 35.2138C106.735 35.1018 106.619 34.9738 106.531 34.8298L106.003 33.8818ZM121.25 33.6778C121.498 33.4298 121.758 33.2018 122.03 32.9938C122.31 32.7778 122.602 32.5978 122.906 32.4538C123.218 32.3018 123.55 32.1858 123.902 32.1058C124.254 32.0178 124.638 31.9738 125.054 31.9738C125.726 31.9738 126.322 32.0898 126.842 32.3218C127.362 32.5458 127.794 32.8658 128.138 33.2818C128.49 33.6898 128.754 34.1818 128.93 34.7578C129.114 35.3258 129.206 35.9538 129.206 36.6418V44.4778H126.242V36.6418C126.242 35.8898 126.07 35.3098 125.726 34.9018C125.382 34.4858 124.858 34.2778 124.154 34.2778C123.642 34.2778 123.162 34.3938 122.714 34.6258C122.266 34.8578 121.842 35.1738 121.442 35.5738V44.4778H118.478V32.1658H120.29C120.674 32.1658 120.926 32.3458 121.046 32.7058L121.25 33.6778ZM139.537 34.5658C139.457 34.6938 139.373 34.7858 139.285 34.8418C139.197 34.8898 139.085 34.9138 138.949 34.9138C138.805 34.9138 138.649 34.8738 138.481 34.7938C138.321 34.7138 138.133 34.6258 137.917 34.5298C137.701 34.4258 137.453 34.3338 137.173 34.2538C136.901 34.1738 136.577 34.1338 136.201 34.1338C135.617 34.1338 135.157 34.2578 134.821 34.5058C134.493 34.7538 134.329 35.0778 134.329 35.4778C134.329 35.7418 134.413 35.9658 134.581 36.1498C134.757 36.3258 134.985 36.4818 135.265 36.6178C135.553 36.7538 135.877 36.8778 136.237 36.9898C136.597 37.0938 136.961 37.2098 137.329 37.3378C137.705 37.4658 138.073 37.6138 138.433 37.7818C138.793 37.9418 139.113 38.1498 139.393 38.4058C139.681 38.6538 139.909 38.9538 140.077 39.3058C140.253 39.6578 140.341 40.0818 140.341 40.5778C140.341 41.1698 140.233 41.7178 140.017 42.2218C139.809 42.7178 139.497 43.1498 139.081 43.5178C138.665 43.8778 138.149 44.1618 137.533 44.3698C136.925 44.5698 136.221 44.6698 135.421 44.6698C134.997 44.6698 134.581 44.6298 134.173 44.5498C133.773 44.4778 133.385 44.3738 133.009 44.2378C132.641 44.1018 132.297 43.9418 131.977 43.7578C131.665 43.5738 131.389 43.3738 131.149 43.1578L131.833 42.0298C131.921 41.8938 132.025 41.7898 132.145 41.7178C132.265 41.6458 132.417 41.6098 132.601 41.6098C132.785 41.6098 132.957 41.6618 133.117 41.7658C133.285 41.8698 133.477 41.9818 133.693 42.1018C133.909 42.2218 134.161 42.3338 134.449 42.4378C134.745 42.5418 135.117 42.5938 135.565 42.5938C135.917 42.5938 136.217 42.5538 136.465 42.4738C136.721 42.3858 136.929 42.2738 137.089 42.1378C137.257 42.0018 137.377 41.8458 137.449 41.6698C137.529 41.4858 137.569 41.2978 137.569 41.1058C137.569 40.8178 137.481 40.5818 137.305 40.3978C137.137 40.2138 136.909 40.0538 136.621 39.9178C136.341 39.7818 136.017 39.6618 135.649 39.5578C135.289 39.4458 134.917 39.3258 134.533 39.1978C134.157 39.0698 133.785 38.9218 133.417 38.7538C133.057 38.5778 132.733 38.3578 132.445 38.0938C132.165 37.8298 131.937 37.5058 131.761 37.1218C131.593 36.7378 131.509 36.2738 131.509 35.7298C131.509 35.2258 131.609 34.7458 131.809 34.2898C132.009 33.8338 132.301 33.4378 132.685 33.1018C133.077 32.7578 133.561 32.4858 134.137 32.2858C134.721 32.0778 135.393 31.9738 136.153 31.9738C137.001 31.9738 137.773 32.1138 138.469 32.3938C139.165 32.6738 139.745 33.0418 140.209 33.4978L139.537 34.5658ZM143.436 44.4778V34.3978L142.368 34.2298C142.136 34.1818 141.948 34.1018 141.804 33.9898C141.668 33.8698 141.6 33.7018 141.6 33.4858V32.2738H143.436V31.3618C143.436 30.6578 143.54 30.0258 143.748 29.4658C143.964 28.9058 144.268 28.4298 144.66 28.0378C145.06 27.6458 145.544 27.3458 146.112 27.1378C146.68 26.9298 147.32 26.8258 148.032 26.8258C148.6 26.8258 149.128 26.9018 149.616 27.0538L149.556 28.5418C149.548 28.6538 149.516 28.7458 149.46 28.8178C149.404 28.8818 149.328 28.9338 149.232 28.9738C149.144 29.0058 149.04 29.0298 148.92 29.0458C148.8 29.0538 148.672 29.0578 148.536 29.0578C148.184 29.0578 147.868 29.0978 147.588 29.1778C147.316 29.2498 147.084 29.3818 146.892 29.5738C146.7 29.7578 146.552 30.0058 146.448 30.3178C146.352 30.6218 146.304 31.0018 146.304 31.4578V32.2738H149.508V34.3858H146.4V44.4778H143.436ZM156.293 31.9738C157.205 31.9738 158.033 32.1218 158.777 32.4178C159.529 32.7138 160.169 33.1338 160.697 33.6778C161.233 34.2218 161.645 34.8858 161.933 35.6698C162.221 36.4538 162.365 37.3298 162.365 38.2978C162.365 39.2738 162.221 40.1538 161.933 40.9378C161.645 41.7218 161.233 42.3898 160.697 42.9418C160.169 43.4938 159.529 43.9178 158.777 44.2138C158.033 44.5098 157.205 44.6578 156.293 44.6578C155.373 44.6578 154.537 44.5098 153.785 44.2138C153.033 43.9178 152.389 43.4938 151.853 42.9418C151.325 42.3898 150.913 41.7218 150.617 40.9378C150.329 40.1538 150.185 39.2738 150.185 38.2978C150.185 37.3298 150.329 36.4538 150.617 35.6698C150.913 34.8858 151.325 34.2218 151.853 33.6778C152.389 33.1338 153.033 32.7138 153.785 32.4178C154.537 32.1218 155.373 31.9738 156.293 31.9738ZM156.293 42.3778C157.317 42.3778 158.073 42.0338 158.561 41.3458C159.057 40.6578 159.305 39.6498 159.305 38.3218C159.305 36.9938 159.057 35.9818 158.561 35.2858C158.073 34.5898 157.317 34.2418 156.293 34.2418C155.253 34.2418 154.481 34.5938 153.977 35.2978C153.481 35.9938 153.233 37.0018 153.233 38.3218C153.233 39.6418 153.481 40.6498 153.977 41.3458C154.481 42.0338 155.253 42.3778 156.293 42.3778ZM167.423 34.3018C167.807 33.5658 168.263 32.9898 168.791 32.5738C169.319 32.1498 169.943 31.9378 170.663 31.9378C171.231 31.9378 171.687 32.0618 172.031 32.3098L171.839 34.5298C171.799 34.6738 171.739 34.7778 171.659 34.8418C171.587 34.8978 171.487 34.9258 171.359 34.9258C171.239 34.9258 171.059 34.9058 170.819 34.8658C170.587 34.8258 170.359 34.8058 170.135 34.8058C169.807 34.8058 169.515 34.8538 169.259 34.9498C169.003 35.0458 168.771 35.1858 168.563 35.3698C168.363 35.5458 168.183 35.7618 168.023 36.0178C167.871 36.2738 167.727 36.5658 167.591 36.8938V44.4778H164.627V32.1658H166.367C166.671 32.1658 166.883 32.2218 167.003 32.3338C167.123 32.4378 167.203 32.6298 167.243 32.9098L167.423 34.3018ZM173.58 44.4778V32.1658H175.392C175.776 32.1658 176.028 32.3458 176.148 32.7058L176.34 33.6178C176.556 33.3778 176.78 33.1578 177.012 32.9578C177.252 32.7578 177.504 32.5858 177.768 32.4418C178.04 32.2978 178.328 32.1858 178.632 32.1058C178.944 32.0178 179.284 31.9738 179.652 31.9738C180.428 31.9738 181.064 32.1858 181.56 32.6098C182.064 33.0258 182.44 33.5818 182.688 34.2778C182.88 33.8698 183.12 33.5218 183.408 33.2338C183.696 32.9378 184.012 32.6978 184.356 32.5138C184.7 32.3298 185.064 32.1938 185.448 32.1058C185.84 32.0178 186.232 31.9738 186.624 31.9738C187.304 31.9738 187.908 32.0778 188.436 32.2858C188.964 32.4938 189.408 32.7978 189.768 33.1978C190.128 33.5978 190.4 34.0858 190.584 34.6618C190.776 35.2378 190.872 35.8978 190.872 36.6418V44.4778H187.908V36.6418C187.908 35.8578 187.736 35.2698 187.392 34.8778C187.048 34.4778 186.544 34.2778 185.88 34.2778C185.576 34.2778 185.292 34.3298 185.028 34.4338C184.772 34.5378 184.544 34.6898 184.344 34.8898C184.152 35.0818 184 35.3258 183.888 35.6218C183.776 35.9178 183.72 36.2578 183.72 36.6418V44.4778H180.744V36.6418C180.744 35.8178 180.576 35.2178 180.24 34.8418C179.912 34.4658 179.428 34.2778 178.788 34.2778C178.356 34.2778 177.952 34.3858 177.576 34.6018C177.208 34.8098 176.864 35.0978 176.544 35.4658V44.4778H173.58Z" fill="#555CFF"/>
<path d="M91.69 59.34C91.97 59.68 92.2733 59.92 92.6 60.06C92.9333 60.2 93.2933 60.27 93.68 60.27C94.0533 60.27 94.39 60.2 94.69 60.06C94.99 59.92 95.2433 59.7067 95.45 59.42C95.6633 59.1333 95.8267 58.7733 95.94 58.34C96.0533 57.9 96.11 57.3833 96.11 56.79C96.11 56.19 96.06 55.6833 95.96 55.27C95.8667 54.85 95.73 54.51 95.55 54.25C95.37 53.99 95.15 53.8 94.89 53.68C94.6367 53.56 94.3467 53.5 94.02 53.5C93.5067 53.5 93.07 53.61 92.71 53.83C92.35 54.0433 92.01 54.3467 91.69 54.74V59.34ZM91.56 53.14C91.98 52.6667 92.4567 52.2833 92.99 51.99C93.5233 51.6967 94.15 51.55 94.87 51.55C95.43 51.55 95.94 51.6667 96.4 51.9C96.8667 52.1333 97.2667 52.4733 97.6 52.92C97.94 53.36 98.2 53.9067 98.38 54.56C98.5667 55.2067 98.66 55.95 98.66 56.79C98.66 57.5567 98.5567 58.2667 98.35 58.92C98.1433 59.5733 97.8467 60.14 97.46 60.62C97.08 61.1 96.6167 61.4767 96.07 61.75C95.53 62.0167 94.9233 62.15 94.25 62.15C93.6767 62.15 93.1867 62.0633 92.78 61.89C92.3733 61.71 92.01 61.4633 91.69 61.15V65.35H89.22V51.74H90.73C91.05 51.74 91.26 51.89 91.36 52.19L91.56 53.14ZM102.917 53.52C103.237 52.9067 103.617 52.4267 104.057 52.08C104.497 51.7267 105.017 51.55 105.617 51.55C106.091 51.55 106.471 51.6533 106.757 51.86L106.597 53.71C106.564 53.83 106.514 53.9167 106.447 53.97C106.387 54.0167 106.304 54.04 106.197 54.04C106.097 54.04 105.947 54.0233 105.747 53.99C105.554 53.9567 105.364 53.94 105.177 53.94C104.904 53.94 104.661 53.98 104.447 54.06C104.234 54.14 104.041 54.2567 103.867 54.41C103.701 54.5567 103.551 54.7367 103.417 54.95C103.291 55.1633 103.171 55.4067 103.057 55.68V62H100.587V51.74H102.037C102.291 51.74 102.467 51.7867 102.567 51.88C102.667 51.9667 102.734 52.1267 102.767 52.36L102.917 53.52ZM113.331 57.62C112.618 57.6533 112.018 57.7167 111.531 57.81C111.045 57.8967 110.655 58.01 110.361 58.15C110.068 58.29 109.858 58.4533 109.731 58.64C109.605 58.8267 109.541 59.03 109.541 59.25C109.541 59.6833 109.668 59.9933 109.921 60.18C110.181 60.3667 110.518 60.46 110.931 60.46C111.438 60.46 111.875 60.37 112.241 60.19C112.615 60.0033 112.978 59.7233 113.331 59.35V57.62ZM107.671 53.17C108.851 52.09 110.271 51.55 111.931 51.55C112.531 51.55 113.068 51.65 113.541 51.85C114.015 52.0433 114.415 52.3167 114.741 52.67C115.068 53.0167 115.315 53.4333 115.481 53.92C115.655 54.4067 115.741 54.94 115.741 55.52V62H114.621C114.388 62 114.208 61.9667 114.081 61.9C113.955 61.8267 113.855 61.6833 113.781 61.47L113.561 60.73C113.301 60.9633 113.048 61.17 112.801 61.35C112.555 61.5233 112.298 61.67 112.031 61.79C111.765 61.91 111.478 62 111.171 62.06C110.871 62.1267 110.538 62.16 110.171 62.16C109.738 62.16 109.338 62.1033 108.971 61.99C108.605 61.87 108.288 61.6933 108.021 61.46C107.755 61.2267 107.548 60.9367 107.401 60.59C107.255 60.2433 107.181 59.84 107.181 59.38C107.181 59.12 107.225 58.8633 107.311 58.61C107.398 58.35 107.538 58.1033 107.731 57.87C107.931 57.6367 108.188 57.4167 108.501 57.21C108.815 57.0033 109.198 56.8233 109.651 56.67C110.111 56.5167 110.645 56.3933 111.251 56.3C111.858 56.2 112.551 56.14 113.331 56.12V55.52C113.331 54.8333 113.185 54.3267 112.891 54C112.598 53.6667 112.175 53.5 111.621 53.5C111.221 53.5 110.888 53.5467 110.621 53.64C110.361 53.7333 110.131 53.84 109.931 53.96C109.731 54.0733 109.548 54.1767 109.381 54.27C109.221 54.3633 109.041 54.41 108.841 54.41C108.668 54.41 108.521 54.3667 108.401 54.28C108.281 54.1867 108.185 54.08 108.111 53.96L107.671 53.17ZM125.418 53.91C125.344 54.0033 125.271 54.0767 125.198 54.13C125.131 54.1833 125.031 54.21 124.898 54.21C124.771 54.21 124.648 54.1733 124.528 54.1C124.408 54.02 124.264 53.9333 124.098 53.84C123.931 53.74 123.731 53.6533 123.498 53.58C123.271 53.5 122.988 53.46 122.648 53.46C122.214 53.46 121.834 53.54 121.508 53.7C121.181 53.8533 120.908 54.0767 120.688 54.37C120.474 54.6633 120.314 55.02 120.208 55.44C120.101 55.8533 120.048 56.3233 120.048 56.85C120.048 57.3967 120.104 57.8833 120.218 58.31C120.338 58.7367 120.508 59.0967 120.728 59.39C120.948 59.6767 121.214 59.8967 121.528 60.05C121.841 60.1967 122.194 60.27 122.588 60.27C122.981 60.27 123.298 60.2233 123.538 60.13C123.784 60.03 123.991 59.9233 124.158 59.81C124.324 59.69 124.468 59.5833 124.588 59.49C124.714 59.39 124.854 59.34 125.008 59.34C125.208 59.34 125.358 59.4167 125.458 59.57L126.168 60.47C125.894 60.79 125.598 61.06 125.278 61.28C124.958 61.4933 124.624 61.6667 124.278 61.8C123.938 61.9267 123.584 62.0167 123.218 62.07C122.858 62.1233 122.498 62.15 122.138 62.15C121.504 62.15 120.908 62.0333 120.348 61.8C119.788 61.56 119.298 61.2133 118.878 60.76C118.458 60.3067 118.124 59.7533 117.878 59.1C117.638 58.44 117.518 57.69 117.518 56.85C117.518 56.0967 117.624 55.4 117.838 54.76C118.058 54.1133 118.378 53.5567 118.798 53.09C119.218 52.6167 119.738 52.2467 120.358 51.98C120.978 51.7133 121.691 51.58 122.498 51.58C123.264 51.58 123.934 51.7033 124.508 51.95C125.088 52.1967 125.608 52.55 126.068 53.01L125.418 53.91ZM138.066 62H135.596V53.59H130.836V59.15C130.836 59.47 130.913 59.72 131.066 59.9C131.226 60.08 131.443 60.17 131.716 60.17C131.869 60.17 131.996 60.1533 132.096 60.12C132.203 60.08 132.293 60.04 132.366 60C132.446 59.96 132.516 59.9233 132.576 59.89C132.636 59.85 132.696 59.83 132.756 59.83C132.829 59.83 132.889 59.85 132.936 59.89C132.983 59.9233 133.033 59.9767 133.086 60.05L133.826 61.25C133.466 61.55 133.053 61.7767 132.586 61.93C132.119 62.0833 131.636 62.16 131.136 62.16C130.243 62.16 129.556 61.91 129.076 61.41C128.603 60.9033 128.366 60.2067 128.366 59.32V53.59H127.316C127.183 53.59 127.069 53.5467 126.976 53.46C126.883 53.3733 126.836 53.2433 126.836 53.07V52.09L128.486 51.81L129.006 49.02C129.039 48.8867 129.103 48.7833 129.196 48.71C129.289 48.6367 129.409 48.6 129.556 48.6H130.836V51.83H138.066V62ZM138.496 48.71C138.496 48.9233 138.453 49.1267 138.366 49.32C138.279 49.5067 138.163 49.67 138.016 49.81C137.876 49.95 137.706 50.0633 137.506 50.15C137.313 50.23 137.106 50.27 136.886 50.27C136.673 50.27 136.473 50.23 136.286 50.15C136.099 50.0633 135.936 49.95 135.796 49.81C135.656 49.67 135.543 49.5067 135.456 49.32C135.376 49.1267 135.336 48.9233 135.336 48.71C135.336 48.49 135.376 48.2867 135.456 48.1C135.543 47.9067 135.656 47.74 135.796 47.6C135.936 47.4533 136.099 47.34 136.286 47.26C136.473 47.1733 136.673 47.13 136.886 47.13C137.106 47.13 137.313 47.1733 137.506 47.26C137.706 47.34 137.876 47.4533 138.016 47.6C138.163 47.74 138.279 47.9067 138.366 48.1C138.453 48.2867 138.496 48.49 138.496 48.71ZM147.937 53.91C147.864 54.0033 147.791 54.0767 147.717 54.13C147.651 54.1833 147.551 54.21 147.417 54.21C147.291 54.21 147.167 54.1733 147.047 54.1C146.927 54.02 146.784 53.9333 146.617 53.84C146.451 53.74 146.251 53.6533 146.017 53.58C145.791 53.5 145.507 53.46 145.167 53.46C144.734 53.46 144.354 53.54 144.027 53.7C143.701 53.8533 143.427 54.0767 143.207 54.37C142.994 54.6633 142.834 55.02 142.727 55.44C142.621 55.8533 142.567 56.3233 142.567 56.85C142.567 57.3967 142.624 57.8833 142.737 58.31C142.857 58.7367 143.027 59.0967 143.247 59.39C143.467 59.6767 143.734 59.8967 144.047 60.05C144.361 60.1967 144.714 60.27 145.107 60.27C145.501 60.27 145.817 60.2233 146.057 60.13C146.304 60.03 146.511 59.9233 146.677 59.81C146.844 59.69 146.987 59.5833 147.107 59.49C147.234 59.39 147.374 59.34 147.527 59.34C147.727 59.34 147.877 59.4167 147.977 59.57L148.687 60.47C148.414 60.79 148.117 61.06 147.797 61.28C147.477 61.4933 147.144 61.6667 146.797 61.8C146.457 61.9267 146.104 62.0167 145.737 62.07C145.377 62.1233 145.017 62.15 144.657 62.15C144.024 62.15 143.427 62.0333 142.867 61.8C142.307 61.56 141.817 61.2133 141.397 60.76C140.977 60.3067 140.644 59.7533 140.397 59.1C140.157 58.44 140.037 57.69 140.037 56.85C140.037 56.0967 140.144 55.4 140.357 54.76C140.577 54.1133 140.897 53.5567 141.317 53.09C141.737 52.6167 142.257 52.2467 142.877 51.98C143.497 51.7133 144.211 51.58 145.017 51.58C145.784 51.58 146.454 51.7033 147.027 51.95C147.607 52.1967 148.127 52.55 148.587 53.01L147.937 53.91ZM156.67 55.69C156.67 55.37 156.623 55.07 156.53 54.79C156.443 54.5033 156.31 54.2533 156.13 54.04C155.95 53.8267 155.72 53.66 155.44 53.54C155.167 53.4133 154.847 53.35 154.48 53.35C153.767 53.35 153.203 53.5533 152.79 53.96C152.383 54.3667 152.123 54.9433 152.01 55.69H156.67ZM151.96 57.18C152 57.7067 152.093 58.1633 152.24 58.55C152.387 58.93 152.58 59.2467 152.82 59.5C153.06 59.7467 153.343 59.9333 153.67 60.06C154.003 60.18 154.37 60.24 154.77 60.24C155.17 60.24 155.513 60.1933 155.8 60.1C156.093 60.0067 156.347 59.9033 156.56 59.79C156.78 59.6767 156.97 59.5733 157.13 59.48C157.297 59.3867 157.457 59.34 157.61 59.34C157.817 59.34 157.97 59.4167 158.07 59.57L158.78 60.47C158.507 60.79 158.2 61.06 157.86 61.28C157.52 61.4933 157.163 61.6667 156.79 61.8C156.423 61.9267 156.047 62.0167 155.66 62.07C155.28 62.1233 154.91 62.15 154.55 62.15C153.837 62.15 153.173 62.0333 152.56 61.8C151.947 61.56 151.413 61.21 150.96 60.75C150.507 60.2833 150.15 59.71 149.89 59.03C149.63 58.3433 149.5 57.55 149.5 56.65C149.5 55.95 149.613 55.2933 149.84 54.68C150.067 54.06 150.39 53.5233 150.81 53.07C151.237 52.61 151.753 52.2467 152.36 51.98C152.973 51.7133 153.663 51.58 154.43 51.58C155.077 51.58 155.673 51.6833 156.22 51.89C156.767 52.0967 157.237 52.4 157.63 52.8C158.023 53.1933 158.33 53.68 158.55 54.26C158.777 54.8333 158.89 55.49 158.89 56.23C158.89 56.6033 158.85 56.8567 158.77 56.99C158.69 57.1167 158.537 57.18 158.31 57.18H151.96Z" fill="#E46FD1"/>
</svg>
