<svg width="265" height="244" viewBox="0 0 265 244" fill="none" xmlns="http://www.w3.org/2000/svg">
<path fill-rule="evenodd" clip-rule="evenodd" d="M192.987 56.4727C212.286 56.4727 223.464 59.3043 233.406 64.6215C243.348 69.9387 251.151 77.7414 256.468 87.6837C261.785 97.626 264.617 108.804 264.617 128.103V142.45C264.617 161.749 261.785 172.927 256.468 182.869C251.151 192.811 243.348 200.614 233.406 205.931C223.464 211.249 212.286 214.08 192.987 214.08H117.63C98.3311 214.08 87.1533 211.249 77.211 205.931C67.2687 200.614 59.466 192.811 54.1488 182.869C48.8316 172.927 46 161.749 46 142.45V128.103C46 108.804 48.8316 97.626 54.1488 87.6837C59.466 77.7414 67.2687 69.9387 77.211 64.6215C87.1533 59.3043 98.3311 56.4727 117.63 56.4727H192.987ZM116.024 69.183C99.7447 69.183 90.4626 71.5427 82.1774 75.9737C73.8922 80.4046 67.3899 86.9069 62.9589 95.1922C58.5279 103.477 56.1682 112.76 56.1682 129.038V141.515C56.1682 157.793 58.5279 167.076 62.9589 175.361C67.3899 183.646 73.8922 190.148 82.1774 194.579C90.4626 199.01 99.7447 201.37 116.024 201.37H194.593C210.872 201.37 220.154 199.01 228.439 194.579C236.725 190.148 243.227 183.646 247.658 175.361C252.089 167.076 254.449 157.793 254.449 141.515V129.038C254.449 112.76 252.089 103.477 247.658 95.1922C243.227 86.9069 236.725 80.4046 228.439 75.9737C220.154 71.5427 210.872 69.183 194.593 69.183H116.024Z" fill="#0069B5" fill-opacity="0.69"/>
<path opacity="0.1" fill-rule="evenodd" clip-rule="evenodd" d="M65.2513 0L148.281 0C165.481 0 175.809 2.59565 184.923 7.46973C194.036 12.3438 201.189 19.4963 206.063 28.6101C210.937 37.7238 213.533 48.0521 213.533 65.2513V77.1038C213.533 94.3031 210.937 104.631 206.063 113.745C201.189 122.859 194.036 130.011 184.923 134.885C175.809 139.759 165.481 142.355 148.281 142.355H65.2513C48.0521 142.355 37.7238 139.759 28.6101 134.885C19.4963 130.011 12.3438 122.859 7.46973 113.745C2.59565 104.631 0 94.3031 0 77.1038L0 65.2513C0 48.0521 2.59565 37.7238 7.46973 28.6101C12.3438 19.4963 19.4963 12.3438 28.6101 7.46973C37.7238 2.59565 48.0521 0 65.2513 0Z" fill="#919191"/>
<path fill-rule="evenodd" clip-rule="evenodd" d="M144.972 243.387V213.533H111.85L144.972 243.387Z" fill="#919191"/>
<path d="M95.4815 95.5636V106.473H94.1605V96.7355H88.6634V106.473H87.3423V95.5636H95.4815ZM97.9758 109.541V98.2909H99.1903V99.5906H99.3394C99.4317 99.4486 99.5596 99.2675 99.7229 99.0473C99.8898 98.8236 100.128 98.6247 100.437 98.4507C100.749 98.2731 101.172 98.1844 101.704 98.1844C102.393 98.1844 103.001 98.3566 103.526 98.7011C104.052 99.0455 104.462 99.5338 104.757 100.166C105.051 100.798 105.199 101.544 105.199 102.403C105.199 103.27 105.051 104.021 104.757 104.656C104.462 105.288 104.054 105.778 103.532 106.126C103.009 106.471 102.408 106.643 101.726 106.643C101.2 106.643 100.779 106.556 100.463 106.382C100.147 106.205 99.904 106.004 99.7336 105.78C99.5631 105.553 99.4317 105.365 99.3394 105.216H99.2329V109.541H97.9758ZM99.2116 102.382C99.2116 103 99.3021 103.545 99.4832 104.017C99.6643 104.486 99.9289 104.853 100.277 105.12C100.625 105.383 101.051 105.514 101.555 105.514C102.081 105.514 102.519 105.375 102.871 105.098C103.226 104.818 103.492 104.441 103.67 103.969C103.851 103.493 103.942 102.964 103.942 102.382C103.942 101.807 103.853 101.288 103.675 100.826C103.501 100.361 103.237 99.9937 102.882 99.7238C102.53 99.4503 102.088 99.3136 101.555 99.3136C101.044 99.3136 100.614 99.4432 100.266 99.7025C99.9182 99.9582 99.6555 100.317 99.4779 100.778C99.3003 101.237 99.2116 101.771 99.2116 102.382ZM108.373 104.619L112.315 98.2909H113.764V106.473H112.507V100.145L108.587 106.473H107.116V98.2909H108.373V104.619ZM116.067 106.473V98.2909H119.412C120.292 98.2909 120.992 98.4898 121.51 98.8875C122.029 99.2852 122.288 99.8108 122.288 100.464C122.288 100.961 122.141 101.347 121.846 101.62C121.551 101.89 121.173 102.073 120.711 102.169C121.013 102.211 121.306 102.318 121.59 102.488C121.878 102.659 122.116 102.893 122.304 103.191C122.492 103.486 122.586 103.848 122.586 104.278C122.586 104.697 122.48 105.072 122.267 105.402C122.054 105.732 121.748 105.993 121.351 106.185C120.953 106.377 120.477 106.473 119.923 106.473H116.067ZM117.26 105.322H119.923C120.356 105.322 120.695 105.219 120.941 105.013C121.186 104.807 121.308 104.527 121.308 104.172C121.308 103.749 121.186 103.417 120.941 103.175C120.695 102.93 120.356 102.808 119.923 102.808H117.26V105.322ZM117.26 101.721H119.412C119.749 101.721 120.039 101.675 120.28 101.583C120.521 101.487 120.706 101.352 120.834 101.178C120.965 101 121.031 100.791 121.031 100.549C121.031 100.205 120.887 99.9351 120.6 99.7398C120.312 99.5409 119.916 99.4415 119.412 99.4415H117.26V101.721ZM124.489 106.473V98.2909H125.747V106.473H124.489ZM125.129 96.9273C124.884 96.9273 124.672 96.8438 124.495 96.6769C124.321 96.51 124.234 96.3094 124.234 96.075C124.234 95.8406 124.321 95.64 124.495 95.4731C124.672 95.3062 124.884 95.2227 125.129 95.2227C125.374 95.2227 125.583 95.3062 125.757 95.4731C125.935 95.64 126.024 95.8406 126.024 96.075C126.024 96.3094 125.935 96.51 125.757 96.6769C125.583 96.8438 125.374 96.9273 125.129 96.9273ZM127.58 99.4628V98.2909H134.228V99.4628H131.543V106.473H130.286V99.4628H127.58ZM136.574 104.981L136.489 105.557C136.429 105.961 136.336 106.395 136.212 106.856C136.091 107.318 135.965 107.753 135.834 108.161C135.703 108.57 135.594 108.895 135.509 109.136H134.55C134.596 108.909 134.657 108.609 134.731 108.236C134.806 107.863 134.881 107.446 134.955 106.984C135.033 106.526 135.097 106.057 135.147 105.578L135.211 104.981H136.574ZM147.597 104.768L150.452 98.2909H151.645L148.108 106.473H147.085L143.612 98.2909H144.784L147.597 104.768ZM144.379 98.2909V106.473H143.122V98.2909H144.379ZM150.814 106.473V98.2909H152.071V106.473H150.814ZM157.803 106.643C157.014 106.643 156.334 106.469 155.763 106.121C155.194 105.77 154.756 105.28 154.447 104.651C154.141 104.019 153.989 103.284 153.989 102.446C153.989 101.608 154.141 100.869 154.447 100.23C154.756 99.5871 155.185 99.0864 155.736 98.7277C156.29 98.3655 156.936 98.1844 157.675 98.1844C158.101 98.1844 158.522 98.2554 158.937 98.3974C159.353 98.5395 159.731 98.7703 160.072 99.0899C160.413 99.406 160.684 99.825 160.887 100.347C161.089 100.869 161.19 101.512 161.19 102.275V102.808H154.884V101.721H159.912C159.912 101.26 159.82 100.848 159.635 100.486C159.454 100.123 159.195 99.8374 158.857 99.6279C158.524 99.4184 158.129 99.3136 157.675 99.3136C157.174 99.3136 156.741 99.4379 156.375 99.6865C156.013 99.9315 155.734 100.251 155.539 100.645C155.343 101.039 155.246 101.462 155.246 101.913V102.637C155.246 103.255 155.352 103.779 155.565 104.209C155.782 104.635 156.082 104.96 156.466 105.184C156.849 105.404 157.295 105.514 157.803 105.514C158.133 105.514 158.431 105.468 158.698 105.375C158.967 105.28 159.2 105.137 159.395 104.949C159.591 104.758 159.742 104.52 159.848 104.236L161.063 104.576C160.935 104.988 160.72 105.351 160.418 105.663C160.116 105.972 159.743 106.213 159.299 106.387C158.856 106.558 158.357 106.643 157.803 106.643ZM168.579 101.807V102.978H164.062V101.807H168.579ZM164.36 98.2909V106.473H163.103V98.2909H164.36ZM169.537 98.2909V106.473H168.28V98.2909H169.537ZM175.264 106.643C174.475 106.643 173.795 106.469 173.223 106.121C172.655 105.77 172.217 105.28 171.908 104.651C171.602 104.019 171.45 103.284 171.45 102.446C171.45 101.608 171.602 100.869 171.908 100.23C172.217 99.5871 172.646 99.0864 173.197 98.7277C173.751 98.3655 174.397 98.1844 175.136 98.1844C175.562 98.1844 175.983 98.2554 176.398 98.3974C176.814 98.5395 177.192 98.7703 177.533 99.0899C177.874 99.406 178.145 99.825 178.348 100.347C178.55 100.869 178.651 101.512 178.651 102.275V102.808H172.345V101.721H177.373C177.373 101.26 177.281 100.848 177.096 100.486C176.915 100.123 176.656 99.8374 176.318 99.6279C175.984 99.4184 175.59 99.3136 175.136 99.3136C174.635 99.3136 174.202 99.4379 173.836 99.6865C173.474 99.9315 173.195 100.251 173 100.645C172.804 101.039 172.707 101.462 172.707 101.913V102.637C172.707 103.255 172.813 103.779 173.026 104.209C173.243 104.635 173.543 104.96 173.927 105.184C174.31 105.404 174.756 105.514 175.264 105.514C175.594 105.514 175.892 105.468 176.158 105.375C176.428 105.28 176.661 105.137 176.856 104.949C177.052 104.758 177.203 104.52 177.309 104.236L178.524 104.576C178.396 104.988 178.181 105.351 177.879 105.663C177.577 105.972 177.204 106.213 176.76 106.387C176.316 106.558 175.818 106.643 175.264 106.643ZM184.271 104.385H185.613C185.642 104.754 185.809 105.035 186.114 105.226C186.423 105.418 186.824 105.514 187.318 105.514C187.822 105.514 188.254 105.411 188.612 105.205C188.971 104.995 189.15 104.658 189.15 104.193C189.15 103.919 189.083 103.682 188.948 103.479C188.813 103.273 188.623 103.113 188.378 103C188.133 102.886 187.843 102.829 187.51 102.829H186.103V101.7H187.51C188.01 101.7 188.38 101.586 188.618 101.359C188.859 101.132 188.98 100.848 188.98 100.507C188.98 100.141 188.85 99.8481 188.591 99.6279C188.332 99.4042 187.964 99.2923 187.488 99.2923C187.009 99.2923 186.609 99.4006 186.29 99.6172C185.97 99.8303 185.802 100.106 185.784 100.443H184.463C184.477 100.003 184.612 99.6137 184.868 99.2763C185.123 98.9354 185.471 98.6691 185.912 98.4773C186.352 98.282 186.856 98.1844 187.424 98.1844C188 98.1844 188.499 98.2856 188.921 98.488C189.347 98.6869 189.676 98.9585 189.907 99.303C190.141 99.6439 190.258 100.031 190.258 100.464C190.258 100.926 190.129 101.299 189.869 101.583C189.61 101.867 189.285 102.069 188.895 102.19V102.275C189.204 102.297 189.472 102.396 189.699 102.574C189.93 102.748 190.109 102.977 190.237 103.261C190.365 103.541 190.429 103.852 190.429 104.193C190.429 104.69 190.296 105.123 190.029 105.493C189.763 105.858 189.397 106.142 188.932 106.345C188.467 106.544 187.936 106.643 187.339 106.643C186.76 106.643 186.242 106.549 185.784 106.361C185.326 106.169 184.962 105.905 184.692 105.567C184.426 105.226 184.285 104.832 184.271 104.385ZM192.195 106.473V98.2909H195.54C196.42 98.2909 197.12 98.4898 197.638 98.8875C198.157 99.2852 198.416 99.8108 198.416 100.464C198.416 100.961 198.269 101.347 197.974 101.62C197.679 101.89 197.301 102.073 196.839 102.169C197.141 102.211 197.434 102.318 197.718 102.488C198.006 102.659 198.244 102.893 198.432 103.191C198.62 103.486 198.714 103.848 198.714 104.278C198.714 104.697 198.608 105.072 198.395 105.402C198.182 105.732 197.876 105.993 197.479 106.185C197.081 106.377 196.605 106.473 196.051 106.473H192.195ZM193.388 105.322H196.051C196.484 105.322 196.823 105.219 197.068 105.013C197.313 104.807 197.436 104.527 197.436 104.172C197.436 103.749 197.313 103.417 197.068 103.175C196.823 102.93 196.484 102.808 196.051 102.808H193.388V105.322ZM193.388 101.721H195.54C195.877 101.721 196.166 101.675 196.408 101.583C196.649 101.487 196.834 101.352 196.962 101.178C197.093 101 197.159 100.791 197.159 100.549C197.159 100.205 197.015 99.9351 196.728 99.7398C196.44 99.5409 196.044 99.4415 195.54 99.4415H193.388V101.721ZM203.025 106.664C202.507 106.664 202.036 106.567 201.613 106.372C201.191 106.173 200.855 105.887 200.607 105.514C200.358 105.137 200.234 104.683 200.234 104.15C200.234 103.682 200.326 103.302 200.511 103.01C200.695 102.716 200.942 102.485 201.251 102.318C201.56 102.151 201.901 102.027 202.274 101.945C202.65 101.86 203.029 101.792 203.409 101.743C203.906 101.679 204.309 101.631 204.618 101.599C204.93 101.563 205.157 101.505 205.3 101.423C205.445 101.341 205.518 101.199 205.518 100.997V100.954C205.518 100.429 205.374 100.02 205.086 99.7291C204.802 99.4379 204.371 99.2923 203.792 99.2923C203.192 99.2923 202.721 99.4237 202.381 99.6865C202.04 99.9493 201.8 100.23 201.661 100.528L200.468 100.102C200.681 99.6048 200.965 99.2177 201.32 98.9408C201.679 98.6602 202.07 98.4649 202.492 98.3548C202.919 98.2412 203.338 98.1844 203.749 98.1844C204.012 98.1844 204.314 98.2163 204.655 98.2802C204.999 98.3406 205.331 98.4667 205.651 98.6584C205.974 98.8502 206.242 99.1396 206.455 99.5267C206.669 99.9138 206.775 100.432 206.775 101.082V106.473H205.518V105.365H205.454C205.369 105.542 205.227 105.732 205.028 105.935C204.829 106.137 204.564 106.309 204.234 106.451C203.904 106.593 203.501 106.664 203.025 106.664ZM203.217 105.535C203.714 105.535 204.133 105.438 204.474 105.242C204.818 105.047 205.078 104.795 205.252 104.486C205.429 104.177 205.518 103.852 205.518 103.511V102.361C205.465 102.424 205.347 102.483 205.166 102.536C204.989 102.586 204.783 102.63 204.548 102.669C204.318 102.705 204.092 102.737 203.872 102.765C203.655 102.79 203.48 102.811 203.345 102.829C203.018 102.872 202.713 102.941 202.428 103.037C202.148 103.129 201.921 103.27 201.747 103.458C201.576 103.642 201.491 103.895 201.491 104.214C201.491 104.651 201.653 104.981 201.976 105.205C202.302 105.425 202.716 105.535 203.217 105.535ZM207.956 99.4628V98.2909H214.604V99.4628H211.919V106.473H210.662V99.4628H207.956ZM217.695 104.619L221.637 98.2909H223.085V106.473H221.828V100.145L217.908 106.473H216.438V98.2909H217.695V104.619ZM93.9048 113.564V114.736H88.642V124.473H87.321V113.564H93.9048ZM97.0729 124.664C96.5544 124.664 96.0839 124.567 95.6613 124.372C95.2387 124.173 94.9031 123.887 94.6546 123.514C94.406 123.137 94.2817 122.683 94.2817 122.15C94.2817 121.682 94.374 121.302 94.5587 121.01C94.7433 120.716 94.9901 120.485 95.2991 120.318C95.608 120.151 95.949 120.027 96.3218 119.945C96.6982 119.86 97.0764 119.792 97.4564 119.743C97.9536 119.679 98.3566 119.631 98.6656 119.599C98.9781 119.563 99.2053 119.505 99.3474 119.423C99.493 119.341 99.5658 119.199 99.5658 118.997V118.954C99.5658 118.429 99.422 118.02 99.1343 117.729C98.8502 117.438 98.4188 117.292 97.8399 117.292C97.2398 117.292 96.7693 117.424 96.4284 117.686C96.0874 117.949 95.8477 118.23 95.7093 118.528L94.5161 118.102C94.7291 117.605 95.0132 117.218 95.3683 116.941C95.727 116.66 96.1176 116.465 96.5402 116.355C96.9664 116.241 97.3854 116.184 97.7973 116.184C98.0601 116.184 98.3619 116.216 98.7029 116.28C99.0473 116.341 99.3794 116.467 99.699 116.658C100.022 116.85 100.29 117.14 100.503 117.527C100.716 117.914 100.823 118.432 100.823 119.082V124.473H99.5658V123.365H99.5019C99.4166 123.542 99.2746 123.732 99.0757 123.935C98.8769 124.137 98.6123 124.309 98.282 124.451C97.9518 124.593 97.5487 124.664 97.0729 124.664ZM97.2646 123.535C97.7618 123.535 98.1808 123.438 98.5218 123.242C98.8662 123.047 99.1254 122.795 99.2994 122.486C99.477 122.177 99.5658 121.852 99.5658 121.511V120.361C99.5125 120.424 99.3953 120.483 99.2142 120.536C99.0367 120.586 98.8307 120.63 98.5963 120.669C98.3655 120.705 98.14 120.737 97.9198 120.765C97.7032 120.79 97.5274 120.811 97.3925 120.829C97.0658 120.872 96.7604 120.941 96.4763 121.037C96.1958 121.129 95.9685 121.27 95.7945 121.458C95.624 121.642 95.5388 121.895 95.5388 122.214C95.5388 122.651 95.7004 122.981 96.0235 123.205C96.3502 123.425 96.7639 123.535 97.2646 123.535ZM102.393 124.473V123.301H102.691C102.936 123.301 103.14 123.253 103.304 123.157C103.467 123.058 103.599 122.885 103.698 122.64C103.801 122.392 103.879 122.047 103.932 121.607C103.989 121.163 104.03 120.598 104.055 119.913L104.204 116.291H109.659V124.473H108.401V117.463H105.397L105.269 120.382C105.241 121.053 105.181 121.644 105.088 122.156C104.999 122.663 104.863 123.09 104.678 123.434C104.497 123.778 104.256 124.038 103.954 124.212C103.652 124.386 103.274 124.473 102.819 124.473H102.393ZM116.887 124.473V117.441H114.714C114.224 117.441 113.838 117.555 113.558 117.782C113.277 118.01 113.137 118.322 113.137 118.72C113.137 119.111 113.263 119.418 113.515 119.641C113.771 119.865 114.121 119.977 114.564 119.977H117.206V121.149H114.564C114.01 121.149 113.533 121.051 113.132 120.856C112.73 120.661 112.421 120.382 112.205 120.02C111.988 119.654 111.88 119.221 111.88 118.72C111.88 118.216 111.993 117.782 112.221 117.42C112.448 117.058 112.773 116.779 113.195 116.584C113.622 116.389 114.128 116.291 114.714 116.291H118.08V124.473H116.887ZM111.432 124.473L113.755 120.403H115.118L112.796 124.473H111.432ZM124.607 124.473V116.291H125.864V124.473H124.607ZM125.246 114.927C125.001 114.927 124.79 114.844 124.612 114.677C124.438 114.51 124.351 114.309 124.351 114.075C124.351 113.841 124.438 113.64 124.612 113.473C124.79 113.306 125.001 113.223 125.246 113.223C125.491 113.223 125.7 113.306 125.874 113.473C126.052 113.64 126.141 113.841 126.141 114.075C126.141 114.309 126.052 114.51 125.874 114.677C125.7 114.844 125.491 114.927 125.246 114.927ZM135.709 124.643C134.942 124.643 134.281 124.462 133.727 124.1C133.173 123.738 132.747 123.239 132.449 122.603C132.151 121.967 132.001 121.241 132.001 120.424C132.001 119.593 132.154 118.86 132.46 118.224C132.768 117.585 133.198 117.086 133.749 116.728C134.303 116.365 134.949 116.184 135.688 116.184C136.263 116.184 136.781 116.291 137.243 116.504C137.705 116.717 138.083 117.015 138.377 117.399C138.672 117.782 138.855 118.23 138.926 118.741H137.669C137.573 118.368 137.36 118.038 137.03 117.75C136.703 117.459 136.263 117.314 135.709 117.314C135.219 117.314 134.789 117.441 134.42 117.697C134.054 117.949 133.768 118.306 133.562 118.768C133.36 119.226 133.259 119.764 133.259 120.382C133.259 121.014 133.358 121.564 133.557 122.033C133.759 122.502 134.043 122.866 134.409 123.125C134.778 123.384 135.212 123.514 135.709 123.514C136.036 123.514 136.332 123.457 136.598 123.343C136.865 123.23 137.09 123.066 137.275 122.853C137.46 122.64 137.591 122.385 137.669 122.086H138.926C138.855 122.569 138.679 123.004 138.399 123.391C138.122 123.775 137.754 124.08 137.296 124.308C136.842 124.531 136.313 124.643 135.709 124.643ZM141.85 119.253H144.194C145.153 119.253 145.886 119.496 146.394 119.982C146.902 120.469 147.156 121.085 147.156 121.831C147.156 122.321 147.042 122.766 146.815 123.168C146.588 123.565 146.254 123.883 145.814 124.121C145.373 124.356 144.833 124.473 144.194 124.473H140.764V116.291H142.021V123.301H144.194C144.691 123.301 145.1 123.169 145.419 122.907C145.739 122.644 145.899 122.307 145.899 121.895C145.899 121.461 145.739 121.108 145.419 120.835C145.1 120.561 144.691 120.424 144.194 120.424H141.85V119.253ZM152.393 124.643C151.655 124.643 151.007 124.467 150.449 124.116C149.895 123.764 149.462 123.272 149.149 122.64C148.84 122.008 148.686 121.27 148.686 120.424C148.686 119.572 148.84 118.828 149.149 118.193C149.462 117.557 149.895 117.063 150.449 116.712C151.007 116.36 151.655 116.184 152.393 116.184C153.132 116.184 153.778 116.36 154.332 116.712C154.89 117.063 155.323 117.557 155.632 118.193C155.945 118.828 156.101 119.572 156.101 120.424C156.101 121.27 155.945 122.008 155.632 122.64C155.323 123.272 154.89 123.764 154.332 124.116C153.778 124.467 153.132 124.643 152.393 124.643ZM152.393 123.514C152.954 123.514 153.416 123.37 153.778 123.082C154.141 122.795 154.409 122.417 154.583 121.948C154.757 121.479 154.844 120.971 154.844 120.424C154.844 119.878 154.757 119.368 154.583 118.896C154.409 118.423 154.141 118.042 153.778 117.75C153.416 117.459 152.954 117.314 152.393 117.314C151.832 117.314 151.371 117.459 151.008 117.75C150.646 118.042 150.378 118.423 150.204 118.896C150.03 119.368 149.943 119.878 149.943 120.424C149.943 120.971 150.03 121.479 150.204 121.948C150.378 122.417 150.646 122.795 151.008 123.082C151.371 123.37 151.832 123.514 152.393 123.514ZM163.069 116.291V117.463H159.277V124.473H158.02V116.291H163.069ZM167.804 124.643C167.065 124.643 166.417 124.467 165.859 124.116C165.305 123.764 164.872 123.272 164.56 122.64C164.251 122.008 164.096 121.27 164.096 120.424C164.096 119.572 164.251 118.828 164.56 118.193C164.872 117.557 165.305 117.063 165.859 116.712C166.417 116.36 167.065 116.184 167.804 116.184C168.542 116.184 169.188 116.36 169.742 116.712C170.3 117.063 170.733 117.557 171.042 118.193C171.355 118.828 171.511 119.572 171.511 120.424C171.511 121.27 171.355 122.008 171.042 122.64C170.733 123.272 170.3 123.764 169.742 124.116C169.188 124.467 168.542 124.643 167.804 124.643ZM167.804 123.514C168.365 123.514 168.826 123.37 169.188 123.082C169.551 122.795 169.819 122.417 169.993 121.948C170.167 121.479 170.254 120.971 170.254 120.424C170.254 119.878 170.167 119.368 169.993 118.896C169.819 118.423 169.551 118.042 169.188 117.75C168.826 117.459 168.365 117.314 167.804 117.314C167.242 117.314 166.781 117.459 166.419 117.75C166.056 118.042 165.788 118.423 165.614 118.896C165.44 119.368 165.353 119.878 165.353 120.424C165.353 120.971 165.44 121.479 165.614 121.948C165.788 122.417 166.056 122.795 166.419 123.082C166.781 123.37 167.242 123.514 167.804 123.514ZM172.556 126.816V123.301H173.238C173.405 123.127 173.549 122.939 173.67 122.736C173.79 122.534 173.895 122.294 173.984 122.017C174.076 121.737 174.154 121.396 174.218 120.994C174.282 120.59 174.339 120.101 174.389 119.53L174.666 116.291H179.865V123.301H181.122V126.816H179.865V124.473H173.813V126.816H172.556ZM174.666 123.301H178.607V117.463H175.838L175.624 119.53C175.536 120.385 175.426 121.133 175.294 121.772C175.163 122.411 174.953 122.921 174.666 123.301ZM188.266 119.807V120.978H183.749V119.807H188.266ZM184.047 116.291V124.473H182.79V116.291H184.047ZM189.225 116.291V124.473H187.968V116.291H189.225ZM191.521 124.473V116.291H192.778V124.473H191.521ZM192.16 114.927C191.915 114.927 191.704 114.844 191.526 114.677C191.352 114.51 191.265 114.309 191.265 114.075C191.265 113.841 191.352 113.64 191.526 113.473C191.704 113.306 191.915 113.223 192.16 113.223C192.405 113.223 192.614 113.306 192.788 113.473C192.966 113.64 193.055 113.841 193.055 114.075C193.055 114.309 192.966 114.51 192.788 114.677C192.614 114.844 192.405 114.927 192.16 114.927ZM204.221 124.473V117.441H202.048C201.558 117.441 201.172 117.555 200.892 117.782C200.611 118.01 200.471 118.322 200.471 118.72C200.471 119.111 200.597 119.418 200.849 119.641C201.105 119.865 201.455 119.977 201.898 119.977H204.54V121.149H201.898C201.344 121.149 200.867 121.051 200.466 120.856C200.064 120.661 199.755 120.382 199.539 120.02C199.322 119.654 199.214 119.221 199.214 118.72C199.214 118.216 199.327 117.782 199.555 117.42C199.782 117.058 200.107 116.779 200.529 116.584C200.956 116.389 201.462 116.291 202.048 116.291H205.414V124.473H204.221ZM198.766 124.473L201.089 120.403H202.452L200.13 124.473H198.766ZM86.277 144.816V141.301H86.9588C87.1257 141.127 87.2695 140.939 87.3903 140.736C87.511 140.534 87.6158 140.294 87.7045 140.017C87.7969 139.737 87.875 139.396 87.9389 138.994C88.0028 138.59 88.0597 138.101 88.1094 137.53L88.3864 134.291H93.5852V141.301H94.8423V144.816H93.5852V142.473H87.5341V144.816H86.277ZM88.3864 141.301H92.3281V135.463H89.5582L89.3452 137.53C89.2564 138.385 89.1463 139.133 89.0149 139.772C88.8835 140.411 88.674 140.921 88.3864 141.301ZM99.8348 142.643C99.0961 142.643 98.4481 142.467 97.8905 142.116C97.3366 141.764 96.9033 141.272 96.5908 140.64C96.2819 140.008 96.1274 139.27 96.1274 138.424C96.1274 137.572 96.2819 136.828 96.5908 136.193C96.9033 135.557 97.3366 135.063 97.8905 134.712C98.4481 134.36 99.0961 134.184 99.8348 134.184C100.573 134.184 101.22 134.36 101.774 134.712C102.331 135.063 102.764 135.557 103.073 136.193C103.386 136.828 103.542 137.572 103.542 138.424C103.542 139.27 103.386 140.008 103.073 140.64C102.764 141.272 102.331 141.764 101.774 142.116C101.22 142.467 100.573 142.643 99.8348 142.643ZM99.8348 141.514C100.396 141.514 100.858 141.37 101.22 141.082C101.582 140.795 101.85 140.417 102.024 139.948C102.198 139.479 102.285 138.971 102.285 138.424C102.285 137.878 102.198 137.368 102.024 136.896C101.85 136.423 101.582 136.042 101.22 135.75C100.858 135.459 100.396 135.314 99.8348 135.314C99.2737 135.314 98.8121 135.459 98.4498 135.75C98.0876 136.042 97.8195 136.423 97.6455 136.896C97.4715 137.368 97.3845 137.878 97.3845 138.424C97.3845 138.971 97.4715 139.479 97.6455 139.948C97.8195 140.417 98.0876 140.795 98.4498 141.082C98.8121 141.37 99.2737 141.514 99.8348 141.514ZM108.785 142.643C108.018 142.643 107.357 142.462 106.803 142.1C106.249 141.738 105.823 141.239 105.525 140.603C105.227 139.967 105.078 139.241 105.078 138.424C105.078 137.593 105.23 136.86 105.536 136.224C105.845 135.585 106.274 135.086 106.825 134.728C107.379 134.365 108.025 134.184 108.764 134.184C109.339 134.184 109.857 134.291 110.319 134.504C110.781 134.717 111.159 135.015 111.454 135.399C111.748 135.782 111.931 136.23 112.002 136.741H110.745C110.649 136.368 110.436 136.038 110.106 135.75C109.779 135.459 109.339 135.314 108.785 135.314C108.295 135.314 107.865 135.441 107.496 135.697C107.13 135.949 106.844 136.306 106.638 136.768C106.436 137.226 106.335 137.764 106.335 138.382C106.335 139.014 106.434 139.564 106.633 140.033C106.835 140.502 107.119 140.866 107.485 141.125C107.855 141.384 108.288 141.514 108.785 141.514C109.112 141.514 109.408 141.457 109.675 141.343C109.941 141.23 110.166 141.066 110.351 140.853C110.536 140.64 110.667 140.385 110.745 140.086H112.002C111.931 140.569 111.756 141.004 111.475 141.391C111.198 141.775 110.83 142.08 110.372 142.308C109.918 142.531 109.389 142.643 108.785 142.643ZM118.762 142.473V135.441H116.589C116.099 135.441 115.713 135.555 115.433 135.782C115.152 136.01 115.012 136.322 115.012 136.72C115.012 137.111 115.138 137.418 115.39 137.641C115.646 137.865 115.996 137.977 116.439 137.977H119.081V139.149H116.439C115.885 139.149 115.408 139.051 115.007 138.856C114.605 138.661 114.296 138.382 114.08 138.02C113.863 137.654 113.755 137.221 113.755 136.72C113.755 136.216 113.868 135.782 114.096 135.42C114.323 135.058 114.648 134.779 115.07 134.584C115.497 134.389 116.003 134.291 116.589 134.291H119.955V142.473H118.762ZM113.307 142.473L115.63 138.403H116.993L114.671 142.473H113.307ZM127.313 134.291V135.463H123.52V142.473H122.263V134.291H127.313ZM127.735 142.473V141.301H128.033C128.278 141.301 128.482 141.253 128.646 141.157C128.809 141.058 128.94 140.885 129.04 140.64C129.143 140.392 129.221 140.047 129.274 139.607C129.331 139.163 129.372 138.598 129.397 137.913L129.546 134.291H135V142.473H133.743V135.463H130.739L130.611 138.382C130.583 139.053 130.522 139.644 130.43 140.156C130.341 140.663 130.205 141.09 130.02 141.434C129.839 141.778 129.597 142.038 129.295 142.212C128.994 142.386 128.615 142.473 128.161 142.473H127.735ZM139.714 142.664C139.196 142.664 138.725 142.567 138.303 142.372C137.88 142.173 137.545 141.887 137.296 141.514C137.048 141.137 136.923 140.683 136.923 140.15C136.923 139.682 137.016 139.302 137.2 139.01C137.385 138.716 137.632 138.485 137.941 138.318C138.25 138.151 138.591 138.027 138.963 137.945C139.34 137.86 139.718 137.792 140.098 137.743C140.595 137.679 140.998 137.631 141.307 137.599C141.62 137.563 141.847 137.505 141.989 137.423C142.135 137.341 142.207 137.199 142.207 136.997V136.954C142.207 136.429 142.064 136.02 141.776 135.729C141.492 135.438 141.06 135.292 140.482 135.292C139.881 135.292 139.411 135.424 139.07 135.686C138.729 135.949 138.489 136.23 138.351 136.528L137.158 136.102C137.371 135.605 137.655 135.218 138.01 134.941C138.369 134.66 138.759 134.465 139.182 134.355C139.608 134.241 140.027 134.184 140.439 134.184C140.702 134.184 141.004 134.216 141.344 134.28C141.689 134.341 142.021 134.467 142.341 134.658C142.664 134.85 142.932 135.14 143.145 135.527C143.358 135.914 143.464 136.432 143.464 137.082V142.473H142.207V141.365H142.143C142.058 141.542 141.916 141.732 141.717 141.935C141.518 142.137 141.254 142.309 140.924 142.451C140.593 142.593 140.19 142.664 139.714 142.664ZM139.906 141.535C140.403 141.535 140.822 141.438 141.163 141.242C141.508 141.047 141.767 140.795 141.941 140.486C142.119 140.177 142.207 139.852 142.207 139.511V138.361C142.154 138.424 142.037 138.483 141.856 138.536C141.678 138.586 141.472 138.63 141.238 138.669C141.007 138.705 140.782 138.737 140.561 138.765C140.345 138.79 140.169 138.811 140.034 138.829C139.707 138.872 139.402 138.941 139.118 139.037C138.837 139.129 138.61 139.27 138.436 139.458C138.266 139.642 138.18 139.895 138.18 140.214C138.18 140.651 138.342 140.981 138.665 141.205C138.992 141.425 139.406 141.535 139.906 141.535ZM153.302 142.643C152.535 142.643 151.874 142.462 151.32 142.1C150.766 141.738 150.34 141.239 150.042 140.603C149.743 139.967 149.594 139.241 149.594 138.424C149.594 137.593 149.747 136.86 150.052 136.224C150.361 135.585 150.791 135.086 151.341 134.728C151.895 134.365 152.542 134.184 153.28 134.184C153.856 134.184 154.374 134.291 154.836 134.504C155.297 134.717 155.676 135.015 155.97 135.399C156.265 135.782 156.448 136.23 156.519 136.741H155.262C155.166 136.368 154.953 136.038 154.623 135.75C154.296 135.459 153.856 135.314 153.302 135.314C152.812 135.314 152.382 135.441 152.013 135.697C151.647 135.949 151.361 136.306 151.155 136.768C150.953 137.226 150.851 137.764 150.851 138.382C150.851 139.014 150.951 139.564 151.15 140.033C151.352 140.502 151.636 140.866 152.002 141.125C152.371 141.384 152.804 141.514 153.302 141.514C153.628 141.514 153.925 141.457 154.191 141.343C154.457 141.23 154.683 141.066 154.868 140.853C155.052 140.64 155.184 140.385 155.262 140.086H156.519C156.448 140.569 156.272 141.004 155.992 141.391C155.715 141.775 155.347 142.08 154.889 142.308C154.434 142.531 153.905 142.643 153.302 142.643ZM158.357 142.473V134.291H161.702C162.582 134.291 163.282 134.49 163.801 134.887C164.319 135.285 164.578 135.811 164.578 136.464C164.578 136.961 164.431 137.347 164.136 137.62C163.841 137.89 163.463 138.073 163.002 138.169C163.303 138.211 163.596 138.318 163.88 138.488C164.168 138.659 164.406 138.893 164.594 139.191C164.782 139.486 164.877 139.848 164.877 140.278C164.877 140.697 164.77 141.072 164.557 141.402C164.344 141.732 164.038 141.993 163.641 142.185C163.243 142.377 162.767 142.473 162.213 142.473H158.357ZM159.55 141.322H162.213C162.646 141.322 162.986 141.219 163.231 141.013C163.476 140.807 163.598 140.527 163.598 140.172C163.598 139.749 163.476 139.417 163.231 139.175C162.986 138.93 162.646 138.808 162.213 138.808H159.55V141.322ZM159.55 137.721H161.702C162.039 137.721 162.329 137.675 162.57 137.583C162.812 137.487 162.996 137.352 163.124 137.178C163.255 137 163.321 136.791 163.321 136.549C163.321 136.205 163.177 135.935 162.89 135.74C162.602 135.541 162.206 135.441 161.702 135.441H159.55V137.721ZM170.103 142.643C169.365 142.643 168.717 142.467 168.159 142.116C167.605 141.764 167.172 141.272 166.859 140.64C166.55 140.008 166.396 139.27 166.396 138.424C166.396 137.572 166.55 136.828 166.859 136.193C167.172 135.557 167.605 135.063 168.159 134.712C168.717 134.36 169.365 134.184 170.103 134.184C170.842 134.184 171.488 134.36 172.042 134.712C172.6 135.063 173.033 135.557 173.342 136.193C173.654 136.828 173.811 137.572 173.811 138.424C173.811 139.27 173.654 140.008 173.342 140.64C173.033 141.272 172.6 141.764 172.042 142.116C171.488 142.467 170.842 142.643 170.103 142.643ZM170.103 141.514C170.664 141.514 171.126 141.37 171.488 141.082C171.85 140.795 172.119 140.417 172.293 139.948C172.467 139.479 172.554 138.971 172.554 138.424C172.554 137.878 172.467 137.368 172.293 136.896C172.119 136.423 171.85 136.042 171.488 135.75C171.126 135.459 170.664 135.314 170.103 135.314C169.542 135.314 169.081 135.459 168.718 135.75C168.356 136.042 168.088 136.423 167.914 136.896C167.74 137.368 167.653 137.878 167.653 138.424C167.653 138.971 167.74 139.479 167.914 139.948C168.088 140.417 168.356 140.795 168.718 141.082C169.081 141.37 169.542 141.514 170.103 141.514ZM179.054 137.934V139.106H175.027V137.934H179.054ZM181.738 136.741H180.481C180.385 136.368 180.172 136.038 179.842 135.75C179.515 135.459 179.075 135.314 178.521 135.314C178.031 135.314 177.601 135.441 177.232 135.697C176.866 135.949 176.58 136.306 176.374 136.768C176.172 137.226 176.071 137.764 176.071 138.382C176.071 139.014 176.17 139.564 176.369 140.033C176.571 140.502 176.855 140.866 177.221 141.125C177.59 141.384 178.024 141.514 178.521 141.514C178.848 141.514 179.144 141.457 179.41 141.343C179.677 141.23 179.902 141.066 180.087 140.853C180.272 140.64 180.403 140.385 180.481 140.086H181.738C181.667 140.569 181.491 141.004 181.211 141.391C180.934 141.775 180.566 142.08 180.108 142.308C179.654 142.531 179.125 142.643 178.521 142.643C177.761 142.643 177.104 142.464 176.55 142.105C175.996 141.743 175.568 141.242 175.266 140.603C174.964 139.96 174.813 139.22 174.813 138.382C174.813 137.565 174.966 136.841 175.272 136.209C175.581 135.576 176.01 135.081 176.561 134.722C177.115 134.364 177.761 134.184 178.5 134.184C179.075 134.184 179.593 134.291 180.055 134.504C180.517 134.717 180.895 135.015 181.19 135.399C181.484 135.782 181.667 136.23 181.738 136.741ZM183.83 142.473V134.291H185.087V142.473H183.83ZM182.935 132.927C182.712 132.927 182.515 132.842 182.344 132.672C182.17 132.498 182.083 132.299 182.083 132.075C182.083 131.83 182.17 131.628 182.344 131.468C182.515 131.304 182.712 131.223 182.935 131.223C183.18 131.223 183.383 131.304 183.543 131.468C183.706 131.628 183.788 131.83 183.788 132.075C183.788 132.299 183.706 132.498 183.543 132.672C183.383 132.842 183.18 132.927 182.935 132.927ZM186.004 132.927C185.78 132.927 185.581 132.842 185.407 132.672C185.237 132.498 185.151 132.299 185.151 132.075C185.151 131.83 185.237 131.628 185.407 131.468C185.581 131.304 185.78 131.223 186.004 131.223C186.249 131.223 186.451 131.304 186.611 131.468C186.774 131.628 186.856 131.83 186.856 132.075C186.856 132.299 186.774 132.498 186.611 132.672C186.451 132.842 186.249 132.927 186.004 132.927ZM91.625 158.768L94.4801 152.291H95.6733L92.1364 160.473H91.1136L87.6406 152.291H88.8125L91.625 158.768ZM88.4077 152.291V160.473H87.1506V152.291H88.4077ZM94.8423 160.473V152.291H96.0994V160.473H94.8423ZM100.808 160.664C100.29 160.664 99.8192 160.567 99.3967 160.372C98.9741 160.173 98.6385 159.887 98.3899 159.514C98.1413 159.137 98.017 158.683 98.017 158.15C98.017 157.682 98.1094 157.302 98.294 157.01C98.4787 156.716 98.7255 156.485 99.0344 156.318C99.3434 156.151 99.6843 156.027 100.057 155.945C100.434 155.86 100.812 155.792 101.192 155.743C101.689 155.679 102.092 155.631 102.401 155.599C102.713 155.563 102.941 155.505 103.083 155.423C103.228 155.341 103.301 155.199 103.301 154.997V154.954C103.301 154.429 103.157 154.02 102.87 153.729C102.586 153.438 102.154 153.292 101.575 153.292C100.975 153.292 100.505 153.424 100.164 153.686C99.8228 153.949 99.5831 154.23 99.4446 154.528L98.2514 154.102C98.4645 153.605 98.7486 153.218 99.1037 152.941C99.4624 152.66 99.853 152.465 100.276 152.355C100.702 152.241 101.121 152.184 101.533 152.184C101.795 152.184 102.097 152.216 102.438 152.28C102.783 152.341 103.115 152.467 103.434 152.658C103.757 152.85 104.026 153.14 104.239 153.527C104.452 153.914 104.558 154.432 104.558 155.082V160.473H103.301V159.365H103.237C103.152 159.542 103.01 159.732 102.811 159.935C102.612 160.137 102.348 160.309 102.017 160.451C101.687 160.593 101.284 160.664 100.808 160.664ZM101 159.535C101.497 159.535 101.916 159.438 102.257 159.242C102.602 159.047 102.861 158.795 103.035 158.486C103.212 158.177 103.301 157.852 103.301 157.511V156.361C103.248 156.424 103.131 156.483 102.95 156.536C102.772 156.586 102.566 156.63 102.332 156.669C102.101 156.705 101.875 156.737 101.655 156.765C101.439 156.79 101.263 156.811 101.128 156.829C100.801 156.872 100.496 156.941 100.212 157.037C99.9311 157.129 99.7038 157.27 99.5298 157.458C99.3594 157.642 99.2741 157.895 99.2741 158.214C99.2741 158.651 99.4357 158.981 99.7589 159.205C100.086 159.425 100.499 159.535 101 159.535ZM106.128 160.473V159.301H106.427C106.672 159.301 106.876 159.253 107.039 159.157C107.203 159.058 107.334 158.885 107.433 158.64C107.536 158.392 107.614 158.047 107.668 157.607C107.725 157.163 107.765 156.598 107.79 155.913L107.939 152.291H113.394V160.473H112.137V153.463H109.133L109.005 156.382C108.976 157.053 108.916 157.644 108.824 158.156C108.735 158.663 108.598 159.09 108.413 159.434C108.232 159.778 107.991 160.038 107.689 160.212C107.387 160.386 107.009 160.473 106.554 160.473H106.128ZM119.131 160.643C118.342 160.643 117.662 160.469 117.091 160.121C116.522 159.77 116.084 159.28 115.775 158.651C115.47 158.019 115.317 157.284 115.317 156.446C115.317 155.608 115.47 154.869 115.775 154.23C116.084 153.587 116.514 153.086 117.064 152.728C117.618 152.365 118.264 152.184 119.003 152.184C119.429 152.184 119.85 152.255 120.265 152.397C120.681 152.539 121.059 152.77 121.4 153.09C121.741 153.406 122.013 153.825 122.215 154.347C122.417 154.869 122.519 155.512 122.519 156.275V156.808H116.212V155.721H121.24C121.24 155.26 121.148 154.848 120.963 154.486C120.782 154.123 120.523 153.837 120.185 153.628C119.852 153.418 119.457 153.314 119.003 153.314C118.502 153.314 118.069 153.438 117.703 153.686C117.341 153.932 117.062 154.251 116.867 154.645C116.672 155.039 116.574 155.462 116.574 155.913V156.637C116.574 157.255 116.68 157.779 116.894 158.209C117.11 158.635 117.41 158.96 117.794 159.184C118.177 159.404 118.623 159.514 119.131 159.514C119.461 159.514 119.759 159.468 120.026 159.375C120.296 159.28 120.528 159.137 120.723 158.949C120.919 158.758 121.07 158.52 121.176 158.236L122.391 158.576C122.263 158.988 122.048 159.351 121.746 159.663C121.444 159.972 121.071 160.213 120.628 160.387C120.184 160.558 119.685 160.643 119.131 160.643ZM129.907 155.807V156.978H125.39V155.807H129.907ZM125.688 152.291V160.473H124.431V152.291H125.688ZM130.866 152.291V160.473H129.608V152.291H130.866ZM134.248 155.253H136.592C137.551 155.253 138.284 155.496 138.792 155.982C139.299 156.469 139.553 157.085 139.553 157.831C139.553 158.321 139.44 158.766 139.212 159.168C138.985 159.565 138.651 159.883 138.211 160.121C137.771 160.356 137.231 160.473 136.592 160.473H133.161V152.291H134.418V159.301H136.592C137.089 159.301 137.497 159.169 137.817 158.907C138.136 158.644 138.296 158.307 138.296 157.895C138.296 157.461 138.136 157.108 137.817 156.835C137.497 156.561 137.089 156.424 136.592 156.424H134.248V155.253ZM141.467 160.473V152.291H142.724V155.849H143.555L146.495 152.291H148.115L144.812 156.233L148.157 160.473H146.538L143.853 157.021H142.724V160.473H141.467ZM152.511 160.643C151.772 160.643 151.124 160.467 150.566 160.116C150.012 159.764 149.579 159.272 149.267 158.64C148.958 158.008 148.803 157.27 148.803 156.424C148.803 155.572 148.958 154.828 149.267 154.193C149.579 153.557 150.012 153.063 150.566 152.712C151.124 152.36 151.772 152.184 152.511 152.184C153.249 152.184 153.896 152.36 154.449 152.712C155.007 153.063 155.44 153.557 155.749 154.193C156.062 154.828 156.218 155.572 156.218 156.424C156.218 157.27 156.062 158.008 155.749 158.64C155.44 159.272 155.007 159.764 154.449 160.116C153.896 160.467 153.249 160.643 152.511 160.643ZM152.511 159.514C153.072 159.514 153.533 159.37 153.896 159.082C154.258 158.795 154.526 158.417 154.7 157.948C154.874 157.479 154.961 156.971 154.961 156.424C154.961 155.878 154.874 155.368 154.7 154.896C154.526 154.423 154.258 154.042 153.896 153.75C153.533 153.459 153.072 153.314 152.511 153.314C151.949 153.314 151.488 153.459 151.126 153.75C150.763 154.042 150.495 154.423 150.321 154.896C150.147 155.368 150.06 155.878 150.06 156.424C150.06 156.971 150.147 157.479 150.321 157.948C150.495 158.417 150.763 158.795 151.126 159.082C151.488 159.37 151.949 159.514 152.511 159.514ZM158.137 160.473V152.291H159.394V160.473H158.137ZM157.242 150.927C157.018 150.927 156.821 150.842 156.651 150.672C156.477 150.498 156.39 150.299 156.39 150.075C156.39 149.83 156.477 149.628 156.651 149.468C156.821 149.304 157.018 149.223 157.242 149.223C157.487 149.223 157.689 149.304 157.849 149.468C158.013 149.628 158.094 149.83 158.094 150.075C158.094 150.299 158.013 150.498 157.849 150.672C157.689 150.842 157.487 150.927 157.242 150.927ZM160.31 150.927C160.086 150.927 159.888 150.842 159.714 150.672C159.543 150.498 159.458 150.299 159.458 150.075C159.458 149.83 159.543 149.628 159.714 149.468C159.888 149.304 160.086 149.223 160.31 149.223C160.555 149.223 160.758 149.304 160.917 149.468C161.081 149.628 161.162 149.83 161.162 150.075C161.162 150.299 161.081 150.498 160.917 150.672C160.758 150.842 160.555 150.927 160.31 150.927ZM172.35 152.291V159.301H173.5V163.115H172.243V160.473H165.915V152.291H167.172V159.301H171.093V152.291H172.35ZM175.437 160.473V152.291H176.694V160.473H175.437ZM176.076 150.927C175.831 150.927 175.62 150.844 175.442 150.677C175.268 150.51 175.181 150.309 175.181 150.075C175.181 149.841 175.268 149.64 175.442 149.473C175.62 149.306 175.831 149.223 176.076 149.223C176.321 149.223 176.53 149.306 176.704 149.473C176.882 149.64 176.971 149.841 176.971 150.075C176.971 150.309 176.882 150.51 176.704 150.677C176.53 150.844 176.321 150.927 176.076 150.927ZM178.272 160.473V159.301H178.57C178.815 159.301 179.019 159.253 179.183 159.157C179.346 159.058 179.477 158.885 179.577 158.64C179.68 158.392 179.758 158.047 179.811 157.607C179.868 157.163 179.909 156.598 179.934 155.913L180.083 152.291H185.537V160.473H184.28V153.463H181.276L181.148 156.382C181.12 157.053 181.059 157.644 180.967 158.156C180.878 158.663 180.742 159.09 180.557 159.434C180.376 159.778 180.134 160.038 179.833 160.212C179.531 160.386 179.153 160.473 178.698 160.473H178.272ZM187.844 160.473V152.291H189.101V160.473H187.844ZM188.483 150.927C188.238 150.927 188.027 150.844 187.849 150.677C187.675 150.51 187.588 150.309 187.588 150.075C187.588 149.841 187.675 149.64 187.849 149.473C188.027 149.306 188.238 149.223 188.483 149.223C188.728 149.223 188.938 149.306 189.112 149.473C189.289 149.64 189.378 149.841 189.378 150.075C189.378 150.309 189.289 150.51 189.112 150.677C188.938 150.844 188.728 150.927 188.483 150.927ZM200.31 155.21V156.382H195.537V155.21H200.31ZM86.277 180.816V177.301H86.9588C87.1257 177.127 87.2695 176.939 87.3903 176.736C87.511 176.534 87.6158 176.294 87.7045 176.017C87.7969 175.737 87.875 175.396 87.9389 174.994C88.0028 174.59 88.0597 174.101 88.1094 173.53L88.3864 170.291H93.5852V177.301H94.8423V180.816H93.5852V178.473H87.5341V180.816H86.277ZM88.3864 177.301H92.3281V171.463H89.5582L89.3452 173.53C89.2564 174.385 89.1463 175.133 89.0149 175.772C88.8835 176.411 88.674 176.921 88.3864 177.301ZM99.8348 178.643C99.0961 178.643 98.4481 178.467 97.8905 178.116C97.3366 177.764 96.9033 177.272 96.5908 176.64C96.2819 176.008 96.1274 175.27 96.1274 174.424C96.1274 173.572 96.2819 172.828 96.5908 172.193C96.9033 171.557 97.3366 171.063 97.8905 170.712C98.4481 170.36 99.0961 170.184 99.8348 170.184C100.573 170.184 101.22 170.36 101.774 170.712C102.331 171.063 102.764 171.557 103.073 172.193C103.386 172.828 103.542 173.572 103.542 174.424C103.542 175.27 103.386 176.008 103.073 176.64C102.764 177.272 102.331 177.764 101.774 178.116C101.22 178.467 100.573 178.643 99.8348 178.643ZM99.8348 177.514C100.396 177.514 100.858 177.37 101.22 177.082C101.582 176.795 101.85 176.417 102.024 175.948C102.198 175.479 102.285 174.971 102.285 174.424C102.285 173.878 102.198 173.368 102.024 172.896C101.85 172.423 101.582 172.042 101.22 171.75C100.858 171.459 100.396 171.314 99.8348 171.314C99.2737 171.314 98.8121 171.459 98.4498 171.75C98.0876 172.042 97.8195 172.423 97.6455 172.896C97.4715 173.368 97.3845 173.878 97.3845 174.424C97.3845 174.971 97.4715 175.479 97.6455 175.948C97.8195 176.417 98.0876 176.795 98.4498 177.082C98.8121 177.37 99.2737 177.514 99.8348 177.514ZM104.737 178.473V177.301H105.035C105.28 177.301 105.484 177.253 105.648 177.157C105.811 177.058 105.942 176.885 106.042 176.64C106.145 176.392 106.223 176.047 106.276 175.607C106.333 175.163 106.374 174.598 106.399 173.913L106.548 170.291H112.002V178.473H110.745V171.463H107.741L107.613 174.382C107.585 175.053 107.524 175.644 107.432 176.156C107.343 176.663 107.206 177.09 107.022 177.434C106.841 177.778 106.599 178.038 106.297 178.212C105.996 178.386 105.617 178.473 105.163 178.473H104.737ZM117.739 178.643C116.951 178.643 116.271 178.469 115.699 178.121C115.131 177.77 114.692 177.28 114.383 176.651C114.078 176.019 113.925 175.284 113.925 174.446C113.925 173.608 114.078 172.869 114.383 172.23C114.692 171.587 115.122 171.086 115.672 170.728C116.226 170.365 116.873 170.184 117.611 170.184C118.037 170.184 118.458 170.255 118.874 170.397C119.289 170.539 119.667 170.77 120.008 171.09C120.349 171.406 120.621 171.825 120.823 172.347C121.026 172.869 121.127 173.512 121.127 174.275V174.808H114.82V173.721H119.849C119.849 173.26 119.756 172.848 119.572 172.486C119.39 172.123 119.131 171.837 118.794 171.628C118.46 171.418 118.066 171.314 117.611 171.314C117.111 171.314 116.677 171.438 116.312 171.686C115.949 171.932 115.671 172.251 115.475 172.645C115.28 173.039 115.182 173.462 115.182 173.913V174.637C115.182 175.255 115.289 175.779 115.502 176.209C115.719 176.635 116.019 176.96 116.402 177.184C116.786 177.404 117.231 177.514 117.739 177.514C118.069 177.514 118.368 177.468 118.634 177.375C118.904 177.28 119.137 177.137 119.332 176.949C119.527 176.758 119.678 176.52 119.785 176.236L120.999 176.576C120.871 176.988 120.656 177.351 120.355 177.663C120.053 177.972 119.68 178.213 119.236 178.387C118.792 178.558 118.293 178.643 117.739 178.643ZM122.278 171.463V170.291H128.925V171.463H126.241V178.473H124.983V171.463H122.278ZM130.759 178.473V170.291H132.016V178.473H130.759ZM131.398 168.927C131.153 168.927 130.942 168.844 130.764 168.677C130.59 168.51 130.503 168.309 130.503 168.075C130.503 167.841 130.59 167.64 130.764 167.473C130.942 167.306 131.153 167.223 131.398 167.223C131.643 167.223 131.853 167.306 132.027 167.473C132.204 167.64 132.293 167.841 132.293 168.075C132.293 168.309 132.204 168.51 132.027 168.677C131.853 168.844 131.643 168.927 131.398 168.927ZM133.594 178.473V177.301H133.892C134.137 177.301 134.342 177.253 134.505 177.157C134.668 177.058 134.8 176.885 134.899 176.64C135.002 176.392 135.08 176.047 135.134 175.607C135.19 175.163 135.231 174.598 135.256 173.913L135.405 170.291H140.86V178.473H139.603V171.463H136.598L136.471 174.382C136.442 175.053 136.382 175.644 136.289 176.156C136.201 176.663 136.064 177.09 135.879 177.434C135.698 177.778 135.457 178.038 135.155 178.212C134.853 178.386 134.475 178.473 134.02 178.473H133.594ZM145.574 178.664C145.055 178.664 144.585 178.567 144.162 178.372C143.74 178.173 143.404 177.887 143.156 177.514C142.907 177.137 142.783 176.683 142.783 176.15C142.783 175.682 142.875 175.302 143.06 175.01C143.244 174.716 143.491 174.485 143.8 174.318C144.109 174.151 144.45 174.027 144.823 173.945C145.199 173.86 145.577 173.792 145.957 173.743C146.455 173.679 146.858 173.631 147.167 173.599C147.479 173.563 147.706 173.505 147.848 173.423C147.994 173.341 148.067 173.199 148.067 172.997V172.954C148.067 172.429 147.923 172.02 147.635 171.729C147.351 171.438 146.92 171.292 146.341 171.292C145.741 171.292 145.27 171.424 144.929 171.686C144.588 171.949 144.349 172.23 144.21 172.528L143.017 172.102C143.23 171.605 143.514 171.218 143.869 170.941C144.228 170.66 144.619 170.465 145.041 170.355C145.467 170.241 145.886 170.184 146.298 170.184C146.561 170.184 146.863 170.216 147.204 170.28C147.548 170.341 147.88 170.467 148.2 170.658C148.523 170.85 148.791 171.14 149.004 171.527C149.217 171.914 149.324 172.432 149.324 173.082V178.473H148.067V177.365H148.003C147.918 177.542 147.776 177.732 147.577 177.935C147.378 178.137 147.113 178.309 146.783 178.451C146.453 178.593 146.05 178.664 145.574 178.664ZM145.766 177.535C146.263 177.535 146.682 177.438 147.023 177.242C147.367 177.047 147.626 176.795 147.8 176.486C147.978 176.177 148.067 175.852 148.067 175.511V174.361C148.013 174.424 147.896 174.483 147.715 174.536C147.538 174.586 147.332 174.63 147.097 174.669C146.866 174.705 146.641 174.737 146.421 174.765C146.204 174.79 146.028 174.811 145.893 174.829C145.567 174.872 145.261 174.941 144.977 175.037C144.697 175.129 144.469 175.27 144.295 175.458C144.125 175.642 144.04 175.895 144.04 176.214C144.04 176.651 144.201 176.981 144.525 177.205C144.851 177.425 145.265 177.535 145.766 177.535ZM154.964 180.816V177.301H155.645C155.812 177.127 155.956 176.939 156.077 176.736C156.198 176.534 156.302 176.294 156.391 176.017C156.483 175.737 156.562 175.396 156.625 174.994C156.689 174.59 156.746 174.101 156.796 173.53L157.073 170.291H162.272V177.301H163.529V180.816H162.272V178.473H156.221V180.816H154.964ZM157.073 177.301H161.015V171.463H158.245L158.032 173.53C157.943 174.385 157.833 175.133 157.701 175.772C157.57 176.411 157.361 176.921 157.073 177.301ZM168.521 178.643C167.783 178.643 167.135 178.467 166.577 178.116C166.023 177.764 165.59 177.272 165.277 176.64C164.968 176.008 164.814 175.27 164.814 174.424C164.814 173.572 164.968 172.828 165.277 172.193C165.59 171.557 166.023 171.063 166.577 170.712C167.135 170.36 167.783 170.184 168.521 170.184C169.26 170.184 169.906 170.36 170.46 170.712C171.018 171.063 171.451 171.557 171.76 172.193C172.072 172.828 172.229 173.572 172.229 174.424C172.229 175.27 172.072 176.008 171.76 176.64C171.451 177.272 171.018 177.764 170.46 178.116C169.906 178.467 169.26 178.643 168.521 178.643ZM168.521 177.514C169.082 177.514 169.544 177.37 169.906 177.082C170.268 176.795 170.537 176.417 170.711 175.948C170.885 175.479 170.972 174.971 170.972 174.424C170.972 173.878 170.885 173.368 170.711 172.896C170.537 172.423 170.268 172.042 169.906 171.75C169.544 171.459 169.082 171.314 168.521 171.314C167.96 171.314 167.499 171.459 167.136 171.75C166.774 172.042 166.506 172.423 166.332 172.896C166.158 173.368 166.071 173.878 166.071 174.424C166.071 174.971 166.158 175.479 166.332 175.948C166.506 176.417 166.774 176.795 167.136 177.082C167.499 177.37 167.96 177.514 168.521 177.514ZM178.537 167.564H180.114L183.821 176.619H183.949L187.656 167.564H189.233V178.473H187.997V170.184H187.891L184.481 178.473H183.288L179.879 170.184H179.773V178.473H178.537V167.564ZM191.711 178.473V170.291H192.968V178.473H191.711ZM192.35 168.927C192.105 168.927 191.894 168.844 191.716 168.677C191.542 168.51 191.455 168.309 191.455 168.075C191.455 167.841 191.542 167.64 191.716 167.473C191.894 167.306 192.105 167.223 192.35 167.223C192.595 167.223 192.805 167.306 192.979 167.473C193.156 167.64 193.245 167.841 193.245 168.075C193.245 168.309 193.156 168.51 192.979 168.677C192.805 168.844 192.595 168.927 192.35 168.927ZM198.595 178.643C197.828 178.643 197.167 178.462 196.613 178.1C196.059 177.738 195.633 177.239 195.335 176.603C195.036 175.967 194.887 175.241 194.887 174.424C194.887 173.593 195.04 172.86 195.345 172.224C195.654 171.585 196.084 171.086 196.634 170.728C197.188 170.365 197.835 170.184 198.573 170.184C199.149 170.184 199.667 170.291 200.129 170.504C200.59 170.717 200.968 171.015 201.263 171.399C201.558 171.782 201.741 172.23 201.812 172.741H200.555C200.459 172.368 200.246 172.038 199.916 171.75C199.589 171.459 199.149 171.314 198.595 171.314C198.104 171.314 197.675 171.441 197.305 171.697C196.94 171.949 196.654 172.306 196.448 172.768C196.245 173.226 196.144 173.764 196.144 174.382C196.144 175.014 196.244 175.564 196.443 176.033C196.645 176.502 196.929 176.866 197.295 177.125C197.664 177.384 198.097 177.514 198.595 177.514C198.921 177.514 199.218 177.457 199.484 177.343C199.75 177.23 199.976 177.066 200.161 176.853C200.345 176.64 200.477 176.385 200.555 176.086H201.812C201.741 176.569 201.565 177.004 201.285 177.391C201.008 177.775 200.64 178.08 200.182 178.308C199.727 178.531 199.198 178.643 198.595 178.643ZM208.571 178.473V171.441H206.398C205.908 171.441 205.523 171.555 205.242 171.782C204.962 172.01 204.821 172.322 204.821 172.72C204.821 173.111 204.948 173.418 205.2 173.641C205.455 173.865 205.805 173.977 206.249 173.977H208.891V175.149H206.249C205.695 175.149 205.217 175.051 204.816 174.856C204.415 174.661 204.106 174.382 203.889 174.02C203.673 173.654 203.564 173.221 203.564 172.72C203.564 172.216 203.678 171.782 203.905 171.42C204.133 171.058 204.457 170.779 204.88 170.584C205.306 170.389 205.812 170.291 206.398 170.291H209.765V178.473H208.571ZM203.117 178.473L205.439 174.403H206.803L204.481 178.473H203.117ZM218.507 170.291V177.301H219.658V181.115H218.401V178.473H212.072V170.291H213.33V177.301H217.25V170.291H218.507ZM226.369 178.473V171.441H224.196C223.706 171.441 223.321 171.555 223.04 171.782C222.76 172.01 222.619 172.322 222.619 172.72C222.619 173.111 222.745 173.418 222.998 173.641C223.253 173.865 223.603 173.977 224.047 173.977H226.689V175.149H224.047C223.493 175.149 223.015 175.051 222.614 174.856C222.213 174.661 221.904 174.382 221.687 174.02C221.471 173.654 221.362 173.221 221.362 172.72C221.362 172.216 221.476 171.782 221.703 171.42C221.93 171.058 222.255 170.779 222.678 170.584C223.104 170.389 223.61 170.291 224.196 170.291H227.562V178.473H226.369ZM220.915 178.473L223.237 174.403H224.601L222.278 178.473H220.915Z" fill="white"/>
</svg>
