<svg width="442" height="442" viewBox="0 0 442 442" fill="none" xmlns="http://www.w3.org/2000/svg">
<path d="M218 128C206 138.4 203 148.667 203 152.5L206.5 169.5" stroke="#F6A594" stroke-width="12"/>
<path d="M231.736 105.459L230.774 120.455L219.324 121.764L234.399 137.307L254.313 122.42L244.725 120.595L244.207 100.398L231.736 105.459Z" fill="url(#paint0_linear_112_154)"/>
<path d="M233.751 69.2787C233.751 69.2787 217.058 71.3367 215.946 91.1505C214.833 110.964 229.554 114.561 238.684 112.163C247.814 109.764 253.079 99.1981 253.815 93.2651C254.555 87.3317 248.956 68.1606 233.747 69.283L233.751 69.2787Z" fill="url(#paint1_linear_112_154)"/>
<path d="M226.529 120.908C226.529 120.908 220.612 120.166 216.193 122.223C211.774 124.279 208.979 139.539 207.859 145.906C206.739 152.274 213.472 166.292 213.472 166.292C213.472 166.292 247.02 170.483 260.515 162.206L261.055 142.99C261.055 142.99 257.389 127.005 256.168 121.675L250.356 120.924C250.356 120.924 229.23 132.792 226.525 120.904L226.529 120.908Z" fill="#951A22"/>
<path d="M229.218 97.8997C229.218 97.8997 229.268 98.0662 229.896 98.111C230.524 98.1558 231.094 98.7262 232.158 98.7609C233.222 98.7956 233.776 98.2667 234.403 98.2639C235.031 98.261 235.144 98.1002 235.144 98.1002C235.252 97.6934 235.205 97.2922 235.099 96.9438L235.098 96.9319C234.91 96.3244 234.555 95.8904 234.555 95.8904C233.085 95.116 231.479 95.0648 229.956 95.7375C229.956 95.7375 229.709 96.0014 229.494 96.4095L229.494 96.4134C229.286 96.809 229.11 97.3409 229.222 97.9033L229.218 97.8997Z" fill="url(#paint2_linear_112_154)"/>
<path d="M230.631 98.3372C230.631 98.3372 230.16 97.9053 229.558 98.0649L230.631 98.3372Z" fill="#812852"/>
<path d="M234.727 98.2397C234.727 98.2397 234.121 98.038 233.498 98.5015L234.727 98.2397Z" fill="#812852"/>
<g style="mix-blend-mode:multiply" opacity="0.6">
<path d="M229.218 97.8997C229.218 97.8997 229.268 98.0662 229.896 98.1111C230.523 98.1559 231.094 98.7262 232.158 98.761C233.221 98.7957 233.776 98.2668 234.403 98.2639C235.031 98.261 235.144 98.1002 235.144 98.1002C235.252 97.6935 235.205 97.2922 235.099 96.9438C235.12 97.0453 235.228 97.6995 234.975 97.8487C234.695 98.012 233.156 97.8596 232.184 97.8249C231.215 97.7938 229.565 97.7384 229.388 97.4757C229.219 97.2241 229.464 96.4796 229.49 96.4138C229.282 96.8094 229.106 97.3412 229.218 97.9037L229.218 97.8997Z" fill="#C978B1"/>
</g>
<path style="mix-blend-mode:multiply" opacity="0.6" d="M229.955 95.7336C229.955 95.7336 230.264 96.8154 230.198 97.5642C230.198 97.5642 230.481 96.8403 230.178 95.6427L229.956 95.7375L229.955 95.7336Z" fill="url(#paint3_linear_112_154)"/>
<path style="mix-blend-mode:multiply" opacity="0.6" d="M234.499 95.8873C234.499 95.8873 234.118 96.9456 234.131 97.6954C234.131 97.6954 233.9 96.9565 234.279 95.7792L234.495 95.8876L234.499 95.8873Z" fill="url(#paint4_linear_112_154)"/>
<g style="mix-blend-mode:multiply" opacity="0.6">
<path d="M234.979 97.8444C234.979 97.8444 235.12 98.0109 235.147 98.0959C235.175 98.181 233.721 99.4636 232.134 99.4107C230.548 99.3577 229.244 98.0604 229.218 97.8997C229.195 97.7348 229.461 97.5409 229.461 97.5409C229.461 97.5409 230.693 97.7755 232.187 97.8246C233.682 97.8736 234.979 97.8483 234.979 97.8483L234.979 97.8444Z" fill="#C978B1"/>
</g>
<path d="M230.936 97.4166C231.164 97.2975 230.781 96.9096 230.675 96.9228C230.568 96.932 230.502 97.1722 230.555 97.3266C230.608 97.4809 230.841 97.4646 230.936 97.4127L230.936 97.4166Z" fill="#FBC9B8"/>
<path d="M257.552 96.1581C257.401 96.5765 257.251 96.9472 257.097 97.2785L257.086 97.2953C255.98 99.6524 254.737 100.07 254.116 101.118C253.579 102.023 251.721 103.73 250.431 101.505L250.426 101.498C250.426 101.498 252.313 93.4422 253.121 92.0409C253.121 92.0409 254.297 89.936 255.904 89.8163C257.969 89.6647 258.865 92.4757 257.552 96.1581V96.1581Z" fill="url(#paint5_linear_112_154)"/>
<path style="mix-blend-mode:multiply" opacity="0.6" d="M251.678 96.5095C251.678 96.5095 255.449 92.395 256.991 92.3048C258.532 92.2146 257.242 95.9745 256.762 97.2202C256.282 98.4659 255.723 99.1622 255.723 99.1622C255.723 99.1622 256.315 97.6961 256.558 96.4749C256.911 94.7237 256.562 93.1288 255.911 93.1854C255.26 93.2419 254.104 95.3451 254.014 95.5913C253.924 95.8375 254.33 96.3545 254.111 97.7206C253.893 99.0907 253.028 100.485 252.677 100.42C252.325 100.351 252.632 99.2637 252.811 97.9806C252.989 96.6975 251.954 96.8073 251.397 97.5789L251.678 96.5095Z" fill="url(#paint6_linear_112_154)"/>
<path style="mix-blend-mode:multiply" opacity="0.6" d="M251.397 97.5749C251.397 97.5749 252.373 96.4688 252.781 97.0891C253.188 97.7093 252.626 99.1966 252.969 99.4331C253.315 99.6693 253.984 98.4946 254.047 97.3486C254.11 96.1988 253.802 95.1169 253.135 95.2185L251.681 96.5051L251.401 97.5746L251.397 97.5749Z" fill="url(#paint7_linear_112_154)"/>
<path style="mix-blend-mode:multiply" d="M257.086 97.2913C255.979 99.6484 254.736 100.066 254.116 101.114C253.579 102.019 251.72 103.726 250.43 101.501C250.514 101.593 251.32 102.457 252.287 102.25C253.309 102.03 253.747 101.166 254.255 100.521C254.759 99.8736 255.883 99.5416 257.086 97.2913Z" fill="url(#paint8_linear_112_154)"/>
<path d="M232.844 66.7985C232.844 66.7985 233.762 62.5902 232.103 60.4176C230.493 58.3084 227.376 57.6414 225.399 58.6277C222.977 59.8395 223.548 62.7065 223.548 62.7065C223.548 62.7065 224.879 61.6094 228.396 61.7489C231.399 61.8696 232.165 64.5131 230.432 66.9365L232.844 66.7985V66.7985Z" fill="#3F313D"/>
<path d="M259.299 77.8519C256.933 84.1927 255.739 92.8556 255.739 92.8556C254.564 94.0226 252.83 96.8316 252.83 96.8316C251.747 94.3428 249.671 79.5504 249.671 79.5504C248.722 77.9997 242.515 71.8711 234.237 71.5809C225.959 71.2907 222.143 75.715 222.143 75.715C220.512 78.7654 219.027 87.692 219.027 87.692C218.076 87.1746 217.505 85.7738 217.505 85.7738C217.114 89.0065 215.716 94.1347 215.716 94.1347C214.735 93.2703 213.749 91.8061 213.749 91.8061C214.224 87.3423 211.633 74.0331 211.633 74.0331C212.409 71.5736 224.303 65.3628 227.17 64.4263C228.333 64.0472 229.397 64.1654 230.255 64.4366C231.509 64.8362 232.312 65.5731 232.312 65.5731C233.948 64.0005 238.715 64.3057 243.929 65.3667C245.782 65.7422 247.695 66.2158 249.54 66.735C256.586 68.7098 258.44 72.9913 258.44 72.9913C257.239 73.0797 254.748 71.8496 254.557 71.755C257.595 73.4739 258.816 76.3679 259.176 77.4414C259.262 77.7041 259.304 77.8594 259.304 77.8594L259.299 77.8519Z" fill="#3F313D"/>
<g style="mix-blend-mode:multiply" opacity="0.9">
<path d="M259.299 77.8519C258.803 79.1825 258.359 80.6158 257.967 82.0525C256.489 87.4499 255.742 92.8514 255.742 92.8514C254.568 94.0183 252.833 96.8274 252.833 96.8274C252.158 95.2767 251.101 88.963 250.396 84.4109C249.969 81.6505 249.675 79.5462 249.675 79.5462C248.726 77.9955 242.519 71.8669 234.241 71.5767C225.962 71.2865 222.146 75.7108 222.146 75.7108C221.613 76.7108 221.095 78.3412 220.639 80.0856C219.705 83.6555 219.034 87.6874 219.034 87.6874C218.083 87.17 217.513 85.7692 217.513 85.7692C217.122 89.0019 215.724 94.1301 215.724 94.1301C214.743 93.2657 213.757 91.8016 213.757 91.8016C214.011 89.4152 213.39 84.5101 212.755 80.4525C212.202 76.9163 211.641 74.0246 211.641 74.0246C214.649 72.8891 216.292 73.3583 216.292 73.3583C216.292 73.3583 214.504 75.0633 213.878 76.127C213.878 76.127 216.939 76.6002 218.537 76.2905C218.537 76.2905 219.814 73.1001 221.331 71.2238C223.269 68.8303 225.067 68.2131 230.677 68.7073L232.312 65.5653C233.947 63.9927 238.714 64.2978 243.929 65.3588C247.9 68.1729 251.227 70.1965 253.775 82.969C253.775 82.969 256.111 79.6667 256.517 78.3002C256.517 78.3002 256.111 76.4202 256.011 75.3123C256.011 75.3123 257.986 75.8679 259.179 77.4292C259.265 77.6919 259.307 77.8473 259.307 77.8473L259.299 77.8519Z" fill="#3F313D"/>
</g>
<path d="M250.503 68.2686C249.45 65.6064 248.189 63.1251 247.066 62.3604C244.502 60.6122 238.298 60.1855 235.984 61.1415C234.408 61.791 232.225 65.6602 230.994 68.0559L230.964 68.1182C230.495 69.0331 230.173 69.7207 230.079 69.9156L230.062 69.9489L230.052 69.9736L230.073 69.9876C230.061 69.9808 230.048 69.9739 230.036 69.971C230.036 69.971 230.036 69.971 230.032 69.9713C228.714 69.3388 227.034 68.845 225.348 69.202C221.731 69.9731 221.406 73.2756 221.243 73.9613C221.08 74.647 222.671 82.4363 224.482 84.0234C224.482 84.0234 224.529 83.8365 224.612 83.5153C225.019 81.9342 226.274 77.1165 226.805 75.6797C227.767 73.0847 232.577 71.594 232.577 71.594C238.265 71.247 241.365 77.3395 241.998 78.9573C242.121 79.2765 242.131 79.7564 242.057 80.3231C241.782 82.5961 240.264 86.2565 240.219 86.3718C240.422 86.3342 246.986 85.1402 248.866 83.9159C250.777 82.6731 252.705 77.5584 252.812 76.1783C252.871 75.4022 251.862 71.6911 250.508 68.2762L250.503 68.2686Z" fill="#3F313D"/>
<g style="mix-blend-mode:multiply" opacity="0.9">
<path d="M237.404 62.1586C237.404 62.1586 244.579 64.3805 246.592 71.9105C248.605 79.4405 242.338 84.6936 240.21 86.3646C240.21 86.3646 244.397 80.3067 244.761 74.851C245.056 70.4226 242.18 64.8113 237.404 62.1586V62.1586Z" fill="#3F313D"/>
</g>
<g style="mix-blend-mode:multiply" opacity="0.9">
<path d="M242.053 80.3156C242.123 79.7492 242.117 79.2689 241.994 78.9498C241.861 78.6077 241.619 78.0684 241.266 77.4355C239.98 75.1193 237.229 71.5317 232.961 71.5726C232.834 71.5757 232.703 71.5791 232.573 71.5865C232.573 71.5865 227.762 73.0732 226.8 75.6721C226.265 77.1093 225.015 81.9267 224.608 83.5078C224.608 83.5078 224.506 75.3826 225.559 72.001C226.556 68.7951 229.707 69.8446 230.031 69.9635L230.035 69.9631C230.052 69.9657 230.056 69.9693 230.056 69.9693L230.066 69.9446L230.964 68.1142L230.994 68.052C234.397 65.0543 239.292 67.9233 241.475 71.8305C243.658 75.7416 242.053 80.3116 242.053 80.3116L242.053 80.3156Z" fill="#3F313D"/>
</g>
<g style="mix-blend-mode:multiply" opacity="0.9">
<path d="M252.807 76.1707C252.704 77.5505 250.772 82.6616 248.862 83.9083C246.981 85.1326 240.417 86.3267 240.214 86.3642C240.375 86.2548 245.558 82.7012 248.018 78.4901C249.875 75.3049 250.489 68.4287 250.503 68.2686C251.857 71.6836 252.867 75.3946 252.807 76.1707Z" fill="#3F313D"/>
</g>
<g style="mix-blend-mode:multiply" opacity="0.9">
<path d="M241.266 77.4355C239.98 75.1193 237.229 71.5317 232.961 71.5727C232.961 71.5727 230.709 68.8039 233.974 68.8302C237.238 68.8527 240.675 73.4695 241.266 77.4355Z" fill="#3F313D"/>
</g>
<g style="mix-blend-mode:multiply" opacity="0.9">
<path d="M220.635 80.0898C219.702 83.6598 219.031 87.6917 219.031 87.6917C218.08 87.1743 217.509 85.7735 217.509 85.7735C217.118 89.0062 215.72 94.1344 215.72 94.1344C214.739 93.2699 213.753 91.8058 213.753 91.8058C214.007 89.4195 213.386 84.5143 212.752 80.4567C212.752 80.4567 216.402 83.8669 217.504 83.9778C218.586 84.0825 220.564 80.235 220.639 80.0895L220.635 80.0898Z" fill="#3F313D"/>
</g>
<g style="mix-blend-mode:multiply" opacity="0.9">
<path d="M257.964 82.0568C256.485 87.4542 255.739 92.8557 255.739 92.8557C254.564 94.0226 252.83 96.8316 252.83 96.8316C252.154 95.281 251.097 88.9673 250.392 84.4152C251.901 87.7451 253.809 88.5728 254.853 88.3311C255.881 88.0948 257.9 82.2372 257.959 82.0532L257.964 82.0568Z" fill="#3F313D"/>
</g>
<g style="mix-blend-mode:multiply" opacity="0.9">
<path d="M228.441 85.5033C228.441 85.5033 227.449 85.0173 225.004 84.8204C224.28 84.7601 223.426 84.727 222.434 84.7416C218.095 84.7927 215.004 85.4387 215.004 85.4387C215.034 85.3646 216.313 83.5368 217.884 82.7686C217.873 82.7854 217.666 83.1014 217.676 83.4462C217.676 83.4462 219.491 82.1919 221.945 81.7602C222.403 81.6807 222.879 81.6274 223.375 81.6201C226.513 81.5621 227.883 83.9345 227.883 83.9345C227.883 83.9345 227.831 83.335 227.521 82.9607C227.521 82.9607 228.508 83.6696 228.449 85.5027L228.441 85.5033Z" fill="#010101"/>
<g style="mix-blend-mode:multiply" opacity="0.6">
<path d="M225.004 84.8166C224.279 84.7563 223.426 84.7231 222.434 84.7378C218.095 84.7888 215.004 85.4348 215.004 85.4348C215.033 85.3607 216.313 83.533 217.883 82.7648C217.873 82.7816 217.666 83.0976 217.676 83.4424C217.676 83.4424 219.49 82.1881 221.944 81.7564C221.068 82.1385 219.161 83.0115 218.016 84.4262C218.016 84.4262 220.394 83.7189 225.012 84.8159L225.004 84.8166Z" fill="#010101"/>
</g>
</g>
<g style="mix-blend-mode:multiply" opacity="0.9">
<path d="M238.3 85.9623C238.3 85.9623 239.334 85.5704 241.785 85.5999C242.513 85.6082 243.363 85.6575 244.35 85.7586C248.665 86.2143 251.682 87.1442 251.682 87.1442C251.659 87.0667 250.553 85.1283 249.064 84.2167C249.073 84.2357 249.249 84.5661 249.207 84.9115C249.207 84.9115 247.518 83.4926 245.117 82.8349C244.669 82.7109 244.196 82.6169 243.706 82.5601C240.584 82.2114 239.002 84.4429 239.002 84.4429C239.002 84.4429 239.106 83.8498 239.453 83.5057C239.453 83.5057 238.402 84.1215 238.295 85.9508L238.3 85.9623Z" fill="#010101"/>
<g style="mix-blend-mode:multiply" opacity="0.6">
<path d="M241.785 85.5999C242.513 85.6082 243.363 85.6536 244.35 85.7586C248.665 86.2143 251.682 87.1443 251.682 87.1443C251.659 87.0667 250.553 85.1283 249.063 84.2167C249.073 84.2357 249.249 84.5661 249.207 84.9115C249.207 84.9115 247.518 83.4926 245.117 82.8349C245.956 83.2985 247.771 84.3448 248.781 85.8585C248.781 85.8585 246.479 84.9339 241.78 85.5963L241.785 85.5999Z" fill="#010101"/>
</g>
</g>
<path d="M113.831 208.607C113.831 208.607 120.426 225.474 104.509 245.842C99.771 251.773 93.1904 253.074 85.6628 253.04C77.8039 253.162 72.0617 247.447 64.517 248.068C70.7747 246.595 74.6777 241.296 81.8525 242.303C73.7778 238.163 65.8802 239.757 58.8655 245.138C52.1822 250.363 45.6017 251.664 38.3918 245.747C44.4303 246.396 47.012 241.554 50.5494 237.719C45.8629 241.688 40.4957 240.401 35.8256 237.497C30.0235 234.072 26.7696 233.332 19.7326 233.311C27.8708 228.778 28.2057 222.24 38.8843 226.939C44.7079 229.546 52.3562 231.22 54.2187 222.594C43.8601 230.67 39.0642 220.07 29.9868 216.723C23.5005 214.425 20.9316 218.777 15.1816 219.608C9.43167 220.439 4.61939 216.713 0.792696 212.848C9.01811 217.483 14.6508 208.629 21.2913 205.038C28.9302 200.82 38.0899 207.279 46.6544 205.212C48.4912 197.568 39.9052 200.452 36.7764 201.189C31.8399 202.205 26.4299 202.554 23.7994 196.757C36.88 203.483 42.1154 184.799 53.9989 187.237C58.5569 188.175 62.72 197.94 67.3508 196.098C74.4606 193.338 63.3255 187.318 60.2309 186.746C63.3983 184.538 68.1584 184.008 72.0493 185.419C77.0766 187.187 77.2837 191.775 80.8219 194.159C85.4835 197.391 90.8413 192.785 86.541 188.253C84.9484 186.575 78.7463 185.922 76.1638 184.545C83.5963 181.957 94.2014 183.217 100.8 187.481C109.008 192.769 110.606 200.503 113.831 208.607Z" fill="url(#paint9_linear_112_154)"/>
<path d="M110.758 218.216C110.612 220.72 110.45 220.716 109.811 223.521C108.524 229.443 103.767 235.118 97.3114 234.635C93.6817 234.305 91.8144 231.513 88.5243 230.565C85.0747 229.534 82.5065 231.896 79.4157 232.599C80.6666 231.143 81.7457 230.074 82.7583 228.455C83.4293 227.532 84.1044 226.452 85.167 226.01C82.8883 226.577 81.0698 228.097 78.7124 228.584C75.7873 229.134 73.475 227.898 70.9224 226.577C68.3718 225.178 66.2333 223.477 64.1072 221.305C63.241 220.42 62.3063 219.064 61.1875 218.564C59.6668 217.976 58.2768 218.566 56.7438 218.448C59.9563 216.181 61.5242 214.968 65.1875 217.101C68.9295 219.315 71.6614 216.879 75.4588 216.978C72.7261 216.358 70.1009 214.722 71.1586 211.38C73.5423 216.066 77.6149 214.919 81.1588 212.347C84.6179 209.93 87.1135 207.252 91.5511 207.604C90.1358 206.078 87.8509 206.88 86.0734 206.833C84.0556 206.702 82.4602 205.877 80.7922 204.736C81.1154 204.744 81.5173 204.833 81.7617 204.761C83.3091 204.332 84.9977 204.689 86.5451 204.26C88.0117 203.828 89.24 203.233 90.63 202.642C93.4098 201.461 97.2011 201.796 100.093 202.498C104.914 203.643 109.768 209.727 110.656 215.941L110.721 216.57C110.787 217.12 110.773 217.668 110.758 218.216Z" fill="#FFC929"/>
<path d="M110.697 220.316C110.456 223.106 109.41 224.519 107.385 226.458C105.102 228.601 101.501 228.126 98.6017 228.135C99.6182 227.822 100.184 227.074 100.999 226.418C99.3587 226.502 98.9666 225.432 97.5899 225.057C96.1292 224.68 94.516 225.316 93.0951 225.024C94.4542 224.467 94.3826 222.388 95.9416 222.217C94.6545 221.633 93.8168 223.136 92.6003 223.062C91.5518 222.992 90.1078 221.98 89.1487 221.701C89.4471 221.539 93.3717 220.879 91.4968 220.279C91.1211 220.184 90.0537 220.834 89.425 220.776C88.9234 220.678 88.3434 220.366 87.8882 220.1C86.854 219.479 86.2089 218.446 85.0841 218.077C83.7925 217.662 82.5638 218.053 81.2932 218.444C83.2953 217.395 84.0015 216.1 86.3461 216.415C87.5195 216.531 88.2388 216.338 89.336 216.154C90.2641 216.009 91.0132 216.283 92.0209 216.31C90.8145 214.244 88.7173 215.715 86.9782 214.737C88.3605 214.9 89.0202 213.773 90.0854 213.208C91.1494 212.685 92.5803 212.595 93.7028 213.048C94.5348 213.367 95.792 215.095 96.6595 214.058C97.6993 212.856 95.4984 211.867 94.6609 211.76C95.767 211.238 97.2409 211.107 98.3977 211.858C99.3887 212.519 99.7753 213.801 101.134 213.243C101.431 211.556 99.4562 211.546 98.558 210.548C100.988 210.824 103.931 209.121 105.629 211.666C106.073 212.355 106.13 215.026 107.204 214.122C108.063 213.382 107.234 211.369 106.533 210.842C109.356 212.145 110.924 216.466 110.711 219.765L110.697 220.316Z" fill="#F9F079"/>
<path d="M121.279 186.324C116.701 187.485 112.336 188.669 108.186 189.841C104.036 191.013 100.762 205.372 100.469 217.114C100.177 228.762 102.548 247.626 106.633 249.014C110.719 250.402 115.014 251.81 119.524 253.213L121.279 186.324Z" fill="url(#paint10_linear_112_154)"/>
<path d="M200.058 275.273C257.283 287.797 321.954 293.039 380.369 267.24L382.5 185.995C325.522 157.176 260.662 159.009 202.859 168.522L144.342 180.673C138.737 182.02 133.341 183.339 128.07 184.648L126.218 255.246C131.413 256.823 136.739 258.435 142.259 260.069L200.058 275.273ZM336.084 225.431C335.653 234.85 327.936 242.231 318.64 241.987C309.354 241.743 302.014 233.968 302.081 224.539C302.509 215.117 310.246 207.74 319.532 207.984C328.829 208.228 336.148 215.999 336.084 225.431Z" fill="url(#paint11_linear_112_154)"/>
<path d="M136.221 273.106L142.257 260.07L200.056 275.273C191.812 280.906 162.156 306.387 162.156 306.387L85.9446 299.586L86.3557 283.917L136.221 273.106Z" fill="url(#paint12_linear_112_154)"/>
<path d="M166.64 135.466C166.64 135.466 194.92 162.457 202.857 168.522L144.34 180.673L138.996 167.338L89.7663 153.927L90.1774 138.262L166.64 135.466Z" fill="url(#paint13_linear_112_154)"/>
<path d="M387.212 263.964C405.107 255.029 441.649 229.013 441.673 228.111C441.697 227.203 406.564 199.498 389.162 189.639L387.212 263.964Z" fill="url(#paint14_linear_112_154)"/>
<path d="M121.278 186.324L119.523 253.213L126.217 255.246L128.07 184.648L121.278 186.324Z" fill="url(#paint15_linear_112_154)"/>
<path d="M382.499 185.995L380.367 267.24L387.212 263.966L389.162 189.641L382.499 185.995Z" fill="url(#paint16_linear_112_154)"/>
<path d="M318.641 241.986C327.937 242.23 335.653 234.85 336.085 225.431C336.148 215.999 328.829 208.227 319.533 207.983C310.247 207.74 302.509 215.116 302.082 224.539C302.015 233.967 309.355 241.743 318.641 241.986Z" fill="url(#paint17_linear_112_154)"/>
<g style="mix-blend-mode:multiply" opacity="0.6">
<path d="M227.786 107.145C227.786 107.145 229.936 109.404 232.524 109.404C235.246 109.404 236.807 107.077 236.807 107.077C236.807 107.077 234.115 109.097 227.786 107.145Z" fill="#CC77B1"/>
</g>
<path d="M240.537 103.24L240.875 102.853C240.875 102.853 240.746 102.688 240.593 102.682L240.494 103.05C240.113 103.228 239.591 103.424 239.173 103.381C237.993 103.117 235.504 102.663 232.432 102.663C229.359 102.663 226.993 103.093 225.782 103.357C225.358 103.461 224.756 103.24 224.338 103.044L224.32 102.663C224.32 102.663 224 102.7 224 102.878L224.295 103.234C226.593 106.715 230.262 108.238 232.567 108.238C235.111 108.238 237.557 107.188 240.531 103.234L240.537 103.24Z" fill="#822852"/>
<path d="M227.276 106.39C227.276 106.39 231.928 103.725 236.303 107.01C236.303 107.01 234.263 108.323 231.626 108.029C228.99 107.734 228.074 107.495 227.276 106.396V106.39Z" fill="#DC4D6C"/>
<path d="M227.589 103.093C227.589 103.093 229.893 104.744 232.665 104.529C235.025 104.345 237.176 103.019 237.176 103.019C237.176 103.019 232.597 101.988 227.589 103.093V103.093Z" fill="#FBDDEA"/>
<path d="M232.431 102C229.316 102 225.758 103.363 225.758 103.363C230.428 102.712 232.431 102.884 232.431 102.884C232.431 102.884 234.429 102.712 239.105 103.363C239.105 103.363 235.547 102 232.431 102Z" fill="#DC4D6C"/>
<path d="M228.91 107.298C228.91 107.298 230.95 107.102 232.604 107.077C234.257 107.053 235.793 107.28 235.793 107.28C235.793 107.28 234.208 108.066 232.431 108.066C230.17 108.066 228.904 107.298 228.904 107.298H228.91Z" fill="#FBDDEA"/>
<path d="M232.432 107.875C229.138 107.875 226.753 105.948 226.753 105.948C228.32 108.551 232.432 108.655 232.432 108.655C232.432 108.655 236.481 108.618 238.11 105.948C238.11 105.948 235.725 107.875 232.432 107.875Z" fill="#ED7072"/>
<path d="M236.906 93.6392C236.395 93.455 238.847 89.4371 242.145 88.9393C246.125 88.3378 246.775 91.9445 246.712 92.6664C246.649 93.3883 239.372 94.5153 236.906 93.6392Z" fill="url(#paint18_linear_112_154)"/>
<path d="M241.302 94.0885C242.702 94.2701 243.987 93.2616 244.172 91.836C244.356 90.4105 243.371 89.1077 241.971 88.9262C240.571 88.7446 239.286 89.7531 239.101 91.1787C238.917 92.6042 239.902 93.907 241.302 94.0885Z" fill="url(#paint19_linear_112_154)"/>
<path d="M241.322 93.9351C242.64 94.106 243.849 93.1576 244.023 91.8167C244.197 90.4759 243.269 89.2505 241.951 89.0796C240.633 88.9087 239.424 89.8571 239.25 91.198C239.076 92.5388 240.004 93.7642 241.322 93.9351Z" fill="url(#paint20_linear_112_154)"/>
<path style="mix-blend-mode:multiply" d="M243.193 91.6059C243.14 92.4809 242.395 93.1502 241.539 93.0999C240.677 93.0489 240.023 92.2969 240.081 91.4225C240.134 90.5474 240.879 89.8781 241.735 89.9284C242.597 89.9794 243.251 90.7314 243.193 91.6059Z" fill="url(#paint21_linear_112_154)"/>
<path d="M237.095 92.8069C237.095 92.8069 239.068 87.0829 242.678 86.7774C246.289 86.4719 246.622 91.858 246.622 91.858C246.622 91.858 245.952 88.9933 242.549 88.9748C239.147 88.9518 237.091 92.8063 237.091 92.8063L237.095 92.8069Z" fill="url(#paint22_linear_112_154)"/>
<path d="M236.98 93.0339L237.513 93.8006C237.513 93.8006 236.782 93.8283 236.721 93.6171C236.66 93.406 236.984 93.0346 236.984 93.0346L236.98 93.0339Z" fill="#D66C7C"/>
<path d="M237.986 93.8964C237.986 93.8964 240.767 94.4963 243.225 94.1529C245.683 93.8094 246.561 92.8514 246.561 92.8514C246.561 92.8514 242.653 94.1024 237.986 93.8964Z" fill="#D66C7C"/>
<path d="M243.46 91.125C243.299 91.2534 244.009 91.3331 244.56 91.1506C245.048 90.9867 245.298 90.6872 245.255 90.6305C245.213 90.5738 244.105 90.6112 243.46 91.125Z" fill="white"/>
<path d="M243.044 91.2394C242.845 91.1554 242.601 91.249 242.586 91.3571C242.57 91.4652 242.814 91.62 242.931 91.5771C243.051 91.5393 243.153 91.2827 243.04 91.2343L243.044 91.2394Z" fill="white"/>
<g style="mix-blend-mode:multiply" opacity="0.6">
<path d="M236.98 93.0339C236.98 93.0339 239.341 90.2167 242.19 89.8378C245.039 89.459 246.3 91.1632 246.3 91.1632C246.3 91.1632 246.04 89.0476 242.333 89.1C238.626 89.1524 236.98 93.0339 236.98 93.0339Z" fill="#C978B1"/>
</g>
<path d="M236.98 93.0338C236.98 93.0338 238.92 89.2455 242.752 89.1926C246.173 89.1449 246.689 92.2217 246.689 92.2217C246.689 92.2217 247.208 89.5842 244.911 88.8197C242.722 88.0941 238.822 89.0658 236.98 93.0338V93.0338Z" fill="#401432"/>
<path d="M229.462 92.6471C229.979 92.5032 227.842 88.3663 224.627 87.6439C220.743 86.774 219.849 90.2854 219.859 91.0009C219.873 91.717 226.967 93.3399 229.459 92.6466L229.462 92.6471Z" fill="url(#paint23_linear_112_154)"/>
<path d="M225.098 92.7806C226.491 92.6997 227.552 91.4845 227.47 90.0664C227.388 88.6483 226.193 87.5643 224.801 87.6452C223.409 87.7261 222.347 88.9413 222.429 90.3594C222.511 91.7775 223.706 92.8615 225.098 92.7806Z" fill="url(#paint24_linear_112_154)"/>
<path d="M225.089 92.6335C226.4 92.5575 227.401 91.4136 227.324 90.0785C227.246 88.7434 226.121 87.7227 224.81 87.7987C223.499 87.8747 222.498 89.0186 222.575 90.3537C222.653 91.6887 223.778 92.7095 225.089 92.6335Z" fill="url(#paint25_linear_112_154)"/>
<path style="mix-blend-mode:multiply" d="M223.408 90.1989C223.399 91.0679 224.084 91.7795 224.937 91.7897C225.79 91.7998 226.487 91.1046 226.496 90.2357C226.504 89.3668 225.819 88.6551 224.966 88.6449C224.114 88.6348 223.416 89.33 223.408 90.1989Z" fill="url(#paint26_linear_112_154)"/>
<path d="M229.337 91.8134C229.337 91.8134 227.794 86.0298 224.255 85.475C220.715 84.9203 220.005 90.2103 220.005 90.2103C220.005 90.2103 220.866 87.4356 224.225 87.652C227.583 87.8683 229.337 91.8134 229.337 91.8134V91.8134Z" fill="url(#paint27_linear_112_154)"/>
<path d="M229.436 92.0463L228.861 92.763C228.861 92.763 229.579 92.8396 229.655 92.6398C229.731 92.4362 229.436 92.0463 229.436 92.0463Z" fill="#D66C7C"/>
<path d="M228.38 92.8222C228.38 92.8222 225.592 93.219 223.193 92.7082C220.794 92.1974 219.996 91.1884 219.996 91.1884C219.996 91.1884 223.764 92.6971 228.38 92.8222Z" fill="#D66C7C"/>
<path d="M223.179 89.7054C223.33 89.8444 222.62 89.8705 222.094 89.6539C221.623 89.4609 221.399 89.1476 221.442 89.0914C221.489 89.0358 222.58 89.1544 223.179 89.7054Z" fill="white"/>
<path d="M223.579 89.8492C223.78 89.7807 224.014 89.8887 224.022 89.999C224.029 90.1094 223.78 90.2411 223.666 90.1934C223.552 90.1457 223.468 89.8878 223.579 89.8492Z" fill="white"/>
<g style="mix-blend-mode:multiply" opacity="0.6">
<path d="M229.436 92.0463C229.436 92.0463 227.307 89.1006 224.523 88.5264C221.739 87.9521 220.378 89.5463 220.378 89.5463C220.378 89.5463 220.782 87.4781 224.434 87.7916C228.087 88.1052 229.436 92.0463 229.436 92.0463Z" fill="#C978B1"/>
</g>
<path d="M229.436 92.0463C229.436 92.0463 227.788 88.1751 224.012 87.8515C220.641 87.563 219.918 90.5647 219.918 90.5647C219.918 90.5647 219.59 87.9261 221.915 87.3336C224.126 86.7714 227.903 88.0043 229.436 92.0463V92.0463Z" fill="#401432"/>
<path d="M256.527 122.385L284.751 124.523L281.331 94.3381C284.38 93.0598 287.28 94.3152 290.211 92.7706C292.401 99.3658 300.787 128.784 299.282 135.451C296.917 145.913 259.705 137.986 259.705 137.986L256.523 122.389L256.527 122.385Z" fill="url(#paint28_linear_112_154)"/>
<path d="M290.288 92.4402C290.288 92.4402 290.76 82.4429 289.595 82.7328C288.43 83.019 288.194 87.7102 288.194 87.7102C288.194 87.7102 288.005 80.04 287.093 80.1078C286.182 80.1792 284.957 87.7352 284.957 87.7352C284.957 87.7352 284.297 78.7888 283.57 78.968C282.843 79.1473 282.081 87.98 282.081 87.98C282.081 87.98 280.505 81.5755 279.34 81.8618C278.174 82.148 280.394 91.789 280.394 91.789C280.394 91.789 277.053 90.1424 276.397 91.2286C275.737 92.3186 281.363 95.7177 281.363 95.7177L284.995 127.394L290.404 100.437L290.288 92.4366L290.288 92.4402Z" fill="url(#paint29_linear_112_154)"/>
<defs>
<linearGradient id="paint0_linear_112_154" x1="219.223" y1="120.596" x2="253.893" y2="117.585" gradientUnits="userSpaceOnUse">
<stop stop-color="#F9AF9C"/>
<stop offset="0.2" stop-color="#F69B8E"/>
<stop offset="0.47" stop-color="#F48781"/>
<stop offset="0.73" stop-color="#F37B79"/>
<stop offset="1" stop-color="#F37777"/>
</linearGradient>
<linearGradient id="paint1_linear_112_154" x1="215.709" y1="92.6412" x2="253.693" y2="89.3418" gradientUnits="userSpaceOnUse">
<stop stop-color="#F8A795"/>
<stop offset="0.43" stop-color="#F8A997"/>
<stop offset="0.52" stop-color="#F7A290"/>
<stop offset="0.76" stop-color="#F69684"/>
<stop offset="1" stop-color="#F69280"/>
</linearGradient>
<linearGradient id="paint2_linear_112_154" x1="232.149" y1="98.7284" x2="232.266" y2="95.2388" gradientUnits="userSpaceOnUse">
<stop stop-color="#F37B7F"/>
<stop offset="0.4" stop-color="#F3817F"/>
<stop offset="1" stop-color="#F48680"/>
</linearGradient>
<linearGradient id="paint3_linear_112_154" x1="230.086" y1="97.5302" x2="230.15" y2="95.6114" gradientUnits="userSpaceOnUse">
<stop stop-color="#FBE3D4"/>
<stop offset="0.99" stop-color="#AE7CB7"/>
</linearGradient>
<linearGradient id="paint4_linear_112_154" x1="234.229" y1="97.6635" x2="234.294" y2="95.7446" gradientUnits="userSpaceOnUse">
<stop stop-color="#FBE3D4"/>
<stop offset="0.99" stop-color="#AE7CB7"/>
</linearGradient>
<linearGradient id="paint5_linear_112_154" x1="252.98" y1="106.747" x2="254.942" y2="92.7071" gradientUnits="userSpaceOnUse">
<stop stop-color="#F7A190"/>
<stop offset="0.43" stop-color="#F3A592"/>
<stop offset="0.51" stop-color="#F39F8D"/>
<stop offset="0.76" stop-color="#F49383"/>
<stop offset="1" stop-color="#F58F80"/>
</linearGradient>
<linearGradient id="paint6_linear_112_154" x1="253.495" y1="103.093" x2="254.845" y2="93.433" gradientUnits="userSpaceOnUse">
<stop stop-color="#F7A190"/>
<stop offset="0.43" stop-color="#F3A592"/>
<stop offset="0.51" stop-color="#F39F8D"/>
<stop offset="0.76" stop-color="#F49383"/>
<stop offset="1" stop-color="#F58F80"/>
</linearGradient>
<linearGradient id="paint7_linear_112_154" x1="252.446" y1="99.3294" x2="253.033" y2="95.1304" gradientUnits="userSpaceOnUse">
<stop stop-color="#F7A190"/>
<stop offset="0.43" stop-color="#F3A592"/>
<stop offset="0.51" stop-color="#F39F8D"/>
<stop offset="0.76" stop-color="#F49383"/>
<stop offset="1" stop-color="#F58F80"/>
</linearGradient>
<linearGradient id="paint8_linear_112_154" x1="256.658" y1="100.208" x2="250.706" y2="99.3767" gradientUnits="userSpaceOnUse">
<stop stop-color="#F7A190"/>
<stop offset="0.43" stop-color="#F3A592"/>
<stop offset="0.51" stop-color="#F39F8D"/>
<stop offset="0.76" stop-color="#F49383"/>
<stop offset="1" stop-color="#F58F80"/>
</linearGradient>
<linearGradient id="paint9_linear_112_154" x1="0.777289" y1="212.864" x2="132.66" y2="217.491" gradientUnits="userSpaceOnUse">
<stop stop-color="#F67C01"/>
<stop offset="1" stop-color="#BB5E00"/>
</linearGradient>
<linearGradient id="paint10_linear_112_154" x1="280.553" y1="160.922" x2="277.019" y2="295.63" gradientUnits="userSpaceOnUse">
<stop offset="0.213542" stop-color="#D2CECE"/>
<stop offset="1" stop-color="#393535"/>
</linearGradient>
<linearGradient id="paint11_linear_112_154" x1="280.553" y1="160.922" x2="277.019" y2="295.63" gradientUnits="userSpaceOnUse">
<stop offset="0.213542" stop-color="#D2CECE"/>
<stop offset="1" stop-color="#393535"/>
</linearGradient>
<linearGradient id="paint12_linear_112_154" x1="143.414" y1="249.999" x2="141.72" y2="314.547" gradientUnits="userSpaceOnUse">
<stop stop-color="#404040"/>
<stop offset="1"/>
</linearGradient>
<linearGradient id="paint13_linear_112_154" x1="144.96" y1="191.065" x2="146.801" y2="120.904" gradientUnits="userSpaceOnUse">
<stop/>
<stop offset="1" stop-color="#7A7A7A"/>
</linearGradient>
<linearGradient id="paint14_linear_112_154" x1="397.832" y1="186.466" x2="395.549" y2="273.465" gradientUnits="userSpaceOnUse">
<stop stop-color="#8C8B8B"/>
<stop offset="1"/>
</linearGradient>
<linearGradient id="paint15_linear_112_154" x1="128.858" y1="162.559" x2="125.765" y2="280.428" gradientUnits="userSpaceOnUse">
<stop offset="0.1875" stop-color="white"/>
<stop offset="1" stop-color="#393535"/>
</linearGradient>
<linearGradient id="paint16_linear_112_154" x1="386.975" y1="172.139" x2="383.882" y2="290.009" gradientUnits="userSpaceOnUse">
<stop offset="0.135417" stop-color="white"/>
<stop offset="1" stop-color="#393535"/>
</linearGradient>
<linearGradient id="paint17_linear_112_154" x1="317.706" y1="243.339" x2="318.663" y2="206.856" gradientUnits="userSpaceOnUse">
<stop offset="0.0885417" stop-color="#212121"/>
<stop offset="1" stop-color="#606060"/>
</linearGradient>
<linearGradient id="paint18_linear_112_154" x1="241.767" y1="94.2295" x2="242.6" y2="88.5661" gradientUnits="userSpaceOnUse">
<stop stop-color="#E6DBEC"/>
<stop offset="1" stop-color="#B8C1E2"/>
</linearGradient>
<linearGradient id="paint19_linear_112_154" x1="241.511" y1="94.4204" x2="241.826" y2="89.2244" gradientUnits="userSpaceOnUse">
<stop stop-color="#48204B"/>
<stop offset="1" stop-color="#301138"/>
</linearGradient>
<linearGradient id="paint20_linear_112_154" x1="241.521" y1="94.257" x2="241.818" y2="89.3698" gradientUnits="userSpaceOnUse">
<stop stop-color="#57345B"/>
<stop offset="1" stop-color="#301138"/>
</linearGradient>
<linearGradient id="paint21_linear_112_154" x1="241.632" y1="92.9872" x2="241.826" y2="89.8169" gradientUnits="userSpaceOnUse">
<stop stop-color="#A093B6"/>
<stop offset="0.99" stop-color="#734B61"/>
</linearGradient>
<linearGradient id="paint22_linear_112_154" x1="237.384" y1="89.5053" x2="246.818" y2="90.0807" gradientUnits="userSpaceOnUse">
<stop stop-color="#F7A190"/>
<stop offset="0.43" stop-color="#F3A592"/>
<stop offset="0.51" stop-color="#F39F8D"/>
<stop offset="0.76" stop-color="#F49383"/>
<stop offset="1" stop-color="#F58F80"/>
</linearGradient>
<linearGradient id="paint23_linear_112_154" x1="224.907" y1="93.3703" x2="224.483" y2="87.7247" gradientUnits="userSpaceOnUse">
<stop stop-color="#E6DBEC"/>
<stop offset="1" stop-color="#B8C1E2"/>
</linearGradient>
<linearGradient id="paint24_linear_112_154" x1="224.968" y1="92.9631" x2="225.02" y2="87.8193" gradientUnits="userSpaceOnUse">
<stop stop-color="#48204B"/>
<stop offset="1" stop-color="#301138"/>
</linearGradient>
<linearGradient id="paint25_linear_112_154" x1="225.034" y1="92.4019" x2="225.084" y2="87.5593" gradientUnits="userSpaceOnUse">
<stop stop-color="#57345B"/>
<stop offset="1" stop-color="#301138"/>
</linearGradient>
<linearGradient id="paint26_linear_112_154" x1="224.972" y1="92.0052" x2="225.004" y2="88.8618" gradientUnits="userSpaceOnUse">
<stop stop-color="#A093B6"/>
<stop offset="0.99" stop-color="#734B61"/>
</linearGradient>
<linearGradient id="paint27_linear_112_154" x1="229.409" y1="88.8682" x2="220.063" y2="88.7718" gradientUnits="userSpaceOnUse">
<stop stop-color="#F7A190"/>
<stop offset="0.43" stop-color="#F3A592"/>
<stop offset="0.51" stop-color="#F39F8D"/>
<stop offset="0.76" stop-color="#F49383"/>
<stop offset="1" stop-color="#F58F80"/>
</linearGradient>
<linearGradient id="paint28_linear_112_154" x1="256.44" y1="124.729" x2="296.335" y2="114.906" gradientUnits="userSpaceOnUse">
<stop stop-color="#F7A393"/>
<stop offset="0.43" stop-color="#F5A794"/>
<stop offset="0.51" stop-color="#F5A18E"/>
<stop offset="0.76" stop-color="#F59584"/>
<stop offset="1" stop-color="#F69181"/>
</linearGradient>
<linearGradient id="paint29_linear_112_154" x1="279.332" y1="104.409" x2="294.324" y2="100.718" gradientUnits="userSpaceOnUse">
<stop stop-color="#F7A393"/>
<stop offset="0.43" stop-color="#F5A794"/>
<stop offset="0.51" stop-color="#F5A18E"/>
<stop offset="0.76" stop-color="#F59584"/>
<stop offset="1" stop-color="#F69181"/>
</linearGradient>
</defs>
</svg>
