<svg width="442" height="442" viewBox="0 0 442 442" fill="none" xmlns="http://www.w3.org/2000/svg">
<path d="M113.831 208.607C113.831 208.607 120.426 225.474 104.509 245.842C99.771 251.773 93.1904 253.074 85.6628 253.04C77.8039 253.162 72.0617 247.447 64.517 248.068C70.7747 246.595 74.6777 241.296 81.8525 242.303C73.7777 238.163 65.8802 239.757 58.8655 245.138C52.1822 250.363 45.6016 251.664 38.3918 245.747C44.4303 246.396 47.012 241.554 50.5494 237.719C45.8629 241.688 40.4957 240.401 35.8256 237.497C30.0234 234.072 26.7696 233.332 19.7326 233.311C27.8708 228.778 28.2056 222.24 38.8843 226.939C44.7079 229.546 52.3562 231.22 54.2186 222.594C43.8601 230.67 39.0642 220.07 29.9868 216.723C23.5004 214.425 20.9315 218.777 15.1816 219.608C9.43166 220.439 4.61938 216.713 0.79268 212.848C9.0181 217.483 14.6508 208.629 21.2913 205.038C28.9302 200.82 38.0898 207.279 46.6544 205.212C48.4912 197.568 39.9052 200.452 36.7763 201.189C31.8399 202.205 26.4299 202.554 23.7994 196.757C36.8799 203.483 42.1154 184.799 53.9989 187.237C58.5569 188.175 62.72 197.94 67.3508 196.098C74.4606 193.338 63.3255 187.318 60.2309 186.746C63.3983 184.538 68.1584 184.008 72.0493 185.419C77.0765 187.187 77.2837 191.775 80.8219 194.159C85.4835 197.391 90.8412 192.785 86.541 188.253C84.9484 186.575 78.7463 185.922 76.1638 184.545C83.5963 181.957 94.2014 183.217 100.8 187.481C109.008 192.769 110.606 200.503 113.831 208.607Z" fill="url(#paint0_linear_312_90)"/>
<path d="M110.758 218.216C110.612 220.72 110.45 220.716 109.811 223.521C108.524 229.443 103.767 235.118 97.3114 234.635C93.6817 234.305 91.8144 231.513 88.5243 230.565C85.0747 229.534 82.5065 231.896 79.4157 232.599C80.6666 231.143 81.7457 230.074 82.7583 228.455C83.4293 227.532 84.1044 226.452 85.167 226.01C82.8883 226.577 81.0698 228.097 78.7124 228.584C75.7873 229.134 73.475 227.898 70.9224 226.578C68.3718 225.178 66.2333 223.477 64.1072 221.305C63.241 220.42 62.3063 219.064 61.1875 218.564C59.6668 217.976 58.2768 218.566 56.7438 218.448C59.9563 216.181 61.5242 214.968 65.1875 217.101C68.9295 219.315 71.6614 216.879 75.4588 216.979C72.7261 216.358 70.1009 214.722 71.1586 211.38C73.5423 216.066 77.6149 214.919 81.1588 212.347C84.6179 209.93 87.1135 207.253 91.5511 207.604C90.1358 206.078 87.8509 206.88 86.0734 206.833C84.0556 206.702 82.4602 205.877 80.7922 204.736C81.1154 204.744 81.5173 204.833 81.7617 204.761C83.3091 204.332 84.9977 204.689 86.5451 204.26C88.0117 203.828 89.24 203.233 90.63 202.642C93.4098 201.461 97.2011 201.796 100.093 202.498C104.914 203.643 109.768 209.727 110.656 215.941L110.721 216.57C110.787 217.12 110.773 217.668 110.758 218.216Z" fill="#FFC929"/>
<path d="M110.697 220.316C110.456 223.106 109.41 224.519 107.385 226.458C105.102 228.602 101.501 228.126 98.6017 228.135C99.6182 227.822 100.184 227.074 100.999 226.418C99.3587 226.502 98.9666 225.432 97.5899 225.057C96.1292 224.68 94.516 225.316 93.0951 225.024C94.4542 224.467 94.3826 222.389 95.9416 222.217C94.6545 221.633 93.8168 223.136 92.6003 223.062C91.5518 222.992 90.1078 221.98 89.1487 221.701C89.4471 221.539 93.3717 220.879 91.4968 220.279C91.1211 220.184 90.0537 220.834 89.425 220.776C88.9234 220.678 88.3434 220.366 87.8882 220.1C86.854 219.479 86.2089 218.446 85.0841 218.077C83.7925 217.662 82.5638 218.054 81.2932 218.444C83.2953 217.395 84.0015 216.1 86.3461 216.415C87.5195 216.531 88.2388 216.338 89.336 216.155C90.2641 216.009 91.0132 216.283 92.0209 216.31C90.8145 214.244 88.7173 215.715 86.9782 214.737C88.3605 214.9 89.0202 213.773 90.0854 213.208C91.1494 212.685 92.5803 212.595 93.7028 213.048C94.5348 213.367 95.792 215.095 96.6595 214.058C97.6993 212.856 95.4984 211.867 94.6609 211.76C95.767 211.238 97.2409 211.107 98.3977 211.858C99.3887 212.519 99.7753 213.801 101.134 213.243C101.431 211.556 99.4562 211.547 98.558 210.548C100.988 210.824 103.931 209.121 105.629 211.666C106.073 212.355 106.13 215.026 107.204 214.122C108.063 213.382 107.234 211.369 106.533 210.842C109.356 212.145 110.924 216.466 110.711 219.765L110.697 220.316Z" fill="#F9F079"/>
<path d="M121.279 186.324C116.701 187.485 112.336 188.669 108.186 189.841C104.036 191.013 100.762 205.372 100.469 217.114C100.177 228.762 102.548 247.626 106.633 249.014C110.719 250.402 115.014 251.81 119.524 253.213L121.279 186.324Z" fill="url(#paint1_linear_312_90)"/>
<path d="M200.058 275.273C257.283 287.797 321.954 293.039 380.369 267.24L382.5 185.995C325.522 157.176 260.662 159.009 202.859 168.522L144.342 180.673C138.737 182.02 133.341 183.339 128.07 184.648L126.218 255.246C131.413 256.823 136.739 258.435 142.259 260.069L200.058 275.273ZM336.084 225.431C335.653 234.85 327.936 242.231 318.64 241.987C309.354 241.743 302.014 233.968 302.081 224.539C302.509 215.117 310.246 207.74 319.532 207.984C328.829 208.228 336.148 215.999 336.084 225.431Z" fill="url(#paint2_linear_312_90)"/>
<path d="M136.221 273.106L142.257 260.07L200.056 275.273C191.812 280.906 162.156 306.387 162.156 306.387L85.9446 299.586L86.3557 283.917L136.221 273.106Z" fill="url(#paint3_linear_312_90)"/>
<path d="M166.64 135.466C166.64 135.466 194.92 162.457 202.857 168.522L144.34 180.673L138.996 167.338L89.7663 153.927L90.1774 138.262L166.64 135.466Z" fill="url(#paint4_linear_312_90)"/>
<path d="M387.212 263.964C405.107 255.028 441.649 229.013 441.673 228.111C441.697 227.203 406.564 199.498 389.162 189.639L387.212 263.964Z" fill="url(#paint5_linear_312_90)"/>
<path d="M121.278 186.324L119.523 253.213L126.217 255.246L128.07 184.648L121.278 186.324Z" fill="url(#paint6_linear_312_90)"/>
<path d="M382.498 185.995L380.367 267.24L387.212 263.966L389.162 189.641L382.498 185.995Z" fill="url(#paint7_linear_312_90)"/>
<path d="M318.641 241.986C327.937 242.23 335.654 234.85 336.085 225.431C336.148 215.999 328.829 208.227 319.533 207.983C310.247 207.74 302.509 215.116 302.082 224.539C302.015 233.967 309.355 241.743 318.641 241.986Z" fill="url(#paint8_linear_312_90)"/>
<path d="M287.767 114.764L284.157 85.1982C282.065 81.886 280.46 75.0215 280.724 72.7779C281.172 68.9622 284.083 71.5183 284.083 71.5183C285.193 68.4842 287.033 71.0374 287.033 71.0374C287.393 67.7691 290.129 70.3534 290.129 70.3534C291.645 66.542 294.93 70.2844 295.285 76.8187C295.418 79.2491 294.554 80.8775 293.419 81.9675C296.06 89.9312 303.602 115.427 302.12 122.254C299.733 133.273 238.989 142.523 238.989 142.523L238.767 127.996L287.76 114.766L287.767 114.764Z" fill="url(#paint9_linear_312_90)"/>
<path d="M282.248 78.3443C282.508 77.8788 282.756 77.3922 283.007 76.9043C286.775 75.1639 290.508 73.3352 294.566 72.5799C294.935 73.7764 295.203 75.2101 295.287 76.8137C295.42 79.244 294.556 80.8725 293.422 81.9625C293.599 82.5002 293.813 83.1636 294.038 83.8819C290.377 83.3504 286.654 82.9627 282.901 82.6695C282.436 81.5324 282.03 80.2777 281.688 79.0382C281.896 78.8553 282.085 78.629 282.247 78.3406L282.248 78.3443Z" fill="url(#paint10_linear_312_90)"/>
<path d="M282.349 75.3651C282.349 75.3651 278.668 74.8827 278.16 78.7534C277.653 82.624 282.988 86.2626 286.67 84.3973C290.348 82.5333 282.349 75.3651 282.349 75.3651V75.3651Z" fill="url(#paint11_linear_312_90)"/>
<path d="M279.442 76.2509C279.442 76.2509 284.839 72.3008 290.179 74.1025C293.679 75.2831 286.262 78.604 283.657 78.4337C281.056 78.2622 279.442 76.2509 279.442 76.2509Z" fill="url(#paint12_linear_312_90)"/>
<path d="M290.132 70.3484C290.132 70.3484 289.73 68.3362 291.468 68.049C293.203 67.7668 296.999 75.8596 294.425 77.0724C291.852 78.2851 290.132 70.3484 290.132 70.3484Z" fill="url(#paint13_linear_312_90)"/>
<path d="M280.987 72.5341C280.987 72.5341 280.585 70.5218 282.323 70.2346C284.058 69.9525 287.853 78.0453 285.28 79.258C282.707 80.4708 280.987 72.5341 280.987 72.5341Z" fill="url(#paint14_linear_312_90)"/>
<path d="M287.03 71.3368C287.03 71.3368 286.614 69.2371 288.35 68.955C290.085 68.6728 293.937 77.1152 291.37 78.3591C288.8 79.6043 287.028 71.333 287.028 71.333L287.03 71.3368Z" fill="url(#paint15_linear_312_90)"/>
<path d="M284.084 72.1143C284.084 72.1143 283.669 70.0146 285.408 69.7312C287.143 69.449 290.995 77.8914 288.428 79.1353C285.858 80.3805 284.086 72.1092 284.086 72.1092L284.084 72.1143Z" fill="url(#paint16_linear_312_90)"/>
<path d="M239.537 127.787C235.886 126.878 229.655 130.061 228.655 133.027C227.49 136.488 230.031 140.346 232.393 141.66C234.596 142.888 238.102 142.652 238.996 142.52" fill="url(#paint17_linear_312_90)"/>
<path d="M181.056 135.645L169.377 108.242C169.53 104.325 167.479 97.5802 166.132 95.7694C163.833 92.691 162.592 96.3583 162.592 96.3583C160.113 94.287 159.795 97.4208 159.795 97.4208C157.849 94.7718 156.773 98.379 156.773 98.379C153.551 95.8379 152.583 100.721 155.547 106.557C156.651 108.727 158.211 109.704 159.739 110.08C161.44 118.296 167.676 144.14 172.375 149.308C179.961 157.649 237.174 135.244 237.174 135.244L230.093 122.561L181.059 135.637L181.056 135.645Z" fill="url(#paint18_linear_312_90)"/>
<path d="M167.599 101.359C167.144 101.087 166.684 100.787 166.224 100.491C162.092 100.872 157.942 101.157 154.053 102.536C154.334 103.76 154.821 105.132 155.547 106.565C156.651 108.735 158.212 109.712 159.739 110.088C159.854 110.643 160.004 111.324 160.164 112.06C163.068 109.766 166.094 107.568 169.197 105.436C169.032 104.217 168.753 102.926 168.428 101.684C168.157 101.632 167.877 101.529 167.595 101.359L167.599 101.359Z" fill="url(#paint19_linear_312_90)"/>
<path d="M166.021 98.8299C166.021 98.8299 168.966 96.5711 171.344 99.667C173.719 102.763 170.923 108.582 166.807 108.811C162.691 109.04 166.025 98.8298 166.025 98.8298L166.021 98.8299Z" fill="url(#paint20_linear_312_90)"/>
<path d="M168.98 98.139C168.98 98.139 162.333 97.4191 158.61 101.657C156.171 104.432 164.257 103.589 166.422 102.141C168.59 100.693 168.98 98.139 168.98 98.139Z" fill="url(#paint21_linear_312_90)"/>
<path d="M156.769 98.383C156.769 98.383 156.107 96.4377 154.462 97.0632C152.817 97.6887 153.583 106.593 156.42 106.353C159.257 106.113 156.769 98.383 156.769 98.383V98.383Z" fill="url(#paint22_linear_312_90)"/>
<path d="M165.785 95.6962C165.785 95.6962 165.123 93.7509 163.478 94.3764C161.832 95.0019 162.599 103.906 165.436 103.667C168.272 103.427 165.785 95.6962 165.785 95.6962V95.6962Z" fill="url(#paint23_linear_312_90)"/>
<path d="M159.953 97.6856C159.953 97.6856 159.261 95.6619 157.616 96.2874C155.97 96.9129 156.866 106.15 159.711 105.942C162.557 105.733 159.953 97.6895 159.953 97.6895L159.953 97.6856Z" fill="url(#paint24_linear_312_90)"/>
<path d="M162.892 96.8843C162.892 96.8843 162.2 94.8606 160.555 95.4861C158.91 96.1116 159.805 105.349 162.65 105.141C165.496 104.932 162.892 96.8882 162.892 96.8882L162.892 96.8843Z" fill="url(#paint25_linear_312_90)"/>
<path d="M229.331 122.773C232.036 120.16 239.027 119.793 241.375 121.856C244.118 124.268 243.851 128.878 242.464 131.203C241.172 133.371 238.02 134.923 237.178 135.252" fill="url(#paint26_linear_312_90)"/>
<path d="M231.736 105.459L230.774 120.455L219.324 121.764L234.399 137.307L254.313 122.42L244.725 120.595L244.207 100.398L231.736 105.459Z" fill="url(#paint27_linear_312_90)"/>
<path d="M233.751 69.2787C233.751 69.2787 217.058 71.3367 215.946 91.1505C214.833 110.964 229.554 114.561 238.684 112.163C247.814 109.764 253.079 99.1981 253.815 93.2651C254.555 87.3317 248.956 68.1606 233.747 69.283L233.751 69.2787Z" fill="url(#paint28_linear_312_90)"/>
<path d="M226.529 120.908C226.529 120.908 220.612 120.166 216.193 122.223C211.774 124.279 208.979 139.538 207.859 145.906C206.739 152.274 213.472 166.292 213.472 166.292C213.472 166.292 247.02 170.483 260.515 162.206L261.055 142.99C261.055 142.99 257.389 127.005 256.168 121.675L250.356 120.924C250.356 120.924 229.23 132.792 226.525 120.904L226.529 120.908Z" fill="#951A22"/>
<path d="M227.883 92.7083C228.321 92.5868 226.503 89.0811 223.776 88.4755C220.482 87.7444 219.727 90.7187 219.74 91.3255C219.753 91.9324 225.768 93.2973 227.879 92.7087L227.883 92.7083Z" fill="url(#paint29_linear_312_90)"/>
<path d="M221.221 91.5386C221.217 91.8171 221.275 92.0783 221.38 92.3195C221.404 92.373 224.65 92.9653 224.68 92.9349C225.031 92.5865 225.247 92.1068 225.253 91.5778C225.262 90.4922 224.366 89.6005 223.253 89.5899C222.139 89.5793 221.229 90.4491 221.221 91.5386V91.5386Z" fill="url(#paint30_linear_312_90)"/>
<path style="mix-blend-mode:multiply" d="M221.928 91.5447C221.922 92.2486 222.505 92.8258 223.228 92.8345C223.952 92.8431 224.539 92.2756 224.545 91.5717C224.552 90.8678 223.969 90.2906 223.245 90.2819C222.521 90.2733 221.935 90.8408 221.928 91.5447Z" fill="url(#paint31_linear_312_90)"/>
<path d="M227.774 92.0025C227.774 92.0025 226.458 87.1021 223.457 86.6396C220.456 86.1731 219.861 90.6594 219.861 90.6594C219.861 90.6594 220.586 88.3075 223.431 88.4856C226.276 88.6676 227.77 92.0029 227.77 92.0029L227.774 92.0025Z" fill="url(#paint32_linear_312_90)"/>
<path d="M227.858 92.1979L227.37 92.8045C227.37 92.8045 227.98 92.8707 228.045 92.6982C228.109 92.5257 227.858 92.1979 227.858 92.1979Z" fill="#D66C7C"/>
<path d="M226.966 92.8595C226.966 92.8595 224.603 93.1998 222.571 92.7684C220.539 92.3369 219.857 91.4862 219.857 91.4862C219.857 91.4862 223.055 92.7581 226.966 92.8595V92.8595Z" fill="#D66C7C"/>
<path d="M222.549 90.2272C222.679 90.347 222.076 90.3676 221.631 90.1837C221.232 90.0197 221.042 89.7541 221.078 89.7112C221.117 89.6641 222.044 89.7624 222.549 90.2272Z" fill="white"/>
<path d="M222.889 90.3446C223.059 90.2862 223.258 90.3802 223.266 90.4709C223.273 90.5616 223.061 90.6754 222.962 90.6363C222.863 90.5972 222.792 90.3769 222.889 90.3446Z" fill="white"/>
<g style="mix-blend-mode:multiply" opacity="0.6">
<path d="M227.858 92.1979C227.858 92.1979 226.048 89.7047 223.69 89.2221C221.331 88.7396 220.177 90.0915 220.177 90.0915C220.177 90.0915 220.518 88.3413 223.611 88.5971C226.706 88.8568 227.858 92.1979 227.858 92.1979V92.1979Z" fill="#C978B1"/>
</g>
<path d="M227.858 92.1979C227.858 92.1979 226.457 88.9182 223.255 88.652C220.396 88.4115 219.787 90.9559 219.787 90.9559C219.787 90.9559 219.506 88.7233 221.472 88.2147C223.346 87.7341 226.551 88.7749 227.858 92.1979Z" fill="#401432"/>
<path d="M236.751 92.697C236.25 92.5179 238.639 88.5911 241.855 88.1012C245.741 87.5093 246.381 91.026 246.323 91.7344C246.261 92.4391 239.162 93.5525 236.751 92.697V92.697Z" fill="url(#paint33_linear_312_90)"/>
<path d="M242.045 91.7125C242.007 92.3238 241.708 92.8584 241.265 93.2068C241.202 93.256 238.632 93.0343 238.57 92.9641C238.222 92.5731 238.025 92.0458 238.059 91.4786C238.129 90.356 239.076 89.5028 240.174 89.5664C241.276 89.6296 242.115 90.5899 242.045 91.7125V91.7125Z" fill="url(#paint34_linear_312_90)"/>
<path style="mix-blend-mode:multiply" d="M241.346 91.6699C241.302 92.397 240.687 92.9511 239.972 92.9099C239.257 92.8687 238.714 92.2443 238.758 91.5172C238.802 90.7902 239.418 90.2361 240.133 90.2773C240.848 90.3185 241.391 90.9429 241.346 91.6699Z" fill="url(#paint35_linear_312_90)"/>
<path d="M236.93 91.8826C236.93 91.8826 238.845 86.2923 242.371 85.9861C245.896 85.6798 246.234 90.9394 246.234 90.9394C246.234 90.9394 245.574 88.1476 242.255 88.13C238.932 88.1166 236.934 91.8784 236.934 91.8784L236.93 91.8826Z" fill="url(#paint36_linear_312_90)"/>
<path d="M236.819 92.1069L237.337 92.8527C237.337 92.8527 236.624 92.8788 236.562 92.6775C236.501 92.4723 236.815 92.1112 236.815 92.1112L236.819 92.1069Z" fill="#D66C7C"/>
<path d="M237.805 92.9431C237.805 92.9431 240.522 93.5257 242.92 93.1862C245.319 92.8468 246.175 91.9101 246.175 91.9101C246.175 91.9101 242.36 93.1396 237.805 92.9431Z" fill="#D66C7C"/>
<path d="M239.152 91.9321C238.958 91.8535 238.72 91.9418 238.705 92.0503C238.691 92.1549 238.926 92.3053 239.042 92.2675C239.158 92.2296 239.259 91.9784 239.152 91.9321V91.9321Z" fill="white"/>
<g style="mix-blend-mode:multiply" opacity="0.6">
<path d="M236.819 92.1069C236.819 92.1069 239.119 89.3521 241.9 88.9794C244.68 88.6028 245.913 90.2639 245.913 90.2639C245.913 90.2639 245.654 88.2003 242.035 88.2563C238.416 88.3124 236.815 92.1073 236.815 92.1073L236.819 92.1069Z" fill="#C978B1"/>
</g>
<path d="M236.819 92.107C236.819 92.107 238.707 88.4064 242.449 88.3476C245.79 88.2958 246.297 91.2995 246.297 91.2995C246.297 91.2995 246.801 88.7246 244.555 87.9819C242.415 87.2737 238.608 88.2322 236.819 92.107V92.107Z" fill="#401432"/>
<path d="M227.74 97.5169C227.74 97.5169 227.79 97.6834 228.418 97.7282C229.046 97.773 229.616 98.3434 230.68 98.3781C231.744 98.4128 232.298 97.8839 232.926 97.881C233.553 97.8782 233.666 97.7174 233.666 97.7174C233.774 97.3106 233.727 96.9094 233.622 96.5609L233.62 96.5491C233.433 95.9416 233.077 95.5075 233.077 95.5075C231.607 94.7332 230.001 94.682 228.478 95.3547C228.478 95.3547 228.231 95.6186 228.016 96.0266L228.016 96.0306C227.808 96.4262 227.632 96.958 227.744 97.5205L227.74 97.5169Z" fill="url(#paint37_linear_312_90)"/>
<path d="M229.153 97.9544C229.153 97.9544 228.682 97.5225 228.08 97.682L229.153 97.9544Z" fill="#812852"/>
<path d="M233.249 97.8569C233.249 97.8569 232.644 97.6552 232.02 98.1186L233.249 97.8569Z" fill="#812852"/>
<g style="mix-blend-mode:multiply" opacity="0.6">
<path d="M227.74 97.5169C227.74 97.5169 227.79 97.6834 228.418 97.7282C229.046 97.7731 229.616 98.3434 230.68 98.3781C231.744 98.4129 232.298 97.8839 232.925 97.8811C233.553 97.8782 233.666 97.7174 233.666 97.7174C233.774 97.3107 233.727 96.9094 233.621 96.561C233.642 96.6625 233.751 97.3167 233.497 97.4658C233.217 97.6292 231.678 97.4768 230.706 97.4421C229.737 97.411 228.088 97.3556 227.91 97.0929C227.741 96.8413 227.986 96.0968 228.012 96.031C227.804 96.4265 227.628 96.9584 227.74 97.5209L227.74 97.5169Z" fill="#C978B1"/>
</g>
<path style="mix-blend-mode:multiply" opacity="0.6" d="M228.478 95.3508C228.478 95.3508 228.786 96.4326 228.72 97.1814C228.72 97.1814 229.003 96.4575 228.7 95.2599L228.478 95.3547L228.478 95.3508Z" fill="url(#paint38_linear_312_90)"/>
<path style="mix-blend-mode:multiply" opacity="0.6" d="M233.021 95.5045C233.021 95.5045 232.64 96.5628 232.654 97.3126C232.654 97.3126 232.422 96.5737 232.801 95.3964L233.017 95.5048L233.021 95.5045Z" fill="url(#paint39_linear_312_90)"/>
<g style="mix-blend-mode:multiply" opacity="0.6">
<path d="M233.501 97.4615C233.501 97.4615 233.642 97.6281 233.67 97.7131C233.697 97.7982 232.243 99.0808 230.657 99.0278C229.071 98.9749 227.766 97.6776 227.74 97.5169C227.718 97.352 227.983 97.158 227.983 97.158C227.983 97.158 229.215 97.3927 230.71 97.4417C232.204 97.4907 233.501 97.4655 233.501 97.4655L233.501 97.4615Z" fill="#C978B1"/>
</g>
<path d="M229.458 97.0338C229.686 96.9147 229.303 96.5268 229.197 96.54C229.09 96.5492 229.024 96.7894 229.077 96.9438C229.13 97.0981 229.363 97.0818 229.458 97.0299L229.458 97.0338Z" fill="#FBC9B8"/>
<path d="M257.552 96.1581C257.401 96.5765 257.251 96.9472 257.097 97.2785L257.086 97.2953C255.98 99.6524 254.737 100.07 254.116 101.118C253.579 102.023 251.721 103.73 250.431 101.505L250.426 101.498C250.426 101.498 252.313 93.4422 253.121 92.0409C253.121 92.0409 254.297 89.936 255.904 89.8163C257.969 89.6647 258.865 92.4757 257.552 96.1581V96.1581Z" fill="url(#paint40_linear_312_90)"/>
<path style="mix-blend-mode:multiply" opacity="0.6" d="M251.678 96.5095C251.678 96.5095 255.449 92.395 256.991 92.3048C258.532 92.2146 257.242 95.9745 256.762 97.2202C256.282 98.4659 255.723 99.1622 255.723 99.1622C255.723 99.1622 256.314 97.6961 256.558 96.4749C256.911 94.7237 256.561 93.1288 255.911 93.1854C255.26 93.2419 254.104 95.3451 254.014 95.5913C253.924 95.8375 254.33 96.3545 254.111 97.7206C253.893 99.0907 253.028 100.485 252.677 100.42C252.325 100.351 252.632 99.2637 252.811 97.9806C252.989 96.6975 251.954 96.8073 251.397 97.5789L251.678 96.5095Z" fill="url(#paint41_linear_312_90)"/>
<path style="mix-blend-mode:multiply" opacity="0.6" d="M251.397 97.5749C251.397 97.5749 252.373 96.4688 252.781 97.0891C253.188 97.7093 252.626 99.1966 252.969 99.4331C253.315 99.6693 253.984 98.4946 254.047 97.3486C254.11 96.1988 253.802 95.1169 253.135 95.2185L251.681 96.5051L251.4 97.5746L251.397 97.5749Z" fill="url(#paint42_linear_312_90)"/>
<path style="mix-blend-mode:multiply" d="M257.086 97.2913C255.979 99.6484 254.736 100.066 254.116 101.114C253.579 102.019 251.72 103.726 250.43 101.501C250.514 101.593 251.32 102.457 252.287 102.25C253.309 102.03 253.747 101.166 254.255 100.521C254.759 99.8736 255.883 99.5416 257.086 97.2913Z" fill="url(#paint43_linear_312_90)"/>
<path d="M232.844 66.7984C232.844 66.7984 233.762 62.5901 232.103 60.4176C230.493 58.3083 227.376 57.6414 225.399 58.6277C222.977 59.8394 223.548 62.7064 223.548 62.7064C223.548 62.7064 224.879 61.6093 228.396 61.7489C231.399 61.8695 232.165 64.513 230.432 66.9364L232.844 66.7984V66.7984Z" fill="#3F313D"/>
<path d="M259.299 77.8518C256.933 84.1926 255.739 92.8556 255.739 92.8556C254.564 94.0225 252.83 96.8315 252.83 96.8315C251.747 94.3427 249.671 79.5504 249.671 79.5504C248.722 77.9997 242.515 71.8711 234.237 71.5809C225.959 71.2907 222.143 75.715 222.143 75.715C220.512 78.7653 219.027 87.6919 219.027 87.6919C218.076 87.1745 217.505 85.7737 217.505 85.7737C217.114 89.0064 215.716 94.1347 215.716 94.1347C214.735 93.2702 213.749 91.8061 213.749 91.8061C214.224 87.3422 211.633 74.0331 211.633 74.0331C212.409 71.5736 224.303 65.3628 227.17 64.4263C228.333 64.0471 229.397 64.1653 230.255 64.4365C231.509 64.8362 232.312 65.573 232.312 65.573C233.948 64.0005 238.715 64.3056 243.929 65.3666C245.782 65.7421 247.695 66.2158 249.54 66.735C256.586 68.7098 258.44 72.9912 258.44 72.9912C257.239 73.0796 254.748 71.8496 254.557 71.7549C257.595 73.4738 258.816 76.3679 259.176 77.4413C259.262 77.704 259.304 77.8594 259.304 77.8594L259.299 77.8518Z" fill="#3F313D"/>
<g style="mix-blend-mode:multiply" opacity="0.9">
<path d="M259.299 77.8519C258.803 79.1824 258.359 80.6157 257.967 82.0524C256.489 87.4499 255.742 92.8513 255.742 92.8513C254.568 94.0182 252.833 96.8273 252.833 96.8273C252.158 95.2766 251.101 88.963 250.396 84.4108C249.969 81.6505 249.675 79.5461 249.675 79.5461C248.726 77.9954 242.519 71.8668 234.241 71.5766C225.962 71.2864 222.146 75.7107 222.146 75.7107C221.613 76.7107 221.095 78.3412 220.639 80.0855C219.705 83.6554 219.034 87.6874 219.034 87.6874C218.083 87.1699 217.513 85.7691 217.513 85.7691C217.122 89.0019 215.724 94.1301 215.724 94.1301C214.743 93.2656 213.757 91.8015 213.757 91.8015C214.011 89.4152 213.39 84.51 212.755 80.4524C212.202 76.9163 211.641 74.0245 211.641 74.0245C214.649 72.889 216.292 73.3583 216.292 73.3583C216.292 73.3583 214.504 75.0632 213.878 76.127C213.878 76.127 216.939 76.6002 218.537 76.2905C218.537 76.2905 219.814 73.1 221.331 71.2238C223.269 68.8302 225.067 68.2131 230.677 68.7072L232.312 65.5652C233.947 63.9926 238.714 64.2977 243.929 65.3588C247.9 68.1728 251.227 70.1965 253.775 82.9689C253.775 82.9689 256.111 79.6666 256.517 78.3002C256.517 78.3002 256.111 76.4201 256.011 75.3122C256.011 75.3122 257.986 75.8678 259.179 77.4292C259.265 77.6919 259.307 77.8472 259.307 77.8472L259.299 77.8519Z" fill="#3F313D"/>
</g>
<path d="M250.503 68.2686C249.45 65.6064 248.189 63.1251 247.066 62.3604C244.502 60.6122 238.298 60.1855 235.984 61.1414C234.408 61.791 232.225 65.6602 230.994 68.0559L230.964 68.1181C230.495 69.033 230.173 69.7206 230.079 69.9155L230.062 69.9488L230.052 69.9735L230.073 69.9876C230.061 69.9807 230.048 69.9738 230.036 69.9709C230.036 69.9709 230.036 69.9709 230.032 69.9713C228.714 69.3388 227.034 68.8449 225.348 69.202C221.731 69.9731 221.406 73.2756 221.243 73.9613C221.08 74.647 222.671 82.4362 224.482 84.0233C224.482 84.0233 224.529 83.8364 224.612 83.5153C225.019 81.9342 226.274 77.1165 226.805 75.6796C227.767 73.0846 232.577 71.594 232.577 71.594C238.265 71.2469 241.365 77.3394 241.998 78.9573C242.121 79.2764 242.131 79.7564 242.057 80.3231C241.782 82.5961 240.264 86.2565 240.219 86.3717C240.422 86.3342 246.986 85.1401 248.866 83.9158C250.777 82.673 252.705 77.5584 252.812 76.1782C252.871 75.4021 251.862 71.6911 250.508 68.2761L250.503 68.2686Z" fill="#3F313D"/>
<g style="mix-blend-mode:multiply" opacity="0.9">
<path d="M237.404 62.1585C237.404 62.1585 244.579 64.3804 246.592 71.9104C248.605 79.4404 242.338 84.6935 240.21 86.3645C240.21 86.3645 244.397 80.3066 244.761 74.851C245.056 70.4226 242.18 64.8113 237.404 62.1585V62.1585Z" fill="#3F313D"/>
</g>
<g style="mix-blend-mode:multiply" opacity="0.9">
<path d="M242.053 80.3155C242.123 79.7492 242.117 79.2689 241.994 78.9498C241.861 78.6077 241.619 78.0684 241.266 77.4354C239.98 75.1192 237.229 71.5316 232.961 71.5726C232.834 71.5757 232.703 71.5791 232.573 71.5864C232.573 71.5864 227.762 73.0732 226.8 75.6721C226.265 77.1093 225.015 81.9266 224.608 83.5077C224.608 83.5077 224.506 75.3826 225.559 72.0009C226.556 68.795 229.707 69.8445 230.031 69.9634L230.035 69.9631C230.052 69.9656 230.056 69.9692 230.056 69.9692L230.066 69.9445L230.964 68.1142L230.994 68.0519C234.397 65.0542 239.292 67.9232 241.475 71.8304C243.658 75.7415 242.053 80.3116 242.053 80.3116L242.053 80.3155Z" fill="#3F313D"/>
</g>
<g style="mix-blend-mode:multiply" opacity="0.9">
<path d="M252.807 76.1707C252.704 77.5505 250.772 82.6615 248.862 83.9083C246.981 85.1326 240.417 86.3266 240.214 86.3641C240.375 86.2548 245.558 82.7012 248.018 78.49C249.875 75.3048 250.489 68.4287 250.503 68.2685C251.857 71.6835 252.867 75.3946 252.807 76.1707Z" fill="#3F313D"/>
</g>
<g style="mix-blend-mode:multiply" opacity="0.9">
<path d="M241.266 77.4354C239.98 75.1193 237.229 71.5317 232.961 71.5726C232.961 71.5726 230.709 68.8038 233.974 68.8302C237.238 68.8526 240.675 73.4694 241.266 77.4354Z" fill="#3F313D"/>
</g>
<g style="mix-blend-mode:multiply" opacity="0.9">
<path d="M220.635 80.0898C219.702 83.6597 219.031 87.6916 219.031 87.6916C218.08 87.1742 217.509 85.7734 217.509 85.7734C217.118 89.0061 215.72 94.1343 215.72 94.1343C214.739 93.2699 213.753 91.8057 213.753 91.8057C214.007 89.4194 213.386 84.5142 212.752 80.4567C212.752 80.4567 216.402 83.8669 217.504 83.9777C218.586 84.0824 220.564 80.235 220.639 80.0894L220.635 80.0898Z" fill="#3F313D"/>
</g>
<g style="mix-blend-mode:multiply" opacity="0.9">
<path d="M257.964 82.0567C256.485 87.4542 255.739 92.8556 255.739 92.8556C254.564 94.0225 252.83 96.8316 252.83 96.8316C252.154 95.2809 251.097 88.9672 250.392 84.4151C251.901 87.7451 253.809 88.5728 254.853 88.3311C255.881 88.0947 257.9 82.2371 257.959 82.0531L257.964 82.0567Z" fill="#3F313D"/>
</g>
<g style="mix-blend-mode:multiply" opacity="0.6">
<path d="M227.835 105.428C227.835 105.428 229.422 107.317 231.301 107.316C233.181 107.316 234.637 105.421 234.637 105.421C234.637 105.421 231.209 106.673 227.835 105.428Z" fill="#CE78B1"/>
</g>
<path d="M231.295 103.59C231.295 103.59 228.496 103.471 226.258 104.794C226.258 104.794 228.658 106.032 231.301 106.029C233.943 106.026 236.338 104.785 236.338 104.785C234.098 103.465 231.299 103.589 231.299 103.589L231.295 103.59Z" fill="#EF7172"/>
<path d="M232.134 102.309C231.693 102.307 231.292 102.549 231.292 102.549C231.292 102.549 230.894 102.309 230.453 102.308C230.012 102.306 227.694 103.072 226.734 104.55C226.734 104.55 229.293 103.589 231.291 103.586C233.29 103.583 235.852 104.541 235.852 104.541C234.889 103.063 232.57 102.303 232.13 102.305L232.134 102.309Z" fill="#DE4E6C"/>
<path d="M224.89 103.411C224.988 103.526 225.093 103.64 225.194 103.754C225.296 103.868 225.4 103.979 225.509 104.084C225.618 104.19 225.722 104.3 225.838 104.397C225.95 104.495 226.069 104.588 226.185 104.642C226.214 104.655 226.239 104.661 226.255 104.663C226.259 104.663 226.255 104.663 226.266 104.662L226.294 104.66L226.345 104.655C226.412 104.65 226.483 104.636 226.548 104.614C226.68 104.579 226.81 104.516 226.943 104.445C227.205 104.303 227.477 104.144 227.764 104.012C228.336 103.739 228.959 103.586 229.578 103.492C229.888 103.446 230.2 103.419 230.512 103.399C230.824 103.38 231.133 103.373 231.444 103.378C231.754 103.379 232.065 103.396 232.377 103.42C232.689 103.445 233.002 103.477 233.309 103.538C233.927 103.651 234.543 103.836 235.102 104.133C235.38 104.276 235.645 104.444 235.905 104.552C236.037 104.608 236.167 104.641 236.307 104.648C236.347 104.653 236.366 104.651 236.394 104.649C236.422 104.646 236.453 104.64 236.484 104.629C236.546 104.612 236.611 104.582 236.675 104.549C236.93 104.415 237.172 104.224 237.401 104.029C237.63 103.83 237.854 103.62 238.066 103.403L238.126 103.453C237.937 103.7 237.735 103.932 237.52 104.158C237.301 104.379 237.073 104.594 236.798 104.769C236.726 104.811 236.654 104.849 236.569 104.88C236.527 104.896 236.484 104.907 236.437 104.919C236.39 104.927 236.335 104.928 236.295 104.932C236.125 104.931 235.955 104.898 235.799 104.844C235.643 104.79 235.498 104.719 235.357 104.651C235.22 104.584 235.083 104.516 234.947 104.453C233.865 103.939 232.647 103.822 231.438 103.812C230.833 103.805 230.227 103.829 229.63 103.909C229.332 103.947 229.038 103.996 228.746 104.069C228.458 104.142 228.176 104.234 227.9 104.346C227.624 104.457 227.362 104.599 227.075 104.735C226.93 104.799 226.777 104.864 226.613 104.898C226.531 104.917 226.445 104.929 226.361 104.932L226.298 104.938L226.266 104.933C226.258 104.933 226.235 104.935 226.222 104.928C226.162 104.918 226.116 104.898 226.075 104.878C225.916 104.788 225.803 104.675 225.69 104.565C225.581 104.452 225.475 104.334 225.377 104.215C225.181 103.974 225.001 103.723 224.828 103.468L224.891 103.419L224.89 103.411Z" fill="#AC334D"/>
<path d="M225.869 102.742C225.869 102.742 224.826 103.174 224.218 104.268C224.218 104.268 223.916 103.535 224.475 102.974C225.034 102.413 225.865 102.738 225.865 102.738L225.869 102.742Z" fill="#DC6B7D"/>
<path d="M236.8 102.694C236.8 102.694 237.893 102.834 238.588 104.101C238.588 104.101 238.749 103.395 238.347 102.886C237.945 102.38 236.8 102.69 236.8 102.69L236.8 102.694Z" fill="#DC6B7D"/>
<g style="mix-blend-mode:soft-light" opacity="0.5">
<path d="M234.895 105.367C234.895 105.367 234.869 104.789 234.298 104.676C234.024 104.624 232.978 105.069 232.627 105.199C232.188 105.36 232.509 105.948 232.509 105.948C232.509 105.948 233.473 105.884 234.895 105.367Z" fill="#FDF7BA"/>
</g>
<g style="mix-blend-mode:multiply" opacity="0.9">
<path d="M228.441 85.5033C228.441 85.5033 227.449 85.0173 225.004 84.8204C224.279 84.7601 223.426 84.727 222.434 84.7416C218.095 84.7927 215.004 85.4387 215.004 85.4387C215.034 85.3646 216.313 83.5368 217.884 82.7686C217.873 82.7854 217.666 83.1014 217.676 83.4462C217.676 83.4462 219.491 82.1919 221.945 81.7602C222.403 81.6807 222.879 81.6274 223.375 81.6201C226.513 81.5621 227.883 83.9345 227.883 83.9345C227.883 83.9345 227.831 83.335 227.521 82.9607C227.521 82.9607 228.508 83.6696 228.449 85.5027L228.441 85.5033Z" fill="#010101"/>
<g style="mix-blend-mode:multiply" opacity="0.6">
<path d="M225.004 84.8166C224.279 84.7563 223.426 84.7231 222.434 84.7378C218.095 84.7888 215.004 85.4348 215.004 85.4348C215.033 85.3607 216.313 83.533 217.883 82.7648C217.873 82.7816 217.666 83.0976 217.676 83.4424C217.676 83.4424 219.49 82.1881 221.944 81.7564C221.068 82.1385 219.161 83.0115 218.016 84.4262C218.016 84.4262 220.394 83.7189 225.012 84.8159L225.004 84.8166Z" fill="#010101"/>
</g>
</g>
<g style="mix-blend-mode:multiply" opacity="0.9">
<path d="M238.3 85.9623C238.3 85.9623 239.334 85.5704 241.785 85.5999C242.513 85.6082 243.363 85.6575 244.35 85.7586C248.665 86.2143 251.682 87.1442 251.682 87.1442C251.659 87.0667 250.553 85.1283 249.063 84.2167C249.073 84.2357 249.249 84.5661 249.207 84.9115C249.207 84.9115 247.518 83.4926 245.117 82.8349C244.669 82.7109 244.196 82.6169 243.706 82.5601C240.584 82.2114 239.002 84.4429 239.002 84.4429C239.002 84.4429 239.105 83.8498 239.453 83.5057C239.453 83.5057 238.402 84.1215 238.295 85.9508L238.3 85.9623Z" fill="#010101"/>
<g style="mix-blend-mode:multiply" opacity="0.6">
<path d="M241.785 85.5999C242.513 85.6082 243.363 85.6536 244.35 85.7586C248.665 86.2143 251.682 87.1443 251.682 87.1443C251.659 87.0667 250.553 85.1283 249.063 84.2167C249.073 84.2357 249.249 84.5661 249.207 84.9115C249.207 84.9115 247.518 83.4926 245.117 82.8349C245.956 83.2985 247.771 84.3448 248.781 85.8585C248.781 85.8585 246.479 84.9339 241.78 85.5963L241.785 85.5999Z" fill="#010101"/>
</g>
</g>
<defs>
<linearGradient id="paint0_linear_312_90" x1="0.777274" y1="212.864" x2="132.66" y2="217.491" gradientUnits="userSpaceOnUse">
<stop stop-color="#F67C01"/>
<stop offset="1" stop-color="#BB5E00"/>
</linearGradient>
<linearGradient id="paint1_linear_312_90" x1="280.553" y1="160.922" x2="277.019" y2="295.63" gradientUnits="userSpaceOnUse">
<stop offset="0.213542" stop-color="#D2CECE"/>
<stop offset="1" stop-color="#393535"/>
</linearGradient>
<linearGradient id="paint2_linear_312_90" x1="280.553" y1="160.922" x2="277.019" y2="295.63" gradientUnits="userSpaceOnUse">
<stop offset="0.213542" stop-color="#D2CECE"/>
<stop offset="1" stop-color="#393535"/>
</linearGradient>
<linearGradient id="paint3_linear_312_90" x1="143.414" y1="249.999" x2="141.72" y2="314.547" gradientUnits="userSpaceOnUse">
<stop stop-color="#404040"/>
<stop offset="1"/>
</linearGradient>
<linearGradient id="paint4_linear_312_90" x1="144.96" y1="191.065" x2="146.801" y2="120.904" gradientUnits="userSpaceOnUse">
<stop/>
<stop offset="1" stop-color="#7A7A7A"/>
</linearGradient>
<linearGradient id="paint5_linear_312_90" x1="397.832" y1="186.466" x2="395.549" y2="273.465" gradientUnits="userSpaceOnUse">
<stop stop-color="#8C8B8B"/>
<stop offset="1"/>
</linearGradient>
<linearGradient id="paint6_linear_312_90" x1="128.858" y1="162.559" x2="125.765" y2="280.428" gradientUnits="userSpaceOnUse">
<stop offset="0.1875" stop-color="white"/>
<stop offset="1" stop-color="#393535"/>
</linearGradient>
<linearGradient id="paint7_linear_312_90" x1="386.975" y1="172.139" x2="383.882" y2="290.009" gradientUnits="userSpaceOnUse">
<stop offset="0.135417" stop-color="white"/>
<stop offset="1" stop-color="#393535"/>
</linearGradient>
<linearGradient id="paint8_linear_312_90" x1="317.706" y1="243.339" x2="318.663" y2="206.856" gradientUnits="userSpaceOnUse">
<stop offset="0.0885417" stop-color="#212121"/>
<stop offset="1" stop-color="#606060"/>
</linearGradient>
<linearGradient id="paint9_linear_312_90" x1="255.034" y1="85.2194" x2="282.171" y2="135.401" gradientUnits="userSpaceOnUse">
<stop stop-color="#F8A795"/>
<stop offset="0.43" stop-color="#F8A997"/>
<stop offset="0.52" stop-color="#F7A290"/>
<stop offset="0.76" stop-color="#F69684"/>
<stop offset="1" stop-color="#F69280"/>
</linearGradient>
<linearGradient id="paint10_linear_312_90" x1="287.298" y1="74.5909" x2="292.715" y2="84.6091" gradientUnits="userSpaceOnUse">
<stop stop-color="#F8A795"/>
<stop offset="0.43" stop-color="#F8A997"/>
<stop offset="0.52" stop-color="#F7A290"/>
<stop offset="0.76" stop-color="#F69684"/>
<stop offset="1" stop-color="#F69280"/>
</linearGradient>
<linearGradient id="paint11_linear_312_90" x1="280.131" y1="75.7437" x2="285.236" y2="85.1839" gradientUnits="userSpaceOnUse">
<stop stop-color="#F8A795"/>
<stop offset="0.43" stop-color="#F8A997"/>
<stop offset="0.52" stop-color="#F7A290"/>
<stop offset="0.76" stop-color="#F69684"/>
<stop offset="1" stop-color="#F69280"/>
</linearGradient>
<linearGradient id="paint12_linear_312_90" x1="284.373" y1="73.4944" x2="286.842" y2="78.0595" gradientUnits="userSpaceOnUse">
<stop stop-color="#F8A795"/>
<stop offset="0.43" stop-color="#F8A997"/>
<stop offset="0.52" stop-color="#F7A290"/>
<stop offset="0.76" stop-color="#F69684"/>
<stop offset="1" stop-color="#F69280"/>
</linearGradient>
<linearGradient id="paint13_linear_312_90" x1="290.622" y1="68.3962" x2="295.117" y2="76.7082" gradientUnits="userSpaceOnUse">
<stop stop-color="#F8A795"/>
<stop offset="0.43" stop-color="#F8A997"/>
<stop offset="0.52" stop-color="#F7A290"/>
<stop offset="0.76" stop-color="#F69684"/>
<stop offset="1" stop-color="#F69280"/>
</linearGradient>
<linearGradient id="paint14_linear_312_90" x1="281.471" y1="70.5817" x2="285.967" y2="78.8972" gradientUnits="userSpaceOnUse">
<stop stop-color="#F8A795"/>
<stop offset="0.43" stop-color="#F8A997"/>
<stop offset="0.52" stop-color="#F7A290"/>
<stop offset="0.76" stop-color="#F69684"/>
<stop offset="1" stop-color="#F69280"/>
</linearGradient>
<linearGradient id="paint15_linear_312_90" x1="287.441" y1="69.338" x2="292.109" y2="77.9703" gradientUnits="userSpaceOnUse">
<stop stop-color="#F8A795"/>
<stop offset="0.43" stop-color="#F8A997"/>
<stop offset="0.52" stop-color="#F7A290"/>
<stop offset="0.76" stop-color="#F69684"/>
<stop offset="1" stop-color="#F69280"/>
</linearGradient>
<linearGradient id="paint16_linear_312_90" x1="284.499" y1="70.1143" x2="289.167" y2="78.7466" gradientUnits="userSpaceOnUse">
<stop stop-color="#F8A795"/>
<stop offset="0.43" stop-color="#F8A997"/>
<stop offset="0.52" stop-color="#F7A290"/>
<stop offset="0.76" stop-color="#F69684"/>
<stop offset="1" stop-color="#F69280"/>
</linearGradient>
<linearGradient id="paint17_linear_312_90" x1="232.555" y1="129.247" x2="239.57" y2="142.218" gradientUnits="userSpaceOnUse">
<stop stop-color="#F8A795"/>
<stop offset="0.43" stop-color="#F8A997"/>
<stop offset="0.52" stop-color="#F7A290"/>
<stop offset="0.76" stop-color="#F69684"/>
<stop offset="1" stop-color="#F69280"/>
</linearGradient>
<linearGradient id="paint18_linear_312_90" x1="194.776" y1="93.667" x2="196.415" y2="150.697" gradientUnits="userSpaceOnUse">
<stop stop-color="#F8A795"/>
<stop offset="0.43" stop-color="#F8A997"/>
<stop offset="0.52" stop-color="#F7A290"/>
<stop offset="0.76" stop-color="#F69684"/>
<stop offset="1" stop-color="#F69280"/>
</linearGradient>
<linearGradient id="paint19_linear_312_90" x1="161.531" y1="100.626" x2="161.858" y2="112.011" gradientUnits="userSpaceOnUse">
<stop stop-color="#F8A795"/>
<stop offset="0.43" stop-color="#F8A997"/>
<stop offset="0.52" stop-color="#F7A290"/>
<stop offset="0.76" stop-color="#F69684"/>
<stop offset="1" stop-color="#F69280"/>
</linearGradient>
<linearGradient id="paint20_linear_312_90" x1="168.311" y1="98.0354" x2="168.62" y2="108.759" gradientUnits="userSpaceOnUse">
<stop stop-color="#F8A795"/>
<stop offset="0.43" stop-color="#F8A997"/>
<stop offset="0.52" stop-color="#F7A290"/>
<stop offset="0.76" stop-color="#F69684"/>
<stop offset="1" stop-color="#F69280"/>
</linearGradient>
<linearGradient id="paint21_linear_312_90" x1="163.509" y1="98.213" x2="163.658" y2="103.401" gradientUnits="userSpaceOnUse">
<stop stop-color="#F8A795"/>
<stop offset="0.43" stop-color="#F8A997"/>
<stop offset="0.52" stop-color="#F7A290"/>
<stop offset="0.76" stop-color="#F69684"/>
<stop offset="1" stop-color="#F69280"/>
</linearGradient>
<linearGradient id="paint22_linear_312_90" x1="155.551" y1="96.925" x2="155.823" y2="106.375" gradientUnits="userSpaceOnUse">
<stop stop-color="#F8A795"/>
<stop offset="0.43" stop-color="#F8A997"/>
<stop offset="0.52" stop-color="#F7A290"/>
<stop offset="0.76" stop-color="#F69684"/>
<stop offset="1" stop-color="#F69280"/>
</linearGradient>
<linearGradient id="paint23_linear_312_90" x1="164.563" y1="94.2383" x2="164.834" y2="103.684" gradientUnits="userSpaceOnUse">
<stop stop-color="#F8A795"/>
<stop offset="0.43" stop-color="#F8A997"/>
<stop offset="0.52" stop-color="#F7A290"/>
<stop offset="0.76" stop-color="#F69684"/>
<stop offset="1" stop-color="#F69280"/>
</linearGradient>
<linearGradient id="paint24_linear_312_90" x1="158.772" y1="96.1512" x2="159.054" y2="105.961" gradientUnits="userSpaceOnUse">
<stop stop-color="#F8A795"/>
<stop offset="0.43" stop-color="#F8A997"/>
<stop offset="0.52" stop-color="#F7A290"/>
<stop offset="0.76" stop-color="#F69684"/>
<stop offset="1" stop-color="#F69280"/>
</linearGradient>
<linearGradient id="paint25_linear_312_90" x1="161.708" y1="95.35" x2="161.99" y2="105.16" gradientUnits="userSpaceOnUse">
<stop stop-color="#F8A795"/>
<stop offset="0.43" stop-color="#F8A997"/>
<stop offset="0.52" stop-color="#F7A290"/>
<stop offset="0.76" stop-color="#F69684"/>
<stop offset="1" stop-color="#F69280"/>
</linearGradient>
<linearGradient id="paint26_linear_312_90" x1="236.28" y1="120.525" x2="236.703" y2="135.266" gradientUnits="userSpaceOnUse">
<stop stop-color="#F8A795"/>
<stop offset="0.43" stop-color="#F8A997"/>
<stop offset="0.52" stop-color="#F7A290"/>
<stop offset="0.76" stop-color="#F69684"/>
<stop offset="1" stop-color="#F69280"/>
</linearGradient>
<linearGradient id="paint27_linear_312_90" x1="219.223" y1="120.596" x2="253.893" y2="117.585" gradientUnits="userSpaceOnUse">
<stop stop-color="#F9AF9C"/>
<stop offset="0.2" stop-color="#F69B8E"/>
<stop offset="0.47" stop-color="#F48781"/>
<stop offset="0.73" stop-color="#F37B79"/>
<stop offset="1" stop-color="#F37777"/>
</linearGradient>
<linearGradient id="paint28_linear_312_90" x1="215.709" y1="92.6412" x2="253.693" y2="89.3418" gradientUnits="userSpaceOnUse">
<stop stop-color="#F8A795"/>
<stop offset="0.43" stop-color="#F8A997"/>
<stop offset="0.52" stop-color="#F7A290"/>
<stop offset="0.76" stop-color="#F69684"/>
<stop offset="1" stop-color="#F69280"/>
</linearGradient>
<linearGradient id="paint29_linear_312_90" x1="223.943" y1="93.0505" x2="223.576" y2="88.2666" gradientUnits="userSpaceOnUse">
<stop stop-color="#E6DBEC"/>
<stop offset="1" stop-color="#B8C1E2"/>
</linearGradient>
<linearGradient id="paint30_linear_312_90" x1="223.219" y1="93.0812" x2="223.248" y2="89.7446" gradientUnits="userSpaceOnUse">
<stop stop-color="#57345B"/>
<stop offset="1" stop-color="#301138"/>
</linearGradient>
<linearGradient id="paint31_linear_312_90" x1="223.22" y1="92.99" x2="223.242" y2="90.4362" gradientUnits="userSpaceOnUse">
<stop stop-color="#A093B6"/>
<stop offset="0.99" stop-color="#734B61"/>
</linearGradient>
<linearGradient id="paint32_linear_312_90" x1="227.796" y1="89.2901" x2="219.875" y2="89.2216" gradientUnits="userSpaceOnUse">
<stop stop-color="#F7A190"/>
<stop offset="0.43" stop-color="#F3A592"/>
<stop offset="0.51" stop-color="#F39F8D"/>
<stop offset="0.76" stop-color="#F49383"/>
<stop offset="1" stop-color="#F58F80"/>
</linearGradient>
<linearGradient id="paint33_linear_312_90" x1="241.32" y1="93.4277" x2="242.123" y2="87.8961" gradientUnits="userSpaceOnUse">
<stop stop-color="#E6DBEC"/>
<stop offset="1" stop-color="#B8C1E2"/>
</linearGradient>
<linearGradient id="paint34_linear_312_90" x1="239.963" y1="93.1459" x2="240.175" y2="89.5656" gradientUnits="userSpaceOnUse">
<stop stop-color="#57345B"/>
<stop offset="1" stop-color="#301138"/>
</linearGradient>
<linearGradient id="paint35_linear_312_90" x1="239.977" y1="92.9088" x2="240.133" y2="90.2769" gradientUnits="userSpaceOnUse">
<stop stop-color="#A093B6"/>
<stop offset="0.99" stop-color="#734B61"/>
</linearGradient>
<linearGradient id="paint36_linear_312_90" x1="237.121" y1="88.7662" x2="246.337" y2="89.3114" gradientUnits="userSpaceOnUse">
<stop stop-color="#F7A190"/>
<stop offset="0.43" stop-color="#F3A592"/>
<stop offset="0.51" stop-color="#F39F8D"/>
<stop offset="0.76" stop-color="#F49383"/>
<stop offset="1" stop-color="#F58F80"/>
</linearGradient>
<linearGradient id="paint37_linear_312_90" x1="230.671" y1="98.3456" x2="230.788" y2="94.856" gradientUnits="userSpaceOnUse">
<stop stop-color="#F37B7F"/>
<stop offset="0.4" stop-color="#F3817F"/>
<stop offset="1" stop-color="#F48680"/>
</linearGradient>
<linearGradient id="paint38_linear_312_90" x1="228.608" y1="97.1474" x2="228.672" y2="95.2285" gradientUnits="userSpaceOnUse">
<stop stop-color="#FBE3D4"/>
<stop offset="0.99" stop-color="#AE7CB7"/>
</linearGradient>
<linearGradient id="paint39_linear_312_90" x1="232.752" y1="97.2806" x2="232.816" y2="95.3617" gradientUnits="userSpaceOnUse">
<stop stop-color="#FBE3D4"/>
<stop offset="0.99" stop-color="#AE7CB7"/>
</linearGradient>
<linearGradient id="paint40_linear_312_90" x1="252.98" y1="106.747" x2="254.942" y2="92.7071" gradientUnits="userSpaceOnUse">
<stop stop-color="#F7A190"/>
<stop offset="0.43" stop-color="#F3A592"/>
<stop offset="0.51" stop-color="#F39F8D"/>
<stop offset="0.76" stop-color="#F49383"/>
<stop offset="1" stop-color="#F58F80"/>
</linearGradient>
<linearGradient id="paint41_linear_312_90" x1="253.495" y1="103.093" x2="254.845" y2="93.433" gradientUnits="userSpaceOnUse">
<stop stop-color="#F7A190"/>
<stop offset="0.43" stop-color="#F3A592"/>
<stop offset="0.51" stop-color="#F39F8D"/>
<stop offset="0.76" stop-color="#F49383"/>
<stop offset="1" stop-color="#F58F80"/>
</linearGradient>
<linearGradient id="paint42_linear_312_90" x1="252.446" y1="99.3294" x2="253.033" y2="95.1304" gradientUnits="userSpaceOnUse">
<stop stop-color="#F7A190"/>
<stop offset="0.43" stop-color="#F3A592"/>
<stop offset="0.51" stop-color="#F39F8D"/>
<stop offset="0.76" stop-color="#F49383"/>
<stop offset="1" stop-color="#F58F80"/>
</linearGradient>
<linearGradient id="paint43_linear_312_90" x1="256.658" y1="100.208" x2="250.706" y2="99.3767" gradientUnits="userSpaceOnUse">
<stop stop-color="#F7A190"/>
<stop offset="0.43" stop-color="#F3A592"/>
<stop offset="0.51" stop-color="#F39F8D"/>
<stop offset="0.76" stop-color="#F49383"/>
<stop offset="1" stop-color="#F58F80"/>
</linearGradient>
</defs>
</svg>
