<svg width="97" height="96" viewBox="0 0 97 96" fill="none" xmlns="http://www.w3.org/2000/svg">
<path d="M16.9546 26.2784C18.9119 23.6311 20.3674 22.3506 23.092 20.424C25.6594 18.6086 27.3243 17.8485 30.2934 16.6764C34.4841 15.022 37.0653 14.4508 41.6314 14.0029C46.0379 13.5706 48.6052 13.7322 53.0445 14.3374C57.8876 14.9976 60.6685 15.5801 65.2154 17.4503C68.8372 18.94 70.8076 20.0253 74.0073 22.2678C75.9215 23.6092 77.0491 24.3429 78.6625 26.0112C80.2159 27.6174 80.9785 28.6434 82.0894 30.5466C84.9247 35.4043 84.7192 38.8861 85.0583 44.3356C85.2347 47.1709 85.1562 48.7666 84.9376 51.5801C84.712 54.4831 84.6341 56.1456 83.8946 58.9449C82.8377 62.9463 82.2093 65.4189 79.5081 68.5711C77.3166 71.1285 75.5334 72.134 72.515 73.7653C69.8202 75.2217 68.1644 75.8745 65.1408 76.623C61.3947 77.5505 59.1046 77.3415 55.1997 77.5C50.4007 77.6949 47.6641 77.9391 42.8644 77.2859C35.9222 76.3413 31.3274 76.0435 25.6656 71.8819C22.7068 69.707 21.274 68.1062 19.1929 65.1474C17.5427 62.8012 16.8805 61.3174 15.7619 58.7176C13.3922 53.2102 12.4583 49.7818 12.3808 43.9297C12.2855 36.7401 12.7177 32.0091 16.9546 26.2784Z" fill="url(#paint0_linear_305_3)"/>
<path d="M14.9845 41.4853L17.7926 64.393C17.7926 64.393 14.4171 63.0523 12.9498 61.3752C11.2941 59.4827 11.0303 57.8721 10.5326 55.4074C10.0477 53.0064 9.98887 51.5481 10.4164 49.1363C10.9697 46.0146 14.9845 41.4853 14.9845 41.4853Z" fill="#B7B6B2"/>
<path d="M82.4322 44.8625C82.4322 44.8625 86.2623 48.5337 87.0716 50.0034C87.7606 51.2545 87.9611 52.076 88.1882 53.486C88.5457 55.7064 88.3588 57.0664 87.7348 59.2271C87.2817 60.7963 86.8875 61.6613 86.0006 63.0328C84.7793 64.9214 78.2166 69.4357 78.2166 69.4357L82.4322 44.8625Z" fill="#B7B7C3"/>
<g filter="url(#filter0_f_305_3)">
<path d="M84.7958 51.438L86.111 51.1876C86.111 51.1876 86.3822 53.1727 86.4271 54.4472C86.4884 56.1852 86.4323 57.1657 86.209 58.8793C86.1012 59.7063 86.305 60.2859 85.8513 60.9821C85.4077 61.6628 84.1087 62.1706 84.1087 62.1706C84.1087 62.1706 84.6579 59.6263 84.8241 57.965C85.0768 55.4389 84.7958 51.438 84.7958 51.438Z" fill="#62635E" fill-opacity="0.5"/>
</g>
<path d="M18.8707 31.4771C20.7876 28.8113 22.1962 27.5095 24.8215 25.5376C27.2952 23.6795 28.8892 22.8871 31.7272 21.6553C35.7331 19.9167 38.1894 19.2885 42.5208 18.7337C46.7008 18.1982 49.1261 18.295 53.3116 18.7846C57.878 19.3187 60.495 19.8266 64.7514 21.5644C68.1418 22.9487 69.9796 23.9736 72.9522 26.1125C74.7305 27.392 75.7795 28.0898 77.2651 29.6999C78.6955 31.2501 79.392 32.2459 80.3964 34.1007C82.9601 38.8346 82.6803 42.2825 82.8675 47.6628C82.9649 50.4621 82.8515 52.0419 82.5757 54.8293C82.2911 57.7055 82.1766 59.3513 81.4083 62.1375C80.3101 66.12 79.6549 68.5804 77.0217 71.7636C74.8855 74.3462 73.1735 75.3842 70.2775 77.0712C67.6921 78.5774 66.1093 79.2635 63.2301 80.0779C59.6628 81.0868 57.501 80.9362 53.8023 81.1887C49.2568 81.4991 46.6614 81.8077 42.1359 81.2795C35.5904 80.5156 31.2502 80.3338 25.995 76.3575C23.2487 74.2794 21.9323 72.7316 20.0357 69.8569C18.5317 67.5774 17.9416 66.1264 16.9469 63.5831C14.8397 58.1953 14.0401 54.8281 14.1102 49.0433C14.1964 41.9364 14.7213 37.2476 18.8707 31.4771Z" fill="url(#paint1_linear_305_3)"/>
<path d="M25.5417 39.3833C29.0865 36.9434 30.4043 36.1535 33.853 34.7898C37.8022 33.228 40.224 32.8055 44.4426 32.3158C48.5417 31.84 50.8956 31.9399 55.0095 32.2647C60.7505 32.7181 63.417 33.3925 67.4467 35.2288C70.2944 36.5264 71.395 39.1683 72.1026 42.2166C73.0149 46.147 73.218 47.0447 73.4175 51.1967C73.5767 54.5112 73.0633 59.6865 73.0633 59.6865C73.0633 59.6865 72.3807 63.9709 70.411 65.507C65.3783 69.4317 58.7333 71.3801 50.6147 72.1664C42.1422 72.987 39.4355 73.5606 29.3419 68.4204C24.9268 65.0567 20.7045 54.3708 22.9914 44.9799C23.471 43.0108 23.8723 40.5323 25.5417 39.3833Z" fill="url(#paint2_linear_305_3)"/>
<path fill-rule="evenodd" clip-rule="evenodd" d="M33.4911 34.0622C29.9079 35.49 28.5379 36.3155 24.8529 38.8646C23.3093 39.9321 22.8051 42.093 22.3594 44.0018C22.3039 44.2394 22.2492 44.473 22.1937 44.7003C19.8002 54.4881 24.1623 65.6119 28.7396 69.1071C38.7105 74.1878 41.7349 73.8823 49.6015 73.0884L50.8182 72.9664C59.2488 72.1307 66.1519 70.0875 71.3849 65.9885C73.4333 64.3843 74.1505 59.9194 74.1505 59.9194C74.1505 59.9194 74.6942 54.527 74.5356 51.0743C74.3368 46.7492 74.128 45.8145 73.1887 41.7218C72.4602 38.5475 71.323 35.7975 68.369 34.4514C64.1886 32.5465 61.4215 31.8494 55.462 31.3887C51.1916 31.0588 48.7478 30.9595 44.4909 31.4635C40.11 31.9821 37.5949 32.4274 33.4911 34.0622ZM34.0069 34.7437C30.5584 36.1075 29.2406 36.8974 25.6957 39.3372C24.2116 40.3589 23.7297 42.4314 23.304 44.2625C23.2507 44.4907 23.1984 44.7154 23.1454 44.9339C20.8588 54.3249 25.0809 65.0108 29.4959 68.3743C39.1092 73.27 42.0223 72.9828 49.5974 72.2354C49.9756 72.1979 50.3654 72.1594 50.7687 72.1203C58.8874 71.3341 65.5323 69.3857 70.565 65.4609C72.5348 63.9249 73.2173 59.6405 73.2173 59.6405C73.2173 59.6405 73.7307 54.4652 73.5715 51.1506C73.372 46.9986 73.169 46.101 72.2566 42.1706C71.5489 39.1222 70.4484 36.4804 67.6007 35.1827C63.5711 33.3465 60.9046 32.6721 55.1635 32.2187C51.0498 31.8939 48.6959 31.7941 44.5966 32.2698C40.3783 32.7595 37.9564 33.1821 34.0069 34.7437Z" fill="url(#paint3_linear_305_3)"/>
<defs>
<filter id="filter0_f_305_3" x="80.1087" y="47.1876" width="10.3416" height="18.983" filterUnits="userSpaceOnUse" color-interpolation-filters="sRGB">
<feFlood flood-opacity="0" result="BackgroundImageFix"/>
<feBlend mode="normal" in="SourceGraphic" in2="BackgroundImageFix" result="shape"/>
<feGaussianBlur stdDeviation="2" result="effect1_foregroundBlur_305_3"/>
</filter>
<linearGradient id="paint0_linear_305_3" x1="20.7809" y1="23.6435" x2="69.9603" y2="56.3273" gradientUnits="userSpaceOnUse">
<stop stop-color="#9F9F9F"/>
<stop offset="1" stop-color="#787877"/>
</linearGradient>
<linearGradient id="paint1_linear_305_3" x1="18.0037" y1="32.1105" x2="58.4608" y2="51.898" gradientUnits="userSpaceOnUse">
<stop stop-color="#CBCBCB"/>
<stop offset="1" stop-color="#828380"/>
</linearGradient>
<linearGradient id="paint2_linear_305_3" x1="25.4169" y1="42.0299" x2="70.5752" y2="63.9598" gradientUnits="userSpaceOnUse">
<stop stop-color="#1B0A5D"/>
<stop offset="0.390625" stop-color="#1B0A5D"/>
<stop offset="0.970597" stop-color="#010005"/>
</linearGradient>
<linearGradient id="paint3_linear_305_3" x1="23.5254" y1="40.4582" x2="73.2233" y2="63.1049" gradientUnits="userSpaceOnUse">
<stop stop-color="#5B5C59"/>
<stop offset="1" stop-color="#3F403E"/>
</linearGradient>
</defs>
</svg>
