<svg width="283" height="177" viewBox="0 0 283 177" fill="none" xmlns="http://www.w3.org/2000/svg">
<path d="M108.671 15.9721C108.779 15.9657 108.671 16.2498 108.671 16.2498C108.393 16.3887 103.618 17.6587 103.245 21.5715C103.113 22.9583 103.036 23.83 103.547 25.1258C104.473 27.4708 106.486 27.8057 108.692 29.0254C111.192 30.4073 113.134 30.0094 115.583 31.4792C117.519 32.6407 119.188 33.0893 120.016 35.1891C120.654 36.8033 120.963 38.0277 120.303 39.6328C119.422 41.7764 117.79 42.5433 115.573 43.2164C113.911 43.7207 112.576 43.7468 110.842 43.6464C101.919 43.1298 100.136 31.5545 91.2044 31.8922C87.6234 32.0276 84.9626 31.57 82.3326 34.2366C80.1173 36.4826 79.6121 38.344 79.7369 41.4963C79.8716 44.8984 81.9259 46.3612 83.7489 49.2368C86.0519 52.8697 88.7572 53.965 90.6294 57.8374C91.7081 60.0687 92.6023 61.3798 92.6362 63.8579C92.6597 65.5703 92.3483 66.5439 91.7761 68.1582C90.5222 71.6962 85.6055 76.332 85.6055 76.332L85.1548 75.4042C85.1548 75.4042 89.7934 71.485 91.0594 68.0148C91.6088 66.5089 91.9354 65.6041 91.9195 64.0012C91.8952 61.5574 90.8645 60.3089 89.7693 58.1241C87.8574 54.31 85.2766 53.152 83.0322 49.5235C81.1815 46.5314 79.126 44.9787 79.0099 41.4624C78.9038 38.2516 79.6401 36.0517 81.8871 33.7557C84.5124 31.0731 87.6089 31.2808 91.4911 31.1755C100.426 30.9332 102.194 42.697 111.129 42.9297C112.812 42.9735 113.837 43.1872 115.429 42.643C117.358 41.9842 118.838 41.3847 119.586 39.4895C120.116 38.1481 120.015 37.1736 119.586 35.7964C118.878 33.5186 117.175 32.8549 115.143 31.6056C112.923 30.2406 111.142 30.6502 108.823 29.4616C106.433 28.2372 104.244 27.9341 103.245 25.4418C102.682 24.0349 102.788 23.0774 102.959 21.5715C103.403 17.6497 107.838 16.2498 108.671 15.9721Z" fill="#DDDDDD"/>
<path d="M108.671 15.9721C108.565 15.9933 108.671 16.2498 108.671 16.2498C108.671 16.2498 117.023 13.3246 120.455 16.6742C121.672 17.8614 122.431 18.6122 122.976 20.2227C123.961 23.1374 122.348 25.0387 121.252 27.9168C120.009 31.1778 117.885 32.3403 116.759 35.6432C115.869 38.2535 114.667 39.9888 115.549 42.5988C116.227 44.6051 116.904 45.9895 118.785 46.9633C121.297 48.2637 123.423 47.6895 126.022 46.5651C127.969 45.7228 129.236 44.6925 130.773 43.2303C138.689 35.7031 131.226 23.5155 139.823 16.7772C143.27 14.0756 145.391 11.5484 149.946 11.9547C153.783 12.297 155.722 13.6315 158.09 16.6656C160.647 19.9401 159.884 22.9245 160.451 27.0419C161.167 32.2435 159.508 35.3997 160.814 40.4843C161.567 43.4139 161.767 45.3409 163.689 47.6754C165.017 49.2886 166.075 49.9494 167.882 51.0009C171.841 53.3054 180.081 53.74 180.081 53.74L179.77 52.5201C179.77 52.5201 172.354 52.5332 168.437 50.3014C166.737 49.3329 165.72 48.7482 164.471 47.2429C162.567 44.948 162.544 42.9715 161.843 40.0721C160.619 35.0104 162.113 31.8942 161.346 26.7429C160.713 22.4952 161.406 19.4261 158.742 16.0599C156.309 12.9861 153.888 11.5189 149.982 11.1551C145.419 10.7301 142.694 13.3687 138.99 16.3362C130.466 23.1657 138.091 35.5171 129.941 42.7892C128.406 44.1587 127.618 45.1671 125.704 45.918C123.386 46.8271 121.533 47.4377 119.34 46.2638C117.789 45.433 117.115 44.4453 116.429 42.8247C115.293 40.1443 116.359 38.1811 117.269 35.4131C118.264 32.3888 120.248 31.3644 121.474 28.426C122.737 25.3989 124.54 23.3878 123.507 20.2783C122.923 18.5231 122.069 17.7154 120.723 16.4478C117.216 13.1469 109.366 15.8332 108.671 15.9721Z" fill="#DDDDDD"/>
<path d="M184.095 74.1164C184.39 75.1646 184.69 76.1639 184.985 77.1135C185.28 78.0631 189.039 79.0579 191.811 79.0579C194.582 79.0579 198.341 78.0639 198.636 77.1135C198.932 76.1631 199.23 75.1646 199.526 74.1164C199.526 74.1164 194.841 74.9497 191.811 74.9497C188.78 74.9497 184.095 74.1164 184.095 74.1164Z" fill="url(#paint0_linear_314_91)"/>
<path d="M204.125 55.4166C206.666 42.1482 207.483 27.2074 201.182 13.8965H182.439C176.14 27.2065 176.955 42.1482 179.497 55.4166L182.653 68.8336C182.997 70.1176 183.334 71.3535 183.668 72.5608C183.668 72.5608 188.614 73.3942 191.811 73.3942C195.008 73.3942 199.955 72.5608 199.955 72.5608C200.287 71.3535 200.626 70.116 200.969 68.8336L204.125 55.4166ZM191.812 24.3587C193.986 24.4011 195.734 26.1354 195.734 28.2801C195.734 30.4223 193.986 32.1615 191.812 32.2031C189.637 32.1615 187.889 30.4223 187.889 28.2801C187.889 26.1354 189.637 24.4011 191.812 24.3587Z" fill="url(#paint1_linear_314_91)"/>
<path d="M204.012 70.1467L200.97 68.8341L204.125 55.4172C205.474 57.2836 211.527 63.9664 211.527 63.9664L210.42 81.5772H206.806L204.012 70.1467Z" fill="url(#paint2_linear_314_91)"/>
<path d="M172.096 63.9664C172.096 63.9664 178.147 57.2836 179.497 55.4172L182.653 68.8341L179.611 70.1467L176.817 81.5772H173.203L172.096 63.9664Z" fill="url(#paint3_linear_314_91)"/>
<path d="M200.386 12.3385C198.217 8.267 191.999 0 191.791 0C191.581 0 185.406 8.267 183.239 12.3385C183.239 12.3385 188.448 13.1718 191.812 13.1718C195.176 13.1718 200.386 12.3385 200.386 12.3385Z" fill="url(#paint4_linear_314_91)"/>
<path d="M184.095 74.1163L183.668 72.5608C183.668 72.5608 188.614 73.3941 191.811 73.3941C195.008 73.3941 199.955 72.5608 199.955 72.5608L199.526 74.1163C199.526 74.1163 194.841 74.9497 191.811 74.9497C188.78 74.9497 184.095 74.1163 184.095 74.1163Z" fill="url(#paint5_linear_314_91)"/>
<path d="M182.439 13.8968L183.239 12.3386C183.239 12.3386 188.449 13.1719 191.813 13.1719C195.177 13.1719 200.386 12.3386 200.386 12.3386L201.182 13.8968C201.182 13.8968 195.485 14.7301 191.811 14.7301C188.137 14.7301 182.439 13.8968 182.439 13.8968Z" fill="url(#paint6_linear_314_91)"/>
<path d="M195.734 28.2801C195.734 26.1354 193.985 24.4011 191.811 24.3587C189.637 24.4011 187.889 26.1354 187.889 28.2801C187.889 30.4223 189.637 32.1615 191.811 32.2031C193.985 32.1615 195.734 30.4223 195.734 28.2801Z" fill="url(#paint7_linear_314_91)"/>
<g filter="url(#filter0_f_314_91)">
<ellipse cx="225.186" cy="82.8719" rx="53.0897" ry="1.29488" fill="black"/>
</g>
<path d="M30.7092 126.658L33.2896 127.661L41.6034 124.651C41.6034 124.651 43.3151 126.081 44.3269 127.088C45.0851 127.842 45.6756 128.157 46.1904 129.095C46.3956 129.468 46.751 129.692 46.6204 130.098C46.5106 130.439 46.237 130.54 45.9037 130.671C45.4872 130.836 45.201 130.729 44.7569 130.671C43.7141 130.535 42.4634 129.525 42.0334 129.811C41.6034 130.098 41.5584 130.78 41.3167 131.675C41.075 132.569 42.7946 135.032 42.0334 136.978C41.8235 137.515 41.8336 138.014 41.3167 138.269C40.915 138.467 40.5998 138.394 40.1699 138.269C39.3712 138.035 39.2313 137.361 38.7365 136.692C37.8134 135.444 37.0164 133.108 37.0164 133.108C37.0164 133.108 37.5702 134.921 37.7331 136.118C37.8465 136.952 38.0827 137.453 37.8764 138.269C37.7719 138.682 37.8035 139.039 37.4464 139.272C37.2073 139.428 37.0151 139.415 36.7297 139.415C36.4442 139.415 36.2723 139.391 36.013 139.272C35.544 139.056 35.4351 138.701 35.1529 138.269C34.7549 137.659 34.7077 137.224 34.4362 136.548C33.8349 135.053 33.0027 132.678 33.0027 132.678C33.0027 132.678 33.2826 135.323 33.0027 136.978C32.9167 137.487 33.1515 137.991 32.7161 138.269C32.5213 138.392 32.3735 138.412 32.1427 138.412C31.9119 138.412 31.7779 138.367 31.5693 138.269C31.0221 138.009 30.9869 137.517 30.7092 136.978C30.2789 136.145 30.1646 135.607 29.9925 134.685C29.7257 133.254 29.6365 132.416 29.7059 130.958C29.7489 130.056 29.7796 129.542 29.9925 128.665C30.1888 127.856 30.7092 126.658 30.7092 126.658Z" fill="#C0C0C0"/>
<path d="M33.0028 86.5216C33.0028 86.5216 42.1144 76.7027 49.6307 73.0473C57.6577 69.1435 71.9923 68.317 71.9923 68.317C71.9923 68.317 77.811 76.7455 80.5929 82.6514C84.7741 91.5281 87.7599 106.733 87.7599 106.733L56.3676 125.224C56.3676 125.224 47.8403 115.464 43.4669 108.453C38.4443 100.402 33.0028 86.5216 33.0028 86.5216Z" fill="#CACACA"/>
<path d="M44.1836 71.3271C36.6673 74.9825 27.5557 84.8014 27.5557 84.8014C27.5557 84.8014 32.9972 98.6814 38.0198 106.733C42.3932 113.744 50.9204 123.504 50.9204 123.504L56.3678 125.224C56.3678 125.224 47.8402 115.464 43.4668 108.453C38.4442 100.402 33.0028 86.5216 33.0028 86.5216C33.0028 86.5216 42.1143 76.7027 49.6306 73.0473C57.6576 69.1435 71.9922 68.3169 71.9922 68.3169C71.9922 68.3169 77.8111 76.7454 80.5928 82.6513C84.4553 90.8509 87.2975 104.45 87.7085 106.477L87.76 106.446C87.76 106.446 85.9005 92.5777 82.313 84.5148C79.2638 77.6618 71.9922 68.3169 71.9922 68.3169L66.5452 66.5968C66.5452 66.5968 52.2105 67.4233 44.1836 71.3271Z" fill="#ACAAAA"/>
<path d="M27.5557 84.8015C27.5557 84.8015 32.9972 98.6814 38.0198 106.733C42.3932 113.744 50.9204 123.504 50.9204 123.504L56.3678 125.224C56.3678 125.224 47.8402 115.464 43.4668 108.453C38.4442 100.402 33.0028 86.5216 33.0028 86.5216L27.5557 84.8015Z" fill="#BBB8B8"/>
<path d="M37.0163 133.108C37.0163 133.108 37.8134 135.444 38.7364 136.692C39.2313 137.361 39.3711 138.035 40.1699 138.269C40.5997 138.395 40.915 138.467 41.3166 138.269C41.7183 138.071 41.4143 137.65 41.1736 137.409C40.9328 137.168 40.6138 137.426 40.3135 137.265C39.8053 136.994 39.9002 136.465 39.5968 135.975C39.237 135.394 38.9364 135.133 38.5934 134.542C38.3421 134.109 38.4193 133.697 38.02 133.395C37.6949 133.149 37.0163 133.108 37.0163 133.108Z" fill="#D6D6D6"/>
<path d="M33.0025 132.678C33.0025 132.678 33.8346 135.053 34.4359 136.549C34.7074 137.224 34.7547 137.659 35.1527 138.269C35.4349 138.701 35.5438 139.057 36.0127 139.272C36.2721 139.391 36.444 139.415 36.7294 139.415C37.0149 139.415 36.889 139.072 36.8731 138.842C36.8429 138.406 36.9883 138.335 36.7297 137.982C36.3436 137.456 36.1332 137.554 35.8249 136.979C35.4462 136.272 35.0712 135.407 34.7226 134.685C34.4505 134.122 34.7146 133.714 34.2929 133.252C34.0513 132.987 33.5508 132.737 33.0025 132.678Z" fill="#D6D6D6"/>
<path d="M29.9925 128.665C29.7796 129.542 29.7489 130.057 29.7059 130.958C29.6365 132.416 29.7257 133.255 29.9925 134.685C30.1646 135.608 30.2789 136.145 30.7092 136.979C30.9869 137.517 31.0221 138.01 31.5693 138.269C31.7779 138.368 31.9119 138.412 32.1427 138.412C32.1427 138.412 31.5107 136.515 31.2828 135.259C31.1018 134.261 30.932 133.69 30.9961 132.678C31.058 131.703 31.1974 131.146 31.5693 130.242C32.0301 129.122 33.2896 127.661 33.2896 127.661L30.7092 126.658C30.7092 126.658 30.1888 127.856 29.9925 128.665Z" fill="#D6D6D6"/>
<path d="M41.8245 81.6853C41.7741 81.372 42.0433 81.1084 42.3596 81.1332C43.3486 81.2107 44.1679 81.1843 45.3305 81.0746C47.8723 80.8348 49.2593 80.2826 51.6376 79.3545C52.7814 78.9082 53.4103 78.6212 54.5045 78.0644C56.567 77.0147 57.6641 76.2911 59.5215 74.9108C61.2558 73.6221 62.3871 72.9843 63.7052 71.3688C63.8584 71.1811 64.1241 71.1189 64.3268 71.2515C65.9761 72.3301 66.0276 74.1208 66.8321 75.4842C66.8321 75.4842 63.4447 76.741 61.5284 78.4944C59.4531 80.3933 58.0191 81.0998 55.3646 82.2214C52.8654 83.2773 51.0323 83.7439 48.3407 84.0848C45.9977 84.3816 43.467 85.8049 43.467 85.8049C42.6116 84.1612 42.0622 83.1631 41.8245 81.6853Z" fill="url(#paint8_linear_314_91)"/>
<path d="M87.3302 145.866C87.445 145.204 87.3302 144.146 87.3302 144.146L97.3643 146.726L96.6475 149.163C96.6475 149.163 100.403 153.206 100.948 156.474C101.235 158.194 100.417 162.064 97.9376 162.064C93.4941 162.064 91.7351 160.054 89.1937 157.047C86.9254 154.363 84.7971 152.114 85.7534 148.733C86.1012 147.503 87.1118 147.125 87.3302 145.866Z" fill="#C0C0C0"/>
<path d="M96.6476 149.163L97.3643 146.726H93.7807C93.7807 146.726 93.0944 148.014 93.2073 148.876C93.3528 149.986 94.0139 150.522 94.9274 151.17C95.8812 151.845 96.8341 151.363 97.7943 152.03C98.6777 152.643 98.893 153.302 99.5144 154.18C100.125 155.042 100.948 156.473 100.948 156.473C100.403 153.206 96.6476 149.163 96.6476 149.163Z" fill="#9C9C9C"/>
<path d="M87.3302 145.866C87.1118 147.125 86.1012 147.503 85.7534 148.733C84.7971 152.114 86.9254 154.363 89.1937 157.047C91.7351 160.054 93.4941 162.064 97.9376 162.064C97.9376 162.064 94.8499 161.316 93.2074 160.2C91.4036 158.976 90.636 157.892 89.4805 156.044C88.7241 154.833 88.1961 154.144 87.9037 152.747C87.6513 151.541 87.5089 150.76 87.9037 149.593C88.2024 148.711 88.8219 148.44 89.1937 147.586C89.5405 146.789 89.7672 145.436 89.7672 145.436L87.3302 144.146C87.3302 144.146 87.445 145.204 87.3302 145.866Z" fill="#D6D6D6"/>
<path d="M41.9477 82.3646C42.8072 82.6513 44.6832 82.7828 46.0765 82.6513C48.6183 82.4115 50.1193 82.0026 52.4977 81.0745C53.6414 80.6282 54.2704 80.3413 55.3646 79.7844C57.427 78.7348 58.8108 77.8678 60.6683 76.4875C62.5154 75.1149 64.6529 73.6206 65.3701 72.1872C65.6568 72.4739 65.965 73.3165 66.288 74.4807C66.288 74.4807 64.1906 78.031 62.2743 79.7844C60.1991 81.6833 58.7651 82.3898 56.1106 83.5114C53.6114 84.5673 51.7783 85.0339 49.0867 85.3749C46.7437 85.6717 43.0663 84.8015 43.0663 84.8015C42.7791 84.8015 42.0904 83.2247 41.9477 82.3646Z" fill="url(#paint9_linear_314_91)"/>
<path d="M98.7977 69.4638C98.7977 69.4638 99.7825 69.3802 100.374 69.1771C101.038 68.9496 101.386 68.7324 101.951 68.3171C102.589 67.8483 102.82 67.4387 103.385 66.8836C105.079 65.2174 107.828 62.7267 107.828 62.7267C107.828 62.7267 108.361 62.4889 108.688 62.5833C108.957 62.6609 109.085 62.7961 109.262 63.0134C109.42 63.2077 109.499 63.3413 109.548 63.5867C109.616 63.9205 109.486 64.116 109.405 64.4468C109.041 65.9403 107.255 67.6793 107.542 67.887L107.828 68.0304C108.115 68.0304 109.488 66.6637 110.695 66.0236C111.293 65.7067 111.617 65.4749 112.272 65.3069C112.871 65.1533 113.328 64.8297 113.849 65.1635C114.189 65.3815 114.316 65.6341 114.422 66.0236C114.511 66.3476 114.461 66.55 114.422 66.8836C114.208 68.7321 110.681 69.6071 110.982 70.1805C111.076 70.3592 111.088 70.5203 111.269 70.6106C111.555 70.7539 112.679 70.6283 113.562 70.4672C114.729 70.2544 115.247 69.5622 116.429 69.4638C116.819 69.4313 117.061 69.3377 117.432 69.4638C117.846 69.6045 118.203 69.7525 118.292 70.1805C118.365 70.5271 118.171 70.7277 118.006 71.0406C117.709 71.6003 117.359 71.7985 116.859 72.1873C116.069 72.8021 115.493 72.9571 114.566 73.3341C113.219 73.8811 112.255 73.6366 110.982 74.3375C110.383 74.667 109.548 74.6576 109.548 75.3409C109.548 76.3443 112.41 76.7774 112.702 78.4944C112.786 78.9911 112.996 79.3757 112.702 79.7845C112.423 80.1727 112.027 80.1365 111.555 80.2146C110.385 80.4082 109.828 79.5411 108.688 79.2112C107.475 78.8599 106.79 78.6302 105.535 78.4944C104.366 78.3681 102.525 78.4944 102.525 78.4944L102.095 71.6139L98.7977 69.4638Z" fill="#C0C0C0"/>
<path d="M116.429 69.4638C115.247 69.5621 114.729 70.2543 113.562 70.4672C113.275 70.6105 113.274 70.6112 113.132 70.7539L113.132 70.7539C112.989 70.8966 112.805 70.986 112.845 71.1839C112.885 71.3818 113.085 71.4027 113.275 71.4706C113.71 71.6259 113.991 71.349 114.422 71.1839C114.772 71.0497 114.924 70.8674 115.282 70.7539C115.606 70.651 115.805 70.6606 116.142 70.6105C116.588 70.5442 116.847 70.5592 117.289 70.4672C117.688 70.3841 118.381 70.6085 118.292 70.1805C118.203 69.7525 117.846 69.6044 117.432 69.4638C117.061 69.3377 116.819 69.4313 116.429 69.4638Z" fill="#D6D6D6"/>
<path d="M110.695 66.0236C109.548 66.7403 108.831 67.3137 108.831 67.3137C108.831 67.3137 108.515 67.5783 108.688 67.8871C108.914 68.2897 109.395 68.3106 109.835 68.1738C110.179 68.0215 110.355 67.9024 110.695 67.7437C111.082 67.5636 111.332 67.5313 111.699 67.3137C112.211 67.0099 112.342 66.6275 112.846 66.3103C113.163 66.1101 113.498 66.1932 113.706 65.8803C113.863 65.6424 114.369 65.4974 113.849 65.1635C113.329 64.8297 112.871 65.1533 112.272 65.3069C111.617 65.4749 111.269 65.6652 110.695 66.0236Z" fill="#D6D6D6"/>
<path d="M100.374 69.1771C99.7824 69.3802 99.3286 69.1324 98.7977 69.4638C97.4938 70.2778 100.579 71.8677 102.095 71.614C102.937 71.4729 103.181 70.8218 103.958 70.4672C104.393 70.2687 104.718 70.3187 105.105 70.0372C105.458 69.7799 105.676 69.5894 105.822 69.1771C106.052 68.5241 105.286 68.1413 105.391 67.457C105.52 66.6272 106.183 66.4125 106.682 65.7369C107.134 65.1243 107.3 64.7086 107.828 64.1601C108.326 63.6437 109.438 63.2306 109.262 63.0134C109.085 62.7961 108.957 62.6609 108.688 62.5833C108.361 62.4889 107.828 62.7267 107.828 62.7267C107.828 62.7267 105.079 65.2174 103.385 66.8836C102.82 67.4388 102.589 67.8483 101.951 68.3171C101.386 68.7324 101.038 68.9496 100.374 69.1771Z" fill="#D6D6D6"/>
<path d="M70.5268 162.725C71.0197 162.031 71.8378 160.983 71.8378 160.983L77.0818 161.854L80.4496 160.63L82.7629 155.613C82.7629 155.613 83.3214 157.019 83.6369 157.936C83.9464 158.834 84.2204 159.319 84.3653 160.258C84.6537 162.128 84.2733 163.265 83.6369 165.047C82.6949 167.686 81.3802 168.853 79.4125 170.853C77.5087 172.788 73.8771 175.062 73.8771 175.062C73.8771 175.062 69.9114 176.967 68.0504 175.643C67.0489 174.93 66.6606 174.203 66.3024 173.03C65.6916 171.03 66.7065 169.753 67.4677 167.805C68.3102 165.649 69.1855 164.614 70.5268 162.725Z" fill="#C0C0C0"/>
<path d="M83.637 157.936C83.3215 157.019 82.763 155.613 82.763 155.613C82.763 155.613 79.6863 158.612 80.4496 160.63C80.856 161.705 82.0639 161.701 82.4565 162.78C83.0558 164.428 81.9876 165.532 81.1664 167.081C80.511 168.317 79.9531 168.908 79.0163 169.948C77.955 171.125 77.4768 171.64 76.4361 172.671C75.4647 173.634 73.8772 175.062 73.8772 175.062C73.8772 175.062 77.5088 172.788 79.4126 170.853C81.3803 168.853 82.6949 167.686 83.637 165.047C84.2734 163.265 84.6538 162.128 84.3653 160.258C84.2205 159.319 83.9465 158.834 83.637 157.936Z" fill="#9C9C9C"/>
<path d="M70.527 162.725C69.1858 164.614 68.3105 165.649 67.468 167.805C66.7068 169.753 65.6927 171.031 66.3026 173.03C66.6607 174.204 67.262 175.252 68.0506 175.643C67.9796 175.194 67.8347 175.43 67.6922 174.535C67.5497 173.64 67.3547 172.785 67.468 171.668C67.6047 170.319 67.9819 169.601 68.5523 168.371C69.1638 167.053 69.4765 166.221 70.527 165.217C70.9931 164.772 71.3066 164.579 71.838 164.214C73.6889 162.942 77.438 163.639 77.0821 161.854C76.6761 159.819 71.838 160.984 71.838 160.984C71.838 160.984 71.0199 162.031 70.527 162.725Z" fill="#D6D6D6"/>
<path d="M42.3612 83.7497C45.9448 83.7497 46.8789 83.7833 49.6306 83.2247C52.4064 82.6613 53.9625 82.1668 56.5111 80.9312C58.8446 79.8 60.1272 79.0289 62.1015 77.3476C63.7903 75.9096 65.1118 74.4808 65.9718 73.1907C66.5452 73.9074 66.5167 74.2347 67.1186 74.6241C67.3288 74.7601 67.454 74.8329 67.6919 74.9108C68.7195 75.247 69.2227 74.1675 70.2721 73.9074C71.5807 73.5831 72.368 73.7218 73.7124 73.6207C76.6199 73.402 78.2583 73.4035 81.1662 73.1907C83.7441 73.002 85.2119 73.0509 87.7601 72.6173C91.862 71.9193 93.7817 69.6718 97.9375 69.4637C98.7761 69.4217 99.2679 69.2815 100.088 69.4637C101.907 69.8684 102.566 71.1161 103.671 72.6173C104.458 73.686 105.036 74.3174 105.248 75.6275C105.495 77.156 105.42 78.3434 104.388 79.4978C103.23 80.7937 101.694 79.9804 100.088 80.6445C98.2778 81.393 97.6624 82.6593 95.7873 83.2247C94.5442 83.5996 93.7476 83.3302 92.4904 83.6548C90.236 84.2368 89.3501 85.5176 87.1867 86.3783C85.6569 86.9869 84.7913 87.3653 83.1731 87.6684C82.0124 87.8857 81.3414 87.8817 80.1628 87.9551C77.928 88.0942 77.7259 87.3817 75.0024 87.9551C75.0024 88.6718 75.0179 88.9312 75.4325 89.5318C76.3364 90.8414 77.0343 91.4305 78.0127 92.6854C81.545 97.216 81.994 100.934 86.0399 105.013C86.5383 105.515 86.952 105.681 87.3479 106.267C87.8965 107.08 87.5729 107.831 88.0826 108.668C88.9176 110.04 90.0435 110.258 91.4601 111.015C92.5107 111.577 93.2474 111.596 94.2643 112.216C95.4792 112.957 95.9924 113.618 97.0057 114.617C97.8449 115.445 98.2126 116.008 99.0484 116.839C100.223 118.007 101.231 118.319 102.238 119.634C103.121 120.787 103.537 121.541 103.958 122.931C104.302 124.067 104.451 124.755 104.388 125.941C104.313 127.339 103.771 128.036 103.385 129.381C102.518 132.397 102.302 134.172 101.234 137.122C100.168 140.067 98.8338 141.432 97.9375 144.432C97.5099 145.864 98.1291 147.099 97.0774 148.159C96.1298 149.115 95.1261 149.138 93.7805 149.163C92.4501 149.187 91.6718 148.902 90.4836 148.303C89.6584 147.887 89.1779 147.618 88.5484 146.941C87.7892 146.125 86.7461 145.539 86.6133 144.432C86.1833 140.849 86.8334 139.616 87.6167 136.692C88.0041 135.246 88.9129 134.604 88.9785 133.108C89.0311 131.907 88.8565 131.181 88.3334 130.098C85.6099 128.521 84.0331 128.521 78.8728 127.518C78.586 127.518 77.726 127.518 77.1526 130.241C76.8659 132.105 77.3756 133.933 78.0127 136.405C78.6022 138.693 78.768 140.019 79.4461 142.282C80.3564 145.32 81.2487 146.892 82.313 149.88C82.8299 151.33 83.3881 152.081 83.6031 153.606C83.7594 154.715 83.7871 155.369 83.6031 156.473C83.2738 158.449 82.8033 159.68 81.5963 161.347C80.9691 162.213 80.6827 162.862 79.7328 163.354C78.684 163.897 77.9032 163.616 76.7226 163.641C75.6019 163.664 74.957 163.706 73.8557 163.497C72.9338 163.322 72.3368 163.31 71.5622 162.78C70.8405 162.287 70.6471 161.765 70.1288 161.06C68.5111 158.862 67.9048 157.317 66.8319 154.753C65.4575 151.469 65.0234 149.485 64.2517 146.009C63.9305 144.562 63.8556 143.729 63.535 142.282C62.9063 139.445 63.1911 138.822 61.8149 136.262C61.0168 134.777 59.6782 133.155 59.0197 131.603C58.3847 130.108 58.6618 128.976 57.9446 127.518C57.0183 125.635 57.0845 127.518 54.9344 123.218C53.006 119.361 50.6338 117.77 49.4873 113.614C49.2887 112.894 49.2116 112.481 49.0573 111.75C48.869 110.859 48.8042 110.351 48.6272 109.457C48.1367 106.979 47.9105 104.153 47.1938 103.149C46.9155 103.12 46.7566 103.135 46.4771 103.149C44.1836 103.266 46.0852 111.733 43.8969 116.624C43.4879 117.538 43.0182 117.952 42.7502 118.917C42.3756 120.266 43.0446 121.133 42.7502 122.501C42.4236 124.019 42.0542 124.918 41.03 126.084C40.1284 127.112 39.4624 127.668 38.1632 128.091C36.7794 128.543 35.8849 128.232 34.4362 128.091C33.1903 127.97 32.3644 128.148 31.2827 127.518C30.3584 126.98 29.8285 126.499 29.4192 125.511C28.9693 124.425 29.5457 123.67 29.4192 122.501C29.3022 121.42 29.0184 120.851 28.8458 119.777C28.6937 118.831 28.4294 118.29 28.5591 117.341C28.655 116.639 28.9673 116.309 29.1325 115.62C29.382 114.58 29.3959 113.966 29.4192 112.897C29.4485 111.549 29.0659 110.803 29.1325 109.457C29.1743 108.611 29.3098 108.146 29.4192 107.306C29.7179 105.014 29.4869 103.649 30.1359 101.429C30.3695 100.631 30.4937 100.173 30.8526 99.4226C31.2212 98.6516 31.5253 98.27 31.9994 97.5591C32.5771 96.6928 33.0061 96.2803 33.5762 95.4089C34.8097 93.5235 34.9649 92.1609 36.1563 90.2486C36.7311 89.3261 37.0261 88.7806 37.7331 87.9551C38.9502 86.5341 39.6438 85.3937 41.4601 84.9449C41.7906 84.8632 42.0691 85.0316 42.3201 84.8015C42.6119 84.534 42.2539 84.1307 42.3612 83.7497Z" fill="url(#paint10_linear_314_91)"/>
<path d="M87.3489 106.267C86.953 105.681 86.5393 105.515 86.0409 105.013C81.995 100.934 81.546 97.2161 78.0136 92.6854C77.0353 91.4305 76.3373 90.8415 75.4335 89.5319C75.0189 88.9312 75.0034 87.9551 75.0034 87.9551C75.0034 87.9551 73.5683 87.6485 72.8528 87.095C71.2527 85.8573 71.8491 82.078 71.5627 82.078C68.5145 82.0783 72.0121 86.8212 72.5666 89.8186C72.9001 91.6217 73.035 92.6516 73.57 94.4056C74.527 97.5433 75.365 99.2529 77.1536 102.003C79.2067 105.159 80.3113 107.343 83.604 109.17C86.3601 110.699 92.8777 111.773 91.4611 111.016C90.0445 110.258 88.9185 110.04 88.0836 108.668C87.5738 107.831 87.8975 107.08 87.3489 106.267Z" fill="url(#paint11_linear_314_91)"/>
<path d="M75.0024 87.9551C77.7259 87.3817 77.928 88.0942 80.1628 87.9551C82.3976 87.816 77.7329 87.3873 76.4358 86.5217C75.4805 85.884 75.0487 85.3734 74.2857 84.5148C73.46 83.5858 71.5621 82.078 71.5621 82.078C71.5621 82.078 71.5034 83.6828 71.7057 84.5148C71.94 85.4787 71.8384 86.2236 72.5657 86.9517C73.2566 87.6433 75.0024 87.9551 75.0024 87.9551Z" fill="url(#paint12_linear_314_91)"/>
<path d="M78.8731 127.518C84.0334 128.521 85.6102 128.521 88.3338 130.098C88.8569 131.181 89.0314 131.907 88.9788 133.108C88.9133 134.604 88.0044 135.246 87.6171 136.692C86.8337 139.616 86.1836 140.849 86.6137 144.433C86.7465 145.539 87.7895 146.125 88.5488 146.941C89.3081 147.757 89.606 146.357 89.6239 145.723C89.6424 145.067 88.8734 145.002 88.5488 144.433C87.8768 143.253 87.954 142.347 88.0471 140.992C88.1698 139.208 89.0559 138.388 89.6239 136.692C90.3101 134.643 91.562 133.519 91.2007 131.388C90.9069 129.656 90.2337 128.67 88.9072 127.518C87.2631 126.09 85.7795 125.721 83.6034 125.798C81.639 125.867 79.3029 126.515 78.8731 127.518Z" fill="#B26F34"/>
<path d="M57.2195 94.119L57.7929 93.689C57.7929 93.689 57.9916 95.9604 57.9362 97.4159C57.8806 98.8799 57.9215 99.7378 57.5062 101.143C56.9591 102.994 55.8294 103.669 55.0694 105.443C54.6023 106.533 54.066 108.31 54.066 108.31C54.066 108.31 53.1689 104.527 53.6359 103.436C54.396 101.662 55.5256 100.987 56.0728 99.136C56.4881 97.731 56.4472 96.8731 56.5028 95.4091C57.2195 94.119 57.2195 94.119 57.2195 94.119Z" fill="#D18643"/>
<path d="M42.3201 84.8015C42.0691 85.0316 41.7906 84.8632 41.4601 84.9449C39.6438 85.3937 38.9502 86.5341 37.7331 87.9551C37.0261 88.7806 36.7311 89.3261 36.1563 90.2486C34.9649 92.1609 34.8097 93.5235 33.5762 95.4089C33.0061 96.2803 32.5771 96.6928 31.9994 97.5591C31.5253 98.27 31.2212 98.6517 30.8526 99.4226C30.4937 100.173 30.3695 100.631 30.1359 101.429C29.4869 103.649 29.7179 105.014 29.4192 107.306C29.3098 108.146 29.1743 108.611 29.1325 109.457C29.0659 110.803 29.4485 111.549 29.4192 112.897C29.3959 113.966 29.382 114.58 29.1325 115.62C28.9673 116.309 28.655 116.639 28.5591 117.341C28.4294 118.29 28.6937 118.831 28.8458 119.777C29.0184 120.85 29.3022 121.42 29.4192 122.501C29.5457 123.67 28.9693 124.425 29.4192 125.511C29.8285 126.499 30.3584 126.98 31.2827 127.518C32.3644 128.148 33.1903 127.97 34.4362 128.091C35.6821 128.212 34.6409 122.387 35.1529 118.774C35.797 114.229 36.4821 111.723 37.7331 107.306C38.9586 102.98 39.7304 100.563 41.4601 96.4123C43.415 91.7213 52.0286 86.7554 47.3371 84.8015H42.3201Z" fill="#E5A064"/>
<path d="M73.8559 163.497C74.9572 163.706 76.7228 163.64 76.7228 163.64C79.5741 162.662 74.9079 159.298 73.8559 156.473C72.9045 153.918 72.3469 152.491 71.5624 149.879C70.9294 147.773 71.1365 146.388 70.1289 144.432C69.3238 142.87 68.2294 142.402 67.4054 140.849C65.9593 138.124 66.1135 136.18 65.8286 133.108C65.5857 130.488 65.8286 129.002 65.8286 126.371C65.8286 124.3 66.0076 123.131 65.8286 121.067C65.6768 119.316 66.2728 117.944 65.1119 116.624C64.1847 115.57 63.2168 106.268 61.815 106.19C60.2057 106.101 59.2423 106.668 57.9447 107.624C55.6659 109.303 52.7844 118.917 54.9345 123.218C57.0847 127.518 57.0185 125.635 57.9447 127.518C58.662 128.976 58.3849 130.107 59.0198 131.603C59.6784 133.155 61.017 134.777 61.815 136.262C63.1912 138.822 62.9065 139.444 63.5351 142.282C63.8557 143.729 63.9306 144.562 64.2519 146.009L64.2742 146.11C65.032 149.523 65.471 151.501 66.832 154.753C67.905 157.317 68.4605 158.837 70.1289 161.06C70.6539 161.76 70.8406 162.287 71.5624 162.78C72.3369 163.31 72.934 163.322 73.8559 163.497Z" fill="#E5A064"/>
<path d="M58.6277 84.2355L59.1156 83.9341C59.1156 83.9341 61.6868 87.203 63.1306 89.4376C65.8261 93.6094 66.4672 96.4402 68.865 100.79C70.163 103.144 71.0114 104.396 72.3056 106.753C74.205 110.211 75.7658 111.973 76.8928 115.755C77.9051 119.151 78.0397 124.756 78.0397 124.756L77.5519 125.058C77.5519 125.058 77.4173 119.452 76.405 116.056C75.278 112.275 73.7172 110.512 71.8178 107.054C70.5236 104.698 69.6752 103.446 68.3772 101.091C65.9794 96.7415 65.3383 93.9107 62.6428 89.7389C61.199 87.5043 58.6277 84.2355 58.6277 84.2355Z" fill="url(#paint13_linear_314_91)"/>
<path d="M66.8321 74.4808C66.8321 74.4808 67.2643 74.7539 67.5488 74.8535C68.1222 75.0542 68.0997 74.9676 68.4089 74.9108C68.9823 74.7675 69.2358 74.2922 69.8423 74.0507C70.221 73.9 70.4468 73.8475 70.8457 73.764C71.5602 73.6146 71.9808 73.6677 72.7092 73.6207C74.0511 73.5341 74.8061 73.5376 76.1495 73.4773C77.3252 73.4246 77.9847 73.4019 79.1597 73.334C80.7285 73.2433 81.6051 73.147 83.1733 73.0473C84.1247 72.9868 85.6101 72.904 85.6101 72.904C85.8708 73.1742 85.9273 73.4059 86.0402 73.764C86.4931 75.2016 85.6844 76.2938 84.6067 77.3476C83.3914 78.536 82.1384 78.4432 80.4498 78.6377C78.2632 78.8895 77.0489 78.1454 74.8594 77.921C70.8993 77.515 64.6819 77.3476 64.6819 77.3476L65.972 75.9142L66.8321 74.4808Z" fill="#E49046"/>
<path d="M42.4638 84.5149C42.4638 84.5149 51.2888 85.001 56.4393 82.9381C61.3969 80.9525 66.9177 74.4809 66.9177 74.4809C67.0459 74.5817 67.1211 74.6339 67.2618 74.7188C67.2618 74.7188 61.6738 81.2954 56.7981 83.3682C51.5128 85.615 42.3201 84.8016 42.3201 84.8016C42.4222 84.7065 42.4432 84.6418 42.4638 84.5149Z" fill="url(#paint14_linear_314_91)"/>
<path d="M42.4638 84.5149C42.4638 84.5149 51.2888 85.001 56.4393 82.9381C61.3969 80.9525 66.9177 74.4809 66.9177 74.4809C67.0459 74.5817 67.1211 74.6339 67.2618 74.7188C67.2618 74.7188 61.6738 81.2954 56.7981 83.3682C51.5128 85.615 42.3201 84.8016 42.3201 84.8016C42.4222 84.7065 42.4432 84.6418 42.4638 84.5149Z" fill="url(#paint15_linear_314_91)"/>
<path d="M46.0474 93.689H46.3341C46.3341 93.689 47.5856 96.7724 47.6242 98.8493C47.6556 100.545 46.9074 103.132 46.9074 103.132C46.6296 103.142 46.7428 103.141 46.6207 103.141C46.6207 103.141 47.3916 100.46 47.3375 98.706C47.275 96.6839 46.0474 93.689 46.0474 93.689Z" fill="url(#paint16_linear_314_91)"/>
<path d="M38.2817 55.1577C40.3582 53.6101 41.7788 52.8819 44.1588 51.8608C46.4698 50.8693 47.8269 50.3059 50.3226 49.9973C51.2132 49.8872 52.6161 49.854 52.6161 49.854C52.6161 49.854 47.2837 55.4358 45.4489 59.888C43.4248 64.7994 43.5854 73.3623 43.5854 73.3623L37.565 73.9357C37.565 73.9357 32.2321 64.7819 33.1214 61.0348C33.408 59.8271 34.2204 58.902 35.2715 57.7379C36.305 56.5931 37.045 56.0793 38.2817 55.1577Z" fill="url(#paint17_linear_314_91)"/>
<path d="M17.9441 54.0084C18.3657 51.7782 18.8854 50.5471 19.9993 48.5343C21.049 46.6378 21.8547 45.6668 23.3466 44.0493C25.4522 41.7661 26.8834 40.6378 29.5838 38.991C32.1897 37.4019 33.8319 36.7326 36.7692 35.7776C39.9737 34.7358 41.8746 34.2639 45.2579 34.062C47.9529 33.9012 49.5014 33.9843 52.1599 34.4173C53.7503 34.6763 54.6702 34.7937 56.1719 35.3458C57.6176 35.8773 58.3986 36.2856 59.6587 37.1341C62.8749 39.2999 63.7911 41.523 65.635 44.8044C66.5944 46.5116 67.0239 47.5257 67.7316 49.3378C68.4617 51.2077 68.9116 52.2631 69.2917 54.2225C69.8349 57.0233 70.186 58.7467 69.454 61.5133C68.8601 63.7577 68.0544 64.9165 66.6696 66.8339C65.4333 68.5458 64.601 69.4473 62.9484 70.8184C60.9008 72.517 59.4165 73.0737 57.0399 74.3426C54.1191 75.902 52.4934 76.8739 49.318 77.9072C44.7252 79.4016 41.7835 80.594 37.0213 79.7076C34.5325 79.2443 33.1633 78.68 30.9845 77.4671C29.2568 76.5052 28.4009 75.7826 26.9272 74.5039C23.8053 71.7953 22.1979 69.9469 20.3956 66.3372C18.1814 61.9025 17.0316 58.8359 17.9441 54.0084Z" fill="url(#paint18_linear_314_91)"/>
<path d="M21.2793 64.0393L29.889 77.4185C29.889 77.4185 27.3917 77.5979 25.978 76.9966C24.3829 76.3181 23.7364 75.3973 22.6886 74.0164C21.668 72.6712 21.1943 71.7836 20.7368 70.1582C20.1445 68.0544 21.2793 64.0393 21.2793 64.0393Z" fill="#B7B6B2"/>
<path d="M64.1627 45.9186C64.1627 45.9186 67.6408 47.0496 68.5838 47.7194C69.3865 48.2895 69.7572 48.7394 70.3208 49.5467C71.2083 50.8179 71.4999 51.7182 71.7602 53.2466C71.9493 54.3566 71.9639 55.0118 71.8244 56.129C71.6323 57.6675 68.9114 62.4371 68.9114 62.4371L64.1627 45.9186Z" fill="#B7B7C3"/>
<g filter="url(#filter1_f_314_91)">
<path d="M67.601 49.2921L68.3424 48.7425C68.3424 48.7425 69.1058 49.8936 69.5157 50.6712C70.0747 51.7318 70.3337 52.3574 70.7088 53.4881C70.8897 54.0338 71.19 54.3325 71.117 54.9007C71.0457 55.4562 70.3915 56.1609 70.3915 56.1609C70.3915 56.1609 69.9697 54.4167 69.575 53.3356C68.9747 51.6916 67.601 49.2921 67.601 49.2921Z" fill="#62635E" fill-opacity="0.5"/>
</g>
<path d="M20.6919 56.6613C21.0829 54.4318 21.5671 53.2015 22.6058 51.1904C23.5845 49.2954 24.3365 48.3257 25.7291 46.7103C27.6947 44.4303 29.0313 43.3041 31.554 41.6613C33.9884 40.0759 35.523 39.4091 38.2681 38.4584C41.263 37.4212 43.0398 36.952 46.203 36.755C48.7227 36.5981 50.1708 36.6835 52.6573 37.1203C54.1448 37.3816 55.0052 37.5004 56.4101 38.0546C57.7627 38.5881 58.4936 38.9976 59.6731 39.8479C62.6835 42.0183 63.5434 44.2426 65.2723 47.5265C66.1719 49.2351 66.575 50.2498 67.2393 52.0629C67.9247 53.9337 68.3469 54.9897 68.7051 56.9497C69.2171 59.7512 69.5479 61.475 68.8674 64.2404C68.3153 66.484 67.5637 67.6415 66.2716 69.5569C65.118 71.2669 64.3411 72.1672 62.7978 73.5358C60.8857 75.2314 59.4985 75.786 57.2781 77.0514C54.5492 78.6065 53.0305 79.5761 50.0629 80.6047C45.7704 82.0925 43.0216 83.2806 38.5673 82.3873C36.2395 81.9204 34.9584 81.3542 32.9193 80.1381C31.3024 79.1738 30.5011 78.4499 29.1212 77.1692C26.1981 74.4561 24.6925 72.6054 23.002 68.9933C20.9252 64.5555 19.8456 61.4874 20.6919 56.6613Z" fill="url(#paint19_linear_314_91)"/>
<path d="M27.2031 59.5698C28.6723 56.9926 29.2537 56.1073 30.9858 54.227C32.9693 52.0737 34.3461 51.0854 36.8182 49.5169C39.2203 47.9929 40.7115 47.3493 43.3627 46.3178C47.0626 44.8784 48.9201 44.4978 51.9721 44.4299C54.1289 44.3819 55.604 45.692 56.957 47.3723C58.7015 49.5388 59.0967 50.0352 60.4651 52.553C61.5574 54.5629 62.79 57.9295 62.79 57.9295C62.79 57.9295 63.6505 60.7938 62.8881 62.3379C60.9403 66.2828 57.3991 69.4842 52.5948 72.4058C47.5811 75.4549 46.0728 76.6223 38.266 76.4568C34.5169 75.6921 28.6926 70.3239 27.2975 63.8086C27.0049 62.4425 26.5111 60.7836 27.2031 59.5698Z" fill="url(#paint20_linear_314_91)"/>
<path fill-rule="evenodd" clip-rule="evenodd" d="M30.543 53.8838C28.7465 55.8442 28.1435 56.7673 26.62 59.4543C25.9817 60.5797 26.3164 62.0723 26.6118 63.3908C26.6486 63.555 26.6847 63.7164 26.7183 63.8741C28.1663 70.6678 34.2086 76.2659 38.0979 77.0637C45.8107 77.229 47.5966 76.1328 52.2422 73.2819L52.9609 72.8415C57.9441 69.7956 61.617 66.4581 63.637 62.3449C64.4278 60.735 63.5347 57.7483 63.5347 57.7483C63.5347 57.7483 62.2558 54.2377 61.1225 52.1418C59.7026 49.5164 59.2929 48.9987 57.4829 46.7396C56.0792 44.9874 54.5489 43.6211 52.3117 43.6709C49.1455 43.7413 47.2187 44.138 43.381 45.6384C40.6311 46.7136 39.0842 47.3845 36.5926 48.9733C34.0285 50.6085 32.6006 51.6387 30.543 53.8838ZM31.0675 54.1522C29.3355 56.0325 28.7542 56.9179 27.2848 59.4951C26.6697 60.5742 26.9918 62.0053 27.2764 63.2695C27.3117 63.4272 27.3467 63.5824 27.3792 63.7339C28.7746 70.2492 34.5987 75.6173 38.3477 76.382C45.7831 76.5397 47.5054 75.4882 51.9839 72.7536C52.2075 72.617 52.4379 72.4762 52.6766 72.3311C57.4809 69.4095 61.0221 66.2081 62.9699 62.2631C63.7323 60.7191 62.8718 57.8548 62.8718 57.8548C62.8718 57.8548 61.6392 54.4882 60.5468 52.4782C59.1784 49.9604 58.7834 49.4641 57.0388 47.2976C55.6857 45.6173 54.2107 44.3071 52.0539 44.3551C49.002 44.4231 47.1444 44.8037 43.4445 46.2431C40.7934 47.2746 39.3022 47.9181 36.8999 49.4422C34.4281 51.0106 33.0513 51.9989 31.0675 54.1522Z" fill="url(#paint21_linear_314_91)"/>
<path d="M96.9163 130.394C98.1222 129.258 99.4696 126.945 99.4696 126.945C99.4696 126.945 99.1858 127.842 98.9589 128.397C98.4351 129.679 97.9621 130.277 96.9163 131.121C95.8745 131.961 94.0225 132.392 94.0225 132.392C94.0225 132.392 95.9076 131.345 96.9163 130.394Z" fill="#AC7341"/>
<ellipse cx="2.85132" cy="2.84917" rx="2.85132" ry="2.84917" transform="matrix(0.777144 -0.629323 0.629318 0.777148 61.6508 84.2819)" fill="#59C7EA"/>
<path d="M63.9147 86.9486L64.1349 85.9536L64.5864 85.9529L64.8275 85.3058L65.3755 85.2096L64.7716 84.743L66.8856 84.7338L65.6912 84.311L65.1675 83.0845L66.5149 83.3313L66.7195 82.9397L68.088 83.1695L68.5223 83.8776L68.6892 84.6634L68.1373 86.3439L67.0666 87.2978L65.7395 87.6775L64.2376 87.3473L63.9147 86.9486Z" fill="#DBDBDB"/>
<path fill-rule="evenodd" clip-rule="evenodd" d="M66.9308 84.732L65.3344 84.7462L64.8595 84.759L65.4307 85.2029L65.0216 85.3947L64.7108 86.0827L64.2006 86.1525L63.8939 87.0517L63.9644 85.65L64.5087 85.8333L64.5697 84.5202L65.2339 84.622L65.2103 84.0014L64.9723 82.8081L65.5726 82.9035L66.3649 83.2118L66.4386 82.7354C67.5029 82.9907 68.0527 83.1354 68.0878 83.1693C68.1229 83.2033 67.6784 83.1674 66.7543 83.0619L67.2782 83.825L66.2515 83.6317L65.3134 83.2292L65.5655 83.8592L66.5159 84.0684L65.7601 84.3318L66.9308 84.732Z" fill="white"/>
<path fill-rule="evenodd" clip-rule="evenodd" d="M64.4768 84.4618C64.4768 84.4618 64.0857 84.5374 63.9183 84.7031C63.7509 84.8687 63.6598 84.9425 63.6598 84.9425C63.6598 84.9425 63.8766 85.0984 64.0743 85.1191C64.2715 85.1132 64.2538 85.1545 64.2538 85.1545C63.7576 87.4848 65.4258 88.5571 67.4422 86.9243C67.4422 86.9243 66.6562 86.7267 66.3033 86.5254C65.8603 86.2592 66.0255 85.7495 66.0255 85.7495C66.0255 85.7495 66.3097 85.5027 66.8893 85.5549C67.1663 85.5798 67.3928 85.4272 67.4091 85.4017C67.449 85.3393 67.3675 85.1642 67.3675 85.1642C67.3675 85.1642 67.4698 85.1416 67.5054 84.9621C67.541 84.7826 67.437 84.5053 67.437 84.5053C67.437 84.5053 66.955 84.4437 66.7755 84.4082C66.5961 84.3728 66.3235 84.3115 66.1545 84.1773C65.9855 84.0429 65.4298 83.8801 65.4298 83.8801C64.0629 83.2667 63.3368 83.9589 63.1069 84.6602C63.0068 85.006 63.0347 85.5193 63.7023 85.7459C63.3213 85.3373 63.3047 85.0811 63.3358 84.9221C63.4408 84.3865 64.0264 84.0438 64.4768 84.4618Z" fill="#BC0624"/>
<g filter="url(#filter2_i_314_91)">
<path d="M63.1067 84.66C63.3097 83.9585 64.0238 83.4373 64.9367 83.7057C64.9367 83.7057 64.5999 83.8785 64.5148 84.0823C64.4574 84.2196 64.4766 84.4615 64.4766 84.4615C64.0262 84.0435 63.4407 84.3863 63.3357 84.9219C63.3046 85.0808 63.3211 85.337 63.7021 85.7457C63.0345 85.5191 63.0066 85.0058 63.1067 84.66Z" fill="#7B5C46"/>
<path d="M63.1067 84.66C63.3097 83.9585 64.0238 83.4373 64.9367 83.7057C64.9367 83.7057 64.5999 83.8785 64.5148 84.0823C64.4574 84.2196 64.4766 84.4615 64.4766 84.4615C64.0262 84.0435 63.4407 84.3863 63.3357 84.9219C63.3046 85.0808 63.3211 85.337 63.7021 85.7457C63.0345 85.5191 63.0066 85.0058 63.1067 84.66Z" fill="url(#paint22_linear_314_91)"/>
</g>
<path d="M67.2802 84.6626C67.2683 84.6479 67.2658 84.6279 67.2735 84.6107L67.3029 84.5462C67.3081 84.5347 67.316 84.5245 67.3259 84.5165C67.3431 84.5025 67.3653 84.4962 67.3874 84.4989L67.4371 84.505L67.4555 84.5333C67.4604 84.5408 67.4642 84.5489 67.4668 84.5574C67.4861 84.6197 67.439 84.6826 67.3738 84.6817L67.3181 84.681C67.3033 84.6808 67.2894 84.674 67.2802 84.6626Z" fill="#1C1C21"/>
<mask id="mask0_314_91" style="mask-type:alpha" maskUnits="userSpaceOnUse" x="63" y="83" width="2" height="3">
<path d="M63.1067 84.66C63.3097 83.9585 64.0239 83.4374 64.9368 83.7058L64.4766 84.4615C64.0262 84.0435 63.4407 84.3862 63.3357 84.9218C63.3046 85.0808 63.3211 85.337 63.7021 85.7457C63.0345 85.5191 63.0066 85.0057 63.1067 84.66Z" fill="#7B5C46"/>
<path d="M63.1067 84.66C63.3097 83.9585 64.0239 83.4374 64.9368 83.7058L64.4766 84.4615C64.0262 84.0435 63.4407 84.3862 63.3357 84.9218C63.3046 85.0808 63.3211 85.337 63.7021 85.7457C63.0345 85.5191 63.0066 85.0057 63.1067 84.66Z" fill="url(#paint23_linear_314_91)"/>
</mask>
<g mask="url(#mask0_314_91)">
<path d="M64.5629 83.6261C64.3414 83.9689 64.2639 84.137 64.3236 84.3494" stroke="#372620" stroke-width="0.1" stroke-miterlimit="2.6131"/>
<path d="M64.5629 83.6261C64.3414 83.9689 64.2639 84.137 64.3236 84.3494" stroke="url(#paint24_linear_314_91)" stroke-width="0.1" stroke-miterlimit="2.6131"/>
<path d="M64.1368 83.6586C64.0871 83.8922 64.0233 84.0534 64.1146 84.2839" stroke="#372620" stroke-width="0.1" stroke-miterlimit="2.6131"/>
<path d="M64.1368 83.6586C64.0871 83.8922 64.0233 84.0534 64.1146 84.2839" stroke="url(#paint25_linear_314_91)" stroke-width="0.1" stroke-miterlimit="2.6131"/>
<path d="M63.6908 83.8545C63.72 84.051 63.7626 84.1456 63.8937 84.3019" stroke="#372620" stroke-width="0.1" stroke-miterlimit="2.6131"/>
<path d="M63.6908 83.8545C63.72 84.051 63.7626 84.1456 63.8937 84.3019" stroke="url(#paint26_linear_314_91)" stroke-width="0.1" stroke-miterlimit="2.6131"/>
<path d="M63.4182 84.0739C63.5114 84.2369 63.5586 84.2886 63.7018 84.3971" stroke="#372620" stroke-width="0.1" stroke-miterlimit="2.6131"/>
<path d="M63.4182 84.0739C63.5114 84.2369 63.5586 84.2886 63.7018 84.3971" stroke="url(#paint27_linear_314_91)" stroke-width="0.1" stroke-miterlimit="2.6131"/>
<path d="M63.2617 84.275C63.3352 84.4165 63.399 84.4747 63.5396 84.546" stroke="#372620" stroke-width="0.1" stroke-miterlimit="2.6131"/>
<path d="M63.2617 84.275C63.3352 84.4165 63.399 84.4747 63.5396 84.546" stroke="url(#paint28_linear_314_91)" stroke-width="0.1" stroke-miterlimit="2.6131"/>
<path d="M63.1208 84.542C63.0961 84.5918 63.4335 84.8087 63.406 84.7356" stroke="#372620" stroke-width="0.1" stroke-miterlimit="2.6131"/>
<path d="M63.1208 84.542C63.0961 84.5918 63.4335 84.8087 63.406 84.7356" stroke="url(#paint29_linear_314_91)" stroke-width="0.1" stroke-miterlimit="2.6131"/>
<path d="M63.045 84.8483C63.1534 84.9209 63.2199 84.9467 63.3465 84.9588" stroke="#372620" stroke-width="0.1" stroke-miterlimit="2.6131"/>
<path d="M63.045 84.8483C63.1534 84.9209 63.2199 84.9467 63.3465 84.9588" stroke="url(#paint30_linear_314_91)" stroke-width="0.1" stroke-miterlimit="2.6131"/>
</g>
<path d="M67.4421 86.9245C65.3852 87.3392 65.0447 85.7963 65.1315 84.973C65.0955 85.315 65.3517 85.6172 65.4944 85.7217C65.6199 85.8425 65.8915 85.8151 66.0165 85.7833C65.9438 86.1049 66.1182 86.3633 66.2242 86.4512C66.37 86.5722 67.4421 86.9245 67.4421 86.9245Z" fill="#8F0018"/>
<g filter="url(#filter3_i_314_91)">
<path fill-rule="evenodd" clip-rule="evenodd" d="M66.0214 84.551C66.0214 84.551 65.8803 84.4873 65.8182 84.5265C65.7562 84.5657 65.7576 84.6094 65.7126 84.6466C65.6675 84.6836 65.6335 84.6879 65.6335 84.6879C65.6335 84.6879 65.7451 84.7429 65.839 84.7059C65.9328 84.669 66.0037 84.6035 66.0037 84.6035L66.0214 84.551Z" fill="#A4001B"/>
</g>
<g filter="url(#filter4_i_314_91)">
<path fill-rule="evenodd" clip-rule="evenodd" d="M66.8534 85.2602C66.8534 85.2602 66.8695 85.2163 67.0491 85.1863C67.2286 85.1563 67.3667 85.1643 67.3667 85.1643" fill="#AD0420"/>
</g>
<path d="M64.2537 85.155C64.3684 85.1906 64.451 85.1789 64.5427 85.1478C64.4332 85.223 64.3328 85.2542 64.2391 85.2267C64.2432 85.2067 64.2492 85.1752 64.2537 85.155Z" fill="url(#paint31_linear_314_91)" fill-opacity="0.3"/>
<g filter="url(#filter5_i_314_91)">
<path d="M63.8037 85.0288C63.8037 85.0288 63.837 85.0442 63.9458 84.9235C64.0546 84.8027 64.15 84.7144 64.3193 84.7044C64.3378 84.7034 64.6235 84.7752 64.6323 84.5344C64.6567 84.5585 64.5696 84.8375 64.6846 85.0224C64.5045 85.2724 64.2537 85.1551 64.2537 85.1551C64.2537 85.1551 64.2236 85.1231 64.0746 85.1194C63.9255 85.1157 63.8037 85.0288 63.8037 85.0288Z" fill="#AD0420"/>
</g>
<g filter="url(#filter6_i_314_91)">
<path d="M65.7914 84.6029C65.8473 84.5186 65.944 84.5589 65.944 84.5589C65.9168 84.545 65.8282 84.593 65.8451 84.633C65.8572 84.6614 65.9352 84.6027 65.94 84.5969C65.937 84.602 65.859 84.6805 65.8181 84.6881C65.7772 84.6958 65.6999 84.6869 65.6999 84.6869C65.7371 84.6836 65.782 84.6173 65.7914 84.6029Z" fill="#810016"/>
</g>
<path fill-rule="evenodd" clip-rule="evenodd" d="M67.6227 87.1258C68.9625 86.0408 69.1697 84.076 68.0856 82.7372C67.0015 81.3984 65.0365 81.1927 63.6967 82.2776C62.3569 83.3626 62.1496 85.3274 63.2338 86.6662C64.3179 88.005 66.2829 88.2107 67.6227 87.1258ZM67.4527 86.9159C68.6765 85.9249 68.8658 84.1302 67.8756 82.9073C66.8853 81.6844 65.0905 81.4965 63.8667 82.4875C62.6429 83.4785 62.4535 85.2732 63.4438 86.4961C64.4341 87.719 66.2289 87.9069 67.4527 86.9159Z" fill="#BC0624"/>
<path fill-rule="evenodd" clip-rule="evenodd" d="M67.6227 87.1258C68.9625 86.0408 69.1697 84.076 68.0856 82.7372C67.0015 81.3984 65.0365 81.1927 63.6967 82.2776C62.3569 83.3626 62.1496 85.3274 63.2338 86.6662C64.3179 88.005 66.2829 88.2107 67.6227 87.1258ZM67.4527 86.9159C68.6765 85.9249 68.8658 84.1302 67.8756 82.9073C66.8853 81.6844 65.0905 81.4965 63.8667 82.4875C62.6429 83.4785 62.4535 85.2732 63.4438 86.4961C64.4341 87.719 66.2289 87.9069 67.4527 86.9159Z" fill="url(#paint32_linear_314_91)"/>
<defs>
<filter id="filter0_f_314_91" x="168.096" y="77.577" width="114.179" height="10.5898" filterUnits="userSpaceOnUse" color-interpolation-filters="sRGB">
<feFlood flood-opacity="0" result="BackgroundImageFix"/>
<feBlend mode="normal" in="SourceGraphic" in2="BackgroundImageFix" result="shape"/>
<feGaussianBlur stdDeviation="2" result="effect1_foregroundBlur_314_91"/>
</filter>
<filter id="filter1_f_314_91" x="63.601" y="44.7425" width="11.5272" height="15.4184" filterUnits="userSpaceOnUse" color-interpolation-filters="sRGB">
<feFlood flood-opacity="0" result="BackgroundImageFix"/>
<feBlend mode="normal" in="SourceGraphic" in2="BackgroundImageFix" result="shape"/>
<feGaussianBlur stdDeviation="2" result="effect1_foregroundBlur_314_91"/>
</filter>
<filter id="filter2_i_314_91" x="63.0636" y="83.6339" width="1.87311" height="6.11176" filterUnits="userSpaceOnUse" color-interpolation-filters="sRGB">
<feFlood flood-opacity="0" result="BackgroundImageFix"/>
<feBlend mode="normal" in="SourceGraphic" in2="BackgroundImageFix" result="shape"/>
<feColorMatrix in="SourceAlpha" type="matrix" values="0 0 0 0 0 0 0 0 0 0 0 0 0 0 0 0 0 0 127 0" result="hardAlpha"/>
<feOffset dy="4"/>
<feGaussianBlur stdDeviation="2"/>
<feComposite in2="hardAlpha" operator="arithmetic" k2="-1" k3="1"/>
<feColorMatrix type="matrix" values="0 0 0 0 0 0 0 0 0 0 0 0 0 0 0 0 0 0 0.35 0"/>
<feBlend mode="normal" in2="shape" result="effect1_innerShadow_314_91"/>
</filter>
<filter id="filter3_i_314_91" x="65.6335" y="84.5137" width="0.387909" height="0.704979" filterUnits="userSpaceOnUse" color-interpolation-filters="sRGB">
<feFlood flood-opacity="0" result="BackgroundImageFix"/>
<feBlend mode="normal" in="SourceGraphic" in2="BackgroundImageFix" result="shape"/>
<feColorMatrix in="SourceAlpha" type="matrix" values="0 0 0 0 0 0 0 0 0 0 0 0 0 0 0 0 0 0 127 0" result="hardAlpha"/>
<feOffset dy="0.5"/>
<feGaussianBlur stdDeviation="0.25"/>
<feComposite in2="hardAlpha" operator="arithmetic" k2="-1" k3="1"/>
<feColorMatrix type="matrix" values="0 0 0 0 0 0 0 0 0 0 0 0 0 0 0 0 0 0 0.05 0"/>
<feBlend mode="normal" in2="shape" result="effect1_innerShadow_314_91"/>
</filter>
<filter id="filter4_i_314_91" x="66.8534" y="85.1634" width="0.513336" height="0.19684" filterUnits="userSpaceOnUse" color-interpolation-filters="sRGB">
<feFlood flood-opacity="0" result="BackgroundImageFix"/>
<feBlend mode="normal" in="SourceGraphic" in2="BackgroundImageFix" result="shape"/>
<feColorMatrix in="SourceAlpha" type="matrix" values="0 0 0 0 0 0 0 0 0 0 0 0 0 0 0 0 0 0 127 0" result="hardAlpha"/>
<feOffset dy="0.1"/>
<feGaussianBlur stdDeviation="0.05"/>
<feComposite in2="hardAlpha" operator="arithmetic" k2="-1" k3="1"/>
<feColorMatrix type="matrix" values="0 0 0 0 0 0 0 0 0 0 0 0 0 0 0 0 0 0 0.25 0"/>
<feBlend mode="normal" in2="shape" result="effect1_innerShadow_314_91"/>
</filter>
<filter id="filter5_i_314_91" x="63.8037" y="84.5344" width="0.880859" height="1.1482" filterUnits="userSpaceOnUse" color-interpolation-filters="sRGB">
<feFlood flood-opacity="0" result="BackgroundImageFix"/>
<feBlend mode="normal" in="SourceGraphic" in2="BackgroundImageFix" result="shape"/>
<feColorMatrix in="SourceAlpha" type="matrix" values="0 0 0 0 0 0 0 0 0 0 0 0 0 0 0 0 0 0 127 0" result="hardAlpha"/>
<feOffset dy="0.5"/>
<feGaussianBlur stdDeviation="0.75"/>
<feComposite in2="hardAlpha" operator="arithmetic" k2="-1" k3="1"/>
<feColorMatrix type="matrix" values="0 0 0 0 0 0 0 0 0 0 0 0 0 0 0 0 0 0 0.04 0"/>
<feBlend mode="normal" in2="shape" result="effect1_innerShadow_314_91"/>
</filter>
<filter id="filter6_i_314_91" x="65.7" y="84.5492" width="0.244019" height="0.241991" filterUnits="userSpaceOnUse" color-interpolation-filters="sRGB">
<feFlood flood-opacity="0" result="BackgroundImageFix"/>
<feBlend mode="normal" in="SourceGraphic" in2="BackgroundImageFix" result="shape"/>
<feColorMatrix in="SourceAlpha" type="matrix" values="0 0 0 0 0 0 0 0 0 0 0 0 0 0 0 0 0 0 127 0" result="hardAlpha"/>
<feOffset dy="0.1"/>
<feGaussianBlur stdDeviation="0.05"/>
<feComposite in2="hardAlpha" operator="arithmetic" k2="-1" k3="1"/>
<feColorMatrix type="matrix" values="0 0 0 0 0 0 0 0 0 0 0 0 0 0 0 0 0 0 0.25 0"/>
<feBlend mode="normal" in2="shape" result="effect1_innerShadow_314_91"/>
</filter>
<linearGradient id="paint0_linear_314_91" x1="177.275" y1="37.5509" x2="208.352" y2="37.5509" gradientUnits="userSpaceOnUse">
<stop offset="0.213542" stop-color="#D2CECE"/>
<stop offset="1" stop-color="#393535"/>
</linearGradient>
<linearGradient id="paint1_linear_314_91" x1="177.275" y1="37.5509" x2="208.352" y2="37.5509" gradientUnits="userSpaceOnUse">
<stop offset="0.213542" stop-color="#D2CECE"/>
<stop offset="1" stop-color="#393535"/>
</linearGradient>
<linearGradient id="paint2_linear_314_91" x1="198.641" y1="68.6283" x2="213.532" y2="68.6283" gradientUnits="userSpaceOnUse">
<stop stop-color="#404040"/>
<stop offset="1"/>
</linearGradient>
<linearGradient id="paint3_linear_314_91" x1="185.045" y1="68.6283" x2="168.859" y2="68.6283" gradientUnits="userSpaceOnUse">
<stop/>
<stop offset="1" stop-color="#7A7A7A"/>
</linearGradient>
<linearGradient id="paint4_linear_314_91" x1="182.455" y1="10.359" x2="202.525" y2="10.359" gradientUnits="userSpaceOnUse">
<stop stop-color="#8C8B8B"/>
<stop offset="1"/>
</linearGradient>
<linearGradient id="paint5_linear_314_91" x1="178.571" y1="72.5128" x2="205.763" y2="72.5128" gradientUnits="userSpaceOnUse">
<stop offset="0.1875" stop-color="white"/>
<stop offset="1" stop-color="#393535"/>
</linearGradient>
<linearGradient id="paint6_linear_314_91" x1="179.218" y1="12.9487" x2="206.41" y2="12.9487" gradientUnits="userSpaceOnUse">
<stop offset="0.135417" stop-color="white"/>
<stop offset="1" stop-color="#393535"/>
</linearGradient>
<linearGradient id="paint7_linear_314_91" x1="196.051" y1="28.4873" x2="187.634" y2="28.4873" gradientUnits="userSpaceOnUse">
<stop offset="0.0885417" stop-color="#212121"/>
<stop offset="1" stop-color="#606060"/>
</linearGradient>
<linearGradient id="paint8_linear_314_91" x1="61.0983" y1="72.7607" x2="41.7469" y2="83.3681" gradientUnits="userSpaceOnUse">
<stop stop-color="#778186"/>
<stop offset="1" stop-color="#474B4C"/>
</linearGradient>
<linearGradient id="paint9_linear_314_91" x1="61.385" y1="73.6206" x2="42.7503" y2="83.6547" gradientUnits="userSpaceOnUse">
<stop stop-color="#C1C1C1"/>
<stop offset="1" stop-color="#929292"/>
</linearGradient>
<linearGradient id="paint10_linear_314_91" x1="80.7362" y1="72.904" x2="63.2483" y2="166.507" gradientUnits="userSpaceOnUse">
<stop stop-color="#D4853F"/>
<stop offset="1" stop-color="#D79962"/>
</linearGradient>
<linearGradient id="paint11_linear_314_91" x1="80.7365" y1="72.904" x2="63.2486" y2="166.507" gradientUnits="userSpaceOnUse">
<stop stop-color="#A25D21"/>
<stop offset="1" stop-color="#D79962"/>
</linearGradient>
<linearGradient id="paint12_linear_314_91" x1="80.7363" y1="72.904" x2="63.2484" y2="166.507" gradientUnits="userSpaceOnUse">
<stop stop-color="#995316"/>
<stop offset="1" stop-color="#D79962"/>
</linearGradient>
<linearGradient id="paint13_linear_314_91" x1="66.6886" y1="100.999" x2="69.2688" y2="99.7094" gradientUnits="userSpaceOnUse">
<stop stop-color="#6A4222"/>
<stop offset="1" stop-color="#D58947"/>
</linearGradient>
<linearGradient id="paint14_linear_314_91" x1="52.3545" y1="81.9347" x2="53.2145" y2="84.6583" gradientUnits="userSpaceOnUse">
<stop stop-color="#D48845"/>
<stop offset="1" stop-color="#4E3219"/>
</linearGradient>
<linearGradient id="paint15_linear_314_91" x1="65.1121" y1="75.771" x2="66.9755" y2="75.6276" gradientUnits="userSpaceOnUse">
<stop stop-color="#D48641" stop-opacity="0"/>
<stop offset="1" stop-color="#4E3219"/>
</linearGradient>
<linearGradient id="paint16_linear_314_91" x1="46.1907" y1="94.119" x2="47.1483" y2="103.17" gradientUnits="userSpaceOnUse">
<stop stop-color="#D58A49"/>
<stop offset="1" stop-color="#281709"/>
</linearGradient>
<linearGradient id="paint17_linear_314_91" x1="52.7594" y1="51.4307" x2="37.2783" y2="62.6115" gradientUnits="userSpaceOnUse">
<stop stop-color="#FFF9FF" stop-opacity="0.36"/>
<stop offset="1" stop-color="#1B0A5D" stop-opacity="0"/>
</linearGradient>
<linearGradient id="paint18_linear_314_91" x1="19.5296" y1="51.2257" x2="59.8567" y2="56.7742" gradientUnits="userSpaceOnUse">
<stop stop-color="#9F9F9F"/>
<stop offset="1" stop-color="#787877"/>
</linearGradient>
<linearGradient id="paint19_linear_314_91" x1="20.3435" y1="57.3144" x2="51.3903" y2="57.4715" gradientUnits="userSpaceOnUse">
<stop stop-color="#CBCBCB"/>
<stop offset="1" stop-color="#828380"/>
</linearGradient>
<linearGradient id="paint20_linear_314_91" x1="27.9189" y1="61.2503" x2="62.5263" y2="61.3281" gradientUnits="userSpaceOnUse">
<stop stop-color="#1B0A5D"/>
<stop offset="0.390625" stop-color="#1B0A5D"/>
<stop offset="0.970597" stop-color="#010005"/>
</linearGradient>
<linearGradient id="paint21_linear_314_91" x1="26.2735" y1="60.8415" x2="63.9139" y2="60.0037" gradientUnits="userSpaceOnUse">
<stop stop-color="#5B5C59"/>
<stop offset="1" stop-color="#3F403E"/>
</linearGradient>
<linearGradient id="paint22_linear_314_91" x1="63.5752" y1="83.9441" x2="64.1637" y2="84.6794" gradientUnits="userSpaceOnUse">
<stop stop-color="#A58C7A"/>
<stop offset="1" stop-color="#7B5C46" stop-opacity="0"/>
</linearGradient>
<linearGradient id="paint23_linear_314_91" x1="63.5752" y1="83.9441" x2="64.1637" y2="84.6793" gradientUnits="userSpaceOnUse">
<stop stop-color="#A58C7A"/>
<stop offset="1" stop-color="#7B5C46" stop-opacity="0"/>
</linearGradient>
<linearGradient id="paint24_linear_314_91" x1="64.2952" y1="83.8282" x2="64.5614" y2="84.1568" gradientUnits="userSpaceOnUse">
<stop stop-color="#95614F"/>
<stop offset="1" stop-color="#372620" stop-opacity="0"/>
</linearGradient>
<linearGradient id="paint25_linear_314_91" x1="63.9276" y1="83.7916" x2="64.2424" y2="84.1804" gradientUnits="userSpaceOnUse">
<stop stop-color="#95614F"/>
<stop offset="1" stop-color="#372620" stop-opacity="0"/>
</linearGradient>
<linearGradient id="paint26_linear_314_91" x1="63.6427" y1="83.8935" x2="63.9418" y2="84.2629" gradientUnits="userSpaceOnUse">
<stop stop-color="#95614F"/>
<stop offset="1" stop-color="#372620" stop-opacity="0"/>
</linearGradient>
<linearGradient id="paint27_linear_314_91" x1="63.4248" y1="84.0685" x2="63.6953" y2="84.4024" gradientUnits="userSpaceOnUse">
<stop stop-color="#95614F"/>
<stop offset="1" stop-color="#372620" stop-opacity="0"/>
</linearGradient>
<linearGradient id="paint28_linear_314_91" x1="63.2793" y1="84.2607" x2="63.522" y2="84.5603" gradientUnits="userSpaceOnUse">
<stop stop-color="#95614F"/>
<stop offset="1" stop-color="#372620" stop-opacity="0"/>
</linearGradient>
<linearGradient id="paint29_linear_314_91" x1="63.1606" y1="84.5098" x2="63.3715" y2="84.7703" gradientUnits="userSpaceOnUse">
<stop stop-color="#95614F"/>
<stop offset="1" stop-color="#372620" stop-opacity="0"/>
</linearGradient>
<linearGradient id="paint30_linear_314_91" x1="63.109" y1="84.7964" x2="63.2825" y2="85.0107" gradientUnits="userSpaceOnUse">
<stop stop-color="#95614F"/>
<stop offset="1" stop-color="#372620" stop-opacity="0"/>
</linearGradient>
<linearGradient id="paint31_linear_314_91" x1="64.3581" y1="85.113" x2="64.3801" y2="85.269" gradientUnits="userSpaceOnUse">
<stop/>
<stop offset="1" stop-color="#BC0624"/>
</linearGradient>
<linearGradient id="paint32_linear_314_91" x1="65.6303" y1="81.4918" x2="66.2077" y2="87.0189" gradientUnits="userSpaceOnUse">
<stop offset="0.0001" stop-color="#F44336"/>
<stop offset="1" stop-color="#BC0624" stop-opacity="0"/>
</linearGradient>
</defs>
</svg>
