<svg width="833" height="817" viewBox="0 0 833 817" fill="none" xmlns="http://www.w3.org/2000/svg">
<g filter="url(#filter0_d_1_4329)">
<path d="M657.635 86.8963C832.986 224.799 863.345 478.741 725.442 654.092C587.54 829.443 333.598 859.802 158.247 721.899C-17.1046 583.997 -47.463 330.055 90.4394 154.704C228.342 -20.6476 482.284 -51.0059 657.635 86.8963Z" fill="url(#paint0_linear_1_4329)"/>
<path d="M210.44 376.271C237.419 397.485 242.093 436.552 220.88 463.531C199.666 490.51 160.599 495.184 133.62 473.971C106.641 452.757 101.967 413.69 123.18 386.711C144.394 359.732 183.461 355.058 210.44 376.271Z" fill="url(#paint1_linear_1_4329)"/>
<path d="M467.203 51.9612C478.493 56.3046 482.838 67.5687 476.909 77.1203C470.979 86.6719 457.02 90.8939 445.73 86.5505C434.44 82.2071 430.095 70.943 436.024 61.3914C441.954 51.8398 455.913 47.6178 467.203 51.9612Z" fill="url(#paint2_linear_1_4329)"/>
<path d="M730.138 240.41C742.997 238.375 755.703 251.146 758.519 268.935C761.335 286.725 753.195 302.796 740.336 304.831C727.478 306.867 714.771 294.096 711.955 276.306C709.139 258.517 717.28 242.445 730.138 240.41Z" fill="url(#paint3_linear_1_4329)"/>
<path d="M213.614 66.8357C217.59 72.5726 208.811 85.5393 194.007 95.7978C179.203 106.056 163.98 109.722 160.004 103.985C156.029 98.248 164.807 85.2812 179.611 75.0228C194.415 64.7644 209.639 61.0989 213.614 66.8357Z" fill="url(#paint4_linear_1_4329)"/>
<path d="M640.803 542.884C669.803 578.614 658.946 635.471 616.554 669.878C574.162 704.285 516.288 703.212 487.288 667.482C458.289 631.752 469.145 574.894 511.537 540.488C553.929 506.081 611.804 507.154 640.803 542.884Z" fill="url(#paint5_linear_1_4329)"/>
<path d="M105.346 128.362C110.326 131.95 102.492 151.337 87.8486 171.664C73.2048 191.992 57.2963 205.562 52.316 201.974C47.3357 198.386 55.1696 178.999 69.8134 158.672C84.4572 138.344 100.366 124.774 105.346 128.362Z" fill="#3E404E"/>
<path d="M111.889 133.075C120.483 139.266 115.578 160.764 100.935 181.091C86.2908 201.419 67.4529 212.879 58.8589 206.688C50.265 200.497 55.1694 178.999 69.8132 158.672C84.4571 138.344 103.295 126.884 111.889 133.075Z" fill="#3E404E"/>
<path d="M94.5314 135.452C95.9805 136.496 88.841 148.883 78.585 163.12C68.329 177.356 58.8401 188.051 57.391 187.007C55.942 185.963 63.0814 173.576 73.3374 159.339C83.5935 145.103 93.0823 134.408 94.5314 135.452Z" fill="#111321"/>
<path d="M67.739 654.314C74.7864 647.235 103.922 664.815 132.815 693.579C161.708 722.344 179.418 751.401 172.371 758.479C165.323 765.558 136.188 747.979 107.294 719.214C78.4012 690.45 60.6916 661.393 67.739 654.314Z" fill="url(#paint6_linear_1_4329)"/>
<path d="M76.9981 645.013C89.159 632.798 122.44 646.213 151.333 674.978C180.226 703.742 193.79 736.963 181.63 749.178C169.469 761.394 136.188 747.978 107.295 719.213C78.4014 690.449 64.8372 657.228 76.9981 645.013Z" fill="url(#paint7_linear_1_4329)"/>
<path d="M76.3494 673.518C78.3999 671.459 96.4665 686.12 116.702 706.266C136.938 726.412 151.68 744.413 149.63 746.472C147.579 748.532 129.513 733.87 109.277 713.725C89.0409 693.579 74.2988 675.578 76.3494 673.518Z" fill="#111321"/>
<path d="M524.07 784.496C521.901 779.657 549.561 760.709 585.852 742.174C622.143 723.64 653.321 712.538 655.49 717.377C657.66 722.216 629.999 741.165 593.708 759.699C557.418 778.233 526.24 789.335 524.07 784.496Z" fill="url(#paint8_linear_1_4329)"/>
<path d="M521.22 778.139C517.476 769.788 543.861 747.993 580.152 729.459C616.442 710.924 648.897 702.669 652.64 711.02C656.384 719.37 629.999 741.165 593.709 759.699C557.418 778.234 524.964 786.489 521.22 778.139Z" fill="url(#paint9_linear_1_4329)"/>
<path d="M543.198 779.215C542.567 777.807 562.659 766.142 588.076 753.161C613.493 740.18 634.609 730.799 635.24 732.207C635.871 733.615 615.779 745.279 590.362 758.26C564.945 771.241 543.829 780.623 543.198 779.215Z" fill="#050715"/>
<path d="M816.857 442.354C808.15 442.918 799.224 414.564 796.921 379.023C794.618 343.483 799.81 314.214 808.517 313.649C817.225 313.085 826.151 341.439 828.454 376.98C830.757 412.521 825.565 441.79 816.857 442.354Z" fill="url(#paint10_linear_1_4329)"/>
<path d="M805.417 443.096C790.391 444.07 776.343 416.048 774.04 380.507C771.737 344.966 782.051 315.365 797.077 314.391C812.102 313.418 826.15 341.44 828.453 376.981C830.756 412.521 820.443 442.122 805.417 443.096Z" fill="url(#paint11_linear_1_4329)"/>
<path d="M822.316 424.8C819.782 424.964 816.421 404.919 814.808 380.027C813.195 355.135 813.941 334.824 816.475 334.66C819.008 334.495 822.37 354.541 823.983 379.432C825.596 404.324 824.849 424.636 822.316 424.8Z" fill="#060816"/>
<path d="M606.233 44.8603C603.721 49.6817 585.731 45.2768 566.052 35.0218C546.373 24.7667 532.457 12.5449 534.97 7.72354C537.482 2.90218 555.472 7.30705 575.151 17.5621C594.83 27.8171 608.746 40.039 606.233 44.8603Z" fill="url(#paint12_linear_1_4329)"/>
<path d="M602.932 51.1946C598.596 59.5142 579.129 57.9453 559.45 47.6903C539.771 37.4352 527.333 22.3774 531.669 14.0577C536.004 5.73805 555.472 7.30696 575.15 17.562C594.829 27.8171 607.267 42.8749 602.932 51.1946Z" fill="url(#paint13_linear_1_4329)"/>
<path d="M598.642 36.2798C597.911 37.6827 586.146 32.9975 572.364 25.8152C558.581 18.6329 548.001 11.6733 548.732 10.2705C549.463 8.86762 561.229 13.5528 575.011 20.7351C588.793 27.9174 599.373 34.877 598.642 36.2798Z" fill="#101220"/>
<path d="M464.229 312.564C474.363 331.469 467.252 355.01 448.347 365.144C429.441 375.278 405.9 368.167 395.767 349.261C385.633 330.356 392.744 306.815 411.649 296.681C430.555 286.548 454.096 293.658 464.229 312.564Z" fill="#2F313F"/>
<path d="M302.54 721.22C297.915 733.23 277.938 736.717 257.921 729.008C237.905 721.299 225.427 705.313 230.053 693.303C234.678 681.293 254.654 677.806 274.671 685.515C294.688 693.224 307.166 709.209 302.54 721.22Z" fill="#282A38"/>
<path d="M312.073 94.4699C318.153 105.813 307.756 123.224 288.851 133.357C269.945 143.491 249.691 142.51 243.61 131.167C237.53 119.824 247.927 102.414 266.832 92.2798C285.738 82.1461 305.993 83.1267 312.073 94.4699Z" fill="#3F414F"/>
<path d="M746.238 419.284C758.277 423.834 761.89 443.788 754.307 463.853C746.724 483.918 730.817 496.496 718.778 491.946C706.739 487.396 703.127 467.442 710.71 447.377C718.292 427.312 734.199 414.734 746.238 419.284Z" fill="#1B1D2B"/>
</g>
<defs>
<filter id="filter0_d_1_4329" x="0" y="0.457016" width="833" height="815.882" filterUnits="userSpaceOnUse" color-interpolation-filters="sRGB">
<feFlood flood-opacity="0" result="BackgroundImageFix"/>
<feColorMatrix in="SourceAlpha" type="matrix" values="0 0 0 0 0 0 0 0 0 0 0 0 0 0 0 0 0 0 127 0" result="hardAlpha"/>
<feOffset dy="4"/>
<feGaussianBlur stdDeviation="2"/>
<feColorMatrix type="matrix" values="0 0 0 0 0 0 0 0 0 0 0 0 0 0 0 0 0 0 0.25 0"/>
<feBlend mode="normal" in2="BackgroundImageFix" result="effect1_dropShadow_1_4329"/>
<feBlend mode="normal" in="SourceGraphic" in2="effect1_dropShadow_1_4329" result="shape"/>
</filter>
<linearGradient id="paint0_linear_1_4329" x1="90.4399" y1="154.704" x2="725.443" y2="654.092" gradientUnits="userSpaceOnUse">
<stop stop-color="#404250"/>
<stop offset="1" stop-color="#090B19"/>
</linearGradient>
<linearGradient id="paint1_linear_1_4329" x1="123.18" y1="386.711" x2="220.88" y2="463.531" gradientUnits="userSpaceOnUse">
<stop stop-color="#090B19"/>
<stop offset="1" stop-color="#3A3C4A"/>
</linearGradient>
<linearGradient id="paint2_linear_1_4329" x1="436.024" y1="61.3908" x2="472.583" y2="84.0869" gradientUnits="userSpaceOnUse">
<stop stop-color="#080A18"/>
<stop offset="1" stop-color="#4C4E5C"/>
</linearGradient>
<linearGradient id="paint3_linear_1_4329" x1="711.955" y1="276.306" x2="758.519" y2="268.935" gradientUnits="userSpaceOnUse">
<stop stop-color="#0F111F"/>
<stop offset="1" stop-color="#272937"/>
</linearGradient>
<linearGradient id="paint4_linear_1_4329" x1="179.611" y1="75.0221" x2="194.007" y2="95.7971" gradientUnits="userSpaceOnUse">
<stop stop-color="#161826"/>
<stop offset="1" stop-color="#4C4E5C"/>
</linearGradient>
<linearGradient id="paint5_linear_1_4329" x1="511.537" y1="540.488" x2="616.554" y2="669.878" gradientUnits="userSpaceOnUse">
<stop stop-color="#060816"/>
<stop offset="1" stop-color="#242634"/>
</linearGradient>
<linearGradient id="paint6_linear_1_4329" x1="174.554" y1="758.673" x2="70.5976" y2="646.943" gradientUnits="userSpaceOnUse">
<stop stop-color="#222432"/>
<stop offset="1" stop-color="#2B2D3B"/>
</linearGradient>
<linearGradient id="paint7_linear_1_4329" x1="190.853" y1="746.048" x2="92.0217" y2="625.809" gradientUnits="userSpaceOnUse">
<stop stop-color="#222432"/>
<stop offset="1" stop-color="#2B2D3B"/>
</linearGradient>
<linearGradient id="paint8_linear_1_4329" x1="660.316" y1="711.268" x2="527.46" y2="791.41" gradientUnits="userSpaceOnUse">
<stop stop-color="#0A0C1A"/>
<stop offset="1" stop-color="#0E101E"/>
</linearGradient>
<linearGradient id="paint9_linear_1_4329" x1="656.92" y1="703.878" x2="522.279" y2="781.272" gradientUnits="userSpaceOnUse">
<stop stop-color="#0A0C1A"/>
<stop offset="1" stop-color="#0E101E"/>
</linearGradient>
<linearGradient id="paint10_linear_1_4329" x1="815.42" y1="441.595" x2="808.298" y2="313.213" gradientUnits="userSpaceOnUse">
<stop stop-color="#0D0F1D"/>
<stop offset="1" stop-color="#131523"/>
</linearGradient>
<linearGradient id="paint11_linear_1_4329" x1="799.404" y1="445.582" x2="783.742" y2="312.843" gradientUnits="userSpaceOnUse">
<stop stop-color="#0D0F1D"/>
<stop offset="1" stop-color="#131523"/>
</linearGradient>
<linearGradient id="paint12_linear_1_4329" x1="531.103" y1="4.87515" x2="608.229" y2="38.1742" gradientUnits="userSpaceOnUse">
<stop stop-color="#2E303E"/>
<stop offset="1" stop-color="#292B39"/>
</linearGradient>
<linearGradient id="paint13_linear_1_4329" x1="524.997" y1="11.5804" x2="605.078" y2="49.677" gradientUnits="userSpaceOnUse">
<stop stop-color="#2E303E"/>
<stop offset="1" stop-color="#292B39"/>
</linearGradient>
</defs>
</svg>
