<svg width="278" height="272" viewBox="0 0 278 272" fill="none" xmlns="http://www.w3.org/2000/svg">
<path d="M266.6 81.6374C296.614 150.256 265.319 230.215 196.7 260.229C128.082 290.244 48.1234 258.949 18.1089 190.33C-11.9057 121.711 19.3893 41.7526 88.0082 11.738C156.627 -18.2766 236.585 13.0185 266.6 81.6374Z" fill="url(#paint0_linear_1_1744)"/>
<path d="M88.3739 96.3352C92.9925 106.892 88.1789 119.193 77.6226 123.812C67.0662 128.43 54.7645 123.617 50.146 113.06C45.5274 102.504 50.341 90.2024 60.8974 85.5838C71.4537 80.9653 83.7554 85.7788 88.3739 96.3352Z" fill="url(#paint1_linear_1_1744)"/>
<path d="M215.791 41.0957C218.443 44.1716 217.942 48.1939 214.673 50.0798C211.403 51.9656 206.603 51.0008 203.951 47.9249C201.299 44.849 201.8 40.8267 205.07 38.9408C208.339 37.055 213.139 38.0198 215.791 41.0957Z" fill="url(#paint2_linear_1_1744)"/>
<path d="M263.705 138.562C267.833 139.999 269.567 145.794 267.579 151.505C265.591 157.215 260.633 160.679 256.505 159.242C252.377 157.805 250.643 152.011 252.631 146.3C254.619 140.589 259.577 137.125 263.705 138.562Z" fill="url(#paint3_linear_1_1744)"/>
<path d="M138.394 5.27476C138.66 7.60283 134.006 10.0474 127.998 10.7348C121.99 11.4222 116.904 10.0922 116.638 7.76414C116.371 5.43608 121.026 2.99154 127.033 2.30412C133.041 1.6167 138.127 2.9467 138.394 5.27476Z" fill="url(#paint4_linear_1_1744)"/>
<path d="M189.294 213.897C192.208 229.069 179.978 244.171 161.976 247.629C143.975 251.086 127.02 241.589 124.106 226.416C121.192 211.244 133.423 196.142 151.424 192.684C169.425 189.227 186.38 198.724 189.294 213.897Z" fill="url(#paint5_linear_1_1744)"/>
<path d="M96.5975 6.30752C97.5021 8.15908 92.109 12.6533 84.5517 16.3455C76.9943 20.0378 70.1346 21.53 69.2299 19.6785C68.3253 17.8269 73.7184 13.3328 81.2757 9.64046C88.8331 5.94817 95.6929 4.45597 96.5975 6.30752Z" fill="#C00C14"/>
<path d="M97.7861 8.74056C99.3472 11.9356 94.4861 17.5189 86.9288 21.2112C79.3714 24.9034 71.9794 25.3066 70.4184 22.1115C68.8574 18.9165 73.7184 13.3332 81.2758 9.64093C88.8332 5.94863 96.2251 5.54552 97.7861 8.74056Z" fill="#C00C14"/>
<path d="M92.272 6.69067C92.5352 7.2294 88.4579 9.76244 83.165 12.3484C77.8721 14.9343 73.368 16.5939 73.1047 16.0551C72.8415 15.5164 76.9189 12.9834 82.2118 10.3974C87.5047 7.81152 92.0088 6.15193 92.272 6.69067Z" fill="#400003"/>
<path d="M2.0471 155.975C5.25527 154.999 11.0883 164.822 15.0756 177.916C19.0629 191.01 19.6945 202.418 16.4863 203.394C13.2782 204.371 7.44512 194.548 3.45783 181.454C-0.529455 168.359 -1.16106 156.952 2.0471 155.975Z" fill="url(#paint6_linear_1_1744)"/>
<path d="M6.2615 154.691C11.7975 153.005 19.5176 162.254 23.5049 175.348C27.4922 188.443 26.2367 200.425 20.7007 202.11C15.1648 203.796 7.44463 194.547 3.45735 181.453C-0.529941 168.359 0.725521 156.377 6.2615 154.691Z" fill="url(#paint7_linear_1_1744)"/>
<path d="M1.54941 163.023C2.48287 162.739 5.50343 169.943 8.29601 179.114C11.0886 188.285 12.5957 195.95 11.6622 196.234C10.7288 196.518 7.70821 189.314 4.91563 180.143C2.12305 170.973 0.615938 163.308 1.54941 163.023Z" fill="#400104"/>
<path d="M116.43 266.877C116.555 265.101 127.746 263.881 141.424 264.153C155.103 264.424 166.089 266.084 165.964 267.861C165.838 269.637 154.648 270.856 140.969 270.584C127.291 270.313 116.304 268.653 116.43 266.877Z" fill="url(#paint8_linear_1_1744)"/>
<path d="M116.595 264.543C116.812 261.478 128.076 259.214 141.755 259.486C155.433 259.757 166.346 262.462 166.129 265.527C165.912 268.592 154.648 270.856 140.97 270.584C127.291 270.313 116.378 267.608 116.595 264.543Z" fill="url(#paint9_linear_1_1744)"/>
<path d="M122.927 268.348C122.964 267.831 130.759 267.566 140.339 267.756C149.919 267.947 157.655 268.52 157.619 269.037C157.582 269.553 149.787 269.818 140.207 269.628C130.627 269.437 122.89 268.864 122.927 268.348Z" fill="#150303"/>
<path d="M257.335 212.073C254.669 210.859 256.525 201.053 261.481 190.171C266.437 179.289 272.615 171.452 275.282 172.666C277.948 173.88 276.092 183.686 271.136 194.568C266.18 205.45 260.001 213.287 257.335 212.073Z" fill="url(#paint10_linear_1_1744)"/>
<path d="M253.831 210.479C249.231 208.384 249.519 197.864 254.474 186.982C259.43 176.1 267.177 168.977 271.777 171.072C276.378 173.167 276.09 183.687 271.135 194.569C266.179 205.451 258.432 212.574 253.831 210.479Z" fill="url(#paint11_linear_1_1744)"/>
<path d="M261.734 207.745C260.958 207.392 263.143 200.927 266.614 193.306C270.085 185.684 273.527 179.792 274.303 180.146C275.079 180.499 272.894 186.964 269.423 194.585C265.952 202.207 262.51 208.099 261.734 207.745Z" fill="#130406"/>
<path d="M258.057 61.0463C256.549 62.0745 251.924 57.9176 247.728 51.7617C243.531 45.6058 241.352 39.782 242.86 38.7538C244.368 37.7257 248.993 41.8825 253.189 48.0384C257.386 54.1943 259.565 60.0181 258.057 61.0463Z" fill="url(#paint12_linear_1_1744)"/>
<path d="M256.076 62.3966C253.473 64.1708 247.962 60.6188 243.765 54.4631C239.569 48.3073 238.277 41.8789 240.879 40.1048C243.482 38.3306 248.993 41.8826 253.19 48.0383C257.386 54.1941 258.679 60.6225 256.076 62.3966Z" fill="url(#paint13_linear_1_1744)"/>
<path d="M257.172 57.3029C256.733 57.602 253.995 54.3496 251.056 50.0383C248.117 45.7271 246.09 41.9896 246.529 41.6905C246.968 41.3913 249.706 44.6438 252.645 48.955C255.584 53.2663 257.611 57.0037 257.172 57.3029Z" fill="#3D0002"/>
<path d="M173.576 117.738C173.576 124.939 167.738 130.777 160.537 130.777C153.335 130.777 147.497 124.939 147.497 117.738C147.497 110.536 153.335 104.698 160.537 104.698C167.738 104.698 173.576 110.536 173.576 117.738Z" fill="#91080D"/>
<path d="M60.9144 213.015C57.6407 215.835 51.1765 213.699 46.4761 208.243C41.7756 202.786 40.619 196.077 43.8927 193.257C47.1663 190.437 53.6305 192.573 58.331 198.029C63.0314 203.486 64.188 210.195 60.9144 213.015Z" fill="#79080D"/>
<path d="M163.145 29.0685C163.145 33.3894 157.307 36.8922 150.106 36.8922C142.904 36.8922 137.066 33.3894 137.066 29.0685C137.066 24.7476 142.904 21.2448 150.106 21.2448C157.307 21.2448 163.145 24.7476 163.145 29.0685Z" fill="#BD0C14"/>
<path d="M240.097 194.046C242.938 197.302 240.842 203.78 235.415 208.514C229.989 213.249 223.287 214.448 220.446 211.192C217.605 207.936 219.701 201.459 225.128 196.724C230.554 191.989 237.256 190.79 240.097 194.046Z" fill="#580508"/>
<defs>
<linearGradient id="paint0_linear_1_1744" x1="88.0084" y1="11.7382" x2="196.701" y2="260.229" gradientUnits="userSpaceOnUse">
<stop stop-color="#C50D15"/>
<stop offset="1" stop-color="#280001"/>
</linearGradient>
<linearGradient id="paint1_linear_1_1744" x1="60.8973" y1="85.5838" x2="77.6225" y2="123.812" gradientUnits="userSpaceOnUse">
<stop stop-color="#1F0406"/>
<stop offset="1" stop-color="#A8111A"/>
</linearGradient>
<linearGradient id="paint2_linear_1_1744" x1="205.07" y1="38.9406" x2="212.288" y2="51.4551" gradientUnits="userSpaceOnUse">
<stop stop-color="#190306"/>
<stop offset="1" stop-color="#E0131F"/>
</linearGradient>
<linearGradient id="paint3_linear_1_1744" x1="252.631" y1="146.3" x2="267.579" y2="151.505" gradientUnits="userSpaceOnUse">
<stop stop-color="#2E0508"/>
<stop offset="1" stop-color="#7D060D"/>
</linearGradient>
<linearGradient id="paint4_linear_1_1744" x1="127.033" y1="2.30389" x2="127.998" y2="10.7346" gradientUnits="userSpaceOnUse">
<stop stop-color="#420609"/>
<stop offset="1" stop-color="#DF131E"/>
</linearGradient>
<linearGradient id="paint5_linear_1_1744" x1="151.424" y1="192.684" x2="161.976" y2="247.629" gradientUnits="userSpaceOnUse">
<stop stop-color="#150305"/>
<stop offset="1" stop-color="#70090F"/>
</linearGradient>
<linearGradient id="paint6_linear_1_1744" x1="17.1017" y1="203.798" x2="4.06215" y2="154.248" gradientUnits="userSpaceOnUse">
<stop stop-color="#6F060A"/>
<stop offset="1" stop-color="#8C080E"/>
</linearGradient>
<linearGradient id="paint7_linear_1_1744" x1="21.6428" y1="202.414" x2="7.80138" y2="153.056" gradientUnits="userSpaceOnUse">
<stop stop-color="#6F060A"/>
<stop offset="1" stop-color="#8C080E"/>
</linearGradient>
<linearGradient id="paint8_linear_1_1744" x1="168.361" y1="266.818" x2="116.336" y2="269.46" gradientUnits="userSpaceOnUse">
<stop stop-color="#2A0001"/>
<stop offset="1" stop-color="#360103"/>
</linearGradient>
<linearGradient id="paint9_linear_1_1744" x1="168.582" y1="263.695" x2="116.371" y2="263.683" gradientUnits="userSpaceOnUse">
<stop stop-color="#2A0001"/>
<stop offset="1" stop-color="#360103"/>
</linearGradient>
<linearGradient id="paint10_linear_1_1744" x1="257.03" y1="211.62" x2="275.285" y2="172.502" gradientUnits="userSpaceOnUse">
<stop stop-color="#380103"/>
<stop offset="1" stop-color="#470205"/>
</linearGradient>
<linearGradient id="paint11_linear_1_1744" x1="253.219" y1="209.887" x2="271.322" y2="170.696" gradientUnits="userSpaceOnUse">
<stop stop-color="#380103"/>
<stop offset="1" stop-color="#470205"/>
</linearGradient>
<linearGradient id="paint12_linear_1_1744" x1="241.382" y1="36.8919" x2="259.638" y2="60.363" gradientUnits="userSpaceOnUse">
<stop stop-color="#92090E"/>
<stop offset="1" stop-color="#82070C"/>
</linearGradient>
<linearGradient id="paint13_linear_1_1744" x1="239.298" y1="38.3135" x2="256.952" y2="62.2882" gradientUnits="userSpaceOnUse">
<stop stop-color="#92090E"/>
<stop offset="1" stop-color="#82070C"/>
</linearGradient>
</defs>
</svg>
