<svg width="250" height="50" viewBox="0 0 250 50" fill="none" xmlns="http://www.w3.org/2000/svg">
<path d="M98.5238 36.5282H94.8906V34.6588H104.036V36.5282H100.403V45.7507H98.3985V36.5282H98.5238ZM113.056 45.7507H106.417V34.6588H112.806V36.5282H108.296V39.27H112.305V41.1395H108.296V44.0059H112.931V45.7507H113.056ZM122.703 34.6588H124.958L121.2 40.0178L125.083 45.6261H122.828L119.947 41.5134L117.065 45.6261H114.81L118.694 40.0178L114.936 34.6588H117.191L119.947 38.6469L122.703 34.6588ZM136.484 45.7507H134.48V41.0148H129.468V45.7507H127.464V34.6588H129.468V39.1454H134.605V34.6588H136.484V45.7507ZM139.365 40.2671C139.365 38.6469 139.867 37.276 140.994 36.1543C142.122 35.0326 143.5 34.5341 145.128 34.5341C146.757 34.5341 148.135 35.0326 149.263 36.1543C150.39 37.276 150.891 38.6469 150.891 40.2671C150.891 41.8872 150.39 43.2582 149.263 44.3798C148.135 45.5015 146.757 46 145.128 46C143.5 46 142.122 45.5015 140.994 44.3798C139.867 43.2582 139.365 41.8872 139.365 40.2671ZM141.37 40.2671C141.37 41.3887 141.746 42.2611 142.372 43.0089C142.999 43.7567 144.001 44.1306 145.003 44.1306C146.131 44.1306 147.008 43.7567 147.759 43.0089C148.386 42.2611 148.762 41.3887 148.762 40.2671C148.762 39.1454 148.386 38.1484 147.634 37.5252C146.882 36.7774 146.005 36.4036 145.003 36.4036C143.876 36.4036 142.999 36.7774 142.372 37.5252C141.746 38.1484 141.37 39.1454 141.37 40.2671ZM161.916 45.7507H160.037V36.5282H156.78L156.529 38.6469C156.404 39.8932 156.278 41.0148 156.028 41.8872C155.777 42.7596 155.652 43.5074 155.402 44.0059C155.151 44.5045 154.9 45.003 154.525 45.2522C154.149 45.5015 153.898 45.7507 153.522 45.7507C153.146 45.8754 152.771 45.8754 152.269 45.7507V43.8813C152.52 43.8813 152.645 43.8813 152.896 43.8813C153.021 43.8813 153.272 43.632 153.397 43.3828C153.648 43.1335 153.773 42.7596 153.898 42.2611C154.274 41.1395 154.525 39.3947 154.775 36.9021L154.9 34.6588H161.916V45.7507ZM164.798 40.2671C164.798 38.6469 165.299 37.276 166.426 36.1543C167.554 35.0326 168.932 34.5341 170.561 34.5341C172.189 34.5341 173.567 35.0326 174.695 36.1543C175.822 37.276 176.323 38.6469 176.323 40.2671C176.323 41.8872 175.822 43.2582 174.695 44.3798C173.567 45.5015 172.189 46 170.561 46C168.932 46 167.554 45.5015 166.426 44.3798C165.299 43.2582 164.798 41.8872 164.798 40.2671ZM166.927 40.2671C166.927 41.3887 167.303 42.2611 167.93 43.0089C168.556 43.7567 169.558 44.1306 170.561 44.1306C171.688 44.1306 172.565 43.7567 173.317 43.0089C173.943 42.2611 174.319 41.3887 174.319 40.2671C174.319 39.1454 173.943 38.1484 173.191 37.5252C172.44 36.7774 171.563 36.4036 170.561 36.4036C169.433 36.4036 168.556 36.7774 167.93 37.5252C167.178 38.1484 166.927 39.1454 166.927 40.2671ZM181.209 45.7507H179.205V34.6588H185.469V36.5282H181.209V45.7507ZM190.104 45.7507H188.1V34.6588H190.104V45.7507ZM192.986 32.7893C192.986 32.5401 193.111 32.2908 193.236 32.0415C193.487 31.9169 193.738 31.7923 193.988 31.7923C194.239 31.7923 194.489 31.9169 194.74 32.0415C194.99 32.1662 194.99 32.4154 194.99 32.7893C194.99 33.1632 194.865 33.4125 194.74 33.5371C194.615 33.6617 194.364 33.7863 193.988 33.7863C193.738 33.7863 193.487 33.6617 193.236 33.5371C193.111 33.2878 192.986 33.0386 192.986 32.7893ZM196.243 45.7507H194.239V34.6588H196.243V45.7507ZM195.617 32.7893C195.617 32.5401 195.742 32.2908 195.867 32.0415C196.118 31.9169 196.369 31.7923 196.619 31.7923C196.87 31.7923 197.12 31.9169 197.371 32.0415C197.621 32.2908 197.621 32.4154 197.621 32.7893C197.621 33.1632 197.496 33.4125 197.371 33.5371C197.245 33.7863 196.995 33.7863 196.619 33.7863C196.243 33.7863 195.993 33.6617 195.867 33.5371C195.742 33.2878 195.617 33.0386 195.617 32.7893ZM211.903 43.2582L212.655 44.7537C212.279 45.1276 211.778 45.3769 211.152 45.6261C210.525 45.8754 209.774 46 209.147 46C207.393 46 206.015 45.5015 205.013 44.3798C204.011 43.3828 203.384 42.0119 203.384 40.2671C203.384 38.6469 203.885 37.276 204.888 36.1543C205.89 35.0326 207.268 34.5341 209.022 34.5341C210.4 34.5341 211.528 34.908 212.405 35.6558L211.528 37.1513C210.776 36.6528 209.899 36.4036 209.022 36.4036C208.02 36.4036 207.143 36.7774 206.391 37.4006C205.765 38.1484 205.389 39.0208 205.389 40.2671C205.389 41.3887 205.765 42.3858 206.391 43.1335C207.143 43.8813 208.02 44.2552 209.147 44.2552C210.275 44.1306 211.152 43.8813 211.903 43.2582ZM224.181 45.7507H222.302V41.0148H217.165V45.7507H215.161V34.6588H217.165V39.1454H222.302V34.6588H224.181V45.7507ZM235.08 34.6588H237.085L233.327 43.1335C232.951 44.0059 232.45 44.6291 232.074 45.1276C231.573 45.5015 231.071 45.7507 230.32 45.7507C229.568 45.7507 229.192 45.6261 228.816 45.2522L229.443 43.632C229.693 43.7567 229.944 43.8813 230.32 43.8813C230.821 43.8813 231.197 43.632 231.447 43.1335L231.573 42.7596L226.687 34.6588H228.942L232.575 40.8902L235.08 34.6588Z" fill="#535353"/>
<path d="M92.6439 15.7151L103.418 28.8012H96.5276L87.8832 17.9585V28.8012H82.4961V4.24926H87.8832V14.2196L96.1518 4.24926H102.792L92.6439 15.7151ZM202.516 9.35906H210.032V28.8012H215.42V9.35906H222.936V4.24926H202.39V9.35906H202.516ZM118.953 18.9555L126.595 28.8012H120.08L113.691 20.0772H111.687V28.8012H106.3V4.24926H106.926C108.053 4.24926 109.306 4.24926 110.684 4.24926C112.062 4.24926 113.19 4.24926 114.067 4.24926C121.584 4.24926 123.213 8.48665 123.213 12.1009C123.213 13.9703 122.711 15.5905 121.709 16.8368C120.832 17.7092 119.955 18.457 118.953 18.9555ZM112.313 9.35906C112.062 9.35906 111.937 9.35906 111.687 9.35906V14.9674H113.691C114.819 14.9674 115.821 14.7181 116.573 14.095C117.199 13.5964 117.575 12.8487 117.575 11.9763C117.575 10.73 117.199 9.23443 113.816 9.23443C113.691 9.23443 113.566 9.23443 113.315 9.23443C113.065 9.35906 112.689 9.35906 112.313 9.35906ZM193.871 4.24926L204.27 28.8012H198.507L196.126 22.819H186.981L184.6 28.8012H179.088L189.361 4.24926H193.871ZM191.491 11.727L188.985 17.7092H193.996L191.491 11.727ZM249.496 16.5875C249.496 20.2018 248.243 23.3175 245.863 25.6855C243.483 28.0534 240.351 29.2997 236.717 29.2997C233.084 29.2997 229.952 28.178 227.572 25.8101C225.192 23.4421 223.939 20.451 223.939 16.7122C223.939 13.2226 225.192 10.1068 227.572 7.73888C229.952 5.37092 233.084 4.12463 236.717 4.12463C240.351 4.12463 243.483 5.2463 245.863 7.61425C248.243 9.73294 249.496 12.8487 249.496 16.5875ZM241.979 21.9466C243.357 20.451 243.984 18.7062 243.984 16.4629C243.984 14.2196 243.357 12.4748 241.854 10.9792C240.476 9.60831 238.722 8.86054 236.717 8.86054C234.588 8.86054 232.959 9.60831 231.581 10.9792C230.203 12.3502 229.576 14.2196 229.576 16.4629C229.576 18.7062 230.203 20.451 231.581 21.822C232.959 23.3175 234.588 23.9407 236.717 23.9407C238.972 24.0653 240.601 23.4421 241.979 21.9466ZM176.081 4.24926L169.817 20.451L163.303 4.24926H157.54L167.687 28.8012H171.696L181.594 4.24926H176.081Z" fill="#535353"/>
<path d="M153.103 6.49432C151.596 4.99773 149.586 4.12472 147.451 4.12472C145.316 4.12472 143.307 4.99773 141.8 6.49432L141.423 6.86847L140.92 6.3696C139.413 4.87301 137.404 4 135.269 4C133.133 4 131.124 4.87301 129.617 6.3696C128.11 7.8662 127.23 9.86165 127.23 11.9818C127.23 14.102 128.11 16.0975 129.617 17.594L140.544 28.4443C140.795 28.6938 141.046 28.8185 141.423 28.8185C141.8 28.8185 142.051 28.6938 142.302 28.4443L153.229 17.594C154.736 16.0975 155.615 14.102 155.615 11.9818C155.615 9.86165 154.736 7.99091 153.103 6.49432Z" fill="#00B5FF"/>
<mask id="mask0_23_8101" style="mask-type:alpha" maskUnits="userSpaceOnUse" x="127" y="4" width="29" height="25">
<path d="M153.103 6.49432C151.596 4.99773 149.586 4.12472 147.451 4.12472C145.316 4.12472 143.307 4.99773 141.8 6.49432L141.423 6.86847L140.92 6.3696C139.413 4.87301 137.404 4 135.269 4C133.133 4 131.124 4.87301 129.617 6.3696C128.11 7.8662 127.23 9.86165 127.23 11.9818C127.23 14.102 128.11 16.0975 129.617 17.594L140.544 28.4443C140.795 28.6938 141.046 28.8185 141.423 28.8185C141.8 28.8185 142.051 28.6938 142.302 28.4443L153.229 17.594C154.736 16.0975 155.615 14.102 155.615 11.9818C155.615 9.86165 154.736 7.99091 153.103 6.49432Z" fill="#00B5FF"/>
</mask>
<g mask="url(#mask0_23_8101)">
<rect x="126.293" y="14.3227" width="30.0675" height="15.0844" fill="#FFBC00"/>
</g>
<path d="M7.23477 18.4V44.8C7.23477 45.52 6.75246 46 6.02898 46H1.2058C0.482318 46 0 45.52 0 44.8V18.4C0 17.68 0.482318 17.2 1.2058 17.2H6.02898C6.75246 17.2 7.23477 17.8 7.23477 18.4ZM72.7942 17.2H67.971C67.2476 17.2 66.7652 17.68 66.7652 18.4V44.8C66.7652 45.52 67.2476 46 67.971 46H72.7942C73.5177 46 74 45.52 74 44.8V18.4C74 17.8 73.5177 17.2 72.7942 17.2Z" fill="#FFBC57"/>
<path d="M64.3518 25.6V32.8C64.3518 33.52 63.8695 34 63.146 34H10.8503C10.1268 34 9.64453 33.52 9.64453 32.8V25.6C9.64453 24.88 10.1268 24.4 10.8503 24.4H63.146C63.8695 24.4 64.3518 24.88 64.3518 25.6ZM10.8503 22H25.0668C25.7902 22 26.2726 21.52 26.2726 20.8V5.2C26.2726 4.48 25.7902 4 25.0668 4H10.8503C10.1268 4 9.64453 4.48 9.64453 5.2V20.8C9.64453 21.52 10.1268 22 10.8503 22ZM29.89 22H44.1064C44.8299 22 45.3122 21.52 45.3122 20.8V5.2C45.3122 4.48 44.8299 4 44.1064 4H29.89C29.1665 4 28.6842 4.48 28.6842 5.2V20.8C28.6842 21.52 29.1665 22 29.89 22ZM63.146 4H48.9296C48.2061 4 47.7238 4.48 47.7238 5.2V20.8C47.7238 21.52 48.2061 22 48.9296 22H63.146C63.8695 22 64.3518 21.52 64.3518 20.8V5.2C64.3518 4.48 63.8695 4 63.146 4ZM63.146 36.4H10.8503C10.1268 36.4 9.64453 36.88 9.64453 37.6V44.8C9.64453 45.52 10.1268 46 10.8503 46H17.832C18.5555 46 19.0378 45.52 19.0378 44.8V43.6H54.9586V44.8C54.9586 45.52 55.4409 46 56.1643 46H63.146C63.8695 46 64.3518 45.52 64.3518 44.8V37.6C64.3518 36.88 63.8695 36.4 63.146 36.4Z" fill="#FFBC57"/>
</svg>
