<svg width="632" height="811" viewBox="0 0 632 811" fill="none" xmlns="http://www.w3.org/2000/svg">
<g opacity="0.8" clip-path="url(#clip0_35_1475)">
<path d="M513.85 452.185C518.336 521.041 506.695 599.99 469.07 631.831C431.467 664.103 368.066 649.468 312.05 624.972C256.013 600.046 207.71 565.232 194.262 516.736C180.835 468.672 202.078 406.723 227.626 343.365C252.826 280.034 281.961 214.89 322.809 202.049C363.636 188.778 416.176 227.81 452.567 276.505C488.958 325.2 509.385 383.76 513.85 452.185Z" fill="#F0F0F6"/>
</g>
<g opacity="0.5">
<path d="M319.399 314.32C352.084 353.323 379.355 409.218 370.331 453.687C361.509 498.403 316.592 531.692 271.876 554.05C226.959 576.16 182.443 587.091 153.167 566.472C124.092 546.101 110.055 494.18 98.0238 438.533C85.792 383.134 75.1644 324.009 94.4144 288.981C113.464 253.704 162.391 242.525 205.704 247.99C249.016 253.456 286.915 275.566 319.399 314.32Z" fill="#E8DAFF"/>
</g>
<defs>
<clipPath id="clip0_35_1475">
<rect width="525.095" height="544.913" fill="white" transform="matrix(0.638114 0.769942 -0.543511 0.839402 296.93 0)"/>
</clipPath>
</defs>
</svg>
