<svg width="59" height="21" viewBox="0 0 59 21" fill="none" xmlns="http://www.w3.org/2000/svg">
<path d="M2.27928 16.5C2.13195 16.5 2.00161 16.4433 1.88828 16.33C1.77495 16.2167 1.71828 16.0863 1.71828 15.939V5.654C1.71828 5.50667 1.76928 5.382 1.87128 5.28C1.98461 5.16667 2.12061 5.11 2.27928 5.11H9.47028C9.62895 5.11 9.75928 5.161 9.86128 5.263C9.96328 5.365 10.0143 5.49533 10.0143 5.654C10.0143 5.80133 9.95762 5.93167 9.84428 6.045C9.74228 6.147 9.61762 6.198 9.47028 6.198H2.80628V10.023H8.65428C8.81295 10.023 8.93761 10.074 9.02828 10.176C9.13028 10.2667 9.18128 10.3913 9.18128 10.55C9.18128 10.7087 9.13028 10.8447 9.02828 10.958C8.92628 11.06 8.80162 11.111 8.65428 11.111H2.80628V15.412H9.43628C9.59495 15.412 9.72528 15.463 9.82728 15.565C9.92928 15.667 9.98028 15.7917 9.98028 15.939C9.98028 16.0977 9.92361 16.2337 9.81028 16.347C9.70828 16.449 9.58361 16.5 9.43628 16.5H2.27928ZM14.3924 16.602C13.8371 16.602 13.3328 16.449 12.8794 16.143C12.4374 15.837 12.0861 15.395 11.8254 14.817C11.5648 14.2277 11.4344 13.542 11.4344 12.76C11.4344 11.3093 11.7574 10.176 12.4034 9.36C13.0494 8.544 13.9391 8.136 15.0724 8.136C15.8318 8.136 16.5854 8.33433 17.3334 8.731L17.4184 5.348C17.4184 5.20067 17.4751 5.076 17.5884 4.974C17.7018 4.86067 17.8321 4.804 17.9794 4.804C18.1154 4.804 18.2344 4.86067 18.3364 4.974C18.4498 5.08733 18.5064 5.21767 18.5064 5.365L18.2514 16.092C18.2514 16.2393 18.1948 16.364 18.0814 16.466C17.9794 16.5567 17.8548 16.602 17.7074 16.602C17.5488 16.602 17.4184 16.5453 17.3164 16.432C17.2144 16.3073 17.1691 16.1657 17.1804 16.007L17.1974 15.31C16.3134 16.1713 15.3784 16.602 14.3924 16.602ZM14.4094 15.599C14.9308 15.599 15.4068 15.4913 15.8374 15.276C16.2681 15.0607 16.6024 14.8057 16.8404 14.511C17.0898 14.205 17.2201 13.9387 17.2314 13.712L17.3164 9.785C17.0671 9.63767 16.7384 9.496 16.3304 9.36C15.9338 9.224 15.5314 9.156 15.1234 9.156C14.2508 9.156 13.5934 9.46767 13.1514 10.091C12.7094 10.7143 12.4884 11.587 12.4884 12.709C12.4884 13.6157 12.6584 14.324 12.9984 14.834C13.3498 15.344 13.8201 15.599 14.4094 15.599ZM23.4071 16.653C22.7724 16.653 22.2681 16.5113 21.8941 16.228C21.5314 15.9447 21.2651 15.463 21.0951 14.783C20.9251 14.103 20.8401 13.1567 20.8401 11.944C20.8401 10.6407 20.9081 9.56967 21.0441 8.731C21.0781 8.50433 21.1348 8.34567 21.2141 8.255C21.3048 8.153 21.4294 8.102 21.5881 8.102C21.7241 8.102 21.8374 8.14733 21.9281 8.238C22.0301 8.32867 22.0811 8.45333 22.0811 8.612C22.0811 8.782 22.0641 9.003 22.0301 9.275C21.9281 10.091 21.8771 11.1167 21.8771 12.352C21.8771 13.542 21.9961 14.3977 22.2341 14.919C22.4721 15.4403 22.8688 15.701 23.4241 15.701C23.9341 15.701 24.4441 15.5707 24.9541 15.31C25.4754 15.038 25.8438 14.7773 26.0591 14.528C26.1951 14.3693 26.2631 14.1143 26.2631 13.763L26.3311 8.578C26.3311 8.442 26.3821 8.32867 26.4841 8.238C26.5861 8.14733 26.7051 8.102 26.8411 8.102C26.9771 8.102 27.0961 8.14733 27.1981 8.238C27.3001 8.32867 27.3511 8.442 27.3511 8.578V16.075C27.3511 16.211 27.2944 16.3357 27.1811 16.449C27.0678 16.551 26.9374 16.602 26.7901 16.602C26.6088 16.602 26.4614 16.5453 26.3481 16.432C26.2461 16.3187 26.1951 16.177 26.1951 16.007V15.361C25.9458 15.6897 25.5604 15.99 25.0391 16.262C24.5291 16.5227 23.9851 16.653 23.4071 16.653ZM30.6787 16.602C30.452 16.602 30.2537 16.5227 30.0837 16.364C29.9137 16.2053 29.8287 16.007 29.8287 15.769V6.062C29.8287 5.74467 29.8684 5.518 29.9477 5.382C30.027 5.23467 30.1744 5.13833 30.3897 5.093C30.6164 5.03633 30.979 5.008 31.4777 5.008C33.5857 5.008 35.161 5.31967 36.2037 5.943C37.2577 6.56633 37.7847 7.46733 37.7847 8.646C37.7847 9.598 37.4504 10.38 36.7817 10.992C36.113 11.604 35.3027 12.0517 34.3507 12.335C33.3987 12.6183 32.4524 12.777 31.5117 12.811V15.769C31.5117 16.007 31.4324 16.2053 31.2737 16.364C31.115 16.5227 30.9167 16.602 30.6787 16.602ZM31.5117 11.145C32.6224 11.077 33.665 10.856 34.6397 10.482C35.6144 10.0967 36.1017 9.48467 36.1017 8.646C36.1017 8.02267 35.722 7.541 34.9627 7.201C34.2147 6.861 33.1437 6.691 31.7497 6.691H31.5117V11.145ZM40.0582 16.602C39.8429 16.602 39.6502 16.5283 39.4802 16.381C39.3215 16.2223 39.2422 16.041 39.2422 15.837V5.977C39.2422 5.75033 39.3159 5.56333 39.4632 5.416C39.6219 5.25733 39.8202 5.178 40.0582 5.178C40.2735 5.178 40.4605 5.25733 40.6192 5.416C40.7892 5.57467 40.8742 5.76167 40.8742 5.977V15.837C40.8742 16.041 40.7892 16.2223 40.6192 16.381C40.4492 16.5283 40.2622 16.602 40.0582 16.602ZM48.8018 16.772C48.5751 16.772 48.3881 16.7097 48.2408 16.585C48.1048 16.4603 48.0368 16.296 48.0368 16.092V15.854C47.5721 16.3527 46.9261 16.602 46.0988 16.602C45.4754 16.602 44.9144 16.449 44.4158 16.143C43.9171 15.837 43.5261 15.4063 43.2428 14.851C42.9594 14.2843 42.8178 13.644 42.8178 12.93C42.8178 12.1367 42.9878 11.3717 43.3278 10.635C43.6678 9.887 44.1438 9.28067 44.7558 8.816C45.3791 8.35133 46.0931 8.119 46.8978 8.119C47.4191 8.119 47.8894 8.19267 48.3088 8.34C48.7281 8.476 49.1644 8.646 49.6178 8.85V15.922C49.6178 16.1487 49.5384 16.347 49.3798 16.517C49.2211 16.687 49.0284 16.772 48.8018 16.772ZM46.2178 15.021C46.5464 15.021 46.8638 14.953 47.1698 14.817C47.4871 14.681 47.7478 14.5167 47.9518 14.324L48.0028 9.887C47.6741 9.751 47.3171 9.683 46.9318 9.683C46.4444 9.683 46.0138 9.836 45.6398 10.142C45.2658 10.4367 44.9768 10.8333 44.7728 11.332C44.5688 11.8193 44.4668 12.3407 44.4668 12.896C44.4668 13.5873 44.6198 14.1143 44.9258 14.477C45.2318 14.8397 45.6624 15.021 46.2178 15.021ZM53.2696 19.645C53.0656 19.645 52.8899 19.56 52.7426 19.39C52.5953 19.2313 52.5216 19.0387 52.5216 18.812C52.5216 18.71 52.5499 18.591 52.6066 18.455L54.0856 15.276L51.0426 9.343C50.9746 9.207 50.9406 9.071 50.9406 8.935C50.9406 8.70833 51.0199 8.51567 51.1786 8.357C51.3486 8.187 51.5526 8.102 51.7906 8.102C51.9719 8.102 52.1306 8.153 52.2666 8.255C52.4026 8.357 52.5046 8.476 52.5726 8.612L54.9696 13.355L57.1116 8.612C57.1796 8.46467 57.2816 8.34 57.4176 8.238C57.5649 8.136 57.7236 8.085 57.8936 8.085C58.0976 8.085 58.2733 8.16433 58.4206 8.323C58.5679 8.48167 58.6416 8.68 58.6416 8.918C58.6416 9.054 58.6189 9.16733 58.5736 9.258L54.0346 19.118C53.9666 19.2767 53.8646 19.4013 53.7286 19.492C53.5926 19.594 53.4396 19.645 53.2696 19.645Z" fill="#0F0B2E"/>
</svg>
