<svg width="18" height="17" viewBox="0 0 18 17" fill="none" xmlns="http://www.w3.org/2000/svg">
<path d="M2 10.0585C2 9.04936 2 8.54481 2.22166 8.11407C2.44333 7.68334 2.8539 7.39007 3.67505 6.80354L7.83752 3.83034C8.39886 3.42938 8.67953 3.2289 9 3.2289C9.32047 3.2289 9.60114 3.42938 10.1625 3.83034L14.325 6.80354C15.1461 7.39007 15.5567 7.68334 15.7783 8.11407C16 8.54481 16 9.04936 16 10.0585V15C16 15.9428 16 16.4142 15.7071 16.7071C15.4142 17 14.9428 17 14 17H4C3.05719 17 2.58579 17 2.29289 16.7071C2 16.4142 2 15.9428 2 15V10.0585Z" fill="#F2F5FF" fill-opacity="0.75"/>
<path d="M0 8.38661C0 8.65348 0 8.78692 0.0840973 8.82805C0.168195 8.86918 0.273524 8.78726 0.484182 8.62341L7.77212 2.95502C8.36197 2.49625 8.65689 2.26686 9 2.26686C9.34311 2.26686 9.63803 2.49625 10.2279 2.95502L17.5158 8.62341C17.7265 8.78726 17.8318 8.86918 17.9159 8.82805C18 8.78692 18 8.65348 18 8.38661V7.97817C18 7.49782 18 7.25764 17.8983 7.04973C17.7966 6.84182 17.607 6.69437 17.2279 6.39946L10.2279 0.955018C9.63803 0.496247 9.34311 0.266862 9 0.266862C8.65689 0.266862 8.36197 0.496247 7.77212 0.955019L0.772118 6.39946C0.392952 6.69437 0.203369 6.84182 0.101685 7.04973C0 7.25764 0 7.49782 0 7.97817V8.38661Z" fill="#1649FF"/>
<path d="M9.5 11H8.5C7.39543 11 6.5 11.8954 6.5 13V16.85C6.5 16.9328 6.56716 17 6.65 17H11.35C11.4328 17 11.5 16.9328 11.5 16.85V13C11.5 11.8954 10.6046 11 9.5 11Z" fill="#2818E7"/>
<rect x="13" y="1" width="2" height="4" rx="0.5" fill="#1649FF"/>
</svg>
