<svg width="32" height="32" viewBox="0 0 32 32" fill="none" xmlns="http://www.w3.org/2000/svg">
<path d="M17.3978 26.3949C18.7518 26.1569 20.1642 25.6756 21.5764 24.8505C26.3266 22.0574 28.0829 17.1431 28.0829 14.3449C28.0829 10.8431 28.0829 9.84335 25.5809 5.83891C24.8615 4.6858 23.5073 2.93491 21.1375 1.58602C20.4084 1.16867 19.6371 0.829957 18.8364 0.575576C18.7486 0.546727 18.6558 0.535962 18.5637 0.54393C18.4716 0.551897 18.3821 0.578432 18.3005 0.621935C18.219 0.665438 18.1471 0.725007 18.0891 0.797052C18.0312 0.869097 17.9885 0.952125 17.9635 1.04113L17.9584 1.0678C17.8684 1.39024 18.0217 1.72891 18.3126 1.87158C18.2175 2.07269 18.0958 2.3318 17.9531 2.63335C18.2175 2.71802 18.4238 2.79202 18.5666 2.83958C18.7466 2.90313 18.974 2.9878 19.2278 3.08846C19.3071 2.80802 19.3811 2.52758 19.4606 2.24735C20.7361 2.72603 21.915 3.43012 22.9413 4.32602C23.4913 4.80758 25.1313 6.33624 26.0782 8.84358C27.4006 12.356 26.9984 16.8469 24.3695 20.2589C21.9573 23.3851 18.6249 24.3689 16.7629 24.6969C16.3667 24.7666 15.9679 24.8195 15.5673 24.8556C15.1653 24.8927 14.774 24.9138 14.3931 24.9191C13.2915 24.9278 12.1932 24.798 11.124 24.5329C11.3249 24.1151 11.526 23.6971 11.7271 23.274C11.2392 23.1475 10.7631 22.9794 10.304 22.7716C10.0818 23.2634 9.87019 23.7078 9.67975 24.1045C9.50606 24.0684 9.32516 24.1012 9.17517 24.1959C9.02519 24.2907 8.91784 24.4399 8.87575 24.6122L8.87042 24.6387C8.79108 24.9667 8.95508 25.3054 9.26731 25.4376C10.1771 25.8238 12.1342 26.5167 14.5622 26.6067C14.6733 28.0665 14.6786 29.5742 14.2449 29.6747C13.388 29.8705 10.6426 29.1562 9.9602 30.3254C9.82797 30.5527 9.7962 30.7274 9.85442 30.8596C10.1082 31.4891 11.8962 31.3356 13.8218 31.2351C19.0691 30.9707 21.6135 31.3885 21.8411 30.5158C21.8991 30.2829 21.7669 30.066 21.7351 30.0185C21.0897 28.9765 18.1804 30.3571 17.4186 29.3149C17.2442 29.0769 17.3024 28.8758 17.35 27.9185C17.3817 27.3471 17.3924 26.8447 17.3978 26.3949Z" fill="#EDB014"/>
<path d="M25.5704 13.3823C25.2742 16.8789 23.2747 19.09 22.5711 19.8465C20.0109 22.5972 16.9164 23.1947 16.0647 23.3483C15.2291 23.4963 13.8218 23.7343 12.0602 23.3483C11.9491 23.3218 11.8329 23.2954 11.7271 23.2689C11.2393 23.1424 10.7633 22.9743 10.3042 22.7663C8.30467 21.8672 7.07756 20.4547 6.55911 19.8463C6.31817 19.5638 6.09216 19.269 5.882 18.9629C7.892 17.212 5.63867 16.6514 5.57533 15.1596C5.50644 13.5938 5.97178 11.6314 6.51133 9.71115C6.79711 8.69026 6.23111 7.79626 5.63333 7.17737C6.09951 6.39492 6.65901 5.67199 7.29956 5.02449C8.92889 5.80737 10.9549 6.20404 12.8751 4.99804C14.2344 4.14649 14.8533 3.10426 15.0702 2.08337C15.488 2.10982 15.8849 2.15226 16.2498 2.21026C16.9429 2.32137 17.5247 2.48004 17.9587 2.6176C18.0324 2.63871 18.096 2.65982 18.1596 2.68115C18.1489 2.97226 18.0907 3.30537 17.9267 3.63315C17.5247 4.46382 16.8211 4.56426 16.8422 4.99271C16.874 5.63804 18.4873 6.05049 19.2756 6.22004C19.8627 6.34693 20.4764 6.32049 21.3387 6.19871C22.2062 6.07715 22.7087 5.84982 23.0049 5.63804C23.2007 5.8496 23.3911 6.08249 23.5816 6.32582C23.8945 6.73647 24.174 7.17157 24.4173 7.62693C23.5338 8.05026 22.5711 8.33582 21.6929 8.23537C19.0907 7.93915 18.4398 7.27271 17.7891 8.25649C17.1384 9.24049 17.7416 9.12937 18.4716 10.2138C19.1962 11.2983 23.4704 13.2236 19.7093 12.5307C15.9484 11.8376 16.2182 10.4994 14.2398 11.3827C12.2613 12.2716 11.9387 10.8378 11.288 12.5307C10.648 14.1969 12.362 16.8472 13.3458 16.7254C13.658 16.6885 13.8218 16.392 14.462 16.3076C14.9538 16.244 15.1656 16.3816 15.2289 16.4238C15.2818 16.4609 15.43 16.5772 15.5516 16.9265C15.7156 17.3972 15.668 17.8152 15.6416 18.0267C15.4564 19.5449 15.2978 19.6083 15.414 19.9098C15.6416 20.5076 16.5356 20.9149 17.2496 20.7827C18.0324 20.6398 18.006 19.9523 18.9476 19.4549C20.1378 18.8203 20.9684 19.5078 21.4709 18.9525C22.0951 18.2543 20.8624 17.1327 21.4762 15.7098C21.9522 14.6043 23.2853 14.0012 23.7031 13.832C23.9889 13.7156 24.2427 13.6996 24.6236 13.5938C24.8087 13.5463 25.1524 13.4723 25.5704 13.3823Z" fill="#6BED78"/>
<path d="M15.0702 2.08885C14.8533 3.10974 14.2344 4.15174 12.8749 5.00352C10.9549 6.20952 8.92866 5.81285 7.29932 5.02996C8.19332 4.13596 9.27777 3.36885 10.5633 2.83463C12.1873 2.15752 13.748 2.01463 15.0702 2.08885ZM22.9993 5.64841C22.7084 5.85996 22.2007 6.08219 21.3331 6.20907C20.4709 6.33063 19.8573 6.35707 19.2702 6.23019C18.482 6.06085 16.8687 5.64841 16.8369 5.00307C16.8158 4.57463 17.5191 4.47419 17.9213 3.64352C18.08 3.31552 18.1435 2.98219 18.154 2.6913C18.3233 2.74952 18.4607 2.79707 18.5667 2.83419C18.7464 2.89774 18.974 2.98241 19.2278 3.08285C20.2222 3.48485 21.6929 4.21996 22.9993 5.64841ZM25.5755 13.3395V13.382C25.1522 13.4717 24.8084 13.5457 24.6127 13.5989C24.2318 13.6993 23.9833 13.7204 23.6922 13.8366C23.2744 14.0009 21.9413 14.6037 21.4653 15.7146C20.8518 17.1375 22.0842 18.2591 21.46 18.9573C20.9575 19.518 20.1271 18.8304 18.9369 19.4597C17.9953 19.9571 18.0218 20.6446 17.2389 20.7875C16.53 20.9197 15.6307 20.5124 15.4033 19.9149C15.2922 19.6184 15.4509 19.5497 15.6307 18.0315C15.6573 17.82 15.6995 17.4022 15.5409 16.9315C15.4191 16.5822 15.2764 16.4657 15.218 16.4289C15.1547 16.3811 14.9431 16.2489 14.4511 16.3124C13.8162 16.3969 13.6471 16.6933 13.3349 16.7302C12.3458 16.852 10.6371 14.2017 11.2771 12.5355C11.9278 10.8429 12.2504 12.2764 14.2289 11.3877C16.2073 10.5042 15.9375 11.8426 19.6984 12.5355C23.4595 13.2284 19.1853 11.3031 18.4607 10.2186C17.7362 9.13419 17.1278 9.2453 17.7784 8.2613C18.4289 7.27752 19.0795 7.94396 21.6822 8.24019C22.5602 8.34063 23.5231 8.05508 24.4064 7.63196C25.75 10.1446 25.6389 12.5831 25.5755 13.3395ZM5.8871 18.9631C5.09377 17.8097 4.71266 16.7835 4.56466 16.3446C4.44821 16.0006 3.82932 14.1175 4.06199 11.8429C4.21532 10.3617 4.72866 8.70619 5.63843 7.18285C6.23621 7.79619 6.80221 8.69552 6.51643 9.71641C5.97688 11.6366 5.51155 13.5991 5.58021 15.1649C5.64377 16.6515 7.89177 17.212 5.88688 18.9631H5.8871ZM20.0427 19.8726C19.9209 19.8569 19.5402 19.8409 18.8049 20.444C18.4027 20.772 17.7522 21.4013 17.8684 21.5866C17.9162 21.6606 18.0749 21.666 18.3764 21.5813C19.3549 21.3062 19.5507 20.8142 20.0427 20.6026C20.4975 20.4017 20.524 20.206 20.5082 20.116C20.4764 19.968 20.212 19.8937 20.0427 19.8726Z" fill="#62AFF6"/>
</svg>
