<svg width="87" height="80" viewBox="0 0 87 80" fill="none" xmlns="http://www.w3.org/2000/svg">
<mask id="mask0_1_10" style="mask-type:luminance" maskUnits="userSpaceOnUse" x="0" y="0" width="87" height="80">
<path d="M86.8514 0H0.317608V79.735H86.8514V0Z" fill="white"/>
</mask>
<g mask="url(#mask0_1_10)">
<path d="M32.4263 25.3918C32.7945 25.0257 33.0866 24.5904 33.2858 24.1109C33.4849 23.6314 33.5873 23.1173 33.5868 22.5981C33.5864 22.0789 33.4832 21.5649 33.2833 21.0858C33.0833 20.6066 32.7905 20.1718 32.4217 19.8063C32.053 19.4408 31.6155 19.1519 31.1345 18.9563C30.6536 18.7606 30.1387 18.6621 29.6196 18.6663C29.1004 18.6706 28.5872 18.7775 28.1095 18.981C27.6318 19.1845 27.1991 19.4805 26.8364 19.8519C23.5579 23.1638 21.3348 27.3733 20.4483 31.9483C19.5617 36.5233 20.0514 41.2585 21.8555 45.5553C23.6596 49.852 26.697 53.5174 30.5839 56.0882C34.4708 58.6593 39.0326 60.02 43.6927 59.9985C48.3526 59.9774 52.9021 58.5749 56.7653 55.9686C60.6284 53.3623 63.6323 49.6692 65.3968 45.3559C67.1616 41.0428 67.608 36.3034 66.6793 31.7367C65.7509 27.1699 63.4896 22.981 60.1808 19.6993C59.8139 19.3355 59.3786 19.0476 58.9 18.8521C58.4217 18.6565 57.9096 18.5571 57.3925 18.5595C56.8757 18.5619 56.3644 18.6661 55.8878 18.8661C55.4112 19.0661 54.9789 19.358 54.6149 19.7251C54.2512 20.0923 53.9633 20.5275 53.768 21.0059C53.5723 21.4843 53.473 21.9965 53.4751 22.5134C53.4776 23.0302 53.5818 23.5415 53.7817 24.0181C53.9819 24.4946 54.274 24.9271 54.6409 25.2909C56.8472 27.4776 58.356 30.2696 58.9757 33.3136C59.5954 36.3577 59.2984 39.5171 58.1226 42.3925C56.9469 45.2678 54.945 47.7301 52.3697 49.4677C49.7948 51.2052 46.7624 52.1402 43.6559 52.1547C40.5494 52.1687 37.5084 51.2615 34.9176 49.5475C32.3267 47.8336 30.3022 45.3898 29.1001 42.5253C27.898 39.661 27.5723 36.5044 28.1641 33.4548C28.7559 30.4052 30.2388 27.5996 32.4251 25.3927L32.4263 25.3918Z" fill="url(#paint0_linear_1_10)"/>
<path d="M60.1137 -0.000175351C57.5288 0.00450134 54.9705 0.521842 52.5867 1.52191C50.203 2.52197 48.0414 3.98489 46.2269 5.82599C45.4917 6.56631 44.4931 6.98477 43.4497 6.98948C42.4064 6.99424 41.4036 6.58488 40.6618 5.85122C36.952 2.18398 31.9392 0.137875 26.7228 0.161762C21.5065 0.185649 16.5125 2.27758 12.8365 5.97864C6.81716 12.0588 2.73552 19.787 1.10759 28.1865C-0.52035 36.5859 0.378491 45.2796 3.6905 53.1681C7.0025 61.057 12.579 67.7867 19.715 72.5066C26.851 77.2265 35.2262 79.7249 43.7819 79.6856C52.3377 79.6467 60.6895 77.0718 67.782 72.2869C74.875 67.502 80.3896 60.7214 83.6293 52.8032C86.8691 44.8845 87.6886 36.183 85.9837 27.7987C84.2793 19.4145 80.1274 11.7239 74.0525 5.69898C72.2215 3.8746 70.0467 2.43152 67.6538 1.45326C65.2614 0.474994 62.6985 -0.0190091 60.1137 -0.000175351ZM68.5118 11.2893C73.4878 16.2198 76.8897 22.515 78.2876 29.379C79.6855 36.2429 79.017 43.367 76.366 49.851C73.715 56.335 69.201 61.8868 63.3943 65.8054C57.588 69.7236 50.7499 71.8323 43.7451 71.8641C36.7404 71.8964 29.8834 69.8506 24.0414 65.9854C18.1993 62.1206 13.6345 56.6097 10.9243 50.1505C8.21411 43.6914 7.4802 36.5733 8.81534 29.6968C10.1505 22.8204 13.4948 16.4943 18.4252 11.5185C20.6311 9.2979 23.6276 8.04277 26.7575 8.02842C29.8875 8.01406 32.8954 9.24168 35.1215 11.442C37.347 13.6425 40.3546 14.8702 43.4845 14.856C46.6141 14.8417 49.6102 13.5866 51.8156 11.3659C54.0194 9.14198 57.0167 7.88453 60.1476 7.87017C63.2785 7.85582 66.2869 9.08572 68.511 11.2893" fill="url(#paint1_linear_1_10)"/>
<path d="M43.5843 43.4131C47.1157 43.4131 49.9781 40.5506 49.9781 37.0194C49.9781 33.4882 47.1157 30.6256 43.5843 30.6256C40.0531 30.6256 37.1905 33.4882 37.1905 37.0194C37.1905 40.5506 40.0531 43.4131 43.5843 43.4131Z" fill="url(#paint2_linear_1_10)"/>
</g>
<defs>
<linearGradient id="paint0_linear_1_10" x1="43.5847" y1="83.8679" x2="43.5847" y2="0.243277" gradientUnits="userSpaceOnUse">
<stop stop-color="#00CD9E"/>
<stop offset="1" stop-color="#38A3DC"/>
</linearGradient>
<linearGradient id="paint1_linear_1_10" x1="43.5842" y1="83.8301" x2="43.5842" y2="0.238364" gradientUnits="userSpaceOnUse">
<stop stop-color="#00CD9E"/>
<stop offset="1" stop-color="#38A3DC"/>
</linearGradient>
<linearGradient id="paint2_linear_1_10" x1="43.5843" y1="83.8985" x2="43.5843" y2="0.24239" gradientUnits="userSpaceOnUse">
<stop stop-color="#00AB9E"/>
<stop offset="1" stop-color="#38A3DC"/>
</linearGradient>
</defs>
</svg>
