<svg width="129" height="129" viewBox="0 0 129 129" fill="none" xmlns="http://www.w3.org/2000/svg">
<path d="M127.664 1H0.533791V128.13H127.664V1Z" fill="white"/>
<g opacity="0.1">
<path opacity="0.1" d="M127.654 125.12V128.12H124.654" stroke="#20263C" stroke-miterlimit="10"/>
<path opacity="0.1" d="M118.894 128.12H6.41367" stroke="#20263C" stroke-miterlimit="10" stroke-dasharray="5.77 5.77"/>
<path opacity="0.1" d="M3.53379 128.12H0.533791V125.12" stroke="#20263C" stroke-miterlimit="10"/>
<path opacity="0.1" d="M0.533791 119.36V6.87988" stroke="#20263C" stroke-miterlimit="10" stroke-dasharray="5.77 5.77"/>
<path opacity="0.1" d="M0.533791 4V1H3.53379" stroke="#20263C" stroke-miterlimit="10"/>
<path opacity="0.1" d="M9.30381 1H121.774" stroke="#20263C" stroke-miterlimit="10" stroke-dasharray="5.77 5.77"/>
<path opacity="0.1" d="M124.654 1H127.654V4" stroke="#20263C" stroke-miterlimit="10"/>
<path opacity="0.1" d="M127.654 9.77002V122.24" stroke="#20263C" stroke-miterlimit="10" stroke-dasharray="5.77 5.77"/>
</g>
<path d="M50.6145 37.3972C49.6159 38.0534 48.7844 38.9363 48.1868 39.9746C47.5893 41.0129 47.2423 42.1778 47.1739 43.3756V50.1839C47.2423 51.3817 47.5893 52.5466 48.1868 53.5849C48.7844 54.6233 49.6159 55.5061 50.6145 56.1623L57.7334 60.3823C59.6215 61.4795 61.1739 60.5793 61.1739 58.3848V35.3153C61.1739 33.1209 59.6215 32.2207 57.7334 33.3179L50.6145 37.3972Z" fill="#00CD9E"/>
<path d="M49.8729 57.6376C48.8393 57.1199 47.6972 56.8501 46.5389 56.8501C45.3806 56.8501 44.2385 57.1199 43.2049 57.6376L37.5147 60.8661C36.5451 61.4936 35.7377 62.3378 35.1574 63.3307C34.5772 64.3237 34.2403 65.4376 34.1739 66.583V74.4926C34.1739 76.5911 35.6814 77.452 37.5147 76.4028L56.7989 65.3724C58.6323 64.3232 58.6323 62.6148 56.7989 61.5655L49.8729 57.6376Z" fill="#0E990B"/>
<path d="M75.7334 37.3972C76.732 38.0534 77.5635 38.9363 78.161 39.9746C78.7586 41.0129 79.1056 42.1778 79.1739 43.3756V50.1839C79.1056 51.3817 78.7586 52.5466 78.161 53.5849C77.5635 54.6233 76.732 55.5061 75.7334 56.1623L68.6005 60.3823C66.7124 61.4795 65.1739 60.5793 65.1739 58.3848V35.3153C65.1739 33.1209 66.7124 32.2207 68.6005 33.3179L75.7334 37.3972Z" fill="#85B71B"/>
<path d="M75.8258 57.6376C76.9031 57.1199 78.0934 56.8501 79.3006 56.8501C80.5078 56.8501 81.6982 57.1199 82.7755 57.6376L88.7061 60.8661C89.7149 61.4943 90.5543 62.339 91.1566 63.332C91.7589 64.325 92.1074 65.4386 92.1739 66.583V74.4926C92.1739 76.5911 90.6169 77.452 88.7061 76.4028L68.6071 65.3724C66.6962 64.3232 66.6962 62.6148 68.6071 61.5655L75.8258 57.6376Z" fill="#50AA6E"/>
<path d="M46.4797 87.0636C47.5139 87.5807 48.6566 87.8501 49.8155 87.8501C50.9745 87.8501 52.1172 87.5807 53.1514 87.0636L58.8449 83.8261C59.8136 83.1958 60.6193 82.3498 61.1975 81.356C61.7756 80.3621 62.11 79.2481 62.1739 78.1034V70.2044C62.1739 68.1087 60.6793 67.249 58.8449 68.2968L39.5497 79.3124C37.7153 80.3602 37.7153 82.0663 39.5497 83.1141L46.4797 87.0636Z" fill="#5FCD71"/>
<path d="M63.1739 78.1099C63.2416 79.2518 63.5905 80.3628 64.1927 81.3536C64.795 82.3445 65.6337 83.1876 66.6417 83.8154L72.5724 87.0641C73.6497 87.5809 74.84 87.8501 76.0473 87.8501C77.2545 87.8501 78.4448 87.5809 79.5221 87.0641L86.7408 83.1039C88.6516 82.0568 88.6516 80.3518 86.7408 79.3047L66.6417 68.2965C64.7309 67.2494 63.1739 68.1086 63.1739 70.2028V78.1099Z" fill="#5FCD71"/>
</svg>
