<svg width="18" height="18" viewBox="0 0 18 18" fill="none" xmlns="http://www.w3.org/2000/svg">
<path d="M16.9861 7.32709C16.9556 7.23528 16.8788 7.16526 16.7831 7.14221L12.2228 6.03878L9.74226 2.13178C9.69018 2.04975 9.59859 2 9.5 2C9.40141 2 9.30982 2.04975 9.25774 2.13178L6.77722 6.03878L2.21694 7.14221C2.12121 7.16526 2.04445 7.23528 2.01391 7.32709C1.98353 7.4189 2.00364 7.5198 2.06713 7.59358L5.09438 11.1117L4.75653 15.7005C4.7494 15.7968 4.79377 15.8898 4.87338 15.9467C4.95356 16.0035 5.05757 16.0158 5.1486 15.9794L9.5 14.2467L13.8514 15.9794C13.8859 15.9933 13.9225 16 13.9588 16C14.0182 16 14.077 15.9818 14.1266 15.9466C14.2064 15.8898 14.2506 15.7968 14.2435 15.7003L13.9056 11.1115L16.9329 7.59344C16.9964 7.5198 17.0165 7.41904 16.9861 7.32709Z" fill="#FFB342"/>
</svg>
