<svg width="273" height="262" viewBox="0 0 273 262" fill="none" xmlns="http://www.w3.org/2000/svg">
<path fill-rule="evenodd" clip-rule="evenodd" d="M125.473 227.951C106.103 227.951 94.884 225.098 84.9052 219.741C74.9264 214.383 67.0949 206.522 61.7582 196.504C56.4215 186.487 53.5794 175.225 53.5794 155.78V141.324C53.5794 121.88 56.4215 110.618 61.7582 100.6C67.0949 90.583 74.9264 82.7214 84.9052 77.3641C94.884 72.0067 106.103 69.1537 125.473 69.1537H201.107C220.476 69.1537 231.695 72.0067 241.674 77.3641C251.653 82.7214 259.485 90.583 264.821 100.6C270.158 110.618 273 121.88 273 141.324V155.78C273 175.225 270.158 186.487 264.821 196.504C259.485 206.522 251.653 214.383 241.674 219.741C231.695 225.098 220.476 227.951 201.107 227.951H145.505L151 261.5L112.262 227.951H125.473Z" fill="#00B578"/>
<path d="M84.1963 20.49C89.8327 20.49 94.4019 15.9031 94.4019 10.245C94.4019 4.58684 89.8327 0 84.1963 0C78.5599 0 73.9907 4.58684 73.9907 10.245C73.9907 15.9031 78.5599 20.49 84.1963 20.49Z" fill="#00B578"/>
<path d="M132.673 53.7862C135.491 53.7862 137.776 51.4928 137.776 48.6638C137.776 45.8347 135.491 43.5413 132.673 43.5413C129.855 43.5413 127.57 45.8347 127.57 48.6638C127.57 51.4928 129.855 53.7862 132.673 53.7862Z" fill="#00B578"/>
<path d="M19.1355 81.96C29.7038 81.96 38.271 73.3596 38.271 62.7506C38.271 52.1416 29.7038 43.5413 19.1355 43.5413C8.56726 43.5413 0 52.1416 0 62.7506C0 73.3596 8.56726 81.96 19.1355 81.96Z" fill="#919191"/>
<path d="M93.7386 113H91.625V103.125H89.6932C89.1705 103.125 88.7405 103.203 88.4034 103.358C88.0701 103.509 87.822 103.733 87.6591 104.028C87.5 104.32 87.4205 104.672 87.4205 105.085C87.4205 105.498 87.5 105.847 87.6591 106.131C87.8182 106.411 88.0644 106.625 88.3977 106.773C88.7348 106.917 89.1629 106.989 89.6818 106.989H92.5114V108.739H89.3977C88.5038 108.739 87.75 108.591 87.1364 108.295C86.5227 107.996 86.0568 107.574 85.7386 107.028C85.4242 106.479 85.267 105.831 85.267 105.085C85.267 104.343 85.4223 103.693 85.733 103.136C86.0473 102.576 86.5095 102.14 87.1193 101.83C87.7292 101.519 88.4792 101.364 89.3693 101.364H93.7386V113ZM87.7216 107.727H90.0227L87.1932 113H84.8409L87.7216 107.727ZM95.9318 113V104.273H97.9886V107.795H98.7386L101.364 104.273H103.841L100.608 108.557L103.875 113H101.386L98.9943 109.71H97.9886V113H95.9318ZM109.01 104.273H110.993V111.307H113.737V104.273H115.72V111.307H118.464V104.273H120.447V113H109.01V104.273ZM122.526 113V104.273H124.582V107.795H125.332L127.957 104.273H130.435L127.202 108.557L130.469 113H127.98L125.588 109.71H124.582V113H122.526ZM135.082 113.17C134.23 113.17 133.491 112.983 132.866 112.608C132.241 112.233 131.757 111.708 131.412 111.034C131.071 110.36 130.901 109.572 130.901 108.67C130.901 107.769 131.071 106.979 131.412 106.301C131.757 105.623 132.241 105.097 132.866 104.722C133.491 104.347 134.23 104.159 135.082 104.159C135.935 104.159 136.673 104.347 137.298 104.722C137.923 105.097 138.406 105.623 138.747 106.301C139.092 106.979 139.264 107.769 139.264 108.67C139.264 109.572 139.092 110.36 138.747 111.034C138.406 111.708 137.923 112.233 137.298 112.608C136.673 112.983 135.935 113.17 135.082 113.17ZM135.094 111.523C135.556 111.523 135.942 111.396 136.253 111.142C136.563 110.884 136.795 110.54 136.946 110.108C137.101 109.676 137.179 109.195 137.179 108.665C137.179 108.131 137.101 107.648 136.946 107.216C136.795 106.78 136.563 106.434 136.253 106.176C135.942 105.919 135.556 105.79 135.094 105.79C134.62 105.79 134.226 105.919 133.912 106.176C133.601 106.434 133.368 106.78 133.213 107.216C133.062 107.648 132.986 108.131 132.986 108.665C132.986 109.195 133.062 109.676 133.213 110.108C133.368 110.54 133.601 110.884 133.912 111.142C134.226 111.396 134.62 111.523 135.094 111.523ZM140.237 115.534V111.307H140.93C141.116 111.163 141.271 110.968 141.396 110.722C141.521 110.472 141.624 110.178 141.703 109.841C141.786 109.5 141.855 109.119 141.908 108.699C141.961 108.275 142.008 107.818 142.05 107.33L142.3 104.273H148.607V111.307H149.959V115.534H147.97V113H142.26V115.534H140.237ZM143.044 111.307H146.641V105.932H144.084L143.947 107.33C143.872 108.254 143.771 109.045 143.646 109.705C143.521 110.364 143.321 110.898 143.044 111.307ZM154.006 113.176C153.453 113.176 152.955 113.078 152.511 112.881C152.072 112.68 151.723 112.384 151.466 111.994C151.212 111.604 151.085 111.123 151.085 110.551C151.085 110.059 151.176 109.652 151.358 109.33C151.54 109.008 151.788 108.75 152.102 108.557C152.417 108.364 152.771 108.218 153.165 108.119C153.563 108.017 153.973 107.943 154.398 107.898C154.909 107.845 155.324 107.797 155.642 107.756C155.96 107.71 156.191 107.642 156.335 107.551C156.483 107.456 156.557 107.311 156.557 107.114V107.08C156.557 106.652 156.43 106.32 156.176 106.085C155.922 105.85 155.557 105.733 155.08 105.733C154.576 105.733 154.176 105.843 153.881 106.062C153.589 106.282 153.392 106.542 153.29 106.841L151.369 106.568C151.521 106.038 151.771 105.595 152.119 105.239C152.468 104.879 152.894 104.61 153.398 104.432C153.902 104.25 154.458 104.159 155.068 104.159C155.489 104.159 155.907 104.208 156.324 104.307C156.741 104.405 157.121 104.568 157.466 104.795C157.811 105.019 158.087 105.324 158.295 105.71C158.508 106.097 158.614 106.58 158.614 107.159V113H156.636V111.801H156.568C156.443 112.044 156.267 112.271 156.04 112.483C155.816 112.691 155.534 112.86 155.193 112.989C154.856 113.114 154.46 113.176 154.006 113.176ZM154.54 111.665C154.953 111.665 155.311 111.583 155.614 111.42C155.917 111.254 156.15 111.034 156.312 110.761C156.479 110.489 156.562 110.191 156.562 109.869V108.841C156.498 108.894 156.388 108.943 156.233 108.989C156.081 109.034 155.911 109.074 155.722 109.108C155.532 109.142 155.345 109.172 155.159 109.199C154.973 109.225 154.813 109.248 154.676 109.267C154.369 109.309 154.095 109.377 153.852 109.472C153.61 109.566 153.419 109.699 153.278 109.869C153.138 110.036 153.068 110.252 153.068 110.517C153.068 110.896 153.206 111.182 153.483 111.375C153.759 111.568 154.112 111.665 154.54 111.665ZM163.199 101.364L163.011 109.58H161.182L161 101.364H163.199ZM162.097 113.125C161.752 113.125 161.456 113.004 161.21 112.761C160.968 112.519 160.847 112.223 160.847 111.875C160.847 111.534 160.968 111.242 161.21 111C161.456 110.758 161.752 110.636 162.097 110.636C162.434 110.636 162.725 110.758 162.972 111C163.222 111.242 163.347 111.534 163.347 111.875C163.347 112.106 163.288 112.316 163.17 112.506C163.057 112.695 162.905 112.847 162.716 112.96C162.53 113.07 162.324 113.125 162.097 113.125ZM169.679 113V101.364H174.134C174.974 101.364 175.673 101.496 176.23 101.761C176.791 102.023 177.209 102.381 177.486 102.835C177.766 103.29 177.906 103.805 177.906 104.381C177.906 104.854 177.815 105.259 177.634 105.597C177.452 105.93 177.207 106.201 176.901 106.409C176.594 106.617 176.251 106.767 175.872 106.858V106.972C176.285 106.994 176.681 107.121 177.06 107.352C177.442 107.58 177.755 107.902 177.997 108.318C178.24 108.735 178.361 109.239 178.361 109.83C178.361 110.432 178.215 110.973 177.923 111.455C177.632 111.932 177.192 112.309 176.605 112.585C176.018 112.862 175.279 113 174.389 113H169.679ZM171.787 111.239H174.054C174.819 111.239 175.37 111.093 175.707 110.801C176.048 110.506 176.219 110.127 176.219 109.665C176.219 109.32 176.134 109.009 175.963 108.733C175.793 108.453 175.55 108.233 175.236 108.074C174.921 107.911 174.546 107.83 174.111 107.83H171.787V111.239ZM171.787 106.312H173.872C174.236 106.312 174.563 106.246 174.855 106.114C175.147 105.977 175.376 105.786 175.543 105.54C175.713 105.29 175.798 104.994 175.798 104.653C175.798 104.203 175.639 103.831 175.321 103.54C175.007 103.248 174.539 103.102 173.918 103.102H171.787V106.312ZM183.911 113.17C183.058 113.17 182.32 112.983 181.695 112.608C181.07 112.233 180.585 111.708 180.24 111.034C179.899 110.36 179.729 109.572 179.729 108.67C179.729 107.769 179.899 106.979 180.24 106.301C180.585 105.623 181.07 105.097 181.695 104.722C182.32 104.347 183.058 104.159 183.911 104.159C184.763 104.159 185.501 104.347 186.126 104.722C186.751 105.097 187.234 105.623 187.575 106.301C187.92 106.979 188.092 107.769 188.092 108.67C188.092 109.572 187.92 110.36 187.575 111.034C187.234 111.708 186.751 112.233 186.126 112.608C185.501 112.983 184.763 113.17 183.911 113.17ZM183.922 111.523C184.384 111.523 184.77 111.396 185.081 111.142C185.392 110.884 185.623 110.54 185.774 110.108C185.929 109.676 186.007 109.195 186.007 108.665C186.007 108.131 185.929 107.648 185.774 107.216C185.623 106.78 185.392 106.434 185.081 106.176C184.77 105.919 184.384 105.79 183.922 105.79C183.448 105.79 183.054 105.919 182.74 106.176C182.429 106.434 182.196 106.78 182.041 107.216C181.89 107.648 181.814 108.131 181.814 108.665C181.814 109.195 181.89 109.676 182.041 110.108C182.196 110.54 182.429 110.884 182.74 111.142C183.054 111.396 183.448 111.523 183.922 111.523ZM195.832 107.784V109.472H191.185V107.784H195.832ZM191.821 104.273V113H189.838V104.273H191.821ZM197.179 104.273V113H195.202V104.273H197.179ZM201.771 113.176C201.218 113.176 200.72 113.078 200.277 112.881C199.838 112.68 199.489 112.384 199.232 111.994C198.978 111.604 198.851 111.123 198.851 110.551C198.851 110.059 198.942 109.652 199.124 109.33C199.305 109.008 199.554 108.75 199.868 108.557C200.182 108.364 200.536 108.218 200.93 108.119C201.328 108.017 201.739 107.943 202.163 107.898C202.675 107.845 203.089 107.797 203.408 107.756C203.726 107.71 203.957 107.642 204.101 107.551C204.249 107.456 204.322 107.311 204.322 107.114V107.08C204.322 106.652 204.196 106.32 203.942 106.085C203.688 105.85 203.322 105.733 202.845 105.733C202.341 105.733 201.942 105.843 201.646 106.062C201.355 106.282 201.158 106.542 201.055 106.841L199.135 106.568C199.286 106.038 199.536 105.595 199.885 105.239C200.233 104.879 200.66 104.61 201.163 104.432C201.667 104.25 202.224 104.159 202.834 104.159C203.254 104.159 203.673 104.208 204.089 104.307C204.506 104.405 204.887 104.568 205.232 104.795C205.576 105.019 205.853 105.324 206.061 105.71C206.273 106.097 206.379 106.58 206.379 107.159V113H204.402V111.801H204.334C204.209 112.044 204.033 112.271 203.805 112.483C203.582 112.691 203.3 112.86 202.959 112.989C202.622 113.114 202.226 113.176 201.771 113.176ZM202.305 111.665C202.718 111.665 203.076 111.583 203.379 111.42C203.682 111.254 203.915 111.034 204.078 110.761C204.245 110.489 204.328 110.191 204.328 109.869V108.841C204.264 108.894 204.154 108.943 203.999 108.989C203.847 109.034 203.677 109.074 203.487 109.108C203.298 109.142 203.11 109.172 202.925 109.199C202.739 109.225 202.578 109.248 202.442 109.267C202.135 109.309 201.86 109.377 201.618 109.472C201.375 109.566 201.184 109.699 201.044 109.869C200.904 110.036 200.834 110.252 200.834 110.517C200.834 110.896 200.972 111.182 201.249 111.375C201.525 111.568 201.877 111.665 202.305 111.665ZM219.411 101.045L220.126 102.375C219.873 102.595 219.589 102.754 219.274 102.852C218.96 102.951 218.59 103.015 218.166 103.045C217.746 103.072 217.246 103.091 216.666 103.102C216.015 103.117 215.482 103.241 215.07 103.472C214.657 103.703 214.34 104.053 214.121 104.523C213.901 104.989 213.757 105.583 213.689 106.307H213.786C214.058 105.773 214.441 105.366 214.933 105.085C215.426 104.805 216.003 104.665 216.666 104.665C217.39 104.665 218.028 104.828 218.581 105.153C219.138 105.475 219.571 105.943 219.882 106.557C220.196 107.17 220.354 107.913 220.354 108.784C220.354 109.682 220.185 110.46 219.848 111.119C219.511 111.775 219.032 112.28 218.411 112.636C217.793 112.992 217.06 113.17 216.212 113.17C215.367 113.17 214.632 112.987 214.007 112.619C213.386 112.248 212.905 111.701 212.564 110.977C212.227 110.25 212.058 109.354 212.058 108.29V107.506C212.058 105.453 212.441 103.92 213.206 102.909C213.971 101.898 215.106 101.383 216.609 101.364C217.056 101.356 217.456 101.354 217.808 101.358C218.164 101.362 218.475 101.345 218.74 101.307C219.005 101.269 219.229 101.182 219.411 101.045ZM216.223 111.523C216.643 111.523 217.007 111.415 217.314 111.199C217.621 110.979 217.856 110.669 218.018 110.267C218.185 109.866 218.268 109.39 218.268 108.841C218.268 108.299 218.185 107.839 218.018 107.46C217.852 107.078 217.615 106.786 217.308 106.585C217.001 106.384 216.636 106.284 216.212 106.284C215.893 106.284 215.607 106.341 215.354 106.455C215.1 106.568 214.884 106.735 214.706 106.955C214.528 107.174 214.392 107.441 214.297 107.756C214.202 108.07 214.151 108.432 214.143 108.841C214.143 109.663 214.329 110.316 214.7 110.801C215.071 111.282 215.579 111.523 216.223 111.523ZM223.382 116.273C223.102 116.273 222.842 116.25 222.604 116.205C222.369 116.163 222.181 116.114 222.041 116.057L222.518 114.455C222.818 114.542 223.085 114.583 223.32 114.58C223.554 114.576 223.761 114.502 223.939 114.358C224.121 114.218 224.274 113.983 224.399 113.653L224.575 113.182L221.411 104.273H223.592L225.604 110.864H225.695L227.712 104.273H229.899L226.405 114.057C226.242 114.519 226.026 114.915 225.757 115.244C225.488 115.578 225.159 115.831 224.768 116.006C224.382 116.184 223.92 116.273 223.382 116.273ZM230.001 113L229.99 111.307H230.291C230.518 111.307 230.71 111.256 230.865 111.153C231.02 111.051 231.149 110.881 231.251 110.642C231.354 110.4 231.433 110.074 231.49 109.665C231.547 109.256 231.587 108.746 231.609 108.136L231.763 104.273H238.126V113H236.138V105.96H233.632L233.496 108.773C233.462 109.5 233.38 110.131 233.251 110.665C233.126 111.195 232.948 111.633 232.717 111.977C232.49 112.322 232.204 112.58 231.859 112.75C231.515 112.917 231.107 113 230.638 113H230.001ZM242.709 113.176C242.156 113.176 241.658 113.078 241.214 112.881C240.775 112.68 240.427 112.384 240.169 111.994C239.915 111.604 239.788 111.123 239.788 110.551C239.788 110.059 239.879 109.652 240.061 109.33C240.243 109.008 240.491 108.75 240.805 108.557C241.12 108.364 241.474 108.218 241.868 108.119C242.266 108.017 242.677 107.943 243.101 107.898C243.612 107.845 244.027 107.797 244.345 107.756C244.663 107.71 244.894 107.642 245.038 107.551C245.186 107.456 245.26 107.311 245.26 107.114V107.08C245.26 106.652 245.133 106.32 244.879 106.085C244.625 105.85 244.26 105.733 243.783 105.733C243.279 105.733 242.879 105.843 242.584 106.062C242.292 106.282 242.095 106.542 241.993 106.841L240.072 106.568C240.224 106.038 240.474 105.595 240.822 105.239C241.171 104.879 241.597 104.61 242.101 104.432C242.605 104.25 243.161 104.159 243.771 104.159C244.192 104.159 244.61 104.208 245.027 104.307C245.444 104.405 245.824 104.568 246.169 104.795C246.514 105.019 246.79 105.324 246.999 105.71C247.211 106.097 247.317 106.58 247.317 107.159V113H245.339V111.801H245.271C245.146 112.044 244.97 112.271 244.743 112.483C244.519 112.691 244.237 112.86 243.896 112.989C243.559 113.114 243.163 113.176 242.709 113.176ZM243.243 111.665C243.656 111.665 244.014 111.583 244.317 111.42C244.62 111.254 244.853 111.034 245.016 110.761C245.182 110.489 245.266 110.191 245.266 109.869V108.841C245.201 108.894 245.091 108.943 244.936 108.989C244.785 109.034 244.614 109.074 244.425 109.108C244.235 109.142 244.048 109.172 243.862 109.199C243.677 109.225 243.516 109.248 243.379 109.267C243.072 109.309 242.798 109.377 242.555 109.472C242.313 109.566 242.122 109.699 241.982 109.869C241.841 110.036 241.771 110.252 241.771 110.517C241.771 110.896 241.91 111.182 242.186 111.375C242.463 111.568 242.815 111.665 243.243 111.665ZM85.0568 132V123.273H87.1136V126.795H87.8636L90.4886 123.273H92.9659L89.733 127.557L93 132H90.5114L88.1193 128.71H87.1136V132H85.0568ZM94.1662 135.273V123.273H96.1889V124.716H96.3082C96.4143 124.504 96.5639 124.278 96.7571 124.04C96.9503 123.797 97.2116 123.591 97.5412 123.42C97.8707 123.246 98.2912 123.159 98.8026 123.159C99.4768 123.159 100.085 123.331 100.626 123.676C101.172 124.017 101.604 124.523 101.922 125.193C102.244 125.86 102.405 126.678 102.405 127.648C102.405 128.606 102.248 129.42 101.933 130.091C101.619 130.761 101.191 131.273 100.649 131.625C100.107 131.977 99.4938 132.153 98.8082 132.153C98.3082 132.153 97.8935 132.07 97.5639 131.903C97.2344 131.737 96.9692 131.536 96.7685 131.301C96.5715 131.062 96.4181 130.837 96.3082 130.625H96.223V135.273H94.1662ZM96.1832 127.636C96.1832 128.201 96.2628 128.695 96.4219 129.119C96.5848 129.544 96.8177 129.875 97.1207 130.114C97.4276 130.348 97.7988 130.466 98.2344 130.466C98.6889 130.466 99.0696 130.345 99.3764 130.102C99.6832 129.856 99.9143 129.521 100.07 129.097C100.229 128.669 100.308 128.182 100.308 127.636C100.308 127.095 100.231 126.614 100.075 126.193C99.92 125.773 99.6889 125.443 99.3821 125.205C99.0753 124.966 98.6927 124.847 98.2344 124.847C97.795 124.847 97.4219 124.962 97.1151 125.193C96.8082 125.424 96.5753 125.748 96.4162 126.165C96.2609 126.581 96.1832 127.072 96.1832 127.636ZM105.148 135.273C104.867 135.273 104.608 135.25 104.369 135.205C104.134 135.163 103.947 135.114 103.807 135.057L104.284 133.455C104.583 133.542 104.85 133.583 105.085 133.58C105.32 133.576 105.527 133.502 105.705 133.358C105.886 133.218 106.04 132.983 106.165 132.653L106.341 132.182L103.176 123.273H105.358L107.369 129.864H107.46L109.477 123.273H111.665L108.17 133.057C108.008 133.519 107.792 133.915 107.523 134.244C107.254 134.578 106.924 134.831 106.534 135.006C106.148 135.184 105.686 135.273 105.148 135.273ZM112.611 124.96V123.273H120.247V124.96H117.423V132H115.435V124.96H112.611ZM124.037 132.176C123.484 132.176 122.986 132.078 122.543 131.881C122.103 131.68 121.755 131.384 121.497 130.994C121.243 130.604 121.116 130.123 121.116 129.551C121.116 129.059 121.207 128.652 121.389 128.33C121.571 128.008 121.819 127.75 122.134 127.557C122.448 127.364 122.802 127.218 123.196 127.119C123.594 127.017 124.005 126.943 124.429 126.898C124.94 126.845 125.355 126.797 125.673 126.756C125.991 126.71 126.223 126.642 126.366 126.551C126.514 126.456 126.588 126.311 126.588 126.114V126.08C126.588 125.652 126.461 125.32 126.207 125.085C125.954 124.85 125.588 124.733 125.111 124.733C124.607 124.733 124.207 124.843 123.912 125.062C123.62 125.282 123.423 125.542 123.321 125.841L121.401 125.568C121.552 125.038 121.802 124.595 122.151 124.239C122.499 123.879 122.925 123.61 123.429 123.432C123.933 123.25 124.49 123.159 125.099 123.159C125.52 123.159 125.938 123.208 126.355 123.307C126.772 123.405 127.152 123.568 127.497 123.795C127.842 124.019 128.118 124.324 128.327 124.71C128.539 125.097 128.645 125.58 128.645 126.159V132H126.668V130.801H126.599C126.474 131.044 126.298 131.271 126.071 131.483C125.848 131.691 125.565 131.86 125.224 131.989C124.887 132.114 124.491 132.176 124.037 132.176ZM124.571 130.665C124.984 130.665 125.342 130.583 125.645 130.42C125.948 130.254 126.181 130.034 126.344 129.761C126.51 129.489 126.594 129.191 126.594 128.869V127.841C126.529 127.894 126.42 127.943 126.264 127.989C126.113 128.034 125.942 128.074 125.753 128.108C125.563 128.142 125.376 128.172 125.19 128.199C125.005 128.225 124.844 128.248 124.707 128.267C124.401 128.309 124.126 128.377 123.884 128.472C123.641 128.566 123.45 128.699 123.31 128.869C123.17 129.036 123.099 129.252 123.099 129.517C123.099 129.896 123.238 130.182 123.514 130.375C123.791 130.568 124.143 130.665 124.571 130.665ZM133.23 120.364L133.043 128.58H131.213L131.031 120.364H133.23ZM132.128 132.125C131.783 132.125 131.488 132.004 131.241 131.761C130.999 131.519 130.878 131.223 130.878 130.875C130.878 130.534 130.999 130.242 131.241 130C131.488 129.758 131.783 129.636 132.128 129.636C132.465 129.636 132.757 129.758 133.003 130C133.253 130.242 133.378 130.534 133.378 130.875C133.378 131.106 133.319 131.316 133.202 131.506C133.088 131.695 132.937 131.847 132.747 131.96C132.562 132.07 132.355 132.125 132.128 132.125ZM139.71 120.364H142.29L145.744 128.795H145.881L149.335 120.364H151.915V132H149.892V124.006H149.784L146.568 131.966H145.057L141.841 123.989H141.733V132H139.71V120.364ZM157.926 132.17C157.074 132.17 156.335 131.983 155.71 131.608C155.085 131.233 154.6 130.708 154.256 130.034C153.915 129.36 153.744 128.572 153.744 127.67C153.744 126.769 153.915 125.979 154.256 125.301C154.6 124.623 155.085 124.097 155.71 123.722C156.335 123.347 157.074 123.159 157.926 123.159C158.778 123.159 159.517 123.347 160.142 123.722C160.767 124.097 161.25 124.623 161.591 125.301C161.936 125.979 162.108 126.769 162.108 127.67C162.108 128.572 161.936 129.36 161.591 130.034C161.25 130.708 160.767 131.233 160.142 131.608C159.517 131.983 158.778 132.17 157.926 132.17ZM157.938 130.523C158.4 130.523 158.786 130.396 159.097 130.142C159.407 129.884 159.638 129.54 159.79 129.108C159.945 128.676 160.023 128.195 160.023 127.665C160.023 127.131 159.945 126.648 159.79 126.216C159.638 125.78 159.407 125.434 159.097 125.176C158.786 124.919 158.4 124.79 157.938 124.79C157.464 124.79 157.07 124.919 156.756 125.176C156.445 125.434 156.212 125.78 156.057 126.216C155.905 126.648 155.83 127.131 155.83 127.665C155.83 128.195 155.905 128.676 156.057 129.108C156.212 129.54 156.445 129.884 156.756 130.142C157.07 130.396 157.464 130.523 157.938 130.523ZM162.957 132L166.179 127.494L162.986 123.273H165.361L167.844 126.79H168.332V123.273H170.389V126.79H170.866L173.349 123.273H175.724L172.548 127.494L175.753 132H173.327L170.844 128.477H170.389V132H168.332V128.477H167.878L165.384 132H162.957ZM183.286 126.784V128.472H178.638V126.784H183.286ZM179.274 123.273V132H177.291V123.273H179.274ZM184.632 123.273V132H182.655V123.273H184.632ZM190.52 132.17C189.668 132.17 188.929 131.983 188.304 131.608C187.679 131.233 187.194 130.708 186.849 130.034C186.509 129.36 186.338 128.572 186.338 127.67C186.338 126.769 186.509 125.979 186.849 125.301C187.194 124.623 187.679 124.097 188.304 123.722C188.929 123.347 189.668 123.159 190.52 123.159C191.372 123.159 192.111 123.347 192.736 123.722C193.361 124.097 193.844 124.623 194.185 125.301C194.529 125.979 194.702 126.769 194.702 127.67C194.702 128.572 194.529 129.36 194.185 130.034C193.844 130.708 193.361 131.233 192.736 131.608C192.111 131.983 191.372 132.17 190.52 132.17ZM190.531 130.523C190.993 130.523 191.38 130.396 191.69 130.142C192.001 129.884 192.232 129.54 192.384 129.108C192.539 128.676 192.616 128.195 192.616 127.665C192.616 127.131 192.539 126.648 192.384 126.216C192.232 125.78 192.001 125.434 191.69 125.176C191.38 124.919 190.993 124.79 190.531 124.79C190.058 124.79 189.664 124.919 189.349 125.176C189.039 125.434 188.806 125.78 188.651 126.216C188.499 126.648 188.423 127.131 188.423 127.665C188.423 128.195 188.499 128.676 188.651 129.108C188.806 129.54 189.039 129.884 189.349 130.142C189.664 130.396 190.058 130.523 190.531 130.523ZM205.575 132V124.943H203.712C203.238 124.943 202.875 125.053 202.621 125.273C202.367 125.492 202.242 125.765 202.246 126.091C202.242 126.417 202.361 126.686 202.604 126.898C202.846 127.11 203.193 127.216 203.643 127.216H206.223V128.716H203.643C202.946 128.716 202.344 128.606 201.837 128.386C201.329 128.167 200.939 127.856 200.666 127.455C200.393 127.053 200.257 126.583 200.257 126.045C200.257 125.485 200.395 124.998 200.672 124.585C200.952 124.169 201.35 123.847 201.865 123.619C202.384 123.388 203 123.273 203.712 123.273H207.501V132H205.575ZM199.939 132L202.376 127.523H204.405L201.962 132H199.939ZM213.541 132V123.273H220.911V132H218.928V124.96H215.507V132H213.541ZM223.026 132V123.273H225.082V132H223.026ZM224.06 122.034C223.734 122.034 223.454 121.926 223.219 121.71C222.984 121.491 222.866 121.227 222.866 120.92C222.866 120.61 222.984 120.347 223.219 120.131C223.454 119.911 223.734 119.801 224.06 119.801C224.389 119.801 224.67 119.911 224.901 120.131C225.135 120.347 225.253 120.61 225.253 120.92C225.253 121.227 225.135 121.491 224.901 121.71C224.67 121.926 224.389 122.034 224.06 122.034ZM226.425 134.534V130.307H227.118C227.304 130.163 227.459 129.968 227.584 129.722C227.709 129.472 227.811 129.178 227.891 128.841C227.974 128.5 228.042 128.119 228.095 127.699C228.148 127.275 228.196 126.818 228.237 126.33L228.487 123.273H234.794V130.307H236.146V134.534H234.158V132H228.447V134.534H226.425ZM229.232 130.307H232.828V124.932H230.271L230.135 126.33C230.059 127.254 229.959 128.045 229.834 128.705C229.709 129.364 229.508 129.898 229.232 130.307ZM238.96 135.273C238.68 135.273 238.42 135.25 238.182 135.205C237.947 135.163 237.759 135.114 237.619 135.057L238.097 133.455C238.396 133.542 238.663 133.583 238.898 133.58C239.133 133.576 239.339 133.502 239.517 133.358C239.699 133.218 239.852 132.983 239.977 132.653L240.153 132.182L236.989 123.273H239.17L241.182 129.864H241.273L243.29 123.273H245.477L241.983 133.057C241.82 133.519 241.604 133.915 241.335 134.244C241.066 134.578 240.737 134.831 240.347 135.006C239.96 135.184 239.498 135.273 238.96 135.273ZM84.5739 148.608H86.6136C86.6326 148.934 86.7784 149.186 87.0511 149.364C87.3239 149.542 87.678 149.631 88.1136 149.631C88.5568 149.631 88.9299 149.534 89.233 149.341C89.5398 149.144 89.6932 148.847 89.6932 148.449C89.6932 148.214 89.6345 148.008 89.517 147.83C89.3996 147.648 89.2348 147.508 89.0227 147.409C88.8106 147.311 88.5606 147.261 88.2727 147.261H86.9375V145.801H88.2727C88.7008 145.801 89.0246 145.703 89.2443 145.506C89.4678 145.309 89.5795 145.061 89.5795 144.761C89.5795 144.439 89.4621 144.178 89.2273 143.977C88.9962 143.777 88.6761 143.676 88.267 143.676C87.858 143.676 87.517 143.769 87.2443 143.955C86.9754 144.14 86.8352 144.379 86.8239 144.67H84.7955C84.803 144.163 84.9545 143.722 85.25 143.347C85.5492 142.972 85.9508 142.68 86.4545 142.472C86.9621 142.263 87.5341 142.159 88.1705 142.159C88.8523 142.159 89.4413 142.261 89.9375 142.466C90.4337 142.67 90.8163 142.956 91.0852 143.324C91.3542 143.687 91.4886 144.116 91.4886 144.608C91.4886 145.081 91.3409 145.473 91.0455 145.784C90.75 146.091 90.3523 146.311 89.8523 146.443V146.534C90.197 146.553 90.5076 146.652 90.7841 146.83C91.0606 147.004 91.2803 147.241 91.4432 147.54C91.6061 147.839 91.6875 148.186 91.6875 148.58C91.6875 149.114 91.5341 149.576 91.2273 149.966C90.9205 150.352 90.4981 150.65 89.9602 150.858C89.4261 151.066 88.8144 151.17 88.125 151.17C87.4545 151.17 86.8542 151.07 86.3239 150.869C85.7973 150.665 85.3788 150.371 85.0682 149.989C84.7576 149.606 84.5928 149.146 84.5739 148.608ZM97.2756 151V142.273H100.94C101.974 142.273 102.791 142.479 103.389 142.892C103.991 143.305 104.293 143.881 104.293 144.619C104.293 145.108 104.122 145.508 103.781 145.818C103.444 146.125 102.984 146.331 102.401 146.438C102.859 146.475 103.26 146.591 103.605 146.784C103.954 146.977 104.226 147.231 104.423 147.545C104.62 147.86 104.719 148.222 104.719 148.631C104.719 149.112 104.592 149.53 104.338 149.886C104.088 150.239 103.723 150.513 103.241 150.71C102.764 150.903 102.185 151 101.503 151H97.2756ZM99.2017 149.381H101.503C101.882 149.381 102.179 149.292 102.395 149.114C102.611 148.932 102.719 148.686 102.719 148.375C102.719 148.015 102.611 147.733 102.395 147.528C102.179 147.32 101.882 147.216 101.503 147.216H99.2017V149.381ZM99.2017 145.886H100.98C101.26 145.886 101.501 145.847 101.702 145.767C101.902 145.684 102.056 145.568 102.162 145.42C102.268 145.269 102.321 145.089 102.321 144.881C102.321 144.581 102.198 144.347 101.952 144.176C101.709 144.006 101.372 143.92 100.94 143.92H99.2017V145.886ZM108.928 151.176C108.375 151.176 107.876 151.078 107.433 150.881C106.994 150.68 106.645 150.384 106.388 149.994C106.134 149.604 106.007 149.123 106.007 148.551C106.007 148.059 106.098 147.652 106.28 147.33C106.462 147.008 106.71 146.75 107.024 146.557C107.339 146.364 107.693 146.218 108.087 146.119C108.484 146.017 108.895 145.943 109.32 145.898C109.831 145.845 110.246 145.797 110.564 145.756C110.882 145.71 111.113 145.642 111.257 145.551C111.405 145.456 111.479 145.311 111.479 145.114V145.08C111.479 144.652 111.352 144.32 111.098 144.085C110.844 143.85 110.479 143.733 110.001 143.733C109.498 143.733 109.098 143.843 108.803 144.062C108.511 144.282 108.314 144.542 108.212 144.841L106.291 144.568C106.443 144.038 106.693 143.595 107.041 143.239C107.39 142.879 107.816 142.61 108.32 142.432C108.823 142.25 109.38 142.159 109.99 142.159C110.411 142.159 110.829 142.208 111.246 142.307C111.662 142.405 112.043 142.568 112.388 142.795C112.732 143.019 113.009 143.324 113.217 143.71C113.429 144.097 113.536 144.58 113.536 145.159V151H111.558V149.801H111.49C111.365 150.044 111.189 150.271 110.962 150.483C110.738 150.691 110.456 150.86 110.115 150.989C109.778 151.114 109.382 151.176 108.928 151.176ZM109.462 149.665C109.875 149.665 110.232 149.583 110.536 149.42C110.839 149.254 111.071 149.034 111.234 148.761C111.401 148.489 111.484 148.191 111.484 147.869V146.841C111.42 146.894 111.31 146.943 111.155 146.989C111.003 147.034 110.833 147.074 110.643 147.108C110.454 147.142 110.267 147.172 110.081 147.199C109.895 147.225 109.734 147.248 109.598 147.267C109.291 147.309 109.017 147.377 108.774 147.472C108.532 147.566 108.34 147.699 108.2 147.869C108.06 148.036 107.99 148.252 107.99 148.517C107.99 148.896 108.128 149.182 108.405 149.375C108.681 149.568 109.034 149.665 109.462 149.665ZM120.626 148.608L123.217 142.273H124.876L121.348 151H119.911L116.462 142.273H118.104L120.626 148.608ZM117.587 142.273V151H115.604V142.273H117.587ZM123.751 151V142.273H125.717V151H123.751ZM129.774 148.216L133.268 142.273H135.382V151H133.393V145.051L129.911 151H127.791V142.273H129.774V148.216ZM139.46 147.58V147.432C139.464 146.746 139.528 146.201 139.653 145.795C139.782 145.39 139.964 145.064 140.199 144.818C140.434 144.568 140.72 144.339 141.057 144.131C141.288 143.987 141.494 143.83 141.676 143.659C141.862 143.485 142.008 143.292 142.114 143.08C142.22 142.864 142.273 142.623 142.273 142.358C142.273 142.059 142.203 141.799 142.062 141.58C141.922 141.36 141.733 141.189 141.494 141.068C141.259 140.947 140.996 140.886 140.705 140.886C140.436 140.886 140.18 140.945 139.938 141.062C139.699 141.176 139.5 141.35 139.341 141.585C139.186 141.816 139.098 142.11 139.08 142.466H137.057C137.076 141.746 137.25 141.144 137.58 140.659C137.913 140.174 138.352 139.811 138.898 139.568C139.447 139.326 140.053 139.205 140.716 139.205C141.439 139.205 142.076 139.331 142.625 139.585C143.178 139.839 143.608 140.201 143.915 140.67C144.225 141.136 144.381 141.689 144.381 142.33C144.381 142.761 144.311 143.148 144.17 143.489C144.034 143.83 143.839 144.133 143.585 144.398C143.331 144.663 143.03 144.9 142.682 145.108C142.375 145.297 142.123 145.494 141.926 145.699C141.733 145.903 141.589 146.144 141.494 146.42C141.403 146.693 141.356 147.03 141.352 147.432V147.58H139.46ZM140.449 151.125C140.108 151.125 139.814 151.004 139.568 150.761C139.322 150.519 139.199 150.223 139.199 149.875C139.199 149.534 139.322 149.242 139.568 149C139.814 148.758 140.108 148.636 140.449 148.636C140.786 148.636 141.078 148.758 141.324 149C141.574 149.242 141.699 149.534 141.699 149.875C141.699 150.106 141.64 150.316 141.523 150.506C141.409 150.695 141.258 150.847 141.068 150.96C140.883 151.07 140.676 151.125 140.449 151.125ZM150.257 139.364H152.837L156.291 147.795H156.428L159.882 139.364H162.462V151H160.439V143.006H160.331L157.115 150.966H155.604L152.388 142.989H152.28V151H150.257V139.364ZM168.473 151.17C167.621 151.17 166.882 150.983 166.257 150.608C165.632 150.233 165.147 149.708 164.803 149.034C164.462 148.36 164.291 147.572 164.291 146.67C164.291 145.769 164.462 144.979 164.803 144.301C165.147 143.623 165.632 143.097 166.257 142.722C166.882 142.347 167.621 142.159 168.473 142.159C169.325 142.159 170.064 142.347 170.689 142.722C171.314 143.097 171.797 143.623 172.138 144.301C172.482 144.979 172.655 145.769 172.655 146.67C172.655 147.572 172.482 148.36 172.138 149.034C171.797 149.708 171.314 150.233 170.689 150.608C170.064 150.983 169.325 151.17 168.473 151.17ZM168.484 149.523C168.946 149.523 169.333 149.396 169.643 149.142C169.954 148.884 170.185 148.54 170.337 148.108C170.492 147.676 170.57 147.195 170.57 146.665C170.57 146.131 170.492 145.648 170.337 145.216C170.185 144.78 169.954 144.434 169.643 144.176C169.333 143.919 168.946 143.79 168.484 143.79C168.011 143.79 167.617 143.919 167.303 144.176C166.992 144.434 166.759 144.78 166.604 145.216C166.452 145.648 166.376 146.131 166.376 146.665C166.376 147.195 166.452 147.676 166.604 148.108C166.759 148.54 166.992 148.884 167.303 149.142C167.617 149.396 168.011 149.523 168.484 149.523ZM173.504 151L176.726 146.494L173.533 142.273H175.908L178.391 145.79H178.879V142.273H180.936V145.79H181.413L183.896 142.273H186.271L183.095 146.494L186.3 151H183.874L181.391 147.477H180.936V151H178.879V147.477H178.425L175.93 151H173.504ZM187.236 151L187.224 149.307H187.526C187.753 149.307 187.944 149.256 188.099 149.153C188.255 149.051 188.384 148.881 188.486 148.642C188.588 148.4 188.668 148.074 188.724 147.665C188.781 147.256 188.821 146.746 188.844 146.136L188.997 142.273H195.361V151H193.372V143.96H190.866L190.73 146.773C190.696 147.5 190.615 148.131 190.486 148.665C190.361 149.195 190.183 149.633 189.952 149.977C189.724 150.322 189.438 150.58 189.094 150.75C188.749 150.917 188.342 151 187.872 151H187.236ZM199.415 148.216L202.909 142.273H205.023V151H203.034V145.051L199.551 151H197.432V142.273H199.415V148.216ZM207.135 151V142.273H210.8C211.834 142.273 212.65 142.479 213.249 142.892C213.851 143.305 214.152 143.881 214.152 144.619C214.152 145.108 213.982 145.508 213.641 145.818C213.304 146.125 212.843 146.331 212.26 146.438C212.718 146.475 213.12 146.591 213.464 146.784C213.813 146.977 214.086 147.231 214.283 147.545C214.48 147.86 214.578 148.222 214.578 148.631C214.578 149.112 214.451 149.53 214.197 149.886C213.947 150.239 213.582 150.513 213.101 150.71C212.624 150.903 212.044 151 211.362 151H207.135ZM209.061 149.381H211.362C211.741 149.381 212.038 149.292 212.254 149.114C212.47 148.932 212.578 148.686 212.578 148.375C212.578 148.015 212.47 147.733 212.254 147.528C212.038 147.32 211.741 147.216 211.362 147.216H209.061V149.381ZM209.061 145.886H210.839C211.12 145.886 211.36 145.847 211.561 145.767C211.762 145.684 211.915 145.568 212.021 145.42C212.127 145.269 212.18 145.089 212.18 144.881C212.18 144.581 212.057 144.347 211.811 144.176C211.569 144.006 211.232 143.92 210.8 143.92H209.061V145.886ZM220.082 151.17C219.23 151.17 218.491 150.983 217.866 150.608C217.241 150.233 216.757 149.708 216.412 149.034C216.071 148.36 215.901 147.572 215.901 146.67C215.901 145.769 216.071 144.979 216.412 144.301C216.757 143.623 217.241 143.097 217.866 142.722C218.491 142.347 219.23 142.159 220.082 142.159C220.935 142.159 221.673 142.347 222.298 142.722C222.923 143.097 223.406 143.623 223.747 144.301C224.092 144.979 224.264 145.769 224.264 146.67C224.264 147.572 224.092 148.36 223.747 149.034C223.406 149.708 222.923 150.233 222.298 150.608C221.673 150.983 220.935 151.17 220.082 151.17ZM220.094 149.523C220.556 149.523 220.942 149.396 221.253 149.142C221.563 148.884 221.795 148.54 221.946 148.108C222.101 147.676 222.179 147.195 222.179 146.665C222.179 146.131 222.101 145.648 221.946 145.216C221.795 144.78 221.563 144.434 221.253 144.176C220.942 143.919 220.556 143.79 220.094 143.79C219.62 143.79 219.226 143.919 218.912 144.176C218.601 144.434 218.368 144.78 218.213 145.216C218.062 145.648 217.986 146.131 217.986 146.665C217.986 147.195 218.062 147.676 218.213 148.108C218.368 148.54 218.601 148.884 218.912 149.142C219.226 149.396 219.62 149.523 220.094 149.523ZM85.0568 170V161.273H92.4261V170H90.4432V162.96H87.0227V170H85.0568ZM98.348 170.17C97.4957 170.17 96.7571 169.983 96.1321 169.608C95.5071 169.233 95.0223 168.708 94.6776 168.034C94.3366 167.36 94.1662 166.572 94.1662 165.67C94.1662 164.769 94.3366 163.979 94.6776 163.301C95.0223 162.623 95.5071 162.097 96.1321 161.722C96.7571 161.347 97.4957 161.159 98.348 161.159C99.2003 161.159 99.9389 161.347 100.564 161.722C101.189 162.097 101.672 162.623 102.013 163.301C102.357 163.979 102.53 164.769 102.53 165.67C102.53 166.572 102.357 167.36 102.013 168.034C101.672 168.708 101.189 169.233 100.564 169.608C99.9389 169.983 99.2003 170.17 98.348 170.17ZM98.3594 168.523C98.8215 168.523 99.2079 168.396 99.5185 168.142C99.8291 167.884 100.06 167.54 100.212 167.108C100.367 166.676 100.445 166.195 100.445 165.665C100.445 165.131 100.367 164.648 100.212 164.216C100.06 163.78 99.8291 163.434 99.5185 163.176C99.2079 162.919 98.8215 162.79 98.3594 162.79C97.8859 162.79 97.492 162.919 97.1776 163.176C96.867 163.434 96.634 163.78 96.4787 164.216C96.3272 164.648 96.2514 165.131 96.2514 165.665C96.2514 166.195 96.3272 166.676 96.4787 167.108C96.634 167.54 96.867 167.884 97.1776 168.142C97.492 168.396 97.8859 168.523 98.3594 168.523ZM103.314 162.96V161.273H110.95V162.96H108.126V170H106.138V162.96H103.314ZM112.588 173.273V161.273H114.611V162.716H114.73C114.836 162.504 114.986 162.278 115.179 162.04C115.372 161.797 115.634 161.591 115.963 161.42C116.293 161.246 116.713 161.159 117.224 161.159C117.899 161.159 118.507 161.331 119.048 161.676C119.594 162.017 120.026 162.523 120.344 163.193C120.666 163.86 120.827 164.678 120.827 165.648C120.827 166.606 120.67 167.42 120.355 168.091C120.041 168.761 119.613 169.273 119.071 169.625C118.529 169.977 117.916 170.153 117.23 170.153C116.73 170.153 116.315 170.07 115.986 169.903C115.656 169.737 115.391 169.536 115.19 169.301C114.993 169.062 114.84 168.837 114.73 168.625H114.645V173.273H112.588ZM114.605 165.636C114.605 166.201 114.685 166.695 114.844 167.119C115.007 167.544 115.24 167.875 115.543 168.114C115.849 168.348 116.221 168.466 116.656 168.466C117.111 168.466 117.491 168.345 117.798 168.102C118.105 167.856 118.336 167.521 118.491 167.097C118.651 166.669 118.73 166.182 118.73 165.636C118.73 165.095 118.652 164.614 118.497 164.193C118.342 163.773 118.111 163.443 117.804 163.205C117.497 162.966 117.115 162.847 116.656 162.847C116.217 162.847 115.844 162.962 115.537 163.193C115.23 163.424 114.997 163.748 114.838 164.165C114.683 164.581 114.605 165.072 114.605 165.636ZM122.588 170V161.273H124.645V170H122.588ZM123.622 160.034C123.296 160.034 123.016 159.926 122.781 159.71C122.546 159.491 122.429 159.227 122.429 158.92C122.429 158.61 122.546 158.347 122.781 158.131C123.016 157.911 123.296 157.801 123.622 157.801C123.952 157.801 124.232 157.911 124.463 158.131C124.698 158.347 124.815 158.61 124.815 158.92C124.815 159.227 124.698 159.491 124.463 159.71C124.232 159.926 123.952 160.034 123.622 160.034ZM133.754 158.045L134.47 159.375C134.216 159.595 133.932 159.754 133.618 159.852C133.304 159.951 132.934 160.015 132.51 160.045C132.089 160.072 131.589 160.091 131.01 160.102C130.358 160.117 129.826 160.241 129.413 160.472C129 160.703 128.684 161.053 128.464 161.523C128.245 161.989 128.101 162.583 128.033 163.307H128.129C128.402 162.773 128.785 162.366 129.277 162.085C129.769 161.805 130.347 161.665 131.01 161.665C131.733 161.665 132.372 161.828 132.925 162.153C133.482 162.475 133.915 162.943 134.226 163.557C134.54 164.17 134.697 164.913 134.697 165.784C134.697 166.682 134.529 167.46 134.192 168.119C133.855 168.775 133.375 169.28 132.754 169.636C132.137 169.992 131.404 170.17 130.555 170.17C129.711 170.17 128.976 169.987 128.351 169.619C127.73 169.248 127.249 168.701 126.908 167.977C126.571 167.25 126.402 166.354 126.402 165.29V164.506C126.402 162.453 126.785 160.92 127.55 159.909C128.315 158.898 129.449 158.383 130.953 158.364C131.4 158.356 131.8 158.354 132.152 158.358C132.508 158.362 132.819 158.345 133.084 158.307C133.349 158.269 133.572 158.182 133.754 158.045ZM130.567 168.523C130.987 168.523 131.351 168.415 131.658 168.199C131.964 167.979 132.199 167.669 132.362 167.267C132.529 166.866 132.612 166.39 132.612 165.841C132.612 165.299 132.529 164.839 132.362 164.46C132.196 164.078 131.959 163.786 131.652 163.585C131.345 163.384 130.98 163.284 130.555 163.284C130.237 163.284 129.951 163.341 129.697 163.455C129.444 163.568 129.228 163.735 129.05 163.955C128.872 164.174 128.735 164.441 128.641 164.756C128.546 165.07 128.495 165.432 128.487 165.841C128.487 166.663 128.673 167.316 129.044 167.801C129.415 168.282 129.923 168.523 130.567 168.523ZM142.442 164.784V166.472H137.794V164.784H142.442ZM138.43 161.273V170H136.447V161.273H138.43ZM143.788 161.273V170H141.811V161.273H143.788ZM148.381 170.176C147.828 170.176 147.33 170.078 146.886 169.881C146.447 169.68 146.098 169.384 145.841 168.994C145.587 168.604 145.46 168.123 145.46 167.551C145.46 167.059 145.551 166.652 145.733 166.33C145.915 166.008 146.163 165.75 146.477 165.557C146.792 165.364 147.146 165.218 147.54 165.119C147.938 165.017 148.348 164.943 148.773 164.898C149.284 164.845 149.699 164.797 150.017 164.756C150.335 164.71 150.566 164.642 150.71 164.551C150.858 164.456 150.932 164.311 150.932 164.114V164.08C150.932 163.652 150.805 163.32 150.551 163.085C150.297 162.85 149.932 162.733 149.455 162.733C148.951 162.733 148.551 162.843 148.256 163.062C147.964 163.282 147.767 163.542 147.665 163.841L145.744 163.568C145.896 163.038 146.146 162.595 146.494 162.239C146.843 161.879 147.269 161.61 147.773 161.432C148.277 161.25 148.833 161.159 149.443 161.159C149.864 161.159 150.282 161.208 150.699 161.307C151.116 161.405 151.496 161.568 151.841 161.795C152.186 162.019 152.462 162.324 152.67 162.71C152.883 163.097 152.989 163.58 152.989 164.159V170H151.011V168.801H150.943C150.818 169.044 150.642 169.271 150.415 169.483C150.191 169.691 149.909 169.86 149.568 169.989C149.231 170.114 148.835 170.176 148.381 170.176ZM148.915 168.665C149.328 168.665 149.686 168.583 149.989 168.42C150.292 168.254 150.525 168.034 150.688 167.761C150.854 167.489 150.938 167.191 150.938 166.869V165.841C150.873 165.894 150.763 165.943 150.608 165.989C150.456 166.034 150.286 166.074 150.097 166.108C149.907 166.142 149.72 166.172 149.534 166.199C149.348 166.225 149.188 166.248 149.051 166.267C148.744 166.309 148.47 166.377 148.227 166.472C147.985 166.566 147.794 166.699 147.653 166.869C147.513 167.036 147.443 167.252 147.443 167.517C147.443 167.896 147.581 168.182 147.858 168.375C148.134 168.568 148.487 168.665 148.915 168.665ZM166.02 158.045L166.736 159.375C166.482 159.595 166.198 159.754 165.884 159.852C165.569 159.951 165.2 160.015 164.776 160.045C164.355 160.072 163.855 160.091 163.276 160.102C162.624 160.117 162.092 160.241 161.679 160.472C161.266 160.703 160.95 161.053 160.73 161.523C160.51 161.989 160.366 162.583 160.298 163.307H160.395C160.668 162.773 161.05 162.366 161.543 162.085C162.035 161.805 162.613 161.665 163.276 161.665C163.999 161.665 164.637 161.828 165.19 162.153C165.747 162.475 166.181 162.943 166.491 163.557C166.806 164.17 166.963 164.913 166.963 165.784C166.963 166.682 166.795 167.46 166.457 168.119C166.12 168.775 165.641 169.28 165.02 169.636C164.402 169.992 163.67 170.17 162.821 170.17C161.976 170.17 161.241 169.987 160.616 169.619C159.995 169.248 159.514 168.701 159.173 167.977C158.836 167.25 158.668 166.354 158.668 165.29V164.506C158.668 162.453 159.05 160.92 159.815 159.909C160.58 158.898 161.715 158.383 163.219 158.364C163.666 158.356 164.065 158.354 164.418 158.358C164.774 158.362 165.084 158.345 165.349 158.307C165.615 158.269 165.838 158.182 166.02 158.045ZM162.832 168.523C163.253 168.523 163.616 168.415 163.923 168.199C164.23 167.979 164.465 167.669 164.628 167.267C164.795 166.866 164.878 166.39 164.878 165.841C164.878 165.299 164.795 164.839 164.628 164.46C164.461 164.078 164.224 163.786 163.918 163.585C163.611 163.384 163.245 163.284 162.821 163.284C162.503 163.284 162.217 163.341 161.963 163.455C161.709 163.568 161.493 163.735 161.315 163.955C161.137 164.174 161.001 164.441 160.906 164.756C160.812 165.07 160.76 165.432 160.753 165.841C160.753 166.663 160.938 167.316 161.31 167.801C161.681 168.282 162.188 168.523 162.832 168.523ZM169.991 173.273C169.711 173.273 169.452 173.25 169.213 173.205C168.978 173.163 168.791 173.114 168.651 173.057L169.128 171.455C169.427 171.542 169.694 171.583 169.929 171.58C170.164 171.576 170.37 171.502 170.548 171.358C170.73 171.218 170.884 170.983 171.009 170.653L171.185 170.182L168.02 161.273H170.202L172.213 167.864H172.304L174.321 161.273H176.509L173.014 171.057C172.851 171.519 172.635 171.915 172.366 172.244C172.098 172.578 171.768 172.831 171.378 173.006C170.991 173.184 170.529 173.273 169.991 173.273ZM176.44 172.534V168.307H177.134C177.319 168.163 177.474 167.968 177.599 167.722C177.724 167.472 177.827 167.178 177.906 166.841C177.99 166.5 178.058 166.119 178.111 165.699C178.164 165.275 178.211 164.818 178.253 164.33L178.503 161.273H184.81V168.307H186.162V172.534H184.173V170H178.463V172.534H176.44ZM179.247 168.307H182.844V162.932H180.287L180.151 164.33C180.075 165.254 179.974 166.045 179.849 166.705C179.724 167.364 179.524 167.898 179.247 168.307ZM191.561 170.17C190.686 170.17 189.93 169.989 189.294 169.625C188.661 169.258 188.175 168.739 187.834 168.068C187.493 167.394 187.322 166.6 187.322 165.688C187.322 164.79 187.493 164.002 187.834 163.324C188.179 162.642 188.66 162.112 189.277 161.733C189.894 161.35 190.62 161.159 191.453 161.159C191.991 161.159 192.499 161.246 192.976 161.42C193.457 161.591 193.881 161.856 194.249 162.216C194.62 162.576 194.911 163.034 195.124 163.591C195.336 164.144 195.442 164.803 195.442 165.568V166.199H188.288V164.812H193.47C193.466 164.419 193.381 164.068 193.214 163.761C193.048 163.451 192.815 163.206 192.516 163.028C192.22 162.85 191.875 162.761 191.482 162.761C191.061 162.761 190.692 162.864 190.374 163.068C190.055 163.269 189.807 163.534 189.629 163.864C189.455 164.189 189.366 164.547 189.362 164.938V166.148C189.362 166.655 189.455 167.091 189.641 167.455C189.826 167.814 190.086 168.091 190.419 168.284C190.752 168.473 191.143 168.568 191.589 168.568C191.889 168.568 192.16 168.527 192.402 168.443C192.644 168.356 192.855 168.229 193.033 168.062C193.211 167.896 193.345 167.689 193.436 167.443L195.357 167.659C195.235 168.167 195.004 168.61 194.663 168.989C194.326 169.364 193.894 169.655 193.368 169.864C192.841 170.068 192.239 170.17 191.561 170.17ZM84.2841 191.534V187.307H84.9773C85.1629 187.163 85.3182 186.968 85.4432 186.722C85.5682 186.472 85.6705 186.178 85.75 185.841C85.8333 185.5 85.9015 185.119 85.9545 184.699C86.0076 184.275 86.0549 183.818 86.0966 183.33L86.3466 180.273H92.6534V187.307H94.0057V191.534H92.017V189H86.3068V191.534H84.2841ZM87.0909 187.307H90.6875V181.932H88.1307L87.9943 183.33C87.9186 184.254 87.8182 185.045 87.6932 185.705C87.5682 186.364 87.3674 186.898 87.0909 187.307ZM99.348 189.17C98.4957 189.17 97.7571 188.983 97.1321 188.608C96.5071 188.233 96.0223 187.708 95.6776 187.034C95.3366 186.36 95.1662 185.572 95.1662 184.67C95.1662 183.769 95.3366 182.979 95.6776 182.301C96.0223 181.623 96.5071 181.097 97.1321 180.722C97.7571 180.347 98.4957 180.159 99.348 180.159C100.2 180.159 100.939 180.347 101.564 180.722C102.189 181.097 102.672 181.623 103.013 182.301C103.357 182.979 103.53 183.769 103.53 184.67C103.53 185.572 103.357 186.36 103.013 187.034C102.672 187.708 102.189 188.233 101.564 188.608C100.939 188.983 100.2 189.17 99.348 189.17ZM99.3594 187.523C99.8215 187.523 100.208 187.396 100.518 187.142C100.829 186.884 101.06 186.54 101.212 186.108C101.367 185.676 101.445 185.195 101.445 184.665C101.445 184.131 101.367 183.648 101.212 183.216C101.06 182.78 100.829 182.434 100.518 182.176C100.208 181.919 99.8215 181.79 99.3594 181.79C98.8859 181.79 98.492 181.919 98.1776 182.176C97.867 182.434 97.634 182.78 97.4787 183.216C97.3272 183.648 97.2514 184.131 97.2514 184.665C97.2514 185.195 97.3272 185.676 97.4787 186.108C97.634 186.54 97.867 186.884 98.1776 187.142C98.492 187.396 98.8859 187.523 99.3594 187.523ZM105.276 189V180.273H112.645V189H110.662V181.96H107.241V189H105.276ZM118.567 189.17C117.714 189.17 116.976 188.983 116.351 188.608C115.726 188.233 115.241 187.708 114.896 187.034C114.555 186.36 114.385 185.572 114.385 184.67C114.385 183.769 114.555 182.979 114.896 182.301C115.241 181.623 115.726 181.097 116.351 180.722C116.976 180.347 117.714 180.159 118.567 180.159C119.419 180.159 120.158 180.347 120.783 180.722C121.408 181.097 121.891 181.623 122.232 182.301C122.576 182.979 122.749 183.769 122.749 184.67C122.749 185.572 122.576 186.36 122.232 187.034C121.891 187.708 121.408 188.233 120.783 188.608C120.158 188.983 119.419 189.17 118.567 189.17ZM118.578 187.523C119.04 187.523 119.427 187.396 119.737 187.142C120.048 186.884 120.279 186.54 120.43 186.108C120.586 185.676 120.663 185.195 120.663 184.665C120.663 184.131 120.586 183.648 120.43 183.216C120.279 182.78 120.048 182.434 119.737 182.176C119.427 181.919 119.04 181.79 118.578 181.79C118.105 181.79 117.711 181.919 117.396 182.176C117.086 182.434 116.853 182.78 116.697 183.216C116.546 183.648 116.47 184.131 116.47 184.665C116.47 185.195 116.546 185.676 116.697 186.108C116.853 186.54 117.086 186.884 117.396 187.142C117.711 187.396 118.105 187.523 118.578 187.523ZM129.517 186.608L132.108 180.273H133.767L130.239 189H128.801L125.352 180.273H126.994L129.517 186.608ZM126.477 180.273V189H124.494V180.273H126.477ZM132.642 189V180.273H134.608V189H132.642ZM140.489 189.17C139.636 189.17 138.898 188.983 138.273 188.608C137.648 188.233 137.163 187.708 136.818 187.034C136.477 186.36 136.307 185.572 136.307 184.67C136.307 183.769 136.477 182.979 136.818 182.301C137.163 181.623 137.648 181.097 138.273 180.722C138.898 180.347 139.636 180.159 140.489 180.159C141.341 180.159 142.08 180.347 142.705 180.722C143.33 181.097 143.813 181.623 144.153 182.301C144.498 182.979 144.67 183.769 144.67 184.67C144.67 185.572 144.498 186.36 144.153 187.034C143.813 187.708 143.33 188.233 142.705 188.608C142.08 188.983 141.341 189.17 140.489 189.17ZM140.5 187.523C140.962 187.523 141.348 187.396 141.659 187.142C141.97 186.884 142.201 186.54 142.352 186.108C142.508 185.676 142.585 185.195 142.585 184.665C142.585 184.131 142.508 183.648 142.352 183.216C142.201 182.78 141.97 182.434 141.659 182.176C141.348 181.919 140.962 181.79 140.5 181.79C140.027 181.79 139.633 181.919 139.318 182.176C139.008 182.434 138.775 182.78 138.619 183.216C138.468 183.648 138.392 184.131 138.392 184.665C138.392 185.195 138.468 185.676 138.619 186.108C138.775 186.54 139.008 186.884 139.318 187.142C139.633 187.396 140.027 187.523 140.5 187.523ZM152.189 180.273V181.96H148.428V189H146.416V180.273H152.189ZM155.99 189.176C155.437 189.176 154.939 189.078 154.496 188.881C154.056 188.68 153.708 188.384 153.45 187.994C153.196 187.604 153.07 187.123 153.07 186.551C153.07 186.059 153.161 185.652 153.342 185.33C153.524 185.008 153.772 184.75 154.087 184.557C154.401 184.364 154.755 184.218 155.149 184.119C155.547 184.017 155.958 183.943 156.382 183.898C156.893 183.845 157.308 183.797 157.626 183.756C157.945 183.71 158.176 183.642 158.32 183.551C158.467 183.456 158.541 183.311 158.541 183.114V183.08C158.541 182.652 158.414 182.32 158.161 182.085C157.907 181.85 157.541 181.733 157.064 181.733C156.56 181.733 156.161 181.843 155.865 182.062C155.573 182.282 155.376 182.542 155.274 182.841L153.354 182.568C153.505 182.038 153.755 181.595 154.104 181.239C154.452 180.879 154.878 180.61 155.382 180.432C155.886 180.25 156.443 180.159 157.053 180.159C157.473 180.159 157.892 180.208 158.308 180.307C158.725 180.405 159.106 180.568 159.45 180.795C159.795 181.019 160.071 181.324 160.28 181.71C160.492 182.097 160.598 182.58 160.598 183.159V189H158.621V187.801H158.553C158.428 188.044 158.251 188.271 158.024 188.483C157.801 188.691 157.518 188.86 157.178 188.989C156.84 189.114 156.445 189.176 155.99 189.176ZM156.524 187.665C156.937 187.665 157.295 187.583 157.598 187.42C157.901 187.254 158.134 187.034 158.297 186.761C158.464 186.489 158.547 186.191 158.547 185.869V184.841C158.482 184.894 158.373 184.943 158.217 184.989C158.066 185.034 157.895 185.074 157.706 185.108C157.517 185.142 157.329 185.172 157.143 185.199C156.958 185.225 156.797 185.248 156.661 185.267C156.354 185.309 156.079 185.377 155.837 185.472C155.594 185.566 155.403 185.699 155.263 185.869C155.123 186.036 155.053 186.252 155.053 186.517C155.053 186.896 155.191 187.182 155.467 187.375C155.744 187.568 156.096 187.665 156.524 187.665Z" fill="#F6F1F1"/>
</svg>
