<svg width="273" height="260" viewBox="0 0 273 260" fill="none" xmlns="http://www.w3.org/2000/svg">
<path fill-rule="evenodd" clip-rule="evenodd" d="M125.473 227.951C106.103 227.951 94.884 225.098 84.9052 219.741C74.9264 214.383 67.0949 206.522 61.7582 196.504C56.4215 186.487 53.5794 175.225 53.5794 155.78V141.324C53.5794 121.88 56.4215 110.618 61.7582 100.6C67.0949 90.583 74.9264 82.7214 84.9052 77.3641C94.884 72.0067 106.103 69.1537 125.473 69.1537H201.107C220.476 69.1537 231.695 72.0067 241.674 77.3641C251.653 82.7214 259.485 90.583 264.821 100.6C270.158 110.618 273 121.88 273 141.324V155.78C273 175.225 270.158 186.487 264.821 196.504C259.485 206.522 251.653 214.383 241.674 219.741C231.695 225.098 220.476 227.951 201.107 227.951H145.505L112.262 260V227.951H125.473Z" fill="#00B578"/>
<path d="M84.1963 20.49C89.8327 20.49 94.4019 15.9031 94.4019 10.245C94.4019 4.58684 89.8327 0 84.1963 0C78.5599 0 73.9907 4.58684 73.9907 10.245C73.9907 15.9031 78.5599 20.49 84.1963 20.49Z" fill="#00B578"/>
<path d="M132.673 53.7862C135.491 53.7862 137.776 51.4928 137.776 48.6638C137.776 45.8347 135.491 43.5413 132.673 43.5413C129.855 43.5413 127.57 45.8347 127.57 48.6638C127.57 51.4928 129.855 53.7862 132.673 53.7862Z" fill="#00B578"/>
<path d="M19.1355 81.96C29.7038 81.96 38.271 73.3596 38.271 62.7506C38.271 52.1416 29.7038 43.5413 19.1355 43.5413C8.56726 43.5413 0 52.1416 0 62.7506C0 73.3596 8.56726 81.96 19.1355 81.96Z" fill="#919191"/>
<path d="M84.6364 103.131V101.364H93.9205V103.131H90.3239V113H88.233V103.131H84.6364ZM96.9432 113.176C96.3902 113.176 95.892 113.078 95.4489 112.881C95.0095 112.68 94.661 112.384 94.4034 111.994C94.1496 111.604 94.0227 111.123 94.0227 110.551C94.0227 110.059 94.1136 109.652 94.2955 109.33C94.4773 109.008 94.7254 108.75 95.0398 108.557C95.3542 108.364 95.7083 108.218 96.1023 108.119C96.5 108.017 96.911 107.943 97.3352 107.898C97.8466 107.845 98.2614 107.797 98.5795 107.756C98.8977 107.71 99.1288 107.642 99.2727 107.551C99.4205 107.456 99.4943 107.311 99.4943 107.114V107.08C99.4943 106.652 99.3674 106.32 99.1136 106.085C98.8598 105.85 98.4943 105.733 98.017 105.733C97.5133 105.733 97.1136 105.843 96.8182 106.062C96.5265 106.282 96.3295 106.542 96.2273 106.841L94.3068 106.568C94.4583 106.038 94.7083 105.595 95.0568 105.239C95.4053 104.879 95.8314 104.61 96.3352 104.432C96.839 104.25 97.3958 104.159 98.0057 104.159C98.4261 104.159 98.8447 104.208 99.2614 104.307C99.678 104.405 100.059 104.568 100.403 104.795C100.748 105.019 101.025 105.324 101.233 105.71C101.445 106.097 101.551 106.58 101.551 107.159V113H99.5739V111.801H99.5057C99.3807 112.044 99.2045 112.271 98.9773 112.483C98.7538 112.691 98.4716 112.86 98.1307 112.989C97.7936 113.114 97.3977 113.176 96.9432 113.176ZM97.4773 111.665C97.8902 111.665 98.2481 111.583 98.5511 111.42C98.8542 111.254 99.0871 111.034 99.25 110.761C99.4167 110.489 99.5 110.191 99.5 109.869V108.841C99.4356 108.894 99.3258 108.943 99.1705 108.989C99.0189 109.034 98.8485 109.074 98.6591 109.108C98.4697 109.142 98.2822 109.172 98.0966 109.199C97.911 109.225 97.75 109.248 97.6136 109.267C97.3068 109.309 97.0322 109.377 96.7898 109.472C96.5473 109.566 96.3561 109.699 96.2159 109.869C96.0758 110.036 96.0057 110.252 96.0057 110.517C96.0057 110.896 96.1439 111.182 96.4205 111.375C96.697 111.568 97.0492 111.665 97.4773 111.665ZM103.619 113V104.273H105.676V107.795H106.426L109.051 104.273H111.528L108.295 108.557L111.562 113H109.074L106.682 109.71H105.676V113H103.619ZM115.143 111.409L115.07 112.034C115.017 112.511 114.922 112.996 114.786 113.489C114.653 113.985 114.513 114.441 114.365 114.858C114.217 115.275 114.098 115.602 114.007 115.841H112.621C112.674 115.61 112.746 115.295 112.837 114.898C112.931 114.5 113.022 114.053 113.109 113.557C113.196 113.061 113.255 112.557 113.286 112.045L113.325 111.409H115.143ZM120.574 110.608H122.614C122.633 110.934 122.778 111.186 123.051 111.364C123.324 111.542 123.678 111.631 124.114 111.631C124.557 111.631 124.93 111.534 125.233 111.341C125.54 111.144 125.693 110.847 125.693 110.449C125.693 110.214 125.634 110.008 125.517 109.83C125.4 109.648 125.235 109.508 125.023 109.409C124.811 109.311 124.561 109.261 124.273 109.261H122.938V107.801H124.273C124.701 107.801 125.025 107.703 125.244 107.506C125.468 107.309 125.58 107.061 125.58 106.761C125.58 106.439 125.462 106.178 125.227 105.977C124.996 105.777 124.676 105.676 124.267 105.676C123.858 105.676 123.517 105.769 123.244 105.955C122.975 106.14 122.835 106.379 122.824 106.67H120.795C120.803 106.163 120.955 105.722 121.25 105.347C121.549 104.972 121.951 104.68 122.455 104.472C122.962 104.263 123.534 104.159 124.17 104.159C124.852 104.159 125.441 104.261 125.938 104.466C126.434 104.67 126.816 104.956 127.085 105.324C127.354 105.687 127.489 106.116 127.489 106.608C127.489 107.081 127.341 107.473 127.045 107.784C126.75 108.091 126.352 108.311 125.852 108.443V108.534C126.197 108.553 126.508 108.652 126.784 108.83C127.061 109.004 127.28 109.241 127.443 109.54C127.606 109.839 127.688 110.186 127.688 110.58C127.688 111.114 127.534 111.576 127.227 111.966C126.92 112.352 126.498 112.65 125.96 112.858C125.426 113.066 124.814 113.17 124.125 113.17C123.455 113.17 122.854 113.07 122.324 112.869C121.797 112.665 121.379 112.371 121.068 111.989C120.758 111.606 120.593 111.146 120.574 110.608ZM129.307 113V104.273H132.972C134.006 104.273 134.822 104.479 135.42 104.892C136.023 105.305 136.324 105.881 136.324 106.619C136.324 107.108 136.153 107.508 135.812 107.818C135.475 108.125 135.015 108.331 134.432 108.438C134.89 108.475 135.292 108.591 135.636 108.784C135.985 108.977 136.258 109.231 136.455 109.545C136.652 109.86 136.75 110.222 136.75 110.631C136.75 111.112 136.623 111.53 136.369 111.886C136.119 112.239 135.754 112.513 135.273 112.71C134.795 112.903 134.216 113 133.534 113H129.307ZM131.233 111.381H133.534C133.913 111.381 134.21 111.292 134.426 111.114C134.642 110.932 134.75 110.686 134.75 110.375C134.75 110.015 134.642 109.733 134.426 109.528C134.21 109.32 133.913 109.216 133.534 109.216H131.233V111.381ZM131.233 107.886H133.011C133.292 107.886 133.532 107.847 133.733 107.767C133.934 107.684 134.087 107.568 134.193 107.42C134.299 107.269 134.352 107.089 134.352 106.881C134.352 106.581 134.229 106.347 133.983 106.176C133.741 106.006 133.403 105.92 132.972 105.92H131.233V107.886ZM138.447 113V104.273H140.504V113H138.447ZM139.482 103.034C139.156 103.034 138.875 102.926 138.641 102.71C138.406 102.491 138.288 102.227 138.288 101.92C138.288 101.61 138.406 101.347 138.641 101.131C138.875 100.911 139.156 100.801 139.482 100.801C139.811 100.801 140.091 100.911 140.322 101.131C140.557 101.347 140.675 101.61 140.675 101.92C140.675 102.227 140.557 102.491 140.322 102.71C140.091 102.926 139.811 103.034 139.482 103.034ZM146.426 113.17C145.555 113.17 144.807 112.979 144.182 112.597C143.561 112.214 143.081 111.686 142.744 111.011C142.411 110.333 142.244 109.553 142.244 108.67C142.244 107.784 142.415 107.002 142.756 106.324C143.097 105.642 143.578 105.112 144.199 104.733C144.824 104.35 145.563 104.159 146.415 104.159C147.123 104.159 147.75 104.29 148.295 104.551C148.845 104.809 149.282 105.174 149.608 105.648C149.934 106.117 150.119 106.667 150.165 107.295H148.199C148.119 106.875 147.93 106.525 147.631 106.244C147.335 105.96 146.939 105.818 146.443 105.818C146.023 105.818 145.653 105.932 145.335 106.159C145.017 106.383 144.769 106.705 144.591 107.125C144.417 107.545 144.33 108.049 144.33 108.636C144.33 109.231 144.417 109.742 144.591 110.17C144.765 110.595 145.009 110.922 145.324 111.153C145.642 111.381 146.015 111.494 146.443 111.494C146.746 111.494 147.017 111.437 147.256 111.324C147.498 111.206 147.701 111.038 147.864 110.818C148.027 110.598 148.138 110.331 148.199 110.017H150.165C150.116 110.634 149.934 111.182 149.619 111.659C149.305 112.133 148.877 112.504 148.335 112.773C147.794 113.038 147.157 113.17 146.426 113.17ZM157.848 107.784V109.472H153.2V107.784H157.848ZM153.837 104.273V113H151.854V104.273H153.837ZM159.195 104.273V113H157.217V104.273H159.195ZM165.082 113.17C164.23 113.17 163.491 112.983 162.866 112.608C162.241 112.233 161.757 111.708 161.412 111.034C161.071 110.36 160.901 109.572 160.901 108.67C160.901 107.769 161.071 106.979 161.412 106.301C161.757 105.623 162.241 105.097 162.866 104.722C163.491 104.347 164.23 104.159 165.082 104.159C165.935 104.159 166.673 104.347 167.298 104.722C167.923 105.097 168.406 105.623 168.747 106.301C169.092 106.979 169.264 107.769 169.264 108.67C169.264 109.572 169.092 110.36 168.747 111.034C168.406 111.708 167.923 112.233 167.298 112.608C166.673 112.983 165.935 113.17 165.082 113.17ZM165.094 111.523C165.556 111.523 165.942 111.396 166.253 111.142C166.563 110.884 166.795 110.54 166.946 110.108C167.101 109.676 167.179 109.195 167.179 108.665C167.179 108.131 167.101 107.648 166.946 107.216C166.795 106.78 166.563 106.434 166.253 106.176C165.942 105.919 165.556 105.79 165.094 105.79C164.62 105.79 164.226 105.919 163.912 106.176C163.601 106.434 163.368 106.78 163.213 107.216C163.062 107.648 162.986 108.131 162.986 108.665C162.986 109.195 163.062 109.676 163.213 110.108C163.368 110.54 163.601 110.884 163.912 111.142C164.226 111.396 164.62 111.523 165.094 111.523ZM173.425 111.409L173.351 112.034C173.298 112.511 173.203 112.996 173.067 113.489C172.934 113.985 172.794 114.441 172.646 114.858C172.499 115.275 172.379 115.602 172.288 115.841H170.902C170.955 115.61 171.027 115.295 171.118 114.898C171.213 114.5 171.304 114.053 171.391 113.557C171.478 113.061 171.536 112.557 171.567 112.045L171.607 111.409H173.425ZM184.497 113V105.943H182.634C182.16 105.943 181.796 106.053 181.543 106.273C181.289 106.492 181.164 106.765 181.168 107.091C181.164 107.417 181.283 107.686 181.526 107.898C181.768 108.11 182.115 108.216 182.565 108.216H185.145V109.716H182.565C181.868 109.716 181.266 109.606 180.759 109.386C180.251 109.167 179.861 108.856 179.588 108.455C179.315 108.053 179.179 107.583 179.179 107.045C179.179 106.485 179.317 105.998 179.594 105.585C179.874 105.169 180.272 104.847 180.787 104.619C181.306 104.388 181.921 104.273 182.634 104.273H186.423V113H184.497ZM178.861 113L181.298 108.523H183.327L180.884 113H178.861ZM197.622 113V105.943H195.759C195.285 105.943 194.921 106.053 194.668 106.273C194.414 106.492 194.289 106.765 194.293 107.091C194.289 107.417 194.408 107.686 194.651 107.898C194.893 108.11 195.24 108.216 195.69 108.216H198.27V109.716H195.69C194.993 109.716 194.391 109.606 193.884 109.386C193.376 109.167 192.986 108.856 192.713 108.455C192.44 108.053 192.304 107.583 192.304 107.045C192.304 106.485 192.442 105.998 192.719 105.585C192.999 105.169 193.397 104.847 193.912 104.619C194.431 104.388 195.046 104.273 195.759 104.273H199.548V113H197.622ZM191.986 113L194.423 108.523H196.452L194.009 113H191.986ZM201.619 113V104.273H203.676V107.795H204.426L207.051 104.273H209.528L206.295 108.557L209.562 113H207.074L204.682 109.71H203.676V113H201.619ZM214.697 116.273V104.273H216.72V105.716H216.839C216.946 105.504 217.095 105.278 217.288 105.04C217.482 104.797 217.743 104.591 218.072 104.42C218.402 104.246 218.822 104.159 219.334 104.159C220.008 104.159 220.616 104.331 221.158 104.676C221.703 105.017 222.135 105.523 222.453 106.193C222.775 106.86 222.936 107.678 222.936 108.648C222.936 109.606 222.779 110.42 222.464 111.091C222.15 111.761 221.722 112.273 221.18 112.625C220.639 112.977 220.025 113.153 219.339 113.153C218.839 113.153 218.425 113.07 218.095 112.903C217.766 112.737 217.5 112.536 217.3 112.301C217.103 112.062 216.949 111.837 216.839 111.625H216.754V116.273H214.697ZM216.714 108.636C216.714 109.201 216.794 109.695 216.953 110.119C217.116 110.544 217.349 110.875 217.652 111.114C217.959 111.348 218.33 111.466 218.766 111.466C219.22 111.466 219.601 111.345 219.908 111.102C220.214 110.856 220.446 110.521 220.601 110.097C220.76 109.669 220.839 109.182 220.839 108.636C220.839 108.095 220.762 107.614 220.607 107.193C220.451 106.773 220.22 106.443 219.913 106.205C219.607 105.966 219.224 105.847 218.766 105.847C218.326 105.847 217.953 105.962 217.646 106.193C217.339 106.424 217.107 106.748 216.947 107.165C216.792 107.581 216.714 108.072 216.714 108.636ZM227.209 113.176C226.656 113.176 226.158 113.078 225.714 112.881C225.275 112.68 224.927 112.384 224.669 111.994C224.415 111.604 224.288 111.123 224.288 110.551C224.288 110.059 224.379 109.652 224.561 109.33C224.743 109.008 224.991 108.75 225.305 108.557C225.62 108.364 225.974 108.218 226.368 108.119C226.766 108.017 227.177 107.943 227.601 107.898C228.112 107.845 228.527 107.797 228.845 107.756C229.163 107.71 229.394 107.642 229.538 107.551C229.686 107.456 229.76 107.311 229.76 107.114V107.08C229.76 106.652 229.633 106.32 229.379 106.085C229.125 105.85 228.76 105.733 228.283 105.733C227.779 105.733 227.379 105.843 227.084 106.062C226.792 106.282 226.595 106.542 226.493 106.841L224.572 106.568C224.724 106.038 224.974 105.595 225.322 105.239C225.671 104.879 226.097 104.61 226.601 104.432C227.105 104.25 227.661 104.159 228.271 104.159C228.692 104.159 229.11 104.208 229.527 104.307C229.944 104.405 230.324 104.568 230.669 104.795C231.014 105.019 231.29 105.324 231.499 105.71C231.711 106.097 231.817 106.58 231.817 107.159V113H229.839V111.801H229.771C229.646 112.044 229.47 112.271 229.243 112.483C229.019 112.691 228.737 112.86 228.396 112.989C228.059 113.114 227.663 113.176 227.209 113.176ZM227.743 111.665C228.156 111.665 228.514 111.583 228.817 111.42C229.12 111.254 229.353 111.034 229.516 110.761C229.682 110.489 229.766 110.191 229.766 109.869V108.841C229.701 108.894 229.591 108.943 229.436 108.989C229.285 109.034 229.114 109.074 228.925 109.108C228.735 109.142 228.548 109.172 228.362 109.199C228.177 109.225 228.016 109.248 227.879 109.267C227.572 109.309 227.298 109.377 227.055 109.472C226.813 109.566 226.622 109.699 226.482 109.869C226.341 110.036 226.271 110.252 226.271 110.517C226.271 110.896 226.41 111.182 226.686 111.375C226.963 111.568 227.315 111.665 227.743 111.665ZM233.402 110.608H235.442C235.461 110.934 235.607 111.186 235.879 111.364C236.152 111.542 236.506 111.631 236.942 111.631C237.385 111.631 237.758 111.534 238.061 111.341C238.368 111.144 238.521 110.847 238.521 110.449C238.521 110.214 238.463 110.008 238.345 109.83C238.228 109.648 238.063 109.508 237.851 109.409C237.639 109.311 237.389 109.261 237.101 109.261H235.766V107.801H237.101C237.529 107.801 237.853 107.703 238.072 107.506C238.296 107.309 238.408 107.061 238.408 106.761C238.408 106.439 238.29 106.178 238.055 105.977C237.824 105.777 237.504 105.676 237.095 105.676C236.686 105.676 236.345 105.769 236.072 105.955C235.804 106.14 235.663 106.379 235.652 106.67H233.624C233.631 106.163 233.783 105.722 234.078 105.347C234.377 104.972 234.779 104.68 235.283 104.472C235.79 104.263 236.362 104.159 236.999 104.159C237.68 104.159 238.269 104.261 238.766 104.466C239.262 104.67 239.644 104.956 239.913 105.324C240.182 105.687 240.317 106.116 240.317 106.608C240.317 107.081 240.169 107.473 239.874 107.784C239.578 108.091 239.18 108.311 238.68 108.443V108.534C239.025 108.553 239.336 108.652 239.612 108.83C239.889 109.004 240.108 109.241 240.271 109.54C240.434 109.839 240.516 110.186 240.516 110.58C240.516 111.114 240.362 111.576 240.055 111.966C239.749 112.352 239.326 112.65 238.788 112.858C238.254 113.066 237.643 113.17 236.953 113.17C236.283 113.17 235.682 113.07 235.152 112.869C234.625 112.665 234.207 112.371 233.896 111.989C233.586 111.606 233.421 111.146 233.402 110.608ZM86.7386 123.273L88.5 126.494L90.2898 123.273H92.4659L89.8352 127.636L92.5114 132H90.3466L88.5 128.858L86.6705 132H84.4886L87.1477 127.636L84.5568 123.273H86.7386ZM97.5355 132.17C96.6832 132.17 95.9446 131.983 95.3196 131.608C94.6946 131.233 94.2098 130.708 93.8651 130.034C93.5241 129.36 93.3537 128.572 93.3537 127.67C93.3537 126.769 93.5241 125.979 93.8651 125.301C94.2098 124.623 94.6946 124.097 95.3196 123.722C95.9446 123.347 96.6832 123.159 97.5355 123.159C98.3878 123.159 99.1264 123.347 99.7514 123.722C100.376 124.097 100.859 124.623 101.2 125.301C101.545 125.979 101.717 126.769 101.717 127.67C101.717 128.572 101.545 129.36 101.2 130.034C100.859 130.708 100.376 131.233 99.7514 131.608C99.1264 131.983 98.3878 132.17 97.5355 132.17ZM97.5469 130.523C98.009 130.523 98.3954 130.396 98.706 130.142C99.0166 129.884 99.2476 129.54 99.3991 129.108C99.5545 128.676 99.6321 128.195 99.6321 127.665C99.6321 127.131 99.5545 126.648 99.3991 126.216C99.2476 125.78 99.0166 125.434 98.706 125.176C98.3954 124.919 98.009 124.79 97.5469 124.79C97.0734 124.79 96.6795 124.919 96.3651 125.176C96.0545 125.434 95.8215 125.78 95.6662 126.216C95.5147 126.648 95.4389 127.131 95.4389 127.665C95.4389 128.195 95.5147 128.676 95.6662 129.108C95.8215 129.54 96.0545 129.884 96.3651 130.142C96.6795 130.396 97.0734 130.523 97.5469 130.523ZM102.501 124.96V123.273H110.138V124.96H107.314V132H105.325V124.96H102.501ZM111.776 132V123.273H113.832V132H111.776ZM112.81 122.034C112.484 122.034 112.204 121.926 111.969 121.71C111.734 121.491 111.616 121.227 111.616 120.92C111.616 120.61 111.734 120.347 111.969 120.131C112.204 119.911 112.484 119.801 112.81 119.801C113.139 119.801 113.42 119.911 113.651 120.131C113.885 120.347 114.003 120.61 114.003 120.92C114.003 121.227 113.885 121.491 113.651 121.71C113.42 121.926 113.139 122.034 112.81 122.034ZM115.947 132V123.273H119.612C120.646 123.273 121.463 123.479 122.061 123.892C122.663 124.305 122.964 124.881 122.964 125.619C122.964 126.108 122.794 126.508 122.453 126.818C122.116 127.125 121.656 127.331 121.072 127.438C121.531 127.475 121.932 127.591 122.277 127.784C122.625 127.977 122.898 128.231 123.095 128.545C123.292 128.86 123.391 129.222 123.391 129.631C123.391 130.112 123.264 130.53 123.01 130.886C122.76 131.239 122.394 131.513 121.913 131.71C121.436 131.903 120.857 132 120.175 132H115.947ZM117.874 130.381H120.175C120.554 130.381 120.851 130.292 121.067 130.114C121.283 129.932 121.391 129.686 121.391 129.375C121.391 129.015 121.283 128.733 121.067 128.528C120.851 128.32 120.554 128.216 120.175 128.216H117.874V130.381ZM117.874 126.886H119.652C119.932 126.886 120.173 126.847 120.374 126.767C120.574 126.684 120.728 126.568 120.834 126.42C120.94 126.269 120.993 126.089 120.993 125.881C120.993 125.581 120.87 125.347 120.624 125.176C120.381 125.006 120.044 124.92 119.612 124.92H117.874V126.886ZM128.574 129.608H130.614C130.633 129.934 130.778 130.186 131.051 130.364C131.324 130.542 131.678 130.631 132.114 130.631C132.557 130.631 132.93 130.534 133.233 130.341C133.54 130.144 133.693 129.847 133.693 129.449C133.693 129.214 133.634 129.008 133.517 128.83C133.4 128.648 133.235 128.508 133.023 128.409C132.811 128.311 132.561 128.261 132.273 128.261H130.938V126.801H132.273C132.701 126.801 133.025 126.703 133.244 126.506C133.468 126.309 133.58 126.061 133.58 125.761C133.58 125.439 133.462 125.178 133.227 124.977C132.996 124.777 132.676 124.676 132.267 124.676C131.858 124.676 131.517 124.769 131.244 124.955C130.975 125.14 130.835 125.379 130.824 125.67H128.795C128.803 125.163 128.955 124.722 129.25 124.347C129.549 123.972 129.951 123.68 130.455 123.472C130.962 123.263 131.534 123.159 132.17 123.159C132.852 123.159 133.441 123.261 133.938 123.466C134.434 123.67 134.816 123.956 135.085 124.324C135.354 124.687 135.489 125.116 135.489 125.608C135.489 126.081 135.341 126.473 135.045 126.784C134.75 127.091 134.352 127.311 133.852 127.443V127.534C134.197 127.553 134.508 127.652 134.784 127.83C135.061 128.004 135.28 128.241 135.443 128.54C135.606 128.839 135.688 129.186 135.688 129.58C135.688 130.114 135.534 130.576 135.227 130.966C134.92 131.352 134.498 131.65 133.96 131.858C133.426 132.066 132.814 132.17 132.125 132.17C131.455 132.17 130.854 132.07 130.324 131.869C129.797 131.665 129.379 131.371 129.068 130.989C128.758 130.606 128.593 130.146 128.574 129.608ZM139.818 132.176C139.265 132.176 138.767 132.078 138.324 131.881C137.884 131.68 137.536 131.384 137.278 130.994C137.025 130.604 136.898 130.123 136.898 129.551C136.898 129.059 136.989 128.652 137.17 128.33C137.352 128.008 137.6 127.75 137.915 127.557C138.229 127.364 138.583 127.218 138.977 127.119C139.375 127.017 139.786 126.943 140.21 126.898C140.722 126.845 141.136 126.797 141.455 126.756C141.773 126.71 142.004 126.642 142.148 126.551C142.295 126.456 142.369 126.311 142.369 126.114V126.08C142.369 125.652 142.242 125.32 141.989 125.085C141.735 124.85 141.369 124.733 140.892 124.733C140.388 124.733 139.989 124.843 139.693 125.062C139.402 125.282 139.205 125.542 139.102 125.841L137.182 125.568C137.333 125.038 137.583 124.595 137.932 124.239C138.28 123.879 138.706 123.61 139.21 123.432C139.714 123.25 140.271 123.159 140.881 123.159C141.301 123.159 141.72 123.208 142.136 123.307C142.553 123.405 142.934 123.568 143.278 123.795C143.623 124.019 143.9 124.324 144.108 124.71C144.32 125.097 144.426 125.58 144.426 126.159V132H142.449V130.801H142.381C142.256 131.044 142.08 131.271 141.852 131.483C141.629 131.691 141.347 131.86 141.006 131.989C140.669 132.114 140.273 132.176 139.818 132.176ZM140.352 130.665C140.765 130.665 141.123 130.583 141.426 130.42C141.729 130.254 141.962 130.034 142.125 129.761C142.292 129.489 142.375 129.191 142.375 128.869V127.841C142.311 127.894 142.201 127.943 142.045 127.989C141.894 128.034 141.723 128.074 141.534 128.108C141.345 128.142 141.157 128.172 140.972 128.199C140.786 128.225 140.625 128.248 140.489 128.267C140.182 128.309 139.907 128.377 139.665 128.472C139.422 128.566 139.231 128.699 139.091 128.869C138.951 129.036 138.881 129.252 138.881 129.517C138.881 129.896 139.019 130.182 139.295 130.375C139.572 130.568 139.924 130.665 140.352 130.665ZM146.494 132V123.273H153.864V132H151.881V124.96H148.46V132H146.494ZM155.979 135.273V123.273H158.001V124.716H158.121C158.227 124.504 158.376 124.278 158.57 124.04C158.763 123.797 159.024 123.591 159.354 123.42C159.683 123.246 160.104 123.159 160.615 123.159C161.289 123.159 161.897 123.331 162.439 123.676C162.984 124.017 163.416 124.523 163.734 125.193C164.056 125.86 164.217 126.678 164.217 127.648C164.217 128.606 164.06 129.42 163.746 130.091C163.431 130.761 163.003 131.273 162.462 131.625C161.92 131.977 161.306 132.153 160.621 132.153C160.121 132.153 159.706 132.07 159.376 131.903C159.047 131.737 158.782 131.536 158.581 131.301C158.384 131.062 158.231 130.837 158.121 130.625H158.036V135.273H155.979ZM157.996 127.636C157.996 128.201 158.075 128.695 158.234 129.119C158.397 129.544 158.63 129.875 158.933 130.114C159.24 130.348 159.611 130.466 160.047 130.466C160.501 130.466 160.882 130.345 161.189 130.102C161.496 129.856 161.727 129.521 161.882 129.097C162.041 128.669 162.121 128.182 162.121 127.636C162.121 127.095 162.043 126.614 161.888 126.193C161.732 125.773 161.501 125.443 161.195 125.205C160.888 124.966 160.505 124.847 160.047 124.847C159.607 124.847 159.234 124.962 158.928 125.193C158.621 125.424 158.388 125.748 158.229 126.165C158.073 126.581 157.996 127.072 157.996 127.636ZM169.786 132.17C168.933 132.17 168.195 131.983 167.57 131.608C166.945 131.233 166.46 130.708 166.115 130.034C165.774 129.36 165.604 128.572 165.604 127.67C165.604 126.769 165.774 125.979 166.115 125.301C166.46 124.623 166.945 124.097 167.57 123.722C168.195 123.347 168.933 123.159 169.786 123.159C170.638 123.159 171.376 123.347 172.001 123.722C172.626 124.097 173.109 124.623 173.45 125.301C173.795 125.979 173.967 126.769 173.967 127.67C173.967 128.572 173.795 129.36 173.45 130.034C173.109 130.708 172.626 131.233 172.001 131.608C171.376 131.983 170.638 132.17 169.786 132.17ZM169.797 130.523C170.259 130.523 170.645 130.396 170.956 130.142C171.267 129.884 171.498 129.54 171.649 129.108C171.804 128.676 171.882 128.195 171.882 127.665C171.882 127.131 171.804 126.648 171.649 126.216C171.498 125.78 171.267 125.434 170.956 125.176C170.645 124.919 170.259 124.79 169.797 124.79C169.323 124.79 168.929 124.919 168.615 125.176C168.304 125.434 168.071 125.78 167.916 126.216C167.765 126.648 167.689 127.131 167.689 127.665C167.689 128.195 167.765 128.676 167.916 129.108C168.071 129.54 168.304 129.884 168.615 130.142C168.929 130.396 169.323 130.523 169.797 130.523ZM175.713 132V123.273H183.082V132H181.099V124.96H177.679V132H175.713ZM189.004 132.17C188.152 132.17 187.413 131.983 186.788 131.608C186.163 131.233 185.679 130.708 185.334 130.034C184.993 129.36 184.822 128.572 184.822 127.67C184.822 126.769 184.993 125.979 185.334 125.301C185.679 124.623 186.163 124.097 186.788 123.722C187.413 123.347 188.152 123.159 189.004 123.159C189.857 123.159 190.595 123.347 191.22 123.722C191.845 124.097 192.328 124.623 192.669 125.301C193.014 125.979 193.186 126.769 193.186 127.67C193.186 128.572 193.014 129.36 192.669 130.034C192.328 130.708 191.845 131.233 191.22 131.608C190.595 131.983 189.857 132.17 189.004 132.17ZM189.016 130.523C189.478 130.523 189.864 130.396 190.175 130.142C190.485 129.884 190.716 129.54 190.868 129.108C191.023 128.676 191.101 128.195 191.101 127.665C191.101 127.131 191.023 126.648 190.868 126.216C190.716 125.78 190.485 125.434 190.175 125.176C189.864 124.919 189.478 124.79 189.016 124.79C188.542 124.79 188.148 124.919 187.834 125.176C187.523 125.434 187.29 125.78 187.135 126.216C186.983 126.648 186.908 127.131 186.908 127.665C186.908 128.195 186.983 128.676 187.135 129.108C187.29 129.54 187.523 129.884 187.834 130.142C188.148 130.396 188.542 130.523 189.016 130.523ZM200.926 126.784V128.472H196.278V126.784H200.926ZM196.915 123.273V132H194.932V123.273H196.915ZM202.273 123.273V132H200.295V123.273H202.273ZM205.32 135.273C205.039 135.273 204.78 135.25 204.541 135.205C204.306 135.163 204.119 135.114 203.979 135.057L204.456 133.455C204.755 133.542 205.022 133.583 205.257 133.58C205.492 133.576 205.698 133.502 205.876 133.358C206.058 133.218 206.212 132.983 206.337 132.653L206.513 132.182L203.348 123.273H205.53L207.541 129.864H207.632L209.649 123.273H211.837L208.342 133.057C208.179 133.519 207.964 133.915 207.695 134.244C207.426 134.578 207.096 134.831 206.706 135.006C206.32 135.184 205.857 135.273 205.32 135.273ZM213.26 132V123.273H216.925C217.959 123.273 218.775 123.479 219.374 123.892C219.976 124.305 220.277 124.881 220.277 125.619C220.277 126.108 220.107 126.508 219.766 126.818C219.429 127.125 218.968 127.331 218.385 127.438C218.843 127.475 219.245 127.591 219.589 127.784C219.938 127.977 220.211 128.231 220.408 128.545C220.605 128.86 220.703 129.222 220.703 129.631C220.703 130.112 220.576 130.53 220.322 130.886C220.072 131.239 219.707 131.513 219.226 131.71C218.749 131.903 218.169 132 217.487 132H213.26ZM215.186 130.381H217.487C217.866 130.381 218.163 130.292 218.379 130.114C218.595 129.932 218.703 129.686 218.703 129.375C218.703 129.015 218.595 128.733 218.379 128.528C218.163 128.32 217.866 128.216 217.487 128.216H215.186V130.381ZM215.186 126.886H216.964C217.245 126.886 217.485 126.847 217.686 126.767C217.887 126.684 218.04 126.568 218.146 126.42C218.252 126.269 218.305 126.089 218.305 125.881C218.305 125.581 218.182 125.347 217.936 125.176C217.694 125.006 217.357 124.92 216.925 124.92H215.186V126.886ZM224.912 132.176C224.359 132.176 223.861 132.078 223.418 131.881C222.978 131.68 222.63 131.384 222.372 130.994C222.118 130.604 221.991 130.123 221.991 129.551C221.991 129.059 222.082 128.652 222.264 128.33C222.446 128.008 222.694 127.75 223.009 127.557C223.323 127.364 223.677 127.218 224.071 127.119C224.469 127.017 224.88 126.943 225.304 126.898C225.815 126.845 226.23 126.797 226.548 126.756C226.866 126.71 227.098 126.642 227.241 126.551C227.389 126.456 227.463 126.311 227.463 126.114V126.08C227.463 125.652 227.336 125.32 227.082 125.085C226.829 124.85 226.463 124.733 225.986 124.733C225.482 124.733 225.082 124.843 224.787 125.062C224.495 125.282 224.298 125.542 224.196 125.841L222.276 125.568C222.427 125.038 222.677 124.595 223.026 124.239C223.374 123.879 223.8 123.61 224.304 123.432C224.808 123.25 225.365 123.159 225.974 123.159C226.395 123.159 226.813 123.208 227.23 123.307C227.647 123.405 228.027 123.568 228.372 123.795C228.717 124.019 228.993 124.324 229.202 124.71C229.414 125.097 229.52 125.58 229.52 126.159V132H227.543V130.801H227.474C227.349 131.044 227.173 131.271 226.946 131.483C226.723 131.691 226.44 131.86 226.099 131.989C225.762 132.114 225.366 132.176 224.912 132.176ZM225.446 130.665C225.859 130.665 226.217 130.583 226.52 130.42C226.823 130.254 227.056 130.034 227.219 129.761C227.385 129.489 227.469 129.191 227.469 128.869V127.841C227.404 127.894 227.295 127.943 227.139 127.989C226.988 128.034 226.817 128.074 226.628 128.108C226.438 128.142 226.251 128.172 226.065 128.199C225.88 128.225 225.719 128.248 225.582 128.267C225.276 128.309 225.001 128.377 224.759 128.472C224.516 128.566 224.325 128.699 224.185 128.869C224.045 129.036 223.974 129.252 223.974 129.517C223.974 129.896 224.113 130.182 224.389 130.375C224.666 130.568 225.018 130.665 225.446 130.665ZM230.611 124.96V123.273H238.247V124.96H235.423V132H233.435V124.96H230.611ZM241.868 129.216L245.362 123.273H247.476V132H245.487V126.051L242.004 132H239.885V123.273H241.868V129.216ZM84.5795 143.96V142.273H92.2159V143.96H89.392V151H87.4034V143.96H84.5795ZM97.3011 151.17C96.4489 151.17 95.7102 150.983 95.0852 150.608C94.4602 150.233 93.9754 149.708 93.6307 149.034C93.2898 148.36 93.1193 147.572 93.1193 146.67C93.1193 145.769 93.2898 144.979 93.6307 144.301C93.9754 143.623 94.4602 143.097 95.0852 142.722C95.7102 142.347 96.4489 142.159 97.3011 142.159C98.1534 142.159 98.892 142.347 99.517 142.722C100.142 143.097 100.625 143.623 100.966 144.301C101.311 144.979 101.483 145.769 101.483 146.67C101.483 147.572 101.311 148.36 100.966 149.034C100.625 149.708 100.142 150.233 99.517 150.608C98.892 150.983 98.1534 151.17 97.3011 151.17ZM97.3125 149.523C97.7746 149.523 98.161 149.396 98.4716 149.142C98.7822 148.884 99.0133 148.54 99.1648 148.108C99.3201 147.676 99.3977 147.195 99.3977 146.665C99.3977 146.131 99.3201 145.648 99.1648 145.216C99.0133 144.78 98.7822 144.434 98.4716 144.176C98.161 143.919 97.7746 143.79 97.3125 143.79C96.839 143.79 96.4451 143.919 96.1307 144.176C95.8201 144.434 95.5871 144.78 95.4318 145.216C95.2803 145.648 95.2045 146.131 95.2045 146.665C95.2045 147.195 95.2803 147.676 95.4318 148.108C95.5871 148.54 95.8201 148.884 96.1307 149.142C96.4451 149.396 96.839 149.523 97.3125 149.523ZM110.223 139.045L110.939 140.375C110.685 140.595 110.401 140.754 110.087 140.852C109.772 140.951 109.403 141.015 108.979 141.045C108.558 141.072 108.058 141.091 107.479 141.102C106.827 141.117 106.295 141.241 105.882 141.472C105.469 141.703 105.153 142.053 104.933 142.523C104.714 142.989 104.57 143.583 104.501 144.307H104.598C104.871 143.773 105.253 143.366 105.746 143.085C106.238 142.805 106.816 142.665 107.479 142.665C108.202 142.665 108.84 142.828 109.393 143.153C109.95 143.475 110.384 143.943 110.695 144.557C111.009 145.17 111.166 145.913 111.166 146.784C111.166 147.682 110.998 148.46 110.661 149.119C110.323 149.775 109.844 150.28 109.223 150.636C108.606 150.992 107.873 151.17 107.024 151.17C106.179 151.17 105.445 150.987 104.82 150.619C104.198 150.248 103.717 149.701 103.376 148.977C103.039 148.25 102.871 147.354 102.871 146.29V145.506C102.871 143.453 103.253 141.92 104.018 140.909C104.784 139.898 105.918 139.383 107.422 139.364C107.869 139.356 108.268 139.354 108.621 139.358C108.977 139.362 109.287 139.345 109.553 139.307C109.818 139.269 110.041 139.182 110.223 139.045ZM107.036 149.523C107.456 149.523 107.82 149.415 108.126 149.199C108.433 148.979 108.668 148.669 108.831 148.267C108.998 147.866 109.081 147.39 109.081 146.841C109.081 146.299 108.998 145.839 108.831 145.46C108.664 145.078 108.428 144.786 108.121 144.585C107.814 144.384 107.448 144.284 107.024 144.284C106.706 144.284 106.42 144.341 106.166 144.455C105.912 144.568 105.696 144.735 105.518 144.955C105.34 145.174 105.204 145.441 105.109 145.756C105.015 146.07 104.964 146.432 104.956 146.841C104.956 147.663 105.142 148.316 105.513 148.801C105.884 149.282 106.392 149.523 107.036 149.523ZM112.916 151V142.273H114.973V151H112.916ZM113.95 141.034C113.625 141.034 113.344 140.926 113.109 140.71C112.875 140.491 112.757 140.227 112.757 139.92C112.757 139.61 112.875 139.347 113.109 139.131C113.344 138.911 113.625 138.801 113.95 138.801C114.28 138.801 114.56 138.911 114.791 139.131C115.026 139.347 115.143 139.61 115.143 139.92C115.143 140.227 115.026 140.491 114.791 140.71C114.56 140.926 114.28 141.034 113.95 141.034ZM118.355 151.125C118.01 151.125 117.715 151.004 117.469 150.761C117.223 150.519 117.101 150.223 117.105 149.875C117.101 149.534 117.223 149.242 117.469 149C117.715 148.758 118.01 148.636 118.355 148.636C118.688 148.636 118.978 148.758 119.224 149C119.474 149.242 119.601 149.534 119.605 149.875C119.601 150.106 119.541 150.316 119.423 150.506C119.31 150.695 119.158 150.847 118.969 150.96C118.783 151.07 118.579 151.125 118.355 151.125ZM125.429 139.364H128.009L131.463 147.795H131.599L135.054 139.364H137.634V151H135.611V143.006H135.503L132.287 150.966H130.776L127.56 142.989H127.452V151H125.429V139.364ZM142.349 151.176C141.796 151.176 141.298 151.078 140.855 150.881C140.416 150.68 140.067 150.384 139.81 149.994C139.556 149.604 139.429 149.123 139.429 148.551C139.429 148.059 139.52 147.652 139.702 147.33C139.884 147.008 140.132 146.75 140.446 146.557C140.76 146.364 141.115 146.218 141.509 146.119C141.906 146.017 142.317 145.943 142.741 145.898C143.253 145.845 143.668 145.797 143.986 145.756C144.304 145.71 144.535 145.642 144.679 145.551C144.827 145.456 144.901 145.311 144.901 145.114V145.08C144.901 144.652 144.774 144.32 144.52 144.085C144.266 143.85 143.901 143.733 143.423 143.733C142.92 143.733 142.52 143.843 142.224 144.062C141.933 144.282 141.736 144.542 141.634 144.841L139.713 144.568C139.865 144.038 140.115 143.595 140.463 143.239C140.812 142.879 141.238 142.61 141.741 142.432C142.245 142.25 142.802 142.159 143.412 142.159C143.832 142.159 144.251 142.208 144.668 142.307C145.084 142.405 145.465 142.568 145.81 142.795C146.154 143.019 146.431 143.324 146.639 143.71C146.851 144.097 146.957 144.58 146.957 145.159V151H144.98V149.801H144.912C144.787 150.044 144.611 150.271 144.384 150.483C144.16 150.691 143.878 150.86 143.537 150.989C143.2 151.114 142.804 151.176 142.349 151.176ZM142.884 149.665C143.296 149.665 143.654 149.583 143.957 149.42C144.26 149.254 144.493 149.034 144.656 148.761C144.823 148.489 144.906 148.191 144.906 147.869V146.841C144.842 146.894 144.732 146.943 144.577 146.989C144.425 147.034 144.255 147.074 144.065 147.108C143.876 147.142 143.688 147.172 143.503 147.199C143.317 147.225 143.156 147.248 143.02 147.267C142.713 147.309 142.438 147.377 142.196 147.472C141.954 147.566 141.762 147.699 141.622 147.869C141.482 148.036 141.412 148.252 141.412 148.517C141.412 148.896 141.55 149.182 141.827 149.375C142.103 149.568 142.455 149.665 142.884 149.665ZM154.048 148.608L156.639 142.273H158.298L154.77 151H153.332L149.884 142.273H151.526L154.048 148.608ZM151.009 142.273V151H149.026V142.273H151.009ZM157.173 151V142.273H159.139V151H157.173ZM163.628 149.409L163.554 150.034C163.501 150.511 163.406 150.996 163.27 151.489C163.137 151.985 162.997 152.441 162.849 152.858C162.702 153.275 162.582 153.602 162.491 153.841H161.105C161.158 153.61 161.23 153.295 161.321 152.898C161.416 152.5 161.507 152.053 161.594 151.557C161.681 151.061 161.74 150.557 161.77 150.045L161.81 149.409H163.628ZM169.064 143.96V142.273H176.7V143.96H173.876V151H171.888V143.96H169.064ZM180.321 148.216L183.815 142.273H185.929V151H183.94V145.051L180.457 151H178.338V142.273H180.321V148.216ZM198.004 145.784V147.472H193.357V145.784H198.004ZM193.993 142.273V151H192.01V142.273H193.993ZM199.351 142.273V151H197.374V142.273H199.351ZM205.295 151.17C204.42 151.17 203.665 150.989 203.028 150.625C202.396 150.258 201.909 149.739 201.568 149.068C201.227 148.394 201.057 147.6 201.057 146.688C201.057 145.79 201.227 145.002 201.568 144.324C201.913 143.642 202.394 143.112 203.011 142.733C203.629 142.35 204.354 142.159 205.188 142.159C205.725 142.159 206.233 142.246 206.71 142.42C207.191 142.591 207.616 142.856 207.983 143.216C208.354 143.576 208.646 144.034 208.858 144.591C209.07 145.144 209.176 145.803 209.176 146.568V147.199H202.023V145.812H207.205C207.201 145.419 207.116 145.068 206.949 144.761C206.782 144.451 206.549 144.206 206.25 144.028C205.955 143.85 205.61 143.761 205.216 143.761C204.795 143.761 204.426 143.864 204.108 144.068C203.79 144.269 203.542 144.534 203.364 144.864C203.189 145.189 203.1 145.547 203.097 145.938V147.148C203.097 147.655 203.189 148.091 203.375 148.455C203.561 148.814 203.82 149.091 204.153 149.284C204.487 149.473 204.877 149.568 205.324 149.568C205.623 149.568 205.894 149.527 206.136 149.443C206.379 149.356 206.589 149.229 206.767 149.062C206.945 148.896 207.08 148.689 207.17 148.443L209.091 148.659C208.97 149.167 208.739 149.61 208.398 149.989C208.061 150.364 207.629 150.655 207.102 150.864C206.576 151.068 205.973 151.17 205.295 151.17ZM85.0568 170V161.273H92.4261V170H90.4432V162.96H87.0227V170H85.0568ZM94.5412 173.273V161.273H96.5639V162.716H96.6832C96.7893 162.504 96.9389 162.278 97.1321 162.04C97.3253 161.797 97.5866 161.591 97.9162 161.42C98.2457 161.246 98.6662 161.159 99.1776 161.159C99.8518 161.159 100.46 161.331 101.001 161.676C101.547 162.017 101.979 162.523 102.297 163.193C102.619 163.86 102.78 164.678 102.78 165.648C102.78 166.606 102.623 167.42 102.308 168.091C101.994 168.761 101.566 169.273 101.024 169.625C100.482 169.977 99.8688 170.153 99.1832 170.153C98.6832 170.153 98.2685 170.07 97.9389 169.903C97.6094 169.737 97.3442 169.536 97.1435 169.301C96.9465 169.062 96.7931 168.837 96.6832 168.625H96.598V173.273H94.5412ZM96.5582 165.636C96.5582 166.201 96.6378 166.695 96.7969 167.119C96.9598 167.544 97.1927 167.875 97.4957 168.114C97.8026 168.348 98.1738 168.466 98.6094 168.466C99.0639 168.466 99.4446 168.345 99.7514 168.102C100.058 167.856 100.289 167.521 100.445 167.097C100.604 166.669 100.683 166.182 100.683 165.636C100.683 165.095 100.606 164.614 100.45 164.193C100.295 163.773 100.064 163.443 99.7571 163.205C99.4503 162.966 99.0677 162.847 98.6094 162.847C98.17 162.847 97.7969 162.962 97.4901 163.193C97.1832 163.424 96.9503 163.748 96.7912 164.165C96.6359 164.581 96.5582 165.072 96.5582 165.636ZM108.348 170.17C107.496 170.17 106.757 169.983 106.132 169.608C105.507 169.233 105.022 168.708 104.678 168.034C104.337 167.36 104.166 166.572 104.166 165.67C104.166 164.769 104.337 163.979 104.678 163.301C105.022 162.623 105.507 162.097 106.132 161.722C106.757 161.347 107.496 161.159 108.348 161.159C109.2 161.159 109.939 161.347 110.564 161.722C111.189 162.097 111.672 162.623 112.013 163.301C112.357 163.979 112.53 164.769 112.53 165.67C112.53 166.572 112.357 167.36 112.013 168.034C111.672 168.708 111.189 169.233 110.564 169.608C109.939 169.983 109.2 170.17 108.348 170.17ZM108.359 168.523C108.821 168.523 109.208 168.396 109.518 168.142C109.829 167.884 110.06 167.54 110.212 167.108C110.367 166.676 110.445 166.195 110.445 165.665C110.445 165.131 110.367 164.648 110.212 164.216C110.06 163.78 109.829 163.434 109.518 163.176C109.208 162.919 108.821 162.79 108.359 162.79C107.886 162.79 107.492 162.919 107.178 163.176C106.867 163.434 106.634 163.78 106.479 164.216C106.327 164.648 106.251 165.131 106.251 165.665C106.251 166.195 106.327 166.676 106.479 167.108C106.634 167.54 106.867 167.884 107.178 168.142C107.492 168.396 107.886 168.523 108.359 168.523ZM113.314 162.96V161.273H120.95V162.96H118.126V170H116.138V162.96H113.314ZM124.571 167.216L128.065 161.273H130.179V170H128.19V164.051L124.707 170H122.588V161.273H124.571V167.216ZM134.706 168.409L134.632 169.034C134.579 169.511 134.484 169.996 134.348 170.489C134.215 170.985 134.075 171.441 133.928 171.858C133.78 172.275 133.661 172.602 133.57 172.841H132.183C132.236 172.61 132.308 172.295 132.399 171.898C132.494 171.5 132.585 171.053 132.672 170.557C132.759 170.061 132.818 169.557 132.848 169.045L132.888 168.409H134.706ZM145.778 170V162.943H143.915C143.441 162.943 143.078 163.053 142.824 163.273C142.57 163.492 142.445 163.765 142.449 164.091C142.445 164.417 142.564 164.686 142.807 164.898C143.049 165.11 143.396 165.216 143.847 165.216H146.426V166.716H143.847C143.15 166.716 142.547 166.606 142.04 166.386C141.532 166.167 141.142 165.856 140.869 165.455C140.597 165.053 140.46 164.583 140.46 164.045C140.46 163.485 140.598 162.998 140.875 162.585C141.155 162.169 141.553 161.847 142.068 161.619C142.587 161.388 143.203 161.273 143.915 161.273H147.705V170H145.778ZM140.142 170L142.58 165.523H144.608L142.165 170H140.142ZM149.776 170V161.273H151.832V164.795H152.582L155.207 161.273H157.685L154.452 165.557L157.719 170H155.23L152.838 166.71H151.832V170H149.776ZM171.993 168.312L171.822 172.5H169.885V170H168.857V168.312H171.993ZM158.885 161.273H160.868V168.307H163.612V161.273H165.595V168.307H168.339V161.273H170.322V170H158.885V161.273ZM177.332 170.17C176.48 170.17 175.741 169.983 175.116 169.608C174.491 169.233 174.007 168.708 173.662 168.034C173.321 167.36 173.151 166.572 173.151 165.67C173.151 164.769 173.321 163.979 173.662 163.301C174.007 162.623 174.491 162.097 175.116 161.722C175.741 161.347 176.48 161.159 177.332 161.159C178.185 161.159 178.923 161.347 179.548 161.722C180.173 162.097 180.656 162.623 180.997 163.301C181.342 163.979 181.514 164.769 181.514 165.67C181.514 166.572 181.342 167.36 180.997 168.034C180.656 168.708 180.173 169.233 179.548 169.608C178.923 169.983 178.185 170.17 177.332 170.17ZM177.344 168.523C177.806 168.523 178.192 168.396 178.503 168.142C178.813 167.884 179.045 167.54 179.196 167.108C179.351 166.676 179.429 166.195 179.429 165.665C179.429 165.131 179.351 164.648 179.196 164.216C179.045 163.78 178.813 163.434 178.503 163.176C178.192 162.919 177.806 162.79 177.344 162.79C176.87 162.79 176.476 162.919 176.162 163.176C175.851 163.434 175.618 163.78 175.463 164.216C175.312 164.648 175.236 165.131 175.236 165.665C175.236 166.195 175.312 166.676 175.463 167.108C175.618 167.54 175.851 167.884 176.162 168.142C176.476 168.396 176.87 168.523 177.344 168.523ZM187.32 158.364H189.899L193.354 166.795H193.49L196.945 158.364H199.524V170H197.501V162.006H197.393L194.178 169.966H192.666L189.45 161.989H189.342V170H187.32V158.364ZM204.24 170.176C203.687 170.176 203.189 170.078 202.746 169.881C202.306 169.68 201.958 169.384 201.7 168.994C201.446 168.604 201.32 168.123 201.32 167.551C201.32 167.059 201.411 166.652 201.592 166.33C201.774 166.008 202.022 165.75 202.337 165.557C202.651 165.364 203.005 165.218 203.399 165.119C203.797 165.017 204.208 164.943 204.632 164.898C205.143 164.845 205.558 164.797 205.876 164.756C206.195 164.71 206.426 164.642 206.57 164.551C206.717 164.456 206.791 164.311 206.791 164.114V164.08C206.791 163.652 206.664 163.32 206.411 163.085C206.157 162.85 205.791 162.733 205.314 162.733C204.81 162.733 204.411 162.843 204.115 163.062C203.823 163.282 203.626 163.542 203.524 163.841L201.604 163.568C201.755 163.038 202.005 162.595 202.354 162.239C202.702 161.879 203.128 161.61 203.632 161.432C204.136 161.25 204.693 161.159 205.303 161.159C205.723 161.159 206.142 161.208 206.558 161.307C206.975 161.405 207.356 161.568 207.7 161.795C208.045 162.019 208.321 162.324 208.53 162.71C208.742 163.097 208.848 163.58 208.848 164.159V170H206.871V168.801H206.803C206.678 169.044 206.501 169.271 206.274 169.483C206.051 169.691 205.768 169.86 205.428 169.989C205.09 170.114 204.695 170.176 204.24 170.176ZM204.774 168.665C205.187 168.665 205.545 168.583 205.848 168.42C206.151 168.254 206.384 168.034 206.547 167.761C206.714 167.489 206.797 167.191 206.797 166.869V165.841C206.732 165.894 206.623 165.943 206.467 165.989C206.316 166.034 206.145 166.074 205.956 166.108C205.767 166.142 205.579 166.172 205.393 166.199C205.208 166.225 205.047 166.248 204.911 166.267C204.604 166.309 204.329 166.377 204.087 166.472C203.844 166.566 203.653 166.699 203.513 166.869C203.373 167.036 203.303 167.252 203.303 167.517C203.303 167.896 203.441 168.182 203.717 168.375C203.994 168.568 204.346 168.665 204.774 168.665ZM210.916 173.273V161.273H212.939V162.716H213.058C213.164 162.504 213.314 162.278 213.507 162.04C213.7 161.797 213.962 161.591 214.291 161.42C214.621 161.246 215.041 161.159 215.553 161.159C216.227 161.159 216.835 161.331 217.376 161.676C217.922 162.017 218.354 162.523 218.672 163.193C218.994 163.86 219.155 164.678 219.155 165.648C219.155 166.606 218.998 167.42 218.683 168.091C218.369 168.761 217.941 169.273 217.399 169.625C216.857 169.977 216.244 170.153 215.558 170.153C215.058 170.153 214.643 170.07 214.314 169.903C213.984 169.737 213.719 169.536 213.518 169.301C213.321 169.062 213.168 168.837 213.058 168.625H212.973V173.273H210.916ZM212.933 165.636C212.933 166.201 213.013 166.695 213.172 167.119C213.335 167.544 213.568 167.875 213.871 168.114C214.178 168.348 214.549 168.466 214.984 168.466C215.439 168.466 215.82 168.345 216.126 168.102C216.433 167.856 216.664 167.521 216.82 167.097C216.979 166.669 217.058 166.182 217.058 165.636C217.058 165.095 216.981 164.614 216.825 164.193C216.67 163.773 216.439 163.443 216.132 163.205C215.825 162.966 215.443 162.847 214.984 162.847C214.545 162.847 214.172 162.962 213.865 163.193C213.558 163.424 213.325 163.748 213.166 164.165C213.011 164.581 212.933 165.072 212.933 165.636ZM220.916 170V161.273H222.973V164.795H223.723L226.348 161.273H228.825L225.592 165.557L228.859 170H226.371L223.979 166.71H222.973V170H220.916ZM88.8636 189.17C87.9924 189.17 87.2443 188.979 86.6193 188.597C85.9981 188.214 85.5189 187.686 85.1818 187.011C84.8485 186.333 84.6818 185.553 84.6818 184.67C84.6818 183.784 84.8523 183.002 85.1932 182.324C85.5341 181.642 86.0152 181.112 86.6364 180.733C87.2614 180.35 88 180.159 88.8523 180.159C89.5606 180.159 90.1875 180.29 90.733 180.551C91.2822 180.809 91.7197 181.174 92.0455 181.648C92.3712 182.117 92.5568 182.667 92.6023 183.295H90.6364C90.5568 182.875 90.3674 182.525 90.0682 182.244C89.7727 181.96 89.3769 181.818 88.8807 181.818C88.4602 181.818 88.0909 181.932 87.7727 182.159C87.4545 182.383 87.2064 182.705 87.0284 183.125C86.8542 183.545 86.767 184.049 86.767 184.636C86.767 185.231 86.8542 185.742 87.0284 186.17C87.2027 186.595 87.447 186.922 87.7614 187.153C88.0795 187.381 88.4527 187.494 88.8807 187.494C89.1837 187.494 89.4545 187.437 89.6932 187.324C89.9356 187.206 90.1383 187.038 90.3011 186.818C90.464 186.598 90.5758 186.331 90.6364 186.017H92.6023C92.553 186.634 92.3712 187.182 92.0568 187.659C91.7424 188.133 91.3144 188.504 90.7727 188.773C90.2311 189.038 89.5947 189.17 88.8636 189.17ZM95.9105 180.273L97.6719 183.494L99.4616 180.273H101.638L99.0071 184.636L101.683 189H99.5185L97.6719 185.858L95.8423 189H93.6605L96.3196 184.636L93.7287 180.273H95.9105ZM106.707 189.17C105.855 189.17 105.116 188.983 104.491 188.608C103.866 188.233 103.382 187.708 103.037 187.034C102.696 186.36 102.526 185.572 102.526 184.67C102.526 183.769 102.696 182.979 103.037 182.301C103.382 181.623 103.866 181.097 104.491 180.722C105.116 180.347 105.855 180.159 106.707 180.159C107.56 180.159 108.298 180.347 108.923 180.722C109.548 181.097 110.031 181.623 110.372 182.301C110.717 182.979 110.889 183.769 110.889 184.67C110.889 185.572 110.717 186.36 110.372 187.034C110.031 187.708 109.548 188.233 108.923 188.608C108.298 188.983 107.56 189.17 106.707 189.17ZM106.719 187.523C107.181 187.523 107.567 187.396 107.878 187.142C108.188 186.884 108.42 186.54 108.571 186.108C108.726 185.676 108.804 185.195 108.804 184.665C108.804 184.131 108.726 183.648 108.571 183.216C108.42 182.78 108.188 182.434 107.878 182.176C107.567 181.919 107.181 181.79 106.719 181.79C106.245 181.79 105.851 181.919 105.537 182.176C105.226 182.434 104.993 182.78 104.838 183.216C104.687 183.648 104.611 184.131 104.611 184.665C104.611 185.195 104.687 185.676 104.838 186.108C104.993 186.54 105.226 186.884 105.537 187.142C105.851 187.396 106.245 187.523 106.719 187.523ZM111.862 191.534V187.307H112.555C112.741 187.163 112.896 186.968 113.021 186.722C113.146 186.472 113.249 186.178 113.328 185.841C113.411 185.5 113.48 185.119 113.533 184.699C113.586 184.275 113.633 183.818 113.675 183.33L113.925 180.273H120.232V187.307H121.584V191.534H119.595V189H113.885V191.534H111.862ZM114.669 187.307H118.266V181.932H115.709L115.572 183.33C115.497 184.254 115.396 185.045 115.271 185.705C115.146 186.364 114.946 186.898 114.669 187.307ZM125.102 186.216L128.597 180.273H130.71V189H128.722V183.051L125.239 189H123.119V180.273H125.102V186.216ZM131.845 181.96V180.273H139.482V181.96H136.658V189H134.669V181.96H131.845ZM142.511 183.114H145.085C146.199 183.114 147.061 183.384 147.67 183.926C148.28 184.468 148.587 185.178 148.591 186.057C148.587 186.629 148.447 187.136 148.17 187.58C147.898 188.023 147.5 188.371 146.977 188.625C146.458 188.875 145.828 189 145.085 189H141.119V180.273H143.102V187.312H145.085C145.532 187.312 145.9 187.199 146.188 186.972C146.475 186.741 146.619 186.445 146.619 186.085C146.619 185.706 146.475 185.398 146.188 185.159C145.9 184.92 145.532 184.801 145.085 184.801H142.511V183.114ZM153.839 186.608H155.879C155.898 186.934 156.044 187.186 156.317 187.364C156.589 187.542 156.944 187.631 157.379 187.631C157.822 187.631 158.196 187.534 158.499 187.341C158.805 187.144 158.959 186.847 158.959 186.449C158.959 186.214 158.9 186.008 158.783 185.83C158.665 185.648 158.5 185.508 158.288 185.409C158.076 185.311 157.826 185.261 157.538 185.261H156.203V183.801H157.538C157.966 183.801 158.29 183.703 158.51 183.506C158.733 183.309 158.845 183.061 158.845 182.761C158.845 182.439 158.728 182.178 158.493 181.977C158.262 181.777 157.942 181.676 157.533 181.676C157.124 181.676 156.783 181.769 156.51 181.955C156.241 182.14 156.101 182.379 156.089 182.67H154.061C154.069 182.163 154.22 181.722 154.516 181.347C154.815 180.972 155.216 180.68 155.72 180.472C156.228 180.263 156.8 180.159 157.436 180.159C158.118 180.159 158.707 180.261 159.203 180.466C159.699 180.67 160.082 180.956 160.351 181.324C160.62 181.687 160.754 182.116 160.754 182.608C160.754 183.081 160.607 183.473 160.311 183.784C160.016 184.091 159.618 184.311 159.118 184.443V184.534C159.463 184.553 159.773 184.652 160.05 184.83C160.326 185.004 160.546 185.241 160.709 185.54C160.872 185.839 160.953 186.186 160.953 186.58C160.953 187.114 160.8 187.576 160.493 187.966C160.186 188.352 159.764 188.65 159.226 188.858C158.692 189.066 158.08 189.17 157.391 189.17C156.72 189.17 156.12 189.07 155.589 188.869C155.063 188.665 154.644 188.371 154.334 187.989C154.023 187.606 153.858 187.146 153.839 186.608ZM172.536 183.784V185.472H167.888V183.784H172.536ZM168.524 180.273V189H166.541V180.273H168.524ZM173.882 180.273V189H171.905V180.273H173.882ZM178.474 189.176C177.921 189.176 177.423 189.078 176.98 188.881C176.541 188.68 176.192 188.384 175.935 187.994C175.681 187.604 175.554 187.123 175.554 186.551C175.554 186.059 175.645 185.652 175.827 185.33C176.009 185.008 176.257 184.75 176.571 184.557C176.885 184.364 177.24 184.218 177.634 184.119C178.031 184.017 178.442 183.943 178.866 183.898C179.378 183.845 179.793 183.797 180.111 183.756C180.429 183.71 180.66 183.642 180.804 183.551C180.952 183.456 181.026 183.311 181.026 183.114V183.08C181.026 182.652 180.899 182.32 180.645 182.085C180.391 181.85 180.026 181.733 179.548 181.733C179.045 181.733 178.645 181.843 178.349 182.062C178.058 182.282 177.861 182.542 177.759 182.841L175.838 182.568C175.99 182.038 176.24 181.595 176.588 181.239C176.937 180.879 177.363 180.61 177.866 180.432C178.37 180.25 178.927 180.159 179.537 180.159C179.957 180.159 180.376 180.208 180.793 180.307C181.209 180.405 181.59 180.568 181.935 180.795C182.279 181.019 182.556 181.324 182.764 181.71C182.976 182.097 183.082 182.58 183.082 183.159V189H181.105V187.801H181.037C180.912 188.044 180.736 188.271 180.509 188.483C180.285 188.691 180.003 188.86 179.662 188.989C179.325 189.114 178.929 189.176 178.474 189.176ZM179.009 187.665C179.421 187.665 179.779 187.583 180.082 187.42C180.385 187.254 180.618 187.034 180.781 186.761C180.948 186.489 181.031 186.191 181.031 185.869V184.841C180.967 184.894 180.857 184.943 180.702 184.989C180.55 185.034 180.38 185.074 180.19 185.108C180.001 185.142 179.813 185.172 179.628 185.199C179.442 185.225 179.281 185.248 179.145 185.267C178.838 185.309 178.563 185.377 178.321 185.472C178.079 185.566 177.887 185.699 177.747 185.869C177.607 186.036 177.537 186.252 177.537 186.517C177.537 186.896 177.675 187.182 177.952 187.375C178.228 187.568 178.58 187.665 179.009 187.665ZM190.173 186.608L192.764 180.273H194.423L190.895 189H189.457L186.009 180.273H187.651L190.173 186.608ZM187.134 180.273V189H185.151V180.273H187.134ZM193.298 189V180.273H195.264V189H193.298ZM199.321 186.216L202.815 180.273H204.929V189H202.94V183.051L199.457 189H197.338V180.273H199.321V186.216ZM209.007 185.58V185.432C209.011 184.746 209.075 184.201 209.2 183.795C209.329 183.39 209.511 183.064 209.746 182.818C209.981 182.568 210.267 182.339 210.604 182.131C210.835 181.987 211.041 181.83 211.223 181.659C211.409 181.485 211.554 181.292 211.661 181.08C211.767 180.864 211.82 180.623 211.82 180.358C211.82 180.059 211.75 179.799 211.609 179.58C211.469 179.36 211.28 179.189 211.041 179.068C210.806 178.947 210.543 178.886 210.251 178.886C209.982 178.886 209.727 178.945 209.484 179.062C209.246 179.176 209.047 179.35 208.888 179.585C208.732 179.816 208.645 180.11 208.626 180.466H206.604C206.623 179.746 206.797 179.144 207.126 178.659C207.46 178.174 207.899 177.811 208.445 177.568C208.994 177.326 209.6 177.205 210.263 177.205C210.986 177.205 211.623 177.331 212.172 177.585C212.725 177.839 213.155 178.201 213.462 178.67C213.772 179.136 213.928 179.689 213.928 180.33C213.928 180.761 213.857 181.148 213.717 181.489C213.581 181.83 213.386 182.133 213.132 182.398C212.878 182.663 212.577 182.9 212.229 183.108C211.922 183.297 211.67 183.494 211.473 183.699C211.28 183.903 211.136 184.144 211.041 184.42C210.95 184.693 210.903 185.03 210.899 185.432V185.58H209.007ZM209.996 189.125C209.655 189.125 209.361 189.004 209.115 188.761C208.869 188.519 208.746 188.223 208.746 187.875C208.746 187.534 208.869 187.242 209.115 187C209.361 186.758 209.655 186.636 209.996 186.636C210.333 186.636 210.625 186.758 210.871 187C211.121 187.242 211.246 187.534 211.246 187.875C211.246 188.106 211.187 188.316 211.07 188.506C210.956 188.695 210.804 188.847 210.615 188.96C210.429 189.07 210.223 189.125 209.996 189.125Z" fill="#F6F1F1"/>
</svg>
