<svg width="273" height="258" viewBox="0 0 273 258" fill="none" xmlns="http://www.w3.org/2000/svg">
<path fill-rule="evenodd" clip-rule="evenodd" d="M125.473 227.927C106.103 227.927 94.884 225.085 84.9052 219.749C74.9264 214.412 67.0949 206.58 61.7582 196.602C56.4215 186.623 53.5794 175.404 53.5794 156.034V141.634C53.5794 122.264 56.4215 111.045 61.7582 101.066C67.0949 91.0874 74.9264 83.256 84.9052 77.9193C94.884 72.5825 106.103 69.7405 125.473 69.7405H201.107C220.476 69.7405 231.695 72.5825 241.674 77.9193C251.653 83.256 259.485 91.0874 264.821 101.066C270.158 111.045 273 122.264 273 141.634V156.034C273 175.404 270.158 186.623 264.821 196.602C259.485 206.58 251.653 214.412 241.674 219.749C231.695 225.085 220.476 227.927 201.107 227.927H145.505V257.892L112.262 227.927H125.473Z" fill="#00B578"/>
<path d="M84.1963 21.2638C89.8327 21.2638 94.4019 16.6946 94.4019 11.0582C94.4019 5.42181 89.8327 0.8526 84.1963 0.8526C78.5599 0.8526 73.9907 5.42181 73.9907 11.0582C73.9907 16.6946 78.5599 21.2638 84.1963 21.2638Z" fill="#00B578"/>
<path d="M132.673 54.4321C135.491 54.4321 137.776 52.1475 137.776 49.3293C137.776 46.5111 135.491 44.2265 132.673 44.2265C129.855 44.2265 127.57 46.5111 127.57 49.3293C127.57 52.1475 129.855 54.4321 132.673 54.4321Z" fill="#00B578"/>
<path d="M19.1355 82.4975C29.7038 82.4975 38.271 73.9302 38.271 63.362C38.271 52.7937 29.7038 44.2265 19.1355 44.2265C8.56726 44.2265 0 52.7937 0 63.362C0 73.9302 8.56726 82.4975 19.1355 82.4975Z" fill="#919191"/>
<path d="M93.006 95.7729V113.227H89.8696V98.3979H82.2333V113.227H79.0969V95.7729H93.006ZM96.6516 118.137V100.137H99.6857V102.301H99.8647C100.024 101.983 100.248 101.645 100.538 101.287C100.828 100.923 101.22 100.614 101.714 100.358C102.208 100.097 102.839 99.9661 103.606 99.9661C104.618 99.9661 105.529 100.225 106.342 100.742C107.16 101.253 107.808 102.012 108.285 103.017C108.768 104.017 109.01 105.244 109.01 106.699C109.01 108.137 108.774 109.358 108.302 110.364C107.831 111.369 107.189 112.137 106.376 112.665C105.564 113.193 104.643 113.458 103.615 113.458C102.865 113.458 102.243 113.333 101.748 113.083C101.254 112.833 100.856 112.531 100.555 112.179C100.26 111.821 100.029 111.483 99.8647 111.165H99.7368V118.137H96.6516ZM99.6772 106.682C99.6772 107.529 99.7965 108.27 100.035 108.906C100.279 109.543 100.629 110.04 101.083 110.398C101.544 110.75 102.1 110.926 102.754 110.926C103.436 110.926 104.007 110.744 104.467 110.381C104.927 110.012 105.274 109.509 105.507 108.872C105.745 108.23 105.865 107.5 105.865 106.682C105.865 105.869 105.748 105.148 105.515 104.517C105.282 103.887 104.936 103.392 104.475 103.034C104.015 102.676 103.441 102.497 102.754 102.497C102.095 102.497 101.535 102.671 101.075 103.017C100.615 103.364 100.265 103.85 100.027 104.475C99.7936 105.1 99.6772 105.835 99.6772 106.682ZM114.626 109.051L119.868 100.137H123.038V113.227H120.055V104.304L114.831 113.227H111.652V100.137H114.626V109.051ZM126.206 113.227V100.137H131.703C133.255 100.137 134.479 100.446 135.377 101.065C136.28 101.685 136.732 102.548 136.732 103.656C136.732 104.389 136.476 104.989 135.965 105.455C135.459 105.915 134.769 106.225 133.894 106.384C134.581 106.44 135.184 106.614 135.701 106.904C136.223 107.193 136.632 107.574 136.928 108.046C137.223 108.517 137.371 109.06 137.371 109.673C137.371 110.395 137.181 111.023 136.8 111.557C136.425 112.085 135.877 112.497 135.155 112.793C134.439 113.083 133.57 113.227 132.547 113.227H126.206ZM129.095 110.798H132.547C133.115 110.798 133.561 110.665 133.885 110.398C134.209 110.125 134.371 109.756 134.371 109.29C134.371 108.75 134.209 108.327 133.885 108.02C133.561 107.708 133.115 107.551 132.547 107.551H129.095V110.798ZM129.095 105.557H131.763C132.184 105.557 132.544 105.497 132.845 105.378C133.147 105.253 133.377 105.08 133.536 104.858C133.695 104.631 133.774 104.361 133.774 104.048C133.774 103.6 133.59 103.247 133.22 102.992C132.857 102.736 132.351 102.608 131.703 102.608H129.095V105.557ZM139.917 113.227V100.137H143.002V113.227H139.917ZM141.468 98.2786C140.98 98.2786 140.559 98.1166 140.207 97.7928C139.855 97.4632 139.679 97.0683 139.679 96.6081C139.679 96.1422 139.855 95.7473 140.207 95.4234C140.559 95.0939 140.98 94.9291 141.468 94.9291C141.963 94.9291 142.383 95.0939 142.73 95.4234C143.082 95.7473 143.258 96.1422 143.258 96.6081C143.258 97.0683 143.082 97.4632 142.73 97.7928C142.383 98.1166 141.963 98.2786 141.468 98.2786ZM145.459 102.668V100.137H156.914V102.668H152.678V113.227H149.695V102.668H145.459ZM161.071 110.841L160.96 111.779C160.88 112.494 160.738 113.222 160.534 113.96C160.335 114.705 160.125 115.389 159.903 116.014C159.681 116.639 159.502 117.131 159.366 117.489H157.287C157.366 117.142 157.474 116.671 157.61 116.074C157.752 115.477 157.889 114.807 158.02 114.063C158.15 113.318 158.238 112.563 158.284 111.796L158.343 110.841H161.071ZM168.782 117.029V110.688H169.821C170.1 110.472 170.333 110.179 170.52 109.81C170.708 109.435 170.861 108.994 170.98 108.489C171.105 107.977 171.208 107.406 171.287 106.776C171.367 106.139 171.438 105.455 171.5 104.722L171.875 100.137H181.336V110.688H183.364V117.029H180.381V113.227H171.816V117.029H168.782ZM172.992 110.688H178.387V102.625H174.551L174.347 104.722C174.233 106.108 174.083 107.296 173.895 108.284C173.708 109.273 173.407 110.074 172.992 110.688ZM185.667 118.137V100.137H188.701V102.301H188.88C189.039 101.983 189.264 101.645 189.554 101.287C189.843 100.923 190.235 100.614 190.73 100.358C191.224 100.097 191.855 99.9661 192.622 99.9661C193.633 99.9661 194.545 100.225 195.358 100.742C196.176 101.253 196.823 102.012 197.301 103.017C197.784 104.017 198.025 105.244 198.025 106.699C198.025 108.137 197.789 109.358 197.318 110.364C196.846 111.369 196.204 112.137 195.392 112.665C194.579 113.193 193.659 113.458 192.63 113.458C191.88 113.458 191.258 113.333 190.764 113.083C190.27 112.833 189.872 112.531 189.571 112.179C189.275 111.821 189.045 111.483 188.88 111.165H188.752V118.137H185.667ZM188.693 106.682C188.693 107.529 188.812 108.27 189.051 108.906C189.295 109.543 189.645 110.04 190.099 110.398C190.559 110.75 191.116 110.926 191.77 110.926C192.451 110.926 193.022 110.744 193.483 110.381C193.943 110.012 194.289 109.509 194.522 108.872C194.761 108.23 194.88 107.5 194.88 106.682C194.88 105.869 194.764 105.148 194.531 104.517C194.298 103.887 193.951 103.392 193.491 103.034C193.031 102.676 192.457 102.497 191.77 102.497C191.11 102.497 190.551 102.671 190.091 103.017C189.63 103.364 189.281 103.85 189.042 104.475C188.809 105.1 188.693 105.835 188.693 106.682ZM202.14 118.137C201.719 118.137 201.33 118.102 200.972 118.034C200.62 117.972 200.338 117.898 200.128 117.813L200.844 115.409C201.293 115.54 201.694 115.602 202.046 115.597C202.398 115.591 202.708 115.48 202.975 115.264C203.247 115.054 203.478 114.702 203.665 114.208L203.929 113.5L199.182 100.137H202.455L205.472 110.023H205.608L208.634 100.137H211.915L206.674 114.813C206.429 115.506 206.105 116.1 205.702 116.594C205.299 117.094 204.804 117.475 204.219 117.736C203.64 118.003 202.946 118.137 202.14 118.137ZM213.198 113.227L218.03 106.469L213.24 100.137H216.803L220.527 105.412H221.26V100.137H224.345V105.412H225.061L228.786 100.137H232.348L227.584 106.469L232.391 113.227H228.752L225.027 107.943H224.345V113.227H221.26V107.943H220.578L216.837 113.227H213.198ZM240.002 113.483C238.689 113.483 237.556 113.21 236.601 112.665C235.652 112.114 234.922 111.335 234.411 110.33C233.899 109.318 233.644 108.128 233.644 106.759C233.644 105.412 233.899 104.23 234.411 103.213C234.928 102.19 235.649 101.395 236.576 100.827C237.502 100.253 238.59 99.9661 239.84 99.9661C240.647 99.9661 241.408 100.097 242.124 100.358C242.845 100.614 243.482 101.012 244.033 101.551C244.59 102.091 245.027 102.779 245.345 103.614C245.664 104.443 245.823 105.432 245.823 106.58V107.526H235.093V105.446H242.865C242.86 104.855 242.732 104.33 242.482 103.869C242.232 103.404 241.882 103.037 241.434 102.77C240.99 102.503 240.473 102.369 239.882 102.369C239.252 102.369 238.698 102.523 238.22 102.83C237.743 103.131 237.371 103.529 237.104 104.023C236.843 104.512 236.709 105.048 236.703 105.634V107.449C236.703 108.21 236.843 108.864 237.121 109.409C237.399 109.949 237.789 110.364 238.289 110.654C238.789 110.938 239.374 111.08 240.044 111.08C240.493 111.08 240.899 111.017 241.263 110.892C241.627 110.762 241.942 110.571 242.209 110.321C242.476 110.071 242.678 109.762 242.814 109.392L245.695 109.716C245.513 110.477 245.167 111.142 244.655 111.71C244.149 112.273 243.502 112.71 242.712 113.023C241.922 113.33 241.019 113.483 240.002 113.483ZM252.208 95.7729L251.927 108.097H249.183L248.91 95.7729H252.208ZM250.555 113.415C250.038 113.415 249.595 113.233 249.225 112.869C248.862 112.506 248.68 112.063 248.68 111.54C248.68 111.029 248.862 110.591 249.225 110.227C249.595 109.864 250.038 109.682 250.555 109.682C251.061 109.682 251.498 109.864 251.868 110.227C252.243 110.591 252.43 111.029 252.43 111.54C252.43 111.887 252.342 112.202 252.166 112.486C251.995 112.77 251.768 112.997 251.484 113.168C251.206 113.333 250.896 113.415 250.555 113.415Z" fill="white"/>
<path d="M79.2844 125.92H82.3782V131.613C82.3782 132.352 82.506 132.937 82.7617 133.369C83.0231 133.801 83.4094 134.11 83.9208 134.298C84.4321 134.485 85.0685 134.579 85.8299 134.579C86.1708 134.579 86.5373 134.568 86.9293 134.545C87.327 134.517 87.7276 134.48 88.131 134.434C88.5344 134.383 88.9208 134.323 89.2901 134.255C89.6594 134.181 89.989 134.102 90.2787 134.017V136.591C89.989 136.681 89.6651 136.764 89.3071 136.838C88.9492 136.912 88.5713 136.974 88.1736 137.025C87.7759 137.076 87.3782 137.116 86.9804 137.145C86.5827 137.173 86.1992 137.187 85.8299 137.187C84.4946 137.187 83.3356 136.997 82.3526 136.616C81.3753 136.23 80.6196 135.627 80.0856 134.809C79.5515 133.991 79.2844 132.926 79.2844 131.613V125.92ZM89.7588 125.92H92.8696V143.375H89.7588V125.92ZM102.292 143.63C101.013 143.63 99.9052 143.349 98.9677 142.787C98.0302 142.224 97.3029 141.437 96.7858 140.426C96.2745 139.414 96.0188 138.233 96.0188 136.88C96.0188 135.528 96.2745 134.343 96.7858 133.326C97.3029 132.309 98.0302 131.52 98.9677 130.957C99.9052 130.395 101.013 130.113 102.292 130.113C103.57 130.113 104.678 130.395 105.615 130.957C106.553 131.52 107.277 132.309 107.789 133.326C108.306 134.343 108.564 135.528 108.564 136.88C108.564 138.233 108.306 139.414 107.789 140.426C107.277 141.437 106.553 142.224 105.615 142.787C104.678 143.349 103.57 143.63 102.292 143.63ZM102.309 141.159C103.002 141.159 103.581 140.968 104.047 140.588C104.513 140.201 104.86 139.684 105.087 139.037C105.32 138.389 105.436 137.667 105.436 136.872C105.436 136.071 105.32 135.346 105.087 134.698C104.86 134.045 104.513 133.525 104.047 133.139C103.581 132.752 103.002 132.559 102.309 132.559C101.598 132.559 101.007 132.752 100.536 133.139C100.07 133.525 99.7205 134.045 99.4875 134.698C99.2603 135.346 99.1466 136.071 99.1466 136.872C99.1466 137.667 99.2603 138.389 99.4875 139.037C99.7205 139.684 100.07 140.201 100.536 140.588C101.007 140.968 101.598 141.159 102.309 141.159ZM118.717 139.787L122.603 130.284H125.092L119.799 143.375H117.643L112.47 130.284H114.933L118.717 139.787ZM114.157 130.284V143.375H111.183V130.284H114.157ZM123.404 143.375V130.284H126.353V143.375H123.404ZM130.913 148.284C130.493 148.284 130.103 148.25 129.745 148.181C129.393 148.119 129.112 148.045 128.902 147.96L129.618 145.556C130.066 145.687 130.467 145.75 130.819 145.744C131.171 145.738 131.481 145.627 131.748 145.412C132.021 145.201 132.251 144.849 132.439 144.355L132.703 143.647L127.956 130.284H131.228L134.245 140.17H134.382L137.407 130.284H140.689L135.447 144.96C135.203 145.653 134.879 146.247 134.475 146.741C134.072 147.241 133.578 147.622 132.993 147.883C132.413 148.15 131.72 148.284 130.913 148.284ZM148.061 132.815V130.284H159.515V132.815H155.279V143.375H152.296V132.815H148.061ZM164.946 139.198L170.188 130.284H173.358V143.375H170.375V134.451L165.151 143.375H161.972V130.284H164.946V139.198ZM84.3384 172.63C83.0316 172.63 81.9094 172.343 80.9719 171.77C80.0401 171.196 79.3213 170.403 78.8157 169.392C78.3157 168.375 78.0657 167.204 78.0657 165.88C78.0657 164.551 78.3213 163.377 78.8327 162.36C79.3441 161.338 80.0657 160.542 80.9975 159.974C81.935 159.4 83.0429 159.113 84.3213 159.113C85.3838 159.113 86.3242 159.309 87.1424 159.701C87.9662 160.088 88.6225 160.636 89.1111 161.346C89.5998 162.051 89.8782 162.875 89.9463 163.818H86.9975C86.8782 163.187 86.5941 162.662 86.1452 162.241C85.702 161.815 85.1083 161.602 84.364 161.602C83.7333 161.602 83.1793 161.772 82.702 162.113C82.2248 162.448 81.8526 162.931 81.5856 163.562C81.3242 164.193 81.1935 164.948 81.1935 165.829C81.1935 166.721 81.3242 167.488 81.5856 168.13C81.8469 168.767 82.2134 169.258 82.685 169.605C83.1623 169.946 83.7219 170.116 84.364 170.116C84.8185 170.116 85.2248 170.031 85.5827 169.86C85.9463 169.684 86.2503 169.431 86.4946 169.102C86.739 168.772 86.9066 168.372 86.9975 167.9H89.9463C89.8725 168.826 89.5998 169.647 89.1282 170.363C88.6566 171.073 88.0145 171.63 87.202 172.034C86.3895 172.431 85.435 172.63 84.3384 172.63ZM94.5678 163.545H98.4286C100.099 163.545 101.392 163.951 102.306 164.764C103.221 165.576 103.681 166.642 103.687 167.96C103.681 168.818 103.471 169.579 103.056 170.244C102.647 170.909 102.051 171.431 101.267 171.812C100.488 172.187 99.5422 172.375 98.4286 172.375H92.4797V159.284H95.4542V169.843H98.4286C99.099 169.843 99.6502 169.673 100.082 169.332C100.514 168.985 100.73 168.542 100.73 168.002C100.73 167.434 100.514 166.971 100.082 166.613C99.6502 166.255 99.099 166.076 98.4286 166.076H94.5678V163.545ZM112.042 172.63C110.763 172.63 109.655 172.349 108.718 171.787C107.78 171.224 107.053 170.437 106.536 169.426C106.024 168.414 105.769 167.233 105.769 165.88C105.769 164.528 106.024 163.343 106.536 162.326C107.053 161.309 107.78 160.52 108.718 159.957C109.655 159.395 110.763 159.113 112.042 159.113C113.32 159.113 114.428 159.395 115.365 159.957C116.303 160.52 117.027 161.309 117.539 162.326C118.056 163.343 118.314 164.528 118.314 165.88C118.314 167.233 118.056 168.414 117.539 169.426C117.027 170.437 116.303 171.224 115.365 171.787C114.428 172.349 113.32 172.63 112.042 172.63ZM112.059 170.159C112.752 170.159 113.331 169.968 113.797 169.588C114.263 169.201 114.61 168.684 114.837 168.037C115.07 167.389 115.186 166.667 115.186 165.872C115.186 165.071 115.07 164.346 114.837 163.698C114.61 163.045 114.263 162.525 113.797 162.139C113.331 161.752 112.752 161.559 112.059 161.559C111.348 161.559 110.757 161.752 110.286 162.139C109.82 162.525 109.47 163.045 109.238 163.698C109.01 164.346 108.897 165.071 108.897 165.872C108.897 166.667 109.01 167.389 109.238 168.037C109.47 168.684 109.82 169.201 110.286 169.588C110.757 169.968 111.348 170.159 112.059 170.159ZM129.592 159.284V161.815H123.95V172.375H120.933V159.284H129.592ZM137.237 172.63C135.958 172.63 134.85 172.349 133.913 171.787C132.975 171.224 132.248 170.437 131.731 169.426C131.22 168.414 130.964 167.233 130.964 165.88C130.964 164.528 131.22 163.343 131.731 162.326C132.248 161.309 132.975 160.52 133.913 159.957C134.85 159.395 135.958 159.113 137.237 159.113C138.515 159.113 139.623 159.395 140.561 159.957C141.498 160.52 142.223 161.309 142.734 162.326C143.251 163.343 143.51 164.528 143.51 165.88C143.51 167.233 143.251 168.414 142.734 169.426C142.223 170.437 141.498 171.224 140.561 171.787C139.623 172.349 138.515 172.63 137.237 172.63ZM137.254 170.159C137.947 170.159 138.527 169.968 138.993 169.588C139.458 169.201 139.805 168.684 140.032 168.037C140.265 167.389 140.382 166.667 140.382 165.872C140.382 165.071 140.265 164.346 140.032 163.698C139.805 163.045 139.458 162.525 138.993 162.139C138.527 161.752 137.947 161.559 137.254 161.559C136.544 161.559 135.953 161.752 135.481 162.139C135.015 162.525 134.666 163.045 134.433 163.698C134.206 164.346 134.092 165.071 134.092 165.872C134.092 166.667 134.206 167.389 134.433 168.037C134.666 168.684 135.015 169.201 135.481 169.588C135.953 169.968 136.544 170.159 137.254 170.159ZM144.969 176.176V169.835H146.009C146.287 169.619 146.52 169.326 146.708 168.957C146.895 168.582 147.049 168.142 147.168 167.636C147.293 167.125 147.395 166.554 147.475 165.923C147.554 165.287 147.625 164.602 147.688 163.869L148.063 159.284H157.523V169.835H159.551V176.176H156.569V172.375H148.003V176.176H144.969ZM149.179 169.835H154.574V161.772H150.739L150.534 163.869C150.421 165.255 150.27 166.443 150.083 167.431C149.895 168.42 149.594 169.221 149.179 169.835ZM170.846 164.551V167.082H163.875V164.551H170.846ZM164.829 159.284V172.375H161.855V159.284H164.829ZM172.866 159.284V172.375H169.9V159.284H172.866ZM175.988 172.375V159.284H179.073V172.375H175.988ZM177.539 157.426C177.05 157.426 176.63 157.264 176.277 156.94C175.925 156.61 175.749 156.216 175.749 155.755C175.749 155.289 175.925 154.895 176.277 154.571C176.63 154.241 177.05 154.076 177.539 154.076C178.033 154.076 178.453 154.241 178.8 154.571C179.152 154.895 179.328 155.289 179.328 155.755C179.328 156.216 179.152 156.61 178.8 156.94C178.453 157.264 178.033 157.426 177.539 157.426ZM89.1196 183.443L90.1935 185.437C89.8128 185.767 89.3867 186.005 88.9151 186.153C88.4435 186.301 87.8895 186.397 87.2532 186.443C86.6225 186.483 85.8725 186.511 85.0032 186.528C84.0259 186.551 83.2276 186.735 82.6083 187.082C81.989 187.429 81.5145 187.954 81.185 188.659C80.8554 189.358 80.6395 190.25 80.5373 191.335H80.6821C81.0912 190.534 81.6651 189.923 82.4037 189.502C83.1424 189.082 84.0088 188.872 85.0032 188.872C86.0884 188.872 87.0458 189.116 87.8753 189.605C88.7106 190.088 89.3611 190.789 89.827 191.71C90.2986 192.63 90.5344 193.744 90.5344 195.051C90.5344 196.397 90.2816 197.565 89.7759 198.554C89.2702 199.537 88.5515 200.295 87.6196 200.829C86.6935 201.363 85.5941 201.63 84.3213 201.63C83.0543 201.63 81.952 201.355 81.0145 200.804C80.0827 200.247 79.3611 199.426 78.8498 198.341C78.3441 197.25 78.0912 195.906 78.0912 194.309V193.133C78.0912 190.054 78.6651 187.755 79.8128 186.238C80.9606 184.721 82.6623 183.948 84.9179 183.92C85.5884 183.909 86.1878 183.906 86.7162 183.912C87.2503 183.917 87.7162 183.892 88.114 183.835C88.5117 183.778 88.8469 183.647 89.1196 183.443ZM84.3384 199.159C84.9691 199.159 85.5145 198.997 85.9748 198.673C86.435 198.343 86.7873 197.877 87.0316 197.275C87.2816 196.673 87.4066 195.96 87.4066 195.136C87.4066 194.323 87.2816 193.633 87.0316 193.065C86.7816 192.491 86.4265 192.054 85.9662 191.752C85.506 191.451 84.9577 191.301 84.3213 191.301C83.8441 191.301 83.4151 191.386 83.0344 191.556C82.6537 191.727 82.3299 191.977 82.0628 192.306C81.7958 192.636 81.5912 193.037 81.4492 193.508C81.3071 193.98 81.2304 194.522 81.2191 195.136C81.2191 196.369 81.4975 197.349 82.0543 198.076C82.6111 198.798 83.3725 199.159 84.3384 199.159ZM98.9549 201.63C97.6424 201.63 96.5088 201.358 95.5543 200.812C94.6054 200.261 93.8753 199.483 93.364 198.477C92.8526 197.466 92.5969 196.275 92.5969 194.906C92.5969 193.559 92.8526 192.377 93.364 191.36C93.881 190.338 94.6026 189.542 95.5287 188.974C96.4549 188.4 97.5429 188.113 98.7929 188.113C99.5998 188.113 100.361 188.244 101.077 188.505C101.799 188.761 102.435 189.159 102.986 189.698C103.543 190.238 103.98 190.926 104.299 191.761C104.617 192.591 104.776 193.579 104.776 194.727V195.673H94.0458V193.593H101.819C101.813 193.002 101.685 192.477 101.435 192.017C101.185 191.551 100.836 191.184 100.387 190.917C99.9435 190.65 99.4265 190.517 98.8356 190.517C98.2049 190.517 97.6509 190.67 97.1736 190.977C96.6963 191.278 96.3242 191.676 96.0571 192.17C95.7958 192.659 95.6623 193.196 95.6566 193.781V195.596C95.6566 196.358 95.7958 197.011 96.0742 197.556C96.3526 198.096 96.7418 198.511 97.2418 198.801C97.7418 199.085 98.327 199.227 98.9975 199.227C99.4463 199.227 99.8526 199.164 100.216 199.039C100.58 198.909 100.895 198.718 101.162 198.468C101.429 198.218 101.631 197.909 101.767 197.539L104.648 197.863C104.466 198.625 104.12 199.289 103.608 199.858C103.103 200.42 102.455 200.858 101.665 201.17C100.875 201.477 99.9719 201.63 98.9549 201.63ZM106.662 197.787H109.721C109.75 198.275 109.968 198.653 110.377 198.92C110.787 199.187 111.318 199.321 111.971 199.321C112.636 199.321 113.196 199.176 113.65 198.886C114.11 198.591 114.341 198.145 114.341 197.548C114.341 197.196 114.252 196.886 114.076 196.619C113.9 196.346 113.653 196.136 113.335 195.988C113.017 195.841 112.642 195.767 112.21 195.767H110.207V193.576H112.21C112.852 193.576 113.338 193.429 113.667 193.133C114.002 192.838 114.17 192.466 114.17 192.017C114.17 191.534 113.994 191.142 113.642 190.841C113.295 190.539 112.815 190.389 112.201 190.389C111.588 190.389 111.076 190.528 110.667 190.806C110.264 191.085 110.054 191.443 110.037 191.88H106.994C107.005 191.119 107.233 190.457 107.676 189.895C108.125 189.332 108.727 188.895 109.483 188.582C110.244 188.27 111.102 188.113 112.056 188.113C113.079 188.113 113.963 188.267 114.707 188.573C115.451 188.88 116.025 189.309 116.429 189.86C116.832 190.406 117.034 191.048 117.034 191.787C117.034 192.497 116.812 193.085 116.369 193.551C115.926 194.011 115.329 194.341 114.579 194.539V194.676C115.096 194.704 115.562 194.852 115.977 195.119C116.392 195.38 116.721 195.735 116.966 196.184C117.21 196.633 117.332 197.153 117.332 197.744C117.332 198.545 117.102 199.238 116.642 199.823C116.181 200.403 115.548 200.849 114.741 201.162C113.94 201.474 113.022 201.63 111.988 201.63C110.983 201.63 110.082 201.48 109.287 201.179C108.497 200.872 107.869 200.431 107.403 199.858C106.937 199.284 106.69 198.593 106.662 197.787ZM124.555 205.176V198.835H125.595C125.873 198.619 126.106 198.326 126.294 197.957C126.481 197.582 126.635 197.142 126.754 196.636C126.879 196.125 126.981 195.554 127.061 194.923C127.14 194.287 127.211 193.602 127.274 192.869L127.649 188.284H137.109V198.835H139.137V205.176H136.154V201.375H127.589V205.176H124.555ZM128.765 198.835H134.16V190.772H130.325L130.12 192.869C130.007 194.255 129.856 195.443 129.669 196.431C129.481 197.42 129.18 198.221 128.765 198.835ZM147.151 201.63C145.872 201.63 144.765 201.349 143.827 200.787C142.89 200.224 142.162 199.437 141.645 198.426C141.134 197.414 140.878 196.233 140.878 194.88C140.878 193.528 141.134 192.343 141.645 191.326C142.162 190.309 142.89 189.52 143.827 188.957C144.765 188.395 145.872 188.113 147.151 188.113C148.429 188.113 149.537 188.395 150.475 188.957C151.412 189.52 152.137 190.309 152.648 191.326C153.165 192.343 153.424 193.528 153.424 194.88C153.424 196.233 153.165 197.414 152.648 198.426C152.137 199.437 151.412 200.224 150.475 200.787C149.537 201.349 148.429 201.63 147.151 201.63ZM147.168 199.159C147.861 199.159 148.441 198.968 148.907 198.588C149.372 198.201 149.719 197.684 149.946 197.037C150.179 196.389 150.296 195.667 150.296 194.872C150.296 194.071 150.179 193.346 149.946 192.698C149.719 192.045 149.372 191.525 148.907 191.139C148.441 190.752 147.861 190.559 147.168 190.559C146.458 190.559 145.867 190.752 145.395 191.139C144.929 191.525 144.58 192.045 144.347 192.698C144.12 193.346 144.006 194.071 144.006 194.872C144.006 195.667 144.12 196.389 144.347 197.037C144.58 197.684 144.929 198.201 145.395 198.588C145.867 198.968 146.458 199.159 147.168 199.159ZM156.042 188.284H159.017V198.835H163.133V188.284H166.108V198.835H170.224V188.284H173.198V201.375H156.042V188.284ZM176.316 201.375V188.284H179.401V193.568H180.526L184.463 188.284H188.179L183.33 194.71L188.23 201.375H184.497L180.909 196.44H179.401V201.375H176.316ZM192.954 197.198L198.196 188.284H201.366V201.375H198.383V192.451L193.159 201.375H189.98V188.284H192.954V197.198ZM207.483 196.244V196.022C207.489 194.994 207.586 194.176 207.773 193.568C207.966 192.96 208.239 192.471 208.591 192.102C208.944 191.727 209.372 191.383 209.878 191.071C210.225 190.855 210.534 190.619 210.807 190.363C211.086 190.102 211.304 189.812 211.463 189.494C211.622 189.17 211.702 188.809 211.702 188.412C211.702 187.963 211.597 187.573 211.387 187.244C211.176 186.914 210.892 186.659 210.534 186.477C210.182 186.295 209.787 186.204 209.35 186.204C208.946 186.204 208.563 186.292 208.199 186.468C207.841 186.639 207.543 186.9 207.304 187.252C207.071 187.599 206.941 188.039 206.912 188.573H203.878C203.907 187.494 204.168 186.591 204.662 185.863C205.162 185.136 205.821 184.591 206.64 184.227C207.463 183.863 208.372 183.681 209.367 183.681C210.452 183.681 211.407 183.872 212.23 184.252C213.06 184.633 213.705 185.176 214.165 185.88C214.631 186.579 214.864 187.409 214.864 188.369C214.864 189.017 214.759 189.596 214.549 190.108C214.344 190.619 214.051 191.073 213.671 191.471C213.29 191.869 212.838 192.224 212.316 192.537C211.855 192.821 211.478 193.116 211.182 193.423C210.892 193.73 210.676 194.091 210.534 194.505C210.398 194.914 210.327 195.42 210.321 196.022V196.244H207.483ZM208.966 201.562C208.455 201.562 208.015 201.38 207.645 201.017C207.276 200.653 207.091 200.21 207.091 199.687C207.091 199.176 207.276 198.738 207.645 198.375C208.015 198.011 208.455 197.829 208.966 197.829C209.472 197.829 209.909 198.011 210.279 198.375C210.654 198.738 210.841 199.176 210.841 199.687C210.841 200.034 210.753 200.349 210.577 200.633C210.407 200.917 210.179 201.145 209.895 201.315C209.617 201.48 209.307 201.562 208.966 201.562Z" fill="white"/>
</svg>
