<svg width="273" height="261" viewBox="0 0 273 261" fill="none" xmlns="http://www.w3.org/2000/svg">
<path fill-rule="evenodd" clip-rule="evenodd" d="M125.473 228.804C106.103 228.804 94.884 225.951 84.9052 220.593C74.9264 215.236 67.0949 207.374 61.7582 197.357C56.4215 187.34 53.5794 176.077 53.5794 156.633V142.177C53.5794 122.733 56.4215 111.47 61.7582 101.453C67.0949 91.4356 74.9264 83.574 84.9052 78.2167C94.884 72.8593 106.103 70.0063 125.473 70.0063H201.107C220.476 70.0063 231.695 72.8593 241.674 78.2167C251.653 83.574 259.485 91.4356 264.821 101.453C270.158 111.47 273 122.733 273 142.177V156.633C273 176.077 270.158 187.34 264.821 197.357C259.485 207.374 251.653 215.236 241.674 220.593C231.695 225.951 220.476 228.804 201.107 228.804H145.505L107.5 261L112.262 228.804H125.473Z" fill="#00B578"/>
<path d="M84.1963 21.3426C89.8327 21.3426 94.4019 16.7557 94.4019 11.0976C94.4019 5.43944 89.8327 0.8526 84.1963 0.8526C78.5599 0.8526 73.9907 5.43944 73.9907 11.0976C73.9907 16.7557 78.5599 21.3426 84.1963 21.3426Z" fill="#00B578"/>
<path d="M132.673 54.6388C135.491 54.6388 137.776 52.3454 137.776 49.5163C137.776 46.6872 135.491 44.3938 132.673 44.3938C129.855 44.3938 127.57 46.6872 127.57 49.5163C127.57 52.3454 129.855 54.6388 132.673 54.6388Z" fill="#00B578"/>
<path d="M19.1355 82.8125C29.7038 82.8125 38.271 74.2122 38.271 63.6032C38.271 52.9942 29.7038 44.3938 19.1355 44.3938C8.56726 44.3938 0 52.9942 0 63.6032C0 74.2122 8.56726 82.8125 19.1355 82.8125Z" fill="#919191"/>
<path d="M91.8153 118.239C90.5881 118.239 89.4972 118.028 88.5426 117.608C87.5938 117.187 86.8438 116.602 86.2926 115.852C85.7415 115.102 85.4489 114.236 85.4148 113.253H88.6193C88.6477 113.724 88.804 114.136 89.0881 114.489C89.3722 114.835 89.75 115.105 90.2216 115.298C90.6932 115.491 91.2216 115.588 91.8068 115.588C92.4318 115.588 92.9858 115.48 93.4688 115.264C93.9517 115.043 94.3295 114.736 94.6023 114.344C94.875 113.952 95.0085 113.5 95.0028 112.989C95.0085 112.46 94.8722 111.994 94.5938 111.591C94.3153 111.187 93.9119 110.872 93.3835 110.645C92.8608 110.418 92.2301 110.304 91.4915 110.304H89.9489V107.866H91.4915C92.0994 107.866 92.6307 107.761 93.0852 107.551C93.5455 107.341 93.9063 107.045 94.1676 106.665C94.429 106.278 94.5568 105.832 94.5511 105.327C94.5568 104.832 94.446 104.403 94.2188 104.04C93.9972 103.67 93.6818 103.384 93.2727 103.179C92.8693 102.974 92.3949 102.872 91.8494 102.872C91.3153 102.872 90.821 102.969 90.3665 103.162C89.9119 103.355 89.5455 103.631 89.267 103.989C88.9886 104.341 88.8409 104.761 88.8239 105.25H85.7812C85.804 104.273 86.0852 103.415 86.625 102.676C87.1705 101.932 87.8977 101.352 88.8068 100.938C89.7159 100.517 90.7358 100.307 91.8665 100.307C93.0313 100.307 94.0426 100.526 94.9006 100.963C95.7642 101.395 96.4318 101.977 96.9034 102.71C97.375 103.443 97.6108 104.253 97.6108 105.139C97.6165 106.122 97.3267 106.946 96.7415 107.611C96.1619 108.276 95.4006 108.71 94.4574 108.915V109.051C95.6847 109.222 96.625 109.676 97.2784 110.415C97.9375 111.148 98.2642 112.06 98.2585 113.151C98.2585 114.128 97.9801 115.003 97.4233 115.776C96.8722 116.543 96.1108 117.145 95.1392 117.582C94.1733 118.02 93.0653 118.239 91.8153 118.239ZM100.315 118L100.298 115.46H100.749C101.09 115.46 101.377 115.384 101.61 115.23C101.843 115.077 102.036 114.821 102.19 114.463C102.343 114.099 102.462 113.611 102.548 112.997C102.633 112.384 102.692 111.619 102.727 110.705L102.957 104.909H112.502V118H109.519V107.44H105.761L105.556 111.659C105.505 112.75 105.383 113.696 105.19 114.497C105.002 115.293 104.735 115.949 104.388 116.466C104.048 116.983 103.619 117.369 103.102 117.625C102.585 117.875 101.974 118 101.269 118H100.315ZM119.376 118.264C118.546 118.264 117.799 118.116 117.134 117.821C116.475 117.52 115.952 117.077 115.566 116.491C115.185 115.906 114.995 115.185 114.995 114.327C114.995 113.588 115.131 112.977 115.404 112.494C115.677 112.011 116.049 111.625 116.521 111.335C116.992 111.045 117.523 110.827 118.114 110.679C118.711 110.526 119.327 110.415 119.964 110.347C120.731 110.267 121.353 110.196 121.83 110.134C122.308 110.065 122.654 109.963 122.87 109.827C123.092 109.685 123.202 109.466 123.202 109.17V109.119C123.202 108.477 123.012 107.98 122.631 107.628C122.251 107.276 121.702 107.099 120.987 107.099C120.231 107.099 119.631 107.264 119.188 107.594C118.751 107.923 118.455 108.312 118.302 108.761L115.421 108.352C115.648 107.557 116.023 106.892 116.546 106.358C117.069 105.818 117.708 105.415 118.464 105.148C119.219 104.875 120.055 104.739 120.969 104.739C121.6 104.739 122.228 104.812 122.853 104.96C123.478 105.108 124.049 105.352 124.566 105.693C125.083 106.028 125.498 106.486 125.81 107.065C126.129 107.645 126.288 108.369 126.288 109.239V118H123.322V116.202H123.219C123.032 116.565 122.768 116.906 122.427 117.224C122.092 117.537 121.668 117.79 121.157 117.983C120.651 118.17 120.058 118.264 119.376 118.264ZM120.177 115.997C120.796 115.997 121.333 115.875 121.788 115.631C122.242 115.381 122.592 115.051 122.836 114.642C123.086 114.233 123.211 113.787 123.211 113.304V111.761C123.114 111.841 122.95 111.915 122.717 111.983C122.489 112.051 122.234 112.111 121.95 112.162C121.665 112.213 121.384 112.259 121.106 112.298C120.827 112.338 120.586 112.372 120.381 112.401C119.921 112.463 119.509 112.565 119.146 112.707C118.782 112.849 118.495 113.048 118.285 113.304C118.075 113.554 117.969 113.878 117.969 114.276C117.969 114.844 118.177 115.273 118.592 115.562C119.006 115.852 119.535 115.997 120.177 115.997ZM136.924 114.412L140.81 104.909H143.299L138.006 118H135.85L130.677 104.909H133.14L136.924 114.412ZM132.364 104.909V118H129.39V104.909H132.364ZM141.612 118V104.909H144.56V118H141.612ZM151.438 118.264C150.609 118.264 149.862 118.116 149.197 117.821C148.538 117.52 148.015 117.077 147.629 116.491C147.248 115.906 147.058 115.185 147.058 114.327C147.058 113.588 147.194 112.977 147.467 112.494C147.739 112.011 148.112 111.625 148.583 111.335C149.055 111.045 149.586 110.827 150.177 110.679C150.773 110.526 151.39 110.415 152.026 110.347C152.793 110.267 153.415 110.196 153.893 110.134C154.37 110.065 154.717 109.963 154.933 109.827C155.154 109.685 155.265 109.466 155.265 109.17V109.119C155.265 108.477 155.075 107.98 154.694 107.628C154.313 107.276 153.765 107.099 153.049 107.099C152.293 107.099 151.694 107.264 151.251 107.594C150.813 107.923 150.518 108.312 150.364 108.761L147.484 108.352C147.711 107.557 148.086 106.892 148.609 106.358C149.131 105.818 149.771 105.415 150.526 105.148C151.282 104.875 152.117 104.739 153.032 104.739C153.663 104.739 154.29 104.812 154.915 104.96C155.54 105.108 156.112 105.352 156.629 105.693C157.146 106.028 157.56 106.486 157.873 107.065C158.191 107.645 158.35 108.369 158.35 109.239V118H155.384V116.202H155.282C155.094 116.565 154.83 116.906 154.489 117.224C154.154 117.537 153.731 117.79 153.219 117.983C152.714 118.17 152.12 118.264 151.438 118.264ZM152.239 115.997C152.859 115.997 153.396 115.875 153.85 115.631C154.305 115.381 154.654 115.051 154.898 114.642C155.148 114.233 155.273 113.787 155.273 113.304V111.761C155.177 111.841 155.012 111.915 154.779 111.983C154.552 112.051 154.296 112.111 154.012 112.162C153.728 112.213 153.447 112.259 153.168 112.298C152.89 112.338 152.648 112.372 152.444 112.401C151.984 112.463 151.572 112.565 151.208 112.707C150.844 112.849 150.558 113.048 150.347 113.304C150.137 113.554 150.032 113.878 150.032 114.276C150.032 114.844 150.239 115.273 150.654 115.562C151.069 115.852 151.597 115.997 152.239 115.997ZM161.452 118V104.909H166.95C168.501 104.909 169.725 105.219 170.623 105.838C171.526 106.457 171.978 107.321 171.978 108.429C171.978 109.162 171.722 109.761 171.211 110.227C170.705 110.687 170.015 110.997 169.14 111.156C169.827 111.213 170.43 111.386 170.947 111.676C171.469 111.966 171.879 112.347 172.174 112.818C172.469 113.29 172.617 113.832 172.617 114.446C172.617 115.168 172.427 115.795 172.046 116.33C171.671 116.858 171.123 117.27 170.401 117.565C169.685 117.855 168.816 118 167.793 118H161.452ZM164.342 115.571H167.793C168.362 115.571 168.808 115.437 169.131 115.17C169.455 114.898 169.617 114.528 169.617 114.062C169.617 113.523 169.455 113.099 169.131 112.793C168.808 112.48 168.362 112.324 167.793 112.324H164.342V115.571ZM164.342 110.33H167.009C167.43 110.33 167.79 110.27 168.092 110.151C168.393 110.026 168.623 109.852 168.782 109.631C168.941 109.403 169.021 109.134 169.021 108.821C169.021 108.372 168.836 108.02 168.467 107.764C168.103 107.509 167.597 107.381 166.95 107.381H164.342V110.33ZM180.392 114.412H183.452C183.48 114.901 183.699 115.278 184.108 115.545C184.517 115.812 185.048 115.946 185.702 115.946C186.366 115.946 186.926 115.801 187.381 115.511C187.841 115.216 188.071 114.77 188.071 114.173C188.071 113.821 187.983 113.511 187.807 113.244C187.631 112.972 187.384 112.761 187.065 112.614C186.747 112.466 186.372 112.392 185.94 112.392H183.938V110.202H185.94C186.582 110.202 187.068 110.054 187.398 109.759C187.733 109.463 187.901 109.091 187.901 108.642C187.901 108.159 187.724 107.767 187.372 107.466C187.026 107.165 186.545 107.014 185.932 107.014C185.318 107.014 184.807 107.153 184.398 107.432C183.994 107.71 183.784 108.068 183.767 108.506H180.724C180.736 107.744 180.963 107.082 181.406 106.52C181.855 105.957 182.457 105.52 183.213 105.207C183.974 104.895 184.832 104.739 185.787 104.739C186.81 104.739 187.693 104.892 188.438 105.199C189.182 105.506 189.756 105.935 190.159 106.486C190.563 107.031 190.764 107.673 190.764 108.412C190.764 109.122 190.543 109.71 190.099 110.176C189.656 110.636 189.06 110.966 188.31 111.165V111.301C188.827 111.33 189.293 111.477 189.707 111.744C190.122 112.006 190.452 112.361 190.696 112.81C190.94 113.259 191.062 113.778 191.062 114.369C191.062 115.17 190.832 115.864 190.372 116.449C189.912 117.028 189.278 117.474 188.472 117.787C187.67 118.099 186.753 118.256 185.719 118.256C184.713 118.256 183.813 118.105 183.017 117.804C182.227 117.497 181.599 117.057 181.134 116.483C180.668 115.909 180.42 115.219 180.392 114.412ZM202.483 110.176V112.707H195.511V110.176H202.483ZM196.466 104.909V118H193.491V104.909H196.466ZM204.503 104.909V118H201.537V104.909H204.503ZM213.335 118.256C212.056 118.256 210.948 117.974 210.011 117.412C209.073 116.849 208.346 116.062 207.829 115.051C207.317 114.04 207.062 112.858 207.062 111.506C207.062 110.153 207.317 108.969 207.829 107.952C208.346 106.935 209.073 106.145 210.011 105.582C210.948 105.02 212.056 104.739 213.335 104.739C214.613 104.739 215.721 105.02 216.658 105.582C217.596 106.145 218.32 106.935 218.832 107.952C219.349 108.969 219.607 110.153 219.607 111.506C219.607 112.858 219.349 114.04 218.832 115.051C218.32 116.062 217.596 116.849 216.658 117.412C215.721 117.974 214.613 118.256 213.335 118.256ZM213.352 115.784C214.045 115.784 214.624 115.594 215.09 115.213C215.556 114.827 215.903 114.31 216.13 113.662C216.363 113.014 216.479 112.293 216.479 111.497C216.479 110.696 216.363 109.972 216.13 109.324C215.903 108.67 215.556 108.151 215.09 107.764C214.624 107.378 214.045 107.185 213.352 107.185C212.641 107.185 212.05 107.378 211.579 107.764C211.113 108.151 210.763 108.67 210.531 109.324C210.303 109.972 210.19 110.696 210.19 111.497C210.19 112.293 210.303 113.014 210.531 113.662C210.763 114.31 211.113 114.827 211.579 115.213C212.05 115.594 212.641 115.784 213.352 115.784ZM222.226 118V104.909H227.723C229.274 104.909 230.499 105.219 231.396 105.838C232.3 106.457 232.751 107.321 232.751 108.429C232.751 109.162 232.496 109.761 231.984 110.227C231.479 110.687 230.788 110.997 229.913 111.156C230.601 111.213 231.203 111.386 231.72 111.676C232.243 111.966 232.652 112.347 232.947 112.818C233.243 113.29 233.391 113.832 233.391 114.446C233.391 115.168 233.2 115.795 232.82 116.33C232.445 116.858 231.896 117.27 231.175 117.565C230.459 117.855 229.589 118 228.567 118H222.226ZM225.115 115.571H228.567C229.135 115.571 229.581 115.437 229.905 115.17C230.229 114.898 230.391 114.528 230.391 114.062C230.391 113.523 230.229 113.099 229.905 112.793C229.581 112.48 229.135 112.324 228.567 112.324H225.115V115.571ZM225.115 110.33H227.783C228.203 110.33 228.564 110.27 228.865 110.151C229.166 110.026 229.396 109.852 229.555 109.631C229.714 109.403 229.794 109.134 229.794 108.821C229.794 108.372 229.609 108.02 229.24 107.764C228.876 107.509 228.371 107.381 227.723 107.381H225.115V110.33ZM239.559 115.614L239.448 116.551C239.369 117.267 239.227 117.994 239.022 118.733C238.823 119.477 238.613 120.162 238.391 120.787C238.17 121.412 237.991 121.903 237.854 122.261H235.775C235.854 121.915 235.962 121.443 236.099 120.847C236.241 120.25 236.377 119.58 236.508 118.835C236.638 118.091 236.727 117.335 236.772 116.568L236.832 115.614H239.559ZM88.5597 142.824L93.8011 133.909H96.9716V147H93.9886V138.077L88.7642 147H85.5852V133.909H88.5597V142.824ZM92.9574 129.409H95.267C95.267 130.403 94.9063 131.21 94.1847 131.83C93.4688 132.443 92.4972 132.75 91.2699 132.75C90.054 132.75 89.0852 132.443 88.3636 131.83C87.6477 131.21 87.2926 130.403 87.2983 129.409H89.5909C89.5909 129.818 89.7159 130.185 89.9659 130.509C90.2216 130.827 90.6562 130.986 91.2699 130.986C91.8722 130.986 92.3011 130.827 92.5568 130.509C92.8182 130.19 92.9517 129.824 92.9574 129.409ZM98.9808 150.801V144.46H100.021C100.299 144.244 100.532 143.952 100.719 143.582C100.907 143.207 101.06 142.767 101.18 142.261C101.305 141.75 101.407 141.179 101.487 140.548C101.566 139.912 101.637 139.227 101.7 138.494L102.075 133.909H111.535V144.46H113.563V150.801H110.58V147H102.015V150.801H98.9808ZM103.191 144.46H108.586V136.398H104.751L104.546 138.494C104.433 139.881 104.282 141.068 104.094 142.057C103.907 143.045 103.606 143.847 103.191 144.46ZM121.662 147.256C120.349 147.256 119.216 146.983 118.261 146.438C117.313 145.886 116.582 145.108 116.071 144.102C115.56 143.091 115.304 141.901 115.304 140.531C115.304 139.185 115.56 138.003 116.071 136.986C116.588 135.963 117.31 135.168 118.236 134.599C119.162 134.026 120.25 133.739 121.5 133.739C122.307 133.739 123.068 133.869 123.784 134.131C124.506 134.386 125.142 134.784 125.693 135.324C126.25 135.864 126.688 136.551 127.006 137.386C127.324 138.216 127.483 139.205 127.483 140.352V141.298H116.753V139.219H124.526C124.52 138.628 124.392 138.102 124.142 137.642C123.892 137.176 123.543 136.81 123.094 136.543C122.651 136.276 122.134 136.142 121.543 136.142C120.912 136.142 120.358 136.295 119.881 136.602C119.403 136.903 119.031 137.301 118.764 137.795C118.503 138.284 118.369 138.821 118.364 139.406V141.222C118.364 141.983 118.503 142.636 118.781 143.182C119.06 143.722 119.449 144.136 119.949 144.426C120.449 144.71 121.034 144.852 121.705 144.852C122.153 144.852 122.56 144.79 122.923 144.665C123.287 144.534 123.602 144.344 123.869 144.094C124.136 143.844 124.338 143.534 124.474 143.165L127.355 143.489C127.173 144.25 126.827 144.915 126.315 145.483C125.81 146.045 125.162 146.483 124.372 146.795C123.582 147.102 122.679 147.256 121.662 147.256ZM137.627 143.412L141.513 133.909H144.002L138.71 147H136.553L131.38 133.909H133.843L137.627 143.412ZM133.067 133.909V147H130.093V133.909H133.067ZM142.315 147V133.909H145.263V147H142.315ZM154.085 147.256C152.806 147.256 151.698 146.974 150.761 146.412C149.823 145.849 149.096 145.062 148.579 144.051C148.067 143.04 147.812 141.858 147.812 140.506C147.812 139.153 148.067 137.969 148.579 136.952C149.096 135.935 149.823 135.145 150.761 134.582C151.698 134.02 152.806 133.739 154.085 133.739C155.363 133.739 156.471 134.02 157.408 134.582C158.346 135.145 159.07 135.935 159.582 136.952C160.099 137.969 160.357 139.153 160.357 140.506C160.357 141.858 160.099 143.04 159.582 144.051C159.07 145.062 158.346 145.849 157.408 146.412C156.471 146.974 155.363 147.256 154.085 147.256ZM154.102 144.784C154.795 144.784 155.374 144.594 155.84 144.213C156.306 143.827 156.653 143.31 156.88 142.662C157.113 142.014 157.229 141.293 157.229 140.497C157.229 139.696 157.113 138.972 156.88 138.324C156.653 137.67 156.306 137.151 155.84 136.764C155.374 136.378 154.795 136.185 154.102 136.185C153.391 136.185 152.8 136.378 152.329 136.764C151.863 137.151 151.513 137.67 151.281 138.324C151.053 138.972 150.94 139.696 150.94 140.497C150.94 141.293 151.053 142.014 151.281 142.662C151.513 143.31 151.863 143.827 152.329 144.213C152.8 144.594 153.391 144.784 154.102 144.784ZM85.5852 176V162.909H88.6705V168.193H89.7955L93.733 162.909H97.4489L92.5994 169.335L97.5 176H93.767L90.179 171.065H88.6705V176H85.5852ZM101.308 180.909C100.887 180.909 100.498 180.875 100.14 180.807C99.7876 180.744 99.5064 180.67 99.2962 180.585L100.012 178.182C100.461 178.313 100.862 178.375 101.214 178.369C101.566 178.364 101.876 178.253 102.143 178.037C102.415 177.827 102.646 177.474 102.833 176.98L103.097 176.273L98.3501 162.909H101.623L104.64 172.795H104.776L107.802 162.909H111.083L105.842 177.585C105.597 178.278 105.273 178.872 104.87 179.366C104.467 179.866 103.972 180.247 103.387 180.509C102.808 180.776 102.114 180.909 101.308 180.909ZM113.218 176V162.909H124.272V176H121.298V165.44H116.167V176H113.218ZM126.541 176L126.524 173.46H126.976C127.317 173.46 127.604 173.384 127.837 173.23C128.07 173.077 128.263 172.821 128.416 172.463C128.57 172.099 128.689 171.611 128.774 170.997C128.859 170.384 128.919 169.619 128.953 168.705L129.183 162.909H138.729V176H135.746V165.44H131.987L131.783 169.659C131.732 170.75 131.609 171.696 131.416 172.497C131.229 173.293 130.962 173.949 130.615 174.466C130.274 174.983 129.845 175.369 129.328 175.625C128.811 175.875 128.2 176 127.496 176H126.541ZM149.574 176V165.415H146.778C146.068 165.415 145.523 165.58 145.142 165.909C144.761 166.239 144.574 166.648 144.58 167.136C144.574 167.625 144.753 168.028 145.116 168.347C145.48 168.665 146 168.824 146.676 168.824H150.545V171.074H146.676C145.631 171.074 144.727 170.909 143.966 170.58C143.205 170.25 142.619 169.784 142.21 169.182C141.801 168.58 141.597 167.875 141.597 167.068C141.597 166.227 141.804 165.497 142.219 164.878C142.639 164.253 143.236 163.77 144.009 163.429C144.787 163.082 145.71 162.909 146.778 162.909H152.463V176H149.574ZM141.119 176L144.776 169.284H147.818L144.153 176H141.119ZM154.104 165.44V162.909H165.558V165.44H161.322V176H158.339V165.44H154.104ZM170.989 171.824L176.231 162.909H179.401V176H176.418V167.077L171.194 176H168.015V162.909H170.989V171.824ZM197.514 168.176V170.707H190.543V168.176H197.514ZM191.497 162.909V176H188.523V162.909H191.497ZM199.534 162.909V176H196.568V162.909H199.534ZM208.366 176.256C207.087 176.256 205.979 175.974 205.042 175.412C204.104 174.849 203.377 174.062 202.86 173.051C202.349 172.04 202.093 170.858 202.093 169.506C202.093 168.153 202.349 166.969 202.86 165.952C203.377 164.935 204.104 164.145 205.042 163.582C205.979 163.02 207.087 162.739 208.366 162.739C209.644 162.739 210.752 163.02 211.69 163.582C212.627 164.145 213.352 164.935 213.863 165.952C214.38 166.969 214.638 168.153 214.638 169.506C214.638 170.858 214.38 172.04 213.863 173.051C213.352 174.062 212.627 174.849 211.69 175.412C210.752 175.974 209.644 176.256 208.366 176.256ZM208.383 173.784C209.076 173.784 209.656 173.594 210.121 173.213C210.587 172.827 210.934 172.31 211.161 171.662C211.394 171.014 211.511 170.293 211.511 169.497C211.511 168.696 211.394 167.972 211.161 167.324C210.934 166.67 210.587 166.151 210.121 165.764C209.656 165.378 209.076 165.185 208.383 165.185C207.673 165.185 207.082 165.378 206.61 165.764C206.144 166.151 205.795 166.67 205.562 167.324C205.335 167.972 205.221 168.696 205.221 169.497C205.221 170.293 205.335 171.014 205.562 171.662C205.795 172.31 206.144 172.827 206.61 173.213C207.082 173.594 207.673 173.784 208.383 173.784ZM217.257 176V162.909H222.754C224.305 162.909 225.53 163.219 226.428 163.838C227.331 164.457 227.783 165.321 227.783 166.429C227.783 167.162 227.527 167.761 227.016 168.227C226.51 168.687 225.82 168.997 224.945 169.156C225.632 169.213 226.234 169.386 226.751 169.676C227.274 169.966 227.683 170.347 227.979 170.818C228.274 171.29 228.422 171.832 228.422 172.446C228.422 173.168 228.232 173.795 227.851 174.33C227.476 174.858 226.928 175.27 226.206 175.565C225.49 175.855 224.621 176 223.598 176H217.257ZM220.146 173.571H223.598C224.166 173.571 224.612 173.437 224.936 173.17C225.26 172.898 225.422 172.528 225.422 172.062C225.422 171.523 225.26 171.099 224.936 170.793C224.612 170.48 224.166 170.324 223.598 170.324H220.146V173.571ZM220.146 168.33H222.814C223.234 168.33 223.595 168.27 223.896 168.151C224.197 168.026 224.428 167.852 224.587 167.631C224.746 167.403 224.825 167.134 224.825 166.821C224.825 166.372 224.641 166.02 224.271 165.764C223.908 165.509 223.402 165.381 222.754 165.381H220.146V168.33ZM232.886 180.909C232.465 180.909 232.076 180.875 231.718 180.807C231.366 180.744 231.085 180.67 230.874 180.585L231.59 178.182C232.039 178.313 232.44 178.375 232.792 178.369C233.144 178.364 233.454 178.253 233.721 178.037C233.994 177.827 234.224 177.474 234.411 176.98L234.675 176.273L229.928 162.909H233.201L236.218 172.795H236.354L239.38 162.909H242.661L237.42 177.585C237.175 178.278 236.852 178.872 236.448 179.366C236.045 179.866 235.55 180.247 234.965 180.509C234.386 180.776 233.692 180.909 232.886 180.909Z" fill="#F6F1F1"/>
</svg>
