<svg width="290" height="743" viewBox="0 0 290 743" fill="none" xmlns="http://www.w3.org/2000/svg">
<path d="M98.6904 335.603C116.982 334.199 132.948 347.897 134.352 366.195L82.0958 699.369L42.5159 696.864L68.3193 373.259C65.7212 354.3 79.6233 337.07 98.6904 335.613V335.603Z" fill="url(#paint0_linear_8_4518)"/>
<path d="M133.451 371.96C113.242 372.641 89.5445 373.458 68.2459 374.192L59.781 480.327L115.474 486.553L133.451 371.96Z" fill="url(#paint1_linear_8_4518)"/>
<path d="M88.4025 658.547L82.0957 699.369L42.5264 696.854L45.6588 657.458L88.4025 658.547Z" fill="white"/>
<path d="M26.267 742.077H88.4026L84.4634 697.294H37.6654L26.267 742.077Z" fill="#44749F"/>
<path d="M33.7158 699.977C37.0996 699.306 40.6407 699.159 44.2445 699.61C47.3456 699.998 50.2894 700.794 53.0238 701.947" stroke="white" stroke-width="2.56" stroke-linecap="round" stroke-linejoin="round"/>
<path d="M20.6621 710.489C25.827 707.994 31.7147 706.821 37.8434 707.345C42.0549 707.701 46.0255 708.833 49.6084 710.594" stroke="white" stroke-width="2.56" stroke-linecap="round" stroke-linejoin="round"/>
<path d="M67.4602 742.077H1.11316C1.11316 723.746 15.9687 708.896 34.2814 708.896C52.5942 708.896 67.4497 723.757 67.4497 742.077H67.4602Z" fill="#44749F"/>
<path d="M0.505554 742.077H88.4025L87.774 734.95H0.505554V742.077Z" fill="white"/>
<path d="M169.72 335.781C187.97 333.915 204.282 347.194 206.147 365.451L223.119 538.221C223.412 541.156 223.496 544.111 223.38 547.067L217.66 694.275L177.829 698.352L169.312 553.953C169.113 550.609 168.746 547.277 168.201 543.975L140.313 374.192C137.233 355.306 150.685 337.73 169.71 335.781H169.72Z" fill="url(#paint2_linear_8_4518)"/>
<path d="M140.324 374.192L158.542 485.075L216.717 472.939L206.157 365.451C205.162 355.683 199.997 347.372 192.643 342.006C178.772 341.902 165.132 341.828 153.796 341.786C143.886 348.892 138.207 361.228 140.324 374.192Z" fill="url(#paint3_linear_8_4518)"/>
<path d="M218.415 659.145L217.671 694.275L177.84 698.352L175.619 660.832L218.415 659.145Z" fill="white"/>
<path d="M217.671 694.275L270.095 711.222C278.612 713.979 285.16 720.843 287.517 729.479L289.088 741.794H179.149L177.84 698.363L217.671 694.286V694.275Z" fill="#44749F"/>
<path d="M242.007 734.646C244.679 719.764 253.762 711.662 259.681 707.848L264.259 709.325C259.713 711.736 248.744 719.051 245.653 734.646H288.187L289.099 741.783H179.16L178.94 734.646H242.007Z" fill="white"/>
<path d="M238.067 715.2L237.6 714.733C236.734 713.867 236.726 712.451 237.6 711.576L243.718 705.454C244.584 704.587 245.999 704.579 246.874 705.454L247.34 705.92C248.207 706.787 248.215 708.203 247.341 709.077L241.223 715.2C240.356 716.067 238.942 716.075 238.067 715.2Z" fill="white"/>
<path d="M229.937 712.597L229.471 712.13C228.604 711.263 228.596 709.847 229.471 708.973L235.59 702.852C236.456 701.984 237.871 701.977 238.745 702.852L239.212 703.318C240.079 704.185 240.086 705.601 239.212 706.475L233.093 712.597C232.226 713.464 230.811 713.471 229.937 712.597Z" fill="white"/>
<path d="M221.507 709.674L221.04 709.208C220.173 708.341 220.165 706.925 221.039 706.051L227.157 699.928C228.024 699.061 229.439 699.053 230.313 699.928L230.78 700.394C231.647 701.261 231.654 702.677 230.78 703.551L224.663 709.674C223.796 710.541 222.381 710.549 221.507 709.674Z" fill="white"/>
<path d="M231.51 297.37C221.107 301.416 209.405 296.259 205.361 285.852L174.288 204.168L211.951 189.516L243.024 271.2C247.068 281.608 241.913 293.314 231.51 297.36V297.37Z" fill="url(#paint4_linear_8_4518)"/>
<path d="M234.967 228.734L229.782 232.633C218.844 240.849 206.021 246.152 192.486 248.07L185.969 248.993L162.921 191.088C157.327 177.547 177.138 150.665 177.138 150.665C192.915 153.673 206.325 157.289 211.919 170.829L234.967 228.734Z" fill="#F0EFEF"/>
<path d="M202.407 314.998H74.7937C74.7937 314.998 50.8237 345.999 53.5371 391.558C55.9991 432.966 51.3161 468.872 51.3161 468.872L134.059 475.234L142.545 437.494L144.242 475.234L225.392 464.995L202.407 314.998Z" fill="#010101"/>
<path d="M204.135 326.275L202.407 314.998H74.7937C74.7937 314.998 67.345 324.64 61.2267 341.063C154.739 348.997 204.135 326.275 204.135 326.275Z" fill="#010101"/>
<path d="M159.254 369.004H161.224C165.53 369.004 169.029 365.503 169.029 361.196L169.689 315.009" stroke="#989898" stroke-width="0.64" stroke-linecap="round" stroke-linejoin="round"/>
<path d="M52.6675 370.398L54.3438 369.759C70.7184 363.502 82.7348 349.269 86.1711 332.071L89.5759 315.009" stroke="#989898" stroke-width="0.64" stroke-linecap="round" stroke-linejoin="round"/>
<path d="M142.545 437.504C142.545 437.504 158.008 415.17 158.406 385.668C158.804 356.165 160.375 315.009 160.375 315.009" stroke="#989898" stroke-width="0.64" stroke-linecap="round" stroke-linejoin="round"/>
<path d="M199.809 174.162C200.427 163.294 192.884 153.662 182.198 151.639L157.557 146.976C144.881 144.838 131.942 144.838 119.276 146.986C119.172 147.007 112.54 148.265 112.446 148.286C108.632 149.009 73.547 155.674 69.6393 156.419C76.2918 186.162 82.9862 224.929 78.209 269.461C76.5956 284.469 71.3679 319.274 71.3679 319.274C71.3679 319.274 86.7682 335.152 138.417 335.152C190.065 335.152 204.135 326.265 204.135 326.265C204.135 326.265 199.599 284.521 198.929 269.45C197.703 241.95 198.342 199.912 199.809 174.151V174.162Z" fill="white"/>
<path d="M198.918 269.461C198.729 265.353 198.593 260.909 198.488 256.255H78.8795C78.8271 261.097 78.6176 265.562 78.1985 269.461C77.0985 279.7 74.3118 299.162 72.6565 310.492C77.769 313.405 88.9368 318.205 102.986 314.998C122.409 310.555 163.298 284.008 201.642 302.202C200.458 290.202 199.243 276.724 198.908 269.461H198.918Z" fill="white"/>
<path d="M206.964 249.737C204.806 247.609 204.052 236.825 187.3 241.122C179.327 243.165 171.229 246.446 165.802 248.867L110.277 261.904L102.074 206.033L62.1382 212.185L73.7775 291.407C75.3595 301.72 84.4739 308.993 94.6675 308.522C96.9199 308.563 99.2142 308.249 101.467 307.494L183.413 274.429C187.708 275.864 195.105 277.856 199.358 276.357L199.725 281.073C199.725 281.073 209.73 279.103 209.342 273.202C208.944 267.302 209.143 251.875 206.985 249.758L206.964 249.737Z" fill="url(#paint5_linear_8_4518)"/>
<g style="mix-blend-mode:multiply" opacity="0.6">
<path d="M189.364 269.031L162.806 249.569L112.645 261.349V261.38C112.645 261.38 141.706 261.055 155.651 285.622L189.751 271.861L189.364 269.042V269.031Z" fill="#CE78B1"/>
</g>
<g style="mix-blend-mode:multiply" opacity="0.6">
<path d="M71.5565 276.346C71.5565 276.346 73.8508 267.899 88.0359 262.376C102.221 256.853 109.596 257.293 109.596 257.293L102.064 206.044L62.1277 212.196L71.5565 276.357V276.346Z" fill="#CE78B1"/>
</g>
<path d="M113.944 250.481L62.1277 266.107L51.117 187.001C48.3827 172.611 57.8219 158.724 72.206 155.989C86.5901 153.254 100.471 162.696 103.206 177.086L113.934 250.47L113.944 250.481Z" fill="#F0EFEF"/>
<path d="M240.52 286.449C236.445 296.846 224.721 301.96 214.329 297.884C214.329 297.884 184.073 287.33 152.958 269.24C134.069 258.257 112.645 261.38 112.645 261.38L113.871 255.081C127.396 241.939 141.905 239.528 155.734 242.809L229.09 260.259C239.483 264.336 244.595 276.063 240.52 286.46V286.449Z" fill="url(#paint6_linear_8_4518)"/>
<path d="M197.366 69.9091C194.198 81.63 182.748 108.305 173.354 112.228C169.975 113.642 171.454 109.766 171.766 107.231C172.023 105.109 135.625 100.92 112.385 107.286C110.897 87.9957 107.004 35.9496 107.978 30.677C103.377 39.9545 96.9314 61.1459 95.5357 69.9091C93.9656 79.6826 98.9882 97.6315 97.262 97.163C96.8579 97.0528 96.4723 96.9058 96.105 96.7221C99.1351 102.353 102.918 106.532 106.123 109.417C104.103 110.262 102.266 111.226 100.65 112.319C100.65 112.319 100.935 114.891 99.1259 115.397C95.9214 116.288 82.6624 99.3584 80.3209 89.1623C80.3209 89.1623 75.3075 87.4445 71.6989 78.3415C68.0903 69.2385 71.0745 55.2762 74.2056 50.7293C74.8759 49.7556 75.987 47.845 77.3643 45.3833C77.3643 45.3741 77.3735 45.3649 77.3735 45.3649V45.3557C82.4328 36.2986 91.0089 19.9022 93.9656 16.2003C97.7303 11.4972 105.728 16.8341 105.728 16.8341C105.728 16.8341 118.326 -2.13431 130.51 0.19885C133.568 0.786734 137.544 2.64224 142.319 4.98459C149.068 8.28226 157.414 12.5169 167.055 15.4471C179.534 19.2316 186.512 23.1171 190.865 29.5563C192.27 31.6139 193.399 33.9471 194.345 36.6109C194.345 36.6109 200.901 56.7919 197.356 69.9182L197.366 69.9091Z" fill="#232323"/>
<g style="mix-blend-mode:multiply" opacity="0.9">
<path d="M197.366 69.9088C194.198 81.6298 182.748 108.305 173.354 112.227C171.683 112.925 171.197 112.338 171.178 111.254C173.4 109.058 175.384 106.578 176.99 103.795C178.919 100.442 178.983 93.8651 178.505 86.3237C177.67 87.7566 176.834 89.0885 176.026 90.3194C173.529 94.1407 174.217 70.7263 165.1 67.3552C157.23 66.1702 148.214 62.9093 147.929 62.8083C148.012 63.0012 150.362 68.4483 146.671 68.1452C142.906 67.8329 134.238 61.8622 134.238 61.8622C134.238 61.8622 125.662 61.3937 118.133 54.6698C112.881 49.9851 109.529 37.6762 107.996 30.6767C108.574 27.5812 108.079 24.2927 107.408 21.684C107.197 20.8664 107.206 19.9846 106.995 19.3324C106.453 17.7157 105.737 16.8247 105.737 16.8247C105.737 16.8247 111.898 7.25323 120.511 2.33889C120.511 2.33889 118.757 4.93844 118.39 8.75969C118.39 8.75969 118.216 12.434 121.898 15.5755C121.898 15.5755 118.078 13.0586 113.266 15.4469C113.266 15.4469 112.917 16.7237 112.954 18.5241C112.973 19.4794 113.092 20.5633 113.432 21.7023C113.432 21.7023 118.739 43.5367 134.248 53.4848C134.248 53.4848 131.53 31.7607 123.835 18.5608C123.835 18.5608 146.8 43.1785 166.918 52.456C166.918 52.456 170.526 41.2495 169.434 36.032C168.653 32.3394 163.309 24.2008 160.233 19.7458C158.966 17.8994 158.075 16.6778 158.075 16.6778C158.075 16.6778 158.084 16.6778 158.094 16.6778C158.7 16.9625 178.046 26.0839 185.273 36.7944C187.155 39.5777 191.948 35.0399 190.892 29.5469C192.297 31.6045 193.426 33.9377 194.372 36.6015C194.372 36.6015 200.928 56.7825 197.384 69.9088H197.366Z" fill="#232323"/>
</g>
<g style="mix-blend-mode:multiply" opacity="0.9">
<path d="M106.123 109.417C104.103 110.262 102.266 111.226 100.65 112.319C100.65 112.319 100.935 114.891 99.1259 115.397C95.9214 116.288 82.6624 99.3583 80.3209 89.1622C80.3209 89.1622 75.3075 87.4445 71.6989 78.3415C68.0903 69.2384 71.0745 55.2762 74.2056 50.7293C74.8759 49.7556 75.987 47.845 77.3643 45.3832C77.1164 46.0078 72.9568 56.801 73.4986 60.4477C73.4986 60.4477 75.4636 60.7601 78.9161 54.6424C81.8176 49.4984 85.2885 42.949 86.326 40.9833C85.3344 42.9857 82.1941 50.1047 81.2942 61.0907C81.2942 61.1459 81.285 61.1918 81.2759 61.2377C81.1749 62.4594 81.1106 63.727 81.0739 65.0406C81.0371 66.3909 81.0279 67.7871 81.0739 69.2293L81.735 88.115L85.3436 80.3807C85.3436 80.3807 86.1883 55.1109 91.9639 43.8125C97.2252 33.5153 99.9064 29.0878 100.347 28.3805C99.5483 29.7492 91.0181 45.0341 90.5498 72.9954C90.3845 82.7414 92.7994 90.586 96.1142 96.7128C99.1443 102.344 102.927 106.523 106.132 109.407L106.123 109.417Z" fill="#232323"/>
</g>
<path d="M95.701 74.2814C95.701 74.2814 94.0482 68.9629 85.8026 65.6652C77.5571 62.3676 74.4351 67.3187 73.8842 72.8209C73.3333 78.3231 79.7516 92.2578 85.9863 94.6461C92.2209 97.0344 95.701 92.6252 95.701 92.6252V74.2906V74.2814Z" fill="url(#paint7_linear_8_4518)"/>
<path style="mix-blend-mode:multiply" opacity="0.6" d="M95.7009 83.8068V89.3917C95.7009 89.3917 93.1391 82.9893 91.5782 83.0812C90.0172 83.173 90.6599 87.3892 90.109 88.859C89.5581 90.3287 87.3635 88.7671 86.8677 83.9997C86.3719 79.2324 89.6499 79.2875 89.6499 79.2875C89.6499 79.2875 86.0138 70.7723 81.5237 73.2433C77.0336 75.7234 79.6322 87.0586 79.6322 87.0586C79.6322 87.0586 73.4526 76.2929 74.7473 72.3247C76.042 68.3565 79.8801 68.0809 86.1148 71.8379C89.1724 73.6842 92.1566 77.8086 94.3971 81.538C94.8654 82.3187 95.3061 83.0812 95.7101 83.8068H95.7009Z" fill="url(#paint8_linear_8_4518)"/>
<path style="mix-blend-mode:multiply" opacity="0.6" d="M95.701 83.2924V87.1045C94.7644 85.2949 92.3311 80.9593 91.2109 82.0799C89.806 83.4853 90.5498 86.0665 89.3745 87.8577C88.2083 89.6489 86.528 84.8265 87.4921 81.6206C88.4654 78.4148 92.3128 79.6825 93.4605 80.5918C93.736 80.8123 94.0482 81.143 94.3787 81.538C94.8011 82.0432 95.251 82.6586 95.6918 83.2924H95.701Z" fill="url(#paint9_linear_8_4518)"/>
<path d="M176.136 74.2815C176.136 74.2815 177.789 68.9629 186.035 65.6653C194.28 62.3676 197.402 67.3187 197.953 72.8209C198.504 78.3232 192.086 92.2578 185.851 94.6461C179.616 97.0344 176.136 92.6253 176.136 92.6253V74.2906V74.2815Z" fill="url(#paint10_linear_8_4518)"/>
<path style="mix-blend-mode:multiply" opacity="0.6" d="M176.137 83.8068V89.3917C176.137 89.3917 178.698 82.9893 180.259 83.0812C181.82 83.173 181.178 87.3892 181.728 88.859C182.279 90.3287 184.474 88.7671 184.97 83.9997C185.466 79.2324 182.188 79.2875 182.188 79.2875C182.188 79.2875 185.824 70.7723 190.314 73.2433C194.804 75.7234 192.205 87.0586 192.205 87.0586C192.205 87.0586 198.385 76.2929 197.09 72.3247C195.795 68.3565 191.957 68.0809 185.723 71.8379C182.665 73.6842 179.681 77.8086 177.44 81.538C176.972 82.3187 176.531 83.0812 176.127 83.8068H176.137Z" fill="url(#paint11_linear_8_4518)"/>
<path style="mix-blend-mode:multiply" opacity="0.6" d="M176.136 83.2924V87.1045C177.073 85.2949 179.506 80.9593 180.627 82.0799C182.031 83.4853 181.288 86.0665 182.463 87.8577C183.629 89.6489 185.309 84.8265 184.345 81.6206C183.372 78.4148 179.525 79.6825 178.377 80.5918C178.101 80.8123 177.789 81.143 177.459 81.538C177.036 82.0432 176.586 82.6586 176.146 83.2924H176.136Z" fill="url(#paint12_linear_8_4518)"/>
<path d="M152.272 142.274V114.23L135.974 116.178L119.676 114.23V142.274C119.676 147.143 116.205 148.741 116.205 148.741C116.205 148.741 119.501 153.462 135.974 153.462C152.447 153.462 155.743 148.741 155.743 148.741C155.743 148.741 152.272 147.143 152.272 142.274Z" fill="url(#paint13_linear_8_4518)"/>
<g style="mix-blend-mode:multiply" opacity="0.6">
<path d="M152.272 114.23V135.991C149.674 138.627 146.295 140.703 141.951 141.025C131.282 141.815 122.586 129.092 119.676 124.261V114.221L135.974 116.168L152.272 114.221V114.23Z" fill="#CE78B1"/>
</g>
<path d="M176.908 60.108C176.908 46.2744 178.873 14.2255 135.845 14.2255C92.8178 14.2255 94.7828 46.2744 94.7828 60.108C94.7828 73.9417 90.5682 95.7393 94.5991 102.748C104.277 119.549 127.774 125.088 135.845 125.088C143.916 125.088 167.413 119.549 177.091 102.748C181.122 95.7485 176.908 74.5755 176.908 60.108Z" fill="url(#paint14_linear_8_4518)"/>
<path style="mix-blend-mode:multiply" opacity="0.6" d="M126.682 70.9103C126.682 80.5186 124.974 85.736 122.155 86.5719C119.345 87.4078 99.5299 90.035 95.3521 77.322C94.8746 75.8614 94.4706 73.0139 94.14 71.4615C94.4889 67.7045 94.7736 63.8649 94.7736 60.0988C94.7736 51.106 93.9472 34.4248 105.168 23.8429C105.168 23.8429 103.386 34.4156 103.57 47.3766C103.607 49.9578 98.8045 55.3314 98.8045 55.3314C98.8045 55.3314 113.101 52.3277 124.652 55.2028C124.652 55.2028 126.672 61.2929 126.672 70.9012L126.682 70.9103Z" fill="url(#paint15_linear_8_4518)"/>
<path style="mix-blend-mode:multiply" opacity="0.6" d="M177.551 71.5257C177.22 73.0597 176.825 75.8797 176.357 77.3218C172.179 90.0348 152.364 87.4077 149.554 86.5718C146.745 85.7359 145.027 80.5185 145.027 70.9102C145.027 61.302 147.048 55.2119 147.048 55.2119C158.599 52.3368 172.895 55.3405 172.895 55.3405C172.895 55.3405 167.845 49.9577 168.13 47.3857C169.626 33.9378 166.403 24.302 166.532 23.8611C177.743 34.443 176.908 51.1151 176.908 60.0987C176.908 63.8832 177.202 67.7504 177.551 71.5165V71.5257Z" fill="url(#paint16_linear_8_4518)"/>
<path d="M145.753 95.0412C145.138 95.3719 142.86 94.6371 140.657 95.6199C138.453 96.6028 137.489 96.8141 135.836 96.8141C134.183 96.8141 133.219 96.5936 131.015 95.6199C128.812 94.6463 126.544 95.3719 125.919 95.0412C125.359 94.7381 124.239 92.7632 126.856 89.3369C127.141 88.9603 127.462 88.5745 127.848 88.1704C131.704 84.0092 135.827 84.5604 135.827 84.5604C135.827 84.5604 139.959 84.0092 143.806 88.1704C144.183 88.5745 144.513 88.9695 144.798 89.3369C147.415 92.7724 146.295 94.7473 145.734 95.0412H145.753Z" fill="url(#paint17_linear_8_4518)"/>
<g style="mix-blend-mode:multiply" opacity="0.6">
<path d="M145.753 95.0411C145.138 95.3718 142.86 94.6369 140.657 95.6198C138.453 96.6027 137.489 96.8139 135.836 96.8139C134.183 96.8139 133.219 96.5935 131.015 95.6198C128.812 94.6461 126.544 95.3718 125.919 95.0411C125.359 94.738 124.239 92.7631 126.856 89.3368C126.856 89.3368 126.36 91.9547 127.765 92.7539C127.765 92.7539 131.925 93.5438 135.827 93.5438C139.729 93.5438 143.889 92.7539 143.889 92.7539C145.294 91.9547 144.798 89.3368 144.798 89.3368C147.415 92.7722 146.295 94.7472 145.734 95.0411H145.753Z" fill="#CE78B1"/>
</g>
<path style="mix-blend-mode:multiply" opacity="0.6" d="M128.224 87.7846C129.344 87.7111 129.482 90.6689 129.482 90.6689C129.482 90.6689 130.024 87.9224 129.041 87.0406L128.224 87.7938V87.7846Z" fill="url(#paint18_linear_8_4518)"/>
<path style="mix-blend-mode:multiply" opacity="0.6" d="M143.31 87.7846C142.19 87.7111 142.052 90.6689 142.052 90.6689C142.052 90.6689 141.511 87.9224 142.493 87.0406L143.31 87.7938V87.7846Z" fill="url(#paint19_linear_8_4518)"/>
<path d="M128.224 95.0872C128.224 95.0872 129.987 94.7381 132.319 96.1068C132.319 96.1068 130.308 95.8496 128.224 95.0872Z" fill="#4F1C3E"/>
<path d="M143.31 95.0872C143.31 95.0872 141.547 94.7381 139.215 96.1068C139.215 96.1068 141.226 95.8496 143.31 95.0872Z" fill="#4F1C3E"/>
<g style="mix-blend-mode:multiply" opacity="0.6">
<path d="M125.938 95.0413C125.938 95.0413 126.654 93.792 128.197 92.8183C128.197 92.8183 131.172 93.5348 135.845 93.5348C140.519 93.5348 143.907 92.7449 143.907 92.7449C143.907 92.7449 145.487 93.792 145.753 95.0413C145.753 95.0413 141.896 100.185 135.845 100.185C129.794 100.185 125.938 95.0413 125.938 95.0413Z" fill="#CE78B1"/>
</g>
<path d="M139.215 89.5024C138.673 89.8331 139.105 90.7424 139.472 90.7424C139.84 90.7424 140.528 90.7424 140.482 90.127C140.436 89.5116 139.885 89.0982 139.224 89.5115L139.215 89.5024Z" fill="#FCCEC0"/>
<path d="M122.889 77.7719C122.889 77.7719 112.596 81.1339 107.427 80.3072C103.093 79.6183 100.31 73.5465 100.301 70.552C100.301 69.9825 100.393 69.5232 100.604 69.2384C102.937 66.0143 113.588 61.0173 118.675 64.618C121.227 66.4276 122.274 69.7253 122.696 72.5729C123.11 75.402 122.889 77.7719 122.889 77.7719Z" fill="url(#paint20_linear_8_4518)"/>
<path d="M120.623 71.2137C121.213 67.06 118.326 63.2141 114.174 62.6236C110.022 62.0332 106.177 64.9218 105.587 69.0756C104.997 73.2293 107.884 77.0752 112.036 77.6656C116.188 78.256 120.033 75.3674 120.623 71.2137Z" fill="url(#paint21_linear_8_4518)"/>
<path d="M120.034 70.9919C120.505 67.1602 117.783 63.6715 113.953 63.1996C110.122 62.7278 106.635 65.4515 106.163 69.2832C105.692 73.1149 108.414 76.6036 112.245 77.0754C116.075 77.5473 119.562 74.8236 120.034 70.9919Z" fill="url(#paint22_linear_8_4518)"/>
<path style="mix-blend-mode:multiply" d="M117.379 70.4605C117.55 68.1026 115.779 66.0522 113.422 65.8807C111.065 65.7092 109.015 67.4816 108.844 69.8394C108.672 72.1973 110.444 74.2477 112.801 74.4192C115.158 74.5907 117.208 72.8183 117.379 70.4605Z" fill="url(#paint23_linear_8_4518)"/>
<g style="mix-blend-mode:multiply" opacity="0.6">
<path d="M122.687 72.573C118.757 69.8633 111.595 68.5221 100.292 70.5614C100.292 69.9918 100.384 69.5326 100.595 69.2478C102.927 66.0236 113.579 61.0266 118.666 64.6274C121.218 66.437 122.265 69.7346 122.687 72.5822V72.573Z" fill="#CE78B1"/>
</g>
<path d="M110.686 60.2642C104.745 61.1093 100.944 68.8253 100.944 68.8253C100.944 68.8253 107.133 62.7903 114.58 65.0132C120.943 66.9146 122.403 71.0206 122.403 71.0115C122.403 71.0115 122.55 58.5832 110.696 60.2642H110.686Z" fill="#DD4D6B"/>
<path d="M101.155 74.1802C103.901 77.1931 106.288 80.3071 112.155 80.2336C112.155 80.2336 108.923 81.1797 105.416 79.71C101.908 78.2403 101.155 74.171 101.155 74.171V74.1802Z" fill="#DC6B7D"/>
<path d="M122.908 74.7222C122.908 74.7222 124.441 76.5409 123.624 77.7443C122.807 78.9476 119.418 78.7731 119.418 78.7731C119.418 78.7731 122.008 78.0566 122.504 77.2666C122.999 76.4766 122.908 74.7222 122.908 74.7222Z" fill="#DC6B7D"/>
<path d="M100.604 69.2384C100.604 69.2384 102.165 64.4067 111.926 63.5433C119.474 62.8819 122.375 67.7687 122.779 68.6505C123.183 69.5323 122.403 71.002 122.403 71.002C122.403 71.002 118.583 65.2334 111.531 65.261C104.479 65.2886 100.604 69.2292 100.604 69.2292V69.2384Z" fill="#4F1C3E"/>
<path d="M104.571 71.0482C104.571 71.0482 105.048 70.543 108.492 71.9759C108.602 72.0219 108.464 72.2148 108.336 72.1964C107.5 72.0862 104.58 71.6544 104.571 71.0482Z" fill="url(#paint24_linear_8_4518)"/>
<path d="M109.906 71.7736C109.41 72.1962 109.823 72.5728 110.365 72.6371C110.76 72.683 110.824 72.0584 110.668 71.893C110.512 71.7277 110.227 71.5072 109.915 71.7736H109.906Z" fill="url(#paint25_linear_8_4518)"/>
<path d="M150.133 77.8732C150.133 77.8732 160.426 81.2352 165.595 80.4084C169.929 79.7195 172.712 73.6478 172.721 70.6532C172.721 70.0837 172.629 69.6244 172.418 69.3397C170.085 66.1155 159.434 61.1185 154.347 64.7193C151.795 66.5289 150.748 69.8265 150.326 72.6741C149.912 75.5033 150.133 77.8732 150.133 77.8732Z" fill="url(#paint26_linear_8_4518)"/>
<path d="M167.148 72.6172C168.453 68.63 166.28 64.3395 162.294 63.034C158.309 61.7284 154.02 63.9023 152.715 67.8895C151.41 71.8767 153.583 76.1673 157.568 77.4728C161.554 78.7783 165.843 76.6044 167.148 72.6172Z" fill="url(#paint27_linear_8_4518)"/>
<path d="M164.052 75.8717C167.165 73.5905 167.84 69.2164 165.56 66.1018C163.28 62.9872 158.907 62.3116 155.794 64.5928C152.68 66.874 152.005 71.2482 154.285 74.3628C156.566 77.4773 160.938 78.1529 164.052 75.8717Z" fill="url(#paint28_linear_8_4518)"/>
<path style="mix-blend-mode:multiply" d="M155.688 70.9195C156.055 73.2527 158.25 74.851 160.591 74.4744C162.923 74.107 164.521 71.9116 164.145 69.5692C163.768 67.2269 161.583 65.6377 159.241 66.0144C156.9 66.391 155.311 68.5772 155.688 70.9195Z" fill="url(#paint29_linear_8_4518)"/>
<g style="mix-blend-mode:multiply" opacity="0.6">
<path d="M150.326 72.6741C154.256 69.9643 161.418 68.6232 172.721 70.6624C172.721 70.0929 172.629 69.6336 172.418 69.3488C170.086 66.1247 159.434 61.1276 154.347 64.7284C151.795 66.538 150.748 69.8357 150.326 72.6832V72.6741Z" fill="#CE78B1"/>
</g>
<path d="M162.327 60.3652C168.267 61.2103 172.069 68.9263 172.069 68.9263C172.069 68.9263 165.88 62.8913 158.433 65.1142C152.07 67.0157 150.61 71.1217 150.61 71.1125C150.61 71.1125 150.463 58.6842 162.317 60.3652H162.327Z" fill="#DD4D6B"/>
<path d="M171.858 74.2817C169.112 77.2946 166.725 80.4085 160.857 80.3351C160.857 80.3351 164.09 81.2812 167.597 79.8115C171.105 78.3418 171.858 74.2725 171.858 74.2725V74.2817Z" fill="#DC6B7D"/>
<path d="M150.114 74.8236C150.114 74.8236 148.581 76.6424 149.398 77.8457C150.215 79.0491 153.604 78.8745 153.604 78.8745C153.604 78.8745 151.014 78.158 150.518 77.3681C150.023 76.5781 150.114 74.8236 150.114 74.8236Z" fill="#DC6B7D"/>
<path d="M172.418 69.3394C172.418 69.3394 170.857 64.5078 161.096 63.6443C153.548 62.9829 150.647 67.8697 150.243 68.7515C149.839 69.6334 150.619 71.1031 150.619 71.1031C150.619 71.1031 154.439 65.3345 161.491 65.362C168.543 65.3896 172.418 69.3302 172.418 69.3302V69.3394Z" fill="#4F1C3E"/>
<path d="M168.451 71.1492C168.451 71.1492 167.974 70.644 164.53 72.077C164.42 72.1229 164.558 72.3158 164.686 72.2974C165.522 72.1872 168.442 71.7555 168.451 71.1492Z" fill="url(#paint30_linear_8_4518)"/>
<path d="M163.107 71.8749C163.603 72.2974 163.19 72.674 162.648 72.7383C162.253 72.7843 162.189 72.1596 162.345 71.9943C162.501 71.829 162.786 71.6085 163.098 71.8749H163.107Z" fill="url(#paint31_linear_8_4518)"/>
<g style="mix-blend-mode:multiply" opacity="0.6">
<path d="M123.854 109.922C123.854 109.922 127.389 117.867 136.304 117.867C143.54 117.867 147.773 109.922 147.773 109.922C147.773 109.922 137.012 114.202 123.854 109.922Z" fill="#CE78B1"/>
</g>
<path d="M120.355 102.435C120.355 102.435 128.132 104.199 135.873 104.199C143.613 104.199 151.088 102.435 151.088 102.435C151.088 102.435 142.447 114.257 135.193 114.257C127.94 114.257 120.364 102.435 120.364 102.435H120.355Z" fill="#842852"/>
<path d="M135.726 102.95C133.715 102.95 120.364 102.444 120.364 102.444C124.138 104.667 130.694 105.972 135.726 105.972C140.758 105.972 147.314 104.667 151.088 102.444C151.088 102.444 137.737 102.95 135.726 102.95Z" fill="#DE4E6C"/>
<path d="M120.355 102.435C120.355 102.435 126.92 110.666 135.717 110.666C144.513 110.666 151.079 102.435 151.079 102.435C151.079 102.435 150.023 114.735 135.864 114.735C121.705 114.735 120.346 102.435 120.346 102.435H120.355Z" fill="#EF7172"/>
<path d="M123.165 103.749C123.165 103.749 123.679 104.658 124.717 105.963C124.717 105.963 129.409 109.132 136.314 109.132C141.621 109.132 147.259 105.751 147.259 105.751L148.287 103.749C148.287 103.749 136.314 108.489 123.165 103.749Z" fill="#FCDFEB"/>
<path d="M120.97 102.775C120.97 102.775 119.575 102.141 119.226 101.021C119.226 101.021 119.418 100.681 119.712 100.185C119.712 100.185 118.39 100.139 118.243 101.701C118.243 101.701 119.969 102.711 120.961 103.134V102.766L120.97 102.775Z" fill="#842852"/>
<path d="M150.371 102.775C150.371 102.775 151.767 102.141 152.116 101.021C152.116 101.021 151.923 100.681 151.629 100.185C151.629 100.185 152.952 100.139 153.099 101.7C153.099 101.7 151.372 102.711 150.381 103.133V102.766L150.371 102.775Z" fill="#842852"/>
<path d="M141.428 110.859C141.428 110.859 140.381 112.439 141.86 113.844C141.86 113.844 144.816 112.925 147.176 110.583C147.176 110.583 147.204 109.168 146.35 108.746C146.35 108.746 144.495 109.196 141.428 110.859Z" fill="#F5A79C"/>
<path d="M187.155 51.3449C185.089 51.4827 183.317 50.5273 183.317 50.5273C185.374 57.9126 183.363 62.3126 181.113 64.5631C180.158 65.5276 179.157 66.0879 178.414 66.3175C178.239 66.3727 178.074 66.4094 177.936 66.4278C177.936 66.4278 174.318 65.8307 165.008 54.7528C152.906 52.3369 141.915 47.9645 141.575 47.8267C142.254 48.3595 142.897 49.0944 143.43 49.8292C144.44 51.1979 145.092 52.5758 144.945 52.5758C141.254 52.7044 134.854 49.9854 134.854 49.9854C134.854 49.9854 126.47 49.5812 119.115 43.7483C114.423 40.0281 111.283 30.7873 109.639 24.5869C109.483 23.9991 109.336 23.4479 109.208 22.9243C99.0433 31.6599 97.0508 46.3754 97.0508 56.9665C97.0508 57.6646 97.0783 58.4178 97.115 59.1986C97.5925 67.9342 100.402 80.638 98.7311 80.6197C92.5699 80.5737 89.5398 69.1835 89.5398 69.1835C89.5398 69.1835 87.8686 67.5484 86.2066 64.6457C84.4161 61.5226 82.6348 56.9298 82.9562 51.3449C83.5714 40.5884 89.5398 28.7664 89.5398 28.7664C96.7477 18.8551 108.235 13.0773 108.235 13.0773C108.235 13.0773 112.798 7.59342 119.363 3.89159C122.871 1.91666 126.939 0.446952 131.199 0.593923C138.618 0.841937 149.563 5.18677 159.342 11.2861C165.715 15.2635 171.601 19.9757 175.677 24.789C179.718 29.5564 182.344 33.9931 184.051 37.8327C187.651 45.9345 187.137 51.3357 187.137 51.3357L187.155 51.3449Z" fill="#232323"/>
<g style="mix-blend-mode:multiply" opacity="0.9">
<path d="M175.687 24.7983C171.61 19.9942 147.727 7.99766 131.833 8.18137C117.619 8.3559 119.363 3.90084 119.363 3.90084C112.798 7.60267 108.235 13.0865 108.235 13.0865C108.235 13.0865 109.134 16.476 109.226 20.9403C109.199 20.9311 106.49 19.9299 101.688 27.6275C96.8579 35.3526 96.0958 49.8201 96.9773 58.2342C97.014 58.5741 97.06 58.8956 97.1242 59.2079C97.0783 58.4271 97.06 57.6831 97.06 56.9758C97.06 46.3847 99.0525 31.6692 109.217 22.9336C109.272 23.154 109.327 23.3745 109.382 23.6041C109.41 23.7052 109.437 23.8062 109.456 23.9073C109.511 24.1277 109.566 24.3482 109.63 24.5778V24.5962C111.283 30.7965 114.414 40.0373 119.106 43.7575C126.461 49.5905 134.844 49.9946 134.844 49.9946C134.844 49.9946 120.181 41.553 116.039 24.8075C116.039 24.8075 122.706 35.6098 141.566 47.836C141.906 47.9738 152.897 52.3462 164.999 54.762C164.999 54.762 147.911 30.1168 113.588 16.0902C113.588 16.0902 123.762 12.1037 148.682 19.838C175.677 28.2154 183.317 50.5458 183.317 50.5458C183.317 50.5458 185.089 51.5011 187.155 51.3633C187.155 51.3633 188.257 39.6148 175.687 24.8075V24.7983Z" fill="#232323"/>
</g>
<g style="mix-blend-mode:multiply" opacity="0.9">
<path d="M89.5398 69.1834C89.5398 69.1834 87.8686 67.5484 86.2067 64.6457C86.2067 64.6457 86.1608 43.4176 99.0341 26.4608C99.0341 26.4608 89.347 49.2045 89.5306 69.1834H89.5398Z" fill="#232323"/>
</g>
<g style="mix-blend-mode:multiply" opacity="0.9">
<path d="M187.155 51.345C185.089 51.4828 183.317 50.5274 183.317 50.5274C185.374 57.9127 183.363 62.3127 181.113 64.5632C180.158 65.5277 179.157 66.088 178.414 66.3176C181.94 62.1106 180.571 55.2765 179.874 52.4381C175.283 33.7819 148.691 19.8289 148.691 19.8289C148.691 19.8289 166.045 23.7052 179.874 34.7097C187.173 40.515 187.155 51.345 187.155 51.345Z" fill="#232323"/>
</g>
<g style="mix-blend-mode:multiply" opacity="0.9">
<path d="M121.172 19.4707C121.172 19.4707 150.068 26.461 161.867 38.0074C175.613 51.4552 176.889 64.2876 176.889 64.2876C176.889 64.2876 163.438 42.9677 152.291 35.5548C136.222 24.8718 121.181 19.4707 121.181 19.4707H121.172Z" fill="#232323"/>
</g>
<g style="mix-blend-mode:multiply">
<path d="M126.801 59.4284C126.801 59.4284 124.211 58.3077 117.967 58.0964C116.113 58.0321 113.937 58.0505 111.411 58.1975C100.365 58.8497 92.5789 60.8613 92.5789 60.8613C92.6431 60.6684 95.6916 55.8643 99.594 53.7149C99.5665 53.7608 99.0798 54.5875 99.1441 55.4693C99.1441 55.4693 103.616 52.0522 109.805 50.6652C110.961 50.408 112.174 50.2151 113.431 50.1324C121.42 49.618 125.185 55.4969 125.185 55.4969C125.185 55.4969 124.992 53.9721 124.147 53.0627C124.147 53.0627 126.746 54.7528 126.81 59.4284H126.801Z" fill="#232323"/>
<g style="mix-blend-mode:multiply" opacity="0.6">
<path d="M117.958 58.0963C116.104 58.032 113.927 58.0504 111.402 58.1974C100.356 58.8496 92.5698 60.8612 92.5698 60.8612C92.6341 60.6683 95.6826 55.8642 99.585 53.7148C99.5574 53.7607 99.0708 54.5874 99.1351 55.4692C99.1351 55.4692 103.607 52.0522 109.796 50.6651C107.61 51.749 102.854 54.2016 100.108 57.931C100.108 57.931 106.077 55.8458 117.968 58.0872L117.958 58.0963Z" fill="#232323"/>
</g>
</g>
<g style="mix-blend-mode:multiply">
<path d="M146.212 59.7038C146.212 59.7038 148.801 58.5832 155.045 58.3719C156.9 58.3076 159.076 58.326 161.601 58.4729C172.647 59.1251 180.434 61.1368 180.434 61.1368C180.369 60.9439 177.321 56.1398 173.419 53.9903C173.446 54.0362 173.933 54.863 173.869 55.7448C173.869 55.7448 169.397 52.3277 163.208 50.9407C162.051 50.6835 160.839 50.4906 159.581 50.4079C151.593 49.8935 147.828 55.7723 147.828 55.7723C147.828 55.7723 148.021 54.2475 148.866 53.3381C148.866 53.3381 146.267 55.0283 146.203 59.7038H146.212Z" fill="#030303"/>
<g style="mix-blend-mode:multiply" opacity="0.6">
<path d="M155.054 58.3721C156.909 58.3078 159.085 58.3262 161.61 58.4731C172.656 59.1253 180.443 61.137 180.443 61.137C180.379 60.9441 177.33 56.14 173.428 53.9905C173.455 54.0364 173.942 54.8632 173.878 55.745C173.878 55.745 169.406 52.3279 163.217 50.9409C165.403 52.0248 170.159 54.4774 172.904 58.2068C172.904 58.2068 166.936 56.1216 155.045 58.3629L155.054 58.3721Z" fill="#030303"/>
</g>
</g>
<defs>
<linearGradient id="paint0_linear_8_4518" x1="42.5264" y1="517.428" x2="134.352" y2="517.428" gradientUnits="userSpaceOnUse">
<stop stop-color="#F8A796"/>
<stop offset="0.43" stop-color="#F8AB99"/>
<stop offset="0.53" stop-color="#F7A391"/>
<stop offset="0.77" stop-color="#F69785"/>
<stop offset="1" stop-color="#F69481"/>
</linearGradient>
<linearGradient id="paint1_linear_8_4518" x1="59.781" y1="429.256" x2="133.451" y2="429.256" gradientUnits="userSpaceOnUse">
<stop stop-color="#F8A796"/>
<stop offset="0.43" stop-color="#F8AB99"/>
<stop offset="0.53" stop-color="#F7A391"/>
<stop offset="0.77" stop-color="#F69785"/>
<stop offset="1" stop-color="#F69481"/>
</linearGradient>
<linearGradient id="paint2_linear_8_4518" x1="139.884" y1="516.977" x2="223.433" y2="516.977" gradientUnits="userSpaceOnUse">
<stop stop-color="#F8A796"/>
<stop offset="0.43" stop-color="#F8AB99"/>
<stop offset="0.53" stop-color="#F7A391"/>
<stop offset="0.77" stop-color="#F69785"/>
<stop offset="1" stop-color="#F69481"/>
</linearGradient>
<linearGradient id="paint3_linear_8_4518" x1="139.884" y1="413.431" x2="216.707" y2="413.431" gradientUnits="userSpaceOnUse">
<stop stop-color="#F8A796"/>
<stop offset="0.43" stop-color="#F8AB99"/>
<stop offset="0.53" stop-color="#F7A391"/>
<stop offset="0.77" stop-color="#F69785"/>
<stop offset="1" stop-color="#F69481"/>
</linearGradient>
<linearGradient id="paint4_linear_8_4518" x1="174.288" y1="244.14" x2="244.396" y2="244.14" gradientUnits="userSpaceOnUse">
<stop stop-color="#F8A796"/>
<stop offset="0.43" stop-color="#F8AB99"/>
<stop offset="0.53" stop-color="#F7A391"/>
<stop offset="0.77" stop-color="#F69785"/>
<stop offset="1" stop-color="#F69481"/>
</linearGradient>
<linearGradient id="paint5_linear_8_4518" x1="62.1278" y1="257.283" x2="209.342" y2="257.283" gradientUnits="userSpaceOnUse">
<stop stop-color="#F8A796"/>
<stop offset="0.43" stop-color="#F8AB99"/>
<stop offset="0.53" stop-color="#F7A391"/>
<stop offset="0.77" stop-color="#F69785"/>
<stop offset="1" stop-color="#F69481"/>
</linearGradient>
<linearGradient id="paint6_linear_8_4518" x1="112.655" y1="270.383" x2="241.924" y2="270.383" gradientUnits="userSpaceOnUse">
<stop stop-color="#F8A796"/>
<stop offset="0.43" stop-color="#F8AB99"/>
<stop offset="0.53" stop-color="#F7A391"/>
<stop offset="0.77" stop-color="#F69785"/>
<stop offset="1" stop-color="#F69481"/>
</linearGradient>
<linearGradient id="paint7_linear_8_4518" x1="84.7834" y1="95.3442" x2="84.7834" y2="64.5997" gradientUnits="userSpaceOnUse">
<stop stop-color="#F9B19D"/>
<stop offset="0.21" stop-color="#F69B8E"/>
<stop offset="0.47" stop-color="#F48781"/>
<stop offset="0.74" stop-color="#F37B79"/>
<stop offset="1" stop-color="#F37777"/>
</linearGradient>
<linearGradient id="paint8_linear_8_4518" x1="85.1323" y1="89.3917" x2="85.1323" y2="69.174" gradientUnits="userSpaceOnUse">
<stop stop-color="#FEE8D9"/>
<stop offset="0.99" stop-color="#B07DB7"/>
</linearGradient>
<linearGradient id="paint9_linear_8_4518" x1="91.4588" y1="88.2435" x2="91.4588" y2="79.5631" gradientUnits="userSpaceOnUse">
<stop stop-color="#FEE8D9"/>
<stop offset="0.99" stop-color="#B07DB7"/>
</linearGradient>
<linearGradient id="paint10_linear_8_4518" x1="187.063" y1="95.3442" x2="187.063" y2="64.5997" gradientUnits="userSpaceOnUse">
<stop stop-color="#F9B19D"/>
<stop offset="0.21" stop-color="#F69B8E"/>
<stop offset="0.47" stop-color="#F48781"/>
<stop offset="0.74" stop-color="#F37B79"/>
<stop offset="1" stop-color="#F37777"/>
</linearGradient>
<linearGradient id="paint11_linear_8_4518" x1="186.705" y1="-0.00342297" x2="186.705" y2="-0.00342297" gradientUnits="userSpaceOnUse">
<stop stop-color="#FEE8D9"/>
<stop offset="0.99" stop-color="#B07DB7"/>
</linearGradient>
<linearGradient id="paint12_linear_8_4518" x1="180.379" y1="88.2435" x2="180.379" y2="79.5631" gradientUnits="userSpaceOnUse">
<stop stop-color="#FEE8D9"/>
<stop offset="0.99" stop-color="#B07DB7"/>
</linearGradient>
<linearGradient id="paint13_linear_8_4518" x1="135.974" y1="148.934" x2="135.974" y2="119.025" gradientUnits="userSpaceOnUse">
<stop stop-color="#F9B19D"/>
<stop offset="0.21" stop-color="#F69B8E"/>
<stop offset="0.47" stop-color="#F48781"/>
<stop offset="0.74" stop-color="#F37B79"/>
<stop offset="1" stop-color="#F37777"/>
</linearGradient>
<linearGradient id="paint14_linear_8_4518" x1="135.845" y1="125.078" x2="135.845" y2="14.2163" gradientUnits="userSpaceOnUse">
<stop stop-color="#F8A796"/>
<stop offset="0.43" stop-color="#F8AB99"/>
<stop offset="0.53" stop-color="#F7A391"/>
<stop offset="0.77" stop-color="#F69785"/>
<stop offset="1" stop-color="#F69481"/>
</linearGradient>
<linearGradient id="paint15_linear_8_4518" x1="109.961" y1="83.5866" x2="110.42" y2="30.7964" gradientUnits="userSpaceOnUse">
<stop stop-color="#FEE8D9" stop-opacity="0.08"/>
<stop offset="0.26" stop-color="#E3C3CD"/>
<stop offset="0.58" stop-color="#C79DC1"/>
<stop offset="0.84" stop-color="#B685B9"/>
<stop offset="0.99" stop-color="#B07DB7"/>
</linearGradient>
<linearGradient id="paint16_linear_8_4518" x1="161.381" y1="87.2608" x2="161.289" y2="30.7963" gradientUnits="userSpaceOnUse">
<stop stop-color="#FEE8D9" stop-opacity="0"/>
<stop offset="0.26" stop-color="#E3C3CD"/>
<stop offset="0.58" stop-color="#C79DC1"/>
<stop offset="0.84" stop-color="#B685B9"/>
<stop offset="0.99" stop-color="#B07DB7"/>
</linearGradient>
<linearGradient id="paint17_linear_8_4518" x1="135.845" y1="96.8141" x2="135.845" y2="84.5328" gradientUnits="userSpaceOnUse">
<stop stop-color="#F3797E"/>
<stop offset="0.06" stop-color="#F37A7E"/>
<stop offset="0.53" stop-color="#F48680"/>
<stop offset="1" stop-color="#F58B81"/>
</linearGradient>
<linearGradient id="paint18_linear_8_4518" x1="128.224" y1="88.8593" x2="129.629" y2="88.8593" gradientUnits="userSpaceOnUse">
<stop stop-color="#FEE8D9"/>
<stop offset="0.99" stop-color="#B07DB7"/>
</linearGradient>
<linearGradient id="paint19_linear_8_4518" x1="143.31" y1="88.8593" x2="141.906" y2="88.8593" gradientUnits="userSpaceOnUse">
<stop stop-color="#FEE8D9"/>
<stop offset="0.99" stop-color="#B07DB7"/>
</linearGradient>
<linearGradient id="paint20_linear_8_4518" x1="110.486" y1="80.8222" x2="113.293" y2="63.1315" gradientUnits="userSpaceOnUse">
<stop stop-color="#ECE0EF"/>
<stop offset="1" stop-color="#BFC6E5"/>
</linearGradient>
<linearGradient id="paint21_linear_8_4518" x1="105.578" y1="68.9828" x2="120.569" y2="71.3589" gradientUnits="userSpaceOnUse">
<stop stop-color="#566596"/>
<stop offset="1" stop-color="#331C52"/>
</linearGradient>
<linearGradient id="paint22_linear_8_4518" x1="112.396" y1="74.7238" x2="114.601" y2="60.8253" gradientUnits="userSpaceOnUse">
<stop stop-color="#6976B8"/>
<stop offset="1" stop-color="#22134D"/>
</linearGradient>
<linearGradient id="paint23_linear_8_4518" x1="112.568" y1="73.1451" x2="113.607" y2="66.595" gradientUnits="userSpaceOnUse">
<stop stop-color="#C57DAA"/>
<stop offset="0.99" stop-color="#922F4F"/>
</linearGradient>
<linearGradient id="paint24_linear_8_4518" x1="106.245" y1="72.2269" x2="107.106" y2="70.9467" gradientUnits="userSpaceOnUse">
<stop stop-color="#ECE0EF"/>
<stop offset="1" stop-color="#BFC6E5"/>
</linearGradient>
<linearGradient id="paint25_linear_8_4518" x1="110.12" y1="72.6355" x2="110.27" y2="71.692" gradientUnits="userSpaceOnUse">
<stop stop-color="#ECE0EF"/>
<stop offset="1" stop-color="#BFC6E5"/>
</linearGradient>
<linearGradient id="paint26_linear_8_4518" x1="162.186" y1="80.8077" x2="159.38" y2="63.117" gradientUnits="userSpaceOnUse">
<stop stop-color="#ECE0EF"/>
<stop offset="1" stop-color="#BFC6E5"/>
</linearGradient>
<linearGradient id="paint27_linear_8_4518" x1="167.16" y1="69.7615" x2="152.169" y2="72.135" gradientUnits="userSpaceOnUse">
<stop stop-color="#566596"/>
<stop offset="1" stop-color="#331C52"/>
</linearGradient>
<linearGradient id="paint28_linear_8_4518" x1="159.143" y1="67.6434" x2="156.94" y2="53.7539" gradientUnits="userSpaceOnUse">
<stop stop-color="#6976B8"/>
<stop offset="1" stop-color="#22134D"/>
</linearGradient>
<linearGradient id="paint29_linear_8_4518" x1="160.083" y1="73.1707" x2="159.044" y2="66.6206" gradientUnits="userSpaceOnUse">
<stop stop-color="#C57DAA"/>
<stop offset="0.99" stop-color="#922F4F"/>
</linearGradient>
<linearGradient id="paint30_linear_8_4518" x1="167.076" y1="72.1502" x2="166.22" y2="70.8776" gradientUnits="userSpaceOnUse">
<stop stop-color="#ECE0EF"/>
<stop offset="1" stop-color="#BFC6E5"/>
</linearGradient>
<linearGradient id="paint31_linear_8_4518" x1="162.553" y1="72.6209" x2="162.403" y2="71.6774" gradientUnits="userSpaceOnUse">
<stop stop-color="#ECE0EF"/>
<stop offset="1" stop-color="#BFC6E5"/>
</linearGradient>
</defs>
</svg>
