<svg width="374" height="743" viewBox="0 0 374 743" fill="none" xmlns="http://www.w3.org/2000/svg">
<path d="M98.7135 337.239C116.973 335.84 132.905 349.483 134.305 367.7L82.1535 699.502L42.6588 697.004L68.405 374.733C65.8098 355.857 79.6819 338.698 98.7135 337.239Z" fill="url(#paint0_linear_8_4386)"/>
<path d="M133.399 373.447C113.234 374.126 89.5788 374.938 68.3329 375.668L59.8882 481.365L115.469 487.574L133.409 373.458L133.399 373.447Z" fill="url(#paint1_linear_8_4386)"/>
<path d="M26.4283 742.044H88.4356L84.5119 697.435H37.8081L26.4283 742.044Z" fill="#010101"/>
<path d="M33.8639 700.119C37.2315 699.45 40.7742 699.306 44.3684 699.759C47.4579 700.139 50.393 700.941 53.1324 702.093" stroke="white" stroke-width="2.56" stroke-linecap="round" stroke-linejoin="round"/>
<path d="M20.8363 710.584C25.9958 708.107 31.866 706.935 37.9833 707.449C42.1851 707.809 46.1397 708.929 49.7236 710.677" stroke="white" stroke-width="2.56" stroke-linecap="round" stroke-linejoin="round"/>
<path d="M67.5399 742.044H1.33083C1.33083 723.795 16.1504 708.991 34.4405 708.991C52.7307 708.991 67.5502 723.785 67.5502 742.044H67.5399Z" fill="#010101"/>
<path d="M0.723251 742.044H88.4357L87.8178 734.94H0.723251V742.044Z" fill="white"/>
<path d="M372.51 218.691C371.593 217.529 368.73 217.694 366.671 218.228L334.035 227.584L335.27 216.769C335.785 214.291 334.045 211.854 331.46 211.577C329.215 211.34 327.186 212.996 326.733 215.206L325.446 221.426C324.951 223.811 323.798 226.021 322.13 227.79C320.296 229.733 318.813 231.984 317.763 234.441L315.631 239.386L237.404 259.105L211.73 191.766L174.14 206.354L205.149 287.696C205.767 289.279 206.57 290.718 207.517 292.034C211.874 300.547 221.822 304.988 231.307 302.12L323.798 266.507C323.798 266.507 329.205 267.946 337.588 266.425C342.603 265.52 347.371 263.783 350.409 262.539L356.671 261.099C358.823 260.606 360.183 258.437 359.688 256.288L359.441 255.219C359.039 253.461 357.505 252.258 355.785 252.134L356.681 251.929C359.081 251.374 360.594 248.958 360.038 246.562L359.997 246.387C359.513 244.311 357.639 242.913 355.589 242.923C357.958 242.337 359.431 239.952 358.885 237.577L358.844 237.402C358.288 235.007 355.867 233.495 353.468 234.051L350.924 234.637L371.233 224.633C373.529 223.585 374.6 221.333 372.5 218.681L372.51 218.691Z" fill="url(#paint2_linear_8_4386)"/>
<path d="M356.496 260.349L345.682 262.837C343.931 263.238 342.201 262.148 341.8 260.41L341.552 259.341C341.357 258.509 341.501 257.635 341.964 256.905C342.325 256.319 342.881 255.938 343.499 255.681L344.961 255.239L354.786 252.977C355.208 252.875 355.466 252.463 355.373 252.042C355.27 251.62 354.858 251.353 354.426 251.456L343.612 253.944C343.252 254.026 342.902 254.16 342.572 254.324L341.841 254.54C340.883 254.766 339.894 254.592 339.06 254.067C338.216 253.543 337.639 252.731 337.371 251.6C337.155 250.644 337.32 249.657 337.845 248.814C338.36 247.991 339.163 247.426 340.1 247.189C340.42 247.179 340.729 247.159 341.048 247.087L351.552 244.671C351.975 244.568 352.232 244.157 352.139 243.735C352.036 243.314 351.624 243.057 351.192 243.149L340.698 245.565C338.72 246.038 336.722 244.784 336.228 242.625C335.775 240.641 337.011 238.656 338.998 238.204L349.678 235.747C350.1 235.644 350.358 235.233 350.265 234.811C350.162 234.39 349.76 234.123 349.318 234.225L338.638 236.682C335.806 237.34 334.035 240.168 334.735 243.159C335.054 244.537 335.909 245.627 337.011 246.336C335.662 247.56 331.378 250.613 323.159 249.893C322.613 249.862 322.202 250.222 322.16 250.726C322.119 251.23 322.49 251.682 322.995 251.723C323.911 251.805 324.776 251.836 325.6 251.836C330.451 251.836 333.798 250.561 335.95 249.318C335.703 250.181 335.662 251.127 335.888 252.124C336.414 254.396 338.35 255.959 340.584 256.154C339.946 257.223 339.73 258.478 340.018 259.691L340.265 260.76C340.78 262.97 342.768 264.482 344.951 264.482C345.301 264.482 345.672 264.441 346.032 264.358L356.846 261.87C357.268 261.768 357.525 261.356 357.433 260.935C357.33 260.513 356.918 260.256 356.485 260.349H356.496Z" fill="url(#paint3_linear_8_4386)"/>
<path d="M234.705 230.822L229.525 234.698C218.619 242.871 205.808 248.166 192.296 250.078L185.787 250.993L162.781 193.328C157.199 179.85 176.972 153.079 176.972 153.079C192.718 156.081 206.106 159.68 211.688 173.158L234.695 230.822H234.705Z" fill="#F79327"/>
<path d="M169.598 337.424C187.816 335.563 204.088 348.794 205.952 366.971L222.893 539.029C223.181 541.959 223.264 544.9 223.15 547.84L217.445 694.433L177.693 698.494L169.197 554.687C169.001 551.356 168.63 548.046 168.084 544.745L140.258 375.668C137.178 356.865 150.608 339.356 169.598 337.413V337.424Z" fill="url(#paint4_linear_8_4386)"/>
<path d="M217.445 694.433L269.762 711.304C278.258 714.049 284.797 720.886 287.156 729.48L288.731 741.745H179.021L177.714 698.494L217.466 694.433H217.445Z" fill="#010101"/>
<path d="M241.729 734.641C244.396 719.827 253.459 711.746 259.36 707.953L263.922 709.423C259.391 711.818 248.444 719.107 245.354 734.641H287.794L288.701 741.745H178.991L178.774 734.641H241.719H241.729Z" fill="white"/>
<path d="M238.474 712.264L239.1 712.889C240.259 714.045 242.137 714.045 243.295 712.889L251.458 704.74C252.616 703.583 252.616 701.709 251.458 700.552L250.832 699.927C249.674 698.771 247.796 698.771 246.637 699.927L238.474 708.076C237.316 709.233 237.316 711.107 238.474 712.264Z" fill="white"/>
<path d="M228.293 709.438L227.674 708.82C226.516 707.664 226.516 705.789 227.674 704.633L235.83 696.491C236.988 695.335 238.867 695.335 240.024 696.491L240.643 697.109C241.801 698.265 241.801 700.14 240.643 701.296L232.487 709.438C231.33 710.594 229.451 710.594 228.293 709.438Z" fill="white"/>
<path d="M216.407 704.926L217.033 705.551C218.191 706.707 220.069 706.707 221.227 705.551L229.389 697.4C230.547 696.243 230.547 694.369 229.389 693.213L228.762 692.588C227.604 691.432 225.726 691.432 224.568 692.588L216.406 700.739C215.248 701.895 215.248 703.77 216.407 704.926Z" fill="white"/>
<path d="M202.214 316.728H74.8622C74.8622 316.728 50.9388 347.612 53.6473 392.971C56.1086 434.207 51.4331 469.963 51.4331 469.963L134.007 476.296L142.472 438.71L144.171 476.296L225.148 466.098L202.214 316.718V316.728Z" fill="#545571"/>
<path d="M203.944 327.955L202.224 316.728H74.8622C74.8622 316.728 67.4267 326.331 61.3196 342.687C154.645 350.593 203.944 327.955 203.944 327.955Z" fill="#545571"/>
<path d="M159.145 370.507H161.102C165.407 370.507 168.888 367.022 168.888 362.735L169.547 316.739" stroke="#7EA3D4" stroke-width="0.64" stroke-linecap="round" stroke-linejoin="round"/>
<path d="M142.472 438.72C142.472 438.72 157.909 416.483 158.301 387.1C158.692 357.718 160.268 316.728 160.268 316.728" stroke="#7EA3D4" stroke-width="0.64" stroke-linecap="round" stroke-linejoin="round"/>
<path d="M199.618 176.468C200.236 165.642 192.708 156.05 182.039 154.035L157.446 149.399C144.799 147.26 131.885 147.271 119.238 149.409L69.6923 158.806C69.6923 158.806 81.9475 236.95 78.2504 271.38C76.6438 286.328 71.4328 320.995 71.4328 320.995C71.4328 320.995 86.7982 336.807 138.342 336.807C189.886 336.807 203.933 327.955 203.933 327.955C203.933 327.955 199.402 286.39 198.733 271.37C197.507 243.982 198.156 202.119 199.618 176.458V176.468Z" fill="#F79327"/>
<path d="M173.666 152.452L172.286 152.195C171.421 169.621 161.226 183.541 143.038 183.541C124.851 183.541 105.263 169.642 104.378 152.226L102.998 152.483C104.017 170.536 124.182 184.919 143.038 184.919C161.895 184.919 172.657 170.515 173.666 152.442V152.452Z" fill="#F79327"/>
<path d="M143.203 178.144C158.754 178.144 166.828 166.352 168.383 151.239L157.446 149.399C144.799 147.271 131.885 147.271 119.239 149.409L108.6 151.208C110.135 166.331 127.642 178.144 143.203 178.144Z" fill="#F79327"/>
<path d="M38.1377 325.118C27.3861 322.239 21.001 311.197 23.8846 300.464L45.0995 223.585L84.0485 234.009L62.8335 310.889C59.9499 321.622 48.8893 327.996 38.1377 325.118Z" fill="url(#paint5_linear_8_4386)"/>
<path d="M32.7413 268.347C32.7413 268.347 37.8699 263.454 51.4228 263.926C65.542 264.42 74.3267 269.211 74.3267 269.211L84.0382 234.009L45.0892 223.585L32.7413 268.337V268.347Z" fill="url(#paint6_linear_8_4386)"/>
<path d="M80.1659 262.045L26.5622 255.496L48.3023 178.977C51.5876 164.758 65.7892 155.896 80.032 159.176C94.2749 162.455 103.152 176.633 99.867 190.851L80.1762 262.045H80.1659Z" fill="#F79327"/>
<path d="M101.597 742.043C71.9272 741.005 48.4981 715.93 49.5382 686.312L56.9531 474.476C57.9933 444.858 83.1114 421.469 112.781 422.507C142.451 423.546 165.88 448.62 164.84 478.239L157.425 690.074C156.385 719.693 131.267 743.082 101.597 742.043Z" fill="#28BBB0"/>
<path d="M107.879 742.043C78.2093 741.005 54.7802 715.93 55.8204 686.312L63.2353 474.476C64.2754 444.858 89.3935 421.469 119.064 422.507C148.734 423.546 172.163 448.62 171.122 478.239L163.708 690.074C162.667 719.693 137.549 743.082 107.879 742.043Z" fill="#59C5C4"/>
<path d="M168.043 514.767L156.88 514.314C147.601 513.934 140.33 506.059 140.701 496.796C141.082 487.533 148.97 480.275 158.249 480.645L169.413 481.097C178.692 481.478 185.963 489.353 185.592 498.616C185.211 507.879 177.322 515.137 168.043 514.767Z" fill="#8D8493"/>
<path d="M164.727 497.516C164.439 504.507 159.588 509.986 153.883 509.75C148.178 509.524 143.79 503.663 144.068 496.673C144.346 489.682 149.207 484.202 154.913 484.438C160.618 484.675 165.005 490.525 164.727 497.516Z" fill="#545571"/>
<path d="M159.413 497.3C159.279 500.682 156.921 503.345 154.161 503.232C151.401 503.119 149.269 500.281 149.403 496.899C149.537 493.516 151.895 490.854 154.655 490.967C157.415 491.08 159.547 493.917 159.413 497.3Z" fill="#8D8493"/>
<path d="M153.203 490.771L108.714 488.962C105.253 488.818 102.329 491.512 102.184 494.966C102.04 498.42 104.738 501.34 108.199 501.484L120.351 501.977L120.032 509.904C119.815 515.229 124.007 519.773 129.342 519.989C134.676 520.205 139.228 516.021 139.444 510.696L139.764 502.769L152.688 503.293C156.149 503.437 159.073 500.744 159.218 497.279C159.362 493.815 156.664 490.905 153.193 490.761L153.203 490.771Z" fill="white"/>
<path d="M99.62 511.991L88.4564 511.539C79.1775 511.158 71.9067 503.283 72.2775 494.02C72.6585 484.757 80.5472 477.499 89.8261 477.869L100.99 478.321C110.269 478.702 117.539 486.577 117.169 495.84C116.788 505.103 108.899 512.361 99.62 511.991Z" fill="#8D8493"/>
<path d="M96.3039 494.74C96.0156 501.731 91.165 507.21 85.4596 506.974C79.7542 506.748 75.3671 500.888 75.6451 493.897C75.9335 486.906 80.7841 481.426 86.4894 481.663C92.1948 481.889 96.582 487.749 96.3039 494.74Z" fill="#545571"/>
<path d="M90.9796 494.524C90.8457 497.906 88.4874 500.569 85.7274 500.456C82.9674 500.343 80.8356 497.505 80.9695 494.123C81.1034 490.741 83.4617 488.078 86.2217 488.191C88.9817 488.304 91.1135 491.141 90.9796 494.524Z" fill="#8D8493"/>
<path d="M168.373 657.279L157.22 656.806C147.951 656.415 140.031 663.663 139.64 672.916C139.249 682.168 146.509 690.074 155.778 690.465L166.931 690.938C176.2 691.329 184.119 684.081 184.511 674.828C184.902 665.575 177.642 657.669 168.373 657.279Z" fill="#8D8493"/>
<path d="M163.636 674.201C163.934 667.21 159.557 661.35 153.852 661.103C148.147 660.856 143.286 666.326 142.987 673.317C142.688 680.308 147.065 686.168 152.771 686.414C158.476 686.661 163.337 681.192 163.636 674.201Z" fill="#545571"/>
<path d="M158.322 673.975C158.466 670.592 156.344 667.744 153.584 667.631C150.824 667.518 148.466 670.16 148.322 673.553C148.178 676.935 150.299 679.783 153.059 679.896C155.819 680.009 158.178 677.367 158.322 673.975Z" fill="#8D8493"/>
<path d="M151.597 679.958L107.107 678.066C103.647 677.922 100.949 674.992 101.103 671.538C101.247 668.084 104.182 665.39 107.643 665.544L119.795 666.058L120.135 658.132C120.361 652.806 124.913 648.632 130.248 648.859C135.582 649.085 139.764 653.629 139.537 658.954L139.197 666.881L152.122 667.426C155.582 667.57 158.28 670.5 158.126 673.954C157.982 677.408 155.047 680.102 151.586 679.948L151.597 679.958Z" fill="white"/>
<path d="M99.9496 654.369L88.7963 653.896C79.5276 653.506 71.608 660.753 71.2167 670.006C70.8254 679.259 78.0858 687.165 87.3545 687.555L98.5078 688.028C107.776 688.419 115.696 681.171 116.087 671.918C116.479 662.666 109.218 654.76 99.9496 654.369Z" fill="#8D8493"/>
<path d="M95.2122 671.291C95.5108 664.3 91.1339 658.44 85.4286 658.194C79.7232 657.947 74.8623 663.416 74.5636 670.407C74.265 677.398 78.6419 683.258 84.3472 683.505C90.0526 683.752 94.9135 678.282 95.2122 671.291Z" fill="#545571"/>
<path d="M89.8982 671.065C90.0424 667.683 87.9209 664.835 85.1609 664.722C82.4009 664.609 80.0426 667.251 79.8984 670.644C79.7542 674.036 81.8757 676.874 84.6357 676.987C87.3957 677.1 89.7541 674.458 89.8982 671.065Z" fill="#8D8493"/>
<path d="M145.314 439.306L140.402 424.779C140.031 423.669 139.259 422.733 138.25 422.137L123.327 413.368L123.378 413.347L89.8053 396.589L62.5967 301.832C59.0231 291.304 47.5815 285.66 37.0255 289.227C26.4798 292.795 20.8259 304.217 24.3995 314.755L63.6883 408.279C71.2165 429.663 76.891 426.291 84.0588 428.151L81.134 432.87C79.8776 434.896 80.0424 437.497 81.5459 439.357L86.4274 445.382C87.3646 446.533 88.827 447.13 90.2997 446.945L93.3068 446.585C95.4077 446.338 97.2512 445.073 98.2501 443.213L100.094 439.779L99.3109 444.354L105.48 441.948C107.313 441.228 108.796 439.83 109.609 438.041L111.607 433.641L110.433 439.779L116.787 437.908C119.197 437.198 121.092 435.348 121.854 432.963L123.389 428.162L132.544 432.346L138.239 442.472C138.929 443.696 140.227 444.457 141.638 444.457C144.305 444.457 146.179 441.845 145.325 439.327L145.314 439.306Z" fill="url(#paint7_linear_8_4386)"/>
<path d="M78.4873 261.839L83.1422 221.374" stroke="#93596F" stroke-width="0.64" stroke-linecap="round" stroke-linejoin="round"/>
<path d="M198.259 248.999V215.535" stroke="#93596F" stroke-width="0.64" stroke-linecap="round" stroke-linejoin="round"/>
<path d="M179.495 73.7118C179.495 73.7118 181.122 68.4892 189.248 65.2405C197.373 61.9918 200.442 66.8648 200.988 72.2725C201.534 77.6802 195.211 91.3742 189.073 93.7182C182.935 96.0622 179.505 91.734 179.505 91.734V73.7118H179.495Z" fill="url(#paint8_linear_8_4386)"/>
<path style="mix-blend-mode:multiply" opacity="0.6" d="M179.495 83.0673V88.5573C179.495 88.5573 182.018 82.2654 183.553 82.3579C185.087 82.4505 184.459 86.5936 184.995 88.0329C185.54 89.4722 187.703 87.9404 188.187 83.2524C188.671 78.5644 185.448 78.6158 185.448 78.6158C185.448 78.6158 189.032 70.2472 193.45 72.6735C197.878 75.11 195.314 86.2544 195.314 86.2544C195.314 86.2544 201.4 75.6755 200.123 71.779C198.846 67.8826 195.067 67.6051 188.929 71.2959C185.921 73.1053 182.986 77.1662 180.772 80.8261C180.309 81.5972 179.876 82.3477 179.485 83.057L179.495 83.0673Z" fill="url(#paint9_linear_8_4386)"/>
<path style="mix-blend-mode:multiply" opacity="0.6" d="M179.495 82.5636V86.3058C180.422 84.5272 182.811 80.2607 183.924 81.3607C185.304 82.7383 184.572 85.2777 185.726 87.046C186.879 88.804 188.537 84.0646 187.58 80.9084C186.622 77.7522 182.832 79.0064 181.699 79.9008C181.431 80.1167 181.122 80.4354 180.793 80.8261C180.381 81.3196 179.938 81.9262 179.506 82.5533L179.495 82.5636Z" fill="url(#paint10_linear_8_4386)"/>
<path d="M155.994 146.469V118.906L139.949 120.818L123.904 118.906V146.469C123.904 151.249 120.485 152.822 120.485 152.822C120.485 152.822 123.729 157.459 139.959 157.459C156.19 157.459 159.434 152.822 159.434 152.822C159.434 152.822 156.015 151.249 156.015 146.469H155.994Z" fill="url(#paint11_linear_8_4386)"/>
<g style="mix-blend-mode:multiply" opacity="0.6">
<path d="M155.994 118.906V140.3C153.44 142.891 150.103 144.937 145.829 145.256C135.314 146.037 126.756 133.525 123.893 128.776V118.906L139.949 120.818L155.994 118.906Z" fill="#CE78B1"/>
</g>
<path d="M180.257 65.7134C180.257 52.112 182.193 20.6117 139.815 20.6117C97.4366 20.6117 99.3728 52.112 99.3728 65.7134C99.3728 79.3148 100.423 100.432 104.388 107.32C113.914 123.831 135.675 129.577 143.625 129.577C151.576 129.577 174.15 123.831 183.676 107.32C187.652 100.442 180.257 79.9214 180.257 65.7134Z" fill="url(#paint12_linear_8_4386)"/>
<path d="M159.073 97.4604C158.465 97.7894 156.231 97.0697 154.058 98.0258C151.885 98.9922 150.937 99.1978 149.31 99.1978C147.683 99.1978 146.735 98.9819 144.562 98.0258C142.39 97.0697 140.155 97.7894 139.547 97.4604C139.001 97.1622 137.899 95.2295 140.474 91.8471C140.752 91.477 141.071 91.0966 141.442 90.6956C145.242 86.6142 149.3 87.1488 149.3 87.1488C149.3 87.1488 153.368 86.6039 157.158 90.6956C157.528 91.0966 157.848 91.477 158.126 91.8471C160.7 95.2192 159.598 97.1622 159.053 97.4604H159.073Z" fill="url(#paint13_linear_8_4386)"/>
<g style="mix-blend-mode:multiply" opacity="0.6">
<path d="M159.073 97.4604C158.465 97.7894 156.231 97.0697 154.058 98.0258C151.885 98.9922 150.937 99.1978 149.31 99.1978C147.683 99.1978 146.735 98.9819 144.562 98.0258C142.389 97.0697 140.155 97.7894 139.547 97.4604C139.001 97.1622 137.899 95.2295 140.474 91.8471C140.474 91.8471 139.98 94.4173 141.37 95.1986C141.37 95.1986 145.458 95.9799 149.31 95.9799C153.162 95.9799 157.25 95.1986 157.25 95.1986C158.63 94.4173 158.146 91.8471 158.146 91.8471C160.721 95.2192 159.619 97.1622 159.073 97.4604Z" fill="#CE78B1"/>
</g>
<path style="mix-blend-mode:multiply" opacity="0.6" d="M141.802 90.3255C142.904 90.2536 143.038 93.163 143.038 93.163C143.038 93.163 143.564 90.4592 142.606 89.5956L141.802 90.3358V90.3255Z" fill="url(#paint14_linear_8_4386)"/>
<path style="mix-blend-mode:multiply" opacity="0.6" d="M156.663 90.3255C155.561 90.2536 155.427 93.163 155.427 93.163C155.427 93.163 154.902 90.4592 155.86 89.5956L156.663 90.3358V90.3255Z" fill="url(#paint15_linear_8_4386)"/>
<path d="M141.802 97.5015C141.802 97.5015 143.533 97.1519 145.84 98.509C145.84 98.509 143.862 98.252 141.802 97.5015Z" fill="#4F1C3E"/>
<path d="M156.663 97.5015C156.663 97.5015 154.933 97.1519 152.626 98.509C152.626 98.509 154.603 98.252 156.663 97.5015Z" fill="#4F1C3E"/>
<g style="mix-blend-mode:multiply" opacity="0.6">
<path d="M139.557 97.4604C139.557 97.4604 140.268 96.237 141.782 95.2808C141.782 95.2808 144.717 95.9902 149.31 95.9902C153.903 95.9902 157.25 95.2089 157.25 95.2089C157.25 95.2089 158.805 96.237 159.063 97.4604C159.063 97.4604 155.263 102.518 149.3 102.518C143.337 102.518 139.537 97.4604 139.537 97.4604H139.557Z" fill="#CE78B1"/>
</g>
<path d="M152.626 92.0116C152.091 92.3406 152.513 93.2247 152.873 93.2247C153.234 93.2247 153.914 93.2247 153.862 92.6182C153.821 92.0116 153.275 91.6004 152.616 92.0116H152.626Z" fill="#FCCEC0"/>
<path d="M105.439 75.4904C105.439 75.4904 103.811 70.2678 95.6858 67.0191C87.5603 63.7704 84.4913 68.6434 83.9455 74.0511C83.3997 79.4588 89.723 93.1528 95.8609 95.4968C101.999 97.8408 105.428 93.5126 105.428 93.5126V75.4904H105.439Z" fill="url(#paint16_linear_8_4386)"/>
<path style="mix-blend-mode:multiply" opacity="0.6" d="M105.439 84.8459V90.3358C105.439 90.3358 102.915 84.044 101.381 84.1365C99.8465 84.2291 100.475 88.3722 99.9392 89.8115C99.3934 91.2508 97.2307 89.719 96.7466 85.031C96.2626 80.343 99.486 80.3944 99.486 80.3944C99.486 80.3944 95.9022 72.0258 91.4841 74.4521C87.0557 76.8886 89.6201 88.033 89.6201 88.033C89.6201 88.033 83.5337 77.4541 84.8107 73.5576C86.0877 69.6612 89.8672 69.3837 96.0051 73.0744C99.0123 74.8839 101.947 78.9448 104.162 82.6047C104.625 83.3758 105.058 84.1263 105.449 84.8356L105.439 84.8459Z" fill="url(#paint17_linear_8_4386)"/>
<path style="mix-blend-mode:multiply" opacity="0.6" d="M105.438 84.3422V88.0844C104.512 86.3058 102.122 82.0393 101.01 83.1393C99.6301 84.5169 100.361 87.0563 99.2079 88.8246C98.0544 90.5826 96.3964 85.8432 97.3542 82.687C98.3119 79.5308 102.102 80.785 103.235 81.6794C103.502 81.8953 103.811 82.214 104.141 82.6047C104.553 83.0982 104.996 83.7048 105.428 84.3319L105.438 84.3422Z" fill="url(#paint18_linear_8_4386)"/>
<path d="M134.851 83.5197C134.851 83.5197 126.324 86.2955 122.04 85.6169C118.445 85.0515 116.149 80.0242 116.139 77.5568C116.139 77.0839 116.221 76.7035 116.386 76.467C118.322 73.8043 127.148 69.6715 131.36 72.6529C133.471 74.1436 134.346 76.8783 134.686 79.2223C135.026 81.556 134.851 83.5197 134.851 83.5197Z" fill="url(#paint19_linear_8_4386)"/>
<path d="M132.967 78.1022C133.457 74.6675 131.064 71.4874 127.623 70.9991C124.183 70.5109 120.997 72.8995 120.508 76.3342C120.019 79.7689 122.412 82.949 125.852 83.4372C129.293 83.9254 132.478 81.5368 132.967 78.1022Z" fill="url(#paint20_linear_8_4386)"/>
<path d="M132.481 77.9127C132.872 74.7457 130.617 71.8621 127.444 71.4721C124.272 71.0821 121.383 73.3334 120.993 76.5004C120.602 79.6675 122.857 82.5511 126.03 82.9411C129.202 83.331 132.091 81.0798 132.481 77.9127Z" fill="#030303"/>
<path d="M130.278 77.4766C130.42 75.5285 128.953 73.8345 127.001 73.6928C125.05 73.5511 123.353 75.0154 123.211 76.9635C123.069 78.9115 124.536 80.6056 126.487 80.7473C128.439 80.889 130.136 79.4246 130.278 77.4766Z" fill="#030303"/>
<g style="mix-blend-mode:multiply" opacity="0.6">
<path d="M134.686 79.2223C131.432 76.9811 125.5 75.881 116.139 77.5568C116.139 77.0839 116.221 76.7035 116.386 76.467C118.322 73.8043 127.148 69.6715 131.36 72.6529C133.471 74.1436 134.346 76.8783 134.686 79.2223Z" fill="#CE78B1"/>
</g>
<path d="M124.738 69.0443C119.815 69.7434 116.664 76.1175 116.664 76.1175C116.664 76.1175 121.792 71.1313 127.961 72.9613C133.234 74.5343 134.449 77.9269 134.439 77.9166C134.439 77.9166 134.563 67.6462 124.738 69.0341V69.0443Z" fill="#DD4D6B"/>
<path d="M116.849 80.5485C119.125 83.0365 121.102 85.6169 125.963 85.5552C125.963 85.5552 123.286 86.3366 120.382 85.1235C117.477 83.9103 116.849 80.5485 116.849 80.5485Z" fill="#DC6B7D"/>
<path d="M134.861 81.0009C134.861 81.0009 136.128 82.5019 135.459 83.4991C134.789 84.4963 131.978 84.3524 131.978 84.3524C131.978 84.3524 134.12 83.7561 134.532 83.1084C134.944 82.4607 134.861 81.0009 134.861 81.0009Z" fill="#DC6B7D"/>
<path d="M116.386 76.467C116.386 76.467 117.683 72.4678 125.768 71.7585C132.019 71.2136 134.418 75.2539 134.758 75.9838C135.098 76.7138 134.449 77.9269 134.449 77.9269C134.449 77.9269 131.288 73.1566 125.448 73.1772C119.609 73.208 116.396 76.4568 116.396 76.4568L116.386 76.467Z" fill="#4F1C3E"/>
<path d="M119.671 77.9577C119.671 77.9577 120.062 77.5362 122.915 78.7185C123.008 78.7596 122.894 78.9138 122.791 78.9036C122.101 78.811 119.681 78.4615 119.671 77.9577Z" fill="url(#paint21_linear_8_4386)"/>
<path d="M124.099 78.5643C123.687 78.9139 124.027 79.2223 124.48 79.2737C124.81 79.3148 124.861 78.7905 124.728 78.6568C124.594 78.5232 124.367 78.3381 124.099 78.554V78.5643Z" fill="url(#paint22_linear_8_4386)"/>
<path d="M157.415 83.6019C157.415 83.6019 165.942 86.3777 170.226 85.6991C173.821 85.1337 176.117 80.1064 176.127 77.639C176.127 77.1661 176.045 76.7857 175.88 76.5493C173.944 73.8866 165.118 69.7537 160.906 72.7351C158.795 74.2258 157.92 76.9605 157.58 79.3045C157.24 81.6383 157.415 83.6019 157.415 83.6019Z" fill="url(#paint23_linear_8_4386)"/>
<path d="M171.524 79.2631C172.605 75.9661 170.805 72.4183 167.502 71.3387C164.199 70.2592 160.645 72.0568 159.564 75.3538C158.483 78.6507 160.283 82.1986 163.586 83.2781C166.889 84.3576 170.442 82.5601 171.524 79.2631Z" fill="url(#paint24_linear_8_4386)"/>
<path d="M168.946 81.9469C171.524 80.0614 172.084 76.446 170.195 73.8716C168.306 71.2973 164.684 70.7389 162.106 72.6244C159.527 74.5099 158.968 78.1253 160.856 80.6997C162.745 83.274 166.367 83.8324 168.946 81.9469Z" fill="#030303"/>
<path d="M162.018 77.8549C162.327 79.7877 164.14 81.1036 166.076 80.7952C168.012 80.4868 169.33 78.6774 169.021 76.7446C168.713 74.8118 166.9 73.4959 164.964 73.8043C163.028 74.1127 161.71 75.9221 162.018 77.8549Z" fill="#030303"/>
<g style="mix-blend-mode:multiply" opacity="0.6">
<path d="M157.58 79.3045C160.834 77.0633 166.766 75.9633 176.127 77.639C176.127 77.1661 176.045 76.7857 175.88 76.5493C173.944 73.8866 165.118 69.7537 160.906 72.7351C158.795 74.2258 157.92 76.9605 157.58 79.3045Z" fill="#CE78B1"/>
</g>
<path d="M167.518 69.1266C172.44 69.8257 175.592 76.1997 175.592 76.1997C175.592 76.1997 170.463 71.2136 164.294 73.0435C159.022 74.6165 157.806 78.0091 157.817 77.9989C157.817 77.9989 157.693 67.7284 167.518 69.1163V69.1266Z" fill="#DD4D6B"/>
<path d="M175.417 80.6307C173.141 83.1187 171.163 85.6991 166.303 85.6374C166.303 85.6374 168.98 86.4188 171.884 85.2056C174.789 83.9925 175.417 80.6307 175.417 80.6307Z" fill="#DC6B7D"/>
<path d="M157.405 81.0831C157.405 81.0831 156.138 82.5841 156.807 83.5813C157.487 84.5785 160.288 84.4346 160.288 84.4346C160.288 84.4346 158.146 83.8383 157.734 83.1906C157.322 82.5429 157.405 81.0831 157.405 81.0831Z" fill="#DC6B7D"/>
<path d="M175.88 76.5493C175.88 76.5493 174.583 72.5501 166.498 71.8407C160.247 71.2958 157.848 75.3259 157.508 76.0661C157.168 76.796 157.817 78.0092 157.817 78.0092C157.817 78.0092 160.978 73.2389 166.818 73.2594C172.657 73.2903 175.87 76.539 175.87 76.539L175.88 76.5493Z" fill="#4F1C3E"/>
<path d="M172.595 78.0502C172.595 78.0502 172.204 77.6287 169.351 78.811C169.258 78.8521 169.372 79.0064 169.475 78.9961C170.165 78.9036 172.585 78.554 172.595 78.0502Z" fill="url(#paint25_linear_8_4386)"/>
<path d="M168.167 78.6465C168.579 78.9961 168.239 79.3045 167.786 79.3559C167.456 79.397 167.405 78.8727 167.539 78.7391C167.672 78.6054 167.899 78.4204 168.167 78.6363V78.6465Z" fill="url(#paint26_linear_8_4386)"/>
<g style="mix-blend-mode:multiply" opacity="0.6">
<path d="M139.012 113.766C139.012 113.766 143.615 120.972 152.307 119.667C159.351 118.608 162.317 110.27 162.317 110.27C162.317 110.27 152.462 115.997 139.022 113.766H139.012Z" fill="#CE78B1"/>
</g>
<path d="M134.511 107.001C134.511 107.001 142.348 107.577 149.887 106.446C157.425 105.315 164.449 102.508 164.449 102.508C164.449 102.508 157.755 115.256 150.69 116.315C143.625 117.374 134.511 106.991 134.511 106.991V107.001Z" fill="#842852"/>
<path d="M149.547 105.253C147.59 105.551 134.511 107.001 134.511 107.001C138.517 108.605 145.088 108.923 149.99 108.183C154.892 107.443 161.092 105.222 164.439 102.508C164.439 102.508 151.504 104.955 149.547 105.243V105.253Z" fill="#DE4E6C"/>
<path d="M134.511 107.001C134.511 107.001 142.101 114.043 150.68 112.758C159.259 111.473 164.439 102.519 164.439 102.519C164.439 102.519 165.201 114.629 151.421 116.685C137.642 118.752 134.511 107.001 134.511 107.001Z" fill="#EF7172"/>
<path d="M137.436 107.865C137.436 107.865 138.075 108.677 139.269 109.797C139.269 109.797 144.295 112.193 151.03 111.185C156.2 110.414 161.195 106.302 161.195 106.302L161.905 104.205C161.905 104.205 150.937 110.558 137.436 107.875V107.865Z" fill="#FCDFEB"/>
<path d="M135.15 107.237C135.15 107.237 133.698 106.826 133.193 105.788C133.193 105.788 133.337 105.428 133.543 104.904C133.543 104.904 132.246 105.048 132.338 106.59C132.338 106.59 134.161 107.32 135.201 107.587L135.15 107.237Z" fill="#842852"/>
<path d="M163.79 102.95C163.79 102.95 165.057 102.128 165.232 100.987C165.232 100.987 164.995 100.678 164.634 100.246C164.634 100.246 165.911 100.01 166.282 101.511C166.282 101.511 164.748 102.745 163.841 103.3L163.79 102.95Z" fill="#842852"/>
<path d="M156.262 112.1C156.262 112.1 155.469 113.786 157.117 114.938C157.117 114.938 159.866 113.611 161.813 110.99C161.813 110.99 161.627 109.612 160.742 109.324C160.742 109.324 159.001 110.034 156.251 112.1H156.262Z" fill="#F5A79C"/>
<g style="mix-blend-mode:multiply">
<path d="M138.517 62.917C138.517 62.917 136.097 62.2488 130.557 62.8245C128.909 62.9993 126.993 63.2769 124.779 63.7189C115.109 65.6517 108.477 68.3864 108.477 68.3864C108.507 68.2116 110.608 63.5956 113.791 61.231C113.77 61.2824 113.44 62.0637 113.605 62.8348C113.605 62.8348 117.138 59.2776 122.431 57.2935C123.42 56.9233 124.47 56.6046 125.562 56.3785C132.554 54.9392 136.602 59.658 136.602 59.658C136.602 59.658 136.241 58.3421 135.387 57.643C135.387 57.643 137.889 58.815 138.528 62.9273L138.517 62.917Z" fill="#232323"/>
<g style="mix-blend-mode:multiply" opacity="0.6">
<path d="M130.546 62.8348C128.899 63.0095 126.983 63.2871 124.769 63.7292C115.099 65.662 108.466 68.3967 108.466 68.3967C108.497 68.2219 110.598 63.6058 113.78 61.2413C113.76 61.2927 113.43 62.074 113.595 62.8451C113.595 62.8451 117.127 59.2879 122.421 57.3037C120.619 58.5271 116.726 61.2721 114.759 64.9012C114.759 64.9012 119.774 62.331 130.546 62.8451V62.8348Z" fill="#232323"/>
</g>
</g>
<g style="mix-blend-mode:multiply">
<path d="M155.366 61.0357C155.366 61.0357 157.302 60.4702 161.771 60.8609C163.1 60.974 164.645 61.1796 166.426 61.5086C174.233 62.9376 179.598 65.0452 179.598 65.0452C179.567 64.9012 177.827 61.2207 175.232 59.3599C175.242 59.401 175.52 60.0179 175.396 60.645C175.396 60.645 172.513 57.8281 168.229 56.3065C167.425 56.0186 166.581 55.7822 165.695 55.6177C160.052 54.5485 156.859 58.3935 156.859 58.3935C156.859 58.3935 157.127 57.3243 157.817 56.7589C157.817 56.7589 155.819 57.7355 155.366 61.0459V61.0357Z" fill="#030303"/>
<g style="mix-blend-mode:multiply" opacity="0.6">
<path d="M161.771 60.8609C163.1 60.974 164.645 61.1796 166.426 61.5086C174.233 62.9376 179.598 65.0451 179.598 65.0451C179.567 64.9012 177.827 61.2207 175.232 59.3599C175.242 59.401 175.52 60.0179 175.396 60.645C175.396 60.645 172.513 57.8281 168.229 56.3065C169.691 57.2626 172.863 59.4216 174.49 62.3207C174.49 62.3207 170.422 60.316 161.771 60.8712V60.8609Z" fill="#030303"/>
</g>
</g>
<path d="M104.707 29.2784C104.707 29.2784 87.1173 15.6975 85.3769 33.586C84.8208 39.3124 88.1781 52.7082 104.264 65.4564L103.265 57.0467C103.265 57.0467 82.4727 44.3191 87.1894 32.5168C90.1657 25.0735 101.916 30.8308 101.916 30.8308L104.707 29.2887V29.2784Z" fill="url(#paint27_linear_8_4386)"/>
<path d="M189.423 50.7138C188.372 52.5129 187.394 52.2867 187.394 52.2867L182.688 85.5655C182.688 85.5655 181.483 65.8162 178.063 54.1578C178.063 54.1578 172.863 41.7489 163.501 38.603C163.501 38.603 147.003 40.5461 122.04 38.9012C122.04 38.9012 113.276 42.4891 109.259 51.3203C109.259 51.3203 108.116 75.3979 106.355 89.0507C106.355 89.0507 100.423 80.9083 100.423 66.7003C100.423 66.7003 92.8845 62.7937 89.9083 58.414C89.8156 58.2701 89.7332 58.1365 89.6508 58.0028C87.2615 53.726 87.4263 45.9949 92.7712 37.1226C95.6445 32.3523 101.659 26.8007 101.659 26.8007C101.659 26.8007 100.227 22.8735 101.669 19.635C101.978 18.9154 102.442 18.2266 103.09 17.6303C106.664 14.3096 122.266 5.11858 128.734 6.01301C128.734 6.01301 129.321 4.10079 130.855 2.77457C131.216 2.46615 131.617 2.18857 132.081 1.97267C134.532 0.852068 146.571 -1.84149 151.473 1.97267L154.367 6.00273C154.367 6.00273 155.427 5.5401 156.9 5.29336C158.136 5.08774 159.66 5.03634 161.071 5.55038C164.171 6.67098 171.967 12.2226 173.532 18.4219C173.532 18.4219 181.184 20.807 182.667 31.4271C182.667 31.4271 184.891 32.0233 186.828 33.9664C188.764 35.9095 190.483 48.9249 189.423 50.724V50.7138Z" fill="url(#paint28_linear_8_4386)"/>
<path style="mix-blend-mode:multiply" opacity="0.6" d="M189.423 50.7138C188.372 52.5129 187.394 52.2867 187.394 52.2867L182.687 85.5655C182.687 85.5655 181.483 65.8162 178.063 54.1578C178.063 54.1578 172.863 41.7489 163.501 38.603C163.501 38.603 163.491 38.603 163.481 38.603C162.78 38.6853 146.457 40.505 122.04 38.8909C122.04 38.8909 113.275 42.4789 109.259 51.3101C109.259 51.3101 108.116 75.3876 106.355 89.0404C106.355 89.0404 100.423 80.8981 100.423 66.6901C100.423 66.6901 92.8844 62.7834 89.9082 58.4038C89.7228 57.6944 89.6301 57.1598 89.6507 56.8514C89.9597 52.6568 90.0524 50.0661 96.9318 44.1855C100.701 40.9676 116.808 37.4002 116.808 37.4002C109.115 35.8272 101.659 30.9747 101.659 30.9747C114.357 33.9253 118.795 36.2385 123.275 36.5058C128.322 36.8039 136.015 36.2076 136.674 35.159C138.538 32.157 127.251 19.0079 119.671 18.9771C112.091 18.9462 101.659 26.7802 101.659 26.7802C101.659 26.7802 100.227 22.8529 101.669 19.6145C104.769 15.9134 116.406 14.2171 124.872 16.9106C133.337 19.6042 137.652 32.7738 138.692 34.4085C139.732 36.0534 146.715 36.2076 147.755 35.4571C148.795 34.7066 148.198 29.7719 144.48 20.0463C140.762 10.3309 128.734 5.99246 128.734 5.99246C128.734 5.99246 129.321 4.08024 130.855 2.75402C135.345 2.35307 139.887 5.54011 145.088 13.9189C150.288 22.2875 151.328 35.4571 151.328 35.4571C153.852 35.4571 156.673 30.3681 156.673 30.3681C160.535 18.2574 154.367 5.99246 154.367 5.99246C154.367 5.99246 155.427 5.52983 156.9 5.28309C162.327 15.1937 158.743 28.7232 159.639 30.3681C160.535 32.0131 167.219 37.6983 169.001 36.8039C170.782 35.9095 174.644 26.0297 173.532 18.4116C173.532 18.4116 177.569 19.6659 180.339 24.4259C181.39 26.2147 182.265 28.5073 182.667 31.4168C182.667 31.4168 184.891 32.0131 186.827 33.9561C187.95 35.087 188.99 39.9087 189.464 44.1341C189.814 47.208 189.866 49.9633 189.423 50.7138Z" fill="url(#paint29_linear_8_4386)"/>
<path style="mix-blend-mode:multiply" d="M109.115 41.1424C109.115 41.1424 95.974 44.1135 91.5766 54.9905C90.7012 57.1598 96.2521 64.0582 96.2521 64.0582L100.423 66.6901C100.423 66.6901 103.471 50.2717 109.115 41.1424Z" fill="url(#paint30_linear_8_4386)"/>
<path style="mix-blend-mode:multiply" d="M189.423 50.7137C188.372 52.5129 187.394 52.2867 187.394 52.2867L182.687 85.5655C182.687 85.5655 181.483 65.8162 178.063 54.1578C178.063 54.1578 172.863 41.7489 163.501 38.603C176.622 44.1855 177.023 39.7956 177.023 39.7956C180.854 33.514 180.339 24.4258 180.339 24.4258C181.39 26.2147 182.265 28.5073 182.667 31.4168C182.667 31.4168 184.891 32.013 186.827 33.9561C186.827 33.9561 179.691 49.0688 181.297 49.9632C182.904 50.8577 185.643 50.5595 189.423 44.1752C189.423 44.1752 189.433 44.1546 189.464 44.1238C189.814 47.1977 189.866 49.953 189.423 50.7035V50.7137Z" fill="url(#paint31_linear_8_4386)"/>
<defs>
<linearGradient id="paint0_linear_8_4386" x1="42.6588" y1="518.324" x2="134.305" y2="518.324" gradientUnits="userSpaceOnUse">
<stop stop-color="#F8A796"/>
<stop offset="0.43" stop-color="#F8AB99"/>
<stop offset="0.53" stop-color="#F7A391"/>
<stop offset="0.77" stop-color="#F69785"/>
<stop offset="1" stop-color="#F69481"/>
</linearGradient>
<linearGradient id="paint1_linear_8_4386" x1="59.8882" y1="430.506" x2="133.399" y2="430.506" gradientUnits="userSpaceOnUse">
<stop stop-color="#F8A796"/>
<stop offset="0.43" stop-color="#F8AB99"/>
<stop offset="0.53" stop-color="#F7A391"/>
<stop offset="0.77" stop-color="#F69785"/>
<stop offset="1" stop-color="#F69481"/>
</linearGradient>
<linearGradient id="paint2_linear_8_4386" x1="174.15" y1="247.395" x2="373.643" y2="247.395" gradientUnits="userSpaceOnUse">
<stop stop-color="#F8A796"/>
<stop offset="0.43" stop-color="#F8AB99"/>
<stop offset="0.53" stop-color="#F7A391"/>
<stop offset="0.77" stop-color="#F69785"/>
<stop offset="1" stop-color="#F69481"/>
</linearGradient>
<linearGradient id="paint3_linear_8_4386" x1="322.171" y1="249.338" x2="357.464" y2="249.338" gradientUnits="userSpaceOnUse">
<stop stop-color="#F8A796"/>
<stop offset="0.43" stop-color="#F8AB99"/>
<stop offset="0.53" stop-color="#F7A391"/>
<stop offset="0.77" stop-color="#F69785"/>
<stop offset="1" stop-color="#F69481"/>
</linearGradient>
<linearGradient id="paint4_linear_8_4386" x1="139.815" y1="517.872" x2="223.202" y2="517.872" gradientUnits="userSpaceOnUse">
<stop stop-color="#F8A796"/>
<stop offset="0.43" stop-color="#F8AB99"/>
<stop offset="0.53" stop-color="#F7A391"/>
<stop offset="0.77" stop-color="#F69785"/>
<stop offset="1" stop-color="#F69481"/>
</linearGradient>
<linearGradient id="paint5_linear_8_4386" x1="23.1946" y1="274.701" x2="84.0485" y2="274.701" gradientUnits="userSpaceOnUse">
<stop stop-color="#F8A796"/>
<stop offset="0.43" stop-color="#F8AB99"/>
<stop offset="0.53" stop-color="#F7A391"/>
<stop offset="0.77" stop-color="#F69785"/>
<stop offset="1" stop-color="#F69481"/>
</linearGradient>
<linearGradient id="paint6_linear_8_4386" x1="32.7413" y1="246.398" x2="84.0485" y2="246.398" gradientUnits="userSpaceOnUse">
<stop stop-color="#F8A796"/>
<stop offset="0.43" stop-color="#F8AB99"/>
<stop offset="0.53" stop-color="#F7A391"/>
<stop offset="0.77" stop-color="#F69785"/>
<stop offset="1" stop-color="#F69481"/>
</linearGradient>
<linearGradient id="paint7_linear_8_4386" x1="23.3079" y1="367.557" x2="145.52" y2="367.557" gradientUnits="userSpaceOnUse">
<stop stop-color="#F8A796"/>
<stop offset="0.43" stop-color="#F8AB99"/>
<stop offset="0.53" stop-color="#F7A391"/>
<stop offset="0.77" stop-color="#F69785"/>
<stop offset="1" stop-color="#F69481"/>
</linearGradient>
<linearGradient id="paint8_linear_8_4386" x1="190.257" y1="94.4173" x2="190.257" y2="64.1918" gradientUnits="userSpaceOnUse">
<stop stop-color="#F9B19D"/>
<stop offset="0.21" stop-color="#F69B8E"/>
<stop offset="0.47" stop-color="#F48781"/>
<stop offset="0.74" stop-color="#F37B79"/>
<stop offset="1" stop-color="#F37777"/>
</linearGradient>
<linearGradient id="paint9_linear_8_4386" x1="189.907" y1="88.5573" x2="189.907" y2="68.6948" gradientUnits="userSpaceOnUse">
<stop stop-color="#FEE8D9"/>
<stop offset="0.99" stop-color="#B07DB7"/>
</linearGradient>
<linearGradient id="paint10_linear_8_4386" x1="183.687" y1="87.4366" x2="183.687" y2="78.8933" gradientUnits="userSpaceOnUse">
<stop stop-color="#FEE8D9"/>
<stop offset="0.99" stop-color="#B07DB7"/>
</linearGradient>
<linearGradient id="paint11_linear_8_4386" x1="139.939" y1="153.007" x2="139.939" y2="123.615" gradientUnits="userSpaceOnUse">
<stop stop-color="#F9B19D"/>
<stop offset="0.21" stop-color="#F69B8E"/>
<stop offset="0.47" stop-color="#F48781"/>
<stop offset="0.74" stop-color="#F37B79"/>
<stop offset="1" stop-color="#F37777"/>
</linearGradient>
<linearGradient id="paint12_linear_8_4386" x1="142.112" y1="129.567" x2="142.112" y2="20.6117" gradientUnits="userSpaceOnUse">
<stop stop-color="#F9B19D"/>
<stop offset="0.21" stop-color="#F69B8E"/>
<stop offset="0.47" stop-color="#F48781"/>
<stop offset="0.74" stop-color="#F37B79"/>
<stop offset="1" stop-color="#F37777"/>
</linearGradient>
<linearGradient id="paint13_linear_8_4386" x1="149.31" y1="99.1978" x2="149.31" y2="87.1282" gradientUnits="userSpaceOnUse">
<stop stop-color="#F3797E"/>
<stop offset="0.06" stop-color="#F37A7E"/>
<stop offset="0.53" stop-color="#F48680"/>
<stop offset="1" stop-color="#F58B81"/>
</linearGradient>
<linearGradient id="paint14_linear_8_4386" x1="141.802" y1="91.3742" x2="143.182" y2="91.3742" gradientUnits="userSpaceOnUse">
<stop stop-color="#FEE8D9"/>
<stop offset="0.99" stop-color="#B07DB7"/>
</linearGradient>
<linearGradient id="paint15_linear_8_4386" x1="156.663" y1="91.3742" x2="155.283" y2="91.3742" gradientUnits="userSpaceOnUse">
<stop stop-color="#FEE8D9"/>
<stop offset="0.99" stop-color="#B07DB7"/>
</linearGradient>
<linearGradient id="paint16_linear_8_4386" x1="94.6869" y1="96.1856" x2="94.6869" y2="65.9704" gradientUnits="userSpaceOnUse">
<stop stop-color="#F9B19D"/>
<stop offset="0.21" stop-color="#F69B8E"/>
<stop offset="0.47" stop-color="#F48781"/>
<stop offset="0.74" stop-color="#F37B79"/>
<stop offset="1" stop-color="#F37777"/>
</linearGradient>
<linearGradient id="paint17_linear_8_4386" x1="95.0371" y1="90.3358" x2="95.0371" y2="70.4734" gradientUnits="userSpaceOnUse">
<stop stop-color="#FEE8D9"/>
<stop offset="0.99" stop-color="#B07DB7"/>
</linearGradient>
<linearGradient id="paint18_linear_8_4386" x1="101.257" y1="89.2152" x2="101.257" y2="80.6719" gradientUnits="userSpaceOnUse">
<stop stop-color="#FEE8D9"/>
<stop offset="0.99" stop-color="#B07DB7"/>
</linearGradient>
<linearGradient id="paint19_linear_8_4386" x1="124.573" y1="86.0629" x2="126.89" y2="71.4299" gradientUnits="userSpaceOnUse">
<stop stop-color="#ECE0EF"/>
<stop offset="1" stop-color="#BFC6E5"/>
</linearGradient>
<linearGradient id="paint20_linear_8_4386" x1="120.49" y1="76.2538" x2="132.919" y2="78.2279" gradientUnits="userSpaceOnUse">
<stop stop-color="#566596"/>
<stop offset="1" stop-color="#331C52"/>
</linearGradient>
<linearGradient id="paint21_linear_8_4386" x1="121.104" y1="78.9353" x2="121.815" y2="77.8763" gradientUnits="userSpaceOnUse">
<stop stop-color="#ECE0EF"/>
<stop offset="1" stop-color="#BFC6E5"/>
</linearGradient>
<linearGradient id="paint22_linear_8_4386" x1="124.273" y1="79.291" x2="124.396" y2="78.5091" gradientUnits="userSpaceOnUse">
<stop stop-color="#ECE0EF"/>
<stop offset="1" stop-color="#BFC6E5"/>
</linearGradient>
<linearGradient id="paint23_linear_8_4386" x1="167.317" y1="86.0158" x2="165.001" y2="71.3828" gradientUnits="userSpaceOnUse">
<stop stop-color="#ECE0EF"/>
<stop offset="1" stop-color="#BFC6E5"/>
</linearGradient>
<linearGradient id="paint24_linear_8_4386" x1="171.46" y1="77.0992" x2="159.042" y2="79.0695" gradientUnits="userSpaceOnUse">
<stop stop-color="#566596"/>
<stop offset="1" stop-color="#331C52"/>
</linearGradient>
<linearGradient id="paint25_linear_8_4386" x1="171.507" y1="78.8257" x2="170.796" y2="77.7668" gradientUnits="userSpaceOnUse">
<stop stop-color="#ECE0EF"/>
<stop offset="1" stop-color="#BFC6E5"/>
</linearGradient>
<linearGradient id="paint26_linear_8_4386" x1="167.618" y1="79.2438" x2="167.494" y2="78.4619" gradientUnits="userSpaceOnUse">
<stop stop-color="#ECE0EF"/>
<stop offset="1" stop-color="#BFC6E5"/>
</linearGradient>
<linearGradient id="paint27_linear_8_4386" x1="95.0163" y1="60.3366" x2="95.0163" y2="34.5216" gradientUnits="userSpaceOnUse">
<stop stop-color="#92324C"/>
<stop offset="1" stop-color="#9A2743"/>
</linearGradient>
<linearGradient id="paint28_linear_8_4386" x1="138.96" y1="77.9475" x2="138.96" y2="22.0304" gradientUnits="userSpaceOnUse">
<stop stop-color="#92324C"/>
<stop offset="1" stop-color="#9A2743"/>
</linearGradient>
<linearGradient id="paint29_linear_8_4386" x1="139.701" y1="76.8475" x2="139.701" y2="15.2349" gradientUnits="userSpaceOnUse">
<stop stop-color="#FEE8D9"/>
<stop offset="0.99" stop-color="#827EBC"/>
</linearGradient>
<linearGradient id="paint30_linear_8_4386" x1="100.299" y1="63.0815" x2="100.299" y2="44.8434" gradientUnits="userSpaceOnUse">
<stop stop-color="#FEE8D9"/>
<stop offset="0.99" stop-color="#B07DB7"/>
</linearGradient>
<linearGradient id="paint31_linear_8_4386" x1="176.622" y1="76.9297" x2="176.622" y2="33.2879" gradientUnits="userSpaceOnUse">
<stop stop-color="#FEE8D9"/>
<stop offset="0.99" stop-color="#B07DB7"/>
</linearGradient>
</defs>
</svg>
