<svg width="322" height="887" viewBox="0 0 322 887" fill="none" xmlns="http://www.w3.org/2000/svg">
<g clip-path="url(#clip0_6_1805)">
<path d="M212.281 101.541C212.281 101.541 214.026 72.1554 213.225 71.8099C215.221 57.0151 200.988 31.6206 196.02 26.3906C169.089 -1.89546 145.402 -6.86503 109.526 21.688C81.2121 44.2257 79.1536 97.583 79.5466 100.991C72.5663 103.692 77.157 114.718 84.263 114.419C84.263 114.419 81.3545 120.435 87.2657 124.173C93.1926 127.911 95.5351 125.932 95.5351 125.932C95.5351 125.932 90.2371 132.151 98.9466 135.889C98.9466 135.889 94.5918 137.758 100.424 141.182C106.241 144.606 112.86 135.434 112.86 135.434C112.86 135.434 111.021 143.051 116.665 145.847C122.324 148.642 130.248 142.109 130.248 142.109C130.248 142.109 135.184 151.752 140.875 151.752C146.566 151.752 151.031 145.533 151.031 145.533C151.031 145.533 149.679 150.307 155.323 150.417C160.433 150.511 161.14 142.093 161.234 140.507C161.171 142.124 160.983 150.794 164.284 150.417C170.761 149.695 170.07 143.868 170.966 145.737C171.846 147.621 177.616 147.009 182.772 144.292C187.473 141.795 186.153 135.889 186.153 135.889C186.153 135.889 190.13 138.072 193.683 133.298C193.683 133.298 192.865 141.088 198.714 138.481C203.839 136.203 199.799 126.309 199.799 126.309C199.799 126.309 203.273 129.937 208.382 127.518C212.486 125.571 207.596 120.231 207.596 120.231C207.596 120.231 214.278 123.136 216.809 120.026C219.34 116.917 212.297 101.557 212.297 101.557L212.281 101.541Z" fill="url(#paint0_linear_6_1805)"/>
<path d="M128.172 167.002C128.172 167.002 229.81 310.333 257.26 410.724L276.33 402.148C276.33 402.148 239.982 260.766 143.721 157.422L128.172 167.018V167.002Z" fill="#3B314F"/>
<path opacity="0.7" d="M128.172 167.002C128.172 167.002 229.81 310.333 257.26 410.724L276.33 402.148C276.33 402.148 239.982 260.766 143.721 157.422L128.172 167.018V167.002Z" fill="#5C0E13"/>
<path d="M19.2241 239.17C19.2241 239.17 30.5434 338.792 64.1398 340.221C161.077 344.351 96.3526 237.725 96.3526 237.725L19.2398 239.17H19.2241Z" fill="url(#paint1_linear_6_1805)"/>
<path d="M152.651 479.405L252.402 876.132L291.847 871.593L269.098 830.664L207.502 449.643L152.651 479.405Z" fill="#F8AD9F"/>
<path d="M138.627 458.532L127.103 854.882L98.4121 836.349L60.6653 440.203L138.627 458.532Z" fill="#F8AD9F"/>
<path d="M74.1542 249.316L81.9205 349.864L206.637 333.357L170.305 270.079L74.1542 249.316Z" fill="url(#paint2_linear_6_1805)"/>
<path d="M135.216 116.932L129.053 157.485L97.5789 158.333L134.933 204.162L192.661 168.384L166.988 161.16L170.353 106.111L135.216 116.932Z" fill="url(#paint3_linear_6_1805)"/>
<path d="M149.255 19.0229C149.255 19.0229 103.333 20.6721 95.6137 74.2914C87.8946 127.911 127.119 141.166 152.54 136.8C177.962 132.434 194.784 104.949 198.195 88.9763C201.607 73.0192 190.9 19.5569 149.239 19.0229H149.255Z" fill="url(#paint4_linear_6_1805)"/>
<path d="M77.833 289.334C77.833 289.334 115.784 304.899 182.442 293.449C182.442 293.449 242.545 348.294 251.647 418.027C257.181 460.458 279.308 626.093 285.095 669.398C285.856 675.095 281.658 680.17 275.926 680.605L196.136 686.652H163.115H130.209L56.8659 690.162C51.7387 690.408 47.2887 686.816 46.6594 681.721C41.3746 638.939 22.4366 449.464 77.833 289.334Z" fill="#5F451A"/>
<path d="M97.4531 833.506L129.32 841.469L132.732 865.342L24.6322 869.315C24.6322 869.315 31.0622 857.944 97.4531 833.506V833.506Z" fill="#5B91AF"/>
<path d="M24.6322 869.315L132.732 865.342L133.879 873.289L25.7799 874.435L24.6322 869.315Z" fill="#2B2238"/>
<path d="M88.0204 836.82C91.4319 840.15 93.6957 844.375 96.3998 848.254C96.7771 848.804 97.6889 848.285 97.2959 847.736C94.5447 843.793 92.2179 839.49 88.7435 836.098C88.2719 835.627 87.533 836.365 88.0046 836.836L88.0204 836.82Z" fill="#2B2238"/>
<path d="M81.2288 838.83C84.6403 842.16 86.9041 846.385 89.6082 850.264C89.9855 850.814 90.8973 850.296 90.5043 849.746C87.7531 845.804 85.4263 841.5 81.9519 838.108C81.4803 837.637 80.7414 838.375 81.213 838.846L81.2288 838.83Z" fill="#2B2238"/>
<path d="M73.7926 841.359C77.2041 844.689 79.468 848.914 82.172 852.793C82.5494 853.343 83.4612 852.824 83.0682 852.275C80.3169 848.332 77.9902 844.029 74.5158 840.637C74.0441 840.166 73.3053 840.904 73.7769 841.375L73.7926 841.359Z" fill="#2B2238"/>
<path d="M239.133 823.282L247.104 865.907C247.104 865.907 261.332 907.402 289.205 897.743C317.079 888.084 268.721 824.428 268.721 824.428C268.721 824.428 254.493 836.365 239.133 823.297V823.282Z" fill="#5B91AF"/>
<path d="M289.19 890.911C262.416 897.601 249.305 866.928 245.768 858.792L247.088 865.891C247.088 865.891 261.316 907.386 289.19 897.727C295.683 895.481 298.009 890.282 297.805 883.655C296.296 885.838 293.749 889.764 289.19 890.911V890.911Z" fill="#2B2238"/>
<path d="M255.641 835.831C259.649 833.255 264.272 831.967 268.658 830.208C269.271 829.957 269.004 828.952 268.375 829.203C263.91 831.009 259.194 832.297 255.106 834.936C254.54 835.297 255.059 836.192 255.625 835.831H255.641Z" fill="#2B2238"/>
<path d="M258.659 843.197C262.762 840.762 267.431 839.663 271.881 838.061C272.509 837.841 272.242 836.836 271.598 837.056C267.07 838.689 262.306 839.82 258.14 842.286C257.559 842.631 258.093 843.527 258.659 843.181V843.197Z" fill="#2B2238"/>
<path d="M262.888 850.249C266.818 847.469 271.425 845.977 275.764 843.998C276.377 843.715 275.842 842.82 275.245 843.102C270.906 845.081 266.3 846.573 262.369 849.353C261.835 849.73 262.354 850.641 262.888 850.249Z" fill="#2B2238"/>
<path d="M166.485 391.453L176.405 389.16L266.3 368.365C266.3 368.365 288.372 441.853 292.57 480.677C292.57 480.677 230.581 512.167 196.953 511.115C163.325 510.062 165.432 500.623 165.432 500.623L151.77 393.557L166.485 391.453Z" fill="#B5B5B5"/>
<path opacity="0.7" d="M186.876 464.013C183.354 438.633 181.075 413.441 181.955 387.856L176.421 389.144L166.501 391.437L151.786 393.542L165.448 500.608C165.448 500.608 163.577 509.434 193.919 510.958C190.24 495.629 189.061 479.641 186.891 464.013H186.876Z" fill="#9C9C9C"/>
<path d="M117.388 157.705C117.388 157.705 101.462 154.296 88.9479 158.835C76.4338 163.39 59.5408 204.036 54.9974 221.077C50.4382 238.133 64.3988 341.463 64.3988 341.463C64.3988 341.463 175.193 351.376 213.883 332.058L191.094 283.833C190.029 281.579 189.844 279.008 190.576 276.625L206.15 225.899L199.522 241.768L252.638 229.778C252.638 229.778 236.854 169.06 208.414 166.782L182.238 163.374C182.238 163.374 121.931 190.655 117.372 157.689L117.388 157.705Z" fill="#5F451A"/>
<path d="M102.005 155.241C102.005 155.241 129.729 328.049 185.068 416.22L165.841 424.419C165.841 424.419 95.3076 300.912 84.4127 160.173L102.005 155.241Z" fill="#5C0E13"/>
<path d="M167.35 391.186C167.35 391.186 199.767 402.62 208.524 479.625L297.49 447.428C297.49 447.428 278.578 369.057 263.863 364.156C249.148 359.256 167.35 391.186 167.35 391.186V391.186Z" fill="#521825"/>
<path d="M242.843 461.422L246.349 471.929L276.471 461.422L272.965 450.224L242.843 461.422Z" fill="white"/>
<path d="M7.84189 244.761C7.84189 244.761 3.20412 228.396 7.07155 227.548C10.939 226.684 56.625 217.214 14.0361 231.851C14.0361 231.851 70.554 228.412 17.1332 241.322C17.1332 241.322 61.2628 239.594 18.6738 250.792C18.6738 250.792 55.8389 253.368 17.9035 261.127C17.9035 261.127 8.61224 261.991 7.84189 244.761V244.761Z" fill="url(#paint5_linear_6_1805)"/>
<path d="M125.264 89.8087C126.49 89.4475 121.302 79.7257 113.662 78.1237C104.433 76.1762 102.421 84.5002 102.468 86.1964C102.515 87.8926 119.369 91.5207 125.248 89.8087H125.264Z" fill="url(#paint6_linear_6_1805)"/>
<path d="M114.913 90.2537C118.213 90.022 120.697 87.1196 120.461 83.771C120.226 80.4224 117.36 77.8957 114.06 78.1274C110.76 78.3591 108.276 81.2614 108.511 84.61C108.747 87.9586 111.613 90.4854 114.913 90.2537Z" fill="url(#paint7_linear_6_1805)"/>
<path d="M114.889 89.909C117.989 89.6913 120.323 86.9546 120.101 83.7964C119.879 80.6381 117.185 78.2543 114.084 78.472C110.983 78.6897 108.65 81.4265 108.872 84.5847C109.094 87.7429 111.788 90.1267 114.889 89.909Z" fill="url(#paint8_linear_6_1805)"/>
<path style="mix-blend-mode:multiply" d="M110.848 84.186C110.848 86.2434 112.498 87.9082 114.511 87.8925C116.523 87.8768 118.158 86.2277 118.158 84.1703C118.158 82.1128 116.507 80.448 114.495 80.4637C112.483 80.4637 110.848 82.1285 110.848 84.186Z" fill="url(#paint9_linear_6_1805)"/>
<path d="M124.934 87.8298C124.934 87.8298 121.114 74.1972 112.718 72.9878C104.323 71.7785 102.798 84.3117 102.798 84.3117C102.798 84.3117 104.764 77.7153 112.718 78.1393C120.673 78.5634 124.95 87.8298 124.95 87.8298H124.934Z" fill="url(#paint10_linear_6_1805)"/>
<path d="M125.17 88.3795L123.818 90.0914C123.818 90.0914 125.516 90.2485 125.689 89.7773C125.861 89.2904 125.154 88.3795 125.154 88.3795H125.17Z" fill="#D66C7C"/>
<path d="M122.702 90.2484C122.702 90.2484 116.114 91.2693 110.423 90.1227C104.732 88.9762 102.798 86.6204 102.798 86.6204C102.798 86.6204 111.775 90.0756 122.702 90.2327V90.2484Z" fill="#D66C7C"/>
<path d="M110.282 83.0238C110.643 83.3537 108.961 83.4322 107.719 82.9296C106.603 82.4898 106.053 81.7517 106.163 81.626C106.273 81.5004 108.851 81.736 110.297 83.0238H110.282Z" fill="white"/>
<path d="M111.241 83.3536C111.712 83.1809 112.278 83.4322 112.294 83.6992C112.31 83.9505 111.728 84.2803 111.461 84.1703C111.194 84.0604 110.989 83.4479 111.241 83.3536V83.3536Z" fill="white"/>
<g style="mix-blend-mode:multiply" opacity="0.6">
<path d="M125.17 88.3795C125.17 88.3795 120.045 81.4847 113.426 80.1968C106.823 78.9246 103.632 82.7254 103.632 82.7254C103.632 82.7254 104.528 77.8252 113.19 78.4535C121.853 79.0817 125.17 88.3795 125.17 88.3795Z" fill="#C978B1"/>
</g>
<path d="M125.17 88.3795C125.17 88.3795 121.145 79.2702 112.2 78.6106C104.213 78.0294 102.578 85.1441 102.578 85.1441C102.578 85.1441 101.729 78.909 107.216 77.4483C112.436 76.0505 121.428 78.8618 125.17 88.3795Z" fill="#401432"/>
<path d="M150.041 89.5103C148.642 89.0234 155.197 77.998 164.174 76.5374C175.006 74.7626 176.908 84.5787 176.767 86.5419C176.61 88.5051 156.801 91.8347 150.057 89.5103H150.041Z" fill="url(#paint11_linear_6_1805)"/>
<path d="M169.794 84.3742C170.251 80.4889 167.524 76.9763 163.703 76.5287C159.883 76.081 156.416 78.8678 155.96 82.7532C155.504 86.6385 158.231 90.1511 162.051 90.5988C165.872 91.0464 169.338 88.2596 169.794 84.3742Z" fill="url(#paint12_linear_6_1805)"/>
<path d="M169.378 84.3056C169.807 80.6441 167.24 77.3349 163.644 76.9141C160.048 76.4933 156.785 79.1204 156.356 82.7819C155.926 86.4433 158.494 89.7526 162.09 90.1733C165.686 90.5941 168.949 87.967 169.378 84.3056Z" fill="url(#paint13_linear_6_1805)"/>
<path style="mix-blend-mode:multiply" d="M167.13 83.7463C167.004 86.1335 165.007 87.9868 162.665 87.8769C160.322 87.767 158.515 85.7409 158.625 83.3536C158.75 80.9664 160.747 79.1131 163.089 79.223C165.432 79.333 167.24 81.359 167.13 83.7463V83.7463Z" fill="url(#paint14_linear_6_1805)"/>
<path d="M150.528 87.2329C150.528 87.2329 155.716 71.5743 165.558 70.6163C175.399 69.6582 176.5 84.3274 176.5 84.3274C176.5 84.3274 174.582 76.553 165.29 76.6001C155.999 76.663 150.528 87.2172 150.528 87.2172V87.2329Z" fill="url(#paint15_linear_6_1805)"/>
<path d="M150.214 87.8611L151.692 89.9185C151.692 89.9185 149.695 90.0128 149.522 89.4474C149.349 88.882 150.214 87.8611 150.214 87.8611Z" fill="#D66C7C"/>
<path d="M152.996 90.1698C152.996 90.1698 160.605 91.709 167.303 90.6881C173.984 89.6672 176.358 87.0287 176.358 87.0287C176.358 87.0287 165.731 90.5782 152.996 90.1698Z" fill="#D66C7C"/>
<path d="M167.837 82.4427C167.397 82.8039 169.346 82.9924 170.824 82.4741C172.161 82.0186 172.821 81.1862 172.711 81.0292C172.601 80.8721 169.567 81.0292 167.837 82.4427V82.4427Z" fill="white"/>
<path d="M166.705 82.7568C166.155 82.5369 165.495 82.8039 165.463 83.1023C165.416 83.4007 166.092 83.8091 166.422 83.6992C166.752 83.5892 167.02 82.8825 166.721 82.7568H166.705Z" fill="white"/>
<g style="mix-blend-mode:multiply" opacity="0.6">
<path d="M150.214 87.8612C150.214 87.8612 156.565 80.1026 164.316 78.9718C172.082 77.8409 175.572 82.4427 175.572 82.4427C175.572 82.4427 174.786 76.6944 164.677 76.9614C154.569 77.2284 150.214 87.8612 150.214 87.8612V87.8612Z" fill="#C978B1"/>
</g>
<path d="M150.214 87.8612C150.214 87.8612 155.386 77.4797 165.841 77.197C175.179 76.9457 176.673 85.3168 176.673 85.3168C176.673 85.3168 178.009 78.1079 171.705 76.1133C165.699 74.1972 155.103 76.9928 150.214 87.8612Z" fill="#401432"/>
<path d="M125.217 102.122C125.217 102.122 125.421 102.75 127.827 102.86C130.232 102.986 132.449 105.09 136.52 105.137C140.592 105.185 142.652 103.111 145.057 103.033C147.462 102.97 147.871 102.342 147.871 102.342C148.249 100.771 148.028 99.2478 147.604 97.9442C147.604 97.9442 147.604 97.9128 147.604 97.8971C146.834 95.6041 145.434 93.9707 145.434 93.9707C139.743 91.1594 133.612 91.0808 127.858 93.7822C127.858 93.7822 126.93 94.8031 126.144 96.3894V96.4051C125.39 97.9285 124.761 99.9703 125.233 102.106L125.217 102.122Z" fill="url(#paint16_linear_6_1805)"/>
<path d="M130.656 103.661C130.656 103.661 128.833 102.059 126.537 102.719L130.656 103.661Z" fill="#812852"/>
<path d="M146.283 102.939C146.283 102.939 143.957 102.216 141.614 104.054L146.283 102.939Z" fill="#812852"/>
<g style="mix-blend-mode:multiply" opacity="0.6">
<path d="M125.217 102.122C125.217 102.122 125.421 102.75 127.827 102.86C130.232 102.986 132.449 105.09 136.52 105.137C140.592 105.185 142.652 103.111 145.057 103.033C147.462 102.97 147.871 102.342 147.871 102.342C148.249 100.771 148.028 99.2478 147.604 97.9442C147.683 98.3211 148.17 100.803 147.211 101.399C146.158 102.043 140.262 101.588 136.552 101.557C132.842 101.525 126.537 101.462 125.846 100.473C125.185 99.5305 126.05 96.672 126.144 96.405C125.39 97.9285 124.761 99.9702 125.233 102.106L125.217 102.122Z" fill="#C978B1"/>
</g>
<path style="mix-blend-mode:multiply" opacity="0.6" d="M127.858 93.798C127.858 93.798 129.131 97.8971 128.943 100.756C128.943 100.756 129.949 97.9757 128.707 93.421L127.858 93.798V93.798Z" fill="url(#paint17_linear_6_1805)"/>
<path style="mix-blend-mode:multiply" opacity="0.6" d="M145.214 93.9707C145.214 93.9707 143.847 98.0385 143.972 100.897C143.972 100.897 143.013 98.1013 144.365 93.5624L145.199 93.955L145.214 93.9707Z" fill="url(#paint18_linear_6_1805)"/>
<g style="mix-blend-mode:multiply" opacity="0.6">
<path d="M147.211 101.415C147.211 101.415 147.761 102.043 147.871 102.358C147.981 102.672 142.542 107.697 136.489 107.635C130.436 107.572 125.327 102.734 125.217 102.122C125.107 101.509 126.113 100.724 126.113 100.724C126.113 100.724 130.829 101.509 136.552 101.572C142.259 101.635 147.211 101.415 147.211 101.415Z" fill="#C978B1"/>
</g>
<path d="M131.741 100.127C132.606 99.6405 131.097 98.2113 130.704 98.2741C130.295 98.3212 130.059 99.2322 130.279 99.829C130.499 100.426 131.38 100.332 131.741 100.127V100.127Z" fill="#FBC9B8"/>
<path d="M126.506 67.4908C126.506 67.4908 124.006 66.4071 117.969 66.2029C116.177 66.1401 114.07 66.1558 111.634 66.2972C100.959 66.9254 93.4128 68.8729 93.4128 68.8729C93.4756 68.6844 96.4155 64.0513 100.189 61.9781C100.157 62.0252 99.6855 62.8105 99.7484 63.6743C99.7484 63.6743 104.072 60.3761 110.062 59.0411C111.178 58.7898 112.357 58.6171 113.567 58.5385C121.287 58.036 124.934 63.7214 124.934 63.7214C124.934 63.7214 124.745 62.2451 123.928 61.3656C123.928 61.3656 126.443 62.999 126.506 67.5222V67.4908Z" fill="url(#paint19_linear_6_1805)"/>
<path style="mix-blend-mode:multiply" opacity="0.6" d="M117.969 66.203C116.177 66.1401 114.07 66.1558 111.634 66.2972C100.959 66.9254 93.4128 68.8729 93.4128 68.8729C93.4756 68.6845 96.4155 64.0513 100.189 61.9781C100.157 62.0252 99.6855 62.8105 99.7484 63.6743C99.7484 63.6743 104.072 60.3761 110.062 59.0411C107.939 60.0934 103.349 62.4493 100.692 66.0616C100.692 66.0616 106.461 64.0513 117.969 66.2187V66.203Z" fill="url(#paint20_linear_6_1805)"/>
<path d="M150.843 67.4908C150.843 67.4908 153.342 66.4071 159.379 66.2029C161.171 66.1401 163.278 66.1558 165.715 66.2972C176.39 66.9254 183.936 68.8729 183.936 68.8729C183.873 68.6844 180.933 64.0513 177.16 61.9781C177.191 62.0252 177.663 62.8105 177.6 63.6743C177.6 63.6743 173.277 60.3761 167.287 59.0411C166.171 58.7898 164.992 58.6171 163.781 58.5385C156.062 58.036 152.415 63.7214 152.415 63.7214C152.415 63.7214 152.603 62.2451 153.421 61.3656C153.421 61.3656 150.905 62.999 150.843 67.5222V67.4908Z" fill="url(#paint21_linear_6_1805)"/>
<path style="mix-blend-mode:multiply" opacity="0.6" d="M159.395 66.203C161.187 66.1401 163.294 66.1558 165.731 66.2972C176.405 66.9254 183.952 68.8729 183.952 68.8729C183.889 68.6845 180.949 64.0513 177.176 61.9781C177.207 62.0252 177.679 62.8105 177.616 63.6743C177.616 63.6743 173.293 60.3761 167.303 59.0411C169.425 60.0934 174.016 62.4493 176.673 66.0616C176.673 66.0616 170.903 64.0513 159.395 66.2187V66.203Z" fill="url(#paint22_linear_6_1805)"/>
<g style="mix-blend-mode:multiply" opacity="0.6">
<path d="M126.522 122.115C126.522 122.115 132.024 127.895 138.643 127.895C145.607 127.895 149.601 121.943 149.601 121.943C149.601 121.943 142.715 127.11 126.522 122.115Z" fill="#CC77B1"/>
</g>
<path d="M159.143 112.126L160.008 111.137C160.008 111.137 159.678 110.713 159.285 110.697L159.033 111.64C158.059 112.095 156.722 112.598 155.653 112.488C152.635 111.812 146.268 110.65 138.407 110.65C130.546 110.65 124.494 111.75 121.397 112.425C120.312 112.692 118.771 112.126 117.702 111.624L117.655 110.65C117.655 110.65 116.837 110.744 116.837 111.2L117.592 112.111C123.472 121.016 132.857 124.911 138.753 124.911C145.261 124.911 151.519 122.225 159.128 112.111L159.143 112.126Z" fill="#822852"/>
<path d="M125.217 120.183C125.217 120.183 137.118 113.367 148.311 121.77C148.311 121.77 143.092 125.131 136.348 124.377C129.603 123.623 127.261 123.01 125.217 120.199V120.183Z" fill="#DC4D6C"/>
<path d="M126.019 111.75C126.019 111.75 131.914 115.974 139.004 115.425C145.041 114.953 150.544 111.561 150.544 111.561C150.544 111.561 138.832 108.922 126.019 111.75V111.75Z" fill="#FBDDEA"/>
<path d="M138.407 108.954C130.436 108.954 121.334 112.441 121.334 112.441C133.282 110.776 138.407 111.215 138.407 111.215C138.407 111.215 143.516 110.776 155.48 112.441C155.48 112.441 146.378 108.954 138.407 108.954Z" fill="#DC4D6C"/>
<path d="M129.399 122.508C129.399 122.508 134.618 122.005 138.847 121.942C143.076 121.88 147.007 122.461 147.007 122.461C147.007 122.461 142.95 124.471 138.407 124.471C132.622 124.471 129.383 122.508 129.383 122.508H129.399Z" fill="#FBDDEA"/>
<path d="M138.407 123.984C129.98 123.984 123.881 119.053 123.881 119.053C127.889 125.712 138.407 125.979 138.407 125.979C138.407 125.979 148.767 125.885 152.933 119.053C152.933 119.053 146.834 123.984 138.407 123.984Z" fill="#ED7072"/>
<path d="M203.572 92.5886C203.242 93.7822 202.88 94.8502 202.518 95.7925V95.8397C199.877 102.625 196.497 104.038 194.972 107.069C193.652 109.692 188.825 114.812 184.785 108.875L184.769 108.86C184.769 108.86 188.416 86.055 190.397 81.9872C190.397 81.9872 193.259 75.8934 197.708 75.2495C203.43 74.417 206.48 82.0657 203.572 92.5886V92.5886Z" fill="url(#paint23_linear_6_1805)"/>
<path style="mix-blend-mode:multiply" opacity="0.6" d="M187.269 94.7403C187.269 94.7403 196.969 82.537 201.245 81.9716C205.521 81.4219 202.676 92.1332 201.575 95.6984C200.475 99.2636 199.06 101.305 199.06 101.305C199.06 101.305 200.412 97.0962 200.852 93.6566C201.481 88.7093 200.192 84.3431 198.399 84.6258C196.607 84.9085 193.793 91.0024 193.589 91.6934C193.384 92.4002 194.626 93.7509 194.296 97.5988C193.95 101.447 191.828 105.514 190.837 105.405C189.847 105.295 190.476 102.185 190.727 98.5882C190.979 94.9916 188.102 95.4942 186.703 97.7558L187.269 94.7246V94.7403Z" fill="url(#paint24_linear_6_1805)"/>
<path style="mix-blend-mode:multiply" opacity="0.6" d="M186.687 97.7715C186.687 97.7715 189.187 94.489 190.444 96.1381C191.702 97.7872 190.444 102.043 191.435 102.625C192.441 103.206 194.076 99.8133 194.029 96.6093C193.966 93.3896 192.897 90.4526 191.058 90.861L187.269 94.7403L186.703 97.7715H186.687Z" fill="url(#paint25_linear_6_1805)"/>
<path style="mix-blend-mode:multiply" d="M202.487 95.8397C199.861 102.625 196.497 104.038 194.972 107.069C193.652 109.692 188.825 114.812 184.785 108.875C185.036 109.111 187.457 111.357 190.114 110.587C192.913 109.771 193.966 107.273 195.255 105.389C196.544 103.488 199.594 102.326 202.503 95.8397H202.487Z" fill="url(#paint26_linear_6_1805)"/>
<path d="M123.628 42.3794C113.099 51.4083 101.065 50.5305 96.364 48.963L132.09 17.9259H169.696L205.421 60.249L194.14 84.7024C191.633 86.8969 181.73 48.963 173.456 48.963C165.183 48.963 164.995 41.4388 165.935 37.6767L157.474 47.0818C149.953 52.3486 142.431 44.8873 139.611 40.4983C138.671 37.3633 134.158 33.3504 123.628 42.3794Z" fill="#1B1022"/>
</g>
<path d="M204.297 240.186L216.824 292.308L141.347 312.113C141.347 312.113 134.225 289.852 127.856 290.336C111.386 291.573 78.8419 315.662 120.124 299.298C120.124 299.298 64.7584 333.889 125.47 306.754C125.47 306.754 79.4698 342.564 127.641 318.314C127.641 318.314 91.8489 351.113 129.219 326.2C129.219 326.2 128.358 338.262 140.576 337.868C152.812 337.474 250.463 332.903 266.646 322.365C282.846 311.826 252.577 229.453 252.577 229.453L212.88 238.039L204.297 240.186Z" fill="url(#paint27_linear_6_1805)"/>
<defs>
<linearGradient id="paint0_linear_6_1805" x1="146.708" y1="149.255" x2="146.708" y2="83.1807" gradientUnits="userSpaceOnUse">
<stop stop-color="#31111B"/>
<stop offset="1" stop-color="#1A0F21"/>
</linearGradient>
<linearGradient id="paint1_linear_6_1805" x1="17.2246" y1="286.294" x2="118.048" y2="290.594" gradientUnits="userSpaceOnUse">
<stop stop-color="#F8A795"/>
<stop offset="0.43" stop-color="#F8A997"/>
<stop offset="0.52" stop-color="#F7A290"/>
<stop offset="0.76" stop-color="#F69684"/>
<stop offset="1" stop-color="#F69280"/>
</linearGradient>
<linearGradient id="paint2_linear_6_1805" x1="74.1542" y1="299.59" x2="206.637" y2="299.59" gradientUnits="userSpaceOnUse">
<stop stop-color="#F9AF9C"/>
<stop offset="0.2" stop-color="#F69B8E"/>
<stop offset="0.47" stop-color="#F48781"/>
<stop offset="0.73" stop-color="#F37B79"/>
<stop offset="1" stop-color="#F37777"/>
</linearGradient>
<linearGradient id="paint3_linear_6_1805" x1="97.5789" y1="155.129" x2="192.661" y2="155.129" gradientUnits="userSpaceOnUse">
<stop stop-color="#F9AF9C"/>
<stop offset="0.2" stop-color="#F69B8E"/>
<stop offset="0.47" stop-color="#F48781"/>
<stop offset="0.73" stop-color="#F37B79"/>
<stop offset="1" stop-color="#F37777"/>
</linearGradient>
<linearGradient id="paint4_linear_6_1805" x1="94.6233" y1="78.2964" x2="198.792" y2="78.2964" gradientUnits="userSpaceOnUse">
<stop stop-color="#F8A795"/>
<stop offset="0.43" stop-color="#F8A997"/>
<stop offset="0.52" stop-color="#F7A290"/>
<stop offset="0.76" stop-color="#F69684"/>
<stop offset="1" stop-color="#F69280"/>
</linearGradient>
<linearGradient id="paint5_linear_6_1805" x1="5.53087" y1="242.421" x2="40.1019" y2="242.421" gradientUnits="userSpaceOnUse">
<stop stop-color="#F8A795"/>
<stop offset="0.43" stop-color="#F8A997"/>
<stop offset="0.52" stop-color="#F7A290"/>
<stop offset="0.76" stop-color="#F69684"/>
<stop offset="1" stop-color="#F69280"/>
</linearGradient>
<linearGradient id="paint6_linear_6_1805" x1="114.393" y1="91.0162" x2="113.226" y2="77.67" gradientUnits="userSpaceOnUse">
<stop stop-color="#E6DBEC"/>
<stop offset="1" stop-color="#B8C1E2"/>
</linearGradient>
<linearGradient id="paint7_linear_6_1805" x1="114.513" y1="89.9758" x2="114.489" y2="77.8196" gradientUnits="userSpaceOnUse">
<stop stop-color="#48204B"/>
<stop offset="1" stop-color="#301138"/>
</linearGradient>
<linearGradient id="paint8_linear_6_1805" x1="114.513" y1="89.646" x2="114.491" y2="78.1808" gradientUnits="userSpaceOnUse">
<stop stop-color="#57345B"/>
<stop offset="1" stop-color="#301138"/>
</linearGradient>
<linearGradient id="paint9_linear_6_1805" x1="114.585" y1="87.9278" x2="114.569" y2="80.4833" gradientUnits="userSpaceOnUse">
<stop stop-color="#A093B6"/>
<stop offset="0.99" stop-color="#734B61"/>
</linearGradient>
<linearGradient id="paint10_linear_6_1805" x1="125.008" y1="80.383" x2="102.872" y2="80.4294" gradientUnits="userSpaceOnUse">
<stop stop-color="#F7A190"/>
<stop offset="0.43" stop-color="#F3A592"/>
<stop offset="0.51" stop-color="#F39F8D"/>
<stop offset="0.76" stop-color="#F49383"/>
<stop offset="1" stop-color="#F58F80"/>
</linearGradient>
<linearGradient id="paint11_linear_6_1805" x1="162.955" y1="91.6005" x2="165.029" y2="76.143" gradientUnits="userSpaceOnUse">
<stop stop-color="#E6DBEC"/>
<stop offset="1" stop-color="#B8C1E2"/>
</linearGradient>
<linearGradient id="paint12_linear_6_1805" x1="162.568" y1="90.5119" x2="163.255" y2="76.3463" gradientUnits="userSpaceOnUse">
<stop stop-color="#48204B"/>
<stop offset="1" stop-color="#301138"/>
</linearGradient>
<linearGradient id="paint13_linear_6_1805" x1="162.621" y1="90.3896" x2="163.266" y2="77.0552" gradientUnits="userSpaceOnUse">
<stop stop-color="#57345B"/>
<stop offset="1" stop-color="#301138"/>
</linearGradient>
<linearGradient id="paint14_linear_6_1805" x1="162.684" y1="87.6658" x2="163.103" y2="79.0221" gradientUnits="userSpaceOnUse">
<stop stop-color="#A093B6"/>
<stop offset="0.99" stop-color="#734B61"/>
</linearGradient>
<linearGradient id="paint15_linear_6_1805" x1="150.971" y1="78.3234" x2="176.739" y2="79.5759" gradientUnits="userSpaceOnUse">
<stop stop-color="#F7A190"/>
<stop offset="0.43" stop-color="#F3A592"/>
<stop offset="0.51" stop-color="#F39F8D"/>
<stop offset="0.76" stop-color="#F49383"/>
<stop offset="1" stop-color="#F58F80"/>
</linearGradient>
<linearGradient id="paint16_linear_6_1805" x1="136.567" y1="105.391" x2="136.707" y2="92.0732" gradientUnits="userSpaceOnUse">
<stop stop-color="#F37B7F"/>
<stop offset="0.4" stop-color="#F3817F"/>
<stop offset="1" stop-color="#F48680"/>
</linearGradient>
<linearGradient id="paint17_linear_6_1805" x1="128.579" y1="101.004" x2="128.656" y2="93.6696" gradientUnits="userSpaceOnUse">
<stop stop-color="#FBE3D4"/>
<stop offset="0.99" stop-color="#AE7CB7"/>
</linearGradient>
<linearGradient id="paint18_linear_6_1805" x1="144.421" y1="101.204" x2="144.498" y2="93.8696" gradientUnits="userSpaceOnUse">
<stop stop-color="#FBE3D4"/>
<stop offset="0.99" stop-color="#AE7CB7"/>
</linearGradient>
<linearGradient id="paint19_linear_6_1805" x1="109.967" y1="60.2819" x2="109.967" y2="67.9777" gradientUnits="userSpaceOnUse">
<stop stop-color="#31111B"/>
<stop offset="1" stop-color="#1A0F21"/>
</linearGradient>
<linearGradient id="paint20_linear_6_1805" x1="93.4128" y1="63.957" x2="117.969" y2="63.957" gradientUnits="userSpaceOnUse">
<stop stop-color="#31111B"/>
<stop offset="1" stop-color="#1A0F21"/>
</linearGradient>
<linearGradient id="paint21_linear_6_1805" x1="167.397" y1="60.2819" x2="167.397" y2="67.9777" gradientUnits="userSpaceOnUse">
<stop stop-color="#31111B"/>
<stop offset="1" stop-color="#1A0F21"/>
</linearGradient>
<linearGradient id="paint22_linear_6_1805" x1="159.395" y1="63.957" x2="183.952" y2="63.957" gradientUnits="userSpaceOnUse">
<stop stop-color="#31111B"/>
<stop offset="1" stop-color="#1A0F21"/>
</linearGradient>
<linearGradient id="paint23_linear_6_1805" x1="192.959" y1="123.003" x2="195.627" y2="83.5148" gradientUnits="userSpaceOnUse">
<stop stop-color="#F7A190"/>
<stop offset="0.43" stop-color="#F3A592"/>
<stop offset="0.51" stop-color="#F39F8D"/>
<stop offset="0.76" stop-color="#F49383"/>
<stop offset="1" stop-color="#F58F80"/>
</linearGradient>
<linearGradient id="paint24_linear_6_1805" x1="193.655" y1="112.724" x2="195.491" y2="85.5521" gradientUnits="userSpaceOnUse">
<stop stop-color="#F7A190"/>
<stop offset="0.43" stop-color="#F3A592"/>
<stop offset="0.51" stop-color="#F39F8D"/>
<stop offset="0.76" stop-color="#F49383"/>
<stop offset="1" stop-color="#F58F80"/>
</linearGradient>
<linearGradient id="paint25_linear_6_1805" x1="189.986" y1="102.449" x2="190.784" y2="90.6333" gradientUnits="userSpaceOnUse">
<stop stop-color="#F7A190"/>
<stop offset="0.43" stop-color="#F3A592"/>
<stop offset="0.51" stop-color="#F39F8D"/>
<stop offset="0.76" stop-color="#F49383"/>
<stop offset="1" stop-color="#F58F80"/>
</linearGradient>
<linearGradient id="paint26_linear_6_1805" x1="201.924" y1="104.052" x2="185.172" y2="102.917" gradientUnits="userSpaceOnUse">
<stop stop-color="#F7A190"/>
<stop offset="0.43" stop-color="#F3A592"/>
<stop offset="0.51" stop-color="#F39F8D"/>
<stop offset="0.76" stop-color="#F49383"/>
<stop offset="1" stop-color="#F58F80"/>
</linearGradient>
<linearGradient id="paint27_linear_6_1805" x1="97.0158" y1="279.367" x2="271.256" y2="279.367" gradientUnits="userSpaceOnUse">
<stop stop-color="#F8A795"/>
<stop offset="0.43" stop-color="#F8A997"/>
<stop offset="0.52" stop-color="#F7A290"/>
<stop offset="0.76" stop-color="#F69684"/>
<stop offset="1" stop-color="#F69280"/>
</linearGradient>
<clipPath id="clip0_6_1805">
<rect width="321.531" height="912.299" fill="white" transform="translate(0.468628 -13.111)"/>
</clipPath>
</defs>
</svg>
