<svg width="273" height="269" viewBox="0 0 273 269" fill="none" xmlns="http://www.w3.org/2000/svg">
<path fill-rule="evenodd" clip-rule="evenodd" d="M125.473 227.951C106.103 227.951 94.884 225.098 84.9052 219.741C74.9264 214.383 67.0949 206.522 61.7582 196.504C56.4215 186.487 53.5794 175.225 53.5794 155.78V141.324C53.5794 121.88 56.4215 110.618 61.7582 100.6C67.0949 90.583 74.9264 82.7214 84.9052 77.3641C94.884 72.0067 106.103 69.1537 125.473 69.1537H201.107C220.476 69.1537 231.695 72.0067 241.674 77.3641C251.653 82.7214 259.485 90.583 264.821 100.6C270.158 110.618 273 121.88 273 141.324V155.78C273 175.225 270.158 186.487 264.821 196.504C259.485 206.522 251.653 214.383 241.674 219.741C231.695 225.098 220.476 227.951 201.107 227.951H145.505L168 268.5L112.262 227.951H125.473Z" fill="#00B578"/>
<path d="M84.1963 20.49C89.8327 20.49 94.4019 15.9031 94.4019 10.245C94.4019 4.58684 89.8327 0 84.1963 0C78.5599 0 73.9907 4.58684 73.9907 10.245C73.9907 15.9031 78.5599 20.49 84.1963 20.49Z" fill="#00B578"/>
<path d="M132.673 53.7862C135.491 53.7862 137.776 51.4928 137.776 48.6638C137.776 45.8347 135.491 43.5413 132.673 43.5413C129.855 43.5413 127.57 45.8347 127.57 48.6638C127.57 51.4928 129.855 53.7862 132.673 53.7862Z" fill="#00B578"/>
<path d="M19.1355 81.96C29.7038 81.96 38.271 73.3596 38.271 62.7506C38.271 52.1416 29.7038 43.5413 19.1355 43.5413C8.56726 43.5413 0 52.1416 0 62.7506C0 73.3596 8.56726 81.96 19.1355 81.96Z" fill="#919191"/>
<path d="M94.2102 113.159C93.392 113.159 92.6648 113.019 92.0284 112.739C91.3958 112.458 90.8958 112.068 90.5284 111.568C90.161 111.068 89.9659 110.491 89.9432 109.835H92.0795C92.0985 110.15 92.2027 110.424 92.392 110.659C92.5814 110.89 92.8333 111.07 93.1477 111.199C93.4621 111.328 93.8144 111.392 94.2045 111.392C94.6212 111.392 94.9905 111.32 95.3125 111.176C95.6345 111.028 95.8864 110.824 96.0682 110.562C96.25 110.301 96.339 110 96.3352 109.659C96.339 109.307 96.2481 108.996 96.0625 108.727C95.8769 108.458 95.608 108.248 95.2557 108.097C94.9072 107.945 94.4867 107.869 93.9943 107.869H92.9659V106.244H93.9943C94.3996 106.244 94.7538 106.174 95.0568 106.034C95.3636 105.894 95.6042 105.697 95.7784 105.443C95.9527 105.186 96.0379 104.888 96.0341 104.551C96.0379 104.222 95.964 103.936 95.8125 103.693C95.6648 103.447 95.4545 103.256 95.1818 103.119C94.9129 102.983 94.5966 102.915 94.233 102.915C93.8769 102.915 93.5473 102.979 93.2443 103.108C92.9413 103.237 92.697 103.42 92.5114 103.659C92.3258 103.894 92.2273 104.174 92.2159 104.5H90.1875C90.2027 103.848 90.3902 103.277 90.75 102.784C91.1136 102.288 91.5985 101.902 92.2045 101.625C92.8106 101.345 93.4905 101.205 94.2443 101.205C95.0208 101.205 95.6951 101.35 96.267 101.642C96.8428 101.93 97.2879 102.318 97.6023 102.807C97.9167 103.295 98.0739 103.835 98.0739 104.426C98.0777 105.081 97.8845 105.631 97.4943 106.074C97.108 106.517 96.6004 106.807 95.9716 106.943V107.034C96.7898 107.148 97.4167 107.451 97.8523 107.943C98.2917 108.432 98.5095 109.04 98.5057 109.767C98.5057 110.419 98.3201 111.002 97.9489 111.517C97.5814 112.028 97.0739 112.43 96.4261 112.722C95.7822 113.013 95.0436 113.159 94.2102 113.159ZM100.479 113V104.273H104.143C105.178 104.273 105.994 104.479 106.592 104.892C107.195 105.305 107.496 105.881 107.496 106.619C107.496 107.108 107.325 107.508 106.984 107.818C106.647 108.125 106.187 108.331 105.604 108.438C106.062 108.475 106.464 108.591 106.808 108.784C107.157 108.977 107.429 109.231 107.626 109.545C107.823 109.86 107.922 110.222 107.922 110.631C107.922 111.112 107.795 111.53 107.541 111.886C107.291 112.239 106.926 112.513 106.445 112.71C105.967 112.903 105.388 113 104.706 113H100.479ZM102.405 111.381H104.706C105.085 111.381 105.382 111.292 105.598 111.114C105.814 110.932 105.922 110.686 105.922 110.375C105.922 110.015 105.814 109.733 105.598 109.528C105.382 109.32 105.085 109.216 104.706 109.216H102.405V111.381ZM102.405 107.886H104.183C104.464 107.886 104.704 107.847 104.905 107.767C105.106 107.684 105.259 107.568 105.365 107.42C105.471 107.269 105.524 107.089 105.524 106.881C105.524 106.581 105.401 106.347 105.155 106.176C104.912 106.006 104.575 105.92 104.143 105.92H102.405V107.886ZM109.619 113V104.273H111.676V113H109.619ZM110.653 103.034C110.328 103.034 110.047 102.926 109.812 102.71C109.578 102.491 109.46 102.227 109.46 101.92C109.46 101.61 109.578 101.347 109.812 101.131C110.047 100.911 110.328 100.801 110.653 100.801C110.983 100.801 111.263 100.911 111.494 101.131C111.729 101.347 111.847 101.61 111.847 101.92C111.847 102.227 111.729 102.491 111.494 102.71C111.263 102.926 110.983 103.034 110.653 103.034ZM117.598 113.17C116.727 113.17 115.979 112.979 115.354 112.597C114.732 112.214 114.253 111.686 113.916 111.011C113.583 110.333 113.416 109.553 113.416 108.67C113.416 107.784 113.587 107.002 113.928 106.324C114.268 105.642 114.75 105.112 115.371 104.733C115.996 104.35 116.734 104.159 117.587 104.159C118.295 104.159 118.922 104.29 119.467 104.551C120.017 104.809 120.454 105.174 120.78 105.648C121.106 106.117 121.291 106.667 121.337 107.295H119.371C119.291 106.875 119.102 106.525 118.803 106.244C118.507 105.96 118.111 105.818 117.615 105.818C117.195 105.818 116.825 105.932 116.507 106.159C116.189 106.383 115.941 106.705 115.763 107.125C115.589 107.545 115.501 108.049 115.501 108.636C115.501 109.231 115.589 109.742 115.763 110.17C115.937 110.595 116.181 110.922 116.496 111.153C116.814 111.381 117.187 111.494 117.615 111.494C117.918 111.494 118.189 111.437 118.428 111.324C118.67 111.206 118.873 111.038 119.036 110.818C119.198 110.598 119.31 110.331 119.371 110.017H121.337C121.287 110.634 121.106 111.182 120.791 111.659C120.477 112.133 120.049 112.504 119.507 112.773C118.965 113.038 118.329 113.17 117.598 113.17ZM129.02 107.784V109.472H124.372V107.784H129.02ZM125.009 104.273V113H123.026V104.273H125.009ZM130.366 104.273V113H128.389V104.273H130.366ZM136.254 113.17C135.402 113.17 134.663 112.983 134.038 112.608C133.413 112.233 132.929 111.708 132.584 111.034C132.243 110.36 132.072 109.572 132.072 108.67C132.072 107.769 132.243 106.979 132.584 106.301C132.929 105.623 133.413 105.097 134.038 104.722C134.663 104.347 135.402 104.159 136.254 104.159C137.107 104.159 137.845 104.347 138.47 104.722C139.095 105.097 139.578 105.623 139.919 106.301C140.264 106.979 140.436 107.769 140.436 108.67C140.436 109.572 140.264 110.36 139.919 111.034C139.578 111.708 139.095 112.233 138.47 112.608C137.845 112.983 137.107 113.17 136.254 113.17ZM136.266 111.523C136.728 111.523 137.114 111.396 137.425 111.142C137.735 110.884 137.966 110.54 138.118 110.108C138.273 109.676 138.351 109.195 138.351 108.665C138.351 108.131 138.273 107.648 138.118 107.216C137.966 106.78 137.735 106.434 137.425 106.176C137.114 105.919 136.728 105.79 136.266 105.79C135.792 105.79 135.398 105.919 135.084 106.176C134.773 106.434 134.54 106.78 134.385 107.216C134.233 107.648 134.158 108.131 134.158 108.665C134.158 109.195 134.233 109.676 134.385 110.108C134.54 110.54 134.773 110.884 135.084 111.142C135.398 111.396 135.792 111.523 136.266 111.523ZM144.699 101.364L144.511 109.58H142.682L142.5 101.364H144.699ZM143.597 113.125C143.252 113.125 142.956 113.004 142.71 112.761C142.468 112.519 142.347 112.223 142.347 111.875C142.347 111.534 142.468 111.242 142.71 111C142.956 110.758 143.252 110.636 143.597 110.636C143.934 110.636 144.225 110.758 144.472 111C144.722 111.242 144.847 111.534 144.847 111.875C144.847 112.106 144.788 112.316 144.67 112.506C144.557 112.695 144.405 112.847 144.216 112.96C144.03 113.07 143.824 113.125 143.597 113.125ZM152.94 101.364L155.503 105.625H155.594L158.168 101.364H160.571L156.986 107.182L160.628 113H158.185L155.594 108.767H155.503L152.912 113H150.48L154.156 107.182L150.526 101.364H152.94ZM165.489 113.17C164.636 113.17 163.898 112.983 163.273 112.608C162.648 112.233 162.163 111.708 161.818 111.034C161.477 110.36 161.307 109.572 161.307 108.67C161.307 107.769 161.477 106.979 161.818 106.301C162.163 105.623 162.648 105.097 163.273 104.722C163.898 104.347 164.636 104.159 165.489 104.159C166.341 104.159 167.08 104.347 167.705 104.722C168.33 105.097 168.813 105.623 169.153 106.301C169.498 106.979 169.67 107.769 169.67 108.67C169.67 109.572 169.498 110.36 169.153 111.034C168.813 111.708 168.33 112.233 167.705 112.608C167.08 112.983 166.341 113.17 165.489 113.17ZM165.5 111.523C165.962 111.523 166.348 111.396 166.659 111.142C166.97 110.884 167.201 110.54 167.352 110.108C167.508 109.676 167.585 109.195 167.585 108.665C167.585 108.131 167.508 107.648 167.352 107.216C167.201 106.78 166.97 106.434 166.659 106.176C166.348 105.919 165.962 105.79 165.5 105.79C165.027 105.79 164.633 105.919 164.318 106.176C164.008 106.434 163.775 106.78 163.619 107.216C163.468 107.648 163.392 108.131 163.392 108.665C163.392 109.195 163.468 109.676 163.619 110.108C163.775 110.54 164.008 110.884 164.318 111.142C164.633 111.396 165.027 111.523 165.5 111.523ZM170.643 115.534V111.307H171.337C171.522 111.163 171.678 110.968 171.803 110.722C171.928 110.472 172.03 110.178 172.109 109.841C172.193 109.5 172.261 109.119 172.314 108.699C172.367 108.275 172.414 107.818 172.456 107.33L172.706 104.273H179.013V111.307H180.365V115.534H178.376V113H172.666V115.534H170.643ZM173.45 111.307H177.047V105.932H174.49L174.354 107.33C174.278 108.254 174.178 109.045 174.053 109.705C173.928 110.364 173.727 110.898 173.45 111.307ZM181.901 113V104.273H183.957V113H181.901ZM182.935 103.034C182.609 103.034 182.329 102.926 182.094 102.71C181.859 102.491 181.741 102.227 181.741 101.92C181.741 101.61 181.859 101.347 182.094 101.131C182.329 100.911 182.609 100.801 182.935 100.801C183.264 100.801 183.545 100.911 183.776 101.131C184.01 101.347 184.128 101.61 184.128 101.92C184.128 102.227 184.01 102.491 183.776 102.71C183.545 102.926 183.264 103.034 182.935 103.034ZM191.095 110.608L193.686 104.273H195.345L191.817 113H190.379L186.93 104.273H188.572L191.095 110.608ZM188.055 104.273V113H186.072V104.273H188.055ZM194.22 113V104.273H196.186V113H194.22ZM202.067 113.17C201.214 113.17 200.476 112.983 199.851 112.608C199.226 112.233 198.741 111.708 198.396 111.034C198.055 110.36 197.885 109.572 197.885 108.67C197.885 107.769 198.055 106.979 198.396 106.301C198.741 105.623 199.226 105.097 199.851 104.722C200.476 104.347 201.214 104.159 202.067 104.159C202.919 104.159 203.658 104.347 204.283 104.722C204.908 105.097 205.391 105.623 205.732 106.301C206.076 106.979 206.249 107.769 206.249 108.67C206.249 109.572 206.076 110.36 205.732 111.034C205.391 111.708 204.908 112.233 204.283 112.608C203.658 112.983 202.919 113.17 202.067 113.17ZM202.078 111.523C202.54 111.523 202.927 111.396 203.237 111.142C203.548 110.884 203.779 110.54 203.93 110.108C204.086 109.676 204.163 109.195 204.163 108.665C204.163 108.131 204.086 107.648 203.93 107.216C203.779 106.78 203.548 106.434 203.237 106.176C202.927 105.919 202.54 105.79 202.078 105.79C201.605 105.79 201.211 105.919 200.896 106.176C200.586 106.434 200.353 106.78 200.197 107.216C200.046 107.648 199.97 108.131 199.97 108.665C199.97 109.195 200.046 109.676 200.197 110.108C200.353 110.54 200.586 110.884 200.896 111.142C201.211 111.396 201.605 111.523 202.078 111.523ZM91.7386 123.273L93.5 126.494L95.2898 123.273H97.4659L94.8352 127.636L97.5114 132H95.3466L93.5 128.858L91.6705 132H89.4886L92.1477 127.636L89.5568 123.273H91.7386ZM98.4545 132L98.4432 130.307H98.7443C98.9716 130.307 99.1629 130.256 99.3182 130.153C99.4735 130.051 99.6023 129.881 99.7045 129.642C99.8068 129.4 99.8864 129.074 99.9432 128.665C100 128.256 100.04 127.746 100.062 127.136L100.216 123.273H106.58V132H104.591V124.96H102.085L101.949 127.773C101.915 128.5 101.833 129.131 101.705 129.665C101.58 130.195 101.402 130.633 101.17 130.977C100.943 131.322 100.657 131.58 100.312 131.75C99.9678 131.917 99.5606 132 99.0909 132H98.4545ZM112.457 132.17C111.605 132.17 110.866 131.983 110.241 131.608C109.616 131.233 109.132 130.708 108.787 130.034C108.446 129.36 108.276 128.572 108.276 127.67C108.276 126.769 108.446 125.979 108.787 125.301C109.132 124.623 109.616 124.097 110.241 123.722C110.866 123.347 111.605 123.159 112.457 123.159C113.31 123.159 114.048 123.347 114.673 123.722C115.298 124.097 115.781 124.623 116.122 125.301C116.467 125.979 116.639 126.769 116.639 127.67C116.639 128.572 116.467 129.36 116.122 130.034C115.781 130.708 115.298 131.233 114.673 131.608C114.048 131.983 113.31 132.17 112.457 132.17ZM112.469 130.523C112.931 130.523 113.317 130.396 113.628 130.142C113.938 129.884 114.17 129.54 114.321 129.108C114.476 128.676 114.554 128.195 114.554 127.665C114.554 127.131 114.476 126.648 114.321 126.216C114.17 125.78 113.938 125.434 113.628 125.176C113.317 124.919 112.931 124.79 112.469 124.79C111.995 124.79 111.601 124.919 111.287 125.176C110.976 125.434 110.743 125.78 110.588 126.216C110.437 126.648 110.361 127.131 110.361 127.665C110.361 128.195 110.437 128.676 110.588 129.108C110.743 129.54 110.976 129.884 111.287 130.142C111.601 130.396 111.995 130.523 112.469 130.523ZM118.385 132V123.273H125.754V132H123.771V124.96H120.351V132H118.385ZM135.159 123.273V132H133.182V123.273H135.159ZM134.233 127.216V128.898C134.009 128.996 133.756 129.085 133.472 129.165C133.191 129.241 132.894 129.301 132.58 129.347C132.269 129.392 131.958 129.415 131.648 129.415C130.481 129.415 129.559 129.153 128.881 128.631C128.206 128.104 127.869 127.284 127.869 126.17V123.261H129.835V126.17C129.835 126.545 129.902 126.847 130.034 127.074C130.167 127.301 130.367 127.468 130.636 127.574C130.905 127.676 131.242 127.727 131.648 127.727C132.102 127.727 132.534 127.682 132.943 127.591C133.352 127.5 133.782 127.375 134.233 127.216ZM139.212 129.216L142.706 123.273H144.82V132H142.831V126.051L139.348 132H137.229V123.273H139.212V129.216ZM146.932 132V123.273H148.989V126.795H149.739L152.364 123.273H154.841L151.608 127.557L154.875 132H152.386L149.994 128.71H148.989V132H146.932ZM158.024 129.216L161.518 123.273H163.632V132H161.643V126.051L158.161 132H156.041V123.273H158.024V129.216ZM171.034 126.307V128H165.795V126.307H171.034ZM95.8295 142.273V143.96H92.0682V151H90.0568V142.273H95.8295ZM100.926 151.17C100.074 151.17 99.3352 150.983 98.7102 150.608C98.0852 150.233 97.6004 149.708 97.2557 149.034C96.9148 148.36 96.7443 147.572 96.7443 146.67C96.7443 145.769 96.9148 144.979 97.2557 144.301C97.6004 143.623 98.0852 143.097 98.7102 142.722C99.3352 142.347 100.074 142.159 100.926 142.159C101.778 142.159 102.517 142.347 103.142 142.722C103.767 143.097 104.25 143.623 104.591 144.301C104.936 144.979 105.108 145.769 105.108 146.67C105.108 147.572 104.936 148.36 104.591 149.034C104.25 149.708 103.767 150.233 103.142 150.608C102.517 150.983 101.778 151.17 100.926 151.17ZM100.938 149.523C101.4 149.523 101.786 149.396 102.097 149.142C102.407 148.884 102.638 148.54 102.79 148.108C102.945 147.676 103.023 147.195 103.023 146.665C103.023 146.131 102.945 145.648 102.79 145.216C102.638 144.78 102.407 144.434 102.097 144.176C101.786 143.919 101.4 143.79 100.938 143.79C100.464 143.79 100.07 143.919 99.7557 144.176C99.4451 144.434 99.2121 144.78 99.0568 145.216C98.9053 145.648 98.8295 146.131 98.8295 146.665C98.8295 147.195 98.9053 147.676 99.0568 148.108C99.2121 148.54 99.4451 148.884 99.7557 149.142C100.07 149.396 100.464 149.523 100.938 149.523ZM106.854 154.273V142.273H108.876V143.716H108.996C109.102 143.504 109.251 143.278 109.445 143.04C109.638 142.797 109.899 142.591 110.229 142.42C110.558 142.246 110.979 142.159 111.49 142.159C112.164 142.159 112.772 142.331 113.314 142.676C113.859 143.017 114.291 143.523 114.609 144.193C114.931 144.86 115.092 145.678 115.092 146.648C115.092 147.606 114.935 148.42 114.621 149.091C114.306 149.761 113.878 150.273 113.337 150.625C112.795 150.977 112.181 151.153 111.496 151.153C110.996 151.153 110.581 151.07 110.251 150.903C109.922 150.737 109.657 150.536 109.456 150.301C109.259 150.062 109.106 149.837 108.996 149.625H108.911V154.273H106.854ZM108.871 146.636C108.871 147.201 108.95 147.695 109.109 148.119C109.272 148.544 109.505 148.875 109.808 149.114C110.115 149.348 110.486 149.466 110.922 149.466C111.376 149.466 111.757 149.345 112.064 149.102C112.371 148.856 112.602 148.521 112.757 148.097C112.916 147.669 112.996 147.182 112.996 146.636C112.996 146.095 112.918 145.614 112.763 145.193C112.607 144.773 112.376 144.443 112.07 144.205C111.763 143.966 111.38 143.847 110.922 143.847C110.482 143.847 110.109 143.962 109.803 144.193C109.496 144.424 109.263 144.748 109.104 145.165C108.948 145.581 108.871 146.072 108.871 146.636ZM120.661 151.17C119.808 151.17 119.07 150.983 118.445 150.608C117.82 150.233 117.335 149.708 116.99 149.034C116.649 148.36 116.479 147.572 116.479 146.67C116.479 145.769 116.649 144.979 116.99 144.301C117.335 143.623 117.82 143.097 118.445 142.722C119.07 142.347 119.808 142.159 120.661 142.159C121.513 142.159 122.251 142.347 122.876 142.722C123.501 143.097 123.984 143.623 124.325 144.301C124.67 144.979 124.842 145.769 124.842 146.67C124.842 147.572 124.67 148.36 124.325 149.034C123.984 149.708 123.501 150.233 122.876 150.608C122.251 150.983 121.513 151.17 120.661 151.17ZM120.672 149.523C121.134 149.523 121.52 149.396 121.831 149.142C122.142 148.884 122.373 148.54 122.524 148.108C122.679 147.676 122.757 147.195 122.757 146.665C122.757 146.131 122.679 145.648 122.524 145.216C122.373 144.78 122.142 144.434 121.831 144.176C121.52 143.919 121.134 143.79 120.672 143.79C120.198 143.79 119.804 143.919 119.49 144.176C119.179 144.434 118.946 144.78 118.791 145.216C118.64 145.648 118.564 146.131 118.564 146.665C118.564 147.195 118.64 147.676 118.791 148.108C118.946 148.54 119.179 148.884 119.49 149.142C119.804 149.396 120.198 149.523 120.672 149.523ZM133.582 139.045L134.298 140.375C134.045 140.595 133.76 140.754 133.446 140.852C133.132 140.951 132.762 141.015 132.338 141.045C131.918 141.072 131.418 141.091 130.838 141.102C130.187 141.117 129.654 141.241 129.241 141.472C128.829 141.703 128.512 142.053 128.293 142.523C128.073 142.989 127.929 143.583 127.861 144.307H127.957C128.23 143.773 128.613 143.366 129.105 143.085C129.598 142.805 130.175 142.665 130.838 142.665C131.562 142.665 132.2 142.828 132.753 143.153C133.31 143.475 133.743 143.943 134.054 144.557C134.368 145.17 134.526 145.913 134.526 146.784C134.526 147.682 134.357 148.46 134.02 149.119C133.683 149.775 133.204 150.28 132.582 150.636C131.965 150.992 131.232 151.17 130.384 151.17C129.539 151.17 128.804 150.987 128.179 150.619C127.558 150.248 127.077 149.701 126.736 148.977C126.399 148.25 126.23 147.354 126.23 146.29V145.506C126.23 143.453 126.613 141.92 127.378 140.909C128.143 139.898 129.277 139.383 130.781 139.364C131.228 139.356 131.628 139.354 131.98 139.358C132.336 139.362 132.647 139.345 132.912 139.307C133.177 139.269 133.401 139.182 133.582 139.045ZM130.395 149.523C130.815 149.523 131.179 149.415 131.486 149.199C131.793 148.979 132.027 148.669 132.19 148.267C132.357 147.866 132.44 147.39 132.44 146.841C132.44 146.299 132.357 145.839 132.19 145.46C132.024 145.078 131.787 144.786 131.48 144.585C131.173 144.384 130.808 144.284 130.384 144.284C130.065 144.284 129.779 144.341 129.526 144.455C129.272 144.568 129.056 144.735 128.878 144.955C128.7 145.174 128.563 145.441 128.469 145.756C128.374 146.07 128.323 146.432 128.315 146.841C128.315 147.663 128.501 148.316 128.872 148.801C129.243 149.282 129.751 149.523 130.395 149.523ZM143.565 142.273V151H141.588V142.273H143.565ZM142.639 146.216V147.898C142.416 147.996 142.162 148.085 141.878 148.165C141.598 148.241 141.3 148.301 140.986 148.347C140.675 148.392 140.365 148.415 140.054 148.415C138.887 148.415 137.965 148.153 137.287 147.631C136.613 147.104 136.276 146.284 136.276 145.17V142.261H138.241V145.17C138.241 145.545 138.308 145.847 138.44 146.074C138.573 146.301 138.774 146.468 139.043 146.574C139.312 146.676 139.649 146.727 140.054 146.727C140.509 146.727 140.94 146.682 141.349 146.591C141.759 146.5 142.188 146.375 142.639 146.216ZM147.618 148.216L151.112 142.273H153.226V151H151.237V145.051L147.754 151H145.635V142.273H147.618V148.216ZM155.338 151V142.273H157.395V145.795H158.145L160.77 142.273H163.247L160.014 146.557L163.281 151H160.793L158.401 147.71H157.395V151H155.338ZM166.43 148.216L169.925 142.273H172.038V151H170.05V145.051L166.567 151H164.447V142.273H166.43V148.216ZM181.926 151.17C181.055 151.17 180.307 150.979 179.682 150.597C179.061 150.214 178.581 149.686 178.244 149.011C177.911 148.333 177.744 147.553 177.744 146.67C177.744 145.784 177.915 145.002 178.256 144.324C178.597 143.642 179.078 143.112 179.699 142.733C180.324 142.35 181.063 142.159 181.915 142.159C182.623 142.159 183.25 142.29 183.795 142.551C184.345 142.809 184.782 143.174 185.108 143.648C185.434 144.117 185.619 144.667 185.665 145.295H183.699C183.619 144.875 183.43 144.525 183.131 144.244C182.835 143.96 182.439 143.818 181.943 143.818C181.523 143.818 181.153 143.932 180.835 144.159C180.517 144.383 180.269 144.705 180.091 145.125C179.917 145.545 179.83 146.049 179.83 146.636C179.83 147.231 179.917 147.742 180.091 148.17C180.265 148.595 180.509 148.922 180.824 149.153C181.142 149.381 181.515 149.494 181.943 149.494C182.246 149.494 182.517 149.437 182.756 149.324C182.998 149.206 183.201 149.038 183.364 148.818C183.527 148.598 183.638 148.331 183.699 148.017H185.665C185.616 148.634 185.434 149.182 185.119 149.659C184.805 150.133 184.377 150.504 183.835 150.773C183.294 151.038 182.657 151.17 181.926 151.17ZM187.354 151V142.273H189.411V145.795H190.161L192.786 142.273H195.263L192.03 146.557L195.297 151H192.808L190.416 147.71H189.411V151H187.354ZM199.911 151.17C199.058 151.17 198.32 150.983 197.695 150.608C197.07 150.233 196.585 149.708 196.24 149.034C195.899 148.36 195.729 147.572 195.729 146.67C195.729 145.769 195.899 144.979 196.24 144.301C196.585 143.623 197.07 143.097 197.695 142.722C198.32 142.347 199.058 142.159 199.911 142.159C200.763 142.159 201.501 142.347 202.126 142.722C202.751 143.097 203.234 143.623 203.575 144.301C203.92 144.979 204.092 145.769 204.092 146.67C204.092 147.572 203.92 148.36 203.575 149.034C203.234 149.708 202.751 150.233 202.126 150.608C201.501 150.983 200.763 151.17 199.911 151.17ZM199.922 149.523C200.384 149.523 200.77 149.396 201.081 149.142C201.392 148.884 201.623 148.54 201.774 148.108C201.929 147.676 202.007 147.195 202.007 146.665C202.007 146.131 201.929 145.648 201.774 145.216C201.623 144.78 201.392 144.434 201.081 144.176C200.77 143.919 200.384 143.79 199.922 143.79C199.448 143.79 199.054 143.919 198.74 144.176C198.429 144.434 198.196 144.78 198.041 145.216C197.89 145.648 197.814 146.131 197.814 146.665C197.814 147.195 197.89 147.676 198.041 148.108C198.196 148.54 198.429 148.884 198.74 149.142C199.054 149.396 199.448 149.523 199.922 149.523ZM205.838 154.273V142.273H207.861V143.716H207.98C208.086 143.504 208.236 143.278 208.429 143.04C208.622 142.797 208.884 142.591 209.213 142.42C209.543 142.246 209.963 142.159 210.474 142.159C211.149 142.159 211.757 142.331 212.298 142.676C212.844 143.017 213.276 143.523 213.594 144.193C213.916 144.86 214.077 145.678 214.077 146.648C214.077 147.606 213.92 148.42 213.605 149.091C213.291 149.761 212.863 150.273 212.321 150.625C211.779 150.977 211.166 151.153 210.48 151.153C209.98 151.153 209.565 151.07 209.236 150.903C208.906 150.737 208.641 150.536 208.44 150.301C208.243 150.062 208.09 149.837 207.98 149.625H207.895V154.273H205.838ZM207.855 146.636C207.855 147.201 207.935 147.695 208.094 148.119C208.257 148.544 208.49 148.875 208.793 149.114C209.099 149.348 209.471 149.466 209.906 149.466C210.361 149.466 210.741 149.345 211.048 149.102C211.355 148.856 211.586 148.521 211.741 148.097C211.901 147.669 211.98 147.182 211.98 146.636C211.98 146.095 211.902 145.614 211.747 145.193C211.592 144.773 211.361 144.443 211.054 144.205C210.747 143.966 210.365 143.847 209.906 143.847C209.467 143.847 209.094 143.962 208.787 144.193C208.48 144.424 208.247 144.748 208.088 145.165C207.933 145.581 207.855 146.072 207.855 146.636ZM215.838 151V142.273H217.895V151H215.838ZM216.872 141.034C216.546 141.034 216.266 140.926 216.031 140.71C215.796 140.491 215.679 140.227 215.679 139.92C215.679 139.61 215.796 139.347 216.031 139.131C216.266 138.911 216.546 138.801 216.872 138.801C217.202 138.801 217.482 138.911 217.713 139.131C217.948 139.347 218.065 139.61 218.065 139.92C218.065 140.227 217.948 140.491 217.713 140.71C217.482 140.926 217.202 141.034 216.872 141.034ZM220.01 142.273H221.993V149.307H224.737V142.273H226.72V149.307H229.464V142.273H231.447V151H220.01V142.273ZM235.94 149.409L235.866 150.034C235.813 150.511 235.719 150.996 235.582 151.489C235.45 151.985 235.31 152.441 235.162 152.858C235.014 153.275 234.895 153.602 234.804 153.841H233.418C233.471 153.61 233.543 153.295 233.634 152.898C233.728 152.5 233.819 152.053 233.906 151.557C233.993 151.061 234.052 150.557 234.082 150.045L234.122 149.409H235.94ZM97.0511 158.045L97.767 159.375C97.5133 159.595 97.2292 159.754 96.9148 159.852C96.6004 159.951 96.2311 160.015 95.8068 160.045C95.3864 160.072 94.8864 160.091 94.3068 160.102C93.6553 160.117 93.1231 160.241 92.7102 160.472C92.2973 160.703 91.9811 161.053 91.7614 161.523C91.5417 161.989 91.3977 162.583 91.3295 163.307H91.4261C91.6989 162.773 92.0814 162.366 92.5739 162.085C93.0663 161.805 93.6439 161.665 94.3068 161.665C95.0303 161.665 95.6686 161.828 96.2216 162.153C96.7784 162.475 97.2121 162.943 97.5227 163.557C97.8371 164.17 97.9943 164.913 97.9943 165.784C97.9943 166.682 97.8258 167.46 97.4886 168.119C97.1515 168.775 96.6723 169.28 96.0511 169.636C95.4337 169.992 94.7008 170.17 93.8523 170.17C93.0076 170.17 92.2727 169.987 91.6477 169.619C91.0265 169.248 90.5455 168.701 90.2045 167.977C89.8674 167.25 89.6989 166.354 89.6989 165.29V164.506C89.6989 162.453 90.0814 160.92 90.8466 159.909C91.6117 158.898 92.7462 158.383 94.25 158.364C94.697 158.356 95.0966 158.354 95.4489 158.358C95.8049 158.362 96.1155 158.345 96.3807 158.307C96.6458 158.269 96.8693 158.182 97.0511 158.045ZM93.8636 168.523C94.2841 168.523 94.6477 168.415 94.9545 168.199C95.2614 167.979 95.4962 167.669 95.6591 167.267C95.8258 166.866 95.9091 166.39 95.9091 165.841C95.9091 165.299 95.8258 164.839 95.6591 164.46C95.4924 164.078 95.2557 163.786 94.9489 163.585C94.642 163.384 94.2765 163.284 93.8523 163.284C93.5341 163.284 93.2481 163.341 92.9943 163.455C92.7405 163.568 92.5246 163.735 92.3466 163.955C92.1686 164.174 92.0322 164.441 91.9375 164.756C91.8428 165.07 91.7917 165.432 91.7841 165.841C91.7841 166.663 91.9697 167.316 92.3409 167.801C92.7121 168.282 93.2197 168.523 93.8636 168.523ZM103.551 170.17C102.699 170.17 101.96 169.983 101.335 169.608C100.71 169.233 100.225 168.708 99.8807 168.034C99.5398 167.36 99.3693 166.572 99.3693 165.67C99.3693 164.769 99.5398 163.979 99.8807 163.301C100.225 162.623 100.71 162.097 101.335 161.722C101.96 161.347 102.699 161.159 103.551 161.159C104.403 161.159 105.142 161.347 105.767 161.722C106.392 162.097 106.875 162.623 107.216 163.301C107.561 163.979 107.733 164.769 107.733 165.67C107.733 166.572 107.561 167.36 107.216 168.034C106.875 168.708 106.392 169.233 105.767 169.608C105.142 169.983 104.403 170.17 103.551 170.17ZM103.562 168.523C104.025 168.523 104.411 168.396 104.722 168.142C105.032 167.884 105.263 167.54 105.415 167.108C105.57 166.676 105.648 166.195 105.648 165.665C105.648 165.131 105.57 164.648 105.415 164.216C105.263 163.78 105.032 163.434 104.722 163.176C104.411 162.919 104.025 162.79 103.562 162.79C103.089 162.79 102.695 162.919 102.381 163.176C102.07 163.434 101.837 163.78 101.682 164.216C101.53 164.648 101.455 165.131 101.455 165.665C101.455 166.195 101.53 166.676 101.682 167.108C101.837 167.54 102.07 167.884 102.381 168.142C102.695 168.396 103.089 168.523 103.562 168.523ZM118.47 167.608L121.061 161.273H122.72L119.192 170H117.754L114.305 161.273H115.947L118.47 167.608ZM115.43 161.273V170H113.447V161.273H115.43ZM121.595 170V161.273H123.561V170H121.595ZM128.146 170.176C127.593 170.176 127.095 170.078 126.652 169.881C126.213 169.68 125.864 169.384 125.607 168.994C125.353 168.604 125.226 168.123 125.226 167.551C125.226 167.059 125.317 166.652 125.499 166.33C125.68 166.008 125.929 165.75 126.243 165.557C126.557 165.364 126.911 165.218 127.305 165.119C127.703 165.017 128.114 164.943 128.538 164.898C129.05 164.845 129.464 164.797 129.783 164.756C130.101 164.71 130.332 164.642 130.476 164.551C130.624 164.456 130.697 164.311 130.697 164.114V164.08C130.697 163.652 130.571 163.32 130.317 163.085C130.063 162.85 129.697 162.733 129.22 162.733C128.716 162.733 128.317 162.843 128.021 163.062C127.73 163.282 127.533 163.542 127.43 163.841L125.51 163.568C125.661 163.038 125.911 162.595 126.26 162.239C126.608 161.879 127.035 161.61 127.538 161.432C128.042 161.25 128.599 161.159 129.209 161.159C129.629 161.159 130.048 161.208 130.464 161.307C130.881 161.405 131.262 161.568 131.607 161.795C131.951 162.019 132.228 162.324 132.436 162.71C132.648 163.097 132.754 163.58 132.754 164.159V170H130.777V168.801H130.709C130.584 169.044 130.408 169.271 130.18 169.483C129.957 169.691 129.675 169.86 129.334 169.989C128.997 170.114 128.601 170.176 128.146 170.176ZM128.68 168.665C129.093 168.665 129.451 168.583 129.754 168.42C130.057 168.254 130.29 168.034 130.453 167.761C130.62 167.489 130.703 167.191 130.703 166.869V165.841C130.639 165.894 130.529 165.943 130.374 165.989C130.222 166.034 130.052 166.074 129.862 166.108C129.673 166.142 129.485 166.172 129.3 166.199C129.114 166.225 128.953 166.248 128.817 166.267C128.51 166.309 128.235 166.377 127.993 166.472C127.75 166.566 127.559 166.699 127.419 166.869C127.279 167.036 127.209 167.252 127.209 167.517C127.209 167.896 127.347 168.182 127.624 168.375C127.9 168.568 128.252 168.665 128.68 168.665ZM140.595 161.273V162.96H136.834V170H134.822V161.273H140.595ZM144.396 170.176C143.843 170.176 143.345 170.078 142.902 169.881C142.463 169.68 142.114 169.384 141.857 168.994C141.603 168.604 141.476 168.123 141.476 167.551C141.476 167.059 141.567 166.652 141.749 166.33C141.93 166.008 142.179 165.75 142.493 165.557C142.807 165.364 143.161 165.218 143.555 165.119C143.953 165.017 144.364 164.943 144.788 164.898C145.3 164.845 145.714 164.797 146.033 164.756C146.351 164.71 146.582 164.642 146.726 164.551C146.874 164.456 146.947 164.311 146.947 164.114V164.08C146.947 163.652 146.821 163.32 146.567 163.085C146.313 162.85 145.947 162.733 145.47 162.733C144.966 162.733 144.567 162.843 144.271 163.062C143.98 163.282 143.783 163.542 143.68 163.841L141.76 163.568C141.911 163.038 142.161 162.595 142.51 162.239C142.858 161.879 143.285 161.61 143.788 161.432C144.292 161.25 144.849 161.159 145.459 161.159C145.879 161.159 146.298 161.208 146.714 161.307C147.131 161.405 147.512 161.568 147.857 161.795C148.201 162.019 148.478 162.324 148.686 162.71C148.898 163.097 149.004 163.58 149.004 164.159V170H147.027V168.801H146.959C146.834 169.044 146.658 169.271 146.43 169.483C146.207 169.691 145.925 169.86 145.584 169.989C145.247 170.114 144.851 170.176 144.396 170.176ZM144.93 168.665C145.343 168.665 145.701 168.583 146.004 168.42C146.307 168.254 146.54 168.034 146.703 167.761C146.87 167.489 146.953 167.191 146.953 166.869V165.841C146.889 165.894 146.779 165.943 146.624 165.989C146.472 166.034 146.302 166.074 146.112 166.108C145.923 166.142 145.735 166.172 145.55 166.199C145.364 166.225 145.203 166.248 145.067 166.267C144.76 166.309 144.485 166.377 144.243 166.472C144 166.566 143.809 166.699 143.669 166.869C143.529 167.036 143.459 167.252 143.459 167.517C143.459 167.896 143.597 168.182 143.874 168.375C144.15 168.568 144.502 168.665 144.93 168.665ZM150.589 167.608H152.629C152.648 167.934 152.794 168.186 153.067 168.364C153.339 168.542 153.694 168.631 154.129 168.631C154.572 168.631 154.946 168.534 155.249 168.341C155.555 168.144 155.709 167.847 155.709 167.449C155.709 167.214 155.65 167.008 155.533 166.83C155.415 166.648 155.25 166.508 155.038 166.409C154.826 166.311 154.576 166.261 154.288 166.261H152.953V164.801H154.288C154.716 164.801 155.04 164.703 155.26 164.506C155.483 164.309 155.595 164.061 155.595 163.761C155.595 163.439 155.478 163.178 155.243 162.977C155.012 162.777 154.692 162.676 154.283 162.676C153.874 162.676 153.533 162.769 153.26 162.955C152.991 163.14 152.851 163.379 152.839 163.67H150.811C150.819 163.163 150.97 162.722 151.266 162.347C151.565 161.972 151.966 161.68 152.47 161.472C152.978 161.263 153.55 161.159 154.186 161.159C154.868 161.159 155.457 161.261 155.953 161.466C156.449 161.67 156.832 161.956 157.101 162.324C157.37 162.687 157.504 163.116 157.504 163.608C157.504 164.081 157.357 164.473 157.061 164.784C156.766 165.091 156.368 165.311 155.868 165.443V165.534C156.213 165.553 156.523 165.652 156.8 165.83C157.076 166.004 157.296 166.241 157.459 166.54C157.622 166.839 157.703 167.186 157.703 167.58C157.703 168.114 157.55 168.576 157.243 168.966C156.936 169.352 156.514 169.65 155.976 169.858C155.442 170.066 154.83 170.17 154.141 170.17C153.47 170.17 152.87 170.07 152.339 169.869C151.813 169.665 151.394 169.371 151.084 168.989C150.773 168.606 150.608 168.146 150.589 167.608ZM161.305 167.216L164.8 161.273H166.913V170H164.925V164.051L161.442 170H159.322V161.273H161.305V167.216ZM175.02 164.784V166.472H170.372V164.784H175.02ZM171.009 161.273V170H169.026V161.273H171.009ZM176.366 161.273V170H174.389V161.273H176.366ZM180.43 167.216L183.925 161.273H186.038V170H184.05V164.051L180.567 170H178.447V161.273H180.43V167.216ZM195.926 170.17C195.055 170.17 194.307 169.979 193.682 169.597C193.061 169.214 192.581 168.686 192.244 168.011C191.911 167.333 191.744 166.553 191.744 165.67C191.744 164.784 191.915 164.002 192.256 163.324C192.597 162.642 193.078 162.112 193.699 161.733C194.324 161.35 195.063 161.159 195.915 161.159C196.623 161.159 197.25 161.29 197.795 161.551C198.345 161.809 198.782 162.174 199.108 162.648C199.434 163.117 199.619 163.667 199.665 164.295H197.699C197.619 163.875 197.43 163.525 197.131 163.244C196.835 162.96 196.439 162.818 195.943 162.818C195.523 162.818 195.153 162.932 194.835 163.159C194.517 163.383 194.269 163.705 194.091 164.125C193.917 164.545 193.83 165.049 193.83 165.636C193.83 166.231 193.917 166.742 194.091 167.17C194.265 167.595 194.509 167.922 194.824 168.153C195.142 168.381 195.515 168.494 195.943 168.494C196.246 168.494 196.517 168.437 196.756 168.324C196.998 168.206 197.201 168.038 197.364 167.818C197.527 167.598 197.638 167.331 197.699 167.017H199.665C199.616 167.634 199.434 168.182 199.119 168.659C198.805 169.133 198.377 169.504 197.835 169.773C197.294 170.038 196.657 170.17 195.926 170.17ZM201.354 170V161.273H203.411V164.795H204.161L206.786 161.273H209.263L206.03 165.557L209.297 170H206.808L204.416 166.71H203.411V170H201.354ZM213.911 170.17C213.058 170.17 212.32 169.983 211.695 169.608C211.07 169.233 210.585 168.708 210.24 168.034C209.899 167.36 209.729 166.572 209.729 165.67C209.729 164.769 209.899 163.979 210.24 163.301C210.585 162.623 211.07 162.097 211.695 161.722C212.32 161.347 213.058 161.159 213.911 161.159C214.763 161.159 215.501 161.347 216.126 161.722C216.751 162.097 217.234 162.623 217.575 163.301C217.92 163.979 218.092 164.769 218.092 165.67C218.092 166.572 217.92 167.36 217.575 168.034C217.234 168.708 216.751 169.233 216.126 169.608C215.501 169.983 214.763 170.17 213.911 170.17ZM213.922 168.523C214.384 168.523 214.77 168.396 215.081 168.142C215.392 167.884 215.623 167.54 215.774 167.108C215.929 166.676 216.007 166.195 216.007 165.665C216.007 165.131 215.929 164.648 215.774 164.216C215.623 163.78 215.392 163.434 215.081 163.176C214.77 162.919 214.384 162.79 213.922 162.79C213.448 162.79 213.054 162.919 212.74 163.176C212.429 163.434 212.196 163.78 212.041 164.216C211.89 164.648 211.814 165.131 211.814 165.665C211.814 166.195 211.89 166.676 212.041 167.108C212.196 167.54 212.429 167.884 212.74 168.142C213.054 168.396 213.448 168.523 213.922 168.523ZM219.838 173.273V161.273H221.861V162.716H221.98C222.086 162.504 222.236 162.278 222.429 162.04C222.622 161.797 222.884 161.591 223.213 161.42C223.543 161.246 223.963 161.159 224.474 161.159C225.149 161.159 225.757 161.331 226.298 161.676C226.844 162.017 227.276 162.523 227.594 163.193C227.916 163.86 228.077 164.678 228.077 165.648C228.077 166.606 227.92 167.42 227.605 168.091C227.291 168.761 226.863 169.273 226.321 169.625C225.779 169.977 225.166 170.153 224.48 170.153C223.98 170.153 223.565 170.07 223.236 169.903C222.906 169.737 222.641 169.536 222.44 169.301C222.243 169.062 222.09 168.837 221.98 168.625H221.895V173.273H219.838ZM221.855 165.636C221.855 166.201 221.935 166.695 222.094 167.119C222.257 167.544 222.49 167.875 222.793 168.114C223.099 168.348 223.471 168.466 223.906 168.466C224.361 168.466 224.741 168.345 225.048 168.102C225.355 167.856 225.586 167.521 225.741 167.097C225.901 166.669 225.98 166.182 225.98 165.636C225.98 165.095 225.902 164.614 225.747 164.193C225.592 163.773 225.361 163.443 225.054 163.205C224.747 162.966 224.365 162.847 223.906 162.847C223.467 162.847 223.094 162.962 222.787 163.193C222.48 163.424 222.247 163.748 222.088 164.165C221.933 164.581 221.855 165.072 221.855 165.636ZM233.645 170.17C232.793 170.17 232.054 169.983 231.429 169.608C230.804 169.233 230.319 168.708 229.974 168.034C229.634 167.36 229.463 166.572 229.463 165.67C229.463 164.769 229.634 163.979 229.974 163.301C230.319 162.623 230.804 162.097 231.429 161.722C232.054 161.347 232.793 161.159 233.645 161.159C234.497 161.159 235.236 161.347 235.861 161.722C236.486 162.097 236.969 162.623 237.31 163.301C237.654 163.979 237.827 164.769 237.827 165.67C237.827 166.572 237.654 167.36 237.31 168.034C236.969 168.708 236.486 169.233 235.861 169.608C235.236 169.983 234.497 170.17 233.645 170.17ZM233.656 168.523C234.118 168.523 234.505 168.396 234.815 168.142C235.126 167.884 235.357 167.54 235.509 167.108C235.664 166.676 235.741 166.195 235.741 165.665C235.741 165.131 235.664 164.648 235.509 164.216C235.357 163.78 235.126 163.434 234.815 163.176C234.505 162.919 234.118 162.79 233.656 162.79C233.183 162.79 232.789 162.919 232.474 163.176C232.164 163.434 231.931 163.78 231.776 164.216C231.624 164.648 231.548 165.131 231.548 165.665C231.548 166.195 231.624 166.676 231.776 167.108C231.931 167.54 232.164 167.884 232.474 168.142C232.789 168.396 233.183 168.523 233.656 168.523ZM89.5739 186.608H91.6136C91.6326 186.934 91.7784 187.186 92.0511 187.364C92.3239 187.542 92.678 187.631 93.1136 187.631C93.5568 187.631 93.9299 187.534 94.233 187.341C94.5398 187.144 94.6932 186.847 94.6932 186.449C94.6932 186.214 94.6345 186.008 94.517 185.83C94.3996 185.648 94.2348 185.508 94.0227 185.409C93.8106 185.311 93.5606 185.261 93.2727 185.261H91.9375V183.801H93.2727C93.7008 183.801 94.0246 183.703 94.2443 183.506C94.4678 183.309 94.5795 183.061 94.5795 182.761C94.5795 182.439 94.4621 182.178 94.2273 181.977C93.9962 181.777 93.6761 181.676 93.267 181.676C92.858 181.676 92.517 181.769 92.2443 181.955C91.9754 182.14 91.8352 182.379 91.8239 182.67H89.7955C89.803 182.163 89.9545 181.722 90.25 181.347C90.5492 180.972 90.9508 180.68 91.4545 180.472C91.9621 180.263 92.5341 180.159 93.1705 180.159C93.8523 180.159 94.4413 180.261 94.9375 180.466C95.4337 180.67 95.8163 180.956 96.0852 181.324C96.3542 181.687 96.4886 182.116 96.4886 182.608C96.4886 183.081 96.3409 183.473 96.0455 183.784C95.75 184.091 95.3523 184.311 94.8523 184.443V184.534C95.197 184.553 95.5076 184.652 95.7841 184.83C96.0606 185.004 96.2803 185.241 96.4432 185.54C96.6061 185.839 96.6875 186.186 96.6875 186.58C96.6875 187.114 96.5341 187.576 96.2273 187.966C95.9205 188.352 95.4981 188.65 94.9602 188.858C94.4261 189.066 93.8144 189.17 93.125 189.17C92.4545 189.17 91.8542 189.07 91.3239 188.869C90.7973 188.665 90.3788 188.371 90.0682 187.989C89.7576 187.606 89.5928 187.146 89.5739 186.608ZM100.818 189.176C100.265 189.176 99.767 189.078 99.3239 188.881C98.8845 188.68 98.536 188.384 98.2784 187.994C98.0246 187.604 97.8977 187.123 97.8977 186.551C97.8977 186.059 97.9886 185.652 98.1705 185.33C98.3523 185.008 98.6004 184.75 98.9148 184.557C99.2292 184.364 99.5833 184.218 99.9773 184.119C100.375 184.017 100.786 183.943 101.21 183.898C101.722 183.845 102.136 183.797 102.455 183.756C102.773 183.71 103.004 183.642 103.148 183.551C103.295 183.456 103.369 183.311 103.369 183.114V183.08C103.369 182.652 103.242 182.32 102.989 182.085C102.735 181.85 102.369 181.733 101.892 181.733C101.388 181.733 100.989 181.843 100.693 182.062C100.402 182.282 100.205 182.542 100.102 182.841L98.1818 182.568C98.3333 182.038 98.5833 181.595 98.9318 181.239C99.2803 180.879 99.7064 180.61 100.21 180.432C100.714 180.25 101.271 180.159 101.881 180.159C102.301 180.159 102.72 180.208 103.136 180.307C103.553 180.405 103.934 180.568 104.278 180.795C104.623 181.019 104.9 181.324 105.108 181.71C105.32 182.097 105.426 182.58 105.426 183.159V189H103.449V187.801H103.381C103.256 188.044 103.08 188.271 102.852 188.483C102.629 188.691 102.347 188.86 102.006 188.989C101.669 189.114 101.273 189.176 100.818 189.176ZM101.352 187.665C101.765 187.665 102.123 187.583 102.426 187.42C102.729 187.254 102.962 187.034 103.125 186.761C103.292 186.489 103.375 186.191 103.375 185.869V184.841C103.311 184.894 103.201 184.943 103.045 184.989C102.894 185.034 102.723 185.074 102.534 185.108C102.345 185.142 102.157 185.172 101.972 185.199C101.786 185.225 101.625 185.248 101.489 185.267C101.182 185.309 100.907 185.377 100.665 185.472C100.422 185.566 100.231 185.699 100.091 185.869C99.9508 186.036 99.8807 186.252 99.8807 186.517C99.8807 186.896 100.019 187.182 100.295 187.375C100.572 187.568 100.924 187.665 101.352 187.665ZM114.784 180.273V189H112.807V180.273H114.784ZM113.858 184.216V185.898C113.634 185.996 113.381 186.085 113.097 186.165C112.816 186.241 112.519 186.301 112.205 186.347C111.894 186.392 111.583 186.415 111.273 186.415C110.106 186.415 109.184 186.153 108.506 185.631C107.831 185.104 107.494 184.284 107.494 183.17V180.261H109.46V183.17C109.46 183.545 109.527 183.847 109.659 184.074C109.792 184.301 109.992 184.468 110.261 184.574C110.53 184.676 110.867 184.727 111.273 184.727C111.727 184.727 112.159 184.682 112.568 184.591C112.977 184.5 113.407 184.375 113.858 184.216ZM118.837 186.216L122.331 180.273H124.445V189H122.456V183.051L118.973 189H116.854V180.273H118.837V186.216ZM132.551 183.784V185.472H127.903V183.784H132.551ZM128.54 180.273V189H126.557V180.273H128.54ZM133.898 180.273V189H131.92V180.273H133.898ZM141.138 189V181.943H139.274C138.801 181.943 138.437 182.053 138.183 182.273C137.929 182.492 137.804 182.765 137.808 183.091C137.804 183.417 137.924 183.686 138.166 183.898C138.409 184.11 138.755 184.216 139.206 184.216H141.786V185.716H139.206C138.509 185.716 137.907 185.606 137.399 185.386C136.892 185.167 136.501 184.856 136.229 184.455C135.956 184.053 135.82 183.583 135.82 183.045C135.82 182.485 135.958 181.998 136.234 181.585C136.515 181.169 136.912 180.847 137.428 180.619C137.946 180.388 138.562 180.273 139.274 180.273H143.064V189H141.138ZM135.501 189L137.939 184.523H139.967L137.524 189H135.501ZM149.743 183.847V185.54H145.044V183.847H149.743ZM146.675 180.273V189H144.612V180.273H146.675ZM152.379 189.17C151.538 189.17 150.809 188.979 150.192 188.597C149.578 188.214 149.103 187.684 148.766 187.006C148.429 186.328 148.26 185.544 148.26 184.653C148.26 183.763 148.429 182.981 148.766 182.307C149.103 181.633 149.578 181.106 150.192 180.727C150.809 180.348 151.538 180.159 152.379 180.159C153.216 180.159 153.942 180.348 154.555 180.727C155.173 181.106 155.65 181.633 155.987 182.307C156.328 182.981 156.499 183.763 156.499 184.653C156.499 185.544 156.328 186.328 155.987 187.006C155.65 187.684 155.173 188.214 154.555 188.597C153.942 188.979 153.216 189.17 152.379 189.17ZM152.379 187.466C152.875 187.466 153.281 187.341 153.595 187.091C153.91 186.841 154.141 186.504 154.288 186.08C154.436 185.655 154.51 185.18 154.51 184.653C154.51 184.127 154.436 183.652 154.288 183.227C154.141 182.803 153.91 182.468 153.595 182.222C153.281 181.972 152.875 181.847 152.379 181.847C151.879 181.847 151.47 181.972 151.152 182.222C150.838 182.468 150.607 182.803 150.459 183.227C150.311 183.652 150.237 184.127 150.237 184.653C150.237 185.184 150.311 185.661 150.459 186.085C150.607 186.509 150.838 186.847 151.152 187.097C151.47 187.343 151.879 187.466 152.379 187.466ZM157.361 181.96V180.273H164.997V181.96H162.173V189H160.185V181.96H157.361ZM168.027 183.114H170.601C171.714 183.114 172.576 183.384 173.186 183.926C173.796 184.468 174.103 185.178 174.107 186.057C174.103 186.629 173.963 187.136 173.686 187.58C173.413 188.023 173.016 188.371 172.493 188.625C171.974 188.875 171.343 189 170.601 189H166.635V180.273H168.618V187.312H170.601C171.048 187.312 171.415 187.199 171.703 186.972C171.991 186.741 172.135 186.445 172.135 186.085C172.135 185.706 171.991 185.398 171.703 185.159C171.415 184.92 171.048 184.801 170.601 184.801H168.027V183.114ZM179.676 189.17C178.805 189.17 178.057 188.979 177.432 188.597C176.811 188.214 176.331 187.686 175.994 187.011C175.661 186.333 175.494 185.553 175.494 184.67C175.494 183.784 175.665 183.002 176.006 182.324C176.347 181.642 176.828 181.112 177.449 180.733C178.074 180.35 178.813 180.159 179.665 180.159C180.373 180.159 181 180.29 181.545 180.551C182.095 180.809 182.532 181.174 182.858 181.648C183.184 182.117 183.369 182.667 183.415 183.295H181.449C181.369 182.875 181.18 182.525 180.881 182.244C180.585 181.96 180.189 181.818 179.693 181.818C179.273 181.818 178.903 181.932 178.585 182.159C178.267 182.383 178.019 182.705 177.841 183.125C177.667 183.545 177.58 184.049 177.58 184.636C177.58 185.231 177.667 185.742 177.841 186.17C178.015 186.595 178.259 186.922 178.574 187.153C178.892 187.381 179.265 187.494 179.693 187.494C179.996 187.494 180.267 187.437 180.506 187.324C180.748 187.206 180.951 187.038 181.114 186.818C181.277 186.598 181.388 186.331 181.449 186.017H183.415C183.366 186.634 183.184 187.182 182.869 187.659C182.555 188.133 182.127 188.504 181.585 188.773C181.044 189.038 180.407 189.17 179.676 189.17ZM190.263 189V181.943H188.399C187.926 181.943 187.562 182.053 187.308 182.273C187.054 182.492 186.929 182.765 186.933 183.091C186.929 183.417 187.049 183.686 187.291 183.898C187.534 184.11 187.88 184.216 188.331 184.216H190.911V185.716H188.331C187.634 185.716 187.032 185.606 186.524 185.386C186.017 185.167 185.626 184.856 185.354 184.455C185.081 184.053 184.945 183.583 184.945 183.045C184.945 182.485 185.083 181.998 185.359 181.585C185.64 181.169 186.037 180.847 186.553 180.619C187.071 180.388 187.687 180.273 188.399 180.273H192.189V189H190.263ZM184.626 189L187.064 184.523H189.092L186.649 189H184.626Z" fill="#F6F1F1"/>
</svg>
