<svg width="3361" height="754" viewBox="0 0 3361 754" fill="none" xmlns="http://www.w3.org/2000/svg">
<path d="M2979.1 218.482C2958.62 236.234 2953.5 253.758 2953.5 260.301L2959.47 289.318" stroke="#F6A594" stroke-width="12"/>
<path d="M3002.55 180.007L3000.91 205.604L2981.36 207.838L3007.09 234.367L3041.09 208.958L3024.72 205.842L3023.83 171.368L3002.55 180.007Z" fill="url(#paint0_linear_121_5)"/>
<path d="M3005.99 118.251C3005.99 118.251 2977.49 121.764 2975.6 155.584C2973.7 189.404 2998.82 195.543 3014.41 191.45C3029.99 187.356 3038.98 169.32 3040.24 159.193C3041.5 149.066 3031.94 116.343 3005.98 118.259L3005.99 118.251Z" fill="url(#paint1_linear_121_5)"/>
<path d="M2993.66 206.376C2993.66 206.376 2983.56 205.11 2976.02 208.621C2968.48 212.132 2963.7 238.177 2961.79 249.046C2959.88 259.915 2971.37 283.843 2971.37 283.843C2971.37 283.843 3028.64 290.996 3051.67 276.868L3052.59 244.069C3052.59 244.069 3046.34 216.783 3044.25 207.686L3034.33 206.404C3034.33 206.404 2998.27 226.662 2993.65 206.37L2993.66 206.376Z" fill="#951A22"/>
<path d="M2998.25 167.104C2998.25 167.104 2998.34 167.388 2999.41 167.465C3000.48 167.541 3001.45 168.515 3003.27 168.574C3005.08 168.633 3006.03 167.731 3007.1 167.726C3008.17 167.721 3008.37 167.446 3008.37 167.446C3008.55 166.752 3008.47 166.067 3008.29 165.472L3008.29 165.452C3007.97 164.415 3007.36 163.674 3007.36 163.674C3004.85 162.353 3002.11 162.265 2999.51 163.413C2999.51 163.413 2999.09 163.864 2998.72 164.56L2998.72 164.567C2998.37 165.242 2998.07 166.15 2998.26 167.11L2998.25 167.104Z" fill="url(#paint2_linear_121_5)"/>
<path d="M3000.66 167.851C3000.66 167.851 2999.86 167.114 2998.83 167.386L3000.66 167.851Z" fill="#812852"/>
<path d="M3007.65 167.685C3007.65 167.685 3006.62 167.34 3005.56 168.131L3007.65 167.685Z" fill="#812852"/>
<g style="mix-blend-mode:multiply" opacity="0.6">
<path d="M2998.25 167.104C2998.25 167.104 2998.34 167.389 2999.41 167.465C3000.48 167.542 3001.45 168.515 3003.27 168.574C3005.08 168.634 3006.03 167.731 3007.1 167.726C3008.17 167.721 3008.37 167.447 3008.37 167.447C3008.55 166.752 3008.47 166.067 3008.29 165.473C3008.32 165.646 3008.51 166.763 3008.08 167.017C3007.6 167.296 3004.97 167.036 3003.31 166.977C3001.66 166.923 2998.84 166.829 2998.54 166.381C2998.25 165.951 2998.67 164.68 2998.71 164.568C2998.36 165.243 2998.06 166.151 2998.25 167.111L2998.25 167.104Z" fill="#C978B1"/>
</g>
<path style="mix-blend-mode:multiply" opacity="0.6" d="M2999.51 163.407C2999.51 163.407 3000.04 165.254 2999.92 166.532C2999.92 166.532 3000.41 165.296 2999.89 163.252L2999.51 163.414L2999.51 163.407Z" fill="url(#paint3_linear_121_5)"/>
<path style="mix-blend-mode:multiply" opacity="0.6" d="M3007.26 163.669C3007.26 163.669 3006.61 165.476 3006.64 166.756C3006.64 166.756 3006.24 165.494 3006.89 163.485L3007.26 163.67L3007.26 163.669Z" fill="url(#paint4_linear_121_5)"/>
<g style="mix-blend-mode:multiply" opacity="0.6">
<path d="M3008.08 167.01C3008.08 167.01 3008.32 167.294 3008.37 167.439C3008.42 167.584 3005.94 169.774 3003.23 169.683C3000.52 169.593 2998.29 167.379 2998.25 167.104C2998.21 166.823 2998.66 166.492 2998.66 166.492C2998.66 166.492 3000.77 166.892 3003.32 166.976C3005.87 167.06 3008.08 167.016 3008.08 167.016L3008.08 167.01Z" fill="#C978B1"/>
</g>
<path d="M3001.18 166.28C3001.57 166.076 3000.92 165.414 3000.74 165.437C3000.55 165.453 3000.44 165.863 3000.53 166.126C3000.62 166.389 3001.02 166.362 3001.18 166.273L3001.18 166.28Z" fill="#FBC9B8"/>
<path d="M3046.61 164.132C3046.36 164.846 3046.1 165.478 3045.84 166.044L3045.82 166.073C3043.93 170.096 3041.81 170.809 3040.75 172.597C3039.83 174.142 3036.66 177.056 3034.46 173.259L3034.45 173.246C3034.45 173.246 3037.67 159.496 3039.05 157.104C3039.05 157.104 3041.06 153.511 3043.8 153.307C3047.33 153.048 3048.85 157.846 3046.61 164.132V164.132Z" fill="url(#paint5_linear_121_5)"/>
<path style="mix-blend-mode:multiply" opacity="0.6" d="M3036.59 164.731C3036.59 164.731 3043.02 157.708 3045.66 157.554C3048.29 157.4 3046.08 163.818 3045.26 165.944C3044.45 168.071 3043.49 169.259 3043.49 169.259C3043.49 169.259 3044.5 166.757 3044.92 164.672C3045.52 161.683 3044.92 158.961 3043.81 159.057C3042.7 159.154 3040.73 162.744 3040.57 163.164C3040.42 163.584 3041.11 164.467 3040.74 166.799C3040.37 169.137 3038.89 171.517 3038.29 171.406C3037.69 171.289 3038.22 169.432 3038.52 167.242C3038.83 165.052 3037.06 165.24 3036.11 166.557L3036.59 164.731Z" fill="url(#paint6_linear_121_5)"/>
<path style="mix-blend-mode:multiply" opacity="0.6" d="M3036.11 166.55C3036.11 166.55 3037.77 164.662 3038.47 165.721C3039.17 166.779 3038.21 169.318 3038.79 169.722C3039.38 170.125 3040.52 168.12 3040.63 166.164C3040.74 164.201 3040.21 162.354 3039.07 162.528L3036.59 164.724L3036.11 166.549L3036.11 166.55Z" fill="url(#paint7_linear_121_5)"/>
<path style="mix-blend-mode:multiply" d="M3045.82 166.066C3043.93 170.089 3041.81 170.802 3040.75 172.59C3039.83 174.135 3036.66 177.049 3034.46 173.252C3034.6 173.409 3035.98 174.883 3037.63 174.53C3039.37 174.154 3040.12 172.679 3040.99 171.579C3041.85 170.473 3043.76 169.907 3045.82 166.066Z" fill="url(#paint8_linear_121_5)"/>
<path d="M3004.44 114.018C3004.44 114.018 3006.01 106.835 3003.17 103.126C3000.43 99.5261 2995.11 98.3877 2991.73 100.071C2987.6 102.14 2988.57 107.033 2988.57 107.033C2988.57 107.033 2990.84 105.161 2996.85 105.399C3001.97 105.605 3003.28 110.117 3000.32 114.253L3004.44 114.018V114.018Z" fill="#3F313D"/>
<path d="M3049.6 132.885C3045.56 143.708 3043.52 158.494 3043.52 158.494C3041.51 160.486 3038.55 165.281 3038.55 165.281C3036.71 161.033 3033.16 135.784 3033.16 135.784C3031.54 133.137 3020.95 122.676 3006.82 122.181C2992.69 121.686 2986.17 129.237 2986.17 129.237C2983.39 134.444 2980.85 149.681 2980.85 149.681C2979.23 148.798 2978.26 146.407 2978.26 146.407C2977.59 151.924 2975.2 160.678 2975.2 160.678C2973.53 159.202 2971.85 156.703 2971.85 156.703C2972.66 149.084 2968.24 126.367 2968.24 126.367C2969.56 122.168 2989.86 111.567 2994.76 109.969C2996.74 109.322 2998.56 109.523 3000.02 109.986C3002.16 110.668 3003.53 111.926 3003.53 111.926C3006.32 109.242 3014.46 109.763 3023.36 111.574C3026.52 112.215 3029.79 113.023 3032.94 113.909C3044.96 117.28 3048.13 124.588 3048.13 124.588C3046.08 124.739 3041.83 122.64 3041.5 122.478C3046.69 125.412 3048.77 130.352 3049.39 132.184C3049.53 132.632 3049.6 132.898 3049.6 132.898L3049.6 132.885Z" fill="#3F313D"/>
<g style="mix-blend-mode:multiply" opacity="0.9">
<path d="M3049.6 132.885C3048.75 135.156 3047.99 137.602 3047.32 140.055C3044.8 149.268 3043.52 158.487 3043.52 158.487C3041.52 160.479 3038.56 165.274 3038.56 165.274C3037.41 162.627 3035.6 151.85 3034.4 144.08C3033.67 139.369 3033.17 135.777 3033.17 135.777C3031.55 133.13 3020.95 122.669 3006.82 122.174C2992.69 121.678 2986.18 129.23 2986.18 129.23C2985.27 130.937 2984.39 133.72 2983.61 136.697C2982.01 142.791 2980.87 149.673 2980.87 149.673C2979.24 148.79 2978.27 146.399 2978.27 146.399C2977.6 151.917 2975.22 160.67 2975.22 160.67C2973.54 159.194 2971.86 156.695 2971.86 156.695C2972.29 152.622 2971.23 144.25 2970.15 137.324C2969.21 131.288 2968.25 126.352 2968.25 126.352C2973.38 124.414 2976.19 125.215 2976.19 125.215C2976.19 125.215 2973.14 128.125 2972.07 129.941C2972.07 129.941 2977.29 130.748 2980.02 130.22C2980.02 130.22 2982.2 124.774 2984.79 121.571C2988.1 117.486 2991.17 116.432 3000.74 117.276L3003.53 111.913C3006.32 109.229 3014.46 109.749 3023.36 111.561C3030.14 116.364 3035.82 119.818 3040.17 141.619C3040.17 141.619 3044.15 135.982 3044.85 133.65C3044.85 133.65 3044.15 130.441 3043.98 128.55C3043.98 128.55 3047.35 129.498 3049.39 132.163C3049.54 132.612 3049.61 132.877 3049.61 132.877L3049.6 132.885Z" fill="#3F313D"/>
</g>
<path d="M3034.58 116.527C3032.78 111.983 3030.63 107.748 3028.71 106.442C3024.34 103.458 3013.75 102.73 3009.8 104.362C3007.11 105.471 3003.38 112.075 3001.28 116.164L3001.23 116.27C3000.43 117.832 2999.88 119.006 2999.72 119.338L2999.69 119.395L2999.67 119.437L2999.71 119.461C2999.69 119.45 2999.67 119.438 2999.65 119.433C2999.65 119.433 2999.65 119.433 2999.64 119.433C2997.39 118.354 2994.52 117.511 2991.64 118.12C2985.47 119.437 2984.92 125.074 2984.64 126.244C2984.36 127.414 2987.08 140.71 2990.17 143.419C2990.17 143.419 2990.25 143.1 2990.39 142.552C2991.08 139.853 2993.23 131.63 2994.13 129.177C2995.77 124.748 3003.98 122.203 3003.98 122.203C3013.69 121.611 3018.98 132.01 3020.07 134.772C3020.28 135.316 3020.29 136.136 3020.17 137.103C3019.7 140.983 3017.11 147.231 3017.03 147.427C3017.37 147.363 3028.58 145.325 3031.79 143.235C3035.05 141.114 3038.34 132.384 3038.52 130.028C3038.62 128.703 3036.9 122.369 3034.59 116.54L3034.58 116.527Z" fill="#3F313D"/>
<g style="mix-blend-mode:multiply" opacity="0.9">
<path d="M3012.22 106.098C3012.22 106.098 3024.47 109.891 3027.91 122.743C3031.34 135.596 3020.64 144.563 3017.01 147.415C3017.01 147.415 3024.16 137.075 3024.78 127.763C3025.28 120.204 3020.38 110.626 3012.22 106.098V106.098Z" fill="#3F313D"/>
</g>
<g style="mix-blend-mode:multiply" opacity="0.9">
<path d="M3020.16 137.09C3020.28 136.123 3020.27 135.304 3020.06 134.759C3019.83 134.175 3019.42 133.254 3018.82 132.174C3016.62 128.221 3011.92 122.097 3004.64 122.167C3004.42 122.172 3004.2 122.178 3003.98 122.19C3003.98 122.19 2995.77 124.728 2994.12 129.164C2993.21 131.617 2991.08 139.84 2990.38 142.539C2990.38 142.539 2990.21 128.67 2992.01 122.898C2993.71 117.426 2999.09 119.217 2999.64 119.42L2999.65 119.42C2999.67 119.424 2999.68 119.43 2999.68 119.43L2999.7 119.388L3001.23 116.264L3001.28 116.157C3007.09 111.041 3015.45 115.938 3019.17 122.607C3022.9 129.283 3020.16 137.083 3020.16 137.083L3020.16 137.09Z" fill="#3F313D"/>
</g>
<g style="mix-blend-mode:multiply" opacity="0.9">
<path d="M3038.51 130.015C3038.34 132.37 3035.04 141.094 3031.78 143.222C3028.57 145.312 3017.37 147.35 3017.02 147.414C3017.29 147.228 3026.14 141.162 3030.34 133.974C3033.51 128.537 3034.56 116.8 3034.58 116.527C3036.89 122.356 3038.62 128.69 3038.51 130.015Z" fill="#3F313D"/>
</g>
<g style="mix-blend-mode:multiply" opacity="0.9">
<path d="M3018.82 132.174C3016.62 128.221 3011.92 122.097 3004.64 122.167C3004.64 122.167 3000.8 117.441 3006.37 117.486C3011.94 117.524 3017.81 125.404 3018.82 132.174Z" fill="#3F313D"/>
</g>
<g style="mix-blend-mode:multiply" opacity="0.9">
<path d="M2983.6 136.705C2982.01 142.798 2980.86 149.68 2980.86 149.68C2979.24 148.797 2978.26 146.406 2978.26 146.406C2977.6 151.924 2975.21 160.677 2975.21 160.677C2973.54 159.202 2971.85 156.703 2971.85 156.703C2972.29 152.629 2971.23 144.257 2970.14 137.331C2970.14 137.331 2976.37 143.152 2978.26 143.341C2980.1 143.52 2983.48 136.953 2983.61 136.704L2983.6 136.705Z" fill="#3F313D"/>
</g>
<g style="mix-blend-mode:multiply" opacity="0.9">
<path d="M3047.32 140.062C3044.79 149.275 3043.52 158.495 3043.52 158.495C3041.51 160.486 3038.55 165.281 3038.55 165.281C3037.4 162.634 3035.6 151.858 3034.39 144.088C3036.97 149.771 3040.22 151.184 3042.01 150.772C3043.76 150.368 3047.21 140.37 3047.31 140.056L3047.32 140.062Z" fill="#3F313D"/>
</g>
<g style="mix-blend-mode:multiply" opacity="0.9">
<path d="M2996.92 145.945C2996.92 145.945 2995.23 145.115 2991.06 144.779C2989.82 144.676 2988.36 144.62 2986.67 144.645C2979.27 144.732 2973.99 145.835 2973.99 145.835C2974.04 145.708 2976.22 142.588 2978.9 141.277C2978.89 141.306 2978.53 141.845 2978.55 142.434C2978.55 142.434 2981.65 140.293 2985.84 139.556C2986.62 139.42 2987.43 139.329 2988.28 139.317C2993.63 139.218 2995.97 143.267 2995.97 143.267C2995.97 143.267 2995.88 142.244 2995.35 141.605C2995.35 141.605 2997.04 142.815 2996.94 145.944L2996.92 145.945Z" fill="#010101"/>
<g style="mix-blend-mode:multiply" opacity="0.6">
<path d="M2991.06 144.773C2989.82 144.67 2988.36 144.613 2986.67 144.638C2979.26 144.725 2973.99 145.828 2973.99 145.828C2974.04 145.702 2976.22 142.582 2978.9 141.271C2978.89 141.299 2978.53 141.839 2978.55 142.427C2978.55 142.427 2981.65 140.286 2985.84 139.549C2984.34 140.202 2981.08 141.692 2979.13 144.106C2979.13 144.106 2983.19 142.899 2991.07 144.772L2991.06 144.773Z" fill="#010101"/>
</g>
</g>
<g style="mix-blend-mode:multiply" opacity="0.9">
<path d="M3013.75 146.728C3013.75 146.728 3015.52 146.059 3019.7 146.11C3020.94 146.124 3022.39 146.208 3024.08 146.381C3031.44 147.158 3036.59 148.746 3036.59 148.746C3036.56 148.614 3034.67 145.305 3032.12 143.749C3032.14 143.781 3032.44 144.345 3032.37 144.935C3032.37 144.935 3029.49 142.513 3025.39 141.39C3024.62 141.179 3023.82 141.018 3022.98 140.921C3017.65 140.326 3014.95 144.135 3014.95 144.135C3014.95 144.135 3015.13 143.123 3015.72 142.535C3015.72 142.535 3013.93 143.586 3013.74 146.709L3013.75 146.728Z" fill="#010101"/>
<g style="mix-blend-mode:multiply" opacity="0.6">
<path d="M3019.7 146.11C3020.94 146.124 3022.39 146.201 3024.08 146.381C3031.44 147.159 3036.59 148.746 3036.59 148.746C3036.56 148.614 3034.67 145.305 3032.12 143.749C3032.14 143.781 3032.44 144.345 3032.37 144.935C3032.37 144.935 3029.49 142.513 3025.39 141.39C3026.82 142.182 3029.92 143.968 3031.64 146.551C3031.64 146.551 3027.71 144.973 3019.69 146.104L3019.7 146.11Z" fill="#010101"/>
</g>
</g>
<path d="M2801.3 356.07C2801.3 356.07 2812.55 384.859 2785.39 419.626C2777.3 429.75 2766.07 431.97 2753.22 431.913C2739.8 432.12 2730 422.366 2717.12 423.425C2727.8 420.911 2734.47 411.867 2746.71 413.585C2732.93 406.519 2719.45 409.239 2707.48 418.424C2696.07 427.343 2684.84 429.564 2672.53 419.464C2682.84 420.572 2687.24 412.307 2693.28 405.76C2685.28 412.535 2676.12 410.339 2668.15 405.382C2658.25 399.535 2652.69 398.272 2640.68 398.237C2654.57 390.5 2655.14 379.34 2673.37 387.36C2683.31 391.811 2696.37 394.667 2699.55 379.944C2681.86 393.728 2673.68 375.635 2658.18 369.922C2647.11 366 2642.73 373.428 2632.91 374.847C2623.1 376.266 2614.88 369.906 2608.35 363.309C2622.39 371.22 2632.01 356.107 2643.34 349.979C2656.38 342.777 2672.02 353.802 2686.63 350.274C2689.77 337.227 2675.11 342.151 2669.77 343.408C2661.35 345.142 2652.11 345.739 2647.62 335.844C2669.95 347.323 2678.89 315.431 2699.17 319.594C2706.95 321.195 2714.06 337.863 2721.96 334.717C2734.1 330.007 2715.09 319.732 2709.81 318.755C2715.21 314.986 2723.34 314.081 2729.98 316.49C2738.56 319.508 2738.92 327.339 2744.95 331.409C2752.91 336.925 2762.06 329.063 2754.72 321.328C2752 318.463 2741.41 317.348 2737 314.998C2749.69 310.581 2767.79 312.731 2779.05 320.01C2793.07 329.037 2795.79 342.238 2801.3 356.07Z" fill="url(#paint9_linear_121_5)"/>
<path d="M2796.05 372.472C2795.8 376.746 2795.53 376.739 2794.44 381.526C2792.24 391.634 2784.12 401.321 2773.1 400.497C2766.9 399.933 2763.72 395.168 2758.1 393.55C2752.21 391.79 2747.83 395.822 2742.55 397.022C2744.69 394.536 2746.53 392.712 2748.26 389.948C2749.4 388.372 2750.56 386.53 2752.37 385.775C2748.48 386.743 2745.38 389.337 2741.35 390.168C2736.36 391.108 2732.41 388.998 2728.06 386.743C2723.7 384.355 2720.05 381.451 2716.42 377.744C2714.95 376.234 2713.35 373.918 2711.44 373.065C2708.84 372.061 2706.47 373.069 2703.86 372.867C2709.34 368.997 2712.02 366.927 2718.27 370.569C2724.66 374.348 2729.32 370.189 2735.8 370.359C2731.14 369.3 2726.65 366.508 2728.46 360.803C2732.53 368.802 2739.48 366.844 2745.53 362.454C2751.43 358.328 2755.69 353.758 2763.27 354.357C2760.85 351.752 2756.95 353.122 2753.92 353.042C2750.47 352.818 2747.75 351.409 2744.9 349.462C2745.46 349.477 2746.14 349.628 2746.56 349.505C2749.2 348.772 2752.08 349.382 2754.72 348.649C2757.23 347.912 2759.32 346.897 2761.7 345.889C2766.44 343.873 2772.91 344.443 2777.85 345.643C2786.08 347.597 2794.36 357.981 2795.88 368.588L2795.99 369.661C2796.1 370.6 2796.08 371.536 2796.05 372.472Z" fill="#FFC929"/>
<path d="M2795.95 376.055C2795.54 380.818 2793.75 383.23 2790.29 386.539C2786.4 390.198 2780.25 389.386 2775.3 389.401C2777.04 388.868 2778 387.592 2779.4 386.471C2776.59 386.614 2775.93 384.789 2773.58 384.148C2771.08 383.505 2768.33 384.59 2765.9 384.092C2768.22 383.14 2768.1 379.593 2770.76 379.301C2768.56 378.303 2767.14 380.87 2765.06 380.743C2763.27 380.624 2760.8 378.896 2759.17 378.419C2759.68 378.143 2766.38 377.017 2763.18 375.992C2762.53 375.831 2760.71 376.941 2759.64 376.84C2758.78 376.673 2757.79 376.141 2757.02 375.686C2755.25 374.628 2754.15 372.863 2752.23 372.234C2750.02 371.525 2747.93 372.194 2745.76 372.86C2749.18 371.069 2750.38 368.859 2754.38 369.397C2756.39 369.594 2757.61 369.265 2759.49 368.952C2761.07 368.705 2762.35 369.172 2764.07 369.217C2762.01 365.691 2758.43 368.201 2755.46 366.533C2757.82 366.811 2758.95 364.888 2760.77 363.923C2762.58 363.03 2765.02 362.877 2766.94 363.651C2768.36 364.194 2770.51 367.143 2771.99 365.374C2773.76 363.323 2770.01 361.633 2768.58 361.451C2770.46 360.561 2772.98 360.337 2774.95 361.618C2776.65 362.748 2777.31 364.935 2779.63 363.983C2780.13 361.103 2776.76 361.087 2775.23 359.383C2779.38 359.854 2784.4 356.947 2787.3 361.291C2788.06 362.468 2788.15 367.027 2789.98 365.484C2791.45 364.22 2790.04 360.784 2788.84 359.885C2793.66 362.108 2796.33 369.483 2795.97 375.115L2795.95 376.055Z" fill="#F9F079"/>
<path d="M2814.01 318.035C2806.2 320.017 2798.74 322.038 2791.66 324.039C2784.58 326.039 2778.99 350.548 2778.49 370.59C2777.99 390.472 2782.04 422.671 2789.01 425.04C2795.99 427.41 2803.32 429.813 2811.01 432.207L2814.01 318.035Z" fill="url(#paint10_linear_121_5)"/>
<path d="M2948.48 469.861C3046.15 491.238 3156.54 500.186 3256.25 456.15L3259.89 317.474C3162.63 268.282 3051.92 271.411 2953.26 287.648L2853.38 308.39C2843.81 310.688 2834.6 312.941 2825.6 315.175L2822.44 435.678C2831.31 438.369 2840.4 441.12 2849.82 443.91L2948.48 469.861ZM3180.66 384.787C3179.92 400.864 3166.75 413.462 3150.88 413.045C3135.03 412.63 3122.51 399.357 3122.62 383.264C3123.35 367.181 3136.56 354.59 3152.41 355.006C3168.27 355.422 3180.77 368.687 3180.66 384.787Z" fill="url(#paint11_linear_121_5)"/>
<path d="M2839.51 466.163L2849.82 443.911L2948.47 469.862C2934.4 479.476 2883.78 522.97 2883.78 522.97L2753.7 511.361L2754.4 484.616L2839.51 466.163Z" fill="url(#paint12_linear_121_5)"/>
<path d="M2891.44 231.226C2891.44 231.226 2939.71 277.297 2953.25 287.648L2853.37 308.39L2844.25 285.628L2760.22 262.736L2760.92 235.998L2891.44 231.226Z" fill="url(#paint13_linear_121_5)"/>
<path d="M3267.93 450.559C3298.47 435.306 3360.85 390.901 3360.89 389.362C3360.93 387.81 3300.96 340.521 3271.26 323.694L3267.93 450.559Z" fill="url(#paint14_linear_121_5)"/>
<path d="M2814.01 318.035L2811.01 432.207L2822.44 435.678L2825.6 315.175L2814.01 318.035Z" fill="url(#paint15_linear_121_5)"/>
<path d="M3259.88 317.473L3256.25 456.15L3267.93 450.561L3271.26 323.696L3259.88 317.473Z" fill="url(#paint16_linear_121_5)"/>
<path d="M3150.89 413.045C3166.75 413.461 3179.92 400.863 3180.66 384.786C3180.77 368.687 3168.28 355.422 3152.41 355.005C3136.56 354.59 3123.35 367.18 3122.62 383.264C3122.51 399.357 3135.04 412.629 3150.89 413.045Z" fill="url(#paint17_linear_121_5)"/>
<g style="mix-blend-mode:multiply" opacity="0.6">
<path d="M2995.81 182.885C2995.81 182.885 2999.48 186.741 3003.89 186.741C3008.54 186.741 3011.2 182.769 3011.2 182.769C3011.2 182.769 3006.61 186.217 2995.81 182.885Z" fill="#CC77B1"/>
</g>
<path d="M3017.57 176.22L3018.15 175.56C3018.15 175.56 3017.93 175.277 3017.67 175.266L3017.5 175.895C3016.85 176.199 3015.96 176.534 3015.24 176.461C3013.23 176.01 3008.98 175.235 3003.74 175.235C2998.49 175.235 2994.45 175.968 2992.39 176.419C2991.66 176.597 2990.63 176.22 2989.92 175.885L2989.89 175.235C2989.89 175.235 2989.34 175.298 2989.34 175.602L2989.85 176.209C2993.77 182.151 3000.03 184.75 3003.97 184.75C3008.31 184.75 3012.48 182.958 3017.56 176.209L3017.57 176.22Z" fill="#822852"/>
<path d="M2994.93 181.596C2994.93 181.596 3002.88 177.048 3010.34 182.654C3010.34 182.654 3006.86 184.897 3002.36 184.394C2997.86 183.891 2996.3 183.482 2994.93 181.606V181.596Z" fill="#DC4D6C"/>
<path d="M2995.47 175.968C2995.47 175.968 2999.4 178.787 3004.13 178.42C3008.16 178.106 3011.83 175.843 3011.83 175.843C3011.83 175.843 3004.02 174.082 2995.47 175.968V175.968Z" fill="#FBDDEA"/>
<path d="M3003.74 174.103C2998.42 174.103 2992.34 176.429 2992.34 176.429C3000.32 175.319 3003.74 175.612 3003.74 175.612C3003.74 175.612 3007.14 175.319 3015.13 176.429C3015.13 176.429 3009.05 174.103 3003.74 174.103Z" fill="#DC4D6C"/>
<path d="M2997.73 183.147C2997.73 183.147 3001.21 182.811 3004.03 182.77C3006.85 182.728 3009.47 183.115 3009.47 183.115C3009.47 183.115 3006.77 184.457 3003.74 184.457C2999.88 184.457 2997.71 183.147 2997.71 183.147H2997.73Z" fill="#FBDDEA"/>
<path d="M3003.74 184.132C2998.11 184.132 2994.04 180.841 2994.04 180.841C2996.72 185.284 3003.74 185.463 3003.74 185.463C3003.74 185.463 3010.65 185.4 3013.43 180.841C3013.43 180.841 3009.36 184.132 3003.74 184.132Z" fill="#ED7072"/>
<path d="M3011.37 159.832C3010.5 159.518 3014.69 152.659 3020.32 151.81C3027.11 150.783 3028.22 156.939 3028.11 158.171C3028 159.404 3015.58 161.327 3011.37 159.832Z" fill="url(#paint18_linear_121_5)"/>
<path d="M3018.88 160.599C3021.27 160.909 3023.46 159.187 3023.77 156.754C3024.09 154.321 3022.41 152.097 3020.02 151.787C3017.63 151.478 3015.44 153.199 3015.12 155.632C3014.8 158.065 3016.49 160.289 3018.88 160.599Z" fill="url(#paint19_linear_121_5)"/>
<path d="M3018.91 160.337C3021.16 160.629 3023.22 159.01 3023.52 156.721C3023.82 154.433 3022.23 152.341 3019.98 152.049C3017.74 151.758 3015.67 153.376 3015.37 155.665C3015.08 157.954 3016.66 160.045 3018.91 160.337Z" fill="url(#paint20_linear_121_5)"/>
<path style="mix-blend-mode:multiply" d="M3022.1 156.361C3022.01 157.855 3020.74 158.997 3019.28 158.912C3017.81 158.825 3016.69 157.541 3016.79 156.048C3016.88 154.555 3018.15 153.412 3019.62 153.498C3021.09 153.585 3022.2 154.869 3022.1 156.361Z" fill="url(#paint21_linear_121_5)"/>
<path d="M3011.7 158.411C3011.7 158.411 3015.06 148.641 3021.23 148.12C3027.39 147.598 3027.96 156.792 3027.96 156.792C3027.96 156.792 3026.81 151.902 3021 151.87C3015.2 151.831 3011.69 158.41 3011.69 158.41L3011.7 158.411Z" fill="url(#paint22_linear_121_5)"/>
<path d="M3011.5 158.799L3012.41 160.108C3012.41 160.108 3011.16 160.155 3011.06 159.794C3010.95 159.434 3011.51 158.8 3011.51 158.8L3011.5 158.799Z" fill="#D66C7C"/>
<path d="M3013.22 160.271C3013.22 160.271 3017.96 161.295 3022.16 160.709C3026.35 160.123 3027.85 158.487 3027.85 158.487C3027.85 158.487 3021.18 160.623 3013.22 160.271Z" fill="#D66C7C"/>
<path d="M3022.56 155.54C3022.29 155.76 3023.5 155.896 3024.44 155.584C3025.27 155.304 3025.7 154.793 3025.62 154.696C3025.55 154.6 3023.66 154.664 3022.56 155.54Z" fill="white"/>
<path d="M3021.85 155.736C3021.51 155.593 3021.09 155.752 3021.07 155.937C3021.04 156.121 3021.46 156.386 3021.66 156.312C3021.86 156.248 3022.04 155.81 3021.84 155.727L3021.85 155.736Z" fill="white"/>
<g style="mix-blend-mode:multiply" opacity="0.6">
<path d="M3011.5 158.799C3011.5 158.799 3015.53 153.99 3020.39 153.343C3025.25 152.697 3027.41 155.606 3027.41 155.606C3027.41 155.606 3026.96 151.995 3020.64 152.084C3014.31 152.173 3011.5 158.799 3011.5 158.799Z" fill="#C978B1"/>
</g>
<path d="M3011.5 158.799C3011.5 158.799 3014.81 152.332 3021.35 152.242C3027.19 152.161 3028.07 157.412 3028.07 157.412C3028.07 157.412 3028.96 152.91 3025.04 151.606C3021.3 150.367 3014.64 152.026 3011.5 158.799V158.799Z" fill="#401432"/>
<path d="M2998.67 158.139C2999.55 157.893 2995.9 150.832 2990.41 149.599C2983.79 148.114 2982.26 154.107 2982.28 155.329C2982.3 156.551 2994.41 159.321 2998.66 158.138L2998.67 158.139Z" fill="url(#paint23_linear_121_5)"/>
<path d="M2991.22 158.367C2993.59 158.228 2995.41 156.154 2995.27 153.734C2995.13 151.313 2993.09 149.463 2990.71 149.601C2988.33 149.739 2986.52 151.813 2986.66 154.234C2986.8 156.654 2988.84 158.505 2991.22 158.367Z" fill="url(#paint24_linear_121_5)"/>
<path d="M2991.2 158.115C2993.44 157.986 2995.15 156.033 2995.02 153.754C2994.89 151.476 2992.96 149.733 2990.73 149.863C2988.49 149.993 2986.78 151.945 2986.91 154.224C2987.04 156.503 2988.96 158.245 2991.2 158.115Z" fill="url(#paint25_linear_121_5)"/>
<path style="mix-blend-mode:multiply" d="M2988.33 153.96C2988.32 155.443 2989.49 156.658 2990.94 156.675C2992.4 156.692 2993.59 155.506 2993.6 154.023C2993.62 152.539 2992.45 151.325 2990.99 151.307C2989.54 151.29 2988.35 152.477 2988.33 153.96Z" fill="url(#paint26_linear_121_5)"/>
<path d="M2998.45 156.716C2998.45 156.716 2995.82 146.843 2989.78 145.897C2983.74 144.95 2982.52 153.979 2982.52 153.979C2982.52 153.979 2983.99 149.243 2989.73 149.612C2995.46 149.982 2998.45 156.716 2998.45 156.716V156.716Z" fill="url(#paint27_linear_121_5)"/>
<path d="M2998.62 157.113L2997.64 158.336C2997.64 158.336 2998.87 158.467 2999 158.126C2999.13 157.779 2998.62 157.113 2998.62 157.113Z" fill="#D66C7C"/>
<path d="M2996.82 158.438C2996.82 158.438 2992.06 159.115 2987.97 158.243C2983.87 157.371 2982.51 155.649 2982.51 155.649C2982.51 155.649 2988.94 158.224 2996.82 158.438Z" fill="#D66C7C"/>
<path d="M2987.94 153.117C2988.2 153.355 2986.99 153.399 2986.09 153.03C2985.29 152.7 2984.9 152.165 2984.98 152.069C2985.06 151.974 2986.92 152.177 2987.94 153.117Z" fill="white"/>
<path d="M2988.63 153.363C2988.97 153.246 2989.37 153.43 2989.38 153.619C2989.39 153.807 2988.97 154.032 2988.77 153.95C2988.58 153.869 2988.44 153.429 2988.63 153.363Z" fill="white"/>
<g style="mix-blend-mode:multiply" opacity="0.6">
<path d="M2998.62 157.113C2998.62 157.113 2994.99 152.085 2990.24 151.105C2985.49 150.125 2983.16 152.846 2983.16 152.846C2983.16 152.846 2983.85 149.316 2990.09 149.851C2996.32 150.386 2998.62 157.113 2998.62 157.113Z" fill="#C978B1"/>
</g>
<path d="M2998.62 157.113C2998.62 157.113 2995.81 150.505 2989.36 149.953C2983.61 149.461 2982.38 154.584 2982.38 154.584C2982.38 154.584 2981.82 150.081 2985.78 149.069C2989.56 148.11 2996.01 150.214 2998.62 157.113V157.113Z" fill="#401432"/>
<path d="M3044.86 208.899L3093.04 212.548L3087.2 161.025C3092.41 158.843 3097.36 160.986 3102.36 158.349C3106.1 169.607 3120.41 219.82 3117.84 231.2C3113.81 249.058 3050.29 235.527 3050.29 235.527L3044.86 208.906L3044.86 208.899Z" fill="url(#paint28_linear_121_5)"/>
<path d="M3102.49 157.785C3102.49 157.785 3103.3 140.721 3101.31 141.216C3099.32 141.704 3098.92 149.712 3098.92 149.712C3098.92 149.712 3098.59 136.62 3097.04 136.735C3095.48 136.857 3093.39 149.754 3093.39 149.754C3093.39 149.754 3092.26 134.484 3091.02 134.79C3089.78 135.096 3088.48 150.172 3088.48 150.172C3088.48 150.172 3085.79 139.241 3083.8 139.729C3081.81 140.218 3085.6 156.674 3085.6 156.674C3085.6 156.674 3079.9 153.863 3078.78 155.717C3077.65 157.578 3087.26 163.38 3087.26 163.38L3093.46 217.448L3102.69 171.435L3102.49 157.779L3102.49 157.785Z" fill="url(#paint29_linear_121_5)"/>
<g filter="url(#filter0_d_121_5)">
<path d="M43.3125 276.688H7.25V259.312H99.1875V276.688H63.125V357H43.3125V276.688ZM129.583 253.375H148.083V288.875C151.958 286.75 156.27 285.062 161.02 283.812C165.812 282.562 170.833 281.938 176.083 281.938C182.166 281.938 187.624 282.833 192.458 284.625C197.333 286.417 201.458 289 204.833 292.375C208.208 295.708 210.791 299.771 212.583 304.562C214.416 309.354 215.333 314.75 215.333 320.75V357H196.895V321.5C196.895 318 196.333 314.812 195.208 311.938C194.083 309.021 192.437 306.521 190.27 304.438C188.103 302.354 185.458 300.75 182.333 299.625C179.249 298.458 175.749 297.875 171.833 297.875C167.124 297.875 162.749 298.625 158.708 300.125C154.666 301.625 151.124 303.521 148.083 305.812V357H129.583V253.375ZM244.103 319.875C244.103 314.875 245.123 310.104 247.165 305.562C249.207 300.979 252.144 296.938 255.978 293.438C259.811 289.938 264.498 287.146 270.04 285.062C275.623 282.979 281.957 281.938 289.04 281.938C296.082 281.938 302.415 283 308.04 285.125C313.707 287.208 318.498 290.083 322.415 293.75C326.373 297.417 329.394 301.729 331.478 306.688C333.603 311.646 334.665 316.958 334.665 322.625C334.665 323.333 334.644 324.104 334.603 324.938C334.603 325.729 334.561 326.458 334.478 327.125H264.728C265.519 329.333 266.79 331.354 268.54 333.188C270.332 335.021 272.561 336.604 275.228 337.938C277.894 339.271 280.978 340.312 284.478 341.062C287.978 341.771 291.853 342.125 296.103 342.125C300.353 342.125 304.582 341.688 308.79 340.812C312.998 339.896 317.019 338.75 320.853 337.375L327.103 351.5C324.686 352.625 322.228 353.625 319.728 354.5C317.269 355.333 314.686 356.042 311.978 356.625C309.311 357.167 306.498 357.583 303.54 357.875C300.623 358.167 297.54 358.312 294.29 358.312C285.998 358.312 278.728 357.312 272.478 355.312C266.228 353.312 260.998 350.583 256.79 347.125C252.582 343.667 249.415 339.604 247.29 334.938C245.165 330.271 244.103 325.25 244.103 319.875ZM315.04 312.688C314.373 310.646 313.332 308.75 311.915 307C310.54 305.208 308.811 303.667 306.728 302.375C304.644 301.042 302.228 300 299.478 299.25C296.728 298.5 293.707 298.125 290.415 298.125C286.915 298.125 283.728 298.521 280.853 299.312C277.978 300.104 275.457 301.167 273.29 302.5C271.123 303.833 269.311 305.375 267.853 307.125C266.436 308.875 265.394 310.729 264.728 312.688H315.04ZM416.643 319.875C416.643 314.875 417.663 310.104 419.705 305.562C421.747 300.979 424.684 296.938 428.518 293.438C432.351 289.938 437.038 287.146 442.58 285.062C448.163 282.979 454.497 281.938 461.58 281.938C468.622 281.938 474.955 283 480.58 285.125C486.247 287.208 491.038 290.083 494.955 293.75C498.913 297.417 501.934 301.729 504.018 306.688C506.143 311.646 507.205 316.958 507.205 322.625C507.205 323.333 507.184 324.104 507.143 324.938C507.143 325.729 507.101 326.458 507.018 327.125H437.268C438.059 329.333 439.33 331.354 441.08 333.188C442.872 335.021 445.101 336.604 447.768 337.938C450.434 339.271 453.518 340.312 457.018 341.062C460.518 341.771 464.393 342.125 468.643 342.125C472.893 342.125 477.122 341.688 481.33 340.812C485.538 339.896 489.559 338.75 493.393 337.375L499.643 351.5C497.226 352.625 494.768 353.625 492.268 354.5C489.809 355.333 487.226 356.042 484.518 356.625C481.851 357.167 479.038 357.583 476.08 357.875C473.163 358.167 470.08 358.312 466.83 358.312C458.538 358.312 451.268 357.312 445.018 355.312C438.768 353.312 433.538 350.583 429.33 347.125C425.122 343.667 421.955 339.604 419.83 334.938C417.705 330.271 416.643 325.25 416.643 319.875ZM487.58 312.688C486.913 310.646 485.872 308.75 484.455 307C483.08 305.208 481.351 303.667 479.268 302.375C477.184 301.042 474.768 300 472.018 299.25C469.268 298.5 466.247 298.125 462.955 298.125C459.455 298.125 456.268 298.521 453.393 299.312C450.518 300.104 447.997 301.167 445.83 302.5C443.663 303.833 441.851 305.375 440.393 307.125C438.976 308.875 437.934 310.729 437.268 312.688H487.58ZM538.662 283.25H557.162V289.5C562.079 286.708 566.767 284.75 571.225 283.625C575.725 282.5 580.121 281.938 584.412 281.938C590.037 281.938 595.246 282.771 600.037 284.438C604.829 286.062 608.975 288.5 612.475 291.75C615.975 295 618.704 299.062 620.662 303.938C622.662 308.771 623.662 314.375 623.662 320.75V357H605.225V323.75C605.225 319.708 604.642 316.104 603.475 312.938C602.35 309.729 600.704 307.042 598.537 304.875C596.412 302.667 593.808 301 590.725 299.875C587.683 298.708 584.267 298.125 580.475 298.125C578.475 298.125 576.412 298.333 574.287 298.75C572.204 299.167 570.142 299.771 568.1 300.562C566.1 301.312 564.162 302.271 562.287 303.438C560.412 304.562 558.704 305.854 557.162 307.312V357H538.662V283.25ZM652.245 320.438C652.245 314.562 653.349 309.271 655.557 304.562C657.766 299.812 660.807 295.771 664.682 292.438C668.599 289.062 673.224 286.479 678.557 284.688C683.932 282.854 689.745 281.938 695.995 281.938C698.662 281.938 701.287 282.104 703.87 282.438C706.495 282.771 708.995 283.229 711.37 283.812C713.787 284.396 716.037 285.104 718.12 285.938C720.245 286.729 722.12 287.604 723.745 288.562V253.312H742.245V357H723.745V350.062C722.12 351.188 720.203 352.25 717.995 353.25C715.787 354.25 713.412 355.125 710.87 355.875C708.328 356.625 705.682 357.208 702.932 357.625C700.224 358.083 697.537 358.312 694.87 358.312C688.62 358.312 682.87 357.396 677.62 355.562C672.412 353.729 667.932 351.146 664.182 347.812C660.432 344.479 657.495 340.5 655.37 335.875C653.287 331.208 652.245 326.062 652.245 320.438ZM671.682 320.438C671.682 323.396 672.266 326.188 673.432 328.812C674.641 331.438 676.349 333.75 678.557 335.75C680.807 337.708 683.495 339.271 686.62 340.438C689.787 341.562 693.328 342.125 697.245 342.125C699.745 342.125 702.245 341.896 704.745 341.438C707.245 340.938 709.641 340.25 711.932 339.375C714.266 338.5 716.432 337.438 718.432 336.188C720.474 334.938 722.245 333.542 723.745 332V306.438C721.87 304.938 719.891 303.667 717.807 302.625C715.724 301.583 713.599 300.729 711.432 300.062C709.266 299.396 707.078 298.917 704.87 298.625C702.662 298.292 700.516 298.125 698.432 298.125C694.182 298.125 690.391 298.708 687.057 299.875C683.766 301 680.974 302.562 678.682 304.562C676.432 306.562 674.703 308.917 673.495 311.625C672.287 314.333 671.682 317.271 671.682 320.438Z" fill="#FFFBFB"/>
</g>
<defs>
<filter id="filter0_d_121_5" x="3.25" y="253.312" width="742.995" height="113" filterUnits="userSpaceOnUse" color-interpolation-filters="sRGB">
<feFlood flood-opacity="0" result="BackgroundImageFix"/>
<feColorMatrix in="SourceAlpha" type="matrix" values="0 0 0 0 0 0 0 0 0 0 0 0 0 0 0 0 0 0 127 0" result="hardAlpha"/>
<feOffset dy="4"/>
<feGaussianBlur stdDeviation="2"/>
<feComposite in2="hardAlpha" operator="out"/>
<feColorMatrix type="matrix" values="0 0 0 0 0 0 0 0 0 0 0 0 0 0 0 0 0 0 0.25 0"/>
<feBlend mode="normal" in2="BackgroundImageFix" result="effect1_dropShadow_121_5"/>
<feBlend mode="normal" in="SourceGraphic" in2="effect1_dropShadow_121_5" result="shape"/>
</filter>
<linearGradient id="paint0_linear_121_5" x1="2981.19" y1="205.845" x2="3040.37" y2="200.705" gradientUnits="userSpaceOnUse">
<stop stop-color="#F9AF9C"/>
<stop offset="0.2" stop-color="#F69B8E"/>
<stop offset="0.47" stop-color="#F48781"/>
<stop offset="0.73" stop-color="#F37B79"/>
<stop offset="1" stop-color="#F37777"/>
</linearGradient>
<linearGradient id="paint1_linear_121_5" x1="2975.19" y1="158.128" x2="3040.03" y2="152.497" gradientUnits="userSpaceOnUse">
<stop stop-color="#F8A795"/>
<stop offset="0.43" stop-color="#F8A997"/>
<stop offset="0.52" stop-color="#F7A290"/>
<stop offset="0.76" stop-color="#F69684"/>
<stop offset="1" stop-color="#F69280"/>
</linearGradient>
<linearGradient id="paint2_linear_121_5" x1="3003.25" y1="168.519" x2="3003.45" y2="162.562" gradientUnits="userSpaceOnUse">
<stop stop-color="#F37B7F"/>
<stop offset="0.4" stop-color="#F3817F"/>
<stop offset="1" stop-color="#F48680"/>
</linearGradient>
<linearGradient id="paint3_linear_121_5" x1="2999.73" y1="166.474" x2="2999.84" y2="163.198" gradientUnits="userSpaceOnUse">
<stop stop-color="#FBE3D4"/>
<stop offset="0.99" stop-color="#AE7CB7"/>
</linearGradient>
<linearGradient id="paint4_linear_121_5" x1="3006.8" y1="166.701" x2="3006.91" y2="163.426" gradientUnits="userSpaceOnUse">
<stop stop-color="#FBE3D4"/>
<stop offset="0.99" stop-color="#AE7CB7"/>
</linearGradient>
<linearGradient id="paint5_linear_121_5" x1="3038.81" y1="182.205" x2="3042.16" y2="158.241" gradientUnits="userSpaceOnUse">
<stop stop-color="#F7A190"/>
<stop offset="0.43" stop-color="#F3A592"/>
<stop offset="0.51" stop-color="#F39F8D"/>
<stop offset="0.76" stop-color="#F49383"/>
<stop offset="1" stop-color="#F58F80"/>
</linearGradient>
<linearGradient id="paint6_linear_121_5" x1="3039.69" y1="175.969" x2="3041.99" y2="159.48" gradientUnits="userSpaceOnUse">
<stop stop-color="#F7A190"/>
<stop offset="0.43" stop-color="#F3A592"/>
<stop offset="0.51" stop-color="#F39F8D"/>
<stop offset="0.76" stop-color="#F49383"/>
<stop offset="1" stop-color="#F58F80"/>
</linearGradient>
<linearGradient id="paint7_linear_121_5" x1="3037.9" y1="169.545" x2="3038.9" y2="162.377" gradientUnits="userSpaceOnUse">
<stop stop-color="#F7A190"/>
<stop offset="0.43" stop-color="#F3A592"/>
<stop offset="0.51" stop-color="#F39F8D"/>
<stop offset="0.76" stop-color="#F49383"/>
<stop offset="1" stop-color="#F58F80"/>
</linearGradient>
<linearGradient id="paint8_linear_121_5" x1="3045.09" y1="171.045" x2="3034.93" y2="169.625" gradientUnits="userSpaceOnUse">
<stop stop-color="#F7A190"/>
<stop offset="0.43" stop-color="#F3A592"/>
<stop offset="0.51" stop-color="#F39F8D"/>
<stop offset="0.76" stop-color="#F49383"/>
<stop offset="1" stop-color="#F58F80"/>
</linearGradient>
<linearGradient id="paint9_linear_121_5" x1="2608.33" y1="363.336" x2="2833.44" y2="371.234" gradientUnits="userSpaceOnUse">
<stop stop-color="#F67C01"/>
<stop offset="1" stop-color="#BB5E00"/>
</linearGradient>
<linearGradient id="paint10_linear_121_5" x1="3085.87" y1="274.677" x2="3079.84" y2="504.609" gradientUnits="userSpaceOnUse">
<stop offset="0.213542" stop-color="#D2CECE"/>
<stop offset="1" stop-color="#393535"/>
</linearGradient>
<linearGradient id="paint11_linear_121_5" x1="3085.87" y1="274.677" x2="3079.84" y2="504.609" gradientUnits="userSpaceOnUse">
<stop offset="0.213542" stop-color="#D2CECE"/>
<stop offset="1" stop-color="#393535"/>
</linearGradient>
<linearGradient id="paint12_linear_121_5" x1="2851.79" y1="426.722" x2="2848.9" y2="536.898" gradientUnits="userSpaceOnUse">
<stop stop-color="#404040"/>
<stop offset="1"/>
</linearGradient>
<linearGradient id="paint13_linear_121_5" x1="2854.43" y1="326.127" x2="2857.57" y2="206.371" gradientUnits="userSpaceOnUse">
<stop/>
<stop offset="1" stop-color="#7A7A7A"/>
</linearGradient>
<linearGradient id="paint14_linear_121_5" x1="3286.06" y1="318.278" x2="3282.16" y2="466.775" gradientUnits="userSpaceOnUse">
<stop stop-color="#8C8B8B"/>
<stop offset="1"/>
</linearGradient>
<linearGradient id="paint15_linear_121_5" x1="2826.95" y1="277.471" x2="2821.67" y2="478.661" gradientUnits="userSpaceOnUse">
<stop offset="0.1875" stop-color="white"/>
<stop offset="1" stop-color="#393535"/>
</linearGradient>
<linearGradient id="paint16_linear_121_5" x1="3267.52" y1="293.823" x2="3262.25" y2="495.014" gradientUnits="userSpaceOnUse">
<stop offset="0.135417" stop-color="white"/>
<stop offset="1" stop-color="#393535"/>
</linearGradient>
<linearGradient id="paint17_linear_121_5" x1="3149.29" y1="415.353" x2="3150.92" y2="353.08" gradientUnits="userSpaceOnUse">
<stop offset="0.0885417" stop-color="#212121"/>
<stop offset="1" stop-color="#606060"/>
</linearGradient>
<linearGradient id="paint18_linear_121_5" x1="3019.67" y1="160.84" x2="3021.09" y2="151.173" gradientUnits="userSpaceOnUse">
<stop stop-color="#E6DBEC"/>
<stop offset="1" stop-color="#B8C1E2"/>
</linearGradient>
<linearGradient id="paint19_linear_121_5" x1="3019.23" y1="161.165" x2="3019.77" y2="152.296" gradientUnits="userSpaceOnUse">
<stop stop-color="#48204B"/>
<stop offset="1" stop-color="#301138"/>
</linearGradient>
<linearGradient id="paint20_linear_121_5" x1="3019.25" y1="160.886" x2="3019.76" y2="152.545" gradientUnits="userSpaceOnUse">
<stop stop-color="#57345B"/>
<stop offset="1" stop-color="#301138"/>
</linearGradient>
<linearGradient id="paint21_linear_121_5" x1="3019.44" y1="158.719" x2="3019.77" y2="153.308" gradientUnits="userSpaceOnUse">
<stop stop-color="#A093B6"/>
<stop offset="0.99" stop-color="#734B61"/>
</linearGradient>
<linearGradient id="paint22_linear_121_5" x1="3012.19" y1="152.776" x2="3028.29" y2="153.758" gradientUnits="userSpaceOnUse">
<stop stop-color="#F7A190"/>
<stop offset="0.43" stop-color="#F3A592"/>
<stop offset="0.51" stop-color="#F39F8D"/>
<stop offset="0.76" stop-color="#F49383"/>
<stop offset="1" stop-color="#F58F80"/>
</linearGradient>
<linearGradient id="paint23_linear_121_5" x1="2990.89" y1="159.373" x2="2990.17" y2="149.737" gradientUnits="userSpaceOnUse">
<stop stop-color="#E6DBEC"/>
<stop offset="1" stop-color="#B8C1E2"/>
</linearGradient>
<linearGradient id="paint24_linear_121_5" x1="2991" y1="158.678" x2="2991.09" y2="149.898" gradientUnits="userSpaceOnUse">
<stop stop-color="#48204B"/>
<stop offset="1" stop-color="#301138"/>
</linearGradient>
<linearGradient id="paint25_linear_121_5" x1="2991.11" y1="157.72" x2="2991.19" y2="149.454" gradientUnits="userSpaceOnUse">
<stop stop-color="#57345B"/>
<stop offset="1" stop-color="#301138"/>
</linearGradient>
<linearGradient id="paint26_linear_121_5" x1="2991" y1="157.043" x2="2991.06" y2="151.677" gradientUnits="userSpaceOnUse">
<stop stop-color="#A093B6"/>
<stop offset="0.99" stop-color="#734B61"/>
</linearGradient>
<linearGradient id="paint27_linear_121_5" x1="2998.58" y1="151.688" x2="2982.62" y2="151.524" gradientUnits="userSpaceOnUse">
<stop stop-color="#F7A190"/>
<stop offset="0.43" stop-color="#F3A592"/>
<stop offset="0.51" stop-color="#F39F8D"/>
<stop offset="0.76" stop-color="#F49383"/>
<stop offset="1" stop-color="#F58F80"/>
</linearGradient>
<linearGradient id="paint28_linear_121_5" x1="3044.71" y1="212.899" x2="3112.81" y2="196.132" gradientUnits="userSpaceOnUse">
<stop stop-color="#F7A393"/>
<stop offset="0.43" stop-color="#F5A794"/>
<stop offset="0.51" stop-color="#F5A18E"/>
<stop offset="0.76" stop-color="#F59584"/>
<stop offset="1" stop-color="#F69181"/>
</linearGradient>
<linearGradient id="paint29_linear_121_5" x1="3083.79" y1="178.215" x2="3109.38" y2="171.914" gradientUnits="userSpaceOnUse">
<stop stop-color="#F7A393"/>
<stop offset="0.43" stop-color="#F5A794"/>
<stop offset="0.51" stop-color="#F5A18E"/>
<stop offset="0.76" stop-color="#F59584"/>
<stop offset="1" stop-color="#F69181"/>
</linearGradient>
</defs>
</svg>
