<svg width="67" height="80" viewBox="0 0 67 80" fill="none" xmlns="http://www.w3.org/2000/svg">
<path d="M32.3367 17.707C32.3367 17.707 8.45878 18.5674 4.44912 46.4719C0.439471 74.3764 20.8308 81.2766 34.0463 79.0046C47.2619 76.7327 56.0122 62.4262 57.7837 54.12C59.5608 45.8139 53.9934 17.9938 32.3311 17.7126L32.3367 17.707Z" fill="url(#paint0_linear_105_2)"/>
<path d="M21.1513 50.1441C21.7868 50.026 19.6442 44.841 15.8595 43.6488C11.2875 42.2092 9.85346 46.3257 9.79722 47.1861C9.74098 48.0465 18.0865 50.7177 21.1457 50.1441H21.1513Z" fill="url(#paint1_linear_105_2)"/>
<path d="M11.8668 47.6697C11.8274 48.0634 11.878 48.4402 11.9961 48.7945C12.0243 48.8732 16.5457 50.1104 16.5907 50.071C17.1305 49.6211 17.4961 48.9688 17.5692 48.2209C17.7154 46.6856 16.5569 45.3134 14.9823 45.1616C13.4077 45.0098 12.013 46.1289 11.8668 47.6697V47.6697Z" fill="url(#paint2_linear_105_2)"/>
<path style="mix-blend-mode:multiply" d="M12.8678 47.7653C12.7722 48.7607 13.5257 49.6493 14.5492 49.7505C15.5727 49.8517 16.4725 49.1206 16.5681 48.1252C16.6637 47.1299 15.9102 46.2413 14.8867 46.1401C13.8632 46.0389 12.9634 46.77 12.8678 47.7653Z" fill="url(#paint3_linear_105_2)"/>
<path d="M21.0839 49.1319C21.0839 49.1319 19.8242 42.0349 15.6346 41.0114C11.445 39.9822 10.0504 46.2582 10.0504 46.2582C10.0504 46.2582 11.3663 43.019 15.3703 43.6207C19.3743 44.2281 21.0783 49.1319 21.0783 49.1319H21.0839Z" fill="url(#paint4_linear_105_2)"/>
<path d="M21.1795 49.4187L20.4147 50.2172C20.4147 50.2172 21.2695 50.386 21.3819 50.1498C21.4944 49.9136 21.1795 49.4187 21.1795 49.4187Z" fill="#D66C7C"/>
<path d="M19.8355 50.2454C19.8355 50.2454 16.4501 50.4366 13.627 49.5761C10.8039 48.7157 9.94351 47.4279 9.94351 47.4279C9.94351 47.4279 14.3131 49.6211 19.8355 50.2454V50.2454Z" fill="#D66C7C"/>
<path d="M13.9081 45.977C14.0768 46.1626 13.222 46.1176 12.6147 45.8027C12.0692 45.5215 11.833 45.1222 11.8892 45.066C11.9511 45.0041 13.2501 45.2572 13.9081 45.977Z" fill="white"/>
<path d="M14.3749 46.1851C14.6223 46.1232 14.8922 46.2807 14.8922 46.41C14.8922 46.5394 14.5773 46.6743 14.4423 46.6069C14.3074 46.5394 14.2343 46.2188 14.3749 46.1851Z" fill="white"/>
<g style="mix-blend-mode:multiply" opacity="0.6">
<path d="M21.1795 49.4187C21.1795 49.4187 18.9244 45.6677 15.6458 44.6948C12.3673 43.7219 10.5677 45.4934 10.5677 45.4934C10.5677 45.4934 11.265 43.0584 15.6121 43.8007C19.9592 44.5486 21.1795 49.4187 21.1795 49.4187V49.4187Z" fill="#C978B1"/>
</g>
<path d="M21.1795 49.4187C21.1795 49.4187 19.5992 44.6048 15.1003 43.8344C11.085 43.1427 9.9097 46.6687 9.9097 46.6687C9.9097 46.6687 9.78598 43.4745 12.6315 42.9965C15.3421 42.5466 19.7511 44.4136 21.1795 49.4187Z" fill="#401432"/>
<path d="M33.7034 51.2182C33.0173 50.9033 36.8808 45.6396 41.4922 45.3416C47.0652 44.9816 47.5376 50.0373 47.3689 51.0327C47.1945 52.0224 37.0101 52.7254 33.7034 51.2182V51.2182Z" fill="url(#paint5_linear_105_2)"/>
<path d="M41.3177 50.4759C41.1884 51.3363 40.6991 52.0562 40.0299 52.4948C39.9343 52.5567 36.3239 51.9268 36.2452 51.82C35.8009 51.2239 35.5872 50.4534 35.7053 49.6549C35.9415 48.0746 37.3868 46.9837 38.9333 47.2086C40.4854 47.4335 41.5539 48.8957 41.3177 50.4759V50.4759Z" fill="url(#paint6_linear_105_2)"/>
<path style="mix-blend-mode:multiply" d="M40.3336 50.3297C40.1818 51.3532 39.2426 52.0618 38.236 51.9156C37.2293 51.7694 36.5376 50.819 36.6895 49.7955C36.8413 48.772 37.7805 48.0634 38.7871 48.2096C39.7937 48.3558 40.4854 49.3062 40.3336 50.3297Z" fill="url(#paint7_linear_105_2)"/>
<path d="M34.0576 50.0879C34.0576 50.0879 37.4543 42.4116 42.4818 42.4116C47.5093 42.4116 47.3406 49.8967 47.3406 49.8967C47.3406 49.8967 46.7501 45.8646 42.0544 45.4315C37.353 45.0041 34.0632 50.0823 34.0632 50.0823L34.0576 50.0879Z" fill="url(#paint8_linear_105_2)"/>
<path d="M33.8721 50.3916L34.5132 51.5107C34.5132 51.5107 33.501 51.4601 33.4391 51.1676C33.3772 50.8696 33.8665 50.3972 33.8665 50.3972L33.8721 50.3916Z" fill="#D66C7C"/>
<path d="M35.1654 51.6963C35.1654 51.6963 38.9389 52.8547 42.3749 52.6691C45.811 52.4836 47.1381 51.2632 47.1381 51.2632C47.1381 51.2632 41.5876 52.5342 35.1654 51.6963Z" fill="#D66C7C"/>
<path d="M37.1957 50.4309C36.9314 50.296 36.5827 50.3916 36.549 50.5434C36.5152 50.6896 36.8302 50.9314 36.9989 50.8921C37.1676 50.8527 37.3419 50.5097 37.1957 50.4309V50.4309Z" fill="white"/>
<g style="mix-blend-mode:multiply" opacity="0.6">
<path d="M33.8721 50.3916C33.8721 50.3916 37.4656 46.7756 41.4471 46.59C45.4286 46.3988 46.9695 48.9013 46.9695 48.9013C46.9695 48.9013 46.8571 45.9489 41.7283 45.5834C36.5995 45.2178 33.8665 50.3916 33.8665 50.3916H33.8721Z" fill="#C978B1"/>
</g>
<path d="M33.8721 50.3916C33.8721 50.3916 36.9988 45.3865 42.3019 45.7633C47.037 46.1007 47.3857 50.4141 47.3857 50.4141C47.3857 50.4141 48.4148 46.8318 45.3274 45.5046C42.3863 44.2393 36.8807 45.1279 33.8721 50.3916V50.3916Z" fill="#401432"/>
<path d="M20.3584 56.9319C20.3584 56.9319 20.409 57.1737 21.2919 57.3143C22.1748 57.4549 22.9115 58.3322 24.413 58.5121C25.9145 58.6921 26.7637 58.0116 27.6522 58.0847C28.5408 58.1578 28.7207 57.9441 28.7207 57.9441C28.9232 57.3818 28.9063 56.8081 28.7995 56.302V56.2851C28.6083 55.4022 28.1584 54.7443 28.1584 54.7443C26.1732 53.4677 23.9069 53.1978 21.6687 53.9626C21.6687 53.9626 21.2863 54.3056 20.932 54.8567V54.8624C20.589 55.3966 20.274 56.1277 20.364 56.9375L20.3584 56.9319Z" fill="url(#paint9_linear_105_2)"/>
<path d="M22.3042 57.7248C22.3042 57.7248 21.6912 57.0556 20.8196 57.2074L22.3042 57.7248Z" fill="#812852"/>
<path d="M28.1135 58.0903C28.1135 58.0903 27.2812 57.7304 26.342 58.3097L28.1135 58.0903Z" fill="#812852"/>
<g style="mix-blend-mode:multiply" opacity="0.6">
<path d="M20.3585 56.9319C20.3585 56.9319 20.4091 57.1737 21.292 57.3143C22.1749 57.4549 22.9116 58.3321 24.4131 58.5121C25.9146 58.6921 26.7638 58.0116 27.6523 58.0847C28.5408 58.1578 28.7208 57.9441 28.7208 57.9441C28.9233 57.3818 28.9064 56.8081 28.7995 56.302C28.8164 56.4482 28.8895 57.3874 28.5127 57.5673C28.0966 57.7642 25.9371 57.3593 24.5649 57.1906C23.1984 57.0275 20.8702 56.7463 20.6509 56.3526C20.4428 55.9758 20.8815 54.9523 20.9264 54.8624C20.5834 55.3966 20.2685 56.1277 20.3585 56.9375V56.9319Z" fill="#C978B1"/>
</g>
<path style="mix-blend-mode:multiply" opacity="0.6" d="M21.6687 53.957C21.6687 53.957 21.9724 55.526 21.7868 56.5776C21.7868 56.5776 22.2761 55.5878 21.9949 53.8557L21.6687 53.9626V53.957Z" fill="url(#paint10_linear_105_2)"/>
<path style="mix-blend-mode:multiply" opacity="0.6" d="M28.0797 54.733C28.0797 54.733 27.4105 56.1839 27.3374 57.2468C27.3374 57.2468 27.1012 56.1727 27.7817 54.5531L28.0741 54.733H28.0797Z" fill="url(#paint11_linear_105_2)"/>
<g style="mix-blend-mode:multiply" opacity="0.6">
<path d="M28.5183 57.5617C28.5183 57.5617 28.6983 57.8148 28.7264 57.9385C28.7545 58.0622 26.5388 59.6987 24.3006 59.4288C22.0624 59.1588 20.3753 57.1624 20.3584 56.9319C20.3472 56.6957 20.7465 56.4539 20.7465 56.4539C20.7465 56.4539 22.4617 56.9375 24.5705 57.1906C26.6794 57.4436 28.5183 57.5673 28.5183 57.5673V57.5617Z" fill="#C978B1"/>
</g>
<path d="M22.8497 56.4595C23.1871 56.3189 22.6922 55.7228 22.5404 55.7284C22.3885 55.7284 22.2648 56.0602 22.321 56.2851C22.3773 56.5101 22.7091 56.5157 22.8497 56.4539V56.4595Z" fill="#FBC9B8"/>
<path d="M58.2168 62.713C57.9525 63.2866 57.6938 63.7927 57.4351 64.2426L57.4183 64.2651C55.5625 67.4649 53.7517 67.9036 52.745 69.3095C51.8734 70.5242 49.0334 72.7118 47.4813 69.4051L47.4757 69.3938C47.4757 69.3938 51.1367 58.2253 52.4526 56.3414C52.4526 56.3414 54.3759 53.5071 56.6647 53.5352C59.6059 53.5746 60.5281 57.6629 58.2168 62.713V62.713Z" fill="url(#paint12_linear_105_2)"/>
<path style="mix-blend-mode:multiply" opacity="0.6" d="M49.8601 62.488C49.8601 62.488 55.703 57.1287 57.8962 57.1905C60.0895 57.2524 57.8006 62.4149 56.9683 64.1189C56.1361 65.8228 55.2588 66.7395 55.2588 66.7395C55.2588 66.7395 56.2766 64.7375 56.7715 63.0391C57.4857 60.6041 57.1877 58.304 56.2598 58.304C55.3319 58.304 53.4367 61.1383 53.2792 61.4758C53.1218 61.8132 53.6335 62.5949 53.1555 64.5013C52.6775 66.4133 51.2828 68.2804 50.7936 68.1454C50.3043 68.0048 50.8723 66.5033 51.2829 64.7094C51.6934 62.9154 50.2144 62.9435 49.3315 63.967L49.8601 62.488Z" fill="url(#paint13_linear_105_2)"/>
<path style="mix-blend-mode:multiply" opacity="0.6" d="M49.3315 63.9614C49.3315 63.9614 50.8498 62.5161 51.3503 63.444C51.8508 64.3719 50.8723 66.4077 51.3278 66.7845C51.789 67.1613 52.88 65.581 53.1105 63.967C53.3411 62.3474 53.0374 60.7784 52.0814 60.8403L49.8657 62.4824L49.3371 63.9614H49.3315Z" fill="url(#paint14_linear_105_2)"/>
<path style="mix-blend-mode:multiply" d="M57.4182 64.2595C55.5624 67.4593 53.7516 67.898 52.745 69.3039C51.8733 70.5186 49.0334 72.7062 47.4812 69.3995C47.5881 69.5401 48.6228 70.8616 50.0175 70.6873C51.4909 70.5017 52.2163 69.332 53.0149 68.4828C53.8078 67.628 55.4387 67.2962 57.4182 64.2595Z" fill="url(#paint15_linear_105_2)"/>
<path d="M30.9076 13.4088C30.9076 13.4088 32.724 7.56588 30.6433 4.2873C28.6244 1.10433 24.2942 -0.222852 21.3755 0.929994C17.7989 2.34715 18.2544 6.4749 18.2544 6.4749C18.2544 6.4749 20.2733 5.08586 25.2334 5.71571C29.468 6.25558 30.2271 10.0909 27.4772 13.3076L30.9076 13.4088V13.4088Z" fill="#3F313D"/>
<path d="M66.9888 32.3043C62.861 40.9872 60.1055 53.1005 60.1055 53.1005C58.3003 54.6076 55.4997 58.3698 55.4997 58.3698C54.2738 54.7144 53.1546 33.5246 53.1546 33.5246C52.0018 31.2133 43.9712 21.7768 32.291 20.3484C20.6107 18.92 14.6665 24.7123 14.6665 24.7123C11.984 28.8289 8.78415 41.2796 8.78415 41.2796C7.50196 40.4304 6.86649 38.3778 6.86649 38.3778C5.9161 42.9048 3.30673 49.9906 3.30673 49.9906C2.02454 48.6465 0.809833 46.4533 0.809833 46.4533C2.03016 40.1942 3.05176e-05 21.0401 3.05176e-05 21.0401C1.40032 17.6547 18.9967 10.3271 23.1694 9.3542C24.8621 8.96055 26.3524 9.2586 27.5334 9.74785C29.2598 10.4677 30.3058 11.6093 30.3058 11.6093C32.814 9.58477 39.5229 10.6026 46.7718 12.7453C49.3474 13.5044 51.9962 14.4098 54.5437 15.3715C64.2726 19.0325 66.3702 25.3197 66.3702 25.3197C64.6606 25.2972 61.2864 23.2502 61.0277 23.0927C65.1161 25.8989 66.4883 30.1448 66.8651 31.7082C66.955 32.0906 66.9944 32.3155 66.9944 32.3155L66.9888 32.3043Z" fill="#3F313D"/>
<g style="mix-blend-mode:multiply" opacity="0.9">
<path d="M66.9888 32.3043C66.1228 34.1263 65.3186 36.1002 64.5875 38.0854C61.832 45.5423 60.1111 53.0948 60.1111 53.0948C58.3059 54.602 55.5054 58.3642 55.5054 58.3642C54.7406 56.0866 54.0207 47.0213 53.5821 40.4923C53.3178 36.5332 53.1603 33.519 53.1603 33.519C52.0075 31.2077 43.9769 21.7712 32.2966 20.3428C20.6163 18.9144 14.6721 24.7067 14.6721 24.7067C13.7949 26.0564 12.8613 28.3002 12.0009 30.7128C10.2407 35.6503 8.79544 41.274 8.79544 41.274C7.51325 40.4248 6.87778 38.3722 6.87778 38.3722C5.92739 42.8992 3.31802 49.985 3.31802 49.985C2.03583 48.6409 0.821125 46.4477 0.821125 46.4477C1.47347 43.1016 1.19791 36.0834 0.79863 30.2629C0.449964 25.1904 0.011322 21.0289 0.011322 21.0289C4.40901 19.7917 6.67533 20.6577 6.67533 20.6577C6.67533 20.6577 3.93662 22.8509 2.91874 24.2793C2.91874 24.2793 7.19271 25.3253 9.49277 25.0835C9.49277 25.0835 11.6916 20.7252 14.0704 18.2564C17.1072 15.1072 19.7278 14.4548 27.6065 15.8439L30.3059 11.598C32.814 9.57353 39.523 10.5914 46.7719 12.734C52.0468 17.2048 56.5064 20.4778 58.5421 38.8671C58.5421 38.8671 62.2537 34.4806 62.996 32.5967C62.996 32.5967 62.653 29.8861 62.6474 28.3059C62.6474 28.3059 65.3748 29.335 66.8707 31.6913C66.9607 32.0737 67.0001 32.2986 67.0001 32.2986L66.9888 32.3043Z" fill="#3F313D"/>
</g>
<path d="M55.719 17.6603C54.5549 13.7631 53.0759 10.0965 51.58 8.87619C48.1664 6.08686 39.4386 4.72032 36.0475 5.78881C33.7362 6.51426 30.1708 11.7217 28.1351 14.961L28.0844 15.0453C27.3084 16.2825 26.7685 17.216 26.611 17.4804L26.5829 17.5253L26.5661 17.5591L26.5942 17.5816C26.5773 17.5703 26.5604 17.5591 26.5436 17.5535C26.5436 17.5535 26.5436 17.5535 26.5379 17.5535C24.7496 16.4962 22.4327 15.5908 20.0033 15.8889C14.7902 16.5356 13.9241 21.1695 13.6092 22.1199C13.2943 23.0702 14.5877 34.2894 16.9553 36.7582C16.9553 36.7582 17.0452 36.4995 17.2027 36.0552C17.9731 33.8676 20.3407 27.2036 21.2686 25.2353C22.9501 21.6812 29.9402 20.1628 29.9402 20.1628C38.0327 20.3709 41.6711 29.3743 42.3685 31.7419C42.5034 32.2087 42.4585 32.8891 42.2841 33.682C41.6149 36.865 39.0168 41.8588 38.9381 42.0163C39.2305 41.9882 48.6669 41.1052 51.4788 39.6037C54.3356 38.0797 57.6929 31.0783 58.0134 29.1381C58.1934 28.0472 57.2205 22.671 55.7246 17.6716L55.719 17.6603Z" fill="#3F313D"/>
<g style="mix-blend-mode:multiply" opacity="0.9">
<path d="M37.9315 7.4028C37.9315 7.4028 47.8123 11.4293 49.7355 22.3336C51.6588 33.2378 42.1436 39.9018 38.9269 42.005C38.9269 42.005 45.5965 33.9464 46.7831 26.2701C47.7448 20.0391 44.365 11.7442 37.9315 7.4028V7.4028Z" fill="#3F313D"/>
</g>
<g style="mix-blend-mode:multiply" opacity="0.9">
<path d="M42.2786 33.6708C42.4473 32.8779 42.4979 32.1974 42.363 31.7307C42.2167 31.2301 41.9412 30.4372 41.5194 29.4981C39.9842 26.062 36.5312 20.6465 30.4858 20.1797C30.3059 20.1685 30.1203 20.1572 29.9347 20.1516C29.9347 20.1516 22.9445 21.6643 21.2631 25.2241C20.3295 27.1924 17.9676 33.8564 17.1972 36.044C17.1972 36.044 18.052 24.5324 19.9584 19.876C21.7636 15.4615 26.0938 17.3341 26.538 17.5422H26.5437C26.5662 17.5478 26.5718 17.5535 26.5718 17.5535L26.5887 17.5197L28.0845 15.0397L28.1352 14.9553C33.3201 11.1313 39.8942 15.7933 42.5035 21.5912C45.1129 27.3948 42.2786 33.6652 42.2786 33.6652V33.6708Z" fill="#3F313D"/>
</g>
<g style="mix-blend-mode:multiply" opacity="0.9">
<path d="M58.0079 29.1269C57.6929 31.0671 54.33 38.0629 51.4732 39.5925C48.6614 41.094 39.2249 41.9769 38.9325 42.005C39.1743 41.8701 46.9462 37.478 50.9446 31.8206C53.9645 27.541 55.6797 17.8853 55.7191 17.6603C57.2149 22.6597 58.1878 28.0359 58.0079 29.1269Z" fill="#3F313D"/>
</g>
<g style="mix-blend-mode:multiply" opacity="0.9">
<path d="M41.5193 29.4981C39.984 26.062 36.5311 20.6465 30.4857 20.1797C30.4857 20.1797 27.6401 15.9845 32.2571 16.4231C36.8741 16.8561 41.1706 23.8126 41.5193 29.4981Z" fill="#3F313D"/>
</g>
<g style="mix-blend-mode:multiply" opacity="0.9">
<path d="M11.9953 30.7184C10.2351 35.6559 8.78978 41.2796 8.78978 41.2796C7.50759 40.4304 6.87212 38.3778 6.87212 38.3778C5.92172 42.9048 3.31236 49.9906 3.31236 49.9906C2.03017 48.6465 0.815464 46.4533 0.815464 46.4533C1.46781 43.1073 1.19225 36.089 0.792969 30.2685C0.792969 30.2685 5.53932 35.5435 7.08582 35.8359C8.6042 36.1171 11.8772 30.9152 12.0009 30.7184H11.9953Z" fill="#3F313D"/>
</g>
<g style="mix-blend-mode:multiply" opacity="0.9">
<path d="M64.5819 38.091C61.8263 45.5479 60.1055 53.1005 60.1055 53.1005C58.3003 54.6076 55.4997 58.3698 55.4997 58.3698C54.7349 56.0923 54.0151 47.0269 53.5764 40.4979C55.3029 45.3961 57.901 46.802 59.4081 46.5883C60.8928 46.3802 64.4694 38.3384 64.5763 38.0854L64.5819 38.091Z" fill="#3F313D"/>
</g>
<g style="mix-blend-mode:multiply" opacity="0.6">
<path d="M19.5204 68.1398C19.5204 68.1398 21.5337 71.0078 24.1937 71.2384C26.8537 71.469 29.1481 68.9664 29.1481 68.9664C29.1481 68.9664 24.1431 70.3161 19.5204 68.1398Z" fill="#CE78B1"/>
</g>
<path d="M24.6436 65.9634C24.6436 65.9634 20.6958 65.4517 17.3666 67.0488C17.3666 67.0488 20.6114 69.0958 24.3512 69.4163C28.0909 69.7369 31.6338 68.2747 31.6338 68.2747C28.6251 66.1321 24.6492 65.9634 24.6492 65.9634H24.6436Z" fill="#EF7172"/>
<path d="M25.9877 64.2538C25.3635 64.1976 24.7674 64.49 24.7674 64.49C24.7674 64.49 24.2331 64.102 23.6089 64.0458C22.9847 63.9895 19.6105 64.7881 18.0696 66.762C18.0696 66.762 21.8093 65.716 24.638 65.9578C27.4667 66.1996 30.9759 67.8698 30.9759 67.8698C29.7949 65.6597 26.6063 64.2988 25.9821 64.2482L25.9877 64.2538Z" fill="#DE4E6C"/>
<path d="M15.6008 64.9231C15.7245 65.0974 15.8594 65.2717 15.9888 65.4461C16.1181 65.6204 16.2531 65.7891 16.3937 65.9522C16.5343 66.1153 16.6692 66.284 16.8211 66.4358C16.9673 66.5876 17.1248 66.7339 17.2822 66.8238C17.3216 66.8463 17.3553 66.8576 17.3778 66.8632C17.3835 66.8632 17.3778 66.8632 17.3947 66.8632H17.4341H17.5072C17.6028 66.8632 17.704 66.852 17.7996 66.8295C17.9908 66.7957 18.182 66.7226 18.3788 66.6383C18.7669 66.4696 19.1718 66.2783 19.5935 66.1265C20.4371 65.8116 21.3369 65.671 22.2254 65.6148C22.6697 65.5866 23.1139 65.5866 23.5582 65.5979C24.0025 65.6091 24.4411 65.6373 24.8798 65.6822C25.3184 65.7216 25.757 65.7835 26.1957 65.8566C26.6343 65.9297 27.073 66.014 27.5004 66.1378C28.3608 66.374 29.21 66.7114 29.9635 67.2006C30.3403 67.4368 30.6946 67.7068 31.0489 67.8923C31.2288 67.9879 31.4088 68.0498 31.6056 68.0779C31.6619 68.0892 31.69 68.0892 31.7293 68.0892C31.7687 68.0892 31.8137 68.0835 31.8587 68.0723C31.9487 68.0554 32.0443 68.0217 32.1399 67.9823C32.5167 67.8248 32.8822 67.583 33.2309 67.3356C33.5795 67.0825 33.9226 66.8126 34.2487 66.5314L34.3275 66.6101C34.0294 66.9363 33.7145 67.24 33.3827 67.5324C33.0453 67.8192 32.6966 68.0948 32.2861 68.3085C32.1792 68.3591 32.0724 68.4041 31.9487 68.4378C31.8868 68.4547 31.825 68.4659 31.7575 68.4772C31.69 68.4828 31.6113 68.4772 31.555 68.4772C31.3132 68.4547 31.077 68.3872 30.8633 68.2916C30.6496 68.196 30.4528 68.0779 30.2616 67.9654C30.076 67.853 29.8904 67.7405 29.7048 67.6336C28.2371 66.7732 26.5275 66.4583 24.8179 66.2952C23.9631 66.2109 23.1027 66.1715 22.2479 66.2109C21.8205 66.2277 21.3987 66.2615 20.977 66.329C20.5608 66.3964 20.1503 66.492 19.7454 66.6158C19.3405 66.7395 18.9524 66.9082 18.5307 67.0657C18.317 67.1388 18.092 67.2119 17.8558 67.24C17.7377 67.2569 17.614 67.2625 17.4959 67.2569H17.4059L17.361 67.2456C17.3497 67.2456 17.316 67.2456 17.2991 67.2344C17.2147 67.2119 17.1529 67.1781 17.0966 67.1444C16.8829 66.9982 16.7367 66.8238 16.5905 66.6551C16.4499 66.4808 16.315 66.3008 16.1912 66.1209C15.9438 65.7553 15.7189 65.3786 15.5052 64.9962L15.6008 64.9343V64.9231Z" fill="#AC334D"/>
<path d="M17.0686 64.0964C17.0686 64.0964 15.5389 64.58 14.5436 66.0534C14.5436 66.0534 14.2061 64.9793 15.0666 64.2538C15.927 63.5284 17.0629 64.0907 17.0629 64.0907L17.0686 64.0964Z" fill="#DC6B7D"/>
<path d="M32.5448 65.3729C32.5448 65.3729 34.0744 65.7047 34.9011 67.583C34.9011 67.583 35.216 66.6045 34.7099 65.8341C34.2038 65.0693 32.5448 65.3673 32.5448 65.3673V65.3729Z" fill="#DC6B7D"/>
<g style="mix-blend-mode:soft-light" opacity="0.5">
<path d="M29.5193 68.9215C29.5193 68.9215 29.553 68.1004 28.7601 67.8698C28.3777 67.763 26.8424 68.2635 26.3307 68.4041C25.6896 68.5784 26.072 69.4501 26.072 69.4501C26.072 69.4501 27.4442 69.4782 29.5193 68.9215Z" fill="#FDF7BA"/>
</g>
<g style="mix-blend-mode:multiply" opacity="0.9">
<path d="M22.8273 40.016C22.8273 40.016 21.4832 39.2062 18.0472 38.6269C17.0293 38.4526 15.8258 38.3008 14.4199 38.1995C8.27328 37.7384 3.81937 38.2726 3.81937 38.2726C3.86998 38.1714 5.90573 35.742 8.22267 34.8478C8.2058 34.8703 7.87401 35.2921 7.84589 35.7814C7.84589 35.7814 10.5677 34.2292 14.0937 33.9199C14.7517 33.8637 15.4322 33.8468 16.1351 33.8975C20.5834 34.2011 22.2311 37.7271 22.2311 37.7271C22.2311 37.7271 22.2312 36.8724 21.8375 36.3044C21.8375 36.3044 23.1478 37.4291 22.8385 40.016H22.8273Z" fill="#010101"/>
<g style="mix-blend-mode:multiply" opacity="0.6">
<path d="M18.0472 38.6214C17.0293 38.4471 15.8258 38.2953 14.4199 38.194C8.27329 37.7329 3.81937 38.2671 3.81937 38.2671C3.86998 38.1659 5.90573 35.7365 8.22267 34.8423C8.2058 34.8648 7.87401 35.2866 7.84589 35.7759C7.84589 35.7759 10.5677 34.2237 14.0937 33.9144C12.8059 34.3475 9.99974 35.3485 8.2058 37.2099C8.2058 37.2099 11.6587 36.5013 18.0584 38.6214H18.0472Z" fill="#010101"/>
</g>
</g>
<g style="mix-blend-mode:multiply" opacity="0.9">
<path d="M36.7233 41.8774C36.7233 41.8774 38.236 41.45 41.7002 41.793C42.7293 41.8943 43.9271 42.0686 45.3106 42.3329C51.3616 43.5082 55.5175 45.1953 55.5175 45.1953C55.495 45.0829 54.1678 42.2036 52.1714 40.7302C52.1827 40.7583 52.3907 41.2475 52.2895 41.7312C52.2895 41.7312 50.0738 39.5155 46.7558 38.2895C46.1372 38.0589 45.4793 37.8677 44.7932 37.7271C40.418 36.8499 37.9042 39.8135 37.9042 39.8135C37.9042 39.8135 38.1236 38.9868 38.6578 38.5426C38.6578 38.5426 37.0944 39.2849 36.7177 41.8605L36.7233 41.8774Z" fill="#010101"/>
<g style="mix-blend-mode:multiply" opacity="0.6">
<path d="M41.7 41.793C42.7292 41.8943 43.927 42.063 45.3104 42.3329C51.3615 43.5083 55.5173 45.1953 55.5173 45.1953C55.4948 45.0829 54.1677 42.2036 52.1713 40.7302C52.1825 40.7583 52.3906 41.2476 52.2894 41.7312C52.2894 41.7312 50.0736 39.5155 46.7557 38.2895C47.8861 39.0487 50.3267 40.7527 51.5695 43.019C51.5695 43.019 48.4259 41.4275 41.6944 41.7874L41.7 41.793Z" fill="#010101"/>
</g>
</g>
<defs>
<linearGradient id="paint0_linear_105_2" x1="3.93175" y1="48.5526" x2="58.093" y2="48.5526" gradientUnits="userSpaceOnUse">
<stop stop-color="#F8A795"/>
<stop offset="0.43" stop-color="#F8A997"/>
<stop offset="0.52" stop-color="#F7A290"/>
<stop offset="0.76" stop-color="#F69684"/>
<stop offset="1" stop-color="#F69280"/>
</linearGradient>
<linearGradient id="paint1_linear_105_2" x1="15.534" y1="50.1441" x2="15.603" y2="43.3286" gradientUnits="userSpaceOnUse">
<stop stop-color="#E6DBEC"/>
<stop offset="1" stop-color="#B8C1E2"/>
</linearGradient>
<linearGradient id="paint2_linear_105_2" x1="14.5062" y1="50.0986" x2="14.9572" y2="45.38" gradientUnits="userSpaceOnUse">
<stop stop-color="#57345B"/>
<stop offset="1" stop-color="#301138"/>
</linearGradient>
<linearGradient id="paint3_linear_105_2" x1="14.5185" y1="49.9696" x2="14.8637" y2="46.3581" gradientUnits="userSpaceOnUse">
<stop stop-color="#A093B6"/>
<stop offset="0.99" stop-color="#734B61"/>
</linearGradient>
<linearGradient id="paint4_linear_105_2" x1="21.4498" y1="45.2959" x2="10.248" y2="44.2252" gradientUnits="userSpaceOnUse">
<stop stop-color="#F7A190"/>
<stop offset="0.43" stop-color="#F3A592"/>
<stop offset="0.51" stop-color="#F39F8D"/>
<stop offset="0.76" stop-color="#F49383"/>
<stop offset="1" stop-color="#F58F80"/>
</linearGradient>
<linearGradient id="paint5_linear_105_2" x1="40.0798" y1="52.8141" x2="41.8971" y2="45.0843" gradientUnits="userSpaceOnUse">
<stop stop-color="#E6DBEC"/>
<stop offset="1" stop-color="#B8C1E2"/>
</linearGradient>
<linearGradient id="paint6_linear_105_2" x1="38.1944" y1="52.2485" x2="38.9343" y2="47.2075" gradientUnits="userSpaceOnUse">
<stop stop-color="#57345B"/>
<stop offset="1" stop-color="#301138"/>
</linearGradient>
<linearGradient id="paint7_linear_105_2" x1="38.2434" y1="51.9147" x2="38.7873" y2="48.209" gradientUnits="userSpaceOnUse">
<stop stop-color="#A093B6"/>
<stop offset="0.99" stop-color="#734B61"/>
</linearGradient>
<linearGradient id="paint8_linear_105_2" x1="34.7106" y1="45.7009" x2="47.6859" y2="47.6053" gradientUnits="userSpaceOnUse">
<stop stop-color="#F7A190"/>
<stop offset="0.43" stop-color="#F3A592"/>
<stop offset="0.51" stop-color="#F39F8D"/>
<stop offset="0.76" stop-color="#F49383"/>
<stop offset="1" stop-color="#F58F80"/>
</linearGradient>
<linearGradient id="paint9_linear_105_2" x1="24.4045" y1="58.4651" x2="24.9995" y2="53.5408" gradientUnits="userSpaceOnUse">
<stop stop-color="#F37B7F"/>
<stop offset="0.4" stop-color="#F3817F"/>
<stop offset="1" stop-color="#F48680"/>
</linearGradient>
<linearGradient id="paint10_linear_105_2" x1="21.6322" y1="56.5157" x2="21.9594" y2="53.8079" gradientUnits="userSpaceOnUse">
<stop stop-color="#FBE3D4"/>
<stop offset="0.99" stop-color="#AE7CB7"/>
</linearGradient>
<linearGradient id="paint11_linear_105_2" x1="27.4801" y1="57.2136" x2="27.8073" y2="54.5058" gradientUnits="userSpaceOnUse">
<stop stop-color="#FBE3D4"/>
<stop offset="0.99" stop-color="#AE7CB7"/>
</linearGradient>
<linearGradient id="paint12_linear_105_2" x1="50.4452" y1="77.1366" x2="54.948" y2="57.5082" gradientUnits="userSpaceOnUse">
<stop stop-color="#F7A190"/>
<stop offset="0.43" stop-color="#F3A592"/>
<stop offset="0.51" stop-color="#F39F8D"/>
<stop offset="0.76" stop-color="#F49383"/>
<stop offset="1" stop-color="#F58F80"/>
</linearGradient>
<linearGradient id="paint13_linear_105_2" x1="51.6226" y1="72.0293" x2="54.7208" y2="58.5235" gradientUnits="userSpaceOnUse">
<stop stop-color="#F7A190"/>
<stop offset="0.43" stop-color="#F3A592"/>
<stop offset="0.51" stop-color="#F39F8D"/>
<stop offset="0.76" stop-color="#F49383"/>
<stop offset="1" stop-color="#F58F80"/>
</linearGradient>
<linearGradient id="paint14_linear_105_2" x1="50.6009" y1="66.5734" x2="51.9476" y2="60.7029" gradientUnits="userSpaceOnUse">
<stop stop-color="#F7A190"/>
<stop offset="0.43" stop-color="#F3A592"/>
<stop offset="0.51" stop-color="#F39F8D"/>
<stop offset="0.76" stop-color="#F49383"/>
<stop offset="1" stop-color="#F58F80"/>
</linearGradient>
<linearGradient id="paint15_linear_105_2" x1="56.4535" y1="68.3352" x2="48.1329" y2="66.4264" gradientUnits="userSpaceOnUse">
<stop stop-color="#F7A190"/>
<stop offset="0.43" stop-color="#F3A592"/>
<stop offset="0.51" stop-color="#F39F8D"/>
<stop offset="0.76" stop-color="#F49383"/>
<stop offset="1" stop-color="#F58F80"/>
</linearGradient>
</defs>
</svg>
