<svg width="101" height="90" viewBox="0 0 101 90" fill="none" xmlns="http://www.w3.org/2000/svg">
<g filter="url(#filter0_d_105_7)">
<path d="M92.9255 50.2003C92.9255 50.2003 91.5989 35.4813 91.1316 35.3793C91.0726 27.8695 76.9959 17.9387 73.8701 15.7754C56.9255 4.06239 46.2538 4.7817 28.8258 22.0076C15.0713 35.5994 19.7116 59.6373 20.2004 61.296C16.5859 63.2338 19.9587 68.3066 23.8256 67.5443C23.8256 67.5443 22.6978 70.7759 26.2317 72.1232C29.7657 73.4706 30.8989 72.2896 30.8989 72.2896C30.8989 72.2896 28.482 75.8325 33.5413 76.9383C33.5413 76.9383 31.307 78.2374 34.7604 79.4344C38.2138 80.6315 41.1194 75.5212 41.1194 75.5212C41.1194 75.5212 40.7005 79.4559 44.0142 80.3577C47.328 81.2596 51.1573 77.3409 51.1573 77.3409C51.1573 77.3409 54.6107 81.6997 57.7311 81.2166C60.8515 80.7281 62.8064 77.2604 62.8064 77.2604C62.8064 77.2604 62.4358 79.7458 65.5294 79.311C68.3329 78.9191 68.0697 74.6838 67.9945 73.8893C68.0858 74.6945 68.6551 79.0104 70.4382 78.5433C73.9292 77.6308 73.1021 74.7965 73.7305 75.6554C74.3588 76.5089 77.4739 75.7198 80.0841 73.9215C82.4633 72.2843 81.2817 69.4661 81.2817 69.4661C81.2817 69.4661 83.6287 70.2069 85.2024 67.5336C85.2024 67.5336 85.3635 71.4683 88.3604 69.6754C90.9866 68.1026 88.0059 63.5452 88.0059 63.5452C88.0059 63.5452 90.1918 65.0482 92.802 63.4056C94.8965 62.0904 91.803 59.8574 91.803 59.8574C91.803 59.8574 95.6807 60.727 96.83 58.9663C97.9793 57.2056 92.9255 50.195 92.9255 50.195V50.2003Z" fill="url(#paint0_linear_105_7)"/>
<path d="M88.7631 47.2747C88.7631 47.8383 88.7416 48.3483 88.704 48.8046V48.8261C88.4408 52.1005 87.4096 53.0238 87.1733 54.5161C86.9692 55.8098 85.7877 58.526 83.8327 56.1963L83.8274 56.191C83.8274 56.191 82.9304 45.6267 83.2258 43.6352C83.2258 43.6352 83.634 40.6506 85.1109 39.9796C87.0068 39.1153 88.7792 42.2932 88.7684 47.2693L88.7631 47.2747Z" fill="url(#paint1_linear_105_7)"/>
<path style="mix-blend-mode:multiply" opacity="0.6" d="M83.3441 49.6313C83.3441 49.6313 85.5299 43.3185 86.9532 42.7012C88.3764 42.0892 88.4087 47.1512 88.3657 48.8422C88.3281 50.5384 88.0327 51.5798 88.0327 51.5798C88.0327 51.5798 88.1025 49.5776 87.9307 47.9886C87.6836 45.7126 86.8243 43.8553 86.2282 44.1398C85.632 44.4243 85.2453 47.3982 85.2399 47.7256C85.2399 48.0584 85.7931 48.563 86.0402 50.3237C86.2872 52.0844 85.9381 54.0921 85.5837 54.1243C85.2292 54.1565 85.1594 52.7125 84.9016 51.0699C84.6438 49.4273 83.7039 49.905 83.4354 51.0377L83.3441 49.6259V49.6313Z" fill="url(#paint2_linear_105_7)"/>
<path style="mix-blend-mode:multiply" opacity="0.6" d="M83.4354 51.0377C83.4354 51.0377 83.9885 49.3521 84.574 49.9856C85.1647 50.619 85.1271 52.6427 85.5299 52.8199C85.9328 52.997 86.1744 51.3329 85.8522 49.8943C85.53 48.4557 84.8801 47.221 84.2839 47.5646L83.3441 49.6313L83.4354 51.0431V51.0377Z" fill="url(#paint3_linear_105_7)"/>
<path style="mix-blend-mode:multiply" d="M88.6986 48.826C88.4355 52.1005 87.4097 53.0238 87.168 54.5161C86.9639 55.8098 85.7823 58.526 83.8274 56.1963C83.9348 56.2822 84.9821 57.082 85.8253 56.513C86.7168 55.9064 86.8404 54.6986 87.1035 53.7324C87.3667 52.7715 88.3119 51.9878 88.6986 48.8207V48.826Z" fill="url(#paint4_linear_105_7)"/>
<path d="M50.3033 16.5269C50.3033 16.5269 74.23 13.6603 82.5761 40.8278C90.9276 67.9899 71.6789 78.0441 58.1554 77.8455C44.6318 77.6469 33.6809 64.7583 30.6196 56.76C27.5529 48.7617 28.7667 20.1878 50.3033 16.5322V16.5269Z" fill="url(#paint5_linear_105_7)"/>
<path d="M25.3616 57.6403C25.6194 58.3221 25.8826 58.934 26.1457 59.4708L26.1618 59.4977C28.0523 63.3519 30.1093 64.0068 31.162 65.7192C32.075 67.1954 35.1793 69.9599 37.247 66.256C37.2524 66.2506 37.2578 66.2452 37.2578 66.2452C37.2578 66.2452 33.9279 53.0131 32.5584 50.7317C32.5584 50.7317 30.5605 47.2962 27.9073 47.1405C24.4969 46.9419 23.1005 51.6013 25.3616 57.6403V57.6403Z" fill="url(#paint6_linear_105_7)"/>
<path style="mix-blend-mode:multiply" opacity="0.6" d="M35.0612 58.0591C35.0612 58.0591 28.7291 51.3759 26.1834 51.274C23.6376 51.172 25.8665 57.3291 26.6936 59.3689C27.5207 61.4087 28.4606 62.5414 28.4606 62.5414C28.4606 62.5414 27.4455 60.1419 27.0105 58.1396C26.3821 55.2624 26.9138 52.6213 27.9879 52.6965C29.0621 52.7716 31.0278 56.2071 31.1782 56.6097C31.3339 57.0123 30.6733 57.8766 31.0707 60.1258C31.4682 62.375 32.929 64.6564 33.5144 64.5329C34.0945 64.4095 33.5574 62.6273 33.2298 60.5177C32.9022 58.408 34.6101 58.5637 35.5553 59.8144L35.0612 58.0591V58.0591Z" fill="url(#paint7_linear_105_7)"/>
<path style="mix-blend-mode:multiply" opacity="0.6" d="M35.5553 59.8143C35.5553 59.8143 33.9172 58.016 33.262 59.052C32.6067 60.088 33.5788 62.5251 33.0149 62.9223C32.451 63.3196 31.3178 61.4032 31.1835 59.5137C31.0492 57.6188 31.5272 55.8312 32.6336 55.9761L35.0665 58.0589L35.5606 59.8143H35.5553Z" fill="url(#paint8_linear_105_7)"/>
<path style="mix-blend-mode:multiply" d="M26.1619 59.4976C28.0524 63.3518 30.1094 64.0067 31.162 65.7191C32.075 67.1953 35.1793 69.9598 37.2471 66.2559C37.1128 66.4062 35.8077 67.8555 34.2072 67.5388C32.5154 67.206 31.7743 65.7942 30.915 64.7421C30.061 63.69 28.2027 63.1693 26.1619 59.4976V59.4976Z" fill="url(#paint9_linear_105_7)"/>
<path d="M19.2657 45.047C20.3882 47.4358 21.5375 44.1291 21.5375 44.1291C22.8963 47.8491 25.732 47.6935 25.732 47.6935C25.732 47.6935 23.3045 49.4381 23.9382 52.0523C24.5666 54.6665 29.3573 53.3513 29.3573 53.3513C29.3573 53.3513 29.1908 58.3328 31.6184 58.4563C34.0513 58.5798 33.3585 56.5614 33.3585 56.5614C36.3876 57.0767 34.4434 54.3337 34.4434 54.3337C35.2167 53.1957 32.0856 50.764 32.0856 50.764C33.5035 50.2486 32.5905 47.4197 32.5905 47.4197C33.3638 48.6382 35.5766 47.2694 35.5766 47.2694C35.5766 47.2694 36.6722 48.9764 38.3049 48.3806C39.943 47.7794 37.7625 41.5739 37.7625 41.5739C39.2394 40.6614 36.1298 34.2574 36.1298 34.2574C36.1298 34.2574 37.4993 34.8371 38.1062 34.0695C38.7024 33.318 37.3167 30.9722 37.263 30.8809C37.306 30.9346 38.031 31.7559 40.4908 31.0688C42.9828 30.3709 42.2524 26.3288 42.2148 26.2859C44.637 26.7797 46.6833 24.6433 46.6833 24.6433C46.6833 24.6433 47.897 26.6724 48.8853 26.3718C49.8735 26.0712 52.4031 21.9808 52.4031 21.9808C54.5568 22.3834 56.4956 21.2668 56.4956 21.2668C56.2915 21.444 58.9178 25.2499 60.5505 24.4447C62.1188 23.6717 62.3282 22.9094 62.3443 22.8557C62.3551 22.9309 62.5699 24.5789 64.3906 27.3756C66.2542 30.2421 68.3649 28.5136 68.3649 28.5136C68.3649 28.5136 68.3757 31.976 69.0416 33.2535C69.7076 34.5311 70.7603 35.5027 70.7603 35.5027C70.7603 35.5027 71.5927 38.5249 72.7421 37.87C73.8914 37.2205 73.6551 36.1093 73.6712 35.7658C73.6873 35.4222 74.4285 36.6891 76.2975 37.0595C78.1665 37.4299 77.4146 35.2021 77.4146 35.2021C78.3491 36.3187 79.8314 35.6799 79.8314 35.6799C79.8314 35.6799 80.0892 39.3623 81.1902 40.4467C83.6984 42.9213 84.5523 37.8163 84.5523 37.8163C86.3032 37.0165 85.1001 34.7512 85.1001 34.7512C85.1001 34.7512 85.6479 35.2451 86.6308 34.1339C87.6083 33.0174 87.0765 29.0128 85.7178 27.5527C84.4556 26.2 84.3321 27.5849 84.3214 27.7943C84.3214 27.8104 84.3214 27.8211 84.3214 27.8211C84.3214 27.8211 87.1571 25.5719 86.8832 24.1333C86.6093 22.7001 84.8477 20.3059 84.8477 20.3059C84.8477 20.3059 86.2924 18.6258 86.2333 16.967C86.1743 15.3137 85.1646 11.5293 83.6232 11.7171C82.1301 11.905 82.0281 13.1182 82.0334 13.2417C82.0334 13.2417 81.1902 10.6811 80.4222 9.93497C79.9227 9.45185 78.2095 8.78085 77.5811 8.80769C76.0612 8.87747 75.1267 9.82224 75.1267 9.82224C73.5745 9.04388 71.9687 7.29391 71.9687 7.29391C71.9687 7.29391 73.0321 6.38135 72.0868 5.16282C70.0298 2.50029 64.0254 1.37838 61.0339 0.938203C56.9682 0.336987 55.0294 2.71501 55.067 2.74185C51.0443 2.50029 48.1226 3.55242 48.1226 3.55242C48.1226 3.55242 48.1119 3.02099 46.4845 2.82774C44.927 2.64523 43.9657 3.39138 43.0043 4.84611L42.9882 4.87295C42.9882 4.87295 41.7583 3.99796 40.0934 5.20576C38.1116 6.63902 36.8709 10.7187 37.8699 15.9525C37.2254 16.1457 36.8763 16.2907 36.1029 16.7147C27.8374 13.6765 28.1381 19.9248 28.1381 19.9248C28.1381 19.9248 26.8169 19.7208 24.5666 20.5368C22.3807 21.3259 22.4451 21.7499 22.6331 22.5337C22.8265 23.3389 24.4753 23.3228 24.4753 23.3228C19.8081 25.8994 20.5546 25.7008 20.5546 25.7008C18.8843 27.1233 18.9542 28.4116 19.0938 28.9699C19.1421 29.1578 19.1958 29.2651 19.1958 29.2651C19.1958 29.2651 16.3977 31.3586 16.7038 32.8993C17.01 34.4399 18.9219 33.6293 18.9219 33.6293C18.7071 34.9337 19.1421 36.3885 19.5396 37.3654C19.8188 38.0472 20.0766 38.4981 20.0766 38.4981C20.0766 38.4981 18.1432 42.6636 19.2657 45.0524V45.047Z" fill="#010101"/>
<g style="mix-blend-mode:multiply">
<path d="M19.2658 45.0469C20.3883 47.4356 21.5376 44.1289 21.5376 44.1289C22.8964 47.849 25.7321 47.6933 25.7321 47.6933C25.7321 47.6933 23.3046 49.4379 23.9383 52.0521C24.5667 54.6663 29.3574 53.3511 29.3574 53.3511C29.3574 53.3511 29.1909 58.3327 31.6185 58.4561C34.0514 58.5796 33.3586 56.5612 33.3586 56.5612C36.3877 57.0765 34.4435 54.3335 34.4435 54.3335C35.2169 53.1955 32.0857 50.7638 32.0857 50.7638C33.5036 50.2484 32.5906 47.4195 32.5906 47.4195C33.364 48.638 35.5767 47.2692 35.5767 47.2692C35.5767 47.2692 36.6723 48.9762 38.305 48.3804C39.9431 47.7792 37.7626 41.5738 37.7626 41.5738C39.2395 40.6612 36.1299 34.2572 36.1299 34.2572C36.1299 34.2572 37.4994 34.8369 38.1063 34.0693C38.7132 33.3017 37.2631 30.8753 37.2631 30.8753C37.2631 30.8753 37.9559 31.7772 40.4909 31.0686C42.9829 30.3707 42.2525 26.3286 42.2149 26.2857C44.6371 26.7796 46.6834 24.6431 46.6834 24.6431C46.6834 24.6431 47.8972 26.6722 48.8854 26.3716C49.8736 26.071 52.4032 21.9806 52.4032 21.9806C54.5569 22.3832 56.4957 21.2666 56.4957 21.2666C56.2916 21.4438 58.9179 25.2497 60.5506 24.4445C62.1189 23.6715 62.3283 22.9092 62.3444 22.8555C62.3552 22.9307 62.57 24.5787 64.3907 27.3754C66.2543 30.2419 68.365 28.5134 68.365 28.5134C68.365 28.5134 68.3758 31.9758 69.0418 33.2534C69.7077 34.5309 70.7604 35.5026 70.7604 35.5026C70.7604 35.5026 71.5928 38.5247 72.7422 37.8698C73.8915 37.2203 73.6552 36.1091 73.6713 35.7656C73.6874 35.422 74.4286 36.6889 76.2976 37.0593C78.1666 37.4297 77.4147 35.2019 77.4147 35.2019C78.3492 36.3185 79.8316 35.6797 79.8316 35.6797C79.8316 35.6797 80.0893 39.3621 81.1903 40.4465C83.6985 42.9211 84.5524 37.8162 84.5524 37.8162C86.3033 37.0163 85.1002 34.751 85.1002 34.751C85.1002 34.751 85.6481 35.2449 86.6309 34.1337C87.6084 33.0172 87.0767 29.0126 85.7179 27.5525C84.3591 26.0925 84.3215 27.8209 84.3215 27.8209C84.3215 27.8209 87.1572 25.5718 86.8833 24.1331C86.6094 22.6999 84.8478 20.3057 84.8478 20.3057C84.8478 20.3057 86.2925 18.6256 86.2335 16.9669C86.1744 15.3135 85.1647 11.5291 83.6233 11.717C82.1302 11.9048 82.0282 13.118 82.0336 13.2415C81.7221 15.2491 71.2169 15.5121 71.2169 15.5121C71.2169 15.5121 73.2631 17.3695 69.7346 17.815C65.3091 18.3733 61.4099 14.7391 61.4099 14.7391C61.4099 14.7391 57.2476 17.0796 54.0091 16.9776C44.5082 16.6716 38.7401 14.8197 37.5263 12.8228L37.87 15.9523L36.103 16.7146C36.103 16.7146 38.6434 17.4876 39.0086 20.6332C39.1697 22.0074 34.2018 23.7252 33.4714 22.3832C33.4714 22.3832 33.9709 25.3785 30.7216 25.4966C30.7216 25.4966 33.2995 26.1783 32.6174 29.1093C31.9407 32.0402 20.2433 33.0064 19.1906 29.2703C19.1906 29.2703 16.3924 31.3638 16.6986 32.9044C17.0047 34.4451 18.9167 33.6345 18.9167 33.6345C18.5515 35.8461 20.0714 38.5033 20.0714 38.5033C20.0714 38.5033 18.1379 42.6688 19.2604 45.0576L19.2658 45.0469Z" fill="#010101"/>
</g>
<g style="mix-blend-mode:multiply">
<path d="M19.2658 45.047C20.3883 47.4358 21.5376 44.1291 21.5376 44.1291C22.8964 47.8491 25.7322 47.6934 25.7322 47.6934C25.7322 47.6934 23.3046 49.438 23.9383 52.0522C24.5667 54.6665 29.3574 53.3513 29.3574 53.3513C29.3574 53.3513 29.1909 58.3328 31.6185 58.4563C34.0514 58.5797 33.3586 56.5614 33.3586 56.5614C36.3877 57.0767 34.4435 54.3336 34.4435 54.3336C35.2169 53.1956 32.0857 50.7639 32.0857 50.7639C33.5036 50.2486 32.5906 47.4197 32.5906 47.4197C33.364 48.6382 35.5767 47.2694 35.5767 47.2694C35.5767 47.2694 36.6723 48.9764 38.305 48.3805C39.9431 47.7793 37.7626 41.5739 37.7626 41.5739C39.2396 40.6614 36.1299 34.2573 36.1299 34.2573C36.1299 34.2573 37.4994 34.8371 38.1063 34.0695C38.7025 33.3179 37.3168 30.9721 37.2631 30.8809C37.3061 30.9345 38.0311 31.7558 40.4909 31.0687C42.983 30.3709 42.2525 26.3288 42.2149 26.2859C44.6371 26.7797 46.6834 24.6433 46.6834 24.6433C46.6834 24.6433 47.8972 26.6724 48.8854 26.3717C49.8736 26.0711 52.4032 21.9807 52.4032 21.9807C54.5569 22.3833 56.4957 21.2668 56.4957 21.2668C56.2916 21.4439 58.9179 25.2498 60.5506 24.4446C62.1189 23.6716 62.3283 22.9094 62.3445 22.8557C62.3552 22.9309 62.57 24.5788 64.3907 27.3756C66.2544 30.2421 68.365 28.5136 68.365 28.5136C68.365 28.5136 68.3758 31.9759 69.0418 33.2535C69.7077 34.5311 70.7604 35.5027 70.7604 35.5027C70.7604 35.5027 71.5929 38.5249 72.7422 37.87C73.8915 37.2205 73.6552 36.1093 73.6713 35.7657C73.6875 35.4222 74.4286 36.689 76.2976 37.0594C78.1666 37.4298 77.4147 35.2021 77.4147 35.2021C78.3492 36.3186 79.8316 35.6799 79.8316 35.6799C79.8316 35.6799 80.0894 39.3623 81.1904 40.4466C83.6985 42.9213 84.5524 37.8163 84.5524 37.8163C86.3033 37.0165 85.1003 34.7512 85.1003 34.7512C85.1003 34.7512 85.6481 35.245 86.6309 34.1339C87.6084 33.0173 87.0767 29.0128 85.7179 27.5527C84.4558 26.2 84.3322 27.5849 84.3215 27.7943C84.3215 27.8104 84.3215 27.8211 84.3215 27.8211C84.7888 30.4836 82.2538 28.4438 82.2538 28.4438C82.2538 28.4438 82.2753 30.0864 80.5136 29.5979C80.6157 29.6301 81.91 30.081 80.5459 30.7145C79.128 31.3747 77.5705 28.986 77.5705 28.986C77.5705 28.986 77.0495 30.43 75.2933 30.5534C75.2933 30.5534 77.1731 31.3318 75.1 31.9545C73.0269 32.5772 73.5586 28.3901 73.5586 28.3901C73.5586 28.3901 72.4038 29.614 71.0182 28.3418C69.6272 27.0696 69.7561 24.1655 69.7561 24.1655C69.7561 24.1655 69.2459 26.1892 66.9418 25.894C64.6378 25.5988 62.9138 21.562 62.9138 21.562C62.9138 21.562 62.0974 22.5336 61.0555 22.8664C60.0189 23.1939 59.0146 19.8765 59.0146 19.8765C59.0146 19.8765 58.9716 21.1165 56.4903 20.2308C56.4903 20.2308 56.8019 21.0682 55.0993 21.1755C53.3968 21.2829 51.1787 19.286 51.1787 19.286C51.1787 19.286 51.4526 22.5658 50.1475 23.1939C48.8424 23.8219 48.3805 19.1947 48.3805 19.1947C48.3805 19.1947 46.9519 21.5352 45.3837 20.8964C43.8154 20.2576 43.3213 18.8297 43.3213 18.8297C43.3213 18.8297 44.1323 21.1218 42.3116 21.4278C40.5661 21.7177 39.6907 20.526 39.6155 20.424C39.7229 20.6065 41.7262 24.1333 39.1483 25.2874C39.4598 25.1532 41.8766 24.1601 41.4147 25.7759C40.9206 27.5044 38.1063 26.3073 38.1063 26.3073C38.1063 26.3073 39.202 27.5527 38.0097 28.5565C36.914 29.4798 36.2427 28.7551 36.1353 28.6263C36.291 28.8464 37.7519 31.0043 35.3135 32.2927C35.4371 32.239 37.0429 31.5894 36.6723 32.6469C36.2857 33.7474 34.234 34.0748 34.234 34.0748C34.234 34.0748 35.9795 35.2987 35.2061 36.2918C34.9 36.6837 34.3952 36.7481 33.8903 36.6783C35.3941 37.3064 37.3329 38.5142 36.4145 40.3715C35.3565 42.5026 33.3371 41.327 32.3489 40.5647C32.9988 41.2035 33.8581 42.3576 32.9289 43.3507C31.5594 44.8162 29.1963 41.5578 29.1963 41.5578C29.1963 41.5578 29.3843 43.3722 27.2413 43.2004C27.2413 43.2004 29.642 44.8108 28.2403 45.7019C26.8332 46.593 22.6655 46.0455 23.6376 43.9358C23.6376 43.9358 21.9243 42.8193 22.8749 41.4182C22.8749 41.4182 20.1788 41.4934 20.0929 38.4981C20.0929 38.4981 18.1594 42.6636 19.2819 45.0524L19.2658 45.047Z" fill="#010101"/>
</g>
<g style="mix-blend-mode:soft-light" opacity="0.5">
<path d="M54.2561 12.2054C54.2561 12.2054 52.7684 13.1502 54.3635 13.4454C55.9587 13.7407 58.4507 12.388 58.4507 12.388C63.236 12.6134 64.6109 11.4915 63.7086 9.67174C63.7086 9.67174 66.4799 5.67259 61.8557 5.89267C60.6849 5.94635 61.3401 6.90722 61.3616 6.92333C58.934 6.77839 59.3798 7.91641 59.3798 7.91641C59.3798 7.91641 56.1466 6.3919 55.1584 6.37043C45.0776 6.13423 48.9928 8.99538 48.9928 8.99538C39.4329 13.4079 54.2669 12.2108 54.2669 12.2108L54.2561 12.2054Z" fill="#010101"/>
</g>
<path d="M69.5788 51.0001C68.8806 50.9571 70.4596 45.1221 74.3426 43.3239C79.0367 41.1552 81.1366 45.3583 81.3138 46.2709C81.4964 47.1834 72.9301 51.188 69.5734 50.9947L69.5788 51.0001Z" fill="url(#paint10_linear_105_7)"/>
<path d="M75.1572 49.9882C76.9478 49.7082 78.1682 48.0044 77.8831 46.1825C77.598 44.3607 75.9153 43.1107 74.1247 43.3906C72.3342 43.6705 71.1138 45.3744 71.3989 47.1962C71.684 49.0181 73.3667 50.2681 75.1572 49.9882Z" fill="url(#paint11_linear_105_7)"/>
<path d="M75.1274 49.7973C76.8125 49.5339 77.9607 47.9289 77.6921 46.2125C77.4235 44.496 75.8397 43.3182 74.1546 43.5816C72.4696 43.845 71.3213 45.45 71.5899 47.1665C71.8586 48.8829 73.4423 50.0608 75.1274 49.7973Z" fill="url(#paint12_linear_105_7)"/>
<path style="mix-blend-mode:multiply" d="M76.5983 46.2333C76.8454 47.3337 76.1741 48.4234 75.0945 48.6704C74.015 48.9173 72.9409 48.2248 72.6885 47.1297C72.436 46.0347 73.1128 44.9396 74.1923 44.6927C75.2718 44.4457 76.3459 45.1382 76.5983 46.2333Z" fill="url(#paint13_linear_105_7)"/>
<path d="M69.509 49.905C69.509 49.905 69.8796 42.1429 74.2192 40.4681C78.5641 38.7933 80.9165 45.31 80.9165 45.31C80.9165 45.31 79.0582 42.0248 74.8583 43.2219C70.653 44.4189 69.509 49.905 69.509 49.905V49.905Z" fill="url(#paint14_linear_105_7)"/>
<path d="M69.45 50.2271L70.3791 50.9786C70.3791 50.9786 69.4876 51.2738 69.3372 51.0376C69.1868 50.8014 69.45 50.2271 69.45 50.2271Z" fill="#D86B7C"/>
<path d="M71.0021 50.925C71.0021 50.925 74.6488 50.6619 77.5544 49.3575C80.4599 48.0477 81.1957 46.55 81.1957 46.55C81.1957 46.55 76.824 49.4971 71.0021 50.925V50.925Z" fill="#D86B7C"/>
<path d="M76.7541 45.5408C76.5984 45.7609 77.506 45.5945 78.1183 45.1758C78.6607 44.8001 78.8648 44.3438 78.7896 44.2847C78.7145 44.2311 77.361 44.6766 76.7541 45.5408Z" fill="white"/>
<path d="M76.2816 45.8307C76.0077 45.7985 75.7391 46.0024 75.7606 46.142C75.7821 46.2816 76.1366 46.3836 76.2655 46.2923C76.3997 46.2011 76.432 45.8468 76.2816 45.8307V45.8307Z" fill="white"/>
<g style="mix-blend-mode:multiply" opacity="0.6">
<path d="M69.45 50.2271C69.45 50.2271 71.3459 45.9058 74.7241 44.4135C78.1023 42.9212 80.2667 44.5638 80.2667 44.5638C80.2667 44.5638 79.1818 42.0516 74.6328 43.4526C70.0838 44.8483 69.45 50.2271 69.45 50.2271V50.2271Z" fill="#CC78B1"/>
</g>
<path d="M69.45 50.2271C69.45 50.2271 70.4812 44.8644 75.186 43.4151C79.3859 42.1268 81.1314 45.7341 81.1314 45.7341C81.1314 45.7341 80.8252 42.2985 77.7102 42.1858C74.7509 42.0784 70.2878 44.6819 69.45 50.2271V50.2271Z" fill="#401432"/>
<path d="M55.2927 53.2331C55.9425 52.9808 52.6556 47.908 48.4127 47.382C43.2837 46.7485 42.5694 51.3972 42.6714 52.3205C42.7788 53.2438 52.1561 54.4462 55.2927 53.2331Z" fill="url(#paint15_linear_105_7)"/>
<path d="M49.6671 53.9718C51.4576 53.6916 52.6777 51.9875 52.3923 50.1657C52.1068 48.3439 50.4239 47.0942 48.6334 47.3744C46.8429 47.6547 45.6228 49.3587 45.9082 51.1805C46.1937 53.0023 47.8766 54.252 49.6671 53.9718Z" fill="url(#paint16_linear_105_7)"/>
<path d="M49.6317 53.784C51.3167 53.5206 52.465 51.9156 52.1964 50.1992C51.9278 48.4827 50.344 47.3049 48.6589 47.5683C46.9739 47.8317 45.8256 49.4367 46.0942 51.1531C46.3628 52.8696 47.9466 54.0474 49.6317 53.784Z" fill="url(#paint17_linear_105_7)"/>
<path style="mix-blend-mode:multiply" d="M47.1507 50.839C47.2474 51.9609 48.2249 52.793 49.3259 52.6963C50.4269 52.5997 51.2432 51.6174 51.1412 50.4955C51.0445 49.3735 50.067 48.5415 48.966 48.6381C47.865 48.7347 47.0487 49.7171 47.1507 50.839Z" fill="url(#paint18_linear_105_7)"/>
<path d="M55.0188 52.1703C55.0188 52.1703 52.2959 44.8912 47.6502 44.6228C43.0045 44.3544 42.7521 51.2738 42.7521 51.2738C42.7521 51.2738 43.5147 47.5806 47.8811 47.4357C52.2475 47.2961 55.0188 52.1649 55.0188 52.1649V52.1703Z" fill="url(#paint19_linear_105_7)"/>
<path d="M55.1746 52.4601L54.5193 53.4585C54.5193 53.4585 55.4592 53.4693 55.529 53.1955C55.6042 52.9271 55.1746 52.4601 55.1746 52.4601V52.4601Z" fill="#D86B7C"/>
<path d="M53.9125 53.5981C53.9125 53.5981 50.357 54.4624 47.1937 54.1027C44.0303 53.7431 42.8649 52.546 42.8649 52.546C42.8649 52.546 47.9295 54.0222 53.9071 53.5981H53.9125Z" fill="#D86B7C"/>
<path d="M46.7908 50.227C47.0056 50.3881 46.0926 50.5115 45.3837 50.2968C44.7499 50.1036 44.4169 49.7278 44.4707 49.6526C44.5244 49.5775 45.9476 49.5882 46.7908 50.227V50.227Z" fill="white"/>
<path d="M47.3279 50.3612C47.5803 50.2485 47.8972 50.3612 47.9187 50.5008C47.9401 50.6404 47.634 50.8443 47.4836 50.796C47.3279 50.7477 47.1883 50.4256 47.3279 50.3612Z" fill="white"/>
<g style="mix-blend-mode:multiply" opacity="0.6">
<path d="M55.1746 52.4601C55.1746 52.4601 52.0488 48.928 48.3753 48.5361C44.7017 48.1443 43.1442 50.372 43.1442 50.372C43.1442 50.372 43.4073 47.6504 48.1658 47.5913C52.9243 47.5323 55.1692 52.4601 55.1692 52.4601H55.1746Z" fill="#CC78B1"/>
</g>
<path d="M55.1746 52.46C55.1746 52.46 52.5536 47.6664 47.634 47.7254C43.2408 47.7791 42.6822 51.746 42.6822 51.746C42.6822 51.746 41.925 48.3803 44.852 47.3228C47.6394 46.3136 52.6825 47.4355 55.1746 52.46V52.46Z" fill="#401432"/>
<path d="M70.1374 57.2432C70.1374 57.2432 70.0783 57.6029 68.784 57.8498C67.4896 58.1021 66.4531 59.428 64.2457 59.7769C62.0383 60.1205 60.7547 59.1596 59.4442 59.3099C58.1338 59.4656 57.8599 59.1596 57.8599 59.1596C57.5323 58.3383 57.5269 57.4955 57.6558 56.7494C57.6558 56.7494 57.6558 56.7279 57.6558 56.7225C57.8921 55.4127 58.5259 54.4196 58.5259 54.4196C61.3885 52.4389 64.7129 51.9182 68.0482 52.9327C68.0482 52.9327 68.6336 53.4158 69.1814 54.2103V54.221C69.7131 54.9887 70.2126 56.0461 70.1266 57.2432H70.1374Z" fill="url(#paint20_linear_105_7)"/>
<path d="M67.3071 58.51C67.3071 58.51 68.1718 57.4955 69.4715 57.6726L67.3071 58.51Z" fill="#812852"/>
<path d="M58.7676 59.3533C58.7676 59.3533 59.9706 58.7776 61.3939 59.5847L58.7676 59.3533Z" fill="#812852"/>
<g style="mix-blend-mode:multiply" opacity="0.6">
<path d="M70.1374 57.2431C70.1374 57.2431 70.0783 57.6028 68.784 57.8497C67.4896 58.102 66.4531 59.4279 64.2457 59.7768C62.0383 60.1204 60.7547 59.1595 59.4442 59.3098C58.1338 59.4655 57.8599 59.1595 57.8599 59.1595C57.5323 58.3382 57.5269 57.4954 57.6558 56.7493C57.6397 56.964 57.5752 58.3489 58.1445 58.5959C58.7622 58.8589 61.9309 58.1557 63.9396 57.839C65.9482 57.5223 69.364 56.9962 69.6648 56.4057C69.9548 55.8367 69.2512 54.3551 69.1814 54.2209C69.7131 54.9886 70.2126 56.0461 70.1266 57.2431H70.1374Z" fill="#CC78B1"/>
</g>
<path style="mix-blend-mode:multiply" opacity="0.6" d="M68.0482 52.9274C68.0482 52.9274 67.6776 55.2518 68.0052 56.7924C68.0052 56.7924 67.2372 55.3645 67.5594 52.7932L68.0482 52.9274V52.9274Z" fill="url(#paint21_linear_105_7)"/>
<path style="mix-blend-mode:multiply" opacity="0.6" d="M58.6386 54.4034C58.6386 54.4034 59.702 56.5077 59.8578 58.0697C59.8578 58.0697 60.1532 56.4701 59.0629 54.1243L58.6386 54.4034V54.4034Z" fill="url(#paint22_linear_105_7)"/>
<g style="mix-blend-mode:multiply" opacity="0.6">
<path d="M58.1446 58.596C58.1446 58.596 57.8922 58.9825 57.8546 59.165C57.817 59.3475 61.1683 61.645 64.4498 61.1297C67.7313 60.6144 70.1213 57.5868 70.1321 57.2433C70.1374 56.8997 69.5359 56.5562 69.5359 56.5562C69.5359 56.5562 67.0332 57.356 63.9396 57.8391C60.8407 58.3222 58.1446 58.596 58.1446 58.596V58.596Z" fill="#CC78B1"/>
</g>
<path d="M66.4423 56.6742C65.9375 56.4809 66.6357 55.5845 66.8612 55.5845C67.0868 55.5845 67.2855 56.0569 67.2157 56.395C67.1459 56.7332 66.6571 56.7547 66.4423 56.6742Z" fill="#FBCBBB"/>
<g style="mix-blend-mode:multiply">
<path d="M67.6669 43.2809C67.6669 43.2809 68.537 39.8937 70.2341 37.5049L69.8582 39.0455C69.8582 39.0455 70.3577 38.3638 71.174 37.7357C71.9957 37.1077 78.6393 35.347 80.0357 35.3792L79.7242 34.8156C79.7242 34.8156 82.3988 36.4528 84.6223 40.3553C84.6223 40.3553 82.5815 38.6751 81.4106 38.6644C80.2398 38.6537 70.0891 41.8369 67.7797 44.027L67.6616 43.2863L67.6669 43.2809Z" fill="#010101"/>
<path d="M55.1101 45.2456C55.1101 45.2456 53.2464 42.2878 50.8994 40.5271L51.7265 41.8798C51.7265 41.8798 51.0444 41.3806 50.0723 41.0317C49.1002 40.6828 42.231 41.0317 40.9152 41.4933L41.0387 40.8653C41.0387 40.8653 38.9925 43.2433 38.0687 47.6397C38.0687 47.6397 39.4973 45.4173 40.6091 45.047C41.7208 44.6766 52.3549 44.6121 55.2282 45.9917L55.1101 45.2509V45.2456Z" fill="#010101"/>
</g>
<path style="mix-blend-mode:multiply" opacity="0.6" d="M57.8975 48.9603C57.8975 48.9603 59.9974 59.0575 57.9243 62.1172C55.8512 65.1823 45.7596 65.9929 40.3943 63.5505C35.0289 61.108 37.4028 47.6129 37.4028 47.6129C37.4028 47.6129 39.7605 43.3775 47.3655 42.889C54.9704 42.4006 57.8975 48.9549 57.8975 48.9549V48.9603Z" fill="url(#paint23_linear_105_7)"/>
<path style="mix-blend-mode:multiply" opacity="0.6" d="M66.1362 47.7685C66.1362 47.7685 67.2856 56.819 69.9387 58.9071C72.5972 60.9899 81.5932 58.8857 85.5783 55.2676C89.5634 51.6496 83.7307 40.5808 83.7307 40.5808C83.7307 40.5808 80.4976 37.5586 73.7519 39.2549C67.0063 40.9512 66.1309 47.7739 66.1309 47.7739L66.1362 47.7685Z" fill="url(#paint24_linear_105_7)"/>
<path d="M56.9899 50.8229C57.1886 50.5868 58.5957 48.9871 61.5711 48.3322C64.8204 47.6182 67.1781 48.6328 67.4359 48.7455" stroke="url(#paint25_linear_105_7)" stroke-miterlimit="10"/>
<path d="M37.0215 53.3298L32.1718 50.1359" stroke="url(#paint26_linear_105_7)" stroke-miterlimit="10"/>
<g style="mix-blend-mode:multiply" opacity="0.4">
<path d="M59.7611 69.1063C61.3884 70.1746 63.1876 71.436 65.2876 71.275C67.3875 71.114 69.3264 68.8165 70.5724 67.2275C67.7742 70.4591 63.5045 71.1032 59.7611 69.1117V69.1063Z" fill="#CC78B1"/>
</g>
<path d="M55.1853 64.479C57.3228 67.9252 61.1414 70.9581 65.3843 70.2818C69.7722 69.5786 72.4092 65.7351 73.29 61.6608C70.3737 62.9276 67.6186 64.5219 64.8634 66.1001C61.6731 65.4291 58.4239 64.7742 55.1799 64.479H55.1853Z" fill="#F26665"/>
<path d="M73.8218 60.9308C73.4995 61.8004 73.0269 62.6163 72.4469 63.3518C70.6316 65.6546 67.7421 67.2382 65.0191 67.673C62.6936 68.0434 60.1103 67.7535 57.919 66.7443C56.5441 66.1109 55.325 65.193 54.4119 63.9744C57.1456 64.624 60.8138 64.5381 63.6818 64.1355C63.9289 64.0979 64.1759 64.0603 64.4122 64.0228C65.2554 63.8993 66.147 63.7275 67.0546 63.5074C69.4231 62.9384 71.8937 62.0527 73.8271 60.9362L73.8218 60.9308Z" fill="#731C55"/>
<g style="mix-blend-mode:multiply" opacity="0.4">
<path d="M54.4119 63.9691C57.1456 64.6186 60.8138 64.5328 63.6818 64.1302C60.3412 64.8656 57.4356 65.8694 57.919 66.739C56.5441 66.1056 55.325 65.1877 54.4119 63.9691Z" fill="#CC78B1"/>
</g>
<g style="mix-blend-mode:multiply" opacity="0.6">
<path d="M73.8218 60.9308C73.4996 61.8004 73.0269 62.6163 72.4469 63.3518C72.318 62.9277 69.8904 63.0672 67.0547 63.5021C69.4232 62.933 71.8937 62.0473 73.8272 60.9308H73.8218Z" fill="#CC78B1"/>
</g>
<path d="M60.1694 67.5389C61.3295 66.9055 63.3972 66.3687 64.7614 66.4224C66.3618 65.8588 69.3748 66.0842 69.3748 66.0842C67.9301 66.9055 66.4585 67.5336 64.7667 67.7429C63.322 67.9201 61.6463 67.7644 60.1747 67.5389H60.1694Z" fill="#BE2741"/>
<path d="M55.0779 64.0926C58.0802 64.6348 61.3724 64.5811 64.4069 64.0121C67.4467 63.6256 70.5134 62.6969 73.2525 61.2368C69.9549 61.5374 63.3865 62.246 55.0779 64.0926Z" fill="#D74058"/>
<path d="M56.8609 64.3555C59.1381 65.5902 61.904 66.1216 64.4766 65.7136C67.0492 65.3057 69.5412 63.9905 71.378 62.1493C69.1599 63.1263 66.8075 63.6362 64.3907 64.0174C61.9738 64.3985 59.3314 64.5917 56.8609 64.3555V64.3555Z" fill="#FBDBE9"/>
<path d="M72.7476 60.4693C73.5371 60.8558 74.2567 61.3174 74.7455 62.0421C74.5897 61.4516 74.2943 60.5391 73.8217 60.2063C73.3437 59.8735 73.0698 60.217 72.7476 60.4693Z" fill="#D86B7C"/>
<path d="M55.443 63.1694C54.8093 63.776 54.2669 64.4362 54.0198 65.2736C53.9876 64.6671 53.9876 63.7169 54.3367 63.2553C54.6858 62.7936 55.0563 63.0298 55.443 63.1694Z" fill="#D86B7C"/>
<g style="mix-blend-mode:soft-light">
<path d="M67.9891 67.2382C68.4188 67.4529 68.7357 67.7911 69.0096 68.183C69.1492 68.081 69.2942 67.9844 69.4339 67.8824C69.3855 67.4637 68.9075 67.147 68.6121 66.9215C68.4027 67.0289 68.1986 67.1362 67.9891 67.2382Z" fill="#FBDBE9"/>
</g>
<g style="mix-blend-mode:soft-light">
<path d="M68.8645 66.884C69.2566 67.0397 69.4768 67.3457 69.6218 67.7322C69.6594 67.6785 69.697 67.6194 69.7346 67.5658C69.5734 67.1954 69.321 66.9592 68.9236 66.8787C68.9021 66.8787 68.886 66.884 68.8645 66.8894V66.884Z" fill="#FBDBE9"/>
</g>
<path d="M60.1639 67.5336C63.2253 67.9738 66.539 67.1847 69.364 66.0789C66.829 67.9845 63.134 68.1348 60.1639 67.5336Z" fill="#FBDBE9"/>
<g style="mix-blend-mode:soft-light" opacity="0.5">
<path d="M63.1716 67.045C64.4283 67.308 67.2856 65.9768 64.7613 66.4277C63.6979 66.6155 61.512 66.7014 63.1716 67.045Z" fill="#F7A9B0"/>
</g>
<g style="mix-blend-mode:multiply">
<path d="M28.8152 19.8726C28.8152 19.8726 27.3983 5.88656 17.9743 6.82755C8.55026 7.76854 8.96568 25.662 8.96568 25.662L10.4745 24.2992C10.4745 24.2992 8.61202 14.6826 13.695 12.8203C18.7789 10.9636 23.4722 13.7215 23.4722 13.7215C23.4722 13.7215 9.58601 10.1107 5.75481 18.4498C1.91797 26.7897 7.72343 41.2573 16.7944 38.3992C25.8645 35.5355 28.8208 19.8717 28.8208 19.8717L28.8152 19.8726Z" fill="#010101"/>
</g>
<path style="mix-blend-mode:multiply" d="M4.78688 27.3615C4.78688 27.3615 14.3706 13.9102 26.7074 20.9819L27.5953 20.4933C27.5953 20.4933 15.8105 12.3622 4.56142 23.9895L4.78775 27.3671L4.78688 27.3615Z" fill="url(#paint27_linear_105_7)"/>
<path d="M5.4047 19.2818C5.4047 19.2818 17.1816 10.2942 27.6669 17.3286L26.5199 15.4996C26.5199 15.4996 21.3614 10.2085 5.74954 18.4505L5.4047 19.2818Z" fill="#010101"/>
<path style="mix-blend-mode:multiply" d="M10.4954 37.5324C10.4954 37.5324 8.27439 21.8087 25.268 21.8558L24.7242 22.2567C24.7242 22.2567 8.90605 23.1754 11.8568 38.2447L10.501 37.5315L10.4954 37.5324Z" fill="url(#paint28_linear_105_7)"/>
<path d="M30.0744 18.9123C30.0744 18.9123 22.0704 23.5658 20.0862 36.5546C20.0862 36.5546 14.1163 24.1647 30.0744 18.9123Z" fill="#F78E1E"/>
</g>
<defs>
<filter id="filter0_d_105_7" x="0.553772" y="0.84082" width="100.446" height="88.4132" filterUnits="userSpaceOnUse" color-interpolation-filters="sRGB">
<feFlood flood-opacity="0" result="BackgroundImageFix"/>
<feColorMatrix in="SourceAlpha" type="matrix" values="0 0 0 0 0 0 0 0 0 0 0 0 0 0 0 0 0 0 127 0" result="hardAlpha"/>
<feOffset dy="4"/>
<feGaussianBlur stdDeviation="2"/>
<feComposite in2="hardAlpha" operator="out"/>
<feColorMatrix type="matrix" values="0 0 0 0 0 0 0 0 0 0 0 0 0 0 0 0 0 0 0.25 0"/>
<feBlend mode="normal" in2="BackgroundImageFix" result="effect1_dropShadow_105_7"/>
<feBlend mode="normal" in="SourceGraphic" in2="effect1_dropShadow_105_7" result="shape"/>
</filter>
<linearGradient id="paint0_linear_105_7" x1="60.7172" y1="79.4794" x2="55.5972" y2="46.7294" gradientUnits="userSpaceOnUse">
<stop stop-color="#31111B"/>
<stop offset="1" stop-color="#1A0F21"/>
</linearGradient>
<linearGradient id="paint1_linear_105_7" x1="90.4705" y1="61.438" x2="87.6605" y2="43.4639" gradientUnits="userSpaceOnUse">
<stop stop-color="#F7A393"/>
<stop offset="0.43" stop-color="#F5A794"/>
<stop offset="0.51" stop-color="#F5A18E"/>
<stop offset="0.76" stop-color="#F59584"/>
<stop offset="1" stop-color="#F69181"/>
</linearGradient>
<linearGradient id="paint2_linear_105_7" x1="89.7426" y1="56.7596" x2="87.8082" y2="44.3862" gradientUnits="userSpaceOnUse">
<stop stop-color="#F7A393"/>
<stop offset="0.43" stop-color="#F5A794"/>
<stop offset="0.51" stop-color="#F5A18E"/>
<stop offset="0.76" stop-color="#F59584"/>
<stop offset="1" stop-color="#F69181"/>
</linearGradient>
<linearGradient id="paint3_linear_105_7" x1="87.5073" y1="52.4528" x2="86.6674" y2="47.0802" gradientUnits="userSpaceOnUse">
<stop stop-color="#F7A393"/>
<stop offset="0.43" stop-color="#F5A794"/>
<stop offset="0.51" stop-color="#F5A18E"/>
<stop offset="0.76" stop-color="#F59584"/>
<stop offset="1" stop-color="#F69181"/>
</linearGradient>
<linearGradient id="paint4_linear_105_7" x1="83.4103" y1="53.5519" x2="89.2894" y2="52.6318" gradientUnits="userSpaceOnUse">
<stop stop-color="#F7A393"/>
<stop offset="0.43" stop-color="#F5A794"/>
<stop offset="0.51" stop-color="#F5A18E"/>
<stop offset="0.76" stop-color="#F59584"/>
<stop offset="1" stop-color="#F69181"/>
</linearGradient>
<linearGradient id="paint5_linear_105_7" x1="29.4385" y1="51.2754" x2="83.4067" y2="42.8295" gradientUnits="userSpaceOnUse">
<stop stop-color="#F7A393"/>
<stop offset="0.43" stop-color="#F5A794"/>
<stop offset="0.51" stop-color="#F5A18E"/>
<stop offset="0.76" stop-color="#F59584"/>
<stop offset="1" stop-color="#F69181"/>
</linearGradient>
<linearGradient id="paint6_linear_105_7" x1="33.1606" y1="75.0775" x2="29.5504" y2="51.9854" gradientUnits="userSpaceOnUse">
<stop stop-color="#F7A393"/>
<stop offset="0.43" stop-color="#F5A794"/>
<stop offset="0.51" stop-color="#F5A18E"/>
<stop offset="0.76" stop-color="#F59584"/>
<stop offset="1" stop-color="#F69181"/>
</linearGradient>
<linearGradient id="paint7_linear_105_7" x1="32.215" y1="69.0695" x2="29.73" y2="53.1745" gradientUnits="userSpaceOnUse">
<stop stop-color="#F7A393"/>
<stop offset="0.43" stop-color="#F5A794"/>
<stop offset="0.51" stop-color="#F5A18E"/>
<stop offset="0.76" stop-color="#F59584"/>
<stop offset="1" stop-color="#F69181"/>
</linearGradient>
<linearGradient id="paint8_linear_105_7" x1="33.8481" y1="62.832" x2="32.7686" y2="55.9266" gradientUnits="userSpaceOnUse">
<stop stop-color="#F7A393"/>
<stop offset="0.43" stop-color="#F5A794"/>
<stop offset="0.51" stop-color="#F5A18E"/>
<stop offset="0.76" stop-color="#F59584"/>
<stop offset="1" stop-color="#F69181"/>
</linearGradient>
<linearGradient id="paint9_linear_105_7" x1="26.9217" y1="64.3717" x2="36.7114" y2="62.8396" gradientUnits="userSpaceOnUse">
<stop stop-color="#F7A393"/>
<stop offset="0.43" stop-color="#F5A794"/>
<stop offset="0.51" stop-color="#F5A18E"/>
<stop offset="0.76" stop-color="#F59584"/>
<stop offset="1" stop-color="#F69181"/>
</linearGradient>
<linearGradient id="paint10_linear_105_7" x1="75.6029" y1="50.2546" x2="74.5908" y2="42.9758" gradientUnits="userSpaceOnUse">
<stop stop-color="#E8DCED"/>
<stop offset="1" stop-color="#BBC3E3"/>
</linearGradient>
<linearGradient id="paint11_linear_105_7" x1="75.3799" y1="49.9216" x2="73.9011" y2="43.4094" gradientUnits="userSpaceOnUse">
<stop stop-color="#48204B"/>
<stop offset="1" stop-color="#301138"/>
</linearGradient>
<linearGradient id="paint12_linear_105_7" x1="75.3371" y1="49.7332" x2="73.9451" y2="43.6032" gradientUnits="userSpaceOnUse">
<stop stop-color="#57345B"/>
<stop offset="1" stop-color="#301138"/>
</linearGradient>
<linearGradient id="paint13_linear_105_7" x1="75.0923" y1="48.6554" x2="74.1889" y2="44.677" gradientUnits="userSpaceOnUse">
<stop stop-color="#A295B8"/>
<stop offset="0.99" stop-color="#734B61"/>
</linearGradient>
<linearGradient id="paint14_linear_105_7" x1="68.5997" y1="45.8966" x2="80.4353" y2="43.2063" gradientUnits="userSpaceOnUse">
<stop stop-color="#F7A393"/>
<stop offset="0.43" stop-color="#F5A794"/>
<stop offset="0.51" stop-color="#F5A18E"/>
<stop offset="0.76" stop-color="#F59584"/>
<stop offset="1" stop-color="#F69181"/>
</linearGradient>
<linearGradient id="paint15_linear_105_7" x1="49.331" y1="54.3761" x2="48.0719" y2="47.1359" gradientUnits="userSpaceOnUse">
<stop stop-color="#E8DCED"/>
<stop offset="1" stop-color="#BBC3E3"/>
</linearGradient>
<linearGradient id="paint16_linear_105_7" x1="49.4531" y1="54.0032" x2="48.8725" y2="47.3506" gradientUnits="userSpaceOnUse">
<stop stop-color="#48204B"/>
<stop offset="1" stop-color="#301138"/>
</linearGradient>
<linearGradient id="paint17_linear_105_7" x1="49.4107" y1="53.7897" x2="48.8653" y2="47.5275" gradientUnits="userSpaceOnUse">
<stop stop-color="#57345B"/>
<stop offset="1" stop-color="#301138"/>
</linearGradient>
<linearGradient id="paint18_linear_105_7" x1="49.3317" y1="52.6978" x2="48.977" y2="48.6335" gradientUnits="userSpaceOnUse">
<stop stop-color="#A295B8"/>
<stop offset="0.99" stop-color="#734B61"/>
</linearGradient>
<linearGradient id="paint19_linear_105_7" x1="54.6706" y1="48.0882" x2="42.5735" y2="49.1449" gradientUnits="userSpaceOnUse">
<stop stop-color="#F7A393"/>
<stop offset="0.43" stop-color="#F5A794"/>
<stop offset="0.51" stop-color="#F5A18E"/>
<stop offset="0.76" stop-color="#F59584"/>
<stop offset="1" stop-color="#F69181"/>
</linearGradient>
<linearGradient id="paint20_linear_105_7" x1="64.2401" y1="59.7873" x2="63.1108" y2="52.5637" gradientUnits="userSpaceOnUse">
<stop stop-color="#F37A7F"/>
<stop offset="0.47" stop-color="#F4837F"/>
<stop offset="1" stop-color="#F58880"/>
</linearGradient>
<linearGradient id="paint21_linear_105_7" x1="68.2261" y1="56.7735" x2="67.6042" y2="52.7958" gradientUnits="userSpaceOnUse">
<stop stop-color="#FCE4D6"/>
<stop offset="0.99" stop-color="#AE7DB7"/>
</linearGradient>
<linearGradient id="paint22_linear_105_7" x1="59.6363" y1="58.1207" x2="59.0144" y2="54.143" gradientUnits="userSpaceOnUse">
<stop stop-color="#FCE4D6"/>
<stop offset="0.99" stop-color="#AE7DB7"/>
</linearGradient>
<linearGradient id="paint23_linear_105_7" x1="49.375" y1="65.1407" x2="45.9216" y2="43.0511" gradientUnits="userSpaceOnUse">
<stop stop-color="#FCE4D6"/>
<stop offset="0.99" stop-color="#AE7DB7"/>
</linearGradient>
<linearGradient id="paint24_linear_105_7" x1="78.1446" y1="59.3454" x2="74.9913" y2="39.1756" gradientUnits="userSpaceOnUse">
<stop stop-color="#FCE4D6"/>
<stop offset="0.99" stop-color="#AE7DB7"/>
</linearGradient>
<linearGradient id="paint25_linear_105_7" x1="62.259" y1="50.2192" x2="61.9116" y2="47.9969" gradientUnits="userSpaceOnUse">
<stop stop-color="#FCE4D6"/>
<stop offset="0.99" stop-color="#AE7DB7"/>
</linearGradient>
<linearGradient id="paint26_linear_105_7" x1="34.9215" y1="53.8682" x2="34.2574" y2="49.62" gradientUnits="userSpaceOnUse">
<stop stop-color="#FCE4D6"/>
<stop offset="0.99" stop-color="#AE7DB7"/>
</linearGradient>
<linearGradient id="paint27_linear_105_7" x1="4.20122" y1="23.5609" x2="27.5088" y2="19.9692" gradientUnits="userSpaceOnUse">
<stop stop-color="#827FBC"/>
<stop offset="1" stop-color="white"/>
</linearGradient>
<linearGradient id="paint28_linear_105_7" x1="9.53401" y1="31.2933" x2="26.3236" y2="28.7062" gradientUnits="userSpaceOnUse">
<stop stop-color="#827FBC"/>
<stop offset="1" stop-color="white"/>
</linearGradient>
</defs>
</svg>
