<svg width="76" height="83" viewBox="0 0 76 83" fill="none" xmlns="http://www.w3.org/2000/svg">
<g filter="url(#filter0_d_105_3)">
<path d="M59.6684 42.9005C59.6684 42.9005 60.6005 39.9086 65.2554 38.0475C69.9102 36.1864 71.6683 38.9781 71.981 42.0759C72.2937 45.1738 68.6713 53.0186 65.1551 54.3614C61.6389 55.7042 59.6743 53.2248 59.6743 53.2248V42.9005H59.6684Z" fill="url(#paint0_linear_105_3)"/>
<path style="mix-blend-mode:multiply" opacity="0.6" d="M59.6686 48.2599V51.4049C59.6686 51.4049 61.114 47.8005 61.993 47.8535C62.8721 47.9065 62.5122 50.28 62.819 51.1045C63.1317 51.9291 64.3706 51.0515 64.6479 48.3659C64.9252 45.6803 63.0786 45.7098 63.0786 45.7098C63.0786 45.7098 65.1316 40.9157 67.6626 42.3056C70.1995 43.7014 68.7304 50.0857 68.7304 50.0857C68.7304 50.0857 72.2171 44.0254 71.4856 41.7932C70.754 39.5611 68.5888 39.4021 65.0726 41.5164C63.3499 42.553 61.6685 44.8793 60.4001 46.976C60.1346 47.4177 59.8868 47.8476 59.6627 48.254L59.6686 48.2599Z" fill="url(#paint1_linear_105_3)"/>
<path style="mix-blend-mode:multiply" opacity="0.6" d="M59.6686 47.9713V50.1151C60.1995 49.0962 61.5683 46.6521 62.2054 47.2823C62.996 48.0714 62.5771 49.5261 63.2379 50.5391C63.8986 51.5462 64.8485 48.8312 64.2998 47.0231C63.7511 45.215 61.5801 45.9336 60.9311 46.4459C60.7777 46.5696 60.6007 46.7522 60.4119 46.976C60.176 47.2587 59.9223 47.6062 59.6745 47.9654L59.6686 47.9713Z" fill="url(#paint2_linear_105_3)"/>
<path d="M60.1051 38.3184C60.1051 30.5266 61.2142 12.4812 36.9371 12.4812C12.66 12.4812 13.7692 30.5266 13.7692 38.3184C13.7692 46.1102 14.3709 58.2073 16.6423 62.1532C22.0995 71.6118 34.5655 74.904 39.12 74.904C43.6745 74.904 56.6066 71.6118 62.0638 62.1532C64.3411 58.2132 60.1051 46.4577 60.1051 38.3184V38.3184Z" fill="url(#paint3_linear_105_3)"/>
<path d="M47.9694 56.5052C47.6214 56.6937 46.3411 56.2814 45.0963 56.8291C43.8515 57.3827 43.3087 57.5005 42.3766 57.5005C41.4444 57.5005 40.9016 57.3769 39.6568 56.8291C38.412 56.2814 37.1318 56.6937 36.7837 56.5052C36.471 56.3344 35.8397 55.2272 37.3146 53.2895C37.4739 53.0775 37.6568 52.8596 37.8692 52.6299C40.0462 50.2918 42.3707 50.598 42.3707 50.598C42.3707 50.598 44.701 50.2859 46.8721 52.6299C47.0845 52.8596 47.2674 53.0775 47.4267 53.2895C48.9016 55.2213 48.2703 56.3344 47.9576 56.5052H47.9694Z" fill="url(#paint4_linear_105_3)"/>
<g style="mix-blend-mode:multiply" opacity="0.6">
<path d="M47.9694 56.5052C47.6213 56.6937 46.3411 56.2814 45.0962 56.8291C43.8514 57.3827 43.3086 57.5005 42.3765 57.5005C41.4444 57.5005 40.9016 57.3768 39.6568 56.8291C38.4119 56.2814 37.1317 56.6937 36.7836 56.5052C36.4709 56.3344 35.8397 55.2272 37.3146 53.2895C37.3146 53.2895 37.0314 54.7619 37.8279 55.2095C37.8279 55.2095 40.17 55.6571 42.3765 55.6571C44.583 55.6571 46.9251 55.2095 46.9251 55.2095C47.7157 54.7619 47.4384 53.2895 47.4384 53.2895C48.9133 55.2213 48.2821 56.3344 47.9694 56.5052Z" fill="#CE78B1"/>
</g>
<path style="mix-blend-mode:multiply" opacity="0.6" d="M38.0757 52.4179C38.707 52.3767 38.7837 54.0434 38.7837 54.0434C38.7837 54.0434 39.0846 52.4945 38.5359 51.9997L38.0757 52.4238V52.4179Z" fill="url(#paint5_linear_105_3)"/>
<path style="mix-blend-mode:multiply" opacity="0.6" d="M46.5888 52.4179C45.9576 52.3767 45.8809 54.0434 45.8809 54.0434C45.8809 54.0434 45.58 52.4945 46.1287 51.9997L46.5888 52.4238V52.4179Z" fill="url(#paint6_linear_105_3)"/>
<path d="M38.0757 56.5288C38.0757 56.5288 39.0669 56.3285 40.3884 57.1059C40.3884 57.1059 39.2556 56.9587 38.0757 56.5288Z" fill="#4F1C3E"/>
<path d="M46.5889 56.5288C46.5889 56.5288 45.5977 56.3285 44.2762 57.1059C44.2762 57.1059 45.4089 56.9587 46.5889 56.5288Z" fill="#4F1C3E"/>
<g style="mix-blend-mode:multiply" opacity="0.6">
<path d="M36.7895 56.5052C36.7895 56.5052 37.1966 55.8043 38.0639 55.2566C38.0639 55.2566 39.7453 55.663 42.3765 55.663C45.0078 55.663 46.9252 55.2154 46.9252 55.2154C46.9252 55.2154 47.816 55.8043 47.9635 56.5052C47.9635 56.5052 45.7865 59.4028 42.3706 59.4028C38.9547 59.4028 36.7777 56.5052 36.7777 56.5052H36.7895Z" fill="#CE78B1"/>
</g>
<path d="M44.2762 53.3838C43.9695 53.5722 44.2114 54.0787 44.4178 54.0787C44.6243 54.0787 45.0137 54.0787 44.9842 53.7313C44.9606 53.3838 44.6479 53.1482 44.2703 53.3838H44.2762Z" fill="#FCCEC0"/>
<path d="M17.244 43.9194C17.244 43.9194 16.3119 40.9275 11.657 39.0664C7.00222 37.2053 5.24411 39.997 4.93143 43.0948C4.61875 46.1927 8.24114 54.0375 11.7573 55.3803C15.2735 56.7231 17.2381 54.2436 17.2381 54.2436V43.9194H17.244Z" fill="url(#paint7_linear_105_3)"/>
<path style="mix-blend-mode:multiply" opacity="0.6" d="M17.2441 49.2788V52.4238C17.2441 52.4238 15.7986 48.8194 14.9196 48.8724C14.0405 48.9254 14.4004 51.2989 14.0936 52.1234C13.781 52.948 12.542 52.0704 12.2647 49.3848C11.9875 46.6992 13.8341 46.7287 13.8341 46.7287C13.8341 46.7287 11.781 41.9346 9.25001 43.3245C6.71316 44.7203 8.18217 51.1045 8.18217 51.1045C8.18217 51.1045 4.69547 45.0443 5.42703 42.8121C6.15859 40.58 8.32376 40.421 11.84 42.5353C13.5627 43.5719 15.2441 45.8982 16.5125 47.9949C16.778 48.4366 17.0258 48.8665 17.25 49.2729L17.2441 49.2788Z" fill="url(#paint8_linear_105_3)"/>
<path style="mix-blend-mode:multiply" opacity="0.6" d="M17.244 48.9902V51.134C16.7131 50.1151 15.3443 47.671 14.7072 48.3012C13.9166 49.0903 14.3355 50.5451 13.6747 51.558C13.014 52.5651 12.0641 49.8501 12.6128 48.042C13.1615 46.2339 15.3325 46.9525 15.9815 47.4648C16.1349 47.5885 16.3119 47.7711 16.5007 47.9949C16.7366 48.2776 16.9903 48.6251 17.2381 48.9843L17.244 48.9902Z" fill="url(#paint9_linear_105_3)"/>
<path d="M34.0934 48.519C34.0934 48.519 29.2085 50.1092 26.7542 49.7205C24.6952 49.3966 23.3796 46.5166 23.3737 45.1031C23.3737 44.8322 23.4209 44.6143 23.5153 44.4788C24.6244 42.9535 29.6805 40.5859 32.0934 42.2938C33.3029 43.1478 33.8043 44.7144 33.999 46.0572C34.1937 47.3941 34.0934 48.519 34.0934 48.519V48.519Z" fill="url(#paint10_linear_105_3)"/>
<path d="M33.0144 45.4155C33.2946 43.4479 31.9239 41.6262 29.9529 41.3465C27.9819 41.0668 26.157 42.4351 25.8768 44.4027C25.5966 46.3703 26.9673 48.1921 28.9383 48.4718C30.9093 48.7515 32.7343 47.3832 33.0144 45.4155Z" fill="url(#paint11_linear_105_3)"/>
<path d="M32.7359 45.307C32.9597 43.4927 31.6678 41.8408 29.8504 41.6174C28.0329 41.394 26.3782 42.6837 26.1544 44.498C25.9306 46.3123 27.2225 47.9642 29.0399 48.1876C30.8574 48.411 32.5121 47.1213 32.7359 45.307Z" fill="#030303"/>
<path d="M31.4735 45.0572C31.5549 43.9412 30.7145 42.9707 29.5966 42.8896C28.4787 42.8084 27.5066 43.6473 27.4253 44.7632C27.344 45.8792 28.1843 46.8497 29.3022 46.9309C30.4201 47.012 31.3922 46.1732 31.4735 45.0572Z" fill="#030303"/>
<g style="mix-blend-mode:multiply" opacity="0.6">
<path d="M33.999 46.0572C32.1347 44.7733 28.7365 44.1431 23.3737 45.1031C23.3737 44.8322 23.4209 44.6143 23.5153 44.4788C24.6244 42.9535 29.6805 40.5859 32.0934 42.2938C33.3028 43.1478 33.8043 44.7144 33.999 46.0572V46.0572Z" fill="#CE78B1"/>
</g>
<path d="M28.2999 40.2266C25.4799 40.6271 23.6746 44.2786 23.6746 44.2786C23.6746 44.2786 26.6126 41.4222 30.1465 42.4705C33.1671 43.3716 33.8633 45.3152 33.8574 45.3093C33.8574 45.3093 33.9282 39.4257 28.2999 40.2207V40.2266Z" fill="#DD4D6B"/>
<path d="M23.7808 46.817C25.0846 48.2422 26.2174 49.7205 29.002 49.6852C29.002 49.6852 27.4681 50.1328 25.8044 49.4378C24.1407 48.7428 23.7808 46.817 23.7808 46.817V46.817Z" fill="#DC6B7D"/>
<path d="M34.0993 47.0761C34.0993 47.0761 34.825 47.936 34.4415 48.5073C34.058 49.0785 32.4474 48.9961 32.4474 48.9961C32.4474 48.9961 33.6745 48.6545 33.9105 48.2835C34.1465 47.9124 34.0993 47.0761 34.0993 47.0761V47.0761Z" fill="#DC6B7D"/>
<path d="M23.5153 44.4788C23.5153 44.4788 24.2586 42.1878 28.8899 41.7815C32.471 41.4693 33.8456 43.7839 34.0403 44.202C34.235 44.6202 33.8633 45.3151 33.8633 45.3151C33.8633 45.3151 32.0521 42.5824 28.707 42.5942C25.3619 42.6119 23.5212 44.473 23.5212 44.473L23.5153 44.4788Z" fill="#4F1C3E"/>
<path d="M25.3973 45.3328C25.3973 45.3328 25.6215 45.0913 27.2557 45.7686C27.3088 45.7922 27.2439 45.8805 27.1849 45.8746C26.7897 45.8216 25.4032 45.6214 25.3973 45.3328Z" fill="url(#paint12_linear_105_3)"/>
<path d="M27.9342 45.6803C27.6982 45.8805 27.8929 46.0572 28.1524 46.0867C28.3412 46.1102 28.3707 45.8099 28.294 45.7333C28.2173 45.6567 28.0875 45.5507 27.9342 45.6744V45.6803Z" fill="url(#paint13_linear_105_3)"/>
<path d="M47.0196 48.5661C47.0196 48.5661 51.9045 50.1563 54.3588 49.7676C56.4178 49.4437 57.7334 46.5637 57.7393 45.1502C57.7393 44.8793 57.6921 44.6614 57.5977 44.526C56.4886 43.0006 51.4325 40.633 49.0196 42.3409C47.8102 43.1949 47.3087 44.7615 47.114 46.1043C46.9193 47.4413 47.0196 48.5661 47.0196 48.5661Z" fill="url(#paint14_linear_105_3)"/>
<path d="M55.1021 46.0806C55.7215 44.1919 54.69 42.1594 52.798 41.541C50.906 40.9226 48.8701 41.9524 48.2506 43.8411C47.6311 45.7298 48.6627 47.7622 50.5546 48.3807C52.4466 48.9991 54.4826 47.9693 55.1021 46.0806Z" fill="url(#paint15_linear_105_3)"/>
<path d="M53.625 47.6181C55.1023 46.5379 55.4228 44.4668 54.3407 42.992C53.2587 41.5173 51.184 41.1974 49.7067 42.2775C48.2294 43.3577 47.909 45.4288 48.991 46.9036C50.073 48.3783 52.1477 48.6982 53.625 47.6181Z" fill="#030303"/>
<path d="M49.6567 45.2739C49.8337 46.3811 50.8721 47.135 51.9812 46.9583C53.0903 46.7816 53.8455 45.7451 53.6685 44.6378C53.4915 43.5306 52.4532 42.7768 51.344 42.9534C50.2349 43.1301 49.4797 44.1667 49.6567 45.2739Z" fill="#030303"/>
<g style="mix-blend-mode:multiply" opacity="0.6">
<path d="M47.114 46.1043C48.9782 44.8204 52.3765 44.1902 57.7393 45.1502C57.7393 44.8793 57.6921 44.6614 57.5977 44.526C56.4885 43.0006 51.4325 40.633 49.0195 42.3409C47.8101 43.1949 47.3086 44.7615 47.114 46.1043Z" fill="#CE78B1"/>
</g>
<path d="M52.8071 40.2737C55.6271 40.6742 57.4324 44.3257 57.4324 44.3257C57.4324 44.3257 54.4944 41.4693 50.9605 42.5176C47.9399 43.4187 47.2437 45.3622 47.2496 45.3564C47.2496 45.3564 47.1788 39.4728 52.8071 40.2678V40.2737Z" fill="#DD4D6B"/>
<path d="M57.3322 46.8641C56.0283 48.2893 54.8956 49.7676 52.111 49.7322C52.111 49.7322 53.6449 50.1798 55.3086 49.4849C56.9723 48.7899 57.3322 46.8641 57.3322 46.8641Z" fill="#DC6B7D"/>
<path d="M47.0137 47.1232C47.0137 47.1232 46.288 47.9831 46.6715 48.5543C47.0609 49.1256 48.6656 49.0432 48.6656 49.0432C48.6656 49.0432 47.4385 48.7016 47.2025 48.3305C46.9665 47.9595 47.0137 47.1232 47.0137 47.1232V47.1232Z" fill="#DC6B7D"/>
<path d="M57.5977 44.526C57.5977 44.526 56.8543 42.2349 52.2231 41.8286C48.642 41.5164 47.2673 43.8251 47.0727 44.2492C46.878 44.6673 47.2496 45.3623 47.2496 45.3623C47.2496 45.3623 49.0608 42.6295 52.4059 42.6413C55.7511 42.659 57.5918 44.5201 57.5918 44.5201L57.5977 44.526Z" fill="#4F1C3E"/>
<path d="M55.7157 45.3858C55.7157 45.3858 55.4915 45.1443 53.8573 45.8216C53.8042 45.8452 53.8691 45.9335 53.9281 45.9276C54.3234 45.8746 55.7098 45.6744 55.7157 45.3858Z" fill="url(#paint16_linear_105_3)"/>
<path d="M53.1789 45.7274C53.4149 45.9276 53.2202 46.1043 52.9606 46.1338C52.7718 46.1573 52.7423 45.857 52.819 45.7804C52.8957 45.7038 53.0255 45.5978 53.1789 45.7215V45.7274Z" fill="url(#paint17_linear_105_3)"/>
<g style="mix-blend-mode:multiply" opacity="0.6">
<path d="M36.477 65.8459C36.477 65.8459 39.1141 69.9745 44.0935 69.2265C48.1288 68.6199 49.8279 63.8435 49.8279 63.8435C49.8279 63.8435 44.1819 67.1239 36.4829 65.8459H36.477Z" fill="#CE78B1"/>
</g>
<path d="M33.8988 61.9706C33.8988 61.9706 38.3885 62.3005 42.707 61.6526C47.0256 61.0048 51.0491 59.3969 51.0491 59.3969C51.0491 59.3969 47.2144 66.6999 43.1672 67.3065C39.12 67.9131 33.8988 61.9648 33.8988 61.9648V61.9706Z" fill="#842852"/>
<path d="M42.5123 60.9694C41.3914 61.1402 33.8988 61.9706 33.8988 61.9706C36.1938 62.8894 39.9578 63.072 42.766 62.6479C45.5743 62.2239 49.1259 60.9518 51.0433 59.3969C51.0433 59.3969 43.6333 60.7986 42.5123 60.9635V60.9694Z" fill="#DE4E6C"/>
<path d="M33.8988 61.9707C33.8988 61.9707 38.2469 66.005 43.1613 65.2688C48.0757 64.5326 51.0433 59.4028 51.0433 59.4028C51.0433 59.4028 51.4798 66.3407 43.5861 67.5186C35.6923 68.7023 33.8988 61.9707 33.8988 61.9707V61.9707Z" fill="#EF7172"/>
<path d="M35.5743 62.4654C35.5743 62.4654 35.9401 62.9306 36.6244 63.5726C36.6244 63.5726 39.5035 64.9448 43.3619 64.3677C46.3235 63.926 49.1848 61.5702 49.1848 61.5702L49.5919 60.3687C49.5919 60.3687 43.3088 64.0084 35.5743 62.4712V62.4654Z" fill="#FCDFEB"/>
<path d="M34.2646 62.1061C34.2646 62.1061 33.4327 61.8705 33.1437 61.2757C33.1437 61.2757 33.2263 61.0696 33.3442 60.7692C33.3442 60.7692 32.6009 60.8516 32.654 61.7351C32.654 61.7351 33.6982 62.1532 34.2941 62.3064L34.2646 62.1061V62.1061Z" fill="#842852"/>
<path d="M50.6715 59.6502C50.6715 59.6502 51.3972 59.179 51.4975 58.5253C51.4975 58.5253 51.3618 58.3486 51.1553 58.1013C51.1553 58.1013 51.8869 57.9658 52.0993 58.8257C52.0993 58.8257 51.2202 59.5324 50.701 59.8504L50.6715 59.6502V59.6502Z" fill="#842852"/>
<path d="M46.3589 64.8918C46.3589 64.8918 45.9047 65.8577 46.8486 66.5173C46.8486 66.5173 48.4238 65.7576 49.5389 64.2558C49.5389 64.2558 49.4327 63.4666 48.9253 63.3017C48.9253 63.3017 47.9282 63.708 46.353 64.8918H46.3589Z" fill="#F5A79C"/>
<g style="mix-blend-mode:multiply">
<path d="M36.1936 36.7165C36.1936 36.7165 34.8072 36.3337 31.6332 36.6635C30.6892 36.7636 29.5919 36.9226 28.3235 37.1759C22.7837 38.2831 18.9843 39.8497 18.9843 39.8497C19.002 39.7496 20.2055 37.1052 22.0285 35.7506C22.0167 35.7801 21.8279 36.2277 21.9223 36.6694C21.9223 36.6694 23.9459 34.6316 26.9783 33.4949C27.5447 33.2829 28.1465 33.1004 28.7718 32.9708C32.7777 32.1463 35.0963 34.8495 35.0963 34.8495C35.0963 34.8495 34.8898 34.0957 34.4001 33.6952C34.4001 33.6952 35.8337 34.3666 36.1995 36.7224L36.1936 36.7165Z" fill="#232323"/>
<g style="mix-blend-mode:multiply" opacity="0.6">
<path d="M31.6274 36.6694C30.6835 36.7695 29.5862 36.9285 28.3177 37.1818C22.778 38.289 18.9786 39.8556 18.9786 39.8556C18.9963 39.7555 20.1998 37.1111 22.0228 35.7565C22.011 35.786 21.8222 36.2336 21.9166 36.6753C21.9166 36.6753 23.9402 34.6375 26.9726 33.5008C25.9402 34.2017 23.7101 35.7742 22.5833 37.8532C22.5833 37.8532 25.4564 36.3808 31.6274 36.6753V36.6694Z" fill="#232323"/>
</g>
</g>
<g style="mix-blend-mode:multiply">
<path d="M45.8456 35.6387C45.8456 35.6387 46.9547 35.3148 49.5152 35.5386C50.2763 35.6034 51.1612 35.7212 52.1818 35.9096C56.6538 36.7283 59.7275 37.9356 59.7275 37.9356C59.7098 37.8532 58.7128 35.7447 57.2261 34.6787C57.232 34.7023 57.3912 35.0557 57.3205 35.4149C57.3205 35.4149 55.6685 33.8012 53.2143 32.9296C52.7541 32.7647 52.2703 32.6292 51.763 32.535C48.53 31.9225 46.7011 34.1251 46.7011 34.1251C46.7011 34.1251 46.8544 33.5126 47.2497 33.1887C47.2497 33.1887 46.1052 33.7482 45.8456 35.6446V35.6387Z" fill="#030303"/>
<g style="mix-blend-mode:multiply" opacity="0.6">
<path d="M49.5152 35.5386C50.2763 35.6034 51.1612 35.7212 52.1819 35.9096C56.6538 36.7283 59.7275 37.9356 59.7275 37.9356C59.7098 37.8532 58.7128 35.7447 57.2261 34.6787C57.232 34.7023 57.3913 35.0557 57.3205 35.4149C57.3205 35.4149 55.6686 33.8012 53.2143 32.9296C54.0521 33.4773 55.8692 34.7141 56.8013 36.3749C56.8013 36.3749 54.4709 35.2265 49.5152 35.5445V35.5386Z" fill="#030303"/>
</g>
</g>
<path d="M16.8251 17.4461C16.8251 17.4461 6.74846 9.66605 5.75142 19.9138C5.43283 23.1942 7.35613 30.8682 16.5714 38.1712L15.9991 33.3536C15.9991 33.3536 4.08771 26.0624 6.78976 19.3013C8.49476 15.0373 15.2263 18.3354 15.2263 18.3354L16.8251 17.452V17.4461Z" fill="url(#paint18_linear_105_3)"/>
<path d="M65.3557 29.7257C64.754 30.7563 64.1935 30.6268 64.1935 30.6268L61.4974 49.6911C61.4974 49.6911 60.8071 38.3773 58.8484 31.6986C58.8484 31.6986 55.8691 24.59 50.5063 22.7878C50.5063 22.7878 41.055 23.901 26.7542 22.9586C26.7542 22.9586 21.7336 25.0141 19.4328 30.0731C19.4328 30.0731 18.7779 43.8663 17.7691 51.6876C17.7691 51.6876 14.3708 47.0231 14.3708 38.8838C14.3708 38.8838 10.0523 36.6458 8.34729 34.1369C8.29419 34.0544 8.247 33.9779 8.1998 33.9013C6.83108 31.4513 6.92547 27.0224 9.9874 21.9398C11.6334 19.207 15.0788 16.0267 15.0788 16.0267C15.0788 16.0267 14.2588 13.7769 15.0847 11.9217C15.2617 11.5095 15.5272 11.1149 15.8989 10.7733C17.946 8.87096 26.884 3.60575 30.589 4.11814C30.589 4.11814 30.9253 3.02269 31.8044 2.26295C32.0108 2.08627 32.2409 1.92725 32.5064 1.80357C33.9105 1.16161 40.8072 -0.381433 43.6155 1.80357L45.2733 4.11225C45.2733 4.11225 45.8809 3.84722 46.7246 3.70588C47.4326 3.58809 48.3057 3.55864 49.114 3.85311C50.8898 4.49507 55.3558 7.6754 56.2526 11.2268C56.2526 11.2268 60.636 12.5931 61.4856 18.677C61.4856 18.677 62.7599 19.0186 63.869 20.1317C64.9782 21.2448 65.9634 28.7009 65.3557 29.7316V29.7257Z" fill="url(#paint19_linear_105_3)"/>
<path style="mix-blend-mode:multiply" opacity="0.6" d="M65.3557 29.7257C64.7539 30.7563 64.1934 30.6268 64.1934 30.6268L61.4973 49.6911C61.4973 49.6911 60.807 38.3773 58.8483 31.6987C58.8483 31.6987 55.869 24.59 50.5062 22.7878C50.5062 22.7878 50.5003 22.7878 50.4944 22.7878C50.0932 22.835 40.7423 23.8774 26.7542 22.9528C26.7542 22.9528 21.7336 25.0082 19.4327 30.0673C19.4327 30.0673 18.7778 43.8605 17.769 51.6817C17.769 51.6817 14.3708 47.0172 14.3708 38.8779C14.3708 38.8779 10.0522 36.6399 8.34723 34.131C8.24104 33.7246 8.18794 33.4184 8.19974 33.2417C8.37673 30.8388 8.42982 29.3546 12.3708 25.9858C14.5301 24.1424 23.7572 22.0988 23.7572 22.0988C19.3501 21.1977 15.0787 18.4178 15.0787 18.4178C22.353 20.1081 24.8958 21.4333 27.4621 21.5864C30.353 21.7572 34.76 21.4156 35.1376 20.8149C36.2054 19.0951 29.7394 11.5625 25.3973 11.5448C21.0551 11.5271 15.0787 16.0149 15.0787 16.0149C15.0787 16.0149 14.2587 13.7651 15.0846 11.9099C16.8604 9.78973 23.5271 8.81796 28.3766 10.361C33.2261 11.9041 35.6981 19.4485 36.2939 20.3849C36.8898 21.3273 40.8898 21.4156 41.4856 20.9857C42.0815 20.5557 41.7393 17.7288 39.6095 12.1573C37.4798 6.59173 30.589 4.10637 30.589 4.10637C30.589 4.10637 30.9252 3.01092 31.8043 2.25118C34.3765 2.02149 36.9783 3.84723 39.9576 8.64717C42.937 13.4412 43.5328 20.9857 43.5328 20.9857C44.9782 20.9857 46.5947 18.0704 46.5947 18.0704C48.8071 11.1325 45.2732 4.10637 45.2732 4.10637C45.2732 4.10637 45.8809 3.84134 46.7245 3.69999C49.8337 9.37747 47.7806 17.128 48.2938 18.0704C48.8071 19.0127 52.636 22.2696 53.6566 21.7572C54.6773 21.2448 56.8897 15.585 56.2525 11.2209C56.2525 11.2209 58.5652 11.9394 60.1522 14.6662C60.7539 15.691 61.2554 17.0044 61.4855 18.6711C61.4855 18.6711 62.7598 19.0127 63.869 20.1258C64.512 20.7736 65.1079 23.5358 65.3793 25.9564C65.5799 27.7174 65.6094 29.2957 65.3557 29.7257V29.7257Z" fill="url(#paint20_linear_105_3)"/>
<path style="mix-blend-mode:multiply" d="M19.3501 24.2425C19.3501 24.2425 11.8222 25.9446 9.303 32.1757C8.80152 33.4184 11.9814 37.3702 11.9814 37.3702L14.3708 38.8779C14.3708 38.8779 16.1171 29.4724 19.3501 24.2425Z" fill="url(#paint21_linear_105_3)"/>
<path style="mix-blend-mode:multiply" d="M65.3557 29.7257C64.7539 30.7563 64.1934 30.6267 64.1934 30.6267L61.4973 49.691C61.4973 49.691 60.807 38.3773 58.8483 31.6986C58.8483 31.6986 55.869 24.59 50.5062 22.7878C58.0224 25.9858 58.2525 23.471 58.2525 23.471C60.4472 19.8725 60.1522 14.6662 60.1522 14.6662C60.7539 15.691 61.2554 17.0043 61.4855 18.6711C61.4855 18.6711 62.7598 19.0127 63.869 20.1258C63.869 20.1258 59.7805 28.7833 60.7008 29.2957C61.6212 29.8081 63.1905 29.6373 65.3557 25.9799C65.3557 25.9799 65.3616 25.9682 65.3793 25.9505C65.5799 27.7114 65.6094 29.2898 65.3557 29.7198V29.7257Z" fill="url(#paint22_linear_105_3)"/>
</g>
<defs>
<filter id="filter0_d_105_3" x="0.912537" y="0.673492" width="75.0874" height="82.2305" filterUnits="userSpaceOnUse" color-interpolation-filters="sRGB">
<feFlood flood-opacity="0" result="BackgroundImageFix"/>
<feColorMatrix in="SourceAlpha" type="matrix" values="0 0 0 0 0 0 0 0 0 0 0 0 0 0 0 0 0 0 127 0" result="hardAlpha"/>
<feOffset dy="4"/>
<feGaussianBlur stdDeviation="2"/>
<feComposite in2="hardAlpha" operator="out"/>
<feColorMatrix type="matrix" values="0 0 0 0 0 0 0 0 0 0 0 0 0 0 0 0 0 0 0.25 0"/>
<feBlend mode="normal" in2="BackgroundImageFix" result="effect1_dropShadow_105_3"/>
<feBlend mode="normal" in="SourceGraphic" in2="effect1_dropShadow_105_3" result="shape"/>
</filter>
<linearGradient id="paint0_linear_105_3" x1="65.8335" y1="54.7619" x2="65.8335" y2="37.4468" gradientUnits="userSpaceOnUse">
<stop stop-color="#F9B19D"/>
<stop offset="0.21" stop-color="#F69B8E"/>
<stop offset="0.47" stop-color="#F48781"/>
<stop offset="0.74" stop-color="#F37B79"/>
<stop offset="1" stop-color="#F37777"/>
</linearGradient>
<linearGradient id="paint1_linear_105_3" x1="65.6331" y1="51.4049" x2="65.6331" y2="40.0264" gradientUnits="userSpaceOnUse">
<stop stop-color="#FEE8D9"/>
<stop offset="0.99" stop-color="#B07DB7"/>
</linearGradient>
<linearGradient id="paint2_linear_105_3" x1="62.0697" y1="50.7629" x2="62.0697" y2="45.8688" gradientUnits="userSpaceOnUse">
<stop stop-color="#FEE8D9"/>
<stop offset="0.99" stop-color="#B07DB7"/>
</linearGradient>
<linearGradient id="paint3_linear_105_3" x1="38.2528" y1="74.8981" x2="38.2528" y2="12.4812" gradientUnits="userSpaceOnUse">
<stop stop-color="#F9B19D"/>
<stop offset="0.21" stop-color="#F69B8E"/>
<stop offset="0.47" stop-color="#F48781"/>
<stop offset="0.74" stop-color="#F37B79"/>
<stop offset="1" stop-color="#F37777"/>
</linearGradient>
<linearGradient id="paint4_linear_105_3" x1="42.3766" y1="57.5005" x2="42.3766" y2="50.5863" gradientUnits="userSpaceOnUse">
<stop stop-color="#F3797E"/>
<stop offset="0.06" stop-color="#F37A7E"/>
<stop offset="0.53" stop-color="#F48680"/>
<stop offset="1" stop-color="#F58B81"/>
</linearGradient>
<linearGradient id="paint5_linear_105_3" x1="38.0757" y1="53.0186" x2="38.8663" y2="53.0186" gradientUnits="userSpaceOnUse">
<stop stop-color="#FEE8D9"/>
<stop offset="0.99" stop-color="#B07DB7"/>
</linearGradient>
<linearGradient id="paint6_linear_105_3" x1="46.5888" y1="53.0186" x2="45.7983" y2="53.0186" gradientUnits="userSpaceOnUse">
<stop stop-color="#FEE8D9"/>
<stop offset="0.99" stop-color="#B07DB7"/>
</linearGradient>
<linearGradient id="paint7_linear_105_3" x1="11.0848" y1="55.7749" x2="11.0848" y2="38.4657" gradientUnits="userSpaceOnUse">
<stop stop-color="#F9B19D"/>
<stop offset="0.21" stop-color="#F69B8E"/>
<stop offset="0.47" stop-color="#F48781"/>
<stop offset="0.74" stop-color="#F37B79"/>
<stop offset="1" stop-color="#F37777"/>
</linearGradient>
<linearGradient id="paint8_linear_105_3" x1="11.2854" y1="52.4238" x2="11.2854" y2="41.0453" gradientUnits="userSpaceOnUse">
<stop stop-color="#FEE8D9"/>
<stop offset="0.99" stop-color="#B07DB7"/>
</linearGradient>
<linearGradient id="paint9_linear_105_3" x1="14.8488" y1="51.7818" x2="14.8488" y2="46.8877" gradientUnits="userSpaceOnUse">
<stop stop-color="#FEE8D9"/>
<stop offset="0.99" stop-color="#B07DB7"/>
</linearGradient>
<linearGradient id="paint10_linear_105_3" x1="28.2057" y1="49.976" x2="29.5327" y2="41.5932" gradientUnits="userSpaceOnUse">
<stop stop-color="#ECE0EF"/>
<stop offset="1" stop-color="#BFC6E5"/>
</linearGradient>
<linearGradient id="paint11_linear_105_3" x1="25.8667" y1="44.3567" x2="32.9865" y2="45.4876" gradientUnits="userSpaceOnUse">
<stop stop-color="#566596"/>
<stop offset="1" stop-color="#331C52"/>
</linearGradient>
<linearGradient id="paint12_linear_105_3" x1="26.2183" y1="45.8928" x2="26.6256" y2="45.2862" gradientUnits="userSpaceOnUse">
<stop stop-color="#ECE0EF"/>
<stop offset="1" stop-color="#BFC6E5"/>
</linearGradient>
<linearGradient id="paint13_linear_105_3" x1="28.0335" y1="46.0966" x2="28.1044" y2="45.6486" gradientUnits="userSpaceOnUse">
<stop stop-color="#ECE0EF"/>
<stop offset="1" stop-color="#BFC6E5"/>
</linearGradient>
<linearGradient id="paint14_linear_105_3" x1="52.6923" y1="49.949" x2="51.3654" y2="41.5662" gradientUnits="userSpaceOnUse">
<stop stop-color="#ECE0EF"/>
<stop offset="1" stop-color="#BFC6E5"/>
</linearGradient>
<linearGradient id="paint15_linear_105_3" x1="55.0657" y1="44.841" x2="47.9515" y2="45.9697" gradientUnits="userSpaceOnUse">
<stop stop-color="#566596"/>
<stop offset="1" stop-color="#331C52"/>
</linearGradient>
<linearGradient id="paint16_linear_105_3" x1="55.0924" y1="45.8301" x2="54.6851" y2="45.2234" gradientUnits="userSpaceOnUse">
<stop stop-color="#ECE0EF"/>
<stop offset="1" stop-color="#BFC6E5"/>
</linearGradient>
<linearGradient id="paint17_linear_105_3" x1="52.8647" y1="46.0696" x2="52.7938" y2="45.6216" gradientUnits="userSpaceOnUse">
<stop stop-color="#ECE0EF"/>
<stop offset="1" stop-color="#BFC6E5"/>
</linearGradient>
<linearGradient id="paint18_linear_105_3" x1="11.2735" y1="35.2382" x2="11.2735" y2="20.4497" gradientUnits="userSpaceOnUse">
<stop stop-color="#92324C"/>
<stop offset="1" stop-color="#9A2743"/>
</linearGradient>
<linearGradient id="paint19_linear_105_3" x1="36.4474" y1="45.3269" x2="36.4474" y2="13.294" gradientUnits="userSpaceOnUse">
<stop stop-color="#92324C"/>
<stop offset="1" stop-color="#9A2743"/>
</linearGradient>
<linearGradient id="paint20_linear_105_3" x1="36.8721" y1="44.6968" x2="36.8721" y2="9.40102" gradientUnits="userSpaceOnUse">
<stop stop-color="#FEE8D9"/>
<stop offset="0.99" stop-color="#827EBC"/>
</linearGradient>
<linearGradient id="paint21_linear_105_3" x1="14.3" y1="36.8107" x2="14.3" y2="26.3628" gradientUnits="userSpaceOnUse">
<stop stop-color="#FEE8D9"/>
<stop offset="0.99" stop-color="#B07DB7"/>
</linearGradient>
<linearGradient id="paint22_linear_105_3" x1="58.0224" y1="44.7439" x2="58.0224" y2="19.743" gradientUnits="userSpaceOnUse">
<stop stop-color="#FEE8D9"/>
<stop offset="0.99" stop-color="#B07DB7"/>
</linearGradient>
</defs>
</svg>
