<svg width="50" height="24" viewBox="0 0 50 24" fill="none" xmlns="http://www.w3.org/2000/svg">
<path d="M6.84 18.228C10.507 18.228 12.312 16.138 12.312 12.984V5.327H10.07V12.927C10.07 14.941 8.949 16.252 6.84 16.252C4.712 16.252 3.591 14.941 3.591 12.927V5.327H1.349V13.003C1.349 16.119 3.154 18.228 6.84 18.228ZM25.8301 18L20.8521 5.327H18.0781L13.1001 18H15.6271L16.5581 15.568H22.3721L23.3031 18H25.8301ZM21.7451 13.611H17.1851L19.4651 7.569L21.7451 13.611Z" fill="#535353"/>
<path d="M38.7103 14.83L42.9503 10.59C43.044 10.497 43.1184 10.3864 43.1692 10.2646C43.22 10.1427 43.2461 10.012 43.2461 9.88C43.2461 9.74799 43.22 9.61728 43.1692 9.49542C43.1184 9.37356 43.044 9.26296 42.9503 9.17C42.7629 8.98375 42.5095 8.87921 42.2453 8.87921C41.9811 8.87921 41.7277 8.98375 41.5403 9.17L38.0003 12.71L34.4603 9.17C34.2729 8.98375 34.0195 8.87921 33.7553 8.87921C33.4911 8.87921 33.2377 8.98375 33.0503 9.17C32.9576 9.26344 32.8843 9.37426 32.8345 9.49609C32.7848 9.61793 32.7595 9.74839 32.7603 9.88C32.7595 10.0116 32.7848 10.1421 32.8345 10.2639C32.8843 10.3857 32.9576 10.4966 33.0503 10.59L37.2903 14.83C37.3833 14.9237 37.4939 14.9981 37.6157 15.0489C37.7376 15.0997 37.8683 15.1258 38.0003 15.1258C38.1323 15.1258 38.263 15.0997 38.3849 15.0489C38.5067 14.9981 38.6173 14.9237 38.7103 14.83Z" fill="#535353"/>
</svg>
