<svg width="24" height="24" viewBox="0 0 24 24" fill="none" xmlns="http://www.w3.org/2000/svg">
<path d="M21.0017 3.47517H15.8789C15.3266 3.47517 14.8789 3.92289 14.8789 4.47517V9.59794C14.8789 10.1502 15.3266 10.5979 15.8789 10.5979H21.0017C21.554 10.5979 22.0017 10.1502 22.0017 9.59794V4.47517C22.0017 3.92289 21.554 3.47517 21.0017 3.47517Z" fill="white"/>
<path d="M11.3646 6.32945L7.74226 2.70711C7.35174 2.31658 6.71857 2.31658 6.32805 2.70711L2.7057 6.32945C2.31518 6.71998 2.31518 7.35314 2.7057 7.74366L6.32805 11.366C6.71857 11.7565 7.35174 11.7565 7.74226 11.366L11.3646 7.74366C11.7551 7.35314 11.7551 6.71998 11.3646 6.32945Z" fill="white"/>
<path d="M9.59933 14.8772H4.47656C3.92428 14.8772 3.47656 15.3249 3.47656 15.8772V21C3.47656 21.5523 3.92428 22 4.47656 22H9.59933C10.1516 22 10.5993 21.5523 10.5993 21V15.8772C10.5993 15.3249 10.1516 14.8772 9.59933 14.8772Z" fill="white"/>
<path d="M21.0017 14.8772H15.8789C15.3266 14.8772 14.8789 15.3249 14.8789 15.8772V21C14.8789 21.5523 15.3266 22 15.8789 22H21.0017C21.554 22 22.0017 21.5523 22.0017 21V15.8772C22.0017 15.3249 21.554 14.8772 21.0017 14.8772Z" fill="white"/>
</svg>
