<svg width="30" height="30" viewBox="0 0 30 30" fill="none" xmlns="http://www.w3.org/2000/svg">
<g clip-path="url(#clip0_23_8133)">
<path d="M15 30C23.2843 30 30 23.2843 30 15C30 6.71573 23.2843 0 15 0C6.71573 0 0 6.71573 0 15C0 23.2843 6.71573 30 15 30Z" fill="#6F3FAA"/>
<path d="M22.9371 10.5424L22.9322 10.5226C22.5314 8.90232 20.7245 7.16373 19.0651 6.80203L19.0464 6.79816C16.3625 6.28617 13.6411 6.28617 10.9577 6.79816L10.9384 6.80203C9.27965 7.16373 7.47268 8.90244 7.07137 10.5226L7.06691 10.5424C6.57145 12.8051 6.57145 15.0999 7.06691 17.3626L7.07137 17.3824C7.45563 18.9335 9.12795 20.5923 10.7254 21.0485V22.8571C10.7254 23.5118 11.5231 23.8333 11.9768 23.3609L13.8093 21.456C14.2068 21.4782 14.6045 21.4907 15.002 21.4907C16.353 21.4907 17.7047 21.3629 19.0463 21.1069L19.065 21.1031C20.7244 20.7414 22.5313 19.0027 22.9321 17.3825L22.937 17.3627C23.4325 15.0999 23.4325 12.8053 22.9371 10.5424ZM21.4868 17.0345C21.2192 18.0916 19.8473 19.4058 18.7572 19.6486C17.3302 19.92 15.8918 20.036 14.4548 19.9962C14.4262 19.9954 14.3988 20.0065 14.3789 20.027C14.1749 20.2363 13.0409 21.4005 13.0409 21.4005L11.6178 22.8612C11.5137 22.9697 11.3309 22.8958 11.3309 22.7461V19.7498C11.3309 19.7003 11.2956 19.6583 11.2469 19.6487C11.2466 19.6486 11.2464 19.6486 11.2461 19.6485C10.156 19.4057 8.78459 18.0916 8.51652 17.0345C8.07057 14.9892 8.07057 12.9158 8.51652 10.8705C8.78459 9.81346 10.156 8.49932 11.2461 8.2565C13.7385 7.78248 16.2655 7.78248 18.7573 8.2565C19.8479 8.49932 21.2193 9.81346 21.4869 10.8705C21.9333 12.9159 21.9333 14.9893 21.4868 17.0345Z" fill="white"/>
<path d="M17.3719 18.4176C17.2043 18.3667 17.0446 18.3325 16.8962 18.2711C15.3592 17.6334 13.9448 16.8107 12.8244 15.5497C12.1873 14.8327 11.6886 14.0231 11.267 13.1663C11.0671 12.76 10.8987 12.3379 10.7269 11.9183C10.5704 11.5358 10.801 11.1407 11.0438 10.8524C11.2717 10.5819 11.5649 10.3749 11.8825 10.2223C12.1304 10.1032 12.3748 10.1719 12.5559 10.3819C12.9472 10.8362 13.3067 11.3136 13.5977 11.8401C13.7767 12.1639 13.7276 12.5598 13.4031 12.7802C13.3243 12.8337 13.2524 12.8967 13.179 12.9571C13.1146 13.0102 13.054 13.0637 13.0098 13.1355C12.9291 13.2668 12.9253 13.4218 12.9772 13.5646C13.3772 14.6638 14.0514 15.5187 15.158 15.9792C15.335 16.0529 15.5128 16.1386 15.7168 16.1149C16.0584 16.075 16.1691 15.7002 16.4085 15.5044C16.6424 15.3131 16.9415 15.3106 17.1935 15.4701C17.4456 15.6297 17.69 15.8009 17.9329 15.9741C18.1714 16.144 18.4087 16.3101 18.6287 16.5039C18.8402 16.6901 18.913 16.9345 18.7939 17.1872C18.5759 17.6501 18.2586 18.0352 17.8011 18.281C17.6719 18.3503 17.5175 18.3727 17.3719 18.4176C17.5175 18.3727 17.2043 18.3667 17.3719 18.4176Z" fill="white"/>
<path d="M15.0068 9.69293C17.0171 9.74929 18.6683 11.0834 19.0222 13.0709C19.0825 13.4096 19.1039 13.7558 19.1308 14.0995C19.1421 14.2441 19.0602 14.3814 18.9042 14.3834C18.7431 14.3853 18.6706 14.2504 18.66 14.106C18.6393 13.8199 18.625 13.5325 18.5856 13.2489C18.3775 11.7513 17.1833 10.5124 15.6927 10.2465C15.4684 10.2065 15.2389 10.196 15.0116 10.1722C14.868 10.1571 14.6799 10.1484 14.6481 9.96984C14.6215 9.82013 14.7478 9.70095 14.8903 9.69328C14.929 9.69099 14.9679 9.69281 15.0068 9.69293C17.0172 9.74929 14.9679 9.69281 15.0068 9.69293Z" fill="white"/>
<path d="M18.06 13.6535C18.0567 13.6786 18.055 13.7376 18.0402 13.7931C17.9869 13.9949 17.6808 14.0202 17.6104 13.8166C17.5895 13.7562 17.5864 13.6874 17.5863 13.6223C17.5856 13.1966 17.493 12.7712 17.2783 12.4007C17.0576 12.0199 16.7203 11.6999 16.3249 11.5062C16.0857 11.3891 15.8271 11.3163 15.565 11.273C15.4504 11.254 15.3346 11.2426 15.2195 11.2265C15.08 11.2071 15.0055 11.1182 15.0121 10.9808C15.0183 10.852 15.1124 10.7592 15.2528 10.7672C15.7141 10.7934 16.1598 10.8932 16.57 11.1104C17.404 11.5521 17.8805 12.2493 18.0196 13.1803C18.0259 13.2225 18.036 13.2642 18.0392 13.3065C18.0471 13.4109 18.052 13.5155 18.06 13.6535C18.0567 13.6785 18.052 13.5155 18.06 13.6535Z" fill="white"/>
<path d="M16.8128 13.6048C16.6446 13.6078 16.5546 13.5146 16.5372 13.3605C16.5252 13.2531 16.5156 13.1441 16.4899 13.0395C16.4394 12.8334 16.3299 12.6425 16.1566 12.5162C16.0748 12.4566 15.982 12.4132 15.8849 12.3851C15.7616 12.3494 15.6334 12.3592 15.5104 12.3291C15.3768 12.2964 15.3028 12.1881 15.3239 12.0628C15.343 11.9486 15.4539 11.8596 15.5787 11.8686C16.3581 11.9249 16.9151 12.3278 16.9947 13.2454C17.0003 13.3102 17.0069 13.3785 16.9925 13.4406C16.9678 13.5465 16.8893 13.5996 16.8128 13.6048C16.8893 13.5996 16.6446 13.6078 16.8128 13.6048Z" fill="white"/>
<path d="M17.3711 18.4176C17.2035 18.3667 17.5168 18.3727 17.3711 18.4176V18.4176Z" fill="white"/>
<path d="M15.0095 9.69324C15.0078 9.69324 15.0062 9.69307 15.0045 9.69307C15.0028 9.69295 15.0049 9.69307 15.0095 9.69324Z" fill="white"/>
<path d="M15.0039 9.69293C15.0056 9.69293 15.0072 9.6931 15.0089 9.6931C15.1205 9.69709 16.935 9.74707 15.0039 9.69293Z" fill="white"/>
<path d="M18.0591 13.6535C18.0511 13.5155 18.0558 13.6785 18.0591 13.6535V13.6535Z" fill="white"/>
<path d="M16.8106 13.6048C16.8132 13.6046 16.8157 13.6032 16.8182 13.6029C16.8112 13.6029 16.8003 13.6031 16.7891 13.6035C16.7963 13.6037 16.8029 13.6048 16.8106 13.6048Z" fill="white"/>
<path d="M16.8104 13.6048C16.8028 13.6049 16.7961 13.6038 16.7889 13.6035C16.7525 13.6045 16.7149 13.6065 16.8104 13.6048Z" fill="white"/>
<path d="M16.8163 13.6029C16.8136 13.6032 16.8111 13.6046 16.8086 13.6048C16.8283 13.6034 16.8266 13.6029 16.8163 13.6029Z" fill="white"/>
</g>
<defs>
<clipPath id="clip0_23_8133">
<rect width="30" height="30" fill="white"/>
</clipPath>
</defs>
</svg>
