<svg width="30" height="30" viewBox="0 0 30 30" fill="none" xmlns="http://www.w3.org/2000/svg">
<g clip-path="url(#clip0_23_8122)">
<path d="M15 30C23.2843 30 30 23.2843 30 15C30 6.71573 23.2843 0 15 0C6.71573 0 0 6.71573 0 15C0 23.2843 6.71573 30 15 30Z" fill="#75B73B"/>
<path d="M14.5803 6.35431C10.0082 6.57181 6.40033 10.3795 6.4141 14.9565C6.41832 16.3506 6.75488 17.6664 7.34867 18.8293L6.43713 23.2539C6.38785 23.4933 6.60371 23.7029 6.84148 23.6466L11.1771 22.6194C12.2911 23.1744 13.5422 23.4947 14.8663 23.515C19.5393 23.5864 23.4357 19.876 23.5815 15.2047C23.7375 10.1974 19.6049 6.11496 14.5803 6.35431ZM19.7537 19.6838C18.484 20.9534 16.7957 21.6527 15 21.6527C13.9486 21.6527 12.9418 21.4168 12.0078 20.9516L11.4042 20.6508L8.74578 21.2805L9.30529 18.5643L9.00793 17.9817C8.52301 17.0321 8.27715 16.0055 8.27715 14.9299C8.27715 13.1341 8.97646 11.446 10.2461 10.1762C11.5045 8.91773 13.2203 8.20723 15.0001 8.20723C16.7956 8.20723 18.4839 8.90654 19.7536 10.1762C21.0233 11.4459 21.7226 13.1342 21.7226 14.9297C21.7227 16.7096 21.0121 18.4253 19.7537 19.6838Z" fill="white"/>
<path d="M19.1685 16.7919L17.5054 16.3144C17.2869 16.2518 17.0513 16.3138 16.892 16.4762L16.4852 16.8904C16.3138 17.0653 16.0536 17.1213 15.8267 17.0295C15.0399 16.7111 13.3849 15.2396 12.9625 14.5038C12.8404 14.2914 12.8606 14.0261 13.0104 13.8322L13.3654 13.3728C13.5045 13.193 13.5338 12.9512 13.4418 12.7431L12.7422 11.1606C12.5746 10.7817 12.0902 10.6713 11.7738 10.9389C11.3097 11.3316 10.7589 11.928 10.6921 12.5889C10.574 13.7542 11.0738 15.2229 12.9633 16.9867C15.1463 19.0245 16.8946 19.2935 18.033 19.0178C18.6786 18.8615 19.1946 18.2347 19.5201 17.7213C19.7422 17.3711 19.5666 16.9063 19.1685 16.7919Z" fill="white"/>
</g>
<defs>
<clipPath id="clip0_23_8122">
<rect width="30" height="30" fill="white"/>
</clipPath>
</defs>
</svg>
