<svg width="24" height="24" viewBox="0 0 24 24" fill="none" xmlns="http://www.w3.org/2000/svg">
<path d="M12.7098 12.83L16.9498 8.59C17.0435 8.49703 17.1179 8.38643 17.1687 8.26457C17.2195 8.14271 17.2456 8.01201 17.2456 7.88C17.2456 7.74798 17.2195 7.61728 17.1687 7.49542C17.1179 7.37356 17.0435 7.26296 16.9498 7.17C16.7624 6.98375 16.509 6.8792 16.2448 6.8792C15.9806 6.8792 15.7272 6.98375 15.5398 7.17L11.9998 10.71L8.45981 7.17C8.27244 6.98374 8.01899 6.8792 7.75481 6.8792C7.49062 6.8792 7.23717 6.98374 7.04981 7.17C6.95713 7.26344 6.8838 7.37425 6.83404 7.49609C6.78427 7.61793 6.75905 7.74839 6.75981 7.88C6.75905 8.0116 6.78427 8.14206 6.83404 8.2639C6.8838 8.38574 6.95713 8.49656 7.04981 8.59L11.2898 12.83C11.3828 12.9237 11.4934 12.9981 11.6152 13.0489C11.7371 13.0997 11.8678 13.1258 11.9998 13.1258C12.1318 13.1258 12.2625 13.0997 12.3844 13.0489C12.5062 12.9981 12.6168 12.9237 12.7098 12.83Z" fill="#535353"/>
<path d="M12.7098 11.175L16.9498 15.415C17.0435 15.508 17.1179 15.6186 17.1687 15.7404C17.2195 15.8623 17.2456 15.993 17.2456 16.125C17.2456 16.257 17.2195 16.3877 17.1687 16.5096C17.1179 16.6314 17.0435 16.742 16.9498 16.835C16.7624 17.0213 16.509 17.1258 16.2448 17.1258C15.9806 17.1258 15.7272 17.0213 15.5398 16.835L11.9998 13.295L8.45981 16.835C8.27244 17.0213 8.01899 17.1258 7.75481 17.1258C7.49062 17.1258 7.23717 17.0213 7.04981 16.835C6.95713 16.7416 6.8838 16.6307 6.83404 16.5089C6.78427 16.3871 6.75905 16.2566 6.75981 16.125C6.75905 15.9934 6.78427 15.8629 6.83404 15.7411C6.8838 15.6193 6.95713 15.5084 7.04981 15.415L11.2898 11.175C11.3828 11.0813 11.4934 11.0069 11.6152 10.9561C11.7371 10.9053 11.8678 10.8792 11.9998 10.8792C12.1318 10.8792 12.2625 10.9053 12.3844 10.9561C12.5062 11.0069 12.6168 11.0813 12.7098 11.175Z" fill="#535353"/>
</svg>
