<svg width="373" height="415" viewBox="0 0 373 415" fill="none" xmlns="http://www.w3.org/2000/svg">
<path d="M114.395 409.861C116.395 404.618 119.52 399.879 123.551 395.979C127.581 392.079 132.418 389.112 137.722 387.288C141.251 386.067 144.606 384.208 148.025 382.662C144.893 381.198 141.501 380.378 138.048 380.25C129.881 379.959 122.15 376.472 116.515 370.54C115.415 368.879 114.679 367.004 114.354 365.038C114.03 363.073 114.124 361.061 114.632 359.136C115.656 355.393 120.085 357.077 122.901 358.253C132.033 361.892 142.053 364.513 149.901 370.099C160.184 377.548 171.401 377.532 182.751 378.957C164.673 371.06 149.507 357.706 139.375 340.765C137.083 336.796 134.554 336.855 130.955 338.427C122.39 342.093 112.719 342.225 104.047 338.794C95.3737 335.364 88.3991 328.648 84.6388 320.106C83.8026 318.254 83.4392 315 84.5021 313.881C85.4211 313.283 86.4545 312.884 87.5366 312.708C88.6187 312.532 89.7259 312.584 90.7878 312.859C96.6587 313.944 102.453 315.502 108.267 316.893L109.345 317.01L108.39 316.433C107.426 315.197 106.368 314.039 105.224 312.968C97.5977 306.17 92.1385 297.275 89.5282 287.397C89.2313 285.131 89.3366 282.83 89.8393 280.602C91.7233 280.837 93.888 280.483 95.4284 281.267C106.117 286.286 115.513 293.696 122.889 302.925C121.341 296.369 120.286 289.707 119.733 282.994C119.621 272.963 116.416 263.207 110.558 255.059C107.39 249.383 104.515 243.549 101.943 237.58C101.151 236.208 98.7788 234.387 97.6197 234.667C75.1266 240.182 57.4047 227.182 38.3283 219.44C34.2834 217.883 34.4047 213.922 38.4804 211.764C41.8564 209.89 45.5729 208.71 49.4122 208.293C64.4307 207.355 79.4071 210.774 92.5451 218.14C89.8858 210.102 86.918 202.944 85.1553 195.517C82.8158 185.544 82.0491 175.402 86.9376 165.77C89.2145 161.303 92.6566 160.133 95.4867 163.285C99.0881 167.031 102.112 171.292 104.457 175.929C107.523 182.593 109.22 189.804 109.447 197.133C109.675 204.462 108.428 211.759 105.781 218.592C104.52 221.712 104.098 225.109 104.555 228.445C106.959 238.912 111.5 248.77 117.893 257.401C119.782 246.543 121.357 236.489 123.444 226.645C127.405 208.785 134.023 191.624 143.075 175.736C144.237 174.024 144.845 171.994 144.817 169.923C144.788 167.851 144.124 165.837 142.914 164.154C139.653 159.111 136.899 153.735 133.725 148.641C126.079 136.206 117.72 124.688 101.21 123.947C100.686 123.892 100.174 123.754 99.6924 123.539C89.4404 120.215 80.8049 113.159 75.498 103.769C73.139 99.6834 74.9018 96.6811 79.5378 96.3004C81.0914 96.3486 82.6341 96.5813 84.1334 96.9937C96.3611 99.4679 107.99 103.261 116.763 111.66C117.266 104.968 118.186 98.3153 119.519 91.7402C120.202 89.0886 123.967 87.2655 126.352 85.0715C128.587 86.9457 130.462 89.2129 131.884 91.7612C135.586 103.555 135.993 115.228 128.975 126.284C128.506 127.284 128.277 128.379 128.308 129.483C128.338 130.587 128.627 131.67 129.15 132.643C135.129 142.461 141.44 152.047 147.781 161.617C148.068 162.113 150.709 161.911 150.853 161.555C154.149 152.259 158.781 143.125 160.055 133.556C162.354 115.807 153.058 102.262 140.374 90.7897C122.234 74.3737 88.2962 64.2376 64.7202 81.4682C62.0258 83.2924 59.9191 85.8605 58.6554 88.8611C56.3752 94.6479 53.1672 100.023 49.1576 104.774C41.7602 112.358 33.9677 119.546 25.8126 126.307C24.0674 127.859 20.7123 129.719 19.2977 129.018C18.1481 128.273 17.1614 127.302 16.3977 126.164C15.634 125.026 15.1091 123.745 14.8549 122.399C14.191 118.137 14.4747 113.783 15.6857 109.647C16.8966 105.51 19.0051 101.694 21.8606 98.4694C27.7077 90.9687 36.1055 87.4821 44.4437 83.7577L44.8224 83.5391L44.4437 83.7577L35.0892 83.9052C28.9604 84.0932 22.8714 82.8324 17.3164 80.225C11.7613 77.6176 6.89673 73.7371 3.11734 68.8983C-2.51333 61.837 -0.266907 57.1157 8.62629 56.573C15.161 56.0259 21.7352 56.1416 28.2486 56.9182C40.9824 58.7889 52.685 63.045 58.3973 76.1686C59.7327 79.2889 61.4334 77.9957 63.2521 76.9068C82.6574 65.2362 102.643 65.6051 123.03 74.0699C126.694 75.5731 130.335 77.1682 133.958 78.7342C133.361 77.699 132.628 76.7476 131.781 75.9052C117.675 64.5926 103.864 52.4475 85.2632 48.5554C71.0459 45.5955 61.8308 35.6227 53.8165 24.5675C52.3197 22.5132 53.1768 18.7496 52.9359 15.7756C55.4011 15.5597 57.8842 15.6558 60.3264 16.0616C75.0087 20.2497 88.6065 27.5911 100.172 37.5741C99.9173 34.3745 99.5935 31.5261 99.4492 28.652C98.7339 20.245 101.196 11.8802 106.349 5.21159C111.317 -1.12013 117.217 -0.79097 119.246 6.28782C121.761 14.987 123.331 23.9314 123.926 32.9653C124.231 36.5168 123.65 40.0872 122.235 43.3559C120.82 46.6246 118.616 49.4893 115.821 51.6929C111.712 54.8042 112.857 55.7776 116.278 57.7329C119.493 59.446 122.502 61.5208 125.248 63.9169C131.572 69.6064 137.559 75.6615 143.176 82.051C147.325 87.5164 151.131 93.2333 154.574 99.1688C155.478 95.0978 155.903 90.9344 155.841 86.7631C157.111 70.9313 164.003 65.24 174.497 61.75C180.306 59.8357 182.261 61.7421 181.808 67.6852C180.3 82.8369 176.379 96.9698 163.795 106.998C161.911 108.513 161.252 109.322 162.359 111.913C164.851 117.404 166.184 123.35 166.275 129.377C166.366 135.405 165.213 141.384 162.888 146.941C157.871 159.177 152.022 171.115 146.127 183.041C139.746 195.055 135.129 207.93 132.42 221.268C136.781 219.076 140.827 216.308 144.45 213.038C154.046 203.957 162.899 194.059 172.966 185.523C175.786 183.499 177.911 180.65 179.048 177.367C180.185 174.084 180.278 170.528 179.316 167.187C177.701 159.312 176.836 151.303 176.732 143.268C176.809 138.818 177.766 134.43 179.548 130.356C181.329 126.282 183.9 122.602 187.112 119.53C191.315 115.236 195.001 116.104 197.096 121.549C197.593 123.027 197.963 124.545 198.201 126.087C200.925 140.614 199.385 155.615 193.766 169.273L201.718 166.628C211.09 163.551 220.528 161.799 229.746 166.595C231.058 167.198 232.225 168.074 233.171 169.166C234.116 170.258 234.817 171.54 235.226 172.925C234.925 174.381 234.306 175.752 233.414 176.939C232.521 178.127 231.378 179.103 230.065 179.797C223.928 183.238 217.168 185.424 210.176 186.227C203.185 187.031 196.101 186.436 189.337 184.477C187.287 183.714 185.054 183.589 182.934 184.119C180.813 184.649 178.903 185.808 177.455 187.446C168.331 196.605 159.207 205.764 149.844 214.711C144.996 219.299 140.401 224.326 133.136 225.602C132.118 226.02 131.217 226.681 130.514 227.528C129.811 228.374 129.327 229.381 129.103 230.46C127.63 244.93 125.243 259.5 125.698 273.947C126.237 300.171 135.109 325.553 151.026 346.413C156.617 353.808 169.103 364.266 175.835 366.372C174.489 362.83 172.929 358.983 171.56 355.065C169.936 349.112 166.131 343.986 160.903 340.71C154.118 336.655 148.856 330.473 145.933 323.125C143.206 316.45 141.989 309.565 145.406 302.767C148.646 296.538 153.135 295.969 156.072 302.134C159.617 309.635 162.684 317.352 165.256 325.239C166.9 329.971 167.703 334.994 168.889 339.874L170.578 339.638C170.472 336.898 170.487 334.165 170.277 331.446C169.178 316.826 176.66 309.938 187.661 303.626C190.341 302.078 193.453 301.682 193.27 306.613C193.126 321.367 190.906 335.218 177.667 344.651C176.834 345.33 176.165 346.19 175.713 347.166C175.26 348.142 175.035 349.208 175.054 350.285C177.695 365.96 186.405 374.318 201.993 376.759C204.565 377.189 207.171 377.378 209.777 377.323C252.401 376.062 282.601 355.435 300.973 317.55C307.716 304.467 310.147 289.578 307.919 275.015C306.666 267.528 303.336 261.356 296.279 258.621C286.875 254.983 277.042 252.216 267.347 249.486C265.612 248.97 263.036 250.496 261.188 251.602C252.594 256.564 244.521 262.431 235.8 267.038C227.078 271.646 217.419 273.486 208.345 267.324C205.592 265.449 201.08 263.151 202.882 258.804C204.685 256.197 207.334 254.296 210.381 253.423C220.559 249.454 230.868 245.915 240.814 242.351C236.162 237.994 231.88 234.279 228.048 230.265C227.563 229.547 227.256 228.724 227.151 227.864C227.046 227.005 227.147 226.132 227.446 225.32C227.917 224.387 230.511 223.901 232.007 224.204C245.129 226.746 258.131 229.552 266.239 241.915C267.189 243.169 268.519 244.081 270.031 244.512C280.17 247.608 290.359 250.52 300.77 253.615C293.039 242.513 284.667 231.781 273.049 224.441C264.911 219.294 256.437 214.575 246.514 213.805C228.025 212.261 211.675 218.121 196.629 228.326C196.102 228.801 195.678 229.379 195.383 230.025C195.088 230.67 194.927 231.37 194.911 232.08C194.803 242.455 189.463 250.363 183.127 257.757C176.791 265.151 170.813 271.754 164.458 278.575C162.775 279.971 160.914 281.137 158.924 282.043C157.583 279.995 156.595 277.738 156 275.364C155.203 262.723 159.383 250.28 167.646 240.7C168.323 239.92 169.096 239.241 169.726 238.449C170.356 237.657 170.508 237.18 170.248 237.603C163.417 237.344 156.466 237.349 149.566 236.702C148.628 236.426 147.768 235.933 147.057 235.262C146.345 234.59 145.802 233.76 145.472 232.839C145.12 231.759 146.727 229.43 148.092 228.564C152.887 224.958 158.101 221.948 163.621 219.598C172.234 216.688 181.275 214.853 189.448 221.809C190.168 222.173 190.96 222.375 191.766 222.4C192.573 222.425 193.375 222.273 194.116 221.955C198.44 220.159 202.586 217.921 206.838 215.933C222.517 208.709 238.672 205.336 255.869 209.689C254.567 208.106 253.31 206.535 251.979 204.969C248.129 200.877 245.257 195.964 243.581 190.602C241.905 185.239 241.468 179.567 242.304 174.015C243.06 169.337 245.313 168.192 248.333 171.001C260.543 181.341 268.696 195.677 271.341 211.457C271.499 213.271 272.079 215.022 273.034 216.572C273.99 218.122 275.294 219.427 276.843 220.382C291.108 230.825 302.87 243.258 309.258 260.311C313.763 272.433 315.248 285.467 313.584 298.283C317.275 289.537 320.636 280.826 323.412 271.907C325.074 266.511 328.159 259.944 326.395 255.476C324.9 251.474 317.926 249.353 313.224 246.658C300.072 239.153 293.248 228.072 294.082 212.764C294.263 209.041 293.697 203.686 298.428 203.134C300.869 202.854 304.499 206.517 306.5 209.175C312.801 217.6 318.612 226.386 324.959 235.563C324.061 229.809 325.121 223.922 327.968 218.848C330.816 213.774 335.286 209.808 340.66 207.586C342.609 206.656 346.139 205.435 346.882 206.251C348.275 208.199 348.932 210.578 348.737 212.963C347.696 227.846 341.653 241.063 335.343 254.356C331.825 261.719 329.356 269.487 326.39 276.998C331.859 274.696 335.826 271.744 340.152 269.481C344.359 267.118 348.996 265.621 353.792 265.077C358.588 264.533 363.446 264.954 368.08 266.314C368.992 266.659 369.822 267.19 370.518 267.874C371.214 268.558 371.76 269.379 372.121 270.286C372.473 271.366 370.897 273.482 369.684 274.611C367.165 276.895 364.474 278.982 361.635 280.854C352.935 286.576 344.138 293.407 333.156 292.081C323.978 290.92 319.986 293.965 316.773 302.124C313.946 309.204 308.139 314.891 304.903 321.935C295.279 342.824 279.223 360.072 259.084 371.153C234.836 384.258 208.217 386.396 181.205 384.285C176.286 383.725 171.405 382.866 166.589 381.711C162.958 381.006 160.738 381.198 159.364 385.883C157.451 390.855 154.642 395.431 151.076 399.384C142.341 409.486 128.8 409.716 117.462 414.433C113.992 415.892 112.909 413.209 114.395 409.861ZM111.292 323.747C104.94 321.693 98.2916 320.473 90.5338 318.609C97.2347 332.368 116.285 339.931 129.413 334.881C130.238 334.37 130.965 333.713 131.557 332.943C130.86 332.23 130.072 331.612 129.214 331.105C123.123 328.629 117.297 325.805 111.146 323.831L111.292 323.747ZM95.015 286.875C100.342 303.84 111.798 312.714 126.099 320.529C120.472 304.593 109.515 295.237 94.8694 286.959L95.015 286.875ZM95.5957 169.799C94.7094 168.641 93.4343 167.842 92.0064 167.552C91.5051 167.491 90.3208 169.342 89.8512 170.547C86.2192 181.75 88.5092 192.647 92.2175 203.308C94.044 208.558 96.5498 213.571 99.36 220.12C107.424 201.455 105.808 185.267 95.4669 169.912L95.5957 169.799ZM116.62 118.747C107.265 108.194 95.2158 103.203 80.7251 101.452C82.1654 104.775 84.2597 107.775 86.8827 110.272C89.5058 112.769 92.6038 114.713 95.992 115.986C101.95 118.5 108.237 120.24 114.401 122.168C115.62 122.353 116.861 122.346 118.078 122.146C117.689 120.94 117.1 119.806 116.337 118.794L116.62 118.747ZM129.009 115.174C131.269 107.119 130.45 98.5051 126.712 91.0116C125.05 94.5747 123.81 98.3205 123.017 102.173C122.912 106.573 123.326 110.971 124.25 115.275C124.708 117.317 125.309 119.324 126.047 121.281C127.137 119.355 128.034 117.325 128.725 115.221L129.009 115.174ZM25.6177 102.487C23.1674 106.964 21.2248 111.701 19.826 116.61C19.2963 118.317 20.3638 120.503 20.6956 122.49L25.9672 119.914C35.4095 111.777 46.2023 104.028 52.4715 91.8087C53.2751 90.4977 53.8651 89.0669 54.2195 87.5697C54.3041 86.9761 52.1294 85.4298 51.8963 85.5644C42.9945 91.6767 31.2114 92.7983 25.3341 102.534L25.6177 102.487ZM40.3357 65.2717C30.3731 60.8671 19.682 60.8524 9.0059 61.3348C7.80751 61.5804 6.65768 62.0207 5.60205 62.6384C5.95125 64.0053 6.51911 65.307 7.2836 66.4929C13.0618 73.2993 21.2839 77.5564 30.1676 78.3413C36.2811 78.703 42.6034 78.2827 48.7797 78.686C54.956 79.0893 53.6294 76.8589 51.8085 72.6957C48.1116 69.8986 44.1778 67.4301 40.0521 65.3187L40.3357 65.2717ZM98.271 44.5087C92.686 39.5463 86.8113 34.9206 80.6782 30.6561C74.8224 27.2536 68.7361 24.2659 62.464 21.7152C61.2456 21.3823 59.9876 21.2182 58.7251 21.2276L59.2922 25.1029C65.0847 32.9856 73.0353 39.0202 82.1799 42.4749C86.93 43.974 91.5222 45.6032 96.2264 47.09C96.9555 47.208 97.6973 47.2249 98.4308 47.1403C98.3928 46.2672 98.5697 44.9588 98.0456 44.522L98.271 44.5087ZM110.786 49.2297C114.043 46.005 116.633 42.1693 118.408 37.9411C121.413 28.0735 117.681 18.515 115.298 9.07261C113.894 5.5639 111.412 5.90734 110.206 8.39368C107.423 13.0232 105.583 18.1589 104.791 23.5055C104.952 31.5218 105.674 39.5178 106.953 47.4347C106.973 50.4973 108.731 51.3891 110.561 49.243L110.786 49.2297ZM134.31 79.0755C134.529 79.4549 134.952 79.7166 135.288 80.0287C135.187 79.8536 135.302 79.5147 135.239 79.4732C134.939 79.3192 134.629 79.1863 134.31 79.0755V79.0755ZM163.747 100.994C169.733 94.115 173.831 85.7957 175.64 76.8501C175.927 75.5845 176.106 74.2964 176.175 72.9999C176.285 70.8352 176.215 68.6962 176.308 66.5023L168.038 68.1248C165.284 72.7155 163.033 77.5903 161.322 82.6649C160.46 88.3008 160.19 94.0127 160.517 99.7067C160.618 100.611 160.865 101.494 161.249 102.32C162.161 102.047 163.01 101.596 163.747 100.994V100.994ZM226.147 176.105C227.402 175.275 228.601 174.362 229.735 173.372C228.314 172.324 226.902 170.416 225.482 170.379C218.858 169.994 212.212 170.272 205.645 171.209C200.012 172.892 194.553 175.106 189.34 177.821L190.038 179.636C202.282 181.128 214.554 182.604 226.113 176.047L226.147 176.105ZM190.717 163.25C194.822 151.164 195.673 138.205 193.185 125.675C192.438 123.997 191.518 122.403 190.438 120.918C187.683 125.784 185.179 130.788 182.935 135.912C179.617 144.832 181.659 153.887 183.196 162.806C183.768 166.017 184.711 169.131 185.491 172.299C187.515 169.455 189.265 166.425 190.717 163.25ZM92.1532 223.853C80.2094 216.367 66.2986 212.644 52.2262 213.167C48.9792 213.329 45.7888 213.926 42.5556 214.314C57.3687 221.872 71.5911 230.627 88.6962 230.986C89.2127 231.058 89.738 231.032 90.2446 230.909C92.7775 229.913 95.2599 228.83 97.7592 227.777C95.9414 226.329 94.0475 224.981 92.0858 223.736L92.1532 223.853ZM178.977 337.163C182.148 333.785 184.61 329.803 186.215 325.454C187.821 321.105 188.539 316.476 188.326 311.842C188.332 311.449 186.136 310.538 185.403 310.883C182.787 312.017 180.511 313.811 178.797 316.09C177.083 318.369 175.989 321.054 175.622 323.885C175.29 328.482 175.268 333.097 175.557 337.698C177.142 337.483 178.449 337.662 179.061 337.309L178.977 337.163ZM233.464 250.681C226.346 252.884 219.363 255.592 212.326 258.138C211.182 258.61 210.072 259.16 209.003 259.784C209.705 261.052 210.643 262.175 211.767 263.091C215.239 264.858 219.111 265.685 222.999 265.489C226.886 265.293 230.653 264.08 233.924 261.973C242.362 257.412 250.531 252.385 258.921 247.54C249.824 244.232 241.692 248.11 233.464 250.681ZM236.627 228.775L235.695 230.792C241.758 236.787 248.626 240.877 257.502 240.305L258.323 238.43L236.627 228.775ZM182.342 223.227C173.549 220.715 165.566 223.573 156.723 227.433L153.821 231.288C155.523 231.745 157.386 232.887 158.933 232.539C166.918 230.692 174.838 228.532 182.759 226.371C183.447 226.03 184.055 225.547 184.542 224.953C183.813 224.362 183.169 223.449 182.342 223.227ZM182.123 235.027C170.056 244.134 160.696 256.114 161.519 273.89C171.773 262.717 182.768 253.839 188.385 240.557C189.301 237.657 189.948 234.678 190.317 231.658C187.44 232.399 184.666 233.492 182.056 234.91L182.123 235.027ZM247.32 176.177C246.189 189.828 252.028 200.076 266.886 211.344C263.581 198.053 256.805 185.876 247.253 176.061L247.32 176.177ZM337.592 237.999C340.207 230.418 342.266 222.614 344.434 214.863C344.534 213.614 344.437 212.357 344.148 211.138L341.18 211.917C332.718 218.32 328.534 226.145 330.002 236.426C330.562 240.423 331.376 244.389 332.085 248.377C334.223 245.087 336.066 241.614 337.592 237.999V237.999ZM302.615 212.002C301.803 211.25 300.945 210.55 300.045 209.905C299.559 210.799 299.211 211.761 299.013 212.759C298.793 222.808 301.241 231.824 309.765 238.11C313.754 240.982 317.962 243.495 323.144 246.885C319.416 233.64 312.342 221.574 302.606 211.851L302.615 212.002ZM329.126 287.793C339.018 289.047 347.177 284.609 354.922 279.32C358.506 277.251 362.089 275.182 365.673 273.113C366.261 272.677 366.788 272.163 367.239 271.586C366.489 271.123 365.687 270.751 364.849 270.475C357.731 268.791 350.239 269.983 344.002 273.795C338.408 277.025 333.113 280.704 327.734 284.238C326.959 284.92 326.272 285.696 325.688 286.548C326.783 287.049 327.934 287.416 329.117 287.642L329.126 287.793ZM162.614 331.901C159.676 323.985 156.767 316.053 153.695 308.176C152.964 306.931 152.041 305.809 150.96 304.852C150.023 306.26 149.317 307.81 148.872 309.443C147.927 319.717 153.35 326.821 160.275 333.096L162.614 331.901ZM120.167 362.4C119.457 363.101 118.929 363.967 118.632 364.921C121.614 367.597 124.41 371.43 127.955 372.458C135.071 374.18 142.29 375.446 149.566 376.247C141.627 367.677 130.641 365.537 120.109 362.434L120.167 362.4ZM150.852 376.321L150.222 376.374L150.34 376.578C150.34 376.578 150.677 376.422 150.794 376.355L150.852 376.321ZM153.771 385.415C142.732 392.333 128.493 393.238 121.62 406.429C138.229 405.323 150.374 397.494 153.713 385.448L153.771 385.415Z" fill="#FFBC57" fill-opacity="0.4"/>
</svg>
