<svg width="136" height="123" viewBox="0 0 136 123" fill="none" xmlns="http://www.w3.org/2000/svg">
<path d="M92.9308 41.5152C85.5228 36.8012 76.6388 34.5561 67.9396 34.9432C46.0197 35.8548 26.8691 52.4373 25.4432 76.2579C24.9717 84.9611 26.9635 93.9961 31.4097 101.644C35.9123 109.121 42.7538 114.982 50.6723 118.721C58.5329 122.345 67.4705 123.846 76.1078 122.486C84.7448 121.125 92.8528 117.02 99.1768 111.092C105.501 105.165 110.27 97.2981 112.289 88.8161C114.419 79.9897 113.457 70.721 109.923 62.3239C106.617 53.8111 100.627 46.514 92.9308 41.5152Z" fill="#AF2A4A"/>
<path d="M118.536 44.7635C116.408 42.8279 113.492 43.5867 111.151 44.6289C108.124 46.0179 105.326 47.5776 102.531 49.4234C102.417 49.4813 102.302 49.5391 102.302 49.5391C102.36 49.6533 102.476 49.8817 102.534 49.9959C102.591 50.1101 102.763 50.1664 102.821 50.2806C102.879 50.3948 103.109 50.5654 103.167 50.6796C104.137 50.045 105.164 49.5247 106.134 48.8901C108.246 47.6774 110.645 46.4632 112.988 45.7073C113.845 45.4167 114.988 45.1248 115.848 45.4067C116.709 45.6886 117.284 46.2581 117.689 47.0575C118.614 48.8847 118.223 50.9474 117.201 52.6126C116.066 54.6219 114.53 56.4042 112.993 58.1864C111.4 60.1407 109.749 61.9808 108.099 63.821C104.797 67.5012 101.38 70.953 97.7897 74.3484C90.6117 81.1393 82.7997 87.2468 74.6988 92.7828C66.4259 98.2628 57.692 103.115 48.7253 107.224C44.156 109.251 39.643 111.105 34.9002 112.789C32.8432 113.544 30.9004 114.24 28.67 114.652C27.1261 115.004 25.1805 115.128 23.6887 114.448C23.1148 114.165 22.6552 113.824 22.4239 113.367C21.9585 111.881 21.9513 110.45 22.5729 108.844C23.0789 107.01 23.9867 105.402 24.8367 103.681C25.2906 102.877 25.6867 101.959 26.197 100.983C26.5931 100.066 27.219 99.3178 27.7872 98.4568C28.2989 97.7668 28.6964 97.1358 29.2081 96.4458C29.0347 96.1028 28.8034 95.6468 28.63 95.3038C28.4016 95.4198 28.231 95.6498 28.0026 95.7648C26.8621 96.6298 25.9514 97.6648 24.9265 98.7568C23.9016 99.8498 22.8767 100.943 22.1394 102.32C21.3443 103.584 20.7791 105.018 20.1561 106.338C19.0241 108.919 18.1249 112.244 20.4262 114.522C21.0593 115.206 22.0364 116.002 23.0685 116.341C24.1006 116.679 25.1891 116.845 26.2761 116.725C28.68 116.656 31.0232 115.9 33.2522 115.202C36.1664 114.157 39.0806 113.112 41.9948 112.067C47.5934 109.806 53.1905 107.259 58.5578 104.542C69.4629 98.8768 79.7337 92.2418 89.3117 84.5228C98.7757 76.8622 107.491 68.289 115.287 59.0336C117.051 56.8494 119.215 54.606 120.175 51.968C120.792 49.5034 120.434 46.5285 118.536 44.7635Z" fill="white"/>
<path d="M60.8329 44.7103C60.7173 44.4819 60.4876 44.3113 60.2577 44.1408C60.0857 44.0844 59.9137 44.028 59.6839 43.8574C59.3398 43.7447 58.8815 43.6897 58.5389 43.8632C58.3105 43.9788 58.1963 44.0366 57.9101 44.0381C57.5675 44.2115 57.2828 44.4992 56.998 44.7868C56.8838 44.8446 56.8275 45.0167 56.7133 45.0745C56.5427 45.3043 56.43 45.6483 56.3736 45.8204C56.2608 46.1644 56.2623 46.4506 56.3779 46.679C56.3793 46.9652 56.5527 47.3078 56.7825 47.4784C56.8982 47.7068 57.1281 47.8774 57.3579 48.0479C57.5299 48.1043 57.7019 48.1607 57.9317 48.3313C58.2757 48.444 58.734 48.499 59.0766 48.3255C59.305 48.2099 59.4192 48.1521 59.7054 48.1506C60.048 47.9772 60.3327 47.6895 60.6175 47.4019C60.7317 47.344 60.7882 47.172 60.9024 47.1142C61.0729 46.8844 61.1857 46.5403 61.2421 46.3683C61.3548 46.0243 61.3533 45.7381 61.2377 45.5097C61.0642 45.1671 60.9486 44.9387 60.8329 44.7103Z" fill="black"/>
<path d="M56.9847 64.8796C54.4723 66.1515 56.496 70.1485 59.0083 68.8765C61.6348 67.5467 59.6112 63.5498 56.9847 64.8796Z" fill="black"/>
<path d="M77.1746 50.0662C75.0046 51.1648 76.6816 54.4765 78.8516 53.378C81.0786 52.3936 79.3446 48.9677 77.1746 50.0662Z" fill="black"/>
<path d="M85.4986 66.2243C85.0956 65.7111 84.4636 65.3136 83.8336 65.2023C83.1456 64.9767 82.5736 64.9796 81.8866 65.0403C81.2576 65.2152 80.5726 65.5621 80.0596 65.9654L79.9456 66.0232C79.4316 66.4265 79.0346 67.0582 78.8086 67.7463C78.5836 68.4343 78.4716 69.0646 78.7046 69.8076C78.9376 70.5506 79.2266 71.1216 79.6876 71.7489C80.0906 72.2621 80.7226 72.6596 81.4106 72.8851C82.0986 73.1107 82.7286 73.222 83.4716 72.9893C84.2146 72.7566 84.7856 72.4675 85.4136 72.0064C85.9266 71.6031 86.3246 70.9714 86.5496 70.2833C86.7756 69.5953 86.8866 68.965 86.6536 68.222L86.5956 68.1078C86.2486 67.4226 85.9026 66.7375 85.4986 66.2243Z" fill="black"/>
<path d="M67.0928 82.8609C66.8051 82.5759 66.4033 82.3489 66.0592 82.2359C65.8872 82.1799 65.601 82.1809 65.429 82.1249C64.9707 82.0699 64.5703 82.1289 64.1135 82.3599C63.771 82.5339 63.5426 82.6499 63.4298 82.9939C63.2592 83.2229 63.0886 83.4529 62.9759 83.7969C62.8631 84.1409 62.8646 84.4279 62.866 84.7139C62.8674 84.9999 62.9267 85.3999 63.0423 85.6289C63.158 85.8569 63.2158 85.9709 63.4456 86.1419C63.7333 86.4269 64.1351 86.6539 64.4792 86.7659C64.6512 86.8229 64.9374 86.8209 65.1094 86.8779C65.5676 86.9329 65.968 86.8729 66.4248 86.6419C66.7674 86.4689 66.9958 86.3529 67.1086 86.0089C67.2792 85.7789 67.4497 85.5489 67.5625 85.2049C67.6752 84.8609 67.6738 84.5749 67.6724 84.2889C67.6709 84.0029 67.5553 83.7739 67.3818 83.4319C67.324 83.3169 67.2084 83.0889 67.0928 82.8609Z" fill="black"/>
<path d="M100.509 80.0023C94.6847 82.951 99.2527 91.973 105.077 89.024C110.901 86.075 106.333 77.0536 100.509 80.0023Z" fill="black"/>
<path d="M87.1876 94.7809C86.9006 94.4959 86.6706 94.3249 86.3266 94.2129C86.1546 94.1559 85.9826 94.0999 85.8106 94.0439C85.4096 94.1029 85.1236 94.1039 84.7816 94.2779C84.5526 94.3929 84.3246 94.5089 84.1536 94.7389C83.9836 94.9689 83.8126 95.1989 83.7566 95.3709C83.5856 95.5999 83.5866 95.8869 83.7026 96.1149C83.7046 96.4009 83.7056 96.6869 83.9356 96.8579C83.9936 96.9719 84.1086 97.201 84.2806 97.257C84.5686 97.542 84.7986 97.7119 85.1426 97.8249C85.3146 97.8809 85.4866 97.9379 85.6586 97.9939C86.0586 97.9349 86.3446 97.9329 86.6876 97.7599C86.9156 97.6439 87.1446 97.529 87.3146 97.299C87.4856 97.069 87.6566 96.8389 87.7126 96.6669C87.8836 96.4369 87.8816 96.1509 87.7656 95.9229C87.7646 95.6369 87.7636 95.3499 87.5336 95.1799C87.4176 94.9509 87.3596 94.8369 87.1876 94.7809Z" fill="black"/>
<path d="M98.8519 57.7423C98.5059 57.3433 98.1039 57.1163 97.5879 56.9472C97.4159 56.8908 97.1299 56.8922 96.9579 56.8359C96.4999 56.7809 95.9849 56.898 95.5279 57.1293C95.1859 57.3027 94.9009 57.5904 94.7309 57.8202C94.4459 58.1079 94.2749 58.3377 94.2199 58.7959C94.1069 59.14 93.9949 59.484 94.0539 59.8844C94.1129 60.2848 94.1149 60.571 94.2879 60.9136C94.4039 61.142 94.6339 61.3126 94.7489 61.541C95.0949 61.94 95.4969 62.1669 96.0129 62.336C96.1849 62.3924 96.4709 62.391 96.6429 62.4474C97.1009 62.5023 97.6159 62.3852 98.0719 62.154C98.4149 61.9805 98.6999 61.6929 98.8699 61.463C99.1549 61.1754 99.3259 60.9455 99.3809 60.4873C99.4929 60.1433 99.6059 59.7992 99.5469 59.3988C99.4879 58.9984 99.3139 58.6558 99.1409 58.3132C99.0249 58.0848 98.9669 57.9707 98.8519 57.7423Z" fill="black"/>
<path d="M45.2686 68.6591C43.5556 69.5264 44.8854 72.1529 46.5984 71.2857C48.3114 70.4184 46.9815 67.7918 45.2686 68.6591Z" fill="black"/>
<path d="M66.3836 55.6733C66.1538 55.5028 65.924 55.3322 65.7519 55.2758C65.5799 55.2194 65.4657 55.2773 65.4079 55.1631C65.1217 55.1645 64.8355 55.1659 64.6071 55.2816C64.3787 55.3972 64.2645 55.455 64.0939 55.6849C63.8655 55.8005 63.8091 55.9725 63.8106 56.2587C63.7542 56.4307 63.6978 56.6028 63.6993 56.889C63.6429 57.061 63.7585 57.2894 63.8742 57.5178C63.932 57.632 63.9898 57.7462 64.0476 57.8604C64.2774 58.0309 64.5073 58.2015 64.6793 58.2579L65.0233 58.3707C65.3095 58.3692 65.5958 58.3678 65.8241 58.2521C66.0525 58.1365 66.1667 58.0787 66.3373 57.8489C66.5657 57.7332 66.6221 57.5612 66.6207 57.275C66.677 57.103 66.7334 56.931 66.732 56.6447C66.7884 56.4727 66.6727 56.2443 66.5571 56.0159C66.4993 55.9017 66.4414 55.7875 66.3836 55.6733Z" fill="black"/>
<path d="M78.2917 78.6253C76.2357 79.666 77.7967 82.7491 79.8527 81.7086C81.9657 80.7821 80.3467 77.5846 78.2917 78.6253Z" fill="black"/>
<path d="M71.9172 108.825C71.2841 108.141 70.4226 107.573 69.5625 107.291C69.1043 107.236 68.5882 107.067 68.13 107.012C67.0993 106.96 66.1843 107.137 65.2707 107.599C64.5855 107.946 63.9582 108.407 63.5606 109.039C63.1053 109.556 62.7078 110.188 62.4822 110.876C62.2567 111.564 62.2032 112.309 62.2639 112.995C62.2104 113.74 62.4431 114.483 62.79 115.168C63.1355 115.567 63.3668 116.024 63.7122 116.422C64.3454 117.106 65.2069 117.674 66.067 117.956C66.5252 118.011 67.0412 118.18 67.4995 118.235C68.5301 118.287 69.4451 118.111 70.3587 117.648C71.0439 117.302 71.6713 116.84 72.0688 116.209C72.5242 115.691 72.9217 115.06 73.1472 114.372C73.3727 113.683 73.4262 112.939 73.3655 112.252C73.419 111.508 73.1863 110.765 72.8394 110.08C72.4939 109.681 72.1485 109.282 71.9172 108.825Z" fill="black"/>
<path d="M13.9165 83.5288L9.45988 85.2108L8.33808 89.7958L5.45718 86.0898L0.650879 86.5148L3.20658 82.4948L1.46778 78.2101L6.05288 79.3319L9.70148 76.3369L9.95438 81.0869L13.9165 83.5288Z" fill="#7D06F5"/>
<path d="M75.0616 16.9897L69.1528 14.3861L63.8462 17.7902L64.387 11.4906L59.4434 7.39394L65.7329 5.93124L68.0502 0.0234375L71.2837 5.55984L77.6396 5.92864L73.4851 10.758L75.0616 16.9897Z" fill="#F5DD06"/>
<path d="M135.539 79.1964L131.709 80.4177L130.583 84.144L128.22 80.8932L124.271 81.0276L126.659 77.8099L125.323 74.0385L129.108 75.2788L132.359 72.9155L132.321 76.8083L135.539 79.1964Z" fill="#F0F0F0"/>
</svg>
