<svg width="173" height="173" viewBox="0 0 173 173" fill="none" xmlns="http://www.w3.org/2000/svg">
<g clip-path="url(#clip0_65_962)">
<path d="M117.931 59.5151C110.523 54.8011 101.639 52.556 92.9398 52.9431C71.0199 53.8547 51.8693 70.4373 50.4434 94.2579C49.9719 102.961 51.9637 111.996 56.4099 119.644C60.9125 127.121 67.754 132.982 75.6725 136.721C83.5331 140.345 92.4707 141.846 101.108 140.486C109.745 139.125 117.853 135.02 124.177 129.092C130.501 123.165 135.27 115.298 137.289 106.816C139.419 97.9896 138.457 88.7209 134.923 80.3238C131.617 71.811 125.627 64.5139 117.931 59.5151Z" fill="#FF986D"/>
<path d="M143.536 62.7637C141.408 60.8281 138.492 61.5869 136.151 62.6291C133.124 64.0181 130.326 65.5778 127.531 67.4236C127.417 67.4815 127.302 67.5393 127.302 67.5393C127.36 67.6535 127.476 67.8819 127.534 67.9961C127.591 68.1103 127.763 68.1666 127.821 68.2808C127.879 68.395 128.109 68.5656 128.167 68.6798C129.137 68.0452 130.164 67.5249 131.134 66.8903C133.246 65.6776 135.645 64.4634 137.988 63.7075C138.845 63.4169 139.988 63.125 140.848 63.4069C141.709 63.6888 142.284 64.2583 142.689 65.0577C143.614 66.8849 143.223 68.9476 142.201 70.6128C141.066 72.6221 139.53 74.4044 137.993 76.1866C136.4 78.1409 134.749 79.981 133.099 81.8212C129.797 85.5014 126.38 88.9532 122.79 92.3486C115.612 99.1395 107.8 105.247 99.6991 110.783C91.4262 116.263 82.6923 121.115 73.7256 125.224C69.1563 127.251 64.6433 129.105 59.9005 130.789C57.8435 131.544 55.9007 132.24 53.6703 132.652C52.1264 133.004 50.1808 133.128 48.689 132.448C48.1151 132.165 47.6555 131.824 47.4242 131.367C46.9588 129.881 46.9516 128.45 47.5732 126.844C48.0792 125.01 48.987 123.402 49.837 121.681C50.2909 120.877 50.687 119.959 51.1973 118.983C51.5934 118.066 52.2193 117.318 52.7875 116.457C53.2992 115.767 53.6967 115.136 54.2084 114.446C54.035 114.103 53.8037 113.647 53.6303 113.304C53.4019 113.42 53.2313 113.65 53.0029 113.765C51.8624 114.63 50.9517 115.665 49.9268 116.757C48.9019 117.85 47.877 118.943 47.1397 120.32C46.3446 121.584 45.7794 123.018 45.1564 124.338C44.0244 126.919 43.1252 130.244 45.4265 132.522C46.0596 133.206 47.0367 134.002 48.0688 134.341C49.1009 134.679 50.1894 134.845 51.2764 134.725C53.6803 134.656 56.0235 133.9 58.2525 133.202C61.1667 132.157 64.0809 131.112 66.9951 130.067C72.5937 127.806 78.1908 125.259 83.5581 122.542C94.4632 116.877 104.734 110.242 114.312 102.523C123.776 94.8624 132.491 86.2892 140.287 77.0338C142.051 74.8496 144.215 72.6062 145.175 69.9682C145.792 67.5036 145.434 64.5287 143.536 62.7637Z" fill="black"/>
<path d="M85.8334 62.7103C85.7178 62.4819 85.488 62.3113 85.2581 62.1408C85.0861 62.0844 84.9141 62.028 84.6843 61.8574C84.3402 61.7447 83.882 61.6897 83.5394 61.8632C83.311 61.9788 83.1968 62.0366 82.9106 62.0381C82.568 62.2115 82.2833 62.4992 81.9985 62.7868C81.8843 62.8446 81.8279 63.0167 81.7137 63.0745C81.5431 63.3043 81.4304 63.6483 81.374 63.8204C81.2612 64.1644 81.2627 64.4506 81.3783 64.679C81.3797 64.9652 81.5532 65.3078 81.783 65.4784C81.8987 65.7068 82.1285 65.8774 82.3583 66.0479C82.5303 66.1043 82.7024 66.1607 82.9322 66.3313C83.2762 66.444 83.7344 66.499 84.077 66.3255C84.3054 66.2099 84.4196 66.1521 84.7058 66.1506C85.0484 65.9772 85.3332 65.6895 85.618 65.4019C85.7322 65.344 85.7886 65.172 85.9028 65.1142C86.0733 64.8844 86.1861 64.5403 86.2425 64.3683C86.3552 64.0243 86.3538 63.7381 86.2382 63.5097C86.0647 63.1671 85.9491 62.9387 85.8334 62.7103Z" fill="#E6EAEC"/>
<path d="M81.985 82.8795C79.4726 84.1515 81.4963 88.1484 84.0086 86.8764C86.6351 85.5466 84.6115 81.5497 81.985 82.8795Z" fill="#E6EAEC"/>
<path d="M102.175 68.0662C100.005 69.1648 101.682 72.4765 103.852 71.378C106.079 70.3936 104.345 66.9677 102.175 68.0662Z" fill="#E6EAEC"/>
<path d="M110.499 84.2243C110.096 83.7111 109.464 83.3136 108.834 83.2023C108.146 82.9767 107.574 82.9796 106.887 83.0403C106.258 83.2152 105.573 83.5621 105.06 83.9654L104.946 84.0232C104.432 84.4265 104.035 85.0582 103.809 85.7463C103.584 86.4343 103.472 87.0646 103.705 87.8076C103.938 88.5506 104.227 89.1216 104.688 89.7489C105.091 90.2621 105.723 90.6596 106.411 90.8851C107.099 91.1107 107.729 91.222 108.472 90.9893C109.215 90.7566 109.786 90.4675 110.414 90.0064C110.927 89.6031 111.325 88.9714 111.55 88.2833C111.776 87.5953 111.887 86.965 111.654 86.222L111.596 86.1078C111.249 85.4226 110.903 84.7375 110.499 84.2243Z" fill="#E6EAEC"/>
<path d="M92.0931 100.861C91.8054 100.576 91.4036 100.349 91.0595 100.236C90.8875 100.18 90.6013 100.181 90.4293 100.125C89.971 100.07 89.5706 100.129 89.1138 100.36C88.7713 100.534 88.5429 100.65 88.4301 100.994C88.2595 101.223 88.0889 101.453 87.9762 101.797C87.8634 102.141 87.8649 102.428 87.8663 102.714C87.8677 103 87.927 103.4 88.0426 103.629C88.1583 103.857 88.2161 103.971 88.4459 104.142C88.7336 104.427 89.1354 104.654 89.4795 104.766C89.6515 104.823 89.9377 104.821 90.1097 104.878C90.5679 104.933 90.9683 104.873 91.4251 104.642C91.7677 104.469 91.9961 104.353 92.1089 104.009C92.2795 103.779 92.45 103.549 92.5628 103.205C92.6755 102.861 92.6741 102.575 92.6727 102.289C92.6712 102.003 92.5556 101.774 92.3821 101.432C92.3243 101.317 92.2087 101.089 92.0931 100.861Z" fill="#E6EAEC"/>
<path d="M125.509 98.0023C119.685 100.951 124.253 109.973 130.077 107.024C135.901 104.075 131.333 95.0536 125.509 98.0023Z" fill="#E6EAEC"/>
<path d="M112.188 112.781C111.901 112.496 111.671 112.325 111.327 112.213C111.155 112.156 110.983 112.1 110.811 112.044C110.41 112.103 110.124 112.104 109.782 112.278C109.553 112.393 109.325 112.509 109.154 112.739C108.984 112.969 108.813 113.199 108.757 113.371C108.586 113.6 108.587 113.887 108.703 114.115C108.705 114.401 108.706 114.687 108.936 114.858C108.994 114.972 109.109 115.201 109.281 115.257C109.569 115.542 109.799 115.712 110.143 115.825C110.315 115.881 110.487 115.938 110.659 115.994C111.059 115.935 111.345 115.933 111.688 115.76C111.916 115.644 112.145 115.529 112.315 115.299C112.486 115.069 112.657 114.839 112.713 114.667C112.884 114.437 112.882 114.151 112.766 113.923C112.765 113.637 112.764 113.35 112.534 113.18C112.418 112.951 112.36 112.837 112.188 112.781Z" fill="#E6EAEC"/>
<path d="M123.852 75.7424C123.506 75.3434 123.104 75.1164 122.588 74.9473C122.416 74.8909 122.13 74.8923 121.958 74.836C121.5 74.781 120.985 74.8981 120.528 75.1294C120.186 75.3028 119.901 75.5905 119.731 75.8203C119.446 76.108 119.275 76.3378 119.22 76.796C119.107 77.1401 118.995 77.4841 119.054 77.8845C119.113 78.2849 119.115 78.5711 119.288 78.9137C119.404 79.1421 119.634 79.3127 119.749 79.5411C120.095 79.9401 120.497 80.167 121.013 80.3361C121.185 80.3925 121.471 80.3911 121.643 80.4475C122.101 80.5024 122.616 80.3853 123.072 80.1541C123.415 79.9806 123.7 79.693 123.87 79.4631C124.155 79.1755 124.326 78.9456 124.381 78.4874C124.493 78.1434 124.606 77.7993 124.547 77.3989C124.488 76.9985 124.314 76.6559 124.141 76.3133C124.025 76.0849 123.967 75.9708 123.852 75.7424Z" fill="#E6EAEC"/>
<path d="M70.269 86.6591C68.556 87.5264 69.8858 90.1529 71.5988 89.2857C73.3118 88.4184 71.9819 85.7918 70.269 86.6591Z" fill="#E6EAEC"/>
<path d="M91.384 73.6733C91.1542 73.5028 90.9244 73.3322 90.7523 73.2758C90.5803 73.2194 90.4661 73.2773 90.4083 73.1631C90.1221 73.1645 89.8359 73.1659 89.6075 73.2816C89.3791 73.3972 89.2649 73.455 89.0943 73.6849C88.8659 73.8005 88.8095 73.9725 88.811 74.2587C88.7546 74.4307 88.6982 74.6028 88.6997 74.889C88.6433 75.061 88.7589 75.2894 88.8746 75.5178C88.9324 75.632 88.9902 75.7462 89.048 75.8604C89.2778 76.0309 89.5077 76.2015 89.6797 76.2579L90.0237 76.3707C90.3099 76.3692 90.5962 76.3678 90.8245 76.2521C91.0529 76.1365 91.1671 76.0787 91.3377 75.8489C91.5661 75.7332 91.6225 75.5612 91.6211 75.275C91.6774 75.103 91.7338 74.931 91.7324 74.6447C91.7888 74.4727 91.6731 74.2443 91.5575 74.0159C91.4997 73.9017 91.4418 73.7875 91.384 73.6733Z" fill="#E6EAEC"/>
<path d="M103.292 96.6252C101.236 97.6659 102.797 100.749 104.853 99.7085C106.966 98.782 105.347 95.5845 103.292 96.6252Z" fill="#E6EAEC"/>
<path d="M96.9175 126.825C96.2844 126.141 95.4229 125.573 94.5628 125.291C94.1046 125.236 93.5885 125.067 93.1303 125.012C92.0996 124.96 91.1846 125.137 90.271 125.599C89.5858 125.946 88.9585 126.407 88.5609 127.039C88.1056 127.556 87.7081 128.188 87.4825 128.876C87.257 129.564 87.2035 130.309 87.2642 130.995C87.2107 131.74 87.4434 132.483 87.7903 133.168C88.1358 133.567 88.3671 134.024 88.7125 134.422C89.3457 135.106 90.2072 135.674 91.0673 135.956C91.5255 136.011 92.0415 136.18 92.4998 136.235C93.5304 136.287 94.4454 136.111 95.359 135.648C96.0442 135.302 96.6716 134.84 97.0691 134.209C97.5245 133.691 97.922 133.06 98.1475 132.372C98.373 131.683 98.4265 130.939 98.3658 130.252C98.4193 129.508 98.1866 128.765 97.8397 128.08C97.4942 127.681 97.1488 127.282 96.9175 126.825Z" fill="#E6EAEC"/>
<path d="M38.9167 101.529L34.4601 103.211L33.3383 107.796L30.4574 104.09L25.6511 104.515L28.2068 100.495L26.468 96.2103L31.0531 97.3321L34.7017 94.3371L34.9546 99.0871L38.9167 101.529Z" fill="black"/>
<path d="M100.062 34.9898L94.1532 32.3862L88.8466 35.7903L89.3874 29.4907L84.4438 25.394L90.7333 23.9313L93.0506 18.0235L96.2841 23.5599L102.64 23.9287L98.4855 28.7581L100.062 34.9898Z" fill="black"/>
<path d="M160.539 97.1964L156.709 98.4177L155.583 102.144L153.22 98.8932L149.271 99.0276L151.659 95.8099L150.323 92.0385L154.108 93.2788L157.359 90.9155L157.321 94.8083L160.539 97.1964Z" fill="black"/>
</g>
<defs>
<clipPath id="clip0_65_962">
<rect width="128" height="128" fill="white" transform="translate(0 57.8179) rotate(-26.853)"/>
</clipPath>
</defs>
</svg>
