<svg width="205" height="180" viewBox="0 0 205 180" fill="none" xmlns="http://www.w3.org/2000/svg">
<path d="M174.383 7.04208C157.019 -1.63989 141.041 -0.73666 128.046 4.27198C117.106 8.48834 108.326 15.5865 102.499 22.2047C96.6711 15.5865 87.8912 8.48834 76.9512 4.27198C63.9561 -0.73666 47.9779 -1.63989 30.6138 7.04208C8.08935 18.3042 -0.407136 38.2033 0.992645 59.1995C2.37745 79.9727 13.3913 101.833 29.7001 118.141C44.9608 133.402 74.3462 161.028 92.716 175.856C98.438 180.475 106.512 180.701 112.423 176.207C132.5 160.939 159.804 133.634 175.199 118.239L175.297 118.141C191.606 101.833 202.619 79.9727 204.005 59.1995C205.404 38.2033 196.908 18.3042 174.383 7.04208Z" fill="#AF2658"/>
</svg>
