<svg width="1024" height="681" viewBox="0 0 1024 681" fill="none" xmlns="http://www.w3.org/2000/svg">
<g clip-path="url(#clip0_2_5)">
<rect width="1024" height="681" fill="url(#paint0_linear_2_5)"/>
<ellipse cx="916.5" cy="574" rx="267.5" ry="276" fill="url(#paint1_linear_2_5)"/>
<ellipse cx="110.5" cy="55.5" rx="123.5" ry="117.5" fill="#FF63E6"/>
<ellipse cx="930" cy="56" rx="131" ry="122" fill="url(#paint2_linear_2_5)"/>
<ellipse cx="35" cy="209.5" rx="110" ry="101.5" fill="url(#paint3_linear_2_5)"/>
<ellipse cx="84.5" cy="368" rx="111.5" ry="107" fill="#E46FD1"/>
<ellipse cx="992" cy="260.5" rx="121" ry="120.5" fill="#9FA2F2"/>
<ellipse cx="623.482" cy="664.482" rx="101.5" ry="100" transform="rotate(45 623.482 664.482)" fill="url(#paint4_linear_2_5)"/>
<ellipse cx="541.413" cy="35.4129" rx="105.5" ry="107.216" transform="rotate(-45 541.413 35.4129)" fill="url(#paint5_linear_2_5)"/>
<ellipse cx="239" cy="25.5" rx="43" ry="41.5" fill="#FE96ED"/>
<ellipse cx="408.5" cy="623.5" rx="144.5" ry="140.5" fill="#FE96ED"/>
<ellipse cx="766" cy="26" rx="73" ry="72" fill="#888CF4"/>
<ellipse cx="661" cy="9" rx="49" ry="47" fill="#555CFF"/>
<ellipse cx="360.5" cy="7.5" rx="87.5" ry="83.5" fill="#E46FD1"/>
<ellipse cx="118.5" cy="574" rx="172.5" ry="164" fill="url(#paint6_linear_2_5)"/>
<ellipse cx="428.5" cy="78" rx="37.5" ry="38" fill="url(#paint7_linear_2_5)"/>
<circle cx="799" cy="116" r="32" transform="rotate(-90 799 116)" fill="url(#paint8_linear_2_5)"/>
<ellipse cx="641" cy="550.5" rx="29" ry="28.5" fill="url(#paint9_linear_2_5)"/>
<ellipse cx="844" cy="294.5" rx="45" ry="46.5" fill="url(#paint10_linear_2_5)"/>
<ellipse cx="153.5" cy="163.5" rx="42.5" ry="39.5" fill="url(#paint11_linear_2_5)"/>
<ellipse cx="300.5" cy="520" rx="48.5" ry="45" fill="url(#paint12_linear_2_5)"/>
<ellipse cx="291.96" cy="372.46" rx="56" ry="54.8575" transform="rotate(-45 291.96 372.46)" fill="url(#paint13_linear_2_5)"/>
<circle cx="250" cy="222" r="14" fill="url(#paint14_linear_2_5)"/>
<ellipse cx="673.5" cy="142" rx="32.5" ry="31" fill="url(#paint15_linear_2_5)"/>
<ellipse cx="563.5" cy="460" rx="10.5" ry="10" transform="rotate(-90 563.5 460)" fill="url(#paint16_linear_2_5)"/>
<circle cx="448" cy="143" r="8" transform="rotate(-79 448 143)" fill="url(#paint17_linear_2_5)"/>
<ellipse cx="686.5" cy="301" rx="16.5" ry="17" fill="url(#paint18_linear_2_5)"/>
<ellipse cx="478" cy="367.5" rx="12" ry="11.5" transform="rotate(-30 478 367.5)" fill="url(#paint19_linear_2_5)"/>
<ellipse cx="991.5" cy="149" rx="57.5" ry="54" fill="white" fill-opacity="0.35"/>
<ellipse cx="233.5" cy="655" rx="100.5" ry="99" fill="white" fill-opacity="0.51"/>
<ellipse cx="612.5" cy="374" rx="58.5" ry="56" fill="white" fill-opacity="0.57"/>
<ellipse cx="286.5" cy="133.5" rx="36.5" ry="34.5" fill="white" fill-opacity="0.56"/>
<ellipse cx="405.5" cy="265" rx="17.5" ry="17" fill="#FBFAFA" fill-opacity="0.26"/>
<ellipse cx="757.5" cy="215.5" rx="22.5" ry="20.5" fill="white" fill-opacity="0.42"/>
</g>
<defs>
<linearGradient id="paint0_linear_2_5" x1="512" y1="0" x2="512" y2="681" gradientUnits="userSpaceOnUse">
<stop stop-color="#666CFF"/>
<stop offset="1" stop-color="#FB79E6"/>
</linearGradient>
<linearGradient id="paint1_linear_2_5" x1="916.5" y1="298" x2="916.5" y2="850" gradientUnits="userSpaceOnUse">
<stop stop-color="#7177FF"/>
<stop offset="1" stop-color="#FF63E6"/>
</linearGradient>
<linearGradient id="paint2_linear_2_5" x1="930" y1="-66" x2="930" y2="178" gradientUnits="userSpaceOnUse">
<stop stop-color="#555CFF"/>
<stop offset="1" stop-color="#E46FD1"/>
</linearGradient>
<linearGradient id="paint3_linear_2_5" x1="35" y1="108" x2="35" y2="311" gradientUnits="userSpaceOnUse">
<stop stop-color="#FE96ED"/>
<stop offset="0.973958" stop-color="#666CFF"/>
</linearGradient>
<linearGradient id="paint4_linear_2_5" x1="623.482" y1="564.482" x2="623.482" y2="764.482" gradientUnits="userSpaceOnUse">
<stop stop-color="#555CFF"/>
<stop offset="1" stop-color="#E46FD1"/>
</linearGradient>
<linearGradient id="paint5_linear_2_5" x1="541.413" y1="-71.803" x2="541.413" y2="142.629" gradientUnits="userSpaceOnUse">
<stop stop-color="#FF63E6"/>
<stop offset="1" stop-color="#888CF4"/>
</linearGradient>
<linearGradient id="paint6_linear_2_5" x1="118.5" y1="410" x2="118.5" y2="738" gradientUnits="userSpaceOnUse">
<stop stop-color="#FF63E6"/>
<stop offset="1" stop-color="#666CFF"/>
</linearGradient>
<linearGradient id="paint7_linear_2_5" x1="428.5" y1="40" x2="428.5" y2="116" gradientUnits="userSpaceOnUse">
<stop stop-color="#555CFF"/>
<stop offset="1" stop-color="#555CFF" stop-opacity="0"/>
</linearGradient>
<linearGradient id="paint8_linear_2_5" x1="799" y1="84" x2="799" y2="148" gradientUnits="userSpaceOnUse">
<stop stop-color="#FE96ED"/>
<stop offset="1" stop-color="#FE96ED" stop-opacity="0"/>
</linearGradient>
<linearGradient id="paint9_linear_2_5" x1="641" y1="522" x2="641" y2="579" gradientUnits="userSpaceOnUse">
<stop stop-color="#666CFF"/>
<stop offset="1" stop-color="#555CFF" stop-opacity="0"/>
</linearGradient>
<linearGradient id="paint10_linear_2_5" x1="844" y1="248" x2="844" y2="341" gradientUnits="userSpaceOnUse">
<stop stop-color="#555CFF"/>
<stop offset="1" stop-color="#555CFF" stop-opacity="0"/>
</linearGradient>
<linearGradient id="paint11_linear_2_5" x1="153.5" y1="124" x2="153.5" y2="203" gradientUnits="userSpaceOnUse">
<stop stop-color="#FF63E6"/>
<stop offset="1" stop-color="#FF63E6" stop-opacity="0"/>
</linearGradient>
<linearGradient id="paint12_linear_2_5" x1="300.5" y1="475" x2="300.5" y2="565" gradientUnits="userSpaceOnUse">
<stop stop-color="#FF63E6"/>
<stop offset="1" stop-color="#FF63E6" stop-opacity="0"/>
</linearGradient>
<linearGradient id="paint13_linear_2_5" x1="291.96" y1="317.602" x2="291.96" y2="427.317" gradientUnits="userSpaceOnUse">
<stop stop-color="#555CFF"/>
<stop offset="1" stop-color="#D9D9D9" stop-opacity="0"/>
</linearGradient>
<linearGradient id="paint14_linear_2_5" x1="250" y1="208" x2="250" y2="236" gradientUnits="userSpaceOnUse">
<stop stop-color="#FE96ED"/>
<stop offset="1" stop-color="#D9D9D9" stop-opacity="0"/>
</linearGradient>
<linearGradient id="paint15_linear_2_5" x1="673.5" y1="111" x2="673.5" y2="173" gradientUnits="userSpaceOnUse">
<stop stop-color="#555CFF"/>
<stop offset="1" stop-color="#D9D9D9" stop-opacity="0"/>
</linearGradient>
<linearGradient id="paint16_linear_2_5" x1="563.5" y1="450" x2="563.5" y2="470" gradientUnits="userSpaceOnUse">
<stop stop-color="#555CFF"/>
<stop offset="1" stop-color="#D9D9D9" stop-opacity="0"/>
</linearGradient>
<linearGradient id="paint17_linear_2_5" x1="448" y1="135" x2="448" y2="151" gradientUnits="userSpaceOnUse">
<stop stop-color="#E46FD1"/>
<stop offset="1" stop-color="#D9D9D9" stop-opacity="0"/>
</linearGradient>
<linearGradient id="paint18_linear_2_5" x1="686.5" y1="284" x2="686.5" y2="318" gradientUnits="userSpaceOnUse">
<stop stop-color="#FF63E6"/>
<stop offset="1" stop-color="#D9D9D9" stop-opacity="0"/>
</linearGradient>
<linearGradient id="paint19_linear_2_5" x1="478" y1="356" x2="478" y2="379" gradientUnits="userSpaceOnUse">
<stop stop-color="#FF63E6"/>
<stop offset="1" stop-color="#FF63E6" stop-opacity="0"/>
</linearGradient>
<clipPath id="clip0_2_5">
<rect width="1024" height="681" fill="white"/>
</clipPath>
</defs>
</svg>
