<svg width="578" height="210" viewBox="0 0 578 210" fill="none" xmlns="http://www.w3.org/2000/svg">
<path fill-rule="evenodd" clip-rule="evenodd" d="M342.007 0C374.149 0 402.607 15.7718 420.065 39.9985C422.506 39.7882 424.976 39.6809 427.472 39.6809C458.277 39.6809 485.261 56.0369 500.215 80.5385C504.235 79.765 508.385 79.36 512.631 79.36C548.706 79.36 577.95 108.605 577.95 144.68C577.95 180.755 548.706 209.999 512.631 209.999V210H230.597V210C185.081 210 148.184 173.103 148.184 127.588C148.184 82.0724 185.081 45.175 230.597 45.175C240.117 45.175 249.261 46.7894 257.769 49.7595C274.14 20.0939 305.727 0 342.007 0Z" fill="#258ACB"/>
<g clip-path="url(#clip0_103_15)">
<path d="M29.1984 186.935C44.5236 184.225 58.7751 181.622 73.0894 179.222C74.1631 179.115 75.3485 180.089 78.1375 181.238C71.9182 184.046 67.1771 186.621 62.1849 188.382C48.9654 192.899 35.8226 196.946 22.4776 201.055C20.8601 201.553 19.3053 202.255 17.5622 202.345C11.9912 202.945 9.10451 200.04 10.4918 194.481C11.2168 191.803 12.2068 189.267 13.4617 186.872C18.2025 177.825 23.2083 168.92 28.2141 160.015C29.0507 158.418 30.6822 157.246 32.6693 155.073C36.2744 165.343 26.841 171.372 27.1273 180.209C28.8216 179.241 30.3764 178.539 31.6662 177.696C81.6151 145.803 136.508 130.685 195.216 128.674C201.317 128.358 207.466 128.919 213.553 129.276C216.698 129.423 219.815 130.918 219.264 134.881C218.915 138.782 216.085 139.654 212.41 139.223C171.196 134.062 132.214 144.057 93.5803 156.623C73.4233 163.053 54.2984 171.397 36.1288 182.124C33.8907 183.482 31.7154 185.045 29.1984 186.935Z" fill="white"/>
</g>
<path d="M247.869 144V114.909H253.139V127.224H266.619V114.909H271.903V144H266.619V131.642H253.139V144H247.869ZM286.925 144.426C284.794 144.426 282.947 143.957 281.385 143.02C279.822 142.082 278.61 140.771 277.749 139.085C276.896 137.4 276.47 135.43 276.47 133.176C276.47 130.922 276.896 128.948 277.749 127.253C278.61 125.558 279.822 124.241 281.385 123.304C282.947 122.366 284.794 121.898 286.925 121.898C289.055 121.898 290.902 122.366 292.464 123.304C294.027 124.241 295.234 125.558 296.087 127.253C296.948 128.948 297.379 130.922 297.379 133.176C297.379 135.43 296.948 137.4 296.087 139.085C295.234 140.771 294.027 142.082 292.464 143.02C290.902 143.957 289.055 144.426 286.925 144.426ZM286.953 140.307C288.108 140.307 289.074 139.99 289.851 139.355C290.627 138.711 291.205 137.849 291.584 136.77C291.972 135.69 292.166 134.488 292.166 133.162C292.166 131.827 291.972 130.619 291.584 129.54C291.205 128.451 290.627 127.584 289.851 126.94C289.074 126.296 288.108 125.974 286.953 125.974C285.769 125.974 284.785 126.296 283.999 126.94C283.222 127.584 282.64 128.451 282.251 129.54C281.873 130.619 281.683 131.827 281.683 133.162C281.683 134.488 281.873 135.69 282.251 136.77C282.64 137.849 283.222 138.711 283.999 139.355C284.785 139.99 285.769 140.307 286.953 140.307ZM320.49 122.182L312.72 144H307.038L299.268 122.182H304.751L309.766 138.389H309.993L315.021 122.182H320.49ZM332.965 144.426C330.778 144.426 328.888 143.972 327.298 143.062C325.716 142.144 324.499 140.847 323.647 139.17C322.795 137.485 322.369 135.501 322.369 133.219C322.369 130.974 322.795 129.005 323.647 127.31C324.509 125.605 325.711 124.279 327.255 123.332C328.799 122.376 330.612 121.898 332.695 121.898C334.04 121.898 335.309 122.116 336.502 122.551C337.705 122.977 338.765 123.64 339.684 124.54C340.612 125.439 341.341 126.585 341.871 127.977C342.402 129.36 342.667 131.008 342.667 132.92V134.497H324.783V131.031H337.738C337.728 130.046 337.515 129.17 337.099 128.403C336.682 127.627 336.1 127.016 335.352 126.571C334.613 126.126 333.751 125.903 332.766 125.903C331.715 125.903 330.792 126.159 329.996 126.67C329.201 127.172 328.581 127.835 328.136 128.659C327.7 129.473 327.478 130.368 327.468 131.344V134.369C327.468 135.638 327.7 136.727 328.164 137.636C328.628 138.536 329.277 139.227 330.11 139.71C330.943 140.184 331.919 140.42 333.036 140.42C333.784 140.42 334.461 140.316 335.067 140.108C335.674 139.89 336.199 139.573 336.644 139.156C337.089 138.74 337.425 138.223 337.653 137.608L342.454 138.148C342.151 139.417 341.573 140.525 340.721 141.472C339.878 142.409 338.799 143.138 337.482 143.659C336.166 144.17 334.66 144.426 332.965 144.426ZM347.017 144V122.182H352.003V125.818H352.23C352.628 124.559 353.31 123.588 354.276 122.906C355.251 122.215 356.364 121.869 357.614 121.869C357.898 121.869 358.215 121.884 358.565 121.912C358.925 121.931 359.223 121.964 359.46 122.011V126.741C359.242 126.666 358.897 126.599 358.423 126.543C357.959 126.476 357.509 126.443 357.074 126.443C356.136 126.443 355.294 126.647 354.545 127.054C353.807 127.452 353.224 128.006 352.798 128.716C352.372 129.426 352.159 130.245 352.159 131.173V144H347.017ZM382.315 144.426C380.137 144.426 378.267 143.948 376.705 142.991C375.152 142.035 373.954 140.714 373.111 139.028C372.277 137.333 371.861 135.383 371.861 133.176C371.861 130.96 372.287 129.005 373.139 127.31C373.991 125.605 375.194 124.279 376.747 123.332C378.31 122.376 380.156 121.898 382.287 121.898C384.058 121.898 385.625 122.224 386.989 122.878C388.362 123.522 389.455 124.436 390.27 125.619C391.084 126.794 391.548 128.167 391.662 129.739H386.747C386.548 128.687 386.075 127.812 385.327 127.111C384.588 126.401 383.598 126.045 382.358 126.045C381.307 126.045 380.384 126.33 379.588 126.898C378.793 127.456 378.172 128.261 377.727 129.312C377.292 130.364 377.074 131.623 377.074 133.091C377.074 134.578 377.292 135.856 377.727 136.926C378.163 137.987 378.774 138.806 379.56 139.384C380.355 139.952 381.288 140.236 382.358 140.236C383.116 140.236 383.793 140.094 384.389 139.81C384.995 139.516 385.502 139.095 385.909 138.545C386.316 137.996 386.596 137.329 386.747 136.543H391.662C391.539 138.086 391.084 139.455 390.298 140.648C389.512 141.831 388.442 142.759 387.088 143.432C385.734 144.095 384.143 144.426 382.315 144.426ZM402.163 144.44C400.78 144.44 399.535 144.194 398.427 143.702C397.328 143.2 396.457 142.461 395.813 141.486C395.179 140.51 394.862 139.308 394.862 137.878C394.862 136.647 395.089 135.629 395.543 134.824C395.998 134.019 396.618 133.375 397.404 132.892C398.19 132.409 399.076 132.045 400.06 131.798C401.055 131.543 402.082 131.358 403.143 131.244C404.421 131.112 405.458 130.993 406.254 130.889C407.049 130.776 407.627 130.605 407.987 130.378C408.356 130.141 408.54 129.777 408.54 129.284V129.199C408.54 128.129 408.223 127.3 407.589 126.713C406.954 126.126 406.04 125.832 404.847 125.832C403.588 125.832 402.589 126.107 401.85 126.656C401.121 127.205 400.629 127.854 400.373 128.602L395.572 127.92C395.951 126.595 396.576 125.487 397.447 124.597C398.318 123.697 399.383 123.025 400.643 122.58C401.902 122.125 403.294 121.898 404.819 121.898C405.87 121.898 406.916 122.021 407.958 122.267C409 122.513 409.951 122.92 410.813 123.489C411.675 124.047 412.366 124.81 412.887 125.776C413.417 126.741 413.683 127.949 413.683 129.398V144H408.739V141.003H408.569C408.256 141.609 407.816 142.177 407.248 142.707C406.689 143.228 405.984 143.65 405.131 143.972C404.289 144.284 403.299 144.44 402.163 144.44ZM403.498 140.662C404.53 140.662 405.425 140.458 406.183 140.051C406.94 139.634 407.522 139.085 407.93 138.403C408.346 137.722 408.555 136.978 408.555 136.173V133.602C408.394 133.735 408.119 133.858 407.731 133.972C407.352 134.085 406.926 134.185 406.452 134.27C405.979 134.355 405.51 134.431 405.046 134.497C404.582 134.563 404.18 134.62 403.839 134.668C403.072 134.772 402.385 134.942 401.779 135.179C401.173 135.416 400.695 135.747 400.344 136.173C399.994 136.59 399.819 137.13 399.819 137.793C399.819 138.74 400.165 139.455 400.856 139.938C401.547 140.42 402.428 140.662 403.498 140.662ZM418.853 144V122.182H423.839V125.818H424.066C424.464 124.559 425.146 123.588 426.112 122.906C427.087 122.215 428.2 121.869 429.45 121.869C429.734 121.869 430.051 121.884 430.401 121.912C430.761 121.931 431.059 121.964 431.296 122.011V126.741C431.078 126.666 430.733 126.599 430.259 126.543C429.795 126.476 429.345 126.443 428.91 126.443C427.972 126.443 427.129 126.647 426.381 127.054C425.643 127.452 425.06 128.006 424.634 128.716C424.208 129.426 423.995 130.245 423.995 131.173V144H418.853Z" fill="#FFF9F9"/>
<defs>
<clipPath id="clip0_103_15">
<rect width="219" height="41" fill="white" transform="translate(0 165.132) rotate(-17.1148)"/>
</clipPath>
</defs>
</svg>
