<svg width="314" height="207" viewBox="0 0 314 207" fill="none" xmlns="http://www.w3.org/2000/svg">
<path fill-rule="evenodd" clip-rule="evenodd" d="M277.186 83.3876C279.839 72.7644 279.908 61.3383 276.873 50.0126C267.337 14.4201 230.752 -6.70213 195.159 2.83486C174.972 8.24408 159.439 22.3544 151.516 40.0498C137.758 31.6524 120.718 28.6871 103.919 33.1882C81.6736 39.1489 65.6079 56.6608 60.4462 77.5413C55.5426 77.6227 50.5697 78.3007 45.6178 79.6276C13.062 88.3509 -6.25806 121.814 2.46524 154.37C11.1885 186.926 44.6519 206.246 77.2076 197.523C88.0132 194.627 97.3607 189.006 104.709 181.598C119.623 196.579 141.916 203.386 163.8 197.523C176.064 194.236 186.45 187.439 194.166 178.502C209.346 200.753 237.443 212.099 264.935 204.733C299.726 195.411 320.373 159.65 311.05 124.859C306.022 106.091 293.299 91.4393 277.186 83.3876Z" fill="#70BCFF"/>
</svg>
