<svg width="338" height="331" viewBox="0 0 338 331" fill="none" xmlns="http://www.w3.org/2000/svg">
<path d="M243.509 77.3588C243.509 77.3588 241.429 54.2781 240.696 54.1182C240.604 42.3421 218.53 26.7698 213.629 23.3775C187.058 5.01058 170.324 6.13853 142.995 33.1502C121.427 54.4633 128.704 92.1568 129.47 94.7578C123.802 97.7965 129.091 105.751 135.155 104.556C135.155 104.556 133.386 109.623 138.928 111.736C144.469 113.849 146.246 111.997 146.246 111.997C146.246 111.997 142.456 117.552 150.39 119.286C150.39 119.286 146.886 121.323 152.302 123.2C157.717 125.078 162.273 117.064 162.273 117.064C162.273 117.064 161.616 123.234 166.812 124.648C172.008 126.062 178.013 119.918 178.013 119.918C178.013 119.918 183.428 126.753 188.321 125.995C193.215 125.229 196.28 119.791 196.28 119.791C196.28 119.791 195.699 123.689 200.55 123.007C204.946 122.392 204.533 115.751 204.415 114.505C204.559 115.768 205.451 122.535 208.247 121.803C213.722 120.372 212.425 115.928 213.41 117.275C214.395 118.613 219.28 117.376 223.373 114.556C227.104 111.988 225.251 107.569 225.251 107.569C225.251 107.569 228.931 108.731 231.399 104.539C231.399 104.539 231.651 110.709 236.351 107.897C240.469 105.431 235.795 98.2847 235.795 98.2847C235.795 98.2847 239.223 100.642 243.316 98.0658C246.6 96.0036 241.749 92.5019 241.749 92.5019C241.749 92.5019 247.83 93.8655 249.632 91.1046C251.434 88.3437 243.509 77.3504 243.509 77.3504V77.3588Z" fill="url(#paint0_linear_102_2)"/>
<path d="M240.461 130.65L305.342 141.239L303.464 70.7089C310.774 68.3604 317.233 71.8453 324.325 68.8571C328.072 84.5557 341.598 154.303 336.78 169.429C329.218 193.166 244.697 167.384 244.697 167.384L240.452 130.658L240.461 130.65Z" fill="url(#paint1_linear_102_2)"/>
<path d="M324.569 68.1079C324.569 68.1079 327.66 45.0693 324.906 45.507C322.152 45.9363 320.67 56.7443 320.67 56.7443C320.67 56.7443 321.764 38.9582 319.642 38.933C317.52 38.9161 313.174 56.1551 313.174 56.1551C313.174 56.1551 313.435 35.3219 311.717 35.5912C309.999 35.8606 306.471 56.1467 306.471 56.1467C306.471 56.1467 304.104 41.0121 301.35 41.4414C298.596 41.8707 301.805 64.6231 301.805 64.6231C301.805 64.6231 294.402 60.145 292.667 62.5272C290.924 64.9177 303.262 73.9076 303.262 73.9076L305.334 147.931L323.238 86.6348L324.569 68.0995V68.1079Z" fill="url(#paint2_linear_102_2)"/>
<path d="M199.121 102.327L209.295 134.507L234.964 131.207L210.449 173.193L159 151.451L178.934 142.31L169.199 98L199.121 102.327Z" fill="url(#paint3_linear_102_2)"/>
<path d="M172.822 24.1365C172.822 24.1365 210.341 19.6415 223.428 62.2424C236.524 104.835 206.34 120.601 185.134 120.289C163.928 119.978 146.756 99.7676 141.956 87.2255C137.147 74.6835 139.05 29.8772 172.822 24.1449V24.1365Z" fill="url(#paint4_linear_102_2)"/>
<path d="M190.008 61.2744C190.008 61.2744 191.373 55.9629 194.034 52.2172L193.445 54.633C193.445 54.633 194.228 53.564 195.508 52.5791C196.796 51.5943 207.214 48.8333 209.404 48.8838L208.915 48C208.915 48 213.109 50.5673 216.596 56.6868C216.596 56.6868 213.396 54.0522 211.56 54.0353C209.724 54.0185 193.807 59.0101 190.185 62.4444L190 61.2828L190.008 61.2744Z" fill="#010101"/>
<path d="M127.651 172.939L26.6403 304.378C26.6403 304.378 12.3654 295.422 9.08933 298.637C0.591761 306.962 -6.14565 335.346 8.99669 307.164C8.99669 307.164 -5.4298 351.937 15.4141 308.789C15.4141 308.789 6.72281 349.883 21.9831 314.159C21.9831 314.159 17.5195 348.856 26.514 317.77C26.514 317.77 31.6428 324.824 38.195 318.932C44.7555 313.04 154.55 207.661 158.576 194.336C162.601 181.012 127.643 172.939 127.643 172.939H127.651Z" fill="url(#paint5_linear_102_2)"/>
<path d="M220.206 133.234C220.206 133.234 232.713 128.436 243.459 130.54C254.205 132.645 274.982 162.527 280.851 175.81C286.721 189.092 290.974 210.195 290.974 210.195C290.974 210.195 212.896 249.858 178.999 239.067L156.774 199.943L140.595 217.619L105.022 190.052C105.022 190.052 124.577 157.645 147.392 152.19L168.219 146.096C168.219 146.096 220.686 160.608 220.189 133.234H220.206Z" fill="#161C40"/>
<g style="mix-blend-mode:multiply">
<path d="M128.005 69.278C129.765 73.0238 131.567 67.8386 131.567 67.8386C133.698 73.672 138.144 73.4278 138.144 73.4278C138.144 73.4278 134.338 76.1635 135.332 80.2628C136.317 84.3622 143.829 82.2999 143.829 82.2999C143.829 82.2999 143.568 90.1113 147.375 90.3049C151.19 90.4985 150.103 87.3335 150.103 87.3335C154.853 88.1416 151.805 83.8403 151.805 83.8403C153.017 82.0558 148.107 78.2426 148.107 78.2426C150.331 77.4346 148.899 72.9986 148.899 72.9986C150.112 74.9093 153.582 72.7629 153.582 72.7629C153.582 72.7629 155.3 75.4396 157.86 74.5053C160.429 73.5625 157.009 63.8319 157.009 63.8319C159.325 62.4009 154.449 52.3589 154.449 52.3589C154.449 52.3589 156.597 53.268 157.548 52.0643C158.5 50.8606 156.226 47.0559 156.226 47.0559C156.226 47.0559 157.312 48.47 161.288 47.3589C165.195 46.2646 164.05 39.9263 163.991 39.8589C167.789 40.6333 170.998 37.2832 170.998 37.2832C170.998 37.2832 172.901 40.465 174.451 39.9936C176 39.5222 179.967 33.1081 179.967 33.1081C183.344 33.7394 186.384 31.9886 186.384 31.9886C186.064 32.2664 190.183 38.2343 192.743 36.9717C195.202 35.7596 195.53 34.5643 195.556 34.4802C195.573 34.598 195.909 37.1822 198.764 41.5677C201.687 46.0626 204.997 43.3522 204.997 43.3522C204.997 43.3522 205.013 48.7815 206.058 50.7848C207.102 52.7882 208.753 54.3117 208.753 54.3117C208.753 54.3117 210.058 59.0508 211.86 58.0238C213.663 57.0053 213.292 55.2629 213.317 54.7242C213.343 54.1855 214.505 56.172 217.435 56.7528C220.366 57.3336 219.187 53.8404 219.187 53.8404C220.653 55.5912 222.977 54.5895 222.977 54.5895C222.977 54.5895 223.381 60.3639 225.108 62.0642C229.041 65.9447 230.38 57.9397 230.38 57.9397C233.125 56.6855 231.239 53.1333 231.239 53.1333C231.239 53.1333 232.098 53.9077 233.639 52.1653C235.172 50.4144 234.338 44.135 232.207 41.8454C230.077 39.5559 230.018 42.2663 230.018 42.2663C230.018 42.2663 234.464 38.7394 234.035 36.4835C233.605 34.236 230.843 30.4818 230.843 30.4818C230.843 30.4818 233.108 27.8472 233.016 25.2462C232.923 22.6536 231.34 16.7193 228.923 17.0139C226.582 17.3085 226.422 19.2108 226.43 19.4044C225.941 22.5526 209.468 22.965 209.468 22.965C209.468 22.965 212.677 25.8775 207.144 26.5761C200.205 27.4516 194.09 21.7529 194.09 21.7529C194.09 21.7529 187.563 25.4229 182.485 25.263C167.587 24.7832 158.542 21.8792 156.639 18.7479L157.178 23.6553L154.407 24.8506C154.407 24.8506 158.39 26.0627 158.963 30.9953C159.216 33.1502 151.426 35.8438 150.28 33.7394C150.28 33.7394 151.064 38.4364 145.968 38.6216C145.968 38.6216 150.011 39.6906 148.941 44.2865C147.88 48.8825 129.537 50.3976 127.887 44.539C127.887 44.539 123.499 47.8219 123.979 50.2377C124.459 52.6535 127.457 51.3825 127.457 51.3825C126.885 54.8505 129.268 59.0171 129.268 59.0171C129.268 59.0171 126.236 65.5491 127.996 69.2949L128.005 69.278Z" fill="#010101"/>
</g>
<path d="M198.314 73.9467C197.219 73.8793 199.695 64.7295 205.784 61.9097C213.145 58.509 216.438 65.0999 216.716 66.5309C217.002 67.9618 203.569 74.2413 198.306 73.9382L198.314 73.9467Z" fill="url(#paint6_linear_102_2)"/>
<path d="M207.062 72.3601C209.869 71.9211 211.783 69.2493 211.336 66.3925C210.889 63.5357 208.25 61.5756 205.443 62.0145C202.635 62.4535 200.721 65.1253 201.168 67.9821C201.615 70.8389 204.254 72.799 207.062 72.3601Z" fill="url(#paint7_linear_102_2)"/>
<path d="M207.015 72.0607C209.657 71.6476 211.458 69.1308 211.036 66.4393C210.615 63.7478 208.132 61.9008 205.489 62.3139C202.847 62.727 201.047 65.2438 201.468 67.9353C201.889 70.6268 204.373 72.4738 207.015 72.0607Z" fill="url(#paint8_linear_102_2)"/>
<path style="mix-blend-mode:multiply" d="M209.322 66.472C209.709 68.1975 208.656 69.9063 206.963 70.2935C205.271 70.6807 203.586 69.5948 203.191 67.8777C202.795 66.1605 203.856 64.4433 205.549 64.0561C207.241 63.6689 208.926 64.7548 209.322 66.472Z" fill="url(#paint9_linear_102_2)"/>
<path d="M198.205 72.2295C198.205 72.2295 198.786 60.0578 205.591 57.4315C212.404 54.8053 216.093 65.0241 216.093 65.0241C216.093 65.0241 213.179 59.8726 206.593 61.7497C199.999 63.6268 198.205 72.2295 198.205 72.2295V72.2295Z" fill="url(#paint10_linear_102_2)"/>
<path d="M198.112 72.7345L199.569 73.9129C199.569 73.9129 198.171 74.3759 197.935 74.0055C197.7 73.6352 198.112 72.7345 198.112 72.7345Z" fill="#D86B7C"/>
<path d="M200.546 73.8287C200.546 73.8287 206.264 73.4163 210.821 71.3708C215.377 69.317 216.531 66.9685 216.531 66.9685C216.531 66.9685 209.675 71.5897 200.546 73.8287V73.8287Z" fill="#D86B7C"/>
<path d="M209.566 65.386C209.322 65.7312 210.745 65.4702 211.705 64.8137C212.556 64.2244 212.876 63.5089 212.758 63.4164C212.64 63.3322 210.517 64.0308 209.566 65.386Z" fill="white"/>
<path d="M208.825 65.8407C208.395 65.7901 207.974 66.11 208.008 66.3289C208.041 66.5477 208.597 66.7077 208.799 66.5646C209.01 66.4215 209.06 65.8659 208.825 65.8407V65.8407Z" fill="white"/>
<g style="mix-blend-mode:multiply" opacity="0.6">
<path d="M198.112 72.7345C198.112 72.7345 201.085 65.9584 206.382 63.6184C211.68 61.2783 215.074 63.8541 215.074 63.8541C215.074 63.8541 213.372 59.9147 206.239 62.1116C199.106 64.3002 198.112 72.7345 198.112 72.7345V72.7345Z" fill="#CC78B1"/>
</g>
<path d="M198.112 72.7345C198.112 72.7345 199.729 64.3254 207.107 62.0527C213.692 60.0325 216.43 65.6891 216.43 65.6891C216.43 65.6891 215.95 60.3019 211.065 60.1251C206.424 59.9568 199.426 64.0392 198.112 72.7345V72.7345Z" fill="#401432"/>
<path d="M175.912 77.4482C176.931 77.0526 171.777 69.0981 165.124 68.2732C157.081 67.2799 155.961 74.5695 156.121 76.0173C156.29 77.4651 170.994 79.3506 175.912 77.4482Z" fill="url(#paint11_linear_102_2)"/>
<path d="M167.091 78.6067C169.899 78.1673 171.812 75.4952 171.364 72.6384C170.917 69.7816 168.278 67.822 165.47 68.2614C162.662 68.7009 160.749 71.373 161.197 74.2298C161.644 77.0865 164.283 79.0462 167.091 78.6067Z" fill="url(#paint12_linear_102_2)"/>
<path d="M167.035 78.312C169.678 77.8989 171.478 75.3822 171.057 72.6907C170.636 69.9992 168.152 68.1522 165.51 68.5653C162.868 68.9784 161.067 71.4951 161.488 74.1866C161.91 76.8781 164.393 78.7251 167.035 78.312Z" fill="url(#paint13_linear_102_2)"/>
<path style="mix-blend-mode:multiply" d="M163.145 73.6941C163.297 75.4533 164.829 76.7581 166.556 76.6065C168.282 76.455 169.562 74.9146 169.402 73.1554C169.251 71.3961 167.718 70.0914 165.992 70.2429C164.265 70.3944 162.985 71.9348 163.145 73.6941Z" fill="url(#paint14_linear_102_2)"/>
<path d="M175.483 75.7816C175.483 75.7816 171.213 64.3675 163.928 63.9466C156.643 63.5258 156.248 74.3759 156.248 74.3759C156.248 74.3759 157.443 68.5847 164.29 68.3574C171.137 68.1385 175.483 75.7732 175.483 75.7732V75.7816Z" fill="url(#paint15_linear_102_2)"/>
<path d="M175.727 76.2362L174.7 77.8019C174.7 77.8019 176.173 77.8187 176.283 77.3894C176.401 76.9685 175.727 76.2362 175.727 76.2362V76.2362Z" fill="#D86B7C"/>
<path d="M173.748 78.0207C173.748 78.0207 168.173 79.3759 163.212 78.8119C158.252 78.2479 156.424 76.3708 156.424 76.3708C156.424 76.3708 164.366 78.6857 173.74 78.0207H173.748Z" fill="#D86B7C"/>
<path d="M162.581 72.7345C162.918 72.987 161.486 73.1806 160.374 72.8439C159.38 72.5409 158.858 71.9516 158.943 71.8338C159.027 71.716 161.259 71.7328 162.581 72.7345V72.7345Z" fill="white"/>
<path d="M163.423 72.9449C163.819 72.7681 164.316 72.9449 164.349 73.1637C164.383 73.3826 163.903 73.7025 163.667 73.6267C163.423 73.5509 163.204 73.0459 163.423 72.9449Z" fill="white"/>
<g style="mix-blend-mode:multiply" opacity="0.6">
<path d="M175.727 76.2362C175.727 76.2362 170.826 70.6975 165.065 70.083C159.305 69.4685 156.862 72.9618 156.862 72.9618C156.862 72.9618 157.275 68.6941 164.737 68.6015C172.198 68.5089 175.719 76.2362 175.719 76.2362H175.727Z" fill="#CC78B1"/>
</g>
<path d="M175.727 76.2361C175.727 76.2361 171.617 68.7193 163.903 68.8119C157.014 68.8961 156.138 75.1166 156.138 75.1166C156.138 75.1166 154.951 69.8389 159.54 68.1806C163.911 66.5981 171.819 68.3574 175.727 76.2361V76.2361Z" fill="#401432"/>
<g style="mix-blend-mode:multiply">
<path d="M176.722 63.399C176.722 63.399 173.8 58.7609 170.12 56L171.417 58.1212C171.417 58.1212 170.347 57.3384 168.823 56.7912C167.298 56.2441 156.527 56.7912 154.464 57.5151L154.657 56.5303C154.657 56.5303 151.449 60.2592 150 67.1532C150 67.1532 152.24 63.6683 153.983 63.0875C155.727 62.5067 172.402 62.4057 176.908 64.569L176.722 63.4074V63.399Z" fill="#010101"/>
</g>
<path d="M143.455 114.373C138.596 115.442 132.734 114.844 130.343 110.778C130.301 110.787 123.925 112.277 119.613 101.949C115.874 92.9839 118.173 88.4637 118.173 88.4637C118.173 88.4637 114.543 85.4503 113.988 83.1018C112.733 77.8072 114.324 68.851 118.097 68.6995C121.879 68.548 124.616 71.3678 124.616 71.3678C124.616 71.3678 127.117 65.2652 130.149 65.8123C133.181 66.3594 140.828 76.7466 140.828 76.7466C140.828 76.7466 145.14 73.0766 146.917 75.3072C148.694 77.5378 150.942 83.186 150.942 83.186C150.942 83.186 155.945 85.8038 155.162 91.8139C155.162 91.8139 157.183 95.9048 153.241 99.2886C152.391 100.021 151.254 100.72 149.772 101.334C149.772 101.334 152.104 105.332 150.816 109.836C150.26 111.78 147.152 113.556 143.464 114.373H143.455Z" fill="#010101"/>
<path d="M116.054 69.3191C117.814 73.0649 119.616 67.8798 119.616 67.8798C121.747 73.7131 126.194 73.469 126.194 73.469C126.194 73.469 122.387 76.2046 123.381 80.304C124.366 84.4033 131.878 82.341 131.878 82.341C131.878 82.341 131.617 90.1524 135.424 90.346C139.239 90.5396 138.153 87.3746 138.153 87.3746C142.902 88.1827 139.854 83.8814 139.854 83.8814C141.067 82.0969 136.157 78.2838 136.157 78.2838C138.38 77.4757 136.948 73.0397 136.948 73.0397C138.161 74.9504 141.631 72.804 141.631 72.804C141.631 72.804 143.349 75.4807 145.909 74.5464C148.478 73.6036 145.058 63.873 145.058 63.873C147.374 62.4421 142.498 52.4 142.498 52.4C142.498 52.4 144.646 53.3091 145.597 52.1054C146.532 50.927 144.359 47.2485 144.275 47.1054C144.343 47.1896 145.48 48.4775 149.337 47.4C153.244 46.3058 152.099 39.9674 152.04 39.9001C155.838 40.6745 159.047 37.3243 159.047 37.3243C159.047 37.3243 160.95 40.5061 162.5 40.0347C164.05 39.5634 168.016 33.1492 168.016 33.1492C171.393 33.7805 174.434 32.0297 174.434 32.0297C174.114 32.3075 178.232 38.2755 180.792 37.0129C183.251 35.8007 183.58 34.6055 183.605 34.5213C183.622 34.6391 183.959 37.2233 186.814 41.6088C189.736 46.1037 193.046 43.3933 193.046 43.3933C193.046 43.3933 193.063 48.8226 194.107 50.8259C195.151 52.8293 196.802 54.3529 196.802 54.3529C196.802 54.3529 198.107 59.0919 199.909 58.065C201.712 57.0465 201.341 55.304 201.366 54.7653C201.392 54.2266 202.554 56.2131 205.485 56.7939C208.415 57.3747 207.236 53.8815 207.236 53.8815C208.702 55.6323 211.026 54.6306 211.026 54.6306C211.026 54.6306 211.43 60.405 213.157 62.1054C217.09 65.9858 218.429 57.9808 218.429 57.9808C221.174 56.7266 219.288 53.1744 219.288 53.1744C219.288 53.1744 220.147 53.9488 221.688 52.2064C223.221 50.4556 222.387 44.1761 220.256 41.8866C218.277 39.7654 218.084 41.9371 218.067 42.2654C218.067 42.2906 218.067 42.3075 218.067 42.3075C218.067 42.3075 222.514 38.7805 222.084 36.5246C221.654 34.2772 218.892 30.523 218.892 30.523C218.892 30.523 221.158 27.8883 221.065 25.2873C220.972 22.6947 219.389 16.7604 216.972 17.055C214.631 17.3496 214.471 19.252 214.479 19.4456C214.479 19.4456 213.157 15.4304 211.953 14.2604C211.169 13.5028 208.483 12.4506 207.497 12.4927C205.114 12.6022 203.649 14.0836 203.649 14.0836C201.215 12.8631 198.697 10.119 198.697 10.119C198.697 10.119 200.364 8.68803 198.882 6.77726C195.656 2.60219 186.241 0.842938 181.55 0.152705C175.175 -0.790053 172.134 2.93889 172.193 2.98098C165.885 2.60219 161.304 4.25202 161.304 4.25202C161.304 4.25202 161.287 3.41869 158.735 3.11566C156.293 2.82946 154.786 3.99949 153.278 6.28063L153.253 6.32272C153.253 6.32272 151.324 4.95067 148.714 6.8446C145.606 9.09207 143.66 15.4894 145.227 23.6964C144.216 23.9994 143.669 24.2267 142.456 24.8917C129.495 20.1274 129.967 29.9253 129.967 29.9253C129.967 29.9253 127.895 29.6055 124.366 30.8849C120.939 32.1223 121.04 32.7873 121.334 34.0162C121.638 35.2789 124.223 35.2536 124.223 35.2536C116.904 39.294 118.075 38.9825 118.075 38.9825C115.456 41.2132 115.565 43.2334 115.784 44.1088C115.86 44.4034 115.944 44.5718 115.944 44.5718C115.944 44.5718 111.557 47.8546 112.037 50.2704C112.517 52.6862 115.515 51.4152 115.515 51.4152C115.178 53.4606 115.86 55.7417 116.483 57.2737C116.921 58.3428 117.326 59.0498 117.326 59.0498C117.326 59.0498 114.294 65.5818 116.054 69.3276V69.3191Z" fill="#010101"/>
<g style="mix-blend-mode:multiply">
<path d="M116.054 69.3191C117.814 73.0649 119.616 67.8797 119.616 67.8797C121.747 73.713 126.194 73.4689 126.194 73.4689C126.194 73.4689 122.387 76.2046 123.381 80.3039C124.366 84.4032 131.879 82.3409 131.879 82.3409C131.879 82.3409 131.618 90.1524 135.424 90.346C139.239 90.5396 138.153 87.3746 138.153 87.3746C142.903 88.1827 139.854 83.8813 139.854 83.8813C141.067 82.0968 136.157 78.2837 136.157 78.2837C138.38 77.4756 136.948 73.0396 136.948 73.0396C138.161 74.9504 141.631 72.8039 141.631 72.8039C141.631 72.8039 143.349 75.4807 145.909 74.5464C148.478 73.6036 145.059 63.873 145.059 63.873C147.375 62.442 142.498 52.4 142.498 52.4C142.498 52.4 144.646 53.3091 145.598 52.1054C146.532 50.9269 144.36 47.2485 144.275 47.1054C144.343 47.1895 145.48 48.4774 149.337 47.4C153.245 46.3057 152.099 39.9673 152.04 39.9C155.839 40.6744 159.047 37.3243 159.047 37.3243C159.047 37.3243 160.951 40.5061 162.5 40.0347C164.05 39.5633 168.016 33.1492 168.016 33.1492C171.394 33.7805 174.434 32.0297 174.434 32.0297C174.114 32.3074 178.232 38.2754 180.792 37.0128C183.251 35.8007 183.58 34.6054 183.605 34.5212C183.622 34.6391 183.959 37.2233 186.814 41.6088C189.736 46.1037 193.046 43.3933 193.046 43.3933C193.046 43.3933 193.063 48.8225 194.107 50.8259C195.151 52.8293 196.802 54.3528 196.802 54.3528C196.802 54.3528 198.107 59.0919 199.91 58.0649C201.712 57.0464 201.341 55.304 201.367 54.7653C201.392 54.2266 202.554 56.2131 205.485 56.7939C208.416 57.3747 207.237 53.8814 207.237 53.8814C208.702 55.6323 211.026 54.6306 211.026 54.6306C211.026 54.6306 211.431 60.405 213.157 62.1053C217.09 65.9858 218.429 57.9808 218.429 57.9808C221.175 56.7266 219.288 53.1744 219.288 53.1744C219.288 53.1744 220.147 53.9488 221.688 52.2064C223.221 50.4555 222.387 44.1761 220.257 41.8865C218.278 39.7653 218.084 41.937 218.067 42.2653C218.067 42.2906 218.067 42.3074 218.067 42.3074C218.8 46.4825 214.825 43.2838 214.825 43.2838C214.825 43.2838 214.858 45.8596 212.096 45.0936C212.256 45.1441 214.286 45.8512 212.146 46.8444C209.923 47.8798 207.481 44.134 207.481 44.134C207.481 44.134 206.664 46.3983 203.91 46.5919C203.91 46.5919 206.858 47.8124 203.607 48.7889C200.356 49.7653 201.19 43.1997 201.19 43.1997C201.19 43.1997 199.379 45.1188 197.206 43.1239C195.025 41.129 195.227 36.5751 195.227 36.5751C195.227 36.5751 194.427 39.7485 190.814 39.2855C187.201 38.8226 184.498 32.4926 184.498 32.4926C184.498 32.4926 183.218 34.0162 181.584 34.5381C179.958 35.0515 178.384 29.8495 178.384 29.8495C178.384 29.8495 178.316 31.794 174.425 30.4051C174.425 30.4051 174.914 31.7182 172.244 31.8866C169.574 32.0549 166.096 28.9236 166.096 28.9236C166.096 28.9236 166.526 34.0667 164.479 35.0515C162.433 36.0364 161.709 28.7805 161.709 28.7805C161.709 28.7805 159.468 32.4505 157.009 31.4489C154.55 30.4472 153.775 28.2081 153.775 28.2081C153.775 28.2081 155.047 31.8024 152.192 32.2822C149.455 32.7367 148.082 30.8681 147.964 30.7081C148.133 30.9943 151.274 36.5246 147.231 38.3344C147.72 38.1239 151.51 36.5667 150.785 39.1004C150.011 41.8108 145.598 39.9337 145.598 39.9337C145.598 39.9337 147.316 41.8865 145.446 43.4606C143.728 44.9084 142.675 43.7721 142.507 43.57C142.751 43.9151 145.042 47.299 141.218 49.3192C141.412 49.235 143.93 48.2165 143.349 49.8747C142.743 51.6003 139.526 52.1138 139.526 52.1138C139.526 52.1138 142.263 54.033 141.05 55.5902C140.57 56.2047 139.778 56.3057 138.987 56.1963C141.345 57.1811 144.385 59.075 142.945 61.9875C141.286 65.3292 138.119 63.4858 136.57 62.2905C137.589 63.2922 138.936 65.102 137.479 66.6592C135.332 68.9572 131.626 63.8477 131.626 63.8477C131.626 63.8477 131.921 66.6928 128.56 66.4235C128.56 66.4235 132.325 68.9487 130.127 70.346C127.92 71.7433 121.385 70.8848 122.909 67.5767C122.909 67.5767 120.223 65.8258 121.714 63.6289C121.714 63.6289 117.486 63.7467 117.351 59.0498C117.351 59.0498 114.319 65.5817 116.079 69.3275L116.054 69.3191Z" fill="#010101"/>
</g>
<g style="mix-blend-mode:soft-light" opacity="0.5">
<path d="M170.922 17.8209C170.922 17.8209 168.589 19.3024 171.09 19.7653C173.592 20.2283 177.499 18.1071 177.499 18.1071C185.003 18.4606 187.159 16.7014 185.744 13.8478C185.744 13.8478 190.09 7.57683 182.839 7.92194C181.003 8.00612 182.03 9.51285 182.064 9.5381C178.257 9.31083 178.956 11.0953 178.956 11.0953C178.956 11.0953 173.886 8.70477 172.337 8.6711C156.529 8.30073 162.669 12.7872 162.669 12.7872C147.678 19.7064 170.939 17.8293 170.939 17.8293L170.922 17.8209Z" fill="#010101"/>
</g>
<path d="M198.695 84.552C198.695 84.552 198.603 85.116 196.573 85.5032C194.543 85.8988 192.918 87.978 189.457 88.5251C185.995 89.0638 183.982 87.5571 181.927 87.7928C179.873 88.0369 179.443 87.5571 179.443 87.5571C178.929 86.2692 178.921 84.9477 179.123 83.7776C179.123 83.7776 179.123 83.744 179.123 83.7355C179.494 81.6817 180.487 80.1244 180.487 80.1244C184.976 77.0184 190.189 76.2019 195.419 77.7928C195.419 77.7928 196.337 78.5504 197.196 79.7962V79.813C198.03 81.0167 198.813 82.6749 198.678 84.552H198.695Z" fill="url(#paint16_linear_102_2)"/>
<path d="M194.257 86.5386C194.257 86.5386 195.613 84.9477 197.651 85.2254L194.257 86.5386Z" fill="#812852"/>
<path d="M180.866 87.8609C180.866 87.8609 182.753 86.9581 184.985 88.2237L180.866 87.8609Z" fill="#812852"/>
<g style="mix-blend-mode:multiply" opacity="0.6">
<path d="M198.695 84.552C198.695 84.552 198.603 85.116 196.573 85.5032C194.543 85.8988 192.918 87.9779 189.457 88.5251C185.995 89.0638 183.982 87.5571 181.927 87.7928C179.873 88.0369 179.443 87.5571 179.443 87.5571C178.929 86.2692 178.921 84.9477 179.123 83.7776C179.098 84.1143 178.997 86.286 179.889 86.6732C180.858 87.0857 185.827 85.983 188.977 85.4864C192.126 84.9897 197.483 84.1648 197.954 83.2389C198.409 82.3467 197.306 80.0234 197.196 79.813C198.03 81.0167 198.813 82.6749 198.678 84.552H198.695Z" fill="#CC78B1"/>
</g>
<path style="mix-blend-mode:multiply" opacity="0.6" d="M195.419 77.7844C195.419 77.7844 194.838 81.4292 195.352 83.845C195.352 83.845 194.147 81.6059 194.653 77.574L195.419 77.7844V77.7844Z" fill="url(#paint17_linear_102_2)"/>
<path style="mix-blend-mode:multiply" opacity="0.6" d="M180.664 80.0992C180.664 80.0992 182.332 83.3989 182.576 85.8483C182.576 85.8483 183.039 83.3399 181.33 79.6615L180.664 80.0992V80.0992Z" fill="url(#paint18_linear_102_2)"/>
<g style="mix-blend-mode:multiply" opacity="0.6">
<path d="M179.889 86.6732C179.889 86.6732 179.494 87.2793 179.435 87.5655C179.376 87.8517 184.631 91.4544 189.777 90.6463C194.922 89.8382 198.67 85.0908 198.687 84.552C198.695 84.0133 197.752 83.4746 197.752 83.4746C197.752 83.4746 193.827 84.7288 188.977 85.4864C184.117 86.244 179.889 86.6732 179.889 86.6732V86.6732Z" fill="#CC78B1"/>
</g>
<path d="M192.901 83.6598C192.109 83.3568 193.204 81.951 193.558 81.951C193.912 81.951 194.223 82.6918 194.114 83.2221C194.004 83.7524 193.238 83.7861 192.901 83.6598Z" fill="#FBCBBB"/>
<path style="mix-blend-mode:multiply" opacity="0.6" d="M179.652 68.4554C179.652 68.4554 182.945 84.2886 179.694 89.0866C176.443 93.893 160.619 95.164 152.206 91.3341C143.792 87.5041 147.515 66.3426 147.515 66.3426C147.515 66.3426 151.212 59.7012 163.137 58.9352C175.062 58.1692 179.652 68.4469 179.652 68.4469V68.4554Z" fill="url(#paint19_linear_102_2)"/>
<path style="mix-blend-mode:multiply" opacity="0.6" d="M192.571 66.5867C192.571 66.5867 194.373 80.7786 198.534 84.053C202.702 87.319 216.809 84.0194 223.058 78.346C229.307 72.6726 220.161 55.3157 220.161 55.3157C220.161 55.3157 215.091 50.5767 204.513 53.2366C193.935 55.8965 192.563 66.5952 192.563 66.5952L192.571 66.5867Z" fill="url(#paint20_linear_102_2)"/>
<path d="M178.229 71.3763C178.54 71.0059 180.747 68.4975 185.413 67.4706C190.508 66.351 194.205 67.9419 194.609 68.1187" stroke="url(#paint21_linear_102_2)" stroke-miterlimit="10"/>
<g style="mix-blend-mode:multiply" opacity="0.4">
<path d="M183.024 104.172C185.575 105.847 188.397 107.825 191.69 107.573C194.983 107.32 198.023 103.718 199.977 101.226C195.589 106.293 188.894 107.303 183.024 104.18V104.172Z" fill="#CC78B1"/>
</g>
<path d="M175.848 96.9161C179.2 102.32 185.188 107.076 191.841 106.015C198.722 104.913 202.857 98.8858 204.238 92.4969C199.665 94.4835 195.345 96.9835 191.024 99.4582C186.022 98.406 180.927 97.3791 175.84 96.9161H175.848Z" fill="#F26665"/>
<path d="M205.072 91.3522C204.567 92.7158 203.825 93.9953 202.916 95.1485C200.069 98.7596 195.538 101.243 191.269 101.925C187.622 102.505 183.571 102.051 180.135 100.468C177.979 99.475 176.067 98.0357 174.636 96.1249C178.922 97.1434 184.674 97.0087 189.172 96.3774C189.559 96.3185 189.946 96.2596 190.317 96.2006C191.639 96.007 193.037 95.7377 194.46 95.3926C198.174 94.5003 202.049 93.1114 205.08 91.3606L205.072 91.3522Z" fill="#731C55"/>
<g style="mix-blend-mode:multiply" opacity="0.4">
<path d="M174.636 96.1166C178.922 97.1351 184.674 97.0004 189.172 96.3691C183.933 97.5223 179.377 99.0964 180.135 100.46C177.979 99.4667 176.067 98.0273 174.636 96.1166Z" fill="#CC78B1"/>
</g>
<g style="mix-blend-mode:multiply" opacity="0.6">
<path d="M205.072 91.3522C204.567 92.7158 203.825 93.9953 202.916 95.1485C202.714 94.4835 198.907 94.7023 194.46 95.3841C198.174 94.4919 202.048 93.103 205.08 91.3522H205.072Z" fill="#CC78B1"/>
</g>
<path d="M183.664 101.714C185.483 100.721 188.725 99.8791 190.864 99.9633C193.374 99.0795 198.099 99.433 198.099 99.433C195.833 100.721 193.526 101.706 190.873 102.034C188.607 102.312 185.98 102.068 183.672 101.714H183.664Z" fill="#BE2741"/>
<path d="M175.68 96.3101C180.388 97.1603 185.55 97.0761 190.309 96.1839C195.075 95.5778 199.884 94.1216 204.179 91.832C199.008 92.3034 188.708 93.4145 175.68 96.3101Z" fill="#D74058"/>
<path d="M178.476 96.7225C182.047 98.6585 186.384 99.4919 190.418 98.8521C194.452 98.2124 198.36 96.1501 201.24 93.2629C197.762 94.7949 194.073 95.5946 190.283 96.1922C186.493 96.7899 182.35 97.0929 178.476 96.7225V96.7225Z" fill="#FBDBE9"/>
<path d="M203.388 90.6283C204.626 91.2344 205.754 91.9583 206.52 93.0947C206.276 92.1687 205.813 90.7378 205.072 90.2159C204.322 89.694 203.893 90.2327 203.388 90.6283Z" fill="#D86B7C"/>
<path d="M176.253 94.8624C175.259 95.8135 174.408 96.8489 174.021 98.162C173.97 97.2108 173.97 95.721 174.518 94.997C175.065 94.2731 175.646 94.6435 176.253 94.8624Z" fill="#D86B7C"/>
<g style="mix-blend-mode:soft-light">
<path d="M195.926 101.243C196.6 101.579 197.096 102.11 197.526 102.724C197.745 102.564 197.972 102.413 198.191 102.253C198.116 101.596 197.366 101.1 196.903 100.746C196.574 100.914 196.254 101.083 195.926 101.243Z" fill="#FBDBE9"/>
</g>
<g style="mix-blend-mode:soft-light">
<path d="M197.299 100.687C197.913 100.931 198.259 101.411 198.486 102.017C198.545 101.933 198.604 101.84 198.663 101.756C198.41 101.175 198.014 100.805 197.391 100.679C197.358 100.679 197.332 100.687 197.299 100.696V100.687Z" fill="#FBDBE9"/>
</g>
<path d="M183.655 101.706C188.456 102.396 193.652 101.159 198.082 99.4246C194.107 102.413 188.313 102.648 183.655 101.706Z" fill="#FBDBE9"/>
<g style="mix-blend-mode:soft-light" opacity="0.5">
<path d="M188.372 100.94C190.342 101.352 194.823 99.2646 190.864 99.9717C189.197 100.266 185.769 100.401 188.372 100.94Z" fill="#F7A9B0"/>
</g>
<g style="mix-blend-mode:multiply">
<path d="M129.049 26.8915C129.049 26.8915 126.827 4.96025 112.05 6.4358C97.2718 7.91136 97.9232 35.9698 97.9232 35.9698L100.289 33.8329C100.289 33.8329 97.3687 18.7532 105.339 15.8329C113.311 12.9215 120.671 17.2461 120.671 17.2461C120.671 17.2461 98.896 11.584 92.8883 24.6604C86.8718 37.7382 95.9753 60.4246 110.199 55.9429C124.422 51.4523 129.058 26.8901 129.058 26.8901L129.049 26.8915Z" fill="#010101"/>
</g>
<path style="mix-blend-mode:multiply" d="M91.37 38.6345C91.37 38.6345 106.398 17.5417 125.743 28.6308L127.136 27.8646C127.136 27.8646 108.656 15.1143 91.0165 33.3469L91.3714 38.6433L91.37 38.6345Z" fill="url(#paint22_linear_102_2)"/>
<path d="M92.3388 25.9649C92.3388 25.9649 110.806 11.8716 127.248 22.902L125.449 20.034C125.449 20.034 117.36 11.7371 92.8795 24.6612L92.3388 25.9649Z" fill="#010101"/>
<path style="mix-blend-mode:multiply" d="M100.321 54.5835C100.321 54.5835 96.8387 29.9274 123.486 30.0012L122.633 30.63C122.633 30.63 97.8292 32.0706 102.456 55.7005L100.33 54.5821L100.321 54.5835Z" fill="url(#paint23_linear_102_2)"/>
<path d="M131.023 25.3856C131.023 25.3856 118.472 32.6827 115.361 53.0503C115.361 53.0503 105.999 33.6218 131.023 25.3856Z" fill="#F78E1E"/>
<path d="M233.776 68.6612C233.776 69.545 233.743 70.3447 233.684 71.0602V71.0938C233.271 76.2285 231.654 77.6763 231.284 80.0164C230.964 82.045 229.111 86.3042 226.045 82.651L226.037 82.6426C226.037 82.6426 224.63 66.077 225.094 62.9541C225.094 62.9541 225.734 58.274 228.05 57.2218C231.023 55.8666 233.802 60.8498 233.785 68.6528L233.776 68.6612Z" fill="url(#paint24_linear_102_2)"/>
<path style="mix-blend-mode:multiply" opacity="0.6" d="M225.279 72.3565C225.279 72.3565 228.707 62.4576 230.938 61.4895C233.17 60.53 233.221 68.4676 233.153 71.1191C233.094 73.7791 232.631 75.4121 232.631 75.4121C232.631 75.4121 232.741 72.2723 232.471 69.7808C232.084 66.2118 230.736 63.2993 229.801 63.7454C228.867 64.1916 228.26 68.8548 228.252 69.3683C228.252 69.8902 229.119 70.6814 229.507 73.4424C229.894 76.2033 229.347 79.3514 228.791 79.402C228.235 79.4525 228.125 77.1882 227.721 74.6124C227.317 72.0367 225.843 72.7858 225.422 74.5619L225.279 72.3481V72.3565Z" fill="url(#paint25_linear_102_2)"/>
<path style="mix-blend-mode:multiply" opacity="0.6" d="M225.422 74.5618C225.422 74.5618 226.289 71.9187 227.207 72.912C228.134 73.9053 228.075 77.0787 228.707 77.3564C229.338 77.6342 229.717 75.0248 229.212 72.7689C228.707 70.513 227.687 68.577 226.753 69.1157L225.279 72.3565L225.422 74.5703V74.5618Z" fill="url(#paint26_linear_102_2)"/>
<path style="mix-blend-mode:multiply" d="M233.675 71.0939C233.263 76.2285 231.654 77.6763 231.275 80.0164C230.955 82.045 229.102 86.3043 226.037 82.6511C226.205 82.7858 227.848 84.04 229.17 83.1477C230.568 82.1965 230.761 80.3026 231.174 78.7874C231.587 77.2807 233.069 76.0518 233.675 71.0854V71.0939Z" fill="url(#paint27_linear_102_2)"/>
<defs>
<linearGradient id="paint0_linear_102_2" x1="193.004" y1="123.271" x2="184.975" y2="71.9161" gradientUnits="userSpaceOnUse">
<stop stop-color="#31111B"/>
<stop offset="1" stop-color="#1A0F21"/>
</linearGradient>
<linearGradient id="paint1_linear_102_2" x1="239.791" y1="136.055" x2="334.069" y2="121.3" gradientUnits="userSpaceOnUse">
<stop stop-color="#F7A393"/>
<stop offset="0.43" stop-color="#F5A794"/>
<stop offset="0.51" stop-color="#F5A18E"/>
<stop offset="0.76" stop-color="#F59584"/>
<stop offset="1" stop-color="#F69181"/>
</linearGradient>
<linearGradient id="paint2_linear_102_2" x1="296.824" y1="93.6126" x2="332.252" y2="88.0682" gradientUnits="userSpaceOnUse">
<stop stop-color="#F7A393"/>
<stop offset="0.43" stop-color="#F5A794"/>
<stop offset="0.51" stop-color="#F5A18E"/>
<stop offset="0.76" stop-color="#F59584"/>
<stop offset="1" stop-color="#F69181"/>
</linearGradient>
<linearGradient id="paint3_linear_102_2" x1="157.303" y1="140.698" x2="234.549" y2="128.609" gradientUnits="userSpaceOnUse">
<stop stop-color="#F9AD99"/>
<stop offset="0.18" stop-color="#F79B8D"/>
<stop offset="0.46" stop-color="#F48781"/>
<stop offset="0.73" stop-color="#F37B79"/>
<stop offset="1" stop-color="#F37777"/>
</linearGradient>
<linearGradient id="paint4_linear_102_2" x1="140.104" y1="78.6251" x2="224.731" y2="65.3813" gradientUnits="userSpaceOnUse">
<stop stop-color="#F7A393"/>
<stop offset="0.43" stop-color="#F5A794"/>
<stop offset="0.51" stop-color="#F5A18E"/>
<stop offset="0.76" stop-color="#F59584"/>
<stop offset="1" stop-color="#F69181"/>
</linearGradient>
<linearGradient id="paint5_linear_102_2" x1="-8.42575" y1="264.812" x2="166.061" y2="237.506" gradientUnits="userSpaceOnUse">
<stop stop-color="#F7A393"/>
<stop offset="0.43" stop-color="#F5A794"/>
<stop offset="0.51" stop-color="#F5A18E"/>
<stop offset="0.76" stop-color="#F59584"/>
<stop offset="1" stop-color="#F69181"/>
</linearGradient>
<linearGradient id="paint6_linear_102_2" x1="207.761" y1="72.7777" x2="206.174" y2="61.3639" gradientUnits="userSpaceOnUse">
<stop stop-color="#E8DCED"/>
<stop offset="1" stop-color="#BBC3E3"/>
</linearGradient>
<linearGradient id="paint7_linear_102_2" x1="207.411" y1="72.2557" x2="205.092" y2="62.0441" gradientUnits="userSpaceOnUse">
<stop stop-color="#48204B"/>
<stop offset="1" stop-color="#301138"/>
</linearGradient>
<linearGradient id="paint8_linear_102_2" x1="207.344" y1="71.9602" x2="205.161" y2="62.3478" gradientUnits="userSpaceOnUse">
<stop stop-color="#57345B"/>
<stop offset="1" stop-color="#301138"/>
</linearGradient>
<linearGradient id="paint9_linear_102_2" x1="206.96" y1="70.2701" x2="205.543" y2="64.0315" gradientUnits="userSpaceOnUse">
<stop stop-color="#A295B8"/>
<stop offset="0.99" stop-color="#734B61"/>
</linearGradient>
<linearGradient id="paint10_linear_102_2" x1="196.779" y1="65.944" x2="215.338" y2="61.7253" gradientUnits="userSpaceOnUse">
<stop stop-color="#F7A393"/>
<stop offset="0.43" stop-color="#F5A794"/>
<stop offset="0.51" stop-color="#F5A18E"/>
<stop offset="0.76" stop-color="#F59584"/>
<stop offset="1" stop-color="#F69181"/>
</linearGradient>
<linearGradient id="paint11_linear_102_2" x1="166.564" y1="79.2406" x2="164.59" y2="67.8873" gradientUnits="userSpaceOnUse">
<stop stop-color="#E8DCED"/>
<stop offset="1" stop-color="#BBC3E3"/>
</linearGradient>
<linearGradient id="paint12_linear_102_2" x1="166.755" y1="78.6559" x2="165.845" y2="68.2241" gradientUnits="userSpaceOnUse">
<stop stop-color="#48204B"/>
<stop offset="1" stop-color="#301138"/>
</linearGradient>
<linearGradient id="paint13_linear_102_2" x1="166.689" y1="78.321" x2="165.834" y2="68.5012" gradientUnits="userSpaceOnUse">
<stop stop-color="#57345B"/>
<stop offset="1" stop-color="#301138"/>
</linearGradient>
<linearGradient id="paint14_linear_102_2" x1="166.565" y1="76.6088" x2="166.009" y2="70.2357" gradientUnits="userSpaceOnUse">
<stop stop-color="#A295B8"/>
<stop offset="0.99" stop-color="#734B61"/>
</linearGradient>
<linearGradient id="paint15_linear_102_2" x1="174.937" y1="69.3805" x2="155.968" y2="71.0376" gradientUnits="userSpaceOnUse">
<stop stop-color="#F7A393"/>
<stop offset="0.43" stop-color="#F5A794"/>
<stop offset="0.51" stop-color="#F5A18E"/>
<stop offset="0.76" stop-color="#F59584"/>
<stop offset="1" stop-color="#F69181"/>
</linearGradient>
<linearGradient id="paint16_linear_102_2" x1="189.448" y1="88.5413" x2="187.677" y2="77.2142" gradientUnits="userSpaceOnUse">
<stop stop-color="#F37A7F"/>
<stop offset="0.47" stop-color="#F4837F"/>
<stop offset="1" stop-color="#F58880"/>
</linearGradient>
<linearGradient id="paint17_linear_102_2" x1="195.698" y1="83.8155" x2="194.723" y2="77.5781" gradientUnits="userSpaceOnUse">
<stop stop-color="#FCE4D6"/>
<stop offset="0.99" stop-color="#AE7DB7"/>
</linearGradient>
<linearGradient id="paint18_linear_102_2" x1="182.229" y1="85.9283" x2="181.253" y2="79.6909" gradientUnits="userSpaceOnUse">
<stop stop-color="#FCE4D6"/>
<stop offset="0.99" stop-color="#AE7DB7"/>
</linearGradient>
<linearGradient id="paint19_linear_102_2" x1="166.288" y1="93.8278" x2="160.873" y2="59.1893" gradientUnits="userSpaceOnUse">
<stop stop-color="#FCE4D6"/>
<stop offset="0.99" stop-color="#AE7DB7"/>
</linearGradient>
<linearGradient id="paint20_linear_102_2" x1="211.401" y1="84.7402" x2="206.457" y2="53.1123" gradientUnits="userSpaceOnUse">
<stop stop-color="#FCE4D6"/>
<stop offset="0.99" stop-color="#AE7DB7"/>
</linearGradient>
<linearGradient id="paint21_linear_102_2" x1="186.491" y1="70.4295" x2="185.947" y2="66.9449" gradientUnits="userSpaceOnUse">
<stop stop-color="#FCE4D6"/>
<stop offset="0.99" stop-color="#AE7DB7"/>
</linearGradient>
<linearGradient id="paint22_linear_102_2" x1="90.4516" y1="32.6748" x2="127" y2="27.0429" gradientUnits="userSpaceOnUse">
<stop stop-color="#827FBC"/>
<stop offset="1" stop-color="white"/>
</linearGradient>
<linearGradient id="paint23_linear_102_2" x1="98.8139" y1="44.8002" x2="125.141" y2="40.7434" gradientUnits="userSpaceOnUse">
<stop stop-color="#827FBC"/>
<stop offset="1" stop-color="white"/>
</linearGradient>
<linearGradient id="paint24_linear_102_2" x1="236.454" y1="90.8704" x2="232.047" y2="62.6855" gradientUnits="userSpaceOnUse">
<stop stop-color="#F7A393"/>
<stop offset="0.43" stop-color="#F5A794"/>
<stop offset="0.51" stop-color="#F5A18E"/>
<stop offset="0.76" stop-color="#F59584"/>
<stop offset="1" stop-color="#F69181"/>
</linearGradient>
<linearGradient id="paint25_linear_102_2" x1="235.312" y1="83.5344" x2="232.279" y2="64.1319" gradientUnits="userSpaceOnUse">
<stop stop-color="#F7A393"/>
<stop offset="0.43" stop-color="#F5A794"/>
<stop offset="0.51" stop-color="#F5A18E"/>
<stop offset="0.76" stop-color="#F59584"/>
<stop offset="1" stop-color="#F69181"/>
</linearGradient>
<linearGradient id="paint26_linear_102_2" x1="231.807" y1="76.7808" x2="230.49" y2="68.3562" gradientUnits="userSpaceOnUse">
<stop stop-color="#F7A393"/>
<stop offset="0.43" stop-color="#F5A794"/>
<stop offset="0.51" stop-color="#F5A18E"/>
<stop offset="0.76" stop-color="#F59584"/>
<stop offset="1" stop-color="#F69181"/>
</linearGradient>
<linearGradient id="paint27_linear_102_2" x1="225.383" y1="78.5044" x2="234.602" y2="77.0616" gradientUnits="userSpaceOnUse">
<stop stop-color="#F7A393"/>
<stop offset="0.43" stop-color="#F5A794"/>
<stop offset="0.51" stop-color="#F5A18E"/>
<stop offset="0.76" stop-color="#F59584"/>
<stop offset="1" stop-color="#F69181"/>
</linearGradient>
</defs>
</svg>
