<svg width="619" height="642" viewBox="0 0 619 642" fill="none" xmlns="http://www.w3.org/2000/svg">
<path d="M260.41 80.93C257.703 80.93 255.65 80.02 254.25 78.2C252.85 76.3333 251.917 73.6033 251.45 70.01C250.983 66.4167 250.75 61.96 250.75 56.64C250.75 51.32 250.983 46.84 251.45 43.2C251.917 39.56 252.85 36.83 254.25 35.01C255.65 33.1433 257.703 32.21 260.41 32.21C262.79 32.21 264.61 32.9567 265.87 34.45C267.177 35.8967 268.087 38.02 268.6 40.82C269.16 43.62 269.487 46.98 269.58 50.9C270.373 50.9 271.19 50.9 272.03 50.9C272.87 50.9 273.71 50.9 274.55 50.9C275.53 50.9 276.487 50.9 277.42 50.9C278.4 50.9 279.333 50.9233 280.22 50.97C280.313 47.0033 280.617 43.62 281.13 40.82C281.643 38.02 282.53 35.8733 283.79 34.38C285.097 32.8867 286.94 32.14 289.32 32.14C292.027 32.14 294.08 33.0733 295.48 34.94C296.88 36.8067 297.813 39.56 298.28 43.2C298.793 46.84 299.05 51.32 299.05 56.64C299.05 61.96 298.793 66.4167 298.28 70.01C297.813 73.6033 296.88 76.31 295.48 78.13C294.08 79.95 292.027 80.86 289.32 80.86C285.96 80.86 283.673 79.4133 282.46 76.52C281.247 73.6267 280.523 69.52 280.29 64.2C279.217 64.2467 278.073 64.27 276.86 64.27C275.647 64.27 274.41 64.27 273.15 64.27C272.543 64.27 271.937 64.27 271.33 64.27C270.723 64.27 270.117 64.27 269.51 64.27C269.277 69.5433 268.53 73.65 267.27 76.59C266.057 79.4833 263.77 80.93 260.41 80.93ZM329.866 81.07C326.413 81.1167 323.38 80.4167 320.766 78.97C318.2 77.4767 316.17 75.47 314.676 72.95C313.23 70.3833 312.46 67.56 312.366 64.48C312.32 61.3067 313.043 58.5067 314.536 56.08C316.03 53.6067 318.106 51.6467 320.766 50.2C323.426 48.7533 326.46 48.03 329.866 48.03C333.226 47.9833 336.19 48.6833 338.756 50.13C341.37 51.5767 343.446 53.5367 344.986 56.01C346.526 58.4833 347.343 61.3067 347.436 64.48C347.483 67.5133 346.76 70.29 345.266 72.81C343.773 75.2833 341.696 77.2667 339.036 78.76C336.376 80.2067 333.32 80.9767 329.866 81.07ZM330.076 70.85C331.336 70.85 332.433 70.36 333.366 69.38C334.3 68.4 334.766 67.2567 334.766 65.95C334.766 64.6433 334.3 63.5233 333.366 62.59C332.433 61.61 331.336 61.12 330.076 61.12C328.816 61.12 327.72 61.61 326.786 62.59C325.853 63.5233 325.386 64.6433 325.386 65.95C325.386 67.2567 325.853 68.4 326.786 69.38C327.72 70.36 328.816 70.85 330.076 70.85ZM376.872 80.93C376.032 80.93 375.075 80.8367 374.002 80.65C372.929 80.4633 371.645 79.7867 370.152 78.62C369.125 77.78 367.959 76.4733 366.652 74.7C365.345 72.9267 364.062 70.92 362.802 68.68C361.589 66.3933 360.585 64.06 359.792 61.68C358.999 59.2533 358.602 56.99 358.602 54.89C358.602 52.8367 359.185 51.2033 360.352 49.99C361.565 48.73 362.895 48.1 364.342 48.1C366.022 48.1 367.445 48.66 368.612 49.78C369.825 50.8533 370.875 52.3 371.762 54.12C372.695 55.94 373.535 57.9467 374.282 60.14C375.075 62.3333 375.845 64.5267 376.592 66.72C377.385 64.5267 378.155 62.3333 378.902 60.14C379.695 57.9 380.559 55.87 381.492 54.05C382.472 52.23 383.569 50.7833 384.782 49.71C385.995 48.59 387.419 48.0533 389.052 48.1C390.405 48.1467 391.642 48.6833 392.762 49.71C393.882 50.69 394.442 52.2767 394.442 54.47C394.442 56.7567 394.045 59.09 393.252 61.47C392.459 63.85 391.479 66.09 390.312 68.19C389.192 70.29 388.049 72.1333 386.882 73.72C385.762 75.3067 384.852 76.45 384.152 77.15C383.125 78.3167 381.959 79.25 380.652 79.95C379.345 80.6033 378.085 80.93 376.872 80.93ZM423.091 81C419.591 81 416.511 80.3233 413.851 78.97C411.238 77.57 409.184 75.68 407.691 73.3C406.244 70.8733 405.521 68.0967 405.521 64.97C405.521 61.9367 406.244 59.1367 407.691 56.57C409.184 54.0033 411.214 51.95 413.781 50.41C416.394 48.87 419.381 48.1 422.741 48.1C425.868 48.1 428.551 48.73 430.791 49.99C433.031 51.25 434.734 52.86 435.901 54.82C437.114 56.7333 437.721 58.7633 437.721 60.91C437.721 63.0567 437.231 64.83 436.251 66.23C435.271 67.5833 433.988 68.6333 432.401 69.38C430.861 70.08 429.204 70.5467 427.431 70.78C425.658 71.0133 423.954 71.06 422.321 70.92C420.688 70.7333 419.311 70.4533 418.191 70.08C419.031 71.4333 420.081 72.3667 421.341 72.88C422.648 73.3467 424.001 73.5567 425.401 73.51C426.848 73.4167 428.154 73.2533 429.321 73.02C430.768 72.6933 431.958 72.7633 432.891 73.23C433.824 73.6967 434.314 74.4433 434.361 75.47C434.408 76.31 434.104 77.15 433.451 77.99C432.844 78.83 431.724 79.5533 430.091 80.16C428.458 80.72 426.124 81 423.091 81ZM418.401 61.54C418.868 62.2867 419.544 62.8233 420.431 63.15C421.318 63.43 422.204 63.5233 423.091 63.43C424.024 63.3367 424.794 63.08 425.401 62.66C426.054 62.24 426.381 61.6567 426.381 60.91C426.381 60.1167 426.054 59.4167 425.401 58.81C424.794 58.1567 423.814 57.83 422.461 57.83C421.154 57.83 420.151 58.25 419.451 59.09C418.751 59.8833 418.401 60.7 418.401 61.54ZM457.811 81C456.224 81 454.918 80.4867 453.891 79.46C452.911 78.3867 452.164 76.9633 451.651 75.19C451.138 73.4167 450.788 71.3867 450.601 69.1C450.414 66.8133 450.321 64.4567 450.321 62.03C450.321 60.3967 450.344 58.74 450.391 57.06C450.484 55.3333 450.718 53.7467 451.091 52.3C451.511 50.8533 452.188 49.6867 453.121 48.8C454.101 47.8667 455.478 47.4 457.251 47.4C458.511 47.4 459.654 47.7033 460.681 48.31C461.708 48.87 462.361 49.7333 462.641 50.9C463.714 49.92 465.068 49.22 466.701 48.8C468.381 48.3333 470.108 48.1 471.881 48.1C473.374 48.1 474.891 48.4733 476.431 49.22C477.971 49.92 479.278 50.9 480.351 52.16C481.424 53.42 481.961 54.8433 481.961 56.43C481.961 57.7833 481.448 59.0667 480.421 60.28C479.441 61.4933 478.041 62.1 476.221 62.1C475.428 62.1 474.774 62.0067 474.261 61.82C473.748 61.5867 473.258 61.3767 472.791 61.19C472.324 61.0033 471.764 60.91 471.111 60.91C469.384 60.91 467.798 61.61 466.351 63.01C464.951 64.3633 464.251 66.2067 464.251 68.54C464.251 69.7533 464.204 71.0833 464.111 72.53C464.064 73.93 463.854 75.2833 463.481 76.59C463.154 77.8967 462.548 78.97 461.661 79.81C460.774 80.6033 459.491 81 457.811 81ZM549.634 81C547.394 81 545.901 80.23 545.154 78.69C544.407 77.15 544.034 74.98 544.034 72.18C544.034 69.8467 543.964 67.91 543.824 66.37C543.684 64.83 543.031 64.06 541.864 64.06C540.884 64.06 540.184 64.41 539.764 65.11C539.391 65.81 539.181 66.7667 539.134 67.98C539.087 69.1933 539.064 70.5933 539.064 72.18C539.064 73.8133 538.947 75.3067 538.714 76.66C538.527 77.9667 538.037 79.0167 537.244 79.81C536.497 80.5567 535.284 80.93 533.604 80.93C531.971 80.93 530.641 80.3467 529.614 79.18C528.634 78.0133 527.887 76.4733 527.374 74.56C526.861 72.6467 526.511 70.57 526.324 68.33C526.137 66.09 526.044 63.8967 526.044 61.75C526.044 57.83 526.394 54.5867 527.094 52.02C527.794 49.4067 529.287 47.7733 531.574 47.12C532.974 46.7 534.304 46.6767 535.564 47.05C536.824 47.4233 537.664 48.1233 538.084 49.15C538.551 48.9167 539.111 48.6833 539.764 48.45C540.417 48.17 541.444 48.03 542.844 48.03C544.244 48.03 545.621 48.38 546.974 49.08C548.327 49.78 549.307 50.8067 549.914 52.16C551.034 50.8533 552.224 49.8267 553.484 49.08C554.744 48.3333 556.471 47.9833 558.664 48.03C561.604 48.0767 564.124 48.9867 566.224 50.76C568.324 52.4867 569.934 54.82 571.054 57.76C572.221 60.6533 572.804 63.8733 572.804 67.42C572.804 69.7067 572.594 71.9 572.174 74C571.801 76.0533 571.077 77.7333 570.004 79.04C568.977 80.3467 567.507 81 565.594 81C563.914 81 562.677 80.6033 561.884 79.81C561.137 79.0167 560.647 77.9667 560.414 76.66C560.227 75.3067 560.134 73.8133 560.134 72.18C560.134 70.5933 560.111 69.1933 560.064 67.98C560.017 66.7667 559.807 65.81 559.434 65.11C559.061 64.41 558.361 64.06 557.334 64.06C556.587 64.06 556.074 64.41 555.794 65.11C555.514 65.81 555.351 66.7667 555.304 67.98C555.304 69.1933 555.281 70.5933 555.234 72.18C555.187 74.98 554.767 77.15 553.974 78.69C553.227 80.23 551.781 81 549.634 81ZM602.291 81C598.791 81 595.711 80.3233 593.051 78.97C590.438 77.57 588.384 75.68 586.891 73.3C585.444 70.8733 584.721 68.0967 584.721 64.97C584.721 61.9367 585.444 59.1367 586.891 56.57C588.384 54.0033 590.414 51.95 592.981 50.41C595.594 48.87 598.581 48.1 601.941 48.1C605.068 48.1 607.751 48.73 609.991 49.99C612.231 51.25 613.934 52.86 615.101 54.82C616.314 56.7333 616.921 58.7633 616.921 60.91C616.921 63.0567 616.431 64.83 615.451 66.23C614.471 67.5833 613.188 68.6333 611.601 69.38C610.061 70.08 608.404 70.5467 606.631 70.78C604.858 71.0133 603.154 71.06 601.521 70.92C599.888 70.7333 598.511 70.4533 597.391 70.08C598.231 71.4333 599.281 72.3667 600.541 72.88C601.848 73.3467 603.201 73.5567 604.601 73.51C606.048 73.4167 607.354 73.2533 608.521 73.02C609.968 72.6933 611.158 72.7633 612.091 73.23C613.024 73.6967 613.514 74.4433 613.561 75.47C613.608 76.31 613.304 77.15 612.651 77.99C612.044 78.83 610.924 79.5533 609.291 80.16C607.658 80.72 605.324 81 602.291 81ZM597.601 61.54C598.068 62.2867 598.744 62.8233 599.631 63.15C600.518 63.43 601.404 63.5233 602.291 63.43C603.224 63.3367 603.994 63.08 604.601 62.66C605.254 62.24 605.581 61.6567 605.581 60.91C605.581 60.1167 605.254 59.4167 604.601 58.81C603.994 58.1567 603.014 57.83 601.661 57.83C600.354 57.83 599.351 58.25 598.651 59.09C597.951 59.8833 597.601 60.7 597.601 61.54Z" fill="url(#paint0_linear_210_14)"/>
<g clip-path="url(#clip0_210_14)">
<path d="M153.463 517.333C155.099 519.167 155.367 520.093 156.138 520.672C215.452 547.517 276.106 551.585 336.993 526.974C352.384 520.798 365.853 510.762 376.993 497.889C401.11 470.506 404.411 432.302 385.566 401.234C375.837 384.985 363.69 371.146 345.801 363.491C337.824 367.515 330.02 371.789 322.199 374.964C309.415 380.082 296.39 380.552 283.766 374.08C274.302 369.5 269.108 361.973 270.356 355.186C271.996 346.277 279.029 341.423 287.057 340.698C298.211 339.667 309.556 339.986 320.571 340.903C327.69 341.546 334.92 343.963 341.804 345.879C367.246 322.026 360.777 286.861 326.81 262.895C322.099 264.665 317.136 266.608 312.251 268.127C293.968 273.337 276.259 271.854 260.596 260.442C254.604 256.058 249.522 250.306 251.335 241.648C252.757 235.111 259.79 230.257 269.593 229.418C285.147 228.314 299.686 232.725 313.74 238.582C318.598 240.785 323.455 242.988 328.062 245.365C368.557 210.012 372.523 149.128 328.277 122.626C331.715 120.623 334.305 118.466 336.505 118.429C339.129 118.47 342.038 120.537 344.099 122.448C362.834 141 374 162.553 369.68 189.608C366.609 209.875 358.256 227.862 345.989 244.475C344.247 246.788 342.506 249.101 340.938 251.664C340.687 251.837 340.782 252.513 340.721 254.036C342.53 256.121 344.434 258.88 346.841 261.294C375.316 291.272 378.393 315.074 357.729 352.297C360.811 354.614 364.24 357.433 367.746 359.828C387.609 374.64 401.442 393.611 408.416 417.687C419.854 456.83 406.671 496.297 373.566 522.476C355.592 536.731 335.256 545.951 312.998 551.311C259.12 564.047 207.014 560.006 157.113 534.444C154.472 533.304 151.909 531.739 149.268 530.599C148.843 530.521 148.168 530.617 146.141 530.904C150.018 540.821 156.312 548.329 162.355 556.011C167.973 563.615 174.267 571.123 180.656 579.307C173.606 583.061 168.67 581.282 164.219 578.057C159.25 574.08 153.777 570.449 150.064 565.604C140.212 552.403 130.438 538.778 121.67 524.459C114.978 513.151 118.678 506.153 130.759 504.853C156.446 502.312 182.305 500.022 208.165 497.732C212.391 497.408 216.461 497.932 221.882 498.265C219.646 506.846 214.242 507.612 209.262 508.456C190.85 510.792 172.957 513.88 153.463 517.333ZM264.064 243.974C278.271 259.725 296.768 262.886 312.861 252.891C297.362 246.551 282.962 240.192 264.064 243.974ZM283.65 355.642C297.381 368.017 312.276 368.108 326.56 356.029C311.943 352.042 298.694 348.963 283.65 355.642Z" fill="#666CFF"/>
</g>
<defs>
<linearGradient id="paint0_linear_210_14" x1="434" y1="0" x2="434" y2="101" gradientUnits="userSpaceOnUse">
<stop offset="0.38" stop-color="#970D81"/>
<stop offset="0.72" stop-color="#555CFF"/>
</linearGradient>
<clipPath id="clip0_210_14">
<rect width="355.139" height="414.044" fill="white" transform="translate(340.776 114) rotate(55.3907)"/>
</clipPath>
</defs>
</svg>
