<svg width="1600" height="1067" viewBox="0 0 1600 1067" fill="none" xmlns="http://www.w3.org/2000/svg">
<g clip-path="url(#clip0_15_2283)">
<path d="M1600 0H0V1067H1600V0Z" fill="#A6DDEC"/>
<path d="M420.756 683.223C404.738 690.092 385.707 699.372 378.602 716.473C374.812 725.579 375.684 735.621 380.061 744.346C385.073 754.372 393.874 761.733 403.437 767.253C414.126 773.424 425.767 778.041 437.011 783.101C449.064 788.511 461.117 793.936 473.17 799.362C482.875 803.74 492.946 808.452 499.496 817.208C504.444 823.824 507.425 831.66 510.169 839.37C515.196 853.489 520.001 870.907 535.02 877.491C543.584 881.235 553.527 880.077 561.488 875.365C569.989 870.336 575.286 861.579 576.57 851.855C577.855 842.13 575.064 831.771 569.132 823.697C563.518 816.05 555.779 810.403 547.834 805.39C539.888 800.377 530.976 795.618 523.189 789.78C514.562 783.307 507.346 774.979 502.049 765.588C499.432 760.955 497.275 756.069 495.642 750.993C493.818 745.314 492.819 739.46 491.725 733.606C489.837 723.374 487.046 713.745 480.639 705.384C469.776 691.202 451.982 682.382 434.077 682.667C429.668 682.731 425.275 683.381 421.041 684.571C419.027 685.142 419.883 688.299 421.913 687.728C438.803 682.985 457.469 688.093 470.6 699.451C477.293 705.242 482.558 712.634 485.381 721.058C488.965 731.782 489.441 743.267 493.199 753.959C496.577 763.557 501.716 772.472 508.313 780.214C514.91 787.956 522.174 793.444 530.341 798.584C545.423 808.071 564.787 816.653 571.416 834.595C574.858 843.907 574.461 854.806 569.228 863.388C564.375 871.367 555.208 876.492 545.883 876.523C537.938 876.539 530.817 872.478 525.964 866.339C521.111 860.199 518.447 852.934 515.894 845.795C513.34 838.656 510.819 830.835 507.282 823.776C503.254 815.733 497.608 809.213 489.996 804.359C480.417 798.251 469.459 794.174 459.134 789.542C447.526 784.323 435.901 779.103 424.292 773.884C413.984 769.252 403.326 764.636 394.604 757.291C386.801 750.739 380.315 741.459 379.506 731.036C378.031 711.984 395.254 699.531 410.289 691.773C414.253 689.727 418.329 687.871 422.437 686.11C424.356 685.285 422.706 682.477 420.787 683.286L420.756 683.223Z" fill="#67C9D3"/>
<path d="M412.271 378.289C408.94 370.23 410.701 361.172 415.585 354.128C420.47 347.084 429.129 342.5 437.709 340.723C457.12 336.71 477.15 347.687 496.102 339.93C512.785 333.093 522.364 316.674 530.246 301.413C538.54 285.358 547.263 267.543 565.263 260.674C572.685 257.851 581.027 257.549 587.973 261.832C594.919 266.116 598.551 273.619 599.629 281.281C602.214 299.652 588.972 315.214 575.952 326.319C568.276 332.87 560.029 338.708 552.496 345.435C545.518 351.669 539.508 358.792 533.846 366.232C522.539 381.049 512.151 397.246 496.292 407.7C481.48 417.456 462.592 422.549 445.162 417.583C429.827 413.221 416.489 400.53 412.54 384.92C411.573 381.081 411.256 377.146 411.541 373.196C411.7 370.96 408.211 370.96 408.052 373.196C406.863 390.25 417.044 406.161 431.143 415.077C446.732 424.928 466.366 424.896 483.208 418.361C491.931 414.982 499.971 410.048 506.997 403.893C514.403 397.404 520.604 389.679 526.503 381.842C532.403 374.005 538.287 365.613 544.9 358.078C551.83 350.162 559.902 343.594 568.149 337.106C582.866 325.526 599.566 311.899 602.865 292.259C605.545 276.364 597.282 257.819 579.948 255.344C562.614 252.869 546.533 266.718 537.652 280.663C527.011 297.383 520.889 317.53 505.11 330.491C497.164 337.011 487.792 339.771 477.562 339.311C467.333 338.851 456.644 335.948 446.019 336.313C436.725 336.63 427.274 339.2 419.788 344.879C412.794 350.178 408.084 358.126 407.133 366.898C406.689 371.102 407.244 375.37 408.861 379.272C409.702 381.319 413.08 380.414 412.223 378.352L412.271 378.289Z" fill="#67C9D3"/>
<path d="M1193.74 201.391C1170.68 198.758 1146.56 205.452 1128.75 220.523C1111.4 235.197 1101.27 258.073 1102.34 280.821C1103.38 302.65 1115.51 322.765 1134.11 334.171C1143.64 340.025 1154.52 343.166 1165.72 343.245C1179.77 343.356 1193.41 339.406 1207.3 337.82C1231.37 335.091 1255.92 341.484 1275.71 355.445C1280.58 358.871 1285.1 362.774 1289.24 367.057C1293.67 371.642 1297.65 376.654 1302.31 381.001C1310.62 388.759 1323.1 394.85 1334.19 389.076C1339.18 386.474 1342.78 381.874 1345.88 377.289C1349.38 372.086 1352.77 366.692 1355.14 360.838C1359.43 350.162 1358.09 338.835 1351.97 329.174C1345.84 319.513 1337.06 312.676 1327.61 307.187C1318.15 301.698 1307.1 297.415 1297.17 291.91C1287.24 286.405 1278.14 279.536 1272.61 269.494C1269.4 263.672 1267.31 257.327 1264.5 251.299C1262.2 246.349 1259.4 241.653 1256.16 237.275C1243.22 219.777 1223.78 207.15 1202.45 202.692C1197.24 201.613 1191.95 201.01 1186.63 200.915C1184.4 200.868 1184.4 204.358 1186.63 204.405C1207.87 204.786 1228.52 213.781 1243.79 228.455C1251.48 235.831 1257.73 244.604 1262.08 254.329C1264.65 260.071 1266.69 266.052 1269.77 271.557C1272.4 276.252 1275.83 280.456 1279.81 284.073C1295.9 298.716 1318.15 303.3 1335.23 316.451C1343.45 322.781 1351.08 331.157 1353.54 341.5C1356.42 353.715 1350.03 364.661 1343.56 374.497C1340.51 379.113 1337.03 383.904 1331.9 386.331C1326.51 388.885 1320.17 387.965 1314.9 385.57C1303.79 380.494 1297.01 369.389 1288.35 361.267C1271.96 345.879 1250.4 336.345 1228.06 334.155C1215.61 332.934 1203.48 334.679 1191.25 336.852C1179.02 339.026 1165.64 341.31 1152.97 338.296C1132.81 333.505 1115.81 317.53 1109.12 297.986C1101.93 277.014 1106.82 253.186 1119.65 235.451C1132.92 217.112 1154.93 206.309 1177.26 204.596C1182.77 204.167 1188.3 204.294 1193.79 204.913C1196.01 205.167 1195.99 201.677 1193.79 201.423L1193.74 201.391Z" fill="#67C9D3"/>
<path d="M1490.45 535.467C1462.66 519 1428.28 522.728 1401.22 538.814C1388.17 546.572 1376.67 557.089 1368.13 569.669C1359.99 581.647 1354.38 595.131 1348.89 608.456C1343.34 621.957 1337.98 635.663 1330.37 648.164C1322.66 660.791 1311.92 673.054 1297.58 678.035C1288.96 681.033 1279.77 681.858 1270.99 684.238C1264.55 685.983 1258.32 688.585 1252.4 691.678C1239.78 698.261 1228.07 707.272 1218.92 718.218C1210.38 728.45 1203.7 740.951 1203.32 754.53C1202.94 768.046 1209.42 781.642 1219.65 790.383C1239.56 807.373 1269.45 803.708 1292.07 794.856C1303.79 790.272 1315.03 783.958 1324.43 775.534C1336.87 764.398 1344.46 749.121 1354.26 735.843C1364.38 722.137 1377.66 712.095 1392.99 704.845C1408.33 697.595 1423.38 693.375 1438.78 688.267C1454.03 683.223 1469.07 677.448 1482.75 668.882C1496.44 660.315 1508.59 649.48 1517.04 635.821C1525.49 622.163 1529.44 606.458 1527.37 590.594C1525.35 575.301 1518.2 560.96 1507.8 549.633C1502.72 544.113 1496.85 539.338 1490.43 535.467C1488.51 534.309 1486.75 537.323 1488.67 538.481C1514.82 554.282 1530.97 586.644 1521.88 616.801C1512.59 647.703 1483.47 667.676 1454.8 678.876C1425.95 690.155 1394.01 695.723 1369.12 715.315C1362.64 720.423 1357.02 726.404 1352.06 733.003C1346.65 740.174 1342.01 747.868 1336.93 755.26C1332.7 761.415 1328.14 767.428 1322.61 772.488C1318.31 776.422 1313.57 779.833 1308.59 782.863C1297.54 789.574 1285.28 794.428 1272.61 796.982C1260.63 799.393 1247.82 799.726 1236.15 795.76C1224.47 791.794 1214.47 782.371 1209.69 770.521C1204.92 758.671 1206.71 744.679 1212.93 733.098C1219.48 720.883 1229.72 710.73 1240.97 702.767C1252.21 694.803 1265.11 688.807 1278.92 685.967C1287.4 684.222 1296.03 682.937 1303.93 679.177C1310.62 675.989 1316.55 671.007 1321.6 665.63C1330.97 655.62 1337.55 643.389 1343.15 630.967C1354.79 605.125 1362.83 576.729 1383.76 556.487C1405.36 535.594 1437.29 523.188 1467.26 529.946C1474.81 531.644 1481.99 534.547 1488.65 538.497C1490.59 539.639 1492.35 536.625 1490.41 535.483L1490.45 535.467Z" fill="#67C9D3"/>
<path d="M1445.22 706.892C1432.54 702.846 1417.64 711.793 1418.73 733.241C1419.29 744.108 1423.74 755.625 1433.24 760.908C1453.92 772.409 1464.04 747.075 1461.95 730.211C1460.33 717.171 1453.21 709.446 1445.22 706.892Z" fill="#67C9D3"/>
<path d="M108.682 328.524C97.1206 333.981 87.3832 344.641 87.4784 358.062C87.5735 371.483 97.9929 380.541 110.062 383.46C119.973 385.856 131.963 384.142 139.226 376.448C147.679 367.517 146.632 353.208 140.099 343.515C133.01 332.966 120.243 326.636 107.556 328.619C105.351 328.968 106.287 332.331 108.476 331.982C118.277 330.443 128.236 334.917 134.707 342.198C141.621 349.987 144.682 362.488 138.592 371.689C133.501 379.367 123.225 381.779 114.566 380.747C104.114 379.494 93.2035 372.625 91.2687 361.663C88.8739 348.116 98.992 336.932 110.426 331.538C112.456 330.586 110.68 327.572 108.666 328.524H108.682Z" fill="#67C9D3"/>
<path d="M390.179 251.251C397.046 251.251 402.613 245.683 402.613 238.814C402.613 231.945 397.046 226.376 390.179 226.376C383.312 226.376 377.746 231.945 377.746 238.814C377.746 245.683 383.312 251.251 390.179 251.251Z" fill="#FAA819"/>
<path d="M1561.24 591.466C1568.11 591.466 1573.67 585.898 1573.67 579.029C1573.67 572.16 1568.11 566.592 1561.24 566.592C1554.37 566.592 1548.81 572.16 1548.81 579.029C1548.81 585.898 1554.37 591.466 1561.24 591.466Z" fill="#FAA819"/>
<path d="M352.276 316.166C352.276 319.481 349.596 322.162 346.282 322.162C342.967 322.162 340.287 319.481 340.287 316.166C340.287 312.85 342.967 310.169 346.282 310.169C349.596 310.169 352.276 312.85 352.276 316.166Z" fill="#FAA819"/>
<path d="M89.2228 451.468C89.2228 454.451 86.7964 456.878 83.8149 456.878C80.8334 456.878 78.407 454.451 78.407 451.468C78.407 448.486 80.8334 446.059 83.8149 446.059C86.7964 446.059 89.2228 448.486 89.2228 451.468Z" fill="#FAA819"/>
<path d="M89.2228 665.82C89.2228 668.803 86.7964 671.23 83.8149 671.23C80.8334 671.23 78.407 668.803 78.407 665.82C78.407 662.838 80.8334 660.411 83.8149 660.411C86.7964 660.411 89.2228 662.838 89.2228 665.82Z" fill="#FAA819"/>
<path d="M357.906 671.626C357.906 674.831 355.305 677.432 352.102 677.432C348.898 677.432 346.297 674.831 346.297 671.626C346.297 668.422 348.898 665.82 352.102 665.82C355.305 665.82 357.906 668.422 357.906 671.626Z" fill="#FAA819"/>
<path d="M840.892 609.535C840.892 615.024 836.452 619.482 830.949 619.482C825.446 619.482 821.005 615.04 821.005 609.535C821.005 604.031 825.446 599.589 830.949 599.589C836.452 599.589 840.892 604.031 840.892 609.535Z" fill="#FAA819"/>
<path d="M830.965 208.228C830.965 211.353 828.427 213.892 825.303 213.892C822.179 213.892 819.641 211.353 819.641 208.228C819.641 205.103 822.179 202.565 825.303 202.565C828.427 202.565 830.965 205.103 830.965 208.228Z" fill="#FAA819"/>
<path d="M737.238 596.4C737.238 601.445 733.146 605.553 728.087 605.553C723.028 605.553 718.937 601.461 718.937 596.4C718.937 591.339 723.028 587.247 728.087 587.247C733.146 587.247 737.238 591.339 737.238 596.4Z" fill="#FAA819"/>
<path d="M965.846 904.555C965.846 909.599 961.754 913.708 956.695 913.708C951.636 913.708 947.544 909.615 947.544 904.555C947.544 899.494 951.636 895.401 956.695 895.401C961.754 895.401 965.846 899.494 965.846 904.555Z" fill="#FAA819"/>
<path d="M1179.94 554.52C1179.94 558.121 1177.02 561.055 1173.41 561.055C1169.79 561.055 1166.87 558.136 1166.87 554.52C1166.87 550.903 1169.79 547.984 1173.41 547.984C1177.02 547.984 1179.94 550.903 1179.94 554.52Z" fill="#FAA819"/>
<path d="M1483.01 266.909C1483.01 272.16 1478.76 276.411 1473.51 276.411C1468.26 276.411 1464.01 272.16 1464.01 266.909C1464.01 261.658 1468.26 257.406 1473.51 257.406C1478.76 257.406 1483.01 261.658 1483.01 266.909Z" fill="#FAA819"/>
<path d="M1439.09 834.77C1439.09 838.101 1436.4 840.798 1433.07 840.798C1429.74 840.798 1427.04 838.101 1427.04 834.77C1427.04 831.438 1429.74 828.741 1433.07 828.741C1436.4 828.741 1439.09 831.438 1439.09 834.77Z" fill="#FAA819"/>
<path d="M1201.84 820.619C1201.84 824.458 1198.74 827.568 1194.9 827.568C1191.06 827.568 1187.95 824.458 1187.95 820.619C1187.95 816.78 1191.06 813.671 1194.9 813.671C1198.74 813.671 1201.84 816.78 1201.84 820.619Z" fill="#FAA819"/>
<path d="M139.179 310.185C143.549 310.185 147.092 306.641 147.092 302.269C147.092 297.897 143.549 294.353 139.179 294.353C134.808 294.353 131.265 297.897 131.265 302.269C131.265 306.641 134.808 310.185 139.179 310.185Z" fill="#F37162"/>
<path d="M81.991 735.256C81.991 738.81 79.1047 741.697 75.5523 741.697C71.9999 741.697 69.1135 738.81 69.1135 735.256C69.1135 731.703 71.9999 728.815 75.5523 728.815C79.1047 728.815 81.991 731.703 81.991 735.256Z" fill="#F37162"/>
<path d="M466.858 526.552C470.764 526.552 473.931 523.384 473.931 519.476C473.931 515.569 470.764 512.401 466.858 512.401C462.951 512.401 459.785 515.569 459.785 519.476C459.785 523.384 462.951 526.552 466.858 526.552Z" fill="#FAA819"/>
<path d="M737.238 868.528C741.144 868.528 744.311 865.36 744.311 861.453C744.311 857.545 741.144 854.377 737.238 854.377C733.332 854.377 730.165 857.545 730.165 861.453C730.165 865.36 733.332 868.528 737.238 868.528Z" fill="#FAA819"/>
<path d="M413.952 592.926C413.952 596.067 411.415 598.605 408.274 598.605C405.134 598.605 402.597 596.067 402.597 592.926C402.597 589.785 405.134 587.247 408.274 587.247C411.415 587.247 413.952 589.785 413.952 592.926Z" fill="#F37162"/>
<path d="M614.711 829.202C619.003 829.202 622.482 825.721 622.482 821.428C622.482 817.135 619.003 813.655 614.711 813.655C610.419 813.655 606.94 817.135 606.94 821.428C606.94 825.721 610.419 829.202 614.711 829.202Z" fill="#F37162"/>
<path d="M815.708 506.262C818.1 506.262 820.038 504.323 820.038 501.931C820.038 499.539 818.1 497.6 815.708 497.6C813.317 497.6 811.379 499.539 811.379 501.931C811.379 504.323 813.317 506.262 815.708 506.262Z" fill="#F37162"/>
<path d="M657.451 226.393C660.902 226.393 663.7 223.594 663.7 220.142C663.7 216.69 660.902 213.892 657.451 213.892C654 213.892 651.203 216.69 651.203 220.142C651.203 223.594 654 226.393 657.451 226.393Z" fill="#F37162"/>
<path d="M918.76 325.938C918.76 329.269 916.064 331.966 912.734 331.966C909.403 331.966 906.707 329.269 906.707 325.938C906.707 322.607 909.403 319.91 912.734 319.91C916.064 319.91 918.76 322.607 918.76 325.938Z" fill="#F37162"/>
<path d="M1067.38 220.142C1070.67 220.142 1073.34 217.471 1073.34 214.177C1073.34 210.883 1070.67 208.212 1067.38 208.212C1064.08 208.212 1061.41 210.883 1061.41 214.177C1061.41 217.471 1064.08 220.142 1067.38 220.142Z" fill="#F37162"/>
<path d="M1139.57 590.546C1142.81 590.546 1145.43 587.918 1145.43 584.677C1145.43 581.435 1142.81 578.807 1139.57 578.807C1136.32 578.807 1133.7 581.435 1133.7 584.677C1133.7 587.918 1136.32 590.546 1139.57 590.546Z" fill="#F37162"/>
<path d="M975.266 780.674C975.266 784.894 971.84 788.321 967.622 788.321C963.403 788.321 959.978 784.894 959.978 780.674C959.978 776.454 963.403 773.028 967.622 773.028C971.84 773.028 975.266 776.454 975.266 780.674Z" fill="#F37162"/>
<path d="M1548.81 499.678C1548.81 503.311 1545.86 506.262 1542.23 506.262C1538.59 506.262 1535.64 503.311 1535.64 499.678C1535.64 496.045 1538.59 493.095 1542.23 493.095C1545.86 493.095 1548.81 496.045 1548.81 499.678Z" fill="#F37162"/>
<path d="M1370.14 227.725C1373.96 227.725 1377.05 224.628 1377.05 220.808C1377.05 216.989 1373.96 213.892 1370.14 213.892C1366.32 213.892 1363.23 216.989 1363.23 220.808C1363.23 224.628 1366.32 227.725 1370.14 227.725Z" fill="#F37162"/>
<path d="M1399.27 797.87C1399.27 799.33 1398.08 800.52 1396.62 800.52C1395.17 800.52 1393.98 799.33 1393.98 797.87C1393.98 796.411 1395.17 795.221 1396.62 795.221C1398.08 795.221 1399.27 796.411 1399.27 797.87Z" fill="#F37162"/>
<path d="M1521.37 692.646C1524.53 692.646 1527.1 690.082 1527.1 686.919C1527.1 683.756 1524.53 681.192 1521.37 681.192C1518.21 681.192 1515.65 683.756 1515.65 686.919C1515.65 690.082 1518.21 692.646 1521.37 692.646Z" fill="#F37162"/>
<path d="M233.936 168.521L240.645 180.784L252.904 187.494L240.645 194.205L233.936 206.483L227.212 194.205L214.953 187.494L227.212 180.784L233.936 168.521Z" fill="#FCECE5"/>
<path d="M105.447 231.39L110.03 239.75L118.388 244.335L110.03 248.903L105.447 257.279L100.879 248.903L92.5056 244.335L100.879 239.75L105.447 231.39Z" fill="#FCECE5"/>
<path d="M131.265 871.177L136.245 880.267L145.332 885.248L136.245 890.214L131.265 899.304L126.285 890.214L117.198 885.248L126.285 880.267L131.265 871.177Z" fill="#FCECE5"/>
<path d="M582.295 172.408L587.64 182.164L597.393 187.494L587.64 192.841L582.295 202.581L576.967 192.841L567.213 187.494L576.967 182.164L582.295 172.408Z" fill="#FCECE5"/>
<path d="M488.806 155.83L491.043 159.939L495.15 162.176L491.043 164.412L488.806 168.521L486.57 164.412L482.479 162.176L486.57 159.939L488.806 155.83Z" fill="#FCECE5"/>
<path d="M680.732 316.261L682.461 319.434L685.648 321.179L682.461 322.924L680.732 326.112L678.988 322.924L675.8 321.179L678.988 319.434L680.732 316.261Z" fill="#FCECE5"/>
<path d="M657.451 872.89L659.957 877.475L664.524 879.982L659.957 882.488L657.451 887.073L654.946 882.488L650.362 879.982L654.946 877.475L657.451 872.89Z" fill="#FCECE5"/>
<path d="M595.284 755.276L597.98 760.21L602.912 762.907L597.98 765.603L595.284 770.537L592.588 765.603L587.672 762.907L592.588 760.21L595.284 755.276Z" fill="#FCECE5"/>
<path d="M956.695 125.911L964.18 139.602L977.883 147.105L964.18 154.593L956.695 168.283L949.21 154.593L935.507 147.105L949.21 139.602L956.695 125.911Z" fill="#FCECE5"/>
<path d="M931.305 724.421L934.778 730.751L941.106 734.225L934.778 737.683L931.305 744.029L927.847 737.683L921.504 734.225L927.847 730.751L931.305 724.421Z" fill="#FCECE5"/>
<path d="M1061.41 833.945L1066.77 843.733L1076.56 849.095L1066.77 854.457L1061.41 864.245L1056.07 854.457L1046.27 849.095L1056.07 843.733L1061.41 833.945Z" fill="#FCECE5"/>
<path d="M1099.22 709.35L1102.65 715.601L1108.88 719.011L1102.65 722.422L1099.22 728.672L1095.81 722.422L1089.56 719.011L1095.81 715.601L1099.22 709.35Z" fill="#FCECE5"/>
<path d="M1418.68 167.887L1421.16 172.408L1425.68 174.883L1421.16 177.357L1418.68 181.863L1416.21 177.357L1411.69 174.883L1416.21 172.408L1418.68 167.887Z" fill="#FCECE5"/>
<path d="M1307.59 147.105L1310.68 152.752L1316.33 155.83L1310.68 158.924L1307.59 164.571L1304.5 158.924L1298.85 155.83L1304.5 152.752L1307.59 147.105Z" fill="#FCECE5"/>
<path d="M912.734 193.808L915.826 199.456L921.472 202.549L915.826 205.643L912.734 211.29L909.657 205.643L903.995 202.549L909.657 199.456L912.734 193.808Z" fill="#FCECE5"/>
<path d="M1507.19 769.03L1511.49 776.883L1519.36 781.182L1511.49 785.497L1507.19 793.349L1502.9 785.497L1495.03 781.182L1502.9 776.883L1507.19 769.03Z" fill="#FCECE5"/>
<path d="M1115.05 862.738L1119.34 870.606L1127.21 874.905L1119.34 879.204L1115.05 887.073L1110.75 879.204L1102.88 874.905L1110.75 870.606L1115.05 862.738Z" fill="#FCECE5"/>
</g>
<defs>
<clipPath id="clip0_15_2283">
<rect width="1600" height="1067" fill="white"/>
</clipPath>
</defs>
</svg>
