<svg width="346" height="268" viewBox="0 0 346 268" fill="none" xmlns="http://www.w3.org/2000/svg">
<g style="mix-blend-mode:multiply">
<path d="M303.994 106.402L288.544 42.2428C283.099 35.4811 277.828 20.7804 277.838 15.7761C277.849 7.26143 284.909 12.1505 284.909 12.1505C286.579 5.19261 291.277 10.343 291.277 10.343C291.237 3.06106 297.917 8.04964 297.917 8.04964C300.289 -0.726297 308.462 6.67546 310.903 20.978C311.807 26.2936 310.323 30.0973 308.114 32.7862C315.949 49.6477 339.012 103.842 337.49 119.244C335.03 144.096 246.198 168.337 246.198 168.337L234.379 133.206L304.004 106.408L303.994 106.402Z" fill="url(#paint0_linear_102_58)"/>
<path d="M282.604 27.6466C283.053 26.5565 283.48 25.4213 283.907 24.2862C291.756 19.5025 299.51 14.5328 308.242 11.8414C309.365 14.3856 310.307 17.4665 310.903 20.978C311.807 26.2936 310.323 30.0972 308.114 32.7861C308.641 33.9231 309.278 35.327 309.959 36.8549C301.766 36.6157 293.486 36.6993 285.151 37.0115C283.835 34.6245 282.622 31.9698 281.556 29.3244C281.965 28.8759 282.327 28.3216 282.604 27.6466Z" fill="url(#paint1_linear_102_58)"/>
<path d="M282.066 21.0685C282.066 21.0685 273.844 20.9395 273.711 29.5913C273.575 38.2352 286.238 44.8909 293.862 39.8558C301.486 34.8206 282.066 21.0685 282.066 21.0685V21.0685Z" fill="url(#paint2_linear_102_58)"/>
<path d="M275.894 23.7489C275.894 23.7489 286.759 13.6873 298.971 16.296C306.968 18.0052 291.495 27.1937 285.726 27.4847C279.958 27.7757 275.894 23.7489 275.894 23.7489Z" fill="url(#paint3_linear_102_58)"/>
<path d="M297.925 8.04738C297.925 8.04738 296.533 3.71373 300.277 2.65114C304.021 1.58856 314.431 18.4346 309.073 21.7616C303.713 25.0807 297.917 8.04962 297.917 8.04962L297.925 8.04738Z" fill="url(#paint4_linear_102_58)"/>
<path d="M278.35 15.1791C278.35 15.1791 276.958 10.8455 280.702 9.78291C284.446 8.72033 294.857 25.5663 289.499 28.8933C284.138 32.2125 278.35 15.1791 278.35 15.1791V15.1791Z" fill="url(#paint5_linear_102_58)"/>
<path d="M291.34 11.0153C291.34 11.0153 289.897 6.50028 293.641 5.4377C297.385 4.37511 308.013 21.986 302.672 25.376C297.332 28.7661 291.34 11.0153 291.34 11.0153V11.0153Z" fill="url(#paint6_linear_102_58)"/>
<path d="M285.062 13.4702C285.062 13.4702 283.618 8.95518 287.362 7.8926C291.106 6.83002 301.734 24.4408 296.394 27.8309C291.054 31.221 285.054 13.4724 285.054 13.4724L285.062 13.4702Z" fill="url(#paint7_linear_102_58)"/>
</g>
<path d="M81.2063 217.933L42.123 165.512C40.4243 157.083 32.5634 143.75 28.744 140.589C22.2534 135.205 21.5053 143.678 21.5053 143.678C15.1449 140.542 16.0877 147.387 16.0877 147.387C10.5679 142.736 10.1315 150.995 10.1315 150.995C1.95254 147.226 2.41181 158.148 11.763 169.063C15.2336 173.121 19.0697 174.404 22.53 174.418C30.4111 191.072 61.3312 250.632 74.0275 259.233C94.5159 273.114 144.56 201.068 144.56 201.068L125.294 169.808L81.2143 217.928L81.2063 217.933Z" fill="url(#paint8_linear_102_58)"/>
<path d="M240.509 77.3588C240.509 77.3588 238.429 54.2781 237.696 54.1182C237.604 42.3421 215.53 26.7698 210.629 23.3775C184.058 5.01058 167.324 6.13853 139.995 33.1502C118.427 54.4633 125.704 92.1568 126.47 94.7578C120.802 97.7965 126.091 105.751 132.155 104.556C132.155 104.556 130.386 109.623 135.928 111.736C141.469 113.849 143.246 111.997 143.246 111.997C143.246 111.997 139.456 117.552 147.39 119.286C147.39 119.286 143.886 121.323 149.301 123.2C154.717 125.078 159.273 117.064 159.273 117.064C159.273 117.064 158.616 123.234 163.812 124.648C169.008 126.062 175.013 119.918 175.013 119.918C175.013 119.918 180.428 126.753 185.321 125.995C190.214 125.229 193.28 119.791 193.28 119.791C193.28 119.791 192.699 123.689 197.55 123.007C201.946 122.392 201.533 115.751 201.415 114.505C201.559 115.768 202.451 122.535 205.247 121.803C210.721 120.372 209.424 115.928 210.41 117.275C211.395 118.613 216.28 117.376 220.373 114.556C224.104 111.988 222.251 107.569 222.251 107.569C222.251 107.569 225.931 108.731 228.399 104.539C228.399 104.539 228.651 110.709 233.351 107.897C237.469 105.431 232.795 98.2847 232.795 98.2847C232.795 98.2847 236.223 100.642 240.316 98.0658C243.6 96.0036 238.749 92.5019 238.749 92.5019C238.749 92.5019 244.83 93.8655 246.632 91.1046C248.434 88.3437 240.509 77.3504 240.509 77.3504V77.3588Z" fill="url(#paint9_linear_102_58)"/>
<path d="M196.121 102.327L206.295 134.507L231.964 131.207L207.449 173.193L156 151.451L175.934 142.31L166.199 98L196.121 102.327Z" fill="url(#paint10_linear_102_58)"/>
<path d="M169.822 24.1365C169.822 24.1365 207.341 19.6415 220.428 62.2424C233.524 104.835 203.34 120.601 182.134 120.289C160.928 119.978 143.756 99.7676 138.956 87.2255C134.147 74.6835 136.05 29.8772 169.822 24.1449V24.1365Z" fill="url(#paint11_linear_102_58)"/>
<path d="M187.008 61.2744C187.008 61.2744 188.373 55.9629 191.034 52.2172L190.444 54.633C190.444 54.633 191.228 53.564 192.508 52.5791C193.796 51.5943 204.214 48.8333 206.404 48.8838L205.915 48C205.915 48 210.109 50.5673 213.596 56.6868C213.596 56.6868 210.396 54.0522 208.56 54.0353C206.724 54.0185 190.807 59.0101 187.185 62.4444L187 61.2828L187.008 61.2744Z" fill="#010101"/>
<path d="M217.206 133.234C217.206 133.234 229.713 128.436 240.459 130.54C251.205 132.645 271.981 162.527 277.851 175.81C283.721 189.092 287.974 210.195 287.974 210.195C287.974 210.195 209.896 249.858 175.998 239.067L153.773 199.943L137.595 217.619L102.022 190.052C102.022 190.052 121.577 157.645 144.392 152.19L165.219 146.096C165.219 146.096 217.686 160.608 217.189 133.234H217.206Z" fill="#161C40"/>
<g style="mix-blend-mode:multiply">
<path d="M125.005 69.278C126.765 73.0238 128.567 67.8386 128.567 67.8386C130.698 73.672 135.144 73.4278 135.144 73.4278C135.144 73.4278 131.338 76.1635 132.332 80.2628C133.317 84.3622 140.829 82.2999 140.829 82.2999C140.829 82.2999 140.568 90.1113 144.375 90.3049C148.19 90.4985 147.103 87.3335 147.103 87.3335C151.853 88.1416 148.805 83.8403 148.805 83.8403C150.017 82.0558 145.107 78.2426 145.107 78.2426C147.331 77.4346 145.899 72.9986 145.899 72.9986C147.112 74.9093 150.582 72.7629 150.582 72.7629C150.582 72.7629 152.3 75.4396 154.86 74.5053C157.428 73.5625 154.009 63.8319 154.009 63.8319C156.325 62.4009 151.449 52.3589 151.449 52.3589C151.449 52.3589 153.597 53.268 154.548 52.0643C155.5 50.8606 153.226 47.0559 153.226 47.0559C153.226 47.0559 154.312 48.47 158.287 47.3589C162.195 46.2646 161.05 39.9263 160.991 39.8589C164.789 40.6333 167.998 37.2832 167.998 37.2832C167.998 37.2832 169.901 40.465 171.451 39.9936C173 39.5222 176.967 33.1081 176.967 33.1081C180.344 33.7394 183.384 31.9886 183.384 31.9886C183.064 32.2664 187.183 38.2343 189.743 36.9717C192.202 35.7596 192.53 34.5643 192.556 34.4802C192.573 34.598 192.909 37.1822 195.764 41.5677C198.687 46.0626 201.996 43.3522 201.996 43.3522C201.996 43.3522 202.013 48.7815 203.058 50.7848C204.102 52.7882 205.753 54.3117 205.753 54.3117C205.753 54.3117 207.058 59.0508 208.86 58.0238C210.662 57.0053 210.292 55.2629 210.317 54.7242C210.342 54.1855 211.505 56.172 214.435 56.7528C217.366 57.3336 216.187 53.8404 216.187 53.8404C217.653 55.5912 219.977 54.5895 219.977 54.5895C219.977 54.5895 220.381 60.3639 222.108 62.0642C226.041 65.9447 227.38 57.9397 227.38 57.9397C230.125 56.6855 228.239 53.1333 228.239 53.1333C228.239 53.1333 229.098 53.9077 230.639 52.1653C232.172 50.4144 231.338 44.135 229.207 41.8454C227.076 39.5559 227.018 42.2663 227.018 42.2663C227.018 42.2663 231.464 38.7394 231.035 36.4835C230.605 34.236 227.843 30.4818 227.843 30.4818C227.843 30.4818 230.108 27.8472 230.016 25.2462C229.923 22.6536 228.34 16.7193 225.923 17.0139C223.581 17.3085 223.421 19.2108 223.43 19.4044C222.941 22.5526 206.468 22.965 206.468 22.965C206.468 22.965 209.677 25.8775 204.144 26.5761C197.204 27.4516 191.09 21.7529 191.09 21.7529C191.09 21.7529 184.563 25.4229 179.485 25.263C164.587 24.7832 155.542 21.8792 153.639 18.7479L154.178 23.6553L151.407 24.8506C151.407 24.8506 155.39 26.0627 155.963 30.9953C156.216 33.1502 148.426 35.8438 147.28 33.7394C147.28 33.7394 148.063 38.4364 142.968 38.6216C142.968 38.6216 147.011 39.6906 145.941 44.2865C144.88 48.8825 126.537 50.3976 124.887 44.539C124.887 44.539 120.499 47.8219 120.979 50.2377C121.459 52.6535 124.457 51.3825 124.457 51.3825C123.885 54.8505 126.268 59.0171 126.268 59.0171C126.268 59.0171 123.236 65.5491 124.996 69.2949L125.005 69.278Z" fill="#010101"/>
</g>
<g style="mix-blend-mode:multiply">
<path d="M173.722 63.399C173.722 63.399 170.8 58.7609 167.12 56L168.417 58.1212C168.417 58.1212 167.347 57.3384 165.823 56.7912C164.298 56.2441 153.527 56.7912 151.463 57.5151L151.657 56.5303C151.657 56.5303 148.448 60.2592 147 67.1532C147 67.1532 149.24 63.6683 150.983 63.0875C152.727 62.5067 169.402 62.4057 173.908 64.569L173.722 63.4074V63.399Z" fill="#010101"/>
</g>
<path d="M140.455 114.373C135.596 115.442 129.734 114.844 127.343 110.778C127.3 110.787 120.925 112.277 116.613 101.949C112.874 92.9839 115.173 88.4637 115.173 88.4637C115.173 88.4637 111.543 85.4503 110.987 83.1018C109.733 77.8072 111.324 68.851 115.097 68.6995C118.879 68.548 121.616 71.3678 121.616 71.3678C121.616 71.3678 124.117 65.2652 127.149 65.8123C130.181 66.3594 137.828 76.7466 137.828 76.7466C137.828 76.7466 142.14 73.0766 143.917 75.3072C145.694 77.5378 147.942 83.186 147.942 83.186C147.942 83.186 152.945 85.8038 152.162 91.8139C152.162 91.8139 154.183 95.9048 150.241 99.2886C149.391 100.021 148.254 100.72 146.772 101.334C146.772 101.334 149.104 105.332 147.816 109.836C147.26 111.78 144.152 113.556 140.464 114.373H140.455Z" fill="#010101"/>
<path d="M173.849 78.7521C174.787 78.2766 169.116 71.1289 162.665 70.9611C154.87 70.7558 154.468 77.8377 154.765 79.2163C155.06 80.5859 169.313 81.0319 173.85 78.7612L173.849 78.7521Z" fill="url(#paint12_linear_102_58)"/>
<path d="M158.213 79.0353C158.328 79.668 158.576 80.2422 158.917 80.7338C158.992 80.8462 166.622 80.7547 166.678 80.6757C167.323 79.7224 167.606 78.5461 167.382 77.3445C166.917 74.8783 164.492 73.2516 161.963 73.7222C159.434 74.1927 157.757 76.5683 158.213 79.0353V79.0353Z" fill="url(#paint13_linear_102_58)"/>
<path style="mix-blend-mode:multiply" d="M159.82 78.7352C160.12 80.3343 161.691 81.3894 163.335 81.0858C164.979 80.7823 166.063 79.2354 165.764 77.6363C165.465 76.0372 163.894 74.9821 162.25 75.2857C160.606 75.5892 159.521 77.1361 159.82 78.7352Z" fill="url(#paint14_linear_102_58)"/>
<path d="M173.296 77.1955C173.296 77.1955 168.148 66.6601 161.132 66.9231C154.117 67.1953 154.751 77.6268 154.751 77.6268C154.751 77.6268 155.361 71.9596 161.899 71.1168C168.436 70.2649 173.295 77.1863 173.295 77.1863L173.296 77.1955Z" fill="url(#paint15_linear_102_58)"/>
<path d="M173.565 77.6021L172.724 79.1993C172.724 79.1993 174.137 79.0741 174.208 78.6627C174.278 78.2422 173.565 77.6021 173.565 77.6021Z" fill="#D66C7C"/>
<path d="M171.833 79.4956C171.833 79.4956 166.628 81.3058 161.823 81.2297C157.017 81.1537 155.106 79.5149 155.106 79.5149C155.106 79.5149 162.922 80.9964 171.842 79.4947L171.833 79.4956Z" fill="#D66C7C"/>
<path d="M160.649 75.4656C160.991 75.6813 159.642 75.9936 158.546 75.776C157.562 75.5754 157.017 75.0664 157.079 74.941C157.15 74.8238 159.292 74.6292 160.649 75.4656Z" fill="white"/>
<path d="M161.479 75.5889C161.836 75.3802 162.335 75.5074 162.392 75.7135C162.448 75.9197 162.022 76.2728 161.778 76.2225C161.535 76.1812 161.279 75.7091 161.479 75.5889Z" fill="white"/>
<g style="mix-blend-mode:multiply" opacity="0.6">
<path d="M173.565 77.6021C173.565 77.6021 168.359 72.7457 162.793 72.6869C157.227 72.6372 155.204 76.2044 155.204 76.2044C155.204 76.2044 155.207 72.0755 162.339 71.2956C169.48 70.5149 173.564 77.593 173.564 77.593L173.565 77.6021Z" fill="#C978B1"/>
</g>
<path d="M173.565 77.6021C173.565 77.6021 168.935 70.7783 161.557 71.5815C154.971 72.3002 154.709 78.3389 154.709 78.3389C154.709 78.3389 153.08 73.3905 157.328 71.3771C161.364 69.4574 169.093 70.4047 173.574 77.6012L173.565 77.6021Z" fill="#401432"/>
<path d="M193.963 74.8151C192.751 74.6362 196.434 64.6581 203.519 62.1265C212.07 59.0691 215.083 66.7732 215.257 68.4026C215.43 70.0321 199.809 75.6841 193.963 74.8151V74.8151Z" fill="url(#paint16_linear_102_58)"/>
<path d="M205.541 70.2375C205.73 71.6448 205.279 72.9934 204.426 73.9758C204.301 74.1163 198.377 74.7444 198.208 74.6134C197.248 73.8864 196.563 72.7746 196.392 71.4666C196.056 68.8964 197.825 66.5303 200.348 66.1891C202.871 65.8479 205.203 67.6581 205.54 70.2284L205.541 70.2375Z" fill="url(#paint17_linear_102_58)"/>
<path style="mix-blend-mode:multiply" d="M203.934 70.4546C204.158 72.1253 203.008 73.66 201.365 73.8807C199.722 74.1014 198.214 72.93 197.999 71.2585C197.776 69.5878 198.926 68.0531 200.569 67.8324C202.212 67.6117 203.72 68.7831 203.934 70.4546V70.4546Z" fill="url(#paint18_linear_102_58)"/>
<path d="M194.018 72.8879C194.018 72.8879 195.892 59.3488 203.758 57.1105C211.624 54.8632 214.704 66.6529 214.704 66.6529C214.704 66.6529 211.977 60.6043 204.43 62.0397C196.882 63.4752 194.01 72.8979 194.01 72.8979L194.018 72.8879Z" fill="url(#paint19_linear_102_58)"/>
<path d="M193.859 73.4365L195.368 74.902C195.368 74.902 193.758 75.2759 193.534 74.8467C193.308 74.4084 193.86 73.4456 193.86 73.4456L193.859 73.4365Z" fill="#D66C7C"/>
<path d="M196.472 74.9075C196.472 74.9075 202.899 75.0315 208.184 73.1952C213.471 71.3681 215.006 68.8588 215.006 68.8588C215.006 68.8588 206.892 73.3274 196.471 74.8984L196.472 74.9075Z" fill="#D66C7C"/>
<path d="M199.073 72.0116C198.595 71.9191 198.101 72.2237 198.115 72.4706C198.129 72.7175 198.731 72.9545 198.975 72.8118C199.219 72.6782 199.335 72.0602 199.072 72.0025L199.073 72.0116Z" fill="white"/>
<g style="mix-blend-mode:multiply" opacity="0.6">
<path d="M193.859 73.4365C193.859 73.4365 197.864 66.168 204.009 64.0936C210.154 62.0192 213.687 65.2416 213.687 65.2416C213.687 65.2416 212.196 60.6755 204.005 62.4021C195.823 64.1278 193.86 73.4456 193.86 73.4456L193.859 73.4365Z" fill="#C978B1"/>
</g>
<path d="M193.859 73.4365C193.859 73.4365 196.51 64.2003 204.981 62.4196C212.541 60.8266 215.016 67.4232 215.016 67.4232C215.016 67.4232 215.018 61.3541 209.593 60.6657C204.429 60.0077 196.211 63.861 193.869 73.4447L193.859 73.4365Z" fill="#401432"/>
<path d="M113.054 69.3191C114.814 73.0649 116.616 67.8798 116.616 67.8798C118.747 73.7131 123.194 73.469 123.194 73.469C123.194 73.469 119.387 76.2046 120.381 80.304C121.366 84.4033 128.878 82.341 128.878 82.341C128.878 82.341 128.617 90.1524 132.424 90.346C136.239 90.5396 135.152 87.3746 135.152 87.3746C139.902 88.1827 136.854 83.8814 136.854 83.8814C138.066 82.0969 133.157 78.2838 133.157 78.2838C135.38 77.4757 133.948 73.0397 133.948 73.0397C135.161 74.9504 138.631 72.804 138.631 72.804C138.631 72.804 140.349 75.4807 142.909 74.5464C145.478 73.6036 142.058 63.873 142.058 63.873C144.374 62.4421 139.498 52.4 139.498 52.4C139.498 52.4 141.646 53.3091 142.597 52.1054C143.532 50.927 141.359 47.2485 141.275 47.1054C141.342 47.1896 142.479 48.4775 146.337 47.4C150.244 46.3058 149.099 39.9674 149.04 39.9001C152.838 40.6745 156.047 37.3243 156.047 37.3243C156.047 37.3243 157.95 40.5061 159.5 40.0347C161.049 39.5634 165.016 33.1492 165.016 33.1492C168.393 33.7805 171.433 32.0297 171.433 32.0297C171.113 32.3075 175.232 38.2755 177.792 37.0129C180.251 35.8007 180.58 34.6055 180.605 34.5213C180.622 34.6391 180.959 37.2233 183.813 41.6088C186.736 46.1037 190.046 43.3933 190.046 43.3933C190.046 43.3933 190.062 48.8226 191.107 50.8259C192.151 52.8293 193.802 54.3529 193.802 54.3529C193.802 54.3529 195.107 59.0919 196.909 58.065C198.712 57.0465 198.341 55.304 198.366 54.7653C198.392 54.2266 199.554 56.2131 202.485 56.7939C205.415 57.3747 204.236 53.8815 204.236 53.8815C205.702 55.6323 208.026 54.6306 208.026 54.6306C208.026 54.6306 208.43 60.405 210.157 62.1054C214.09 65.9858 215.429 57.9808 215.429 57.9808C218.174 56.7266 216.288 53.1744 216.288 53.1744C216.288 53.1744 217.147 53.9488 218.688 52.2064C220.221 50.4556 219.387 44.1761 217.256 41.8866C215.277 39.7654 215.084 41.9371 215.067 42.2654C215.067 42.2906 215.067 42.3075 215.067 42.3075C215.067 42.3075 219.513 38.7805 219.084 36.5246C218.654 34.2772 215.892 30.523 215.892 30.523C215.892 30.523 218.157 27.8883 218.065 25.2873C217.972 22.6947 216.389 16.7604 213.972 17.055C211.631 17.3496 211.471 19.252 211.479 19.4456C211.479 19.4456 210.157 15.4304 208.952 14.2604C208.169 13.5028 205.483 12.4506 204.497 12.4927C202.114 12.6022 200.649 14.0836 200.649 14.0836C198.215 12.8631 195.697 10.119 195.697 10.119C195.697 10.119 197.364 8.68803 195.882 6.77726C192.656 2.60219 183.241 0.842938 178.55 0.152705C172.175 -0.790053 169.134 2.93889 169.193 2.98098C162.885 2.60219 158.304 4.25202 158.304 4.25202C158.304 4.25202 158.287 3.41869 155.735 3.11566C153.293 2.82946 151.785 3.99949 150.278 6.28063L150.253 6.32272C150.253 6.32272 148.324 4.95067 145.713 6.8446C142.606 9.09207 140.66 15.4894 142.227 23.6964C141.216 23.9994 140.669 24.2267 139.456 24.8917C126.495 20.1274 126.967 29.9253 126.967 29.9253C126.967 29.9253 124.895 29.6055 121.366 30.8849C117.938 32.1223 118.039 32.7873 118.334 34.0162C118.637 35.2789 121.223 35.2536 121.223 35.2536C113.904 39.294 115.075 38.9825 115.075 38.9825C112.456 41.2132 112.565 43.2334 112.784 44.1088C112.86 44.4034 112.944 44.5718 112.944 44.5718C112.944 44.5718 108.557 47.8546 109.037 50.2704C109.517 52.6862 112.515 51.4152 112.515 51.4152C112.178 53.4606 112.86 55.7417 113.483 57.2737C113.921 58.3428 114.325 59.0498 114.325 59.0498C114.325 59.0498 111.294 65.5818 113.054 69.3276V69.3191Z" fill="#010101"/>
<g style="mix-blend-mode:multiply">
<path d="M113.054 69.3191C114.814 73.0649 116.616 67.8797 116.616 67.8797C118.747 73.713 123.194 73.4689 123.194 73.4689C123.194 73.4689 119.387 76.2046 120.381 80.3039C121.366 84.4032 128.878 82.3409 128.878 82.3409C128.878 82.3409 128.617 90.1524 132.424 90.346C136.239 90.5396 135.153 87.3746 135.153 87.3746C139.903 88.1827 136.854 83.8813 136.854 83.8813C138.067 82.0968 133.157 78.2837 133.157 78.2837C135.38 77.4756 133.948 73.0396 133.948 73.0396C135.161 74.9504 138.631 72.8039 138.631 72.8039C138.631 72.8039 140.349 75.4807 142.909 74.5464C145.478 73.6036 142.059 63.873 142.059 63.873C144.375 62.442 139.498 52.4 139.498 52.4C139.498 52.4 141.646 53.3091 142.598 52.1054C143.532 50.9269 141.36 47.2485 141.275 47.1054C141.343 47.1895 142.48 48.4774 146.337 47.4C150.245 46.3057 149.099 39.9673 149.04 39.9C152.838 40.6744 156.047 37.3243 156.047 37.3243C156.047 37.3243 157.95 40.5061 159.5 40.0347C161.05 39.5633 165.016 33.1492 165.016 33.1492C168.393 33.7805 171.434 32.0297 171.434 32.0297C171.114 32.3074 175.232 38.2754 177.792 37.0128C180.251 35.8007 180.58 34.6054 180.605 34.5212C180.622 34.6391 180.959 37.2233 183.814 41.6088C186.736 46.1037 190.046 43.3933 190.046 43.3933C190.046 43.3933 190.063 48.8225 191.107 50.8259C192.151 52.8293 193.802 54.3528 193.802 54.3528C193.802 54.3528 195.107 59.0919 196.91 58.0649C198.712 57.0464 198.341 55.304 198.367 54.7653C198.392 54.2266 199.554 56.2131 202.485 56.7939C205.416 57.3747 204.236 53.8814 204.236 53.8814C205.702 55.6323 208.026 54.6306 208.026 54.6306C208.026 54.6306 208.431 60.405 210.157 62.1053C214.09 65.9858 215.429 57.9808 215.429 57.9808C218.175 56.7266 216.288 53.1744 216.288 53.1744C216.288 53.1744 217.147 53.9488 218.688 52.2064C220.221 50.4555 219.387 44.1761 217.257 41.8865C215.277 39.7653 215.084 41.937 215.067 42.2653C215.067 42.2906 215.067 42.3074 215.067 42.3074C215.8 46.4825 211.824 43.2838 211.824 43.2838C211.824 43.2838 211.858 45.8596 209.096 45.0936C209.256 45.1441 211.286 45.8512 209.146 46.8444C206.923 47.8798 204.481 44.134 204.481 44.134C204.481 44.134 203.664 46.3983 200.91 46.5919C200.91 46.5919 203.858 47.8124 200.607 48.7889C197.356 49.7653 198.19 43.1997 198.19 43.1997C198.19 43.1997 196.379 45.1188 194.206 43.1239C192.025 41.129 192.227 36.5751 192.227 36.5751C192.227 36.5751 191.427 39.7485 187.814 39.2855C184.201 38.8226 181.498 32.4926 181.498 32.4926C181.498 32.4926 180.218 34.0162 178.584 34.5381C176.958 35.0515 175.383 29.8495 175.383 29.8495C175.383 29.8495 175.316 31.794 171.425 30.4051C171.425 30.4051 171.914 31.7182 169.244 31.8866C166.574 32.0549 163.096 28.9236 163.096 28.9236C163.096 28.9236 163.526 34.0667 161.479 35.0515C159.433 36.0364 158.708 28.7805 158.708 28.7805C158.708 28.7805 156.468 32.4505 154.009 31.4489C151.55 30.4472 150.775 28.2081 150.775 28.2081C150.775 28.2081 152.047 31.8024 149.192 32.2822C146.455 32.7367 145.082 30.8681 144.964 30.7081C145.132 30.9943 148.274 36.5246 144.231 38.3344C144.72 38.1239 148.51 36.5667 147.785 39.1004C147.011 41.8108 142.598 39.9337 142.598 39.9337C142.598 39.9337 144.316 41.8865 142.446 43.4606C140.728 44.9084 139.675 43.7721 139.507 43.57C139.751 43.9151 142.042 47.299 138.218 49.3192C138.412 49.235 140.93 48.2165 140.349 49.8747C139.743 51.6003 136.525 52.1138 136.525 52.1138C136.525 52.1138 139.263 54.033 138.05 55.5902C137.57 56.2047 136.778 56.3057 135.986 56.1963C138.345 57.1811 141.385 59.075 139.945 61.9875C138.286 65.3292 135.119 63.4858 133.569 62.2905C134.588 63.2922 135.936 65.102 134.479 66.6592C132.331 68.9572 128.626 63.8477 128.626 63.8477C128.626 63.8477 128.921 66.6928 125.56 66.4235C125.56 66.4235 129.325 68.9487 127.127 70.346C124.92 71.7433 118.385 70.8848 119.909 67.5767C119.909 67.5767 117.223 65.8258 118.713 63.6289C118.713 63.6289 114.486 63.7467 114.351 59.0498C114.351 59.0498 111.319 65.5817 113.079 69.3275L113.054 69.3191Z" fill="#010101"/>
</g>
<g style="mix-blend-mode:soft-light" opacity="0.5">
<path d="M167.922 17.8209C167.922 17.8209 165.589 19.3024 168.09 19.7653C170.592 20.2283 174.499 18.1071 174.499 18.1071C182.003 18.4606 184.159 16.7014 182.744 13.8478C182.744 13.8478 187.09 7.57683 179.839 7.92194C178.003 8.00612 179.03 9.51285 179.064 9.5381C175.257 9.31083 175.956 11.0953 175.956 11.0953C175.956 11.0953 170.886 8.70477 169.337 8.6711C153.529 8.30073 159.668 12.7872 159.668 12.7872C144.678 19.7064 167.939 17.8293 167.939 17.8293L167.922 17.8209Z" fill="#010101"/>
</g>
<path d="M195.695 84.552C195.695 84.552 195.603 85.116 193.573 85.5032C191.543 85.8988 189.918 87.978 186.456 88.5251C182.995 89.0638 180.982 87.5571 178.927 87.7928C176.873 88.0369 176.443 87.5571 176.443 87.5571C175.929 86.2692 175.921 84.9477 176.123 83.7776C176.123 83.7776 176.123 83.744 176.123 83.7355C176.494 81.6817 177.487 80.1244 177.487 80.1244C181.976 77.0184 187.189 76.2019 192.419 77.7928C192.419 77.7928 193.337 78.5504 194.196 79.7962V79.813C195.03 81.0167 195.813 82.6749 195.678 84.552H195.695Z" fill="url(#paint20_linear_102_58)"/>
<path d="M191.257 86.5386C191.257 86.5386 192.613 84.9477 194.651 85.2254L191.257 86.5386Z" fill="#812852"/>
<path d="M177.866 87.8609C177.866 87.8609 179.753 86.9581 181.985 88.2237L177.866 87.8609Z" fill="#812852"/>
<g style="mix-blend-mode:multiply" opacity="0.6">
<path d="M195.695 84.552C195.695 84.552 195.603 85.116 193.573 85.5032C191.543 85.8988 189.918 87.9779 186.456 88.5251C182.995 89.0638 180.982 87.5571 178.927 87.7928C176.873 88.0369 176.443 87.5571 176.443 87.5571C175.929 86.2692 175.921 84.9477 176.123 83.7776C176.098 84.1143 175.997 86.286 176.889 86.6732C177.858 87.0857 182.827 85.983 185.976 85.4864C189.126 84.9897 194.482 84.1648 194.954 83.2389C195.409 82.3467 194.306 80.0234 194.196 79.813C195.03 81.0167 195.813 82.6749 195.678 84.552H195.695Z" fill="#CC78B1"/>
</g>
<path style="mix-blend-mode:multiply" opacity="0.6" d="M192.419 77.7844C192.419 77.7844 191.838 81.4292 192.352 83.845C192.352 83.845 191.147 81.6059 191.653 77.574L192.419 77.7844V77.7844Z" fill="url(#paint21_linear_102_58)"/>
<path style="mix-blend-mode:multiply" opacity="0.6" d="M177.664 80.0992C177.664 80.0992 179.332 83.3989 179.576 85.8483C179.576 85.8483 180.039 83.3399 178.329 79.6615L177.664 80.0992V80.0992Z" fill="url(#paint22_linear_102_58)"/>
<g style="mix-blend-mode:multiply" opacity="0.6">
<path d="M176.889 86.6732C176.889 86.6732 176.494 87.2793 176.435 87.5655C176.376 87.8517 181.631 91.4544 186.777 90.6463C191.922 89.8382 195.67 85.0908 195.687 84.552C195.695 84.0133 194.752 83.4746 194.752 83.4746C194.752 83.4746 190.827 84.7288 185.976 85.4864C181.117 86.244 176.889 86.6732 176.889 86.6732V86.6732Z" fill="#CC78B1"/>
</g>
<path d="M189.901 83.6598C189.109 83.3568 190.204 81.951 190.558 81.951C190.912 81.951 191.223 82.6918 191.114 83.2221C191.004 83.7524 190.238 83.7861 189.901 83.6598Z" fill="#FBCBBB"/>
<path style="mix-blend-mode:multiply" opacity="0.6" d="M178.13 72.7946C178.13 72.7946 177.213 88.9406 172.831 92.7338C168.447 96.535 152.833 93.667 145.697 87.7901C138.562 81.9131 147.634 62.436 147.634 62.436C147.634 62.436 152.924 56.9778 164.642 59.3244C176.359 61.671 178.132 72.7865 178.132 72.7865L178.13 72.7946Z" fill="url(#paint23_linear_102_58)"/>
<path style="mix-blend-mode:multiply" opacity="0.6" d="M196.008 82.1606C196.008 82.1606 197.811 96.3525 201.971 99.6269C206.14 102.893 220.246 99.5932 226.495 93.9198C232.744 88.2464 223.598 70.8896 223.598 70.8896C223.598 70.8896 218.528 66.1506 207.95 68.8105C197.373 71.4704 196 82.169 196 82.169L196.008 82.1606Z" fill="url(#paint24_linear_102_58)"/>
<path d="M178.894 77.5503C179.366 77.2205 182.676 75.0165 188.356 75.2731C194.558 75.5556 198.318 78.5234 198.729 78.8511" stroke="url(#paint25_linear_102_58)" stroke-miterlimit="10"/>
<g style="mix-blend-mode:multiply">
<path d="M90.7433 55.8016C90.7433 55.8016 78.2645 37.6303 66.01 46.0199C53.7555 54.4095 67.7987 78.7095 67.7987 78.7095L68.8482 75.699C68.8482 75.699 59.046 63.8734 64.6357 57.4849C70.2308 51.1034 78.7628 51.3634 78.7628 51.3634C78.7628 51.3634 56.9436 56.8514 57.9521 71.2064C58.9535 85.5669 77.8315 101.096 88.157 90.3357C98.477 79.5678 90.7504 55.7962 90.7504 55.7962L90.7433 55.8016Z" fill="#010101"/>
</g>
<path style="mix-blend-mode:multiply" d="M63.3297 84.1935C63.3297 84.1935 66.385 58.4755 88.6787 58.9146L89.5322 57.574C89.5322 57.574 67.2001 55.2621 60.4808 79.725L63.3351 84.2006L63.3297 84.1935Z" fill="url(#paint26_linear_102_58)"/>
<path d="M58.0964 72.6146C58.0964 72.6146 67.529 51.3853 87.2479 53.1669L84.2931 51.5147C84.2931 51.5147 73.214 48.1204 57.9448 71.2114L58.0964 72.6146Z" fill="#010101"/>
<path style="mix-blend-mode:multiply" d="M78.8395 93.8861C78.8395 93.8861 63.9463 73.93 87.3568 61.2005L86.9106 62.1615C86.9106 62.1615 65.8442 75.3345 81.2484 93.8409L78.8466 93.8807L78.8395 93.8861Z" fill="url(#paint27_linear_102_58)"/>
<path d="M91.752 53.5328C91.752 53.5328 84.2458 65.96 91.2956 85.3202C91.2956 85.3202 73.7558 72.7722 91.752 53.5328Z" fill="#F78E1E"/>
<path d="M230.776 68.6612C230.776 69.545 230.743 70.3447 230.684 71.0602V71.0938C230.271 76.2285 228.654 77.6763 228.284 80.0164C227.963 82.045 226.111 86.3042 223.045 82.651L223.037 82.6426C223.037 82.6426 221.63 66.077 222.094 62.9541C222.094 62.9541 222.734 58.274 225.05 57.2218C228.022 55.8666 230.802 60.8498 230.785 68.6528L230.776 68.6612Z" fill="url(#paint28_linear_102_58)"/>
<path style="mix-blend-mode:multiply" opacity="0.6" d="M222.279 72.3565C222.279 72.3565 225.706 62.4576 227.938 61.4895C230.17 60.53 230.221 68.4676 230.153 71.1191C230.094 73.7791 229.631 75.4121 229.631 75.4121C229.631 75.4121 229.741 72.2723 229.471 69.7808C229.084 66.2118 227.736 63.2993 226.801 63.7454C225.867 64.1916 225.26 68.8548 225.252 69.3683C225.252 69.8902 226.119 70.6814 226.507 73.4424C226.894 76.2033 226.347 79.3514 225.791 79.402C225.235 79.4525 225.125 77.1882 224.721 74.6124C224.317 72.0367 222.843 72.7858 222.422 74.5619L222.279 72.3481V72.3565Z" fill="url(#paint29_linear_102_58)"/>
<path style="mix-blend-mode:multiply" opacity="0.6" d="M222.422 74.5618C222.422 74.5618 223.289 71.9187 224.207 72.912C225.134 73.9053 225.075 77.0787 225.706 77.3564C226.338 77.6342 226.717 75.0248 226.212 72.7689C225.706 70.513 224.687 68.577 223.753 69.1157L222.279 72.3565L222.422 74.5703V74.5618Z" fill="url(#paint30_linear_102_58)"/>
<path style="mix-blend-mode:multiply" d="M230.675 71.0939C230.263 76.2285 228.654 77.6763 228.275 80.0164C227.955 82.045 226.102 86.3043 223.037 82.6511C223.205 82.7858 224.847 84.04 226.17 83.1477C227.568 82.1965 227.761 80.3026 228.174 78.7874C228.587 77.2807 230.069 76.0518 230.675 71.0854V71.0939Z" fill="url(#paint31_linear_102_58)"/>
<g style="mix-blend-mode:multiply" opacity="0.4">
<path d="M198.564 105.707C198.53 105.798 198.225 106.522 197.626 107.46C197.615 107.483 197.592 107.506 197.581 107.528C196.981 108.456 196.156 109.96 194.98 110.921C194.958 110.933 194.947 110.955 194.924 110.966C193.759 111.905 192.29 112.663 190.504 112.878C190.436 112.878 190.368 112.889 190.3 112.9C190.232 112.9 190.164 112.923 190.097 112.923C188.31 113.138 186.705 112.765 185.348 112.131C185.326 112.131 185.303 112.109 185.281 112.097C183.913 111.453 182.737 110.186 181.945 109.428C181.923 109.406 181.912 109.394 181.889 109.372C181.086 108.603 180.623 107.969 180.555 107.89C180.691 108.105 185.088 115.377 190.436 114.721C190.47 114.721 190.492 114.721 190.526 114.71C190.56 114.71 190.583 114.71 190.617 114.71C195.953 114.054 198.474 105.945 198.553 105.696L198.564 105.707Z" fill="#CC77B1"/>
</g>
<path d="M196.97 101.613L196.461 101.727L195.749 101.885L189.056 102.699C184.681 103.231 182.364 103.513 182.364 103.513H181.64L181.12 103.536L178 103.593C178.023 103.66 178.859 105.753 180.566 107.89C180.962 108.388 181.403 108.886 181.9 109.372C181.923 109.394 181.934 109.406 181.957 109.428C182.884 110.322 184.026 111.521 185.292 112.097C185.314 112.097 185.337 112.12 185.36 112.131C186.784 112.765 188.435 113.093 190.3 112.889C192.165 112.64 193.68 111.928 194.913 110.966C194.935 110.955 194.946 110.933 194.969 110.921C196.066 110.062 196.88 108.625 197.569 107.528C197.581 107.506 197.603 107.483 197.615 107.46C197.976 106.872 198.282 106.284 198.553 105.708C199.683 103.219 199.989 100.991 200 100.912L196.959 101.613H196.97Z" fill="#F16564"/>
<path d="M187.881 93.0521C180.645 94.1266 178 103.604 178 103.604C179.289 104.927 181.109 103.808 181.109 103.808C181.29 103.728 181.471 103.638 181.64 103.536C183.573 102.473 185.054 100.731 187.27 100.177C187.723 100.064 188.209 100.008 188.729 99.9849C189.237 99.8832 189.724 99.8153 190.187 99.8153C192.471 99.8153 194.325 101.15 196.461 101.715C196.654 101.772 196.846 101.806 197.038 101.851C197.038 101.851 199.062 102.496 200 100.901C200 100.901 195.15 92.3396 187.869 93.0408L187.881 93.0521Z" fill="#D94058"/>
<path d="M197.434 101.67C195.048 108.399 190.764 109.428 189.904 109.575C185.02 110.175 180.736 104.136 180.679 103.717C180.679 103.672 181.109 103.299 181.188 103.219C181.912 102.45 182.138 99.8492 184.715 98.1414C184.727 98.1414 184.738 98.1301 184.749 98.1188C184.783 98.0962 184.817 98.0736 184.84 98.0623C184.851 98.0623 184.874 98.0396 184.896 98.0283C184.919 98.017 184.941 98.0057 184.953 97.9944C184.953 97.9944 184.975 97.9831 184.987 97.9718C185.032 97.9492 185.088 97.9152 185.145 97.8813C185.201 97.8474 185.258 97.8134 185.314 97.7908C185.371 97.7569 185.416 97.7343 185.484 97.7003C185.507 97.7003 185.518 97.6777 185.541 97.6777C185.936 97.4855 186.366 97.3045 186.829 97.1688C187.293 97.0331 187.79 96.92 188.333 96.8521C189.407 96.7164 190.379 96.7843 191.238 96.9765C191.261 96.9765 191.284 96.9765 191.295 96.9878C191.363 96.9991 191.419 97.0218 191.476 97.0331C191.532 97.0444 191.6 97.067 191.657 97.0783C191.724 97.1009 191.781 97.1122 191.826 97.1236C191.838 97.1236 191.849 97.1236 191.86 97.1349C191.883 97.1349 191.905 97.1462 191.928 97.1575C191.951 97.1575 191.973 97.1688 191.984 97.1801C192.018 97.1914 192.052 97.2027 192.098 97.214C192.109 97.214 192.12 97.214 192.143 97.2253C195.048 98.2545 196.088 100.641 196.789 101.297C196.88 101.376 197.411 101.613 197.4 101.659L197.434 101.67Z" fill="#741C55"/>
<g style="mix-blend-mode:soft-light">
<path d="M193.443 108.241L195.455 109.496C196.36 108.795 197.095 107.743 197.095 107.743L194.155 107.37L193.454 108.241H193.443Z" fill="#FBDCEA"/>
</g>
<path d="M189.644 108.083C189.463 108.037 186.875 107.822 185.71 108.625C185.71 108.625 187.598 109.858 189.87 109.587C189.859 109.587 189.938 109.587 189.916 109.587C191.815 109.349 193.646 107.664 193.646 107.664C192.595 107.2 191.204 107.234 189.644 108.094V108.083Z" fill="#BF2940"/>
<g style="mix-blend-mode:multiply" opacity="0.6">
<path d="M197.434 101.67C196.02 105.425 194.664 106.601 194.506 106.793C193.861 104.52 186.513 104.916 184.896 108.128C182.748 106.691 180.736 104.136 180.679 103.717C180.679 103.672 180.996 103.446 181.188 103.219C181.776 102.496 182.138 99.8492 184.715 98.1414C184.727 98.1414 184.738 98.1301 184.749 98.1188C184.783 98.0962 184.817 98.0736 184.84 98.0623C184.851 98.0623 184.874 98.0396 184.896 98.0283C184.919 98.017 184.941 98.0057 184.953 97.9944C184.953 97.9944 184.975 97.9831 184.987 97.9718C185.032 97.9492 185.088 97.9152 185.145 97.8813C185.201 97.8474 185.258 97.8134 185.314 97.7908C185.371 97.7569 185.416 97.7343 185.484 97.7003C185.507 97.7003 185.518 97.6777 185.541 97.6777C185.936 97.4855 186.366 97.3045 186.829 97.1688C187.293 97.0331 187.79 96.92 188.333 96.8521C189.407 96.7164 190.379 96.7843 191.238 96.9765C191.261 96.9765 191.284 96.9765 191.295 96.9878C191.363 96.9991 191.419 97.0218 191.476 97.0331C191.532 97.0444 191.6 97.067 191.657 97.0783C191.724 97.1009 191.781 97.1122 191.826 97.1236C191.838 97.1236 191.849 97.1236 191.86 97.1349C191.883 97.1349 191.905 97.1462 191.928 97.1575C191.951 97.1575 191.973 97.1688 191.984 97.1801C192.018 97.1914 192.052 97.2027 192.098 97.214C192.109 97.214 192.12 97.214 192.143 97.2253C195.048 98.2545 196.1 100.675 196.789 101.297C197.027 101.512 197.422 101.613 197.4 101.659L197.434 101.67Z" fill="#CC77B1"/>
</g>
<g style="mix-blend-mode:multiply" opacity="0.6">
<path d="M183.019 102.654C186.377 104.656 195.93 101.365 194.856 99.6795C193.793 98.0057 189.622 95.9473 186.038 97.6664C184.048 98.6164 181.572 101.794 183.008 102.654H183.019Z" fill="#CC77B1"/>
</g>
<path d="M192.177 97.2254C192.177 97.2254 192.154 97.2254 192.131 97.2141C192.109 97.2141 192.064 97.1915 192.018 97.1801C191.996 97.1801 191.985 97.1688 191.962 97.1575C191.939 97.1575 191.917 97.1462 191.894 97.1349C191.883 97.1349 191.871 97.1349 191.86 97.1236C191.724 97.0784 191.532 97.0331 191.317 96.9766C191.295 96.9766 191.284 96.9766 191.261 96.9653C190.537 96.7956 189.463 96.6373 188.367 96.773H188.344H188.322C187.225 96.9087 186.219 97.3272 185.563 97.6665C185.541 97.6665 185.529 97.6891 185.507 97.6891C185.314 97.7909 185.145 97.8813 185.02 97.9605C185.009 97.9605 184.998 97.9718 184.987 97.9831C184.964 97.9944 184.941 98.0058 184.93 98.0171C184.907 98.0284 184.896 98.0397 184.874 98.051C184.828 98.0736 184.806 98.0962 184.783 98.1075C184.76 98.1188 184.749 98.1302 184.749 98.1302C186.004 98.2659 187.327 98.1754 188.514 97.9944C189.712 97.8813 191.012 97.6438 192.199 97.2141L192.177 97.2254Z" fill="#FBDCEA"/>
<defs>
<linearGradient id="paint0_linear_102_58" x1="224.97" y1="100.084" x2="326.071" y2="71.3894" gradientUnits="userSpaceOnUse">
<stop stop-color="#F7A190"/>
<stop offset="0.43" stop-color="#F3A592"/>
<stop offset="0.51" stop-color="#F39F8D"/>
<stop offset="0.76" stop-color="#F49383"/>
<stop offset="1" stop-color="#F58F80"/>
</linearGradient>
<linearGradient id="paint1_linear_102_58" x1="282.301" y1="31.9501" x2="311.905" y2="23.5479" gradientUnits="userSpaceOnUse">
<stop stop-color="#F7A190"/>
<stop offset="0.43" stop-color="#F3A592"/>
<stop offset="0.51" stop-color="#F39F8D"/>
<stop offset="0.76" stop-color="#F49383"/>
<stop offset="1" stop-color="#F58F80"/>
</linearGradient>
<linearGradient id="paint2_linear_102_58" x1="274.667" y1="34.3125" x2="293.6" y2="28.9392" gradientUnits="userSpaceOnUse">
<stop stop-color="#F7A190"/>
<stop offset="0.43" stop-color="#F3A592"/>
<stop offset="0.51" stop-color="#F39F8D"/>
<stop offset="0.76" stop-color="#F49383"/>
<stop offset="1" stop-color="#F58F80"/>
</linearGradient>
<linearGradient id="paint3_linear_102_58" x1="276.337" y1="25.3101" x2="301.322" y2="18.2188" gradientUnits="userSpaceOnUse">
<stop stop-color="#F7A190"/>
<stop offset="0.43" stop-color="#F3A592"/>
<stop offset="0.51" stop-color="#F39F8D"/>
<stop offset="0.76" stop-color="#F49383"/>
<stop offset="1" stop-color="#F58F80"/>
</linearGradient>
<linearGradient id="paint4_linear_102_58" x1="299.536" y1="13.7246" x2="308.868" y2="11.0759" gradientUnits="userSpaceOnUse">
<stop stop-color="#F7A190"/>
<stop offset="0.43" stop-color="#F3A592"/>
<stop offset="0.51" stop-color="#F39F8D"/>
<stop offset="0.76" stop-color="#F49383"/>
<stop offset="1" stop-color="#F58F80"/>
</linearGradient>
<linearGradient id="paint5_linear_102_58" x1="279.961" y1="20.8563" x2="289.301" y2="18.2055" gradientUnits="userSpaceOnUse">
<stop stop-color="#F7A190"/>
<stop offset="0.43" stop-color="#F3A592"/>
<stop offset="0.51" stop-color="#F39F8D"/>
<stop offset="0.76" stop-color="#F49383"/>
<stop offset="1" stop-color="#F58F80"/>
</linearGradient>
<linearGradient id="paint6_linear_102_58" x1="293.019" y1="16.929" x2="302.359" y2="14.2781" gradientUnits="userSpaceOnUse">
<stop stop-color="#F7A190"/>
<stop offset="0.43" stop-color="#F3A592"/>
<stop offset="0.51" stop-color="#F39F8D"/>
<stop offset="0.76" stop-color="#F49383"/>
<stop offset="1" stop-color="#F58F80"/>
</linearGradient>
<linearGradient id="paint7_linear_102_58" x1="286.74" y1="19.3839" x2="296.08" y2="16.733" gradientUnits="userSpaceOnUse">
<stop stop-color="#F7A190"/>
<stop offset="0.43" stop-color="#F3A592"/>
<stop offset="0.51" stop-color="#F39F8D"/>
<stop offset="0.76" stop-color="#F49383"/>
<stop offset="1" stop-color="#F58F80"/>
</linearGradient>
<linearGradient id="paint8_linear_102_58" x1="38.6063" y1="210.927" x2="116.794" y2="157.394" gradientUnits="userSpaceOnUse">
<stop stop-color="#F8A795"/>
<stop offset="0.43" stop-color="#F8A997"/>
<stop offset="0.52" stop-color="#F7A290"/>
<stop offset="0.76" stop-color="#F69684"/>
<stop offset="1" stop-color="#F69280"/>
</linearGradient>
<linearGradient id="paint9_linear_102_58" x1="190.004" y1="123.271" x2="181.975" y2="71.9161" gradientUnits="userSpaceOnUse">
<stop stop-color="#31111B"/>
<stop offset="1" stop-color="#1A0F21"/>
</linearGradient>
<linearGradient id="paint10_linear_102_58" x1="154.303" y1="140.698" x2="231.549" y2="128.609" gradientUnits="userSpaceOnUse">
<stop stop-color="#F9AD99"/>
<stop offset="0.18" stop-color="#F79B8D"/>
<stop offset="0.46" stop-color="#F48781"/>
<stop offset="0.73" stop-color="#F37B79"/>
<stop offset="1" stop-color="#F37777"/>
</linearGradient>
<linearGradient id="paint11_linear_102_58" x1="137.104" y1="78.6251" x2="221.73" y2="65.3813" gradientUnits="userSpaceOnUse">
<stop stop-color="#F7A393"/>
<stop offset="0.43" stop-color="#F5A794"/>
<stop offset="0.51" stop-color="#F5A18E"/>
<stop offset="0.76" stop-color="#F59584"/>
<stop offset="1" stop-color="#F69181"/>
</linearGradient>
<linearGradient id="paint12_linear_102_58" x1="165.012" y1="81.3351" x2="162.066" y2="70.6389" gradientUnits="userSpaceOnUse">
<stop stop-color="#E6DBEC"/>
<stop offset="1" stop-color="#B8C1E2"/>
</linearGradient>
<linearGradient id="paint13_linear_102_58" x1="163.209" y1="80.5899" x2="161.8" y2="73.0038" gradientUnits="userSpaceOnUse">
<stop stop-color="#57345B"/>
<stop offset="1" stop-color="#301138"/>
</linearGradient>
<linearGradient id="paint14_linear_102_58" x1="163.17" y1="80.3825" x2="162.092" y2="74.5763" gradientUnits="userSpaceOnUse">
<stop stop-color="#A093B6"/>
<stop offset="0.99" stop-color="#734B61"/>
</linearGradient>
<linearGradient id="paint15_linear_102_58" x1="172.137" y1="71.1058" x2="154.125" y2="74.4486" gradientUnits="userSpaceOnUse">
<stop stop-color="#F7A190"/>
<stop offset="0.43" stop-color="#F3A592"/>
<stop offset="0.51" stop-color="#F39F8D"/>
<stop offset="0.76" stop-color="#F49383"/>
<stop offset="1" stop-color="#F58F80"/>
</linearGradient>
<linearGradient id="paint16_linear_102_58" x1="204.655" y1="74.539" x2="204.039" y2="61.6282" gradientUnits="userSpaceOnUse">
<stop stop-color="#E6DBEC"/>
<stop offset="1" stop-color="#B8C1E2"/>
</linearGradient>
<linearGradient id="paint17_linear_102_58" x1="201.46" y1="74.4631" x2="200.361" y2="66.2428" gradientUnits="userSpaceOnUse">
<stop stop-color="#57345B"/>
<stop offset="1" stop-color="#301138"/>
</linearGradient>
<linearGradient id="paint18_linear_102_58" x1="201.387" y1="73.9187" x2="200.579" y2="67.8759" gradientUnits="userSpaceOnUse">
<stop stop-color="#A093B6"/>
<stop offset="0.99" stop-color="#734B61"/>
</linearGradient>
<linearGradient id="paint19_linear_102_58" x1="193.079" y1="65.7757" x2="214.221" y2="62.9492" gradientUnits="userSpaceOnUse">
<stop stop-color="#F7A190"/>
<stop offset="0.43" stop-color="#F3A592"/>
<stop offset="0.51" stop-color="#F39F8D"/>
<stop offset="0.76" stop-color="#F49383"/>
<stop offset="1" stop-color="#F58F80"/>
</linearGradient>
<linearGradient id="paint20_linear_102_58" x1="186.448" y1="88.5413" x2="184.677" y2="77.2142" gradientUnits="userSpaceOnUse">
<stop stop-color="#F37A7F"/>
<stop offset="0.47" stop-color="#F4837F"/>
<stop offset="1" stop-color="#F58880"/>
</linearGradient>
<linearGradient id="paint21_linear_102_58" x1="192.698" y1="83.8155" x2="191.723" y2="77.5781" gradientUnits="userSpaceOnUse">
<stop stop-color="#FCE4D6"/>
<stop offset="0.99" stop-color="#AE7DB7"/>
</linearGradient>
<linearGradient id="paint22_linear_102_58" x1="179.229" y1="85.9283" x2="178.253" y2="79.6909" gradientUnits="userSpaceOnUse">
<stop stop-color="#FCE4D6"/>
<stop offset="0.99" stop-color="#AE7DB7"/>
</linearGradient>
<linearGradient id="paint23_linear_102_58" x1="158.654" y1="93.8436" x2="162.389" y2="58.9838" gradientUnits="userSpaceOnUse">
<stop stop-color="#FCE4D6"/>
<stop offset="0.99" stop-color="#AE7DB7"/>
</linearGradient>
<linearGradient id="paint24_linear_102_58" x1="214.838" y1="100.314" x2="209.894" y2="68.6862" gradientUnits="userSpaceOnUse">
<stop stop-color="#FCE4D6"/>
<stop offset="0.99" stop-color="#AE7DB7"/>
</linearGradient>
<linearGradient id="paint25_linear_102_58" x1="188.684" y1="79.007" x2="189.132" y2="74.8332" gradientUnits="userSpaceOnUse">
<stop stop-color="#FCE4D6"/>
<stop offset="0.99" stop-color="#AE7DB7"/>
</linearGradient>
<linearGradient id="paint26_linear_102_58" x1="59.6626" y1="79.4066" x2="89.0186" y2="56.9183" gradientUnits="userSpaceOnUse">
<stop stop-color="#827FBC"/>
<stop offset="1" stop-color="white"/>
</linearGradient>
<linearGradient id="paint27_linear_102_58" x1="72.8199" y1="86.028" x2="93.9664" y2="69.8287" gradientUnits="userSpaceOnUse">
<stop stop-color="#827FBC"/>
<stop offset="1" stop-color="white"/>
</linearGradient>
<linearGradient id="paint28_linear_102_58" x1="233.454" y1="90.8704" x2="229.047" y2="62.6855" gradientUnits="userSpaceOnUse">
<stop stop-color="#F7A393"/>
<stop offset="0.43" stop-color="#F5A794"/>
<stop offset="0.51" stop-color="#F5A18E"/>
<stop offset="0.76" stop-color="#F59584"/>
<stop offset="1" stop-color="#F69181"/>
</linearGradient>
<linearGradient id="paint29_linear_102_58" x1="232.312" y1="83.5344" x2="229.279" y2="64.1319" gradientUnits="userSpaceOnUse">
<stop stop-color="#F7A393"/>
<stop offset="0.43" stop-color="#F5A794"/>
<stop offset="0.51" stop-color="#F5A18E"/>
<stop offset="0.76" stop-color="#F59584"/>
<stop offset="1" stop-color="#F69181"/>
</linearGradient>
<linearGradient id="paint30_linear_102_58" x1="228.807" y1="76.7808" x2="227.49" y2="68.3562" gradientUnits="userSpaceOnUse">
<stop stop-color="#F7A393"/>
<stop offset="0.43" stop-color="#F5A794"/>
<stop offset="0.51" stop-color="#F5A18E"/>
<stop offset="0.76" stop-color="#F59584"/>
<stop offset="1" stop-color="#F69181"/>
</linearGradient>
<linearGradient id="paint31_linear_102_58" x1="222.383" y1="78.5044" x2="231.602" y2="77.0616" gradientUnits="userSpaceOnUse">
<stop stop-color="#F7A393"/>
<stop offset="0.43" stop-color="#F5A794"/>
<stop offset="0.51" stop-color="#F5A18E"/>
<stop offset="0.76" stop-color="#F59584"/>
<stop offset="1" stop-color="#F69181"/>
</linearGradient>
</defs>
</svg>
