<svg width="1415" height="660" viewBox="0 0 1415 660" fill="none" xmlns="http://www.w3.org/2000/svg">
<path d="M428.772 238.367H423.133V208.036H424.486L426.722 210.682C427.228 210.203 427.781 209.752 428.383 209.328C428.984 208.904 429.606 208.542 430.249 208.241C430.905 207.927 431.582 207.681 432.279 207.503C432.977 207.325 433.681 207.236 434.392 207.236C435.937 207.236 437.386 207.517 438.739 208.077C440.106 208.624 441.296 209.403 442.308 210.415C443.333 211.427 444.14 212.65 444.728 214.086C445.315 215.508 445.609 217.087 445.609 218.823C445.609 220.628 445.315 222.255 444.728 223.704C444.14 225.14 443.333 226.363 442.308 227.375C441.296 228.373 440.106 229.139 438.739 229.672C437.386 230.205 435.937 230.472 434.392 230.472C433.899 230.472 433.407 230.417 432.915 230.308C432.437 230.198 431.958 230.055 431.479 229.877C431.015 229.686 430.55 229.474 430.085 229.241C429.634 229.009 429.196 228.77 428.772 228.523V238.367ZM439.99 218.823C439.99 217.894 439.84 217.06 439.539 216.321C439.252 215.583 438.855 214.961 438.35 214.455C437.844 213.936 437.249 213.539 436.565 213.266C435.882 212.992 435.157 212.855 434.392 212.855C433.626 212.855 432.901 212.992 432.218 213.266C431.548 213.539 430.96 213.936 430.454 214.455C429.948 214.961 429.545 215.583 429.244 216.321C428.957 217.06 428.813 217.894 428.813 218.823C428.813 219.712 428.957 220.525 429.244 221.264C429.545 222.002 429.948 222.631 430.454 223.15C430.96 223.67 431.548 224.073 432.218 224.36C432.901 224.647 433.626 224.791 434.392 224.791C435.157 224.791 435.882 224.647 436.565 224.36C437.249 224.073 437.844 223.67 438.35 223.15C438.855 222.631 439.252 222.002 439.539 221.264C439.84 220.525 439.99 219.712 439.99 218.823Z" fill="white" fill-opacity="0.2"/>
<path d="M308.358 133.823C308.358 135.464 308.064 136.995 307.477 138.417C306.889 139.825 306.089 141.049 305.077 142.088C304.065 143.113 302.876 143.927 301.509 144.528C300.155 145.116 298.699 145.41 297.141 145.41C295.596 145.41 294.14 145.116 292.772 144.528C291.419 143.927 290.229 143.113 289.204 142.088C288.192 141.049 287.393 139.825 286.805 138.417C286.217 136.995 285.923 135.464 285.923 133.823C285.923 132.155 286.217 130.61 286.805 129.188C287.393 127.767 288.192 126.543 289.204 125.518C290.229 124.479 291.419 123.665 292.772 123.077C294.14 122.489 295.596 122.195 297.141 122.195C298.699 122.195 300.155 122.476 301.509 123.036C302.876 123.583 304.065 124.369 305.077 125.395C306.089 126.406 306.889 127.63 307.477 129.065C308.064 130.487 308.358 132.073 308.358 133.823ZM302.719 133.823C302.719 132.921 302.568 132.107 302.268 131.383C301.98 130.645 301.584 130.016 301.078 129.496C300.572 128.963 299.978 128.56 299.294 128.286C298.624 127.999 297.906 127.855 297.141 127.855C296.375 127.855 295.65 127.999 294.967 128.286C294.297 128.56 293.709 128.963 293.203 129.496C292.711 130.016 292.321 130.645 292.034 131.383C291.747 132.107 291.604 132.921 291.604 133.823C291.604 134.671 291.747 135.457 292.034 136.182C292.321 136.906 292.711 137.535 293.203 138.068C293.709 138.602 294.297 139.025 294.967 139.34C295.65 139.641 296.375 139.791 297.141 139.791C297.906 139.791 298.624 139.647 299.294 139.36C299.978 139.073 300.572 138.67 301.078 138.15C301.584 137.631 301.98 137.002 302.268 136.264C302.568 135.525 302.719 134.712 302.719 133.823Z" fill="white" fill-opacity="0.2"/>
<path d="M490.772 425H485.133V394.3H490.772V413.659L499.119 403.077H505.559L498.278 412.224L505.559 425H499.119L494.669 417.022L490.772 422.19V425Z" fill="white" fill-opacity="0.2"/>
<path d="M363.91 527H358.045V506C358.045 505.59 357.963 505.207 357.799 504.852C357.648 504.496 357.437 504.188 357.163 503.929C356.903 503.655 356.596 503.443 356.24 503.293C355.885 503.143 355.502 503.067 355.092 503.067C354.682 503.067 354.299 503.143 353.943 503.293C353.588 503.443 353.273 503.655 353 503.929C352.74 504.188 352.535 504.496 352.385 504.852C352.234 505.207 352.159 505.59 352.159 506V527H346.273V506C346.273 505.59 346.198 505.207 346.048 504.852C345.897 504.496 345.686 504.188 345.412 503.929C345.152 503.655 344.845 503.443 344.489 503.293C344.134 503.143 343.751 503.067 343.341 503.067C342.931 503.067 342.548 503.143 342.192 503.293C341.837 503.443 341.522 503.655 341.249 503.929C340.989 504.188 340.784 504.496 340.634 504.852C340.483 505.207 340.408 505.59 340.408 506V527H334.522V506C334.522 504.783 334.748 503.642 335.199 502.575C335.664 501.495 336.293 500.559 337.086 499.766C337.893 498.959 338.829 498.33 339.896 497.879C340.976 497.414 342.124 497.182 343.341 497.182C344.435 497.182 345.487 497.38 346.499 497.776C347.511 498.159 348.42 498.72 349.227 499.458C350.033 498.72 350.936 498.159 351.934 497.776C352.945 497.38 353.998 497.182 355.092 497.182C356.309 497.182 357.45 497.414 358.517 497.879C359.597 498.33 360.533 498.959 361.326 499.766C362.133 500.559 362.762 501.495 363.213 502.575C363.678 503.642 363.91 504.783 363.91 506V527Z" fill="white" fill-opacity="0.2"/>
<path d="M663.041 499.296C663.041 500.649 662.863 501.955 662.508 503.213C662.166 504.457 661.674 505.626 661.031 506.72C660.389 507.8 659.623 508.791 658.734 509.693C657.846 510.582 656.854 511.348 655.761 511.99C654.667 512.633 653.491 513.132 652.233 513.487C650.989 513.829 649.69 514 648.337 514H639.478V484.592H648.337C649.69 484.592 650.989 484.77 652.233 485.125C653.491 485.467 654.667 485.959 655.761 486.602C656.854 487.244 657.846 488.017 658.734 488.919C659.623 489.808 660.389 490.799 661.031 491.893C661.674 492.973 662.166 494.142 662.508 495.399C662.863 496.644 663.041 497.942 663.041 499.296ZM657.155 499.296C657.155 498.079 656.923 496.938 656.458 495.871C656.007 494.805 655.378 493.875 654.571 493.082C653.778 492.275 652.842 491.64 651.762 491.175C650.695 490.71 649.554 490.478 648.337 490.478H645.404V508.114H648.337C649.554 508.114 650.695 507.889 651.762 507.438C652.842 506.973 653.778 506.344 654.571 505.551C655.378 504.744 656.007 503.808 656.458 502.741C656.923 501.661 657.155 500.513 657.155 499.296Z" fill="white" fill-opacity="0.2"/>
<path d="M849.906 73.1816C849.906 74.3984 849.674 75.54 849.209 76.6064C848.744 77.6729 848.108 78.6094 847.302 79.416C846.509 80.209 845.579 80.8379 844.513 81.3027C843.446 81.7676 842.305 82 841.088 82H826.384V52.5918H841.088C842.305 52.5918 843.446 52.8242 844.513 53.2891C845.579 53.7539 846.509 54.3896 847.302 55.1963C848.108 55.9893 848.744 56.9189 849.209 57.9854C849.674 59.0518 849.906 60.1934 849.906 61.4102C849.906 61.957 849.831 62.5176 849.681 63.0918C849.53 63.666 849.318 64.2197 849.045 64.7529C848.771 65.2861 848.443 65.7715 848.061 66.209C847.678 66.6465 847.254 67.0088 846.789 67.2959C847.268 67.5557 847.698 67.9111 848.081 68.3623C848.464 68.7998 848.792 69.2852 849.065 69.8184C849.339 70.3516 849.544 70.9121 849.681 71.5C849.831 72.0742 849.906 72.6348 849.906 73.1816ZM832.27 76.1143H841.088C841.498 76.1143 841.881 76.0391 842.236 75.8887C842.592 75.7383 842.899 75.5332 843.159 75.2734C843.433 75 843.645 74.6855 843.795 74.3301C843.945 73.9746 844.021 73.5918 844.021 73.1816C844.021 72.7715 843.945 72.3887 843.795 72.0332C843.645 71.6777 843.433 71.3701 843.159 71.1104C842.899 70.8369 842.592 70.625 842.236 70.4746C841.881 70.3242 841.498 70.249 841.088 70.249H832.27V76.1143ZM832.27 64.3633H841.088C841.498 64.3633 841.881 64.2881 842.236 64.1377C842.592 63.9873 842.899 63.7822 843.159 63.5225C843.433 63.249 843.645 62.9346 843.795 62.5791C843.945 62.21 844.021 61.8203 844.021 61.4102C844.021 61 843.945 60.6172 843.795 60.2617C843.645 59.9062 843.433 59.5986 843.159 59.3389C842.899 59.0654 842.592 58.8535 842.236 58.7031C841.881 58.5527 841.498 58.4775 841.088 58.4775H832.27V64.3633Z" fill="white" fill-opacity="0.2"/>
<path d="M1264.04 501.05C1264.04 499.409 1263.71 497.827 1263.07 496.304C1262.46 494.751 1261.61 493.389 1260.52 492.217C1259.44 491.016 1258.16 490.063 1256.7 489.36C1255.26 488.628 1253.72 488.262 1252.08 488.262C1250.44 488.262 1248.89 488.54 1247.43 489.097C1245.99 489.653 1244.73 490.474 1243.65 491.558C1242.59 492.642 1241.76 493.989 1241.14 495.601C1240.53 497.183 1240.22 498.999 1240.22 501.05C1240.22 503.013 1240.53 504.785 1241.14 506.367C1241.76 507.92 1242.59 509.253 1243.65 510.366C1244.73 511.479 1245.99 512.344 1247.43 512.959C1248.89 513.545 1250.44 513.838 1252.08 513.838C1253.72 513.838 1255.26 513.486 1256.7 512.783C1258.16 512.051 1259.44 511.099 1260.52 509.927C1261.61 508.726 1262.46 507.363 1263.07 505.84C1263.71 504.287 1264.04 502.69 1264.04 501.05ZM1276.12 519.067C1276.12 522.378 1275.49 525.483 1274.23 528.384C1272.97 531.284 1271.24 533.818 1269.05 535.986C1266.88 538.154 1264.33 539.868 1261.4 541.128C1258.5 542.388 1255.39 543.018 1252.08 543.018L1246.06 542.93V530.933L1252 531.021C1253.87 531.021 1255.47 530.771 1256.79 530.273C1258.1 529.805 1259.22 529.146 1260.13 528.296C1261.03 527.476 1261.75 526.523 1262.28 525.439C1262.84 524.355 1263.28 523.213 1263.6 522.012C1263.13 522.773 1262.46 523.403 1261.58 523.901C1260.7 524.37 1259.72 524.751 1258.63 525.044C1257.58 525.366 1256.46 525.586 1255.29 525.703C1254.15 525.82 1253.08 525.879 1252.08 525.879C1248.77 525.879 1245.65 525.308 1242.72 524.165C1239.82 523.022 1237.27 521.396 1235.08 519.287C1232.91 517.148 1231.2 514.541 1229.94 511.465C1228.68 508.389 1228.05 504.917 1228.05 501.05C1228.05 497.505 1228.68 494.209 1229.94 491.162C1231.2 488.115 1232.91 485.479 1235.08 483.252C1237.27 481.025 1239.82 479.282 1242.72 478.022C1245.65 476.763 1248.77 476.133 1252.08 476.133C1253.61 476.133 1255.12 476.323 1256.61 476.704C1258.1 477.085 1259.55 477.612 1260.96 478.286C1262.37 478.96 1263.7 479.751 1264.96 480.659C1266.25 481.567 1267.45 482.549 1268.56 483.604L1273.22 478.022H1276.12V519.067Z" fill="white" fill-opacity="0.1"/>
<path d="M346.275 89H333.361L323.119 71.8184L312.84 89H300L316.328 62.3926L300 35.7852H312.84L323.119 52.9668L333.361 35.7852H346.275L329.947 62.3926L346.275 89Z" fill="white" fill-opacity="0.1"/>
<path d="M41.8594 280.264C41.8594 282.861 41.4017 285.199 40.4863 287.277C39.571 289.355 38.3464 291.112 36.8125 292.547C35.2786 293.982 33.4974 295.083 31.4688 295.85C29.4648 296.617 27.362 297 25.1602 297H3.71094V286.35H25.1602C25.8776 286.35 26.5951 286.238 27.3125 286.016C28.0547 285.793 28.7103 285.434 29.2793 284.939C29.873 284.445 30.3431 283.814 30.6895 283.047C31.0605 282.28 31.2461 281.352 31.2461 280.264C31.2461 279.274 31.0605 278.408 30.6895 277.666C30.3431 276.899 29.873 276.268 29.2793 275.773C28.7103 275.254 28.0547 274.87 27.3125 274.623C26.5951 274.351 25.8776 274.215 25.1602 274.215H3.71094L6.82812 243.785H39.6699V254.436H16.4023L15.4375 263.564H25.1602C27.362 263.564 29.4648 263.948 31.4688 264.715C33.4974 265.482 35.2786 266.595 36.8125 268.055C38.3464 269.49 39.571 271.246 40.4863 273.324C41.4017 275.378 41.8594 277.691 41.8594 280.264Z" fill="white" fill-opacity="0.1"/>
<path d="M862.474 311H856.875V294.614H854.147V289.036H856.875V287.99C856.875 286.637 857.128 285.365 857.634 284.176C858.153 282.986 858.857 281.954 859.746 281.079C860.648 280.19 861.694 279.493 862.884 278.987C864.073 278.468 865.345 278.208 866.698 278.208H870.902V283.786H866.698C866.097 283.786 865.536 283.896 865.017 284.114C864.511 284.319 864.066 284.613 863.684 284.996C863.314 285.365 863.021 285.81 862.802 286.329C862.583 286.835 862.474 287.389 862.474 287.99V289.036H869.344V294.614H862.474V311Z" fill="white" fill-opacity="0.2"/>
<path d="M1302.99 185L1294.62 163.036H1301L1305.8 176.735L1310.57 163.036H1316.97L1308.61 185H1302.99Z" fill="white" fill-opacity="0.2"/>
<path d="M1401.75 358C1400.39 358 1399.12 357.747 1397.93 357.241C1396.74 356.722 1395.7 356.018 1394.79 355.129C1393.91 354.227 1393.2 353.181 1392.68 351.991C1392.18 350.802 1391.92 349.53 1391.92 348.177V341.655H1389.2V336.077H1391.92V327.3H1397.5V336.077H1405.99V341.655H1397.5V348.177C1397.5 348.765 1397.61 349.318 1397.83 349.838C1398.05 350.344 1398.35 350.788 1398.73 351.171C1399.12 351.554 1399.57 351.861 1400.09 352.094C1400.61 352.312 1401.16 352.422 1401.75 352.422H1405.99V358H1401.75Z" fill="white" fill-opacity="0.2"/>
<path d="M1411.24 52.1816C1411.24 53.3984 1411.01 54.54 1410.54 55.6064C1410.08 56.6729 1409.44 57.6094 1408.64 58.416C1407.84 59.209 1406.92 59.8379 1405.85 60.3027C1404.78 60.7676 1403.64 61 1402.42 61H1390.65V55.1143H1402.42C1402.83 55.1143 1403.22 55.0391 1403.57 54.8887C1403.93 54.7383 1404.24 54.5332 1404.5 54.2734C1404.77 54 1404.98 53.6855 1405.13 53.3301C1405.28 52.9746 1405.36 52.5918 1405.36 52.1816C1405.36 51.7715 1405.28 51.3887 1405.13 51.0332C1404.98 50.6777 1404.77 50.3701 1404.5 50.1104C1404.24 49.8369 1403.93 49.625 1403.57 49.4746C1403.22 49.3242 1402.83 49.249 1402.42 49.249H1394.41V43.3633H1402.42C1402.83 43.3633 1403.22 43.2881 1403.57 43.1377C1403.93 42.9873 1404.24 42.7822 1404.5 42.5225C1404.77 42.249 1404.98 41.9346 1405.13 41.5791C1405.28 41.21 1405.36 40.8203 1405.36 40.4102C1405.36 40 1405.28 39.6172 1405.13 39.2617C1404.98 38.9062 1404.77 38.5986 1404.5 38.3389C1404.24 38.0654 1403.93 37.8535 1403.57 37.7031C1403.22 37.5527 1402.83 37.4775 1402.42 37.4775H1390.65V31.5918H1402.42C1403.64 31.5918 1404.78 31.8242 1405.85 32.2891C1406.92 32.7539 1407.84 33.3896 1408.64 34.1963C1409.44 34.9893 1410.08 35.9189 1410.54 36.9854C1411.01 38.0518 1411.24 39.1934 1411.24 40.4102C1411.24 41.4902 1411.04 42.543 1410.65 43.5684C1410.25 44.5801 1409.69 45.4893 1408.97 46.2959C1409.69 47.1025 1410.25 48.0186 1410.65 49.0439C1411.04 50.0557 1411.24 51.1016 1411.24 52.1816Z" fill="white" fill-opacity="0.2"/>
<path d="M59.334 32.5918C59.334 33.918 59.0332 35.1416 58.4316 36.2627C57.8301 37.3838 57.0029 38.3545 55.9502 39.1748C54.9111 39.9814 53.6943 40.6104 52.2998 41.0615C50.9053 41.5264 49.415 41.7588 47.8291 41.7588C46.2432 41.7588 44.7529 41.5264 43.3584 41.0615C41.9639 40.6104 40.7402 39.9814 39.6875 39.1748C38.6484 38.3545 37.8281 37.3838 37.2266 36.2627C36.625 35.1416 36.3242 33.918 36.3242 32.5918C36.3242 31.8262 36.4268 31.0811 36.6318 30.3564C36.8369 29.6182 37.1309 28.9277 37.5137 28.2852C37.9102 27.6426 38.3818 27.0547 38.9287 26.5215C39.4756 25.9746 40.0908 25.5098 40.7744 25.127C40.3506 24.7578 39.9678 24.334 39.626 23.8555C39.2979 23.377 39.0107 22.8711 38.7646 22.3379C38.5322 21.8047 38.3545 21.2578 38.2314 20.6973C38.1084 20.123 38.0469 19.5557 38.0469 18.9951C38.0469 17.8467 38.2998 16.7734 38.8057 15.7754C39.3252 14.7637 40.0293 13.8818 40.918 13.1299C41.8066 12.3643 42.8457 11.7627 44.0352 11.3252C45.2246 10.8877 46.4893 10.6689 47.8291 10.6689C49.1826 10.6689 50.4541 10.8877 51.6436 11.3252C52.833 11.7627 53.8721 12.3643 54.7607 13.1299C55.6631 13.8818 56.3672 14.7637 56.873 15.7754C57.3926 16.7734 57.6523 17.8467 57.6523 18.9951C57.6523 19.5557 57.584 20.123 57.4473 20.6973C57.3242 21.2578 57.1465 21.8115 56.9141 22.3584C56.6816 22.8916 56.3945 23.3975 56.0527 23.876C55.7246 24.3545 55.3486 24.7852 54.9248 25.168C55.5947 25.5508 56.2031 26.0088 56.75 26.542C57.2969 27.0752 57.7617 27.6631 58.1445 28.3057C58.5273 28.9482 58.8213 29.6318 59.0264 30.3564C59.2314 31.0811 59.334 31.8262 59.334 32.5918ZM51.8896 19.6309C51.8896 19.1523 51.7803 18.708 51.5615 18.2979C51.3564 17.874 51.0693 17.5049 50.7002 17.1904C50.3447 16.876 49.9209 16.6299 49.4287 16.4521C48.9365 16.2744 48.417 16.1855 47.8701 16.1855C47.3096 16.1855 46.7832 16.2744 46.291 16.4521C45.7988 16.6299 45.3682 16.876 44.999 17.1904C44.6436 17.5049 44.3564 17.874 44.1377 18.2979C43.9326 18.708 43.8301 19.1523 43.8301 19.6309C43.8301 20.1094 43.9326 20.5537 44.1377 20.9639C44.3564 21.374 44.6436 21.7295 44.999 22.0303C45.3682 22.3311 45.7988 22.5703 46.291 22.748C46.7832 22.9258 47.3096 23.0146 47.8701 23.0146C48.417 23.0146 48.9365 22.9258 49.4287 22.748C49.9209 22.5703 50.3447 22.3311 50.7002 22.0303C51.0693 21.7295 51.3564 21.374 51.5615 20.9639C51.7803 20.5537 51.8896 20.1094 51.8896 19.6309ZM53.4893 32.4277C53.4893 31.7715 53.3389 31.1631 53.0381 30.6025C52.751 30.0283 52.3477 29.5293 51.8281 29.1055C51.3223 28.6816 50.7207 28.3467 50.0234 28.1006C49.3398 27.8545 48.6084 27.7314 47.8291 27.7314C47.0498 27.7314 46.3184 27.8545 45.6348 28.1006C44.9512 28.3467 44.3496 28.6816 43.8301 29.1055C43.3242 29.5293 42.9209 30.0283 42.6201 30.6025C42.333 31.1631 42.1895 31.7715 42.1895 32.4277C42.1895 33.084 42.333 33.6855 42.6201 34.2324C42.9209 34.7793 43.3242 35.251 43.8301 35.6475C44.3496 36.0439 44.9512 36.3584 45.6348 36.5908C46.3184 36.8096 47.0498 36.9189 47.8291 36.9189C48.6084 36.9189 49.3398 36.8096 50.0234 36.5908C50.7207 36.3584 51.3223 36.0439 51.8281 35.6475C52.3477 35.251 52.751 34.7793 53.0381 34.2324C53.3389 33.6855 53.4893 33.084 53.4893 32.4277Z" fill="white" fill-opacity="0.2"/>
<path d="M93.5645 540.296C93.5645 537.028 93.0176 534.602 91.9238 533.016C90.8438 531.43 89.333 530.637 87.3916 530.637C85.4639 530.637 83.9668 531.423 82.9004 532.995C81.834 534.567 81.3008 537.001 81.3008 540.296C81.3008 543.563 81.834 545.99 82.9004 547.576C83.9668 549.162 85.4639 549.955 87.3916 549.955C88.3623 549.955 89.2305 549.764 89.9961 549.381C90.7617 548.984 91.4043 548.39 91.9238 547.597C92.457 546.804 92.8604 545.806 93.1338 544.603C93.4209 543.386 93.5645 541.95 93.5645 540.296ZM99.1631 540.296C99.1631 543.085 98.8555 545.443 98.2402 547.371C97.625 549.299 96.7842 550.857 95.7178 552.047C94.6514 553.236 93.4004 554.098 91.9648 554.631C90.543 555.15 89.0186 555.41 87.3916 555.41C85.7646 555.41 84.2334 555.144 82.7979 554.61C81.376 554.063 80.1318 553.195 79.0654 552.006C78.0127 550.803 77.1787 549.244 76.5635 547.33C75.9482 545.402 75.6406 543.058 75.6406 540.296C75.6406 537.507 75.9482 535.155 76.5635 533.241C77.1787 531.313 78.0127 529.755 79.0654 528.565C80.1318 527.376 81.376 526.515 82.7979 525.981C84.2334 525.448 85.7646 525.182 87.3916 525.182C89.0186 525.182 90.543 525.455 91.9648 526.002C93.4004 526.535 94.6514 527.403 95.7178 528.606C96.7842 529.81 97.625 531.368 98.2402 533.282C98.8555 535.196 99.1631 537.534 99.1631 540.296Z" fill="white" fill-opacity="0.2"/>
</svg>
