<svg width="574" height="572" viewBox="0 0 574 572" fill="none" xmlns="http://www.w3.org/2000/svg">
<g clip-path="url(#clip0_109_2)">
<path d="M259.665 1.41473C37.3233 22.4257 -82.3602 286.419 64.9216 466.679C132.985 550.296 246.643 591.659 358.669 562.895C418.686 547.466 470.578 513.236 507.545 468.695C668.976 275.216 516.913 -23.0463 259.665 1.41473Z" fill="url(#paint0_radial_109_2)"/>
<path d="M286.68 493.078C208.511 493.078 140.409 449.893 105.153 386.124C27.3723 245.521 134.656 74.8362 291.267 79.837C390.893 81.8528 475.049 155.081 491.102 252.46C512.17 378.138 414.799 493.078 286.68 493.078Z" fill="url(#paint1_radial_109_2)"/>
<g opacity="0.75">
<path d="M368.97 319.835C360.379 317.703 358.008 328.363 362.867 330.767C367.726 333.209 379.931 340.497 382.38 335.612C384.829 330.767 378.726 322.277 368.97 319.835Z" fill="#056DB1"/>
<path d="M454.291 229.899C445.973 231.798 436.022 235.985 444.534 242.071C453.086 248.157 466.457 245.715 467.701 238.427C468.906 231.1 470.15 226.255 454.291 229.899Z" fill="#056DB1"/>
<path d="M287.302 425.587C269.421 414.888 243.416 411.011 240.968 421.943C238.519 432.875 255.583 449.893 276.301 447.451C297.058 445.047 299.507 432.875 287.302 425.587Z" fill="#056DB1"/>
<path d="M345.609 484.588C329.477 489.356 312.529 492.225 294.999 492.884C299.002 467.57 323.141 475.556 336.046 479.045C339.817 480.092 342.965 482.146 345.609 484.588Z" fill="#056DB1"/>
<path d="M173.954 424.385C181.845 427.835 187.364 411.011 176.403 396.435C165.441 381.859 160.544 363.601 147.133 359.957C133.723 356.313 126.415 403.723 173.954 424.385Z" fill="#056DB1"/>
<path d="M120.312 364.802C115.998 365.578 114.21 374.533 123.966 375.734C133.723 376.975 133.723 362.399 120.312 364.802Z" fill="#056DB1"/>
<path d="M228.801 314.989C220.21 314.214 211.737 318.633 212.942 328.363C214.147 338.093 227.557 328.363 233.66 328.363C239.762 328.363 242.211 316.191 228.801 314.989Z" fill="#056DB1"/>
<path d="M312.918 201.949C305.532 198.46 304.366 214.121 310.469 216.525C316.572 218.967 333.636 211.64 312.918 201.949Z" fill="#056DB1"/>
</g>
<path d="M234.904 280.953C193.467 288.241 187.365 289.443 149.582 321.076C124.588 341.97 98.5059 335.225 83.735 328.247C80.9751 314.757 79.4979 300.762 79.4979 286.419C79.4979 227.651 104.103 174.58 143.596 136.978C151.72 141.785 160.116 148.297 166.647 156.981C184.916 181.287 181.262 191.017 234.904 218.967C288.507 246.917 276.34 273.665 234.904 280.953Z" fill="url(#paint2_linear_109_2)"/>
<path d="M473.96 197.878C435.711 189.892 409.629 233.038 383.585 229.898C353.11 226.255 361.662 181.286 336.046 133.876C323.218 110.152 322.324 93.7151 324.618 83.2484C390.815 95.4208 445.934 138.993 473.96 197.878Z" fill="url(#paint3_linear_109_2)"/>
<path d="M493.901 286.419C493.901 366.625 448.111 436.131 381.175 470.4C365.899 446.327 390.66 428.456 420.163 409.81C456.74 386.705 422.612 376.975 428.676 339.295C434.778 301.615 411.611 299.173 422.573 267.579C430.386 245.017 471.123 266.416 493.784 280.526C493.862 282.465 493.901 284.442 493.901 286.419Z" fill="url(#paint4_linear_109_2)"/>
<path d="M299.507 349.025C277.351 355.887 265.378 329.565 237.352 335.651C209.327 341.737 186.159 391.551 223.942 390.349C261.724 389.148 271.481 384.263 299.507 403.723C327.533 423.184 360.457 409.81 370.213 379.417C379.931 349.025 373.828 325.921 299.507 349.025Z" fill="url(#paint5_linear_109_2)"/>
<path d="M345.803 257.849C334.141 261.57 331.187 267.579 334.841 274.867C338.495 282.155 353.11 280.953 360.418 291.885C367.726 302.817 386.034 316.191 390.893 291.885C395.791 267.579 372.624 249.32 345.803 257.849Z" fill="url(#paint6_linear_109_2)"/>
<path opacity="0.5" d="M303.161 194.622C300.985 210.826 286.097 194.622 261.725 189.777C237.353 184.931 227.596 170.316 238.558 160.586C249.519 150.856 264.135 143.568 278.789 152.058C293.405 160.586 305.571 176.402 303.161 194.622Z" fill="#056DB1"/>
<path d="M277.545 98.5999C247.07 98.5999 232.455 115.618 204.429 125.348C187.715 131.124 174.498 124.418 166.53 118.06C200.425 93.948 241.901 79.7599 286.719 79.7599C288.274 79.7599 289.79 79.7598 291.306 79.8374C293.443 88.5984 292.666 98.5999 277.545 98.5999Z" fill="url(#paint7_linear_109_2)"/>
<path opacity="0.45" d="M484.028 349.645C467.119 402.172 429.686 445.551 381.175 470.4C369.864 476.176 357.969 480.944 345.608 484.627C329.477 489.395 312.529 492.264 294.998 492.923C292.239 493.039 289.479 493.078 286.68 493.078C208.511 493.078 140.409 449.893 105.153 386.124C95.2797 368.291 87.972 348.831 83.7351 328.247C80.9752 314.756 79.498 300.762 79.498 286.419C79.498 261.454 83.9294 237.535 92.0534 215.4C115.493 285.217 169.134 375.308 291.072 392.016C314.861 395.272 337.096 395.699 357.853 393.915C408.773 389.457 450.676 371.703 484.028 349.645Z" fill="url(#paint8_linear_109_2)"/>
<path opacity="0.45" d="M493.901 286.419C493.901 308.476 490.441 329.72 484.027 349.645C467.119 402.172 429.686 445.551 381.175 470.4C369.864 476.176 357.969 480.944 345.608 484.627C329.477 489.395 312.529 492.264 294.998 492.923C292.238 493.039 289.479 493.078 286.68 493.078C208.51 493.078 140.409 449.893 105.153 386.124C140.992 400.816 183.672 410.856 234.282 412.833C283.376 414.771 324.112 407.212 357.852 393.877C430.386 365.268 470.811 309.91 492.734 264.322C493.318 269.633 493.668 275.06 493.823 280.487C493.862 282.464 493.901 284.442 493.901 286.419Z" fill="url(#paint9_linear_109_2)"/>
<path d="M491.141 252.576C491.141 252.576 461.638 144.808 325.979 109.337C244.661 88.0549 188.22 107.244 156.074 126.006C258.732 42.4279 415.732 75.6112 473.96 197.878C487.487 226.215 490.169 248.622 491.141 252.576Z" fill="url(#paint10_linear_109_2)"/>
</g>
<defs>
<radialGradient id="paint0_radial_109_2" cx="0" cy="0" r="1" gradientUnits="userSpaceOnUse" gradientTransform="translate(286.989 286.011) scale(247.601 246.93)">
<stop stop-color="#90DD6F"/>
<stop offset="1" stop-color="#B8FFA9" stop-opacity="0"/>
</radialGradient>
<radialGradient id="paint1_radial_109_2" cx="0" cy="0" r="1" gradientUnits="userSpaceOnUse" gradientTransform="translate(296.967 205.547) scale(251.473 250.791)">
<stop stop-color="#00B3DC"/>
<stop offset="1" stop-color="#056DB0"/>
</radialGradient>
<linearGradient id="paint2_linear_109_2" x1="150.536" y1="-32.1864" x2="197.814" y2="562.214" gradientUnits="userSpaceOnUse">
<stop stop-color="#F2F236"/>
<stop offset="1" stop-color="#F2F236" stop-opacity="0"/>
</linearGradient>
<linearGradient id="paint3_linear_109_2" x1="383.053" y1="-50.6811" x2="430.331" y2="543.72" gradientUnits="userSpaceOnUse">
<stop stop-color="#F2F236"/>
<stop offset="1" stop-color="#F2F236" stop-opacity="0"/>
</linearGradient>
<linearGradient id="paint4_linear_109_2" x1="401.515" y1="-52.1497" x2="448.793" y2="542.251" gradientUnits="userSpaceOnUse">
<stop stop-color="#F2F236"/>
<stop offset="1" stop-color="#F2F236" stop-opacity="0"/>
</linearGradient>
<linearGradient id="paint5_linear_109_2" x1="256.323" y1="-40.601" x2="303.601" y2="553.801" gradientUnits="userSpaceOnUse">
<stop stop-color="#F2F236"/>
<stop offset="1" stop-color="#F2F236" stop-opacity="0"/>
</linearGradient>
<linearGradient id="paint6_linear_109_2" x1="336.557" y1="-46.9835" x2="383.835" y2="547.419" gradientUnits="userSpaceOnUse">
<stop stop-color="#F2F236"/>
<stop offset="1" stop-color="#F2F236" stop-opacity="0"/>
</linearGradient>
<linearGradient id="paint7_linear_109_2" x1="218.201" y1="-37.569" x2="265.479" y2="556.832" gradientUnits="userSpaceOnUse">
<stop stop-color="#F2F236"/>
<stop offset="1" stop-color="#F2F236" stop-opacity="0"/>
</linearGradient>
<linearGradient id="paint8_linear_109_2" x1="255.184" y1="553.95" x2="286.097" y2="271.327" gradientUnits="userSpaceOnUse">
<stop stop-color="#00ACD8"/>
<stop offset="1" stop-color="#0983BD"/>
</linearGradient>
<linearGradient id="paint9_linear_109_2" x1="276.08" y1="541.801" x2="310.63" y2="246.412" gradientUnits="userSpaceOnUse">
<stop stop-color="#056EB1"/>
<stop offset="1" stop-color="#00A9D7" stop-opacity="0.3"/>
</linearGradient>
<linearGradient id="paint10_linear_109_2" x1="437.169" y1="-34.0553" x2="307.312" y2="222.713" gradientUnits="userSpaceOnUse">
<stop stop-color="#E2FFB5"/>
<stop offset="1" stop-color="#FFFFB3" stop-opacity="0"/>
</linearGradient>
<clipPath id="clip0_109_2">
<rect width="574" height="572" fill="white"/>
</clipPath>
</defs>
</svg>
