<svg width="317" height="249" viewBox="0 0 317 249" fill="none" xmlns="http://www.w3.org/2000/svg">
<g clip-path="url(#clip0_102_2)">
<path d="M285.041 124.157C285.041 119.858 284.817 115.603 284.368 111.394C281.061 78.4343 265.395 50.8785 243.086 31.4282C222.498 13.1571 195.745 1.51378 166.029 0.170321C139.501 -1.21792 112.059 5.8278 87.7152 23.2331C87.6553 23.2629 87.5955 23.3077 87.5506 23.3525C87.5356 23.3674 87.5207 23.3823 87.4309 23.442C87.401 23.457 87.386 23.4719 87.386 23.4719C66.7227 38.3246 52.2689 57.8645 43.9797 79.2852C2.87755 80.0913 -24.4441 87.6296 -27.0775 101.378C-29.8904 116.021 -4.06507 134.472 38.4136 151.28C38.4734 151.548 38.5333 151.817 38.5931 152.071C38.6081 152.131 38.6231 152.19 38.638 152.235C38.8774 153.31 39.1468 154.385 39.4161 155.459C39.446 155.594 39.4759 155.713 39.5208 155.847C39.7901 156.907 40.0894 157.967 40.3887 159.012C40.4186 159.102 40.4335 159.191 40.4635 159.281C41.1069 161.475 41.7951 163.64 42.5582 165.774C42.5732 165.834 42.6031 165.879 42.6181 165.938C42.9472 166.864 43.2764 167.789 43.6355 168.7C51.6255 189.897 65.5856 209.243 85.4109 224.05C85.9197 224.439 86.4434 224.827 86.967 225.2C87.3112 225.454 87.6553 225.692 87.9995 225.946C88.9421 226.618 89.8847 227.275 90.8423 227.902C115.127 244.158 142.119 250.487 168.079 248.71C172.897 248.412 177.64 247.845 182.293 247.024C194.368 244.889 205.829 241.008 216.438 235.664C217.545 235.112 218.637 234.529 219.73 233.932C219.909 233.828 220.104 233.738 220.283 233.634C221.361 233.037 222.438 232.44 223.5 231.813C223.59 231.768 223.68 231.708 223.755 231.663C224.802 231.051 225.834 230.409 226.867 229.768C226.957 229.708 227.046 229.663 227.121 229.603C228.184 228.932 229.246 228.23 230.293 227.529C230.338 227.499 230.383 227.469 230.428 227.439C230.518 227.379 230.593 227.32 230.682 227.26C231.356 226.797 232.014 226.349 232.672 225.872C232.837 225.752 233.001 225.648 233.151 225.528C233.809 225.051 234.453 224.573 235.111 224.095C235.246 223.991 235.381 223.886 235.515 223.797C237.056 222.632 238.553 221.453 240.034 220.214C240.258 220.035 240.468 219.841 240.692 219.662C241.186 219.244 241.68 218.826 242.159 218.408C242.443 218.169 242.727 217.915 243.011 217.662C243.43 217.288 243.849 216.915 244.268 216.527C244.553 216.273 244.837 216.005 245.121 215.736C245.151 215.706 245.181 215.676 245.211 215.646C245.361 215.512 245.51 215.363 245.675 215.228C252.109 209.302 257.929 202.675 263.016 195.435C312.228 196.271 345.864 188.658 348.827 173.342C351.565 158.922 326.472 140.786 285.041 124.157ZM40.4934 89.5701H40.4784C40.6131 89.1372 40.7477 88.7043 40.8824 88.2714C40.7477 88.7043 40.6281 89.1372 40.4934 89.5701ZM36.9473 105.527C36.9323 105.617 36.9173 105.707 36.9024 105.796C36.7378 106.856 36.5882 107.931 36.4685 109.005C36.4535 109.185 36.4236 109.349 36.4086 109.528C36.274 110.603 36.1542 111.678 36.0645 112.752C36.0645 112.797 36.0495 112.842 36.0495 112.887C35.9597 113.917 35.87 114.961 35.8101 115.991C35.7951 116.186 35.7802 116.38 35.7652 116.589C35.7054 117.633 35.6455 118.663 35.6156 119.708C35.6006 119.917 35.6006 120.141 35.6006 120.35C35.5857 120.813 35.5707 121.276 35.5557 121.739C16.3139 113.543 5.45111 105.796 6.58826 99.87C7.71045 94.0782 20.1593 90.9136 40.2989 90.3016C38.8625 95.2724 37.7403 100.348 36.9473 105.527ZM284.532 135.8C306.587 144.697 319.29 153.175 318.064 159.549C316.822 166.028 301.395 169.222 276.917 169.237C280.882 158.848 283.515 147.667 284.532 135.8ZM-12.2795 101.437C-9.73588 88.2416 18.1393 84.4649 42.3487 83.7037C42.0046 84.6889 41.6904 85.6741 41.3762 86.6742C10.703 87.749 -7.71593 93.2721 -9.39174 101.99C-11.1424 111.095 5.3314 123.694 35.7951 136.591C35.8999 136.636 35.9897 136.666 36.0944 136.711C36.0944 136.711 36.0944 136.711 36.1094 136.711C36.1542 137.114 36.1842 137.517 36.2291 137.92C36.3039 138.621 36.3936 139.338 36.4685 140.039C35.855 139.786 35.2565 139.532 34.658 139.278C11.7803 129.62 -14.9279 115.2 -12.2795 101.437ZM339.879 168.894C337.231 182.657 307.066 186.18 282.228 186.702C279.789 186.747 277.276 186.777 274.747 186.777C272.712 186.777 270.647 186.762 268.567 186.732C269.121 185.777 269.675 184.792 270.213 183.821C274.328 183.881 278.323 183.866 282.183 183.776C315.281 183.06 335.255 177.432 337.006 168.342C338.757 159.236 322.283 146.637 291.804 133.74C289.56 132.785 287.241 131.844 284.877 130.904C284.877 130.755 284.892 130.59 284.892 130.441C284.936 129.56 284.966 128.665 284.996 127.784C287.72 128.859 290.368 129.949 292.956 131.038C315.819 140.711 342.527 155.131 339.879 168.894Z" fill="url(#paint0_radial_102_2)"/>
<path d="M259.814 124.515C259.814 204.481 170.159 250.547 105.042 206.929C47.5705 168.461 46.0144 84.4501 102.304 43.997C102.304 43.997 102.318 43.9821 102.348 43.9671C102.423 43.9224 102.423 43.9075 102.438 43.8925C102.483 43.8477 102.528 43.8179 102.573 43.803C167.331 -2.50162 259.814 43.1163 259.814 124.515Z" fill="url(#paint1_radial_102_2)"/>
<path d="M118.269 124.515C118.852 130.352 98.3834 124.515 85.5156 124.515C76.9271 124.515 67.8 126.082 60.9621 123.814C61.0219 114.394 62.4135 105.289 64.9272 96.6756C68.4134 96.2278 74.3236 97.2279 83.1815 104.094C98.9669 116.335 117.685 118.679 118.269 124.515Z" fill="url(#paint2_linear_102_2)"/>
<path d="M186.692 136.755C172.074 135.591 155.69 131.501 152.772 134.427C149.854 137.338 176.353 144.786 200.727 149.011C227.63 153.683 244.597 155.43 238.747 147.846C232.897 140.263 223.545 130.919 208.912 135.591C194.308 140.263 194.862 137.412 186.692 136.755Z" fill="url(#paint3_linear_102_2)"/>
<path d="M185.526 177.612C185.526 183.926 127.62 167.103 108.319 174.701C93.8949 180.373 89.2715 184.404 80.5334 183.657C70.2392 169.835 63.4462 153.25 61.516 135.218C66.5584 137.129 75.2366 140.831 89.0171 147.861C114.184 160.684 185.526 168.849 185.526 177.612Z" fill="url(#paint4_linear_102_2)"/>
<path d="M231.191 194.136C223.635 201.794 214.822 208.227 205.111 213.109C202.508 210.78 199.949 208.153 196.059 206.78C186.109 203.272 159.805 196.868 165.056 193.36C170.323 189.852 187.276 192.196 207.161 191.031C219.206 190.315 226.956 192.39 231.191 194.136Z" fill="url(#paint5_linear_102_2)"/>
<path d="M222.962 178.194C215.959 170.775 196.059 172.357 198.977 179.358C200.578 183.165 232.313 188.105 222.962 178.194Z" fill="url(#paint6_linear_102_2)"/>
<path d="M138.154 188.688C129.461 186.762 123.536 190.434 122.368 193.36C121.201 196.271 146.353 200.361 146.937 197.45C147.521 194.539 143.421 189.852 138.154 188.688Z" fill="url(#paint7_linear_102_2)"/>
<path d="M134.653 138.517C128.862 137.069 118.284 139.681 118.284 143.189C118.284 146.697 132.319 150.772 138.169 149.026C144.004 147.264 146.338 141.428 134.653 138.517Z" fill="url(#paint8_linear_102_2)"/>
<path d="M144.588 149.593C142.852 149.309 140.488 151.339 141.67 153.101C142.837 154.847 151.605 150.772 144.588 149.593Z" fill="url(#paint9_linear_102_2)"/>
<path d="M203.66 165.938C199.904 164.819 197.226 166.521 198.977 170.029C200.742 173.522 215.361 169.431 203.66 165.938Z" fill="url(#paint10_linear_102_2)"/>
<path d="M231.146 184.03C229.081 181.97 227.63 185.777 228.812 186.941C229.979 188.105 235.83 188.688 231.146 184.03Z" fill="url(#paint11_linear_102_2)"/>
<path d="M177.909 222.155C172.224 223.17 166.358 223.692 160.388 223.692C139.904 223.692 120.857 217.512 105.042 206.914C116.757 203.54 136.239 206.302 155.72 215.527C164.787 219.841 172.224 221.587 177.909 222.155Z" fill="url(#paint12_linear_102_2)"/>
<path d="M182.024 211.452C179.047 211.452 179.106 213.198 179.106 214.96C179.106 216.706 182.024 217.288 183.79 214.96C185.525 212.616 184.358 211.452 182.024 211.452Z" fill="url(#paint13_linear_102_2)"/>
<path d="M174.423 213.198C173.271 213.004 172.673 216.109 174.423 216.706C176.174 217.288 177.924 213.781 174.423 213.198Z" fill="url(#paint14_linear_102_2)"/>
<path d="M107.75 181.105C103.695 181.911 97.7998 184.613 103.067 188.106C108.333 191.613 119.436 178.776 107.75 181.105Z" fill="url(#paint15_linear_102_2)"/>
<path d="M88.4484 132.68C86.3387 130.576 84.9322 136.188 86.1142 136.77C87.2664 137.353 90.7826 135.009 88.4484 132.68Z" fill="url(#paint16_linear_102_2)"/>
<path d="M105.401 99.4222C100.224 96.8398 93.1167 94.7499 91.9497 97.0935C90.7826 99.4222 113.002 115.185 118.269 111.678C123.536 108.17 110.084 101.751 105.401 99.4222Z" fill="url(#paint17_linear_102_2)"/>
<path d="M191.376 124.515C187.68 122.664 187.86 130.934 193.126 133.262C198.393 135.591 193.725 125.679 191.376 124.515Z" fill="url(#paint18_linear_102_2)"/>
<path d="M248.697 134.427C241.635 134.098 244.014 145.518 248.697 146.682C253.38 147.846 260.981 135.009 248.697 134.427Z" fill="url(#paint19_linear_102_2)"/>
<path opacity="0.45" d="M216.258 206.556C212.697 208.974 208.987 211.153 205.111 213.109C196.657 217.363 187.515 220.453 177.894 222.155C172.209 223.17 166.343 223.692 160.373 223.692C139.89 223.692 120.842 217.512 105.027 206.914C95.5855 200.6 87.3112 192.718 80.5481 183.627C79.0818 181.657 77.6753 179.627 76.3586 177.537C68.4135 165.043 63.1916 150.638 61.5307 135.188C61.1567 131.68 60.9622 128.098 60.9622 124.5C60.9622 124.261 60.9622 124.022 60.9622 123.799C61.022 116.036 61.9646 108.483 63.7153 101.243C76.1342 133.964 99.8648 171.462 145.126 191.643C150.752 194.151 156.707 196.39 163.007 198.316C181.874 204.078 199.695 206.496 216.258 206.556Z" fill="url(#paint20_linear_102_2)"/>
<path opacity="0.55" d="M254.144 157.564C249.236 171.417 241.336 183.866 231.191 194.136C226.643 198.749 221.645 202.913 216.259 206.556C212.697 208.974 208.987 211.153 205.111 213.109C196.658 217.363 187.516 220.453 177.895 222.155C172.209 223.17 166.344 223.692 160.373 223.692C139.89 223.692 120.842 217.512 105.027 206.914C95.5856 200.6 87.3114 192.718 80.5483 183.627C79.082 181.657 77.6755 179.627 76.3588 177.537C101.795 186.419 124.673 190.688 145.127 191.628C195.116 193.927 230.712 176.328 254.144 157.564Z" fill="url(#paint21_linear_102_2)"/>
<path d="M102.573 43.8029C102.498 43.8625 102.438 43.8923 102.408 43.922C102.438 43.8923 102.513 43.8327 102.573 43.8029Z" fill="url(#paint22_linear_102_2)"/>
<path d="M259.081 136.546C259.53 132.173 263.121 82.9871 203.376 50.1171C143.84 17.3666 106.104 41.3996 102.573 43.8029C118.867 32.1596 138.827 25.3079 160.388 25.3079C220.179 25.3228 266.323 77.5984 259.081 136.546Z" fill="url(#paint23_linear_102_2)"/>
<path d="M265.201 131.874C263.405 131.113 261.565 130.352 259.68 129.605C259.62 130.919 259.515 132.203 259.41 133.501C276.991 140.592 287.121 147.354 286.148 152.429C285.161 157.609 272.802 160.147 253.201 160.147C229.605 160.147 195.505 156.474 158.054 149.309C117.85 141.607 82.7325 131.591 60.9919 122.306C45.6703 115.768 36.992 109.603 37.9047 104.886C38.7875 100.258 48.7226 97.7503 64.7625 97.2577C64.8223 97.0487 64.8672 96.8547 64.9271 96.6606C65.1515 95.8844 65.3909 95.1231 65.6303 94.3618C41.1965 95.2127 26.5033 99.6312 25.1716 106.572C23.7801 113.827 36.9022 123.873 61.1864 134.143C61.2613 134.173 61.351 134.203 61.4258 134.248C86.533 144.831 120.707 154.564 157.695 161.654C190.523 167.939 222.064 171.476 247.814 171.79C251.166 171.835 254.413 171.82 257.54 171.76C283.904 171.193 299.839 166.7 301.231 159.46C302.622 152.19 289.5 142.144 265.201 131.874Z" fill="url(#paint24_linear_102_2)"/>
<path d="M259.814 124.231V124.515C259.814 125.396 259.799 126.262 259.784 127.142C261.954 127.993 264.079 128.859 266.129 129.74C284.353 137.442 305.645 148.936 303.535 159.893C301.425 170.849 277.38 173.656 257.6 174.089C255.655 174.133 253.665 174.148 251.63 174.148C249.954 174.148 248.248 174.133 246.513 174.104C220.867 173.671 189.67 170.148 157.246 163.938C120.693 156.937 86.8623 147.354 61.7253 136.905C61.2315 136.696 60.7527 136.502 60.2739 136.293C42.0495 128.59 20.7578 117.096 22.8676 106.139C24.8875 95.6157 47.1218 92.6153 66.4235 92.0033C66.8275 90.824 67.2614 89.6448 67.7253 88.4805C34.9573 89.1223 13.1868 95.1381 11.0771 106.08C8.8327 117.753 29.4212 132.456 63.2664 145.846C87.7302 155.519 119.137 164.505 153.85 171.163C186.259 177.373 216.752 180.612 242.084 181.06C281.39 181.746 308.278 175.686 310.627 163.46C312.827 151.937 292.837 137.472 259.814 124.231Z" fill="url(#paint25_linear_102_2)"/>
</g>
<defs>
<radialGradient id="paint0_radial_102_2" cx="0" cy="0" r="1" gradientUnits="userSpaceOnUse" gradientTransform="translate(160.846 124.515) scale(115.928 115.656)">
<stop stop-color="#F9AB63"/>
<stop offset="1" stop-color="#FFCC9C" stop-opacity="0"/>
</radialGradient>
<radialGradient id="paint1_radial_102_2" cx="0" cy="0" r="1" gradientUnits="userSpaceOnUse" gradientTransform="translate(167.417 81.6158) scale(118.561 118.282)">
<stop stop-color="#FBDFB6"/>
<stop offset="1" stop-color="#ED8D35"/>
</radialGradient>
<linearGradient id="paint2_linear_102_2" x1="71.5135" y1="247.579" x2="108.188" y2="-9.74881" gradientUnits="userSpaceOnUse">
<stop stop-color="#BD602B"/>
<stop offset="1" stop-color="#E28E2B" stop-opacity="0"/>
</linearGradient>
<linearGradient id="paint3_linear_102_2" x1="179.018" y1="262.9" x2="215.693" y2="5.57338" gradientUnits="userSpaceOnUse">
<stop stop-color="#BD7A2B"/>
<stop offset="1" stop-color="#E2832B" stop-opacity="0"/>
</linearGradient>
<linearGradient id="paint4_linear_102_2" x1="109.699" y1="253.022" x2="146.374" y2="-4.30602" gradientUnits="userSpaceOnUse">
<stop stop-color="#BD712B"/>
<stop offset="1" stop-color="#E2992B" stop-opacity="0"/>
</linearGradient>
<linearGradient id="paint5_linear_102_2" x1="187.77" y1="264.148" x2="224.445" y2="6.81969" gradientUnits="userSpaceOnUse">
<stop stop-color="#BD602B"/>
<stop offset="1" stop-color="#E22B57" stop-opacity="0"/>
</linearGradient>
<linearGradient id="paint6_linear_102_2" x1="199.347" y1="265.798" x2="236.022" y2="8.47043" gradientUnits="userSpaceOnUse">
<stop stop-color="#BD712B"/>
<stop offset="1" stop-color="#E22B57" stop-opacity="0"/>
</linearGradient>
<linearGradient id="paint7_linear_102_2" x1="126.057" y1="255.353" x2="162.731" y2="-1.97591" gradientUnits="userSpaceOnUse">
<stop stop-color="#BD832B"/>
<stop offset="1" stop-color="#E22B57" stop-opacity="0"/>
</linearGradient>
<linearGradient id="paint8_linear_102_2" x1="114.889" y1="253.762" x2="151.564" y2="-3.56764" gradientUnits="userSpaceOnUse">
<stop stop-color="#BD832B"/>
<stop offset="1" stop-color="#E22B57" stop-opacity="0"/>
</linearGradient>
<linearGradient id="paint9_linear_102_2" x1="129.388" y1="255.828" x2="166.063" y2="-1.50042" gradientUnits="userSpaceOnUse">
<stop stop-color="#BD712B"/>
<stop offset="1" stop-color="#E22B57" stop-opacity="0"/>
</linearGradient>
<linearGradient id="paint10_linear_102_2" x1="189.542" y1="264.401" x2="226.217" y2="7.07218" gradientUnits="userSpaceOnUse">
<stop stop-color="#BD602B"/>
<stop offset="1" stop-color="#E2782B" stop-opacity="0"/>
</linearGradient>
<linearGradient id="paint11_linear_102_2" x1="218.867" y1="268.579" x2="255.541" y2="11.2553" gradientUnits="userSpaceOnUse">
<stop stop-color="#BD7A2B"/>
<stop offset="1" stop-color="#E22B57" stop-opacity="0"/>
</linearGradient>
<linearGradient id="paint12_linear_102_2" x1="135.431" y1="256.689" x2="172.106" y2="-0.6385" gradientUnits="userSpaceOnUse">
<stop stop-color="#BD832B"/>
<stop offset="1" stop-color="#E2992B" stop-opacity="0"/>
</linearGradient>
<linearGradient id="paint13_linear_102_2" x1="174.87" y1="262.309" x2="211.545" y2="4.98438" gradientUnits="userSpaceOnUse">
<stop stop-color="#BD832B"/>
<stop offset="1" stop-color="#E2782B" stop-opacity="0"/>
</linearGradient>
<linearGradient id="paint14_linear_102_2" x1="168.227" y1="261.363" x2="204.902" y2="4.03413" gradientUnits="userSpaceOnUse">
<stop stop-color="#BD7A2B"/>
<stop offset="1" stop-color="#E2992B" stop-opacity="0"/>
</linearGradient>
<linearGradient id="paint15_linear_102_2" x1="97.3047" y1="251.254" x2="133.979" y2="-6.07094" gradientUnits="userSpaceOnUse">
<stop stop-color="#BD712B"/>
<stop offset="1" stop-color="#E2992B" stop-opacity="0"/>
</linearGradient>
<linearGradient id="paint16_linear_102_2" x1="71.3184" y1="247.552" x2="107.993" y2="-9.77713" gradientUnits="userSpaceOnUse">
<stop stop-color="#BD602B"/>
<stop offset="1" stop-color="#E2992B" stop-opacity="0"/>
</linearGradient>
<linearGradient id="paint17_linear_102_2" x1="84.8016" y1="249.472" x2="121.476" y2="-7.85534" gradientUnits="userSpaceOnUse">
<stop stop-color="#BD712B"/>
<stop offset="1" stop-color="#E2A42B" stop-opacity="0"/>
</linearGradient>
<linearGradient id="paint18_linear_102_2" x1="173.197" y1="262.072" x2="209.872" y2="4.74285" gradientUnits="userSpaceOnUse">
<stop stop-color="#BD712B"/>
<stop offset="1" stop-color="#E2832B" stop-opacity="0"/>
</linearGradient>
<linearGradient id="paint19_linear_102_2" x1="231.02" y1="270.313" x2="267.694" y2="12.9834" gradientUnits="userSpaceOnUse">
<stop stop-color="#BD712B"/>
<stop offset="1" stop-color="#E2A42B" stop-opacity="0"/>
</linearGradient>
<linearGradient id="paint20_linear_102_2" x1="128.694" y1="218.712" x2="143.83" y2="130.594" gradientUnits="userSpaceOnUse">
<stop stop-color="#BD712B"/>
<stop offset="1" stop-color="#E2992B" stop-opacity="0"/>
</linearGradient>
<linearGradient id="paint21_linear_102_2" x1="180.548" y1="228.223" x2="162.772" y2="157.389" gradientUnits="userSpaceOnUse">
<stop stop-color="#A66D2B"/>
<stop offset="1" stop-color="#AE522B" stop-opacity="0"/>
</linearGradient>
<linearGradient id="paint22_linear_102_2" x1="102.57" y1="43.7473" x2="102.405" y2="43.981" gradientUnits="userSpaceOnUse">
<stop stop-color="#FADBD1"/>
<stop offset="1" stop-color="#F9F1DD" stop-opacity="0"/>
</linearGradient>
<linearGradient id="paint23_linear_102_2" x1="238.817" y1="9.02623" x2="195.558" y2="69.8416" gradientUnits="userSpaceOnUse">
<stop stop-color="#FAEAD1"/>
<stop offset="1" stop-color="#F9E4DD" stop-opacity="0"/>
</linearGradient>
<linearGradient id="paint24_linear_102_2" x1="148.397" y1="185.231" x2="172.272" y2="100.597" gradientUnits="userSpaceOnUse">
<stop stop-color="#FAC2B0"/>
<stop offset="1" stop-color="#F2AA68"/>
</linearGradient>
<linearGradient id="paint25_linear_102_2" x1="146.68" y1="184.747" x2="170.555" y2="100.113" gradientUnits="userSpaceOnUse">
<stop stop-color="#FAC2B0"/>
<stop offset="1" stop-color="#F29168"/>
</linearGradient>
<clipPath id="clip0_102_2">
<rect width="317" height="249" fill="white"/>
</clipPath>
</defs>
</svg>
