<svg width="356" height="272" viewBox="0 0 356 272" fill="none" xmlns="http://www.w3.org/2000/svg">
<g clip-path="url(#clip0_23_28)">
<path d="M314.497 133.698C339.795 117.241 353.645 101.588 350.489 90.1533C347.128 77.9152 324.955 72.7923 291.774 74.4162C291.868 74.6004 291.947 74.7845 292.025 74.9687C270.7 29.8 227.186 0 178.003 0C121.973 0 73.9211 38.5893 56.9301 93.0663C57.0243 92.7482 57.1185 92.4134 57.2284 92.0953C-11.4424 98.8421 -20.3147 125.93 41.5094 154.307C16.2113 170.764 2.3609 186.417 5.51728 197.852C9.16046 211.128 34.9297 216.016 72.869 213.036C86.2797 233.813 104.684 250.002 125.742 260.097C141.697 267.748 159.379 272 178.003 272C227.186 272 270.967 242.15 292.292 196.462C294.553 196.044 352.954 193.114 355.891 171.4C357.477 159.597 341.711 146.187 314.497 133.698ZM293.14 77.3628C320.166 75.8895 337.785 79.5224 340.313 88.7302C344.443 103.731 306.865 124.909 305.232 126.114C304.054 108.469 299.704 91.7605 292.795 76.6094C292.905 76.8605 293.03 77.1116 293.14 77.3628ZM56.2706 95.2093C56.6003 94.0541 50.4289 112.235 50.4289 135.992C50.4289 139.708 50.5702 142.856 50.7744 145.852C50.7744 145.852 50.7744 145.852 50.7587 145.852C-5.03538 122.917 -4.07746 100.784 56.2706 95.2093ZM13.3532 190.82C10.9192 181.964 22.8538 169.408 44.6815 155.73C48.6544 157.471 51.3554 158.576 52.2505 158.944C54.6845 174.263 59.5368 188.694 66.3521 201.819C64.8446 201.786 17.7188 206.674 13.3532 190.82ZM347.191 165.624C345.008 181.746 298.95 184.09 297.254 184.391C302.562 169.525 305.216 154.34 305.546 139.273C307.226 138.252 308.906 137.264 311.544 135.59C334.942 145.852 348.432 156.483 347.191 165.624Z" fill="url(#paint0_radial_23_28)"/>
<path d="M284.158 135.992C284.158 139.943 283.969 143.843 283.593 147.694C283.231 151.494 282.682 155.244 281.975 158.944C280.263 167.784 277.594 176.238 274.076 184.174C270.464 192.36 265.942 200.011 260.681 206.976C255.311 214.091 249.139 220.486 242.308 226.028C233.028 233.578 222.538 239.538 211.216 243.506C200.773 247.189 189.592 249.164 177.987 249.164C162.488 249.164 147.774 245.615 134.505 239.253C120.953 232.758 108.924 223.332 99.1094 211.714C83.3903 193.114 73.3715 168.905 72.0054 142.253C71.8954 140.177 71.8483 138.084 71.8483 135.975C71.8483 125.997 73.0575 116.32 75.3345 107.096C77.0304 100.198 79.3389 93.5685 82.1498 87.2569C99.2193 49.1364 135.714 22.7852 178.003 22.7852C213.069 22.7852 244.177 40.9163 263.492 68.8579C266.601 73.3614 269.412 78.1328 271.893 83.105C278.724 96.8666 282.98 112.319 283.938 128.726C284.079 131.153 284.158 133.564 284.158 135.992Z" fill="url(#paint1_radial_23_28)"/>
<path d="M132.84 194.487C132.699 194.52 132.557 194.554 132.416 194.587C128.663 195.257 128.05 189.933 129.291 185.262C130.249 181.679 132.384 178.331 134.394 178.298C135.007 178.281 135.604 178.582 136.153 179.269C142.78 187.606 136.64 193.482 132.84 194.487Z" fill="#3D3789"/>
<path d="M134.52 239.27C120.968 232.775 108.94 223.349 99.1251 211.731C100.9 210.994 102.957 210.559 105.344 210.508C106.019 210.492 106.725 210.508 107.448 210.559C126.182 211.898 126.81 224.538 131.804 231.201C132.934 232.708 133.641 234.03 134.065 235.202C134.709 236.927 134.709 238.283 134.52 239.27Z" fill="#4A3E9E"/>
<g opacity="0.75">
<path d="M157.4 229.192C148.606 220.436 138.697 217.556 139.09 210.609C139.121 210.157 139.184 209.705 139.294 209.219C141.162 201.233 159.959 208.148 168.015 209.219C178.002 210.558 186.749 210.558 188.618 224.538C190.487 238.517 166.759 238.517 157.4 229.192Z" fill="#4A3E9E"/>
<path d="M216.099 205.235C208.891 207.595 200.223 205.77 198.354 201.133C198.118 200.547 197.993 199.911 197.993 199.241C197.993 193.248 211.262 192.645 216.099 188.594C220.81 184.643 225.003 181.813 228.253 181.512C231.033 181.261 233.106 182.885 234.205 187.254C236.702 197.249 224.217 202.573 216.099 205.235Z" fill="#4A3E9E"/>
<path d="M257.933 128.006C253.976 130.35 249.108 132.359 248.087 128.726C247.648 127.186 247.899 124.641 249.202 120.69C252.547 110.494 261.687 105.773 267.23 107.715C268.926 108.301 270.292 109.507 271.046 111.365C275.411 122.012 263.555 124.674 257.933 128.006Z" fill="#4A3E9E"/>
<path d="M115.708 167.851C115.661 167.884 115.614 167.918 115.566 167.951C103.915 174.731 88.0856 159.296 89.3418 153.302C89.5617 152.298 89.8286 151.544 90.2055 150.975C92.0585 148.179 96.2199 150.205 105.579 151.31C116.728 152.633 122.35 163.799 115.708 167.851Z" fill="#4A3E9E"/>
<path d="M89.326 132.007C88.902 132.292 88.4938 132.493 88.1012 132.627C84.1125 133.966 82.9191 126.834 81.2074 121.36C79.6214 116.304 81.1603 114.562 83.1703 114.948C83.5472 115.014 83.9398 115.165 84.3324 115.366C90.5823 118.681 94.3197 128.676 89.326 132.007Z" fill="#4A3E9E"/>
<path d="M242.308 226.028C233.027 233.578 222.537 239.538 211.215 243.506C210.76 243.004 210.336 242.451 209.991 241.849C208.577 239.505 208.185 236.407 210.477 232.507C215.644 223.684 221.705 226.48 230.468 224.521C233.734 223.784 236.278 223.801 238.272 224.236C240.015 224.605 241.334 225.291 242.308 226.028Z" fill="#4A3E9E"/>
<path d="M281.975 158.944C278.505 176.875 271.061 193.248 260.681 206.976C259.425 206.289 258.294 205.335 257.384 204.013C257.352 203.979 257.321 203.929 257.305 203.895C251.055 194.57 260.43 185.915 264.167 169.274C266.429 159.195 272.82 157.655 277.5 158.024C279.4 158.158 281.017 158.626 281.975 158.944Z" fill="#4A3E9E"/>
<path d="M284.157 135.992C284.157 139.943 283.969 143.843 283.592 147.694C282.399 147.56 281.205 147.142 280.42 146.037C280.153 145.652 279.933 145.2 279.776 144.63C278.52 139.976 274.123 141.768 275.411 137.314C276.667 132.961 279.038 130.802 281.064 129.73C282.21 129.128 283.262 128.86 283.938 128.759C284.079 131.153 284.157 133.564 284.157 135.992Z" fill="#4A3E9E"/>
<path d="M185.493 190.586C185.493 190.603 185.493 190.619 185.478 190.636C184.174 196.563 171.439 194.47 168 193.248C164.247 191.908 155.531 185.597 158.013 179.269C158.892 177.025 160.211 176.238 161.781 176.339C165.754 176.54 171.282 182.315 174.878 183.27C181.662 185.061 186.451 185.999 185.493 190.586Z" fill="#4A3E9E"/>
<path d="M101.198 187.924C100.774 188.711 100.287 189.313 99.7214 189.749C97.0204 191.858 92.9533 189.916 89.3258 186.601C86.3107 183.839 85.0702 179.168 86.4521 177.879C87.0645 177.293 88.2109 177.393 89.9539 178.616C95.5758 182.6 103.694 183.253 101.198 187.924Z" fill="#4A3E9E"/>
<path d="M240.911 183.722C238.838 185.597 236.451 183.839 235.226 181.596C234.802 180.826 234.519 180.022 234.425 179.269C234.048 176.322 234.912 175.2 238.979 177.394C240.722 178.331 241.837 179.185 242.308 180.055C242.905 181.177 242.465 182.316 240.911 183.722Z" fill="#4A3E9E"/>
<path d="M242.324 159.296C242.292 159.229 242.245 159.145 242.214 159.078C240.047 154.625 246.737 153.922 249.202 150.641C251.353 147.778 255.892 143.676 258.247 146.204C258.624 146.606 258.954 147.192 259.189 147.979C262.299 157.957 244.821 163.95 242.324 159.296Z" fill="#4A3E9E"/>
<path d="M195.481 232.523C194.366 232.289 192.702 231.385 191.932 227.702C191.869 227.35 191.791 226.948 191.744 226.53C191.115 221.876 191.115 216.552 193.612 216.552C194.869 216.552 194.869 221.206 199.234 225.877C199.705 226.379 199.972 226.948 200.082 227.534C200.553 230.096 198.025 233.059 195.481 232.523Z" fill="#4A3E9E"/>
<path d="M211.671 171.132C210.587 170.948 209.535 170.546 208.593 169.96C202.532 166.093 209.457 152.231 215.534 157.437C215.722 157.605 215.895 157.772 216.084 157.973C224.579 167.014 217.748 172.204 211.671 171.132Z" fill="#4A3E9E"/>
<path d="M132.84 194.487C132.149 193.65 131.537 192.595 131.175 191.256C130.17 187.539 133.17 180.842 134.41 178.298C135.023 178.281 135.619 178.582 136.169 179.269C142.78 187.606 136.64 193.482 132.84 194.487Z" fill="#4A3E9E"/>
</g>
<g opacity="0.7">
<path d="M142.403 187.924C141.147 187.924 140.535 193.248 141.775 193.917C143.031 194.587 147.397 187.924 142.403 187.924Z" fill="#3D3789"/>
<path d="M265.141 93.0162C259.723 92.447 260.367 99.4617 265.423 100.885C270.48 102.308 274.751 94.0207 265.141 93.0162Z" fill="#3D3789"/>
<path d="M237.33 208.566C233.969 208.566 234.205 211.228 237.33 213.89C240.439 216.552 249.186 208.566 237.33 208.566Z" fill="#3D3789"/>
<path d="M96.8164 132.66C92.6393 134.451 95.5602 137.984 98.6851 139.323C101.826 140.646 103.066 129.998 96.8164 132.66Z" fill="#3D3789"/>
<path d="M85.5884 99.3779C83.0601 99.9136 84.3321 104.032 88.0853 104.702C91.8227 105.371 91.8226 98.0553 85.5884 99.3779Z" fill="#3D3789"/>
<path d="M264.795 82.0671C261.67 82.7367 265.423 89.3831 267.92 86.7212C270.417 84.0593 267.92 81.3974 264.795 82.0671Z" fill="#3D3789"/>
<path d="M156.144 163.95C153.364 165.591 156.772 171.266 161.137 169.944C165.518 168.621 161.765 160.619 156.144 163.95Z" fill="#3D3789"/>
</g>
<path d="M200.082 227.534C200.553 230.096 198.024 233.059 195.48 232.523C194.366 232.289 192.701 231.385 191.931 227.702C195.119 229.46 197.977 228.723 200.082 227.534Z" fill="#3D3789"/>
<path d="M81.2074 121.343C79.6214 116.287 81.1603 114.546 83.1703 114.931C81.1917 119.518 85.7928 128.558 88.1169 132.61C84.1125 133.949 82.9191 126.817 81.2074 121.343Z" fill="#3D3789"/>
<path d="M99.7214 189.732C97.0204 191.841 92.9533 189.899 89.3258 186.585C86.3107 183.822 85.0702 179.151 86.4521 177.862C87.9439 185.011 95.3087 188.359 99.7214 189.732Z" fill="#3D3789"/>
<path d="M115.708 167.851C115.661 167.884 115.614 167.918 115.566 167.951C103.915 174.731 88.0856 159.296 89.3418 153.302C89.5617 152.298 89.8286 151.544 90.2055 150.975C91.9486 153.486 94.7752 156.701 99.3291 160.635C106.396 166.746 112.033 168.001 115.708 167.851Z" fill="#3D3789"/>
<path d="M158.012 179.269C158.892 177.025 160.211 176.238 161.781 176.339C159.535 179.553 158.797 183.672 163.634 187.924C171.203 194.554 180.656 192.411 185.477 190.636C184.174 196.563 171.439 194.47 168 193.248C164.262 191.908 155.547 185.597 158.012 179.269Z" fill="#3D3789"/>
<path d="M188.618 224.538C190.487 238.517 166.759 238.517 157.4 229.192C148.606 220.436 138.697 217.557 139.09 210.609C145.041 214.376 154.84 222.445 166.146 229.862C182.368 240.509 188.618 224.538 188.618 224.538Z" fill="#3D3789"/>
<path d="M211.671 171.132C217.23 169.726 216.413 161.757 215.534 157.438C215.722 157.605 215.895 157.772 216.084 157.973C224.579 167.014 217.748 172.204 211.671 171.132Z" fill="#3D3789"/>
<path d="M234.206 187.254C236.702 197.232 224.218 202.573 216.1 205.235C208.892 207.595 200.223 205.77 198.355 201.133C200.333 202.271 203.129 203.544 206.112 203.895C211.734 204.565 224.846 201.903 229.212 192.578C231.74 187.204 230.091 183.588 228.254 181.512C231.033 181.261 233.106 182.868 234.206 187.254Z" fill="#3D3789"/>
<path d="M242.293 180.072C242.905 181.177 242.465 182.332 240.911 183.739C238.838 185.614 236.451 183.856 235.226 181.612C238.257 183.136 240.848 181.462 242.293 180.072Z" fill="#3D3789"/>
<path d="M259.174 147.978C262.299 157.956 244.805 163.95 242.308 159.296C242.277 159.229 242.23 159.145 242.198 159.078C255.923 157.806 258.31 151.009 258.216 146.204C258.608 146.606 258.938 147.192 259.174 147.978Z" fill="#3D3789"/>
<path d="M257.933 128.006C253.976 130.35 249.108 132.359 248.087 128.726C252.72 124.306 263.398 123.084 268.564 118.698C272.694 115.182 269.726 110.494 267.245 107.732C268.941 108.318 270.307 109.523 271.061 111.381C275.411 122.012 263.555 124.674 257.933 128.006Z" fill="#3D3789"/>
<path d="M134.065 235.185C134.708 236.926 134.724 238.282 134.52 239.253C120.968 232.758 108.939 223.332 99.1246 211.714C100.899 210.977 102.956 210.542 105.343 210.492C107.667 213.907 110.949 218.092 115.566 223.198C119.947 228.037 126.448 232.021 134.065 235.185Z" fill="#3D3789"/>
<path d="M238.256 224.253C240.031 224.605 241.334 225.291 242.308 226.044C233.027 233.595 222.537 239.555 211.215 243.523C210.76 243.02 210.336 242.468 209.99 241.865C221.831 237.378 232.87 228.823 238.256 224.253Z" fill="#3D3789"/>
<path d="M281.975 158.944C278.504 176.874 271.061 193.248 260.681 206.976C259.425 206.289 258.294 205.335 257.383 204.013C269.852 191.959 275.976 165.574 277.515 158.023C279.4 158.157 281.017 158.626 281.975 158.944Z" fill="#3D3789"/>
<path d="M284.157 135.992C284.157 139.943 283.969 143.843 283.592 147.694C282.399 147.56 281.205 147.141 280.42 146.036C283.529 141.935 282.069 133.782 281.064 129.73C282.21 129.127 283.262 128.86 283.938 128.759C284.079 131.153 284.157 133.564 284.157 135.992Z" fill="#3D3789"/>
<path opacity="0.35" d="M284.158 135.992C284.158 139.943 283.969 143.843 283.593 147.694C283.231 151.494 282.682 155.244 281.975 158.944C278.505 176.874 271.061 193.248 260.681 206.976C255.311 214.091 249.139 220.486 242.308 226.028C233.028 233.578 222.538 239.538 211.216 243.506C200.773 247.189 189.592 249.165 177.987 249.165C162.488 249.165 147.774 245.615 134.505 239.254C120.953 232.758 108.924 223.332 99.1094 211.714C83.3903 193.114 73.3716 168.906 72.0054 142.253C101.512 238.165 281.975 222.194 271.893 83.1218C278.724 96.8834 282.98 112.336 283.938 128.743C284.079 131.153 284.158 133.564 284.158 135.992Z" fill="url(#paint2_linear_23_28)"/>
<path opacity="0.55" d="M274.076 184.174C270.464 192.36 265.942 200.011 260.681 206.976C255.311 214.091 249.139 220.486 242.308 226.028C233.028 233.578 222.538 239.538 211.216 243.506C200.773 247.189 189.592 249.164 177.987 249.164C162.488 249.164 147.774 245.615 134.505 239.253C120.953 232.758 108.924 223.332 99.1094 211.714C83.3903 193.114 73.3715 168.905 72.0054 142.253C71.8954 140.177 71.8483 138.084 71.8483 135.975C71.8483 125.997 73.0575 116.32 75.3345 107.096C96.9423 154.474 155.751 244.46 274.076 184.174Z" fill="url(#paint3_linear_23_28)"/>
<path d="M291.586 134.083C289.183 132.978 286.67 131.89 284.048 130.802C283.027 130.383 281.991 129.948 280.939 129.529C279.997 130.082 279.039 130.634 278.049 131.17C280.154 131.957 282.179 132.761 284.142 133.547C285.854 134.251 287.518 134.954 289.12 135.657C308.608 144.195 319.82 153.035 318.784 160.652C317.653 169.006 301.934 174.347 277.233 176.272C257.745 177.795 232.651 177.176 204.715 174.28C196.659 173.426 188.352 172.405 179.888 171.182C178.019 170.915 176.134 170.63 174.234 170.329C136.091 164.452 101.967 155.73 77.4231 146.321C76.3867 145.919 75.366 145.518 74.361 145.116C73.5915 144.815 72.8534 144.513 72.0997 144.212C50.005 135.138 37.0812 125.562 38.1804 117.425C39.264 109.406 53.7425 104.183 76.6851 102.073C76.9363 101.203 77.2033 100.332 77.486 99.4784C49.4712 102.224 31.3966 109.255 29.9676 119.87C28.6328 129.697 41.7608 140.847 64.405 151.26C65.2687 151.662 66.1481 152.047 67.0432 152.449C69.0689 153.336 71.1732 154.24 73.3245 155.111C95.0894 163.984 123.638 172.086 155.689 177.996C161.279 179.034 166.995 180.005 172.79 180.893C175.412 181.294 178.003 181.679 180.594 182.031C215.644 186.953 247.899 188.242 273.087 186.334C304.148 183.99 324.468 176.757 325.992 165.474C327.358 155.646 314.23 144.48 291.586 134.083Z" fill="url(#paint4_linear_23_28)"/>
<path d="M263.492 68.8915C252.531 57.7751 225.16 29.5656 169.57 35.1238C119.194 40.1797 92.5139 71.704 82.1497 87.2737C99.2193 49.1532 135.714 22.802 178.003 22.802C213.069 22.8187 244.177 40.9498 263.492 68.8915Z" fill="url(#paint5_linear_23_28)"/>
</g>
<defs>
<radialGradient id="paint0_radial_23_28" cx="0" cy="0" r="1" gradientUnits="userSpaceOnUse" gradientTransform="translate(177.999 135.994) scale(120.412 128.372)">
<stop stop-color="#C7F1F6"/>
<stop offset="1" stop-color="#D3F4F9" stop-opacity="0"/>
</radialGradient>
<radialGradient id="paint1_radial_23_28" cx="0" cy="0" r="1" gradientUnits="userSpaceOnUse" gradientTransform="translate(163.015 76.0774) scale(187.139 199.511)">
<stop stop-color="#31E7C2"/>
<stop offset="1" stop-color="#652FB0"/>
</radialGradient>
<linearGradient id="paint2_linear_23_28" x1="232.361" y1="295.809" x2="142.932" y2="64.4751" gradientUnits="userSpaceOnUse">
<stop stop-color="#4A3E9E"/>
<stop offset="1" stop-color="#4AE09E" stop-opacity="0.5"/>
</linearGradient>
<linearGradient id="paint3_linear_23_28" x1="182.045" y1="273.24" x2="165.501" y2="95.8939" gradientUnits="userSpaceOnUse">
<stop stop-color="#3D3789"/>
<stop offset="1" stop-color="#3DCC5E" stop-opacity="0.2"/>
</linearGradient>
<linearGradient id="paint4_linear_23_28" x1="174.719" y1="205.267" x2="181.104" y2="98.1282" gradientUnits="userSpaceOnUse">
<stop stop-color="#83ECEC"/>
<stop offset="1" stop-color="#8EE2D3" stop-opacity="0.3"/>
</linearGradient>
<linearGradient id="paint5_linear_23_28" x1="172.469" y1="5.44805" x2="172.82" y2="68.4452" gradientUnits="userSpaceOnUse">
<stop stop-color="#C7F1F6"/>
<stop offset="1" stop-color="#D3F4F9" stop-opacity="0"/>
</linearGradient>
<clipPath id="clip0_23_28">
<rect width="356" height="272" fill="white"/>
</clipPath>
</defs>
</svg>
