<svg width="21" height="20" viewBox="0 0 21 20" fill="none" xmlns="http://www.w3.org/2000/svg">
<path d="M7.79215 6.3531C7.88151 6.26426 7.95239 6.15861 8.00073 6.04225C8.04906 5.92589 8.0739 5.80111 8.07379 5.67511C8.07369 5.54912 8.04865 5.42438 8.00012 5.3081C7.9516 5.19182 7.88053 5.08629 7.79104 4.99759C7.70154 4.9089 7.59537 4.83879 7.47866 4.79131C7.36195 4.74383 7.23699 4.71992 7.111 4.72094C6.985 4.72197 6.86046 4.74793 6.74453 4.7973C6.62861 4.84669 6.5236 4.91852 6.43557 5.00867C5.63994 5.8124 5.10045 6.83396 4.88529 7.94424C4.67014 9.05452 4.78898 10.2037 5.22681 11.2464C5.66462 12.2891 6.40176 13.1787 7.34504 13.8025C8.28832 14.4265 9.39538 14.7567 10.5263 14.7515C11.6572 14.7464 12.7613 14.406 13.6988 13.7735C14.6363 13.141 15.3653 12.2448 15.7935 11.198C16.2218 10.1513 16.3301 9.00114 16.1047 7.89288C15.8794 6.78461 15.3307 5.76803 14.5277 4.97162C14.4386 4.88334 14.333 4.81348 14.2168 4.76602C14.1008 4.71856 13.9765 4.69444 13.851 4.69502C13.7256 4.6956 13.6015 4.72088 13.4858 4.76942C13.3702 4.81796 13.2653 4.8888 13.1769 4.9779C13.0887 5.06699 13.0188 5.17261 12.9714 5.28871C12.9239 5.40481 12.8998 5.52913 12.9003 5.65455C12.9009 5.77997 12.9262 5.90405 12.9747 6.01971C13.0233 6.13537 13.0942 6.24033 13.1832 6.32861C13.7187 6.85929 14.0848 7.53685 14.2352 8.27558C14.3856 9.01432 14.3135 9.78106 14.0282 10.4789C13.7429 11.1766 13.257 11.7742 12.632 12.1959C12.0072 12.6175 11.2713 12.8444 10.5174 12.848C9.76347 12.8514 9.02548 12.6312 8.39673 12.2153C7.76797 11.7993 7.27666 11.2063 6.98493 10.5111C6.6932 9.81597 6.61416 9.04992 6.75779 8.30983C6.90142 7.56975 7.26128 6.88888 7.79185 6.3533L7.79215 6.3531Z" fill="url(#paint0_linear_1_3)"/>
<path d="M14.5112 0.190769C13.884 0.191904 13.2631 0.317453 12.6846 0.560151C12.1061 0.802848 11.5815 1.15787 11.1412 1.60467C10.9628 1.78434 10.7204 1.88589 10.4672 1.88703C10.214 1.88819 9.97066 1.78884 9.79063 1.6108C8.89034 0.720824 7.67381 0.224271 6.40789 0.230068C5.14198 0.235866 3.93004 0.743538 3.03795 1.64172C1.57715 3.11726 0.586613 4.99277 0.191542 7.03116C-0.203529 9.06956 0.0146038 11.1793 0.818369 13.0937C1.62213 15.0082 2.97545 16.6414 4.70723 17.7869C6.43901 18.9323 8.47152 19.5386 10.5478 19.5291C12.6242 19.5196 14.651 18.8947 16.3722 17.7335C18.0936 16.5723 19.4319 14.9268 20.2181 13.0052C21.0043 11.0835 21.2032 8.97176 20.7894 6.93706C20.3758 4.90236 19.3682 3.03598 17.894 1.57385C17.4496 1.13111 16.9218 0.780897 16.3411 0.543491C15.7605 0.306084 15.1385 0.186199 14.5112 0.190769ZM16.5493 2.93053C17.7569 4.12707 18.5825 5.6548 18.9217 7.32055C19.261 8.9863 19.0987 10.7152 18.4554 12.2887C17.812 13.8623 16.7166 15.2096 15.3074 16.1606C13.8983 17.1115 12.2388 17.6232 10.5389 17.6309C8.83898 17.6388 7.17492 17.1423 5.75716 16.2043C4.3394 15.2664 3.2316 13.929 2.57388 12.3614C1.91617 10.7939 1.73806 9.06649 2.06207 7.3977C2.38609 5.72891 3.19769 4.19368 4.39422 2.98615C4.92954 2.44725 5.65673 2.14265 6.41631 2.13916C7.17591 2.13568 7.90586 2.4336 8.44609 2.96758C8.9862 3.5016 9.71608 3.79955 10.4756 3.79609C11.2352 3.79263 11.9622 3.48802 12.4975 2.94911C13.0323 2.40941 13.7597 2.10424 14.5195 2.10076C15.2793 2.09728 16.0094 2.39575 16.5491 2.93053" fill="url(#paint1_linear_1_3)"/>
<path d="M10.5 10.7265C11.357 10.7265 12.0516 10.0318 12.0516 9.17488C12.0516 8.31793 11.357 7.62323 10.5 7.62323C9.64303 7.62323 8.94833 8.31793 8.94833 9.17488C8.94833 10.0318 9.64303 10.7265 10.5 10.7265Z" fill="url(#paint2_linear_1_3)"/>
<defs>
<linearGradient id="paint0_linear_1_3" x1="10.5001" y1="20.5442" x2="10.5001" y2="0.250004" gradientUnits="userSpaceOnUse">
<stop stop-color="#7F00CD"/>
<stop offset="1" stop-color="#38A3DC"/>
</linearGradient>
<linearGradient id="paint1_linear_1_3" x1="10.4998" y1="20.5349" x2="10.4998" y2="0.248658" gradientUnits="userSpaceOnUse">
<stop stop-color="#CD003E"/>
<stop offset="1" stop-color="#38A3DC"/>
</linearGradient>
<linearGradient id="paint2_linear_1_3" x1="10.5" y1="20.5516" x2="10.5" y2="0.249767" gradientUnits="userSpaceOnUse">
<stop stop-color="#AB005C"/>
<stop offset="1" stop-color="#38A3DC"/>
</linearGradient>
</defs>
</svg>
